<svg height="353" viewBox="0 0 974 353" width="974" xmlns="http://www.w3.org/2000/svg"><path d="m475.66 52.92 2.13 1.63v5.77c-.19.19-.4.32-.49.52-.126214.3232399-.220008.6582178-.28 1l-2.62 2.56c.26.73-.43 1-.7 1.5v1.25l-.58.58v4.64c-.23.29-.43.54-.68.87-.2.61.2 1.53-.72 2v3.37l-.7.78v2.68l-.71.76v1.33l-.58.58c-.27.88 0 1.89-.12 2.78l.59.58c.190057.7447322.190057 1.5252678 0 2.27l-.5.51v2.87l.58.58v3.41l-.65.71v2l-.7.75v4l-.5.5c-.077793.196119-.131518.400947-.16.61v3.64l.62.62v7.62l-.65.65v4.76l-.62.63v9.49c-.47.49-.93 1-1.41 1.47v4.05l-.66.67v1.47c0 .21 0 .57.09.62 1.11.55.06 2.08 1.23 2.61v4.81l-.62.71v2.65l-.7.75c.05389.525366.28694 1.016182.66 1.39v3.39l-.58.58v4.2l.55.68c.29.83-.62 1-.63 1.58s.38.73.66 1.12v2c-.77.5-.55 1.64-1.32 2.12v3.41l.58.58v1.51l-.54.54v4.22l.67.66v2.73l.62.61v1.36l-.68.72v2l-.7.77v10.84c-.18.19-.34.35-.58.58v2.19l.54.54v6.26l-.58.59v4l-1.39 1.46c-.26.7.44.95.65 1.36v3.48l-.58.58v2.18l.54.54v13.08l-.58.58v5.25c-.49.86-.92 1.59-1.41 2.44v15.5l-.5.5c-.41.61.06 1.32-.26 1.92l.78 1.12c0 .87-1.2 1.42-.6 2.6l-1.44 1.09v1.62c-.79.38-.51 1.44-1.28 1.94v5.65c.14.14.3.31.51.51.06.71-.13 1.68.26 2.19.407064.60528.587653 1.334717.51 2.06l-1.37 1.06v4.29l.7.75v1.3l.66.75v3l-1.65 3.27-.8.18c-.35.2-.25.56-.27.89-.967382 1.260104-2.330448 2.158248-3.87 2.55l-1.55 1.61v2l-.7.75v2l-2.38 2.47h-2.05l-2.42 2.42c-.08.08-.17.23-.24.23-.564316-.015565-1.096969.260206-1.41.73-.9-.37-1.18 1.08-2.08.72-.35.48-1 .49-1.37.77-.951624.808068-1.847035 1.680091-2.68 2.61h-.69l-1.16 1.17c-.66.45-1.67-.21-2.15.81h-8.24l-.64-.53c-.58.59-1.63.46-2.1 1.27h-1.35l-.71.66c-.75.28-1-.48-1.46-.66h-1.81l-.81-.62h-2c-.45-.45-.85-1.13-1.41-1.33-.523652-.119058-1.000345-.390459-1.37-.78h-3.41c-.42-1-1.81-.33-2-1.35h-1.9c-.57-.26-1-.86-1.7-.82-.42-.77-1.16-.51-1.91-.55-.88-1.43-2.72-1.52-3.94-2.58-.906794-.066721-1.702839-.628183-2.07-1.46-.74-1.58-2.09-2.56-3.18-3.83v-1.34c-.409562-.352093-.682151-.83709-.77-1.37-.16-.48-.75-.82-1.16-1.22-.246563-.199263-.519055-.364104-.81-.49-1.28856-.779151-2.053969-2.195158-2-3.7l-.7-.76v-1.31l-1.28-1.29v-2.92l-1.54-.92c.59-1.46-.66-2.12-.57-3.12-.78-.67-.88-1.69-1.35-2.5l.78-1.23c-.45-1-1.48-1.55-2.14-2.44.06-.46 0-.89-.45-1-.11-.18-.22-.27-.22-.36 0-1 0-2 0-3.06 0-.11 0-.25-.07-.31-.63-.65-1.28-1.29-1.95-2v-2l-.71-.76v-2.7c-.76-.65-.78-1.77-1.65-2.41-.713424-.443091-1.30741-1.054244-1.73-1.78-.12-.75.4-.93.65-1.28v-1.36c-.63-.64-1.24-1.32-1.93-1.9-.489295-.434867-.822924-1.017839-.95-1.66-1.05-.47-.12-1.69-.93-2.37-.518089-.547471-.841416-1.250356-.92-2-.195832-1.287716-.815107-2.473485-1.76-3.37-.912987-.912957-1.49088-2.107503-1.64-3.39-.09-.61-.84-.74-.74-1.42.132766-.435372.038932-.908298-.25-1.26-.306986-.425015-.555852-.889115-.74-1.38-.115827-.400328-.283943-.783633-.5-1.14-.29523-.486342-.763029-.84344-1.31-1-.47-.08-.87-.61-1.27-.92v-2.11c-.75-.3-.49-1.18-1-1.64s-1-1-1.45-1.44-.21-1.35-1-1.65v-1.36c-1.023399-.960023-1.766565-2.180197-2.15-3.53l-2.17-2.17-.92-.24c-.17-.93-1-1.61-.94-2.69.05-.58-.53-1.14-.81-1.68-.39-.73-1.2-1.24-1.38-2.16-.806879-.096744-1.506509-.603503-1.85-1.34v-.54l-2.66-2.58v-1.3c-.31-.47-.94-.75-.7-1.44l-4.7-4.7v-2.67c-.74-.95-1.81-1.4-2.08-2.42s-1.36-1.37-1.74-2.18l-.78.18c-.06.09-.17.18-.17.27v5.78c.4.75.79 1.5 1.31 2.49v1.84l-.6.71v2l.64.71v1.34l-.68.74v1.33l-.49.49c-.084281.194608-.14148.399852-.17.61v2.29l.61.61v19.79l-.6.94c-.11.59.33.82.64 1.17v3.35l.71.77v4.06c-.87.44-.42 1.68-1.42 2l.62.62c.194879.744119.194879 1.525881 0 2.27l-.53.53v4.78l.62.71v1.29l.7.76v2c-.22.253333-.44.493333-.66.72l.53.53c.55 1.44-.59 2.35-1.19 3.89v1.61l.62.71v5.42l-.66.71v6.16l-.48.49c-.094707.185146-.158867.384381-.19.59v5.76c.91.35.41 1.55 1.24 1.9.0501.856959.31117 1.688262.76 2.42.25.41 0 1.11 0 1.72l.67.75v2c.23.26.46.5.7.75v3.37l.7.77v1.31l.58.58v4.83l-.54.69v6.2c.23.22.39.38.58.58v2.06c-.17.18-.39.43-.63.71v5.18c-.74 1.38-1.38 2.6-2.06 3.87v1.83l-3.39 3.39c.008006.253109-.022338.505971-.09.75-.09.19-.3.33-.59.61v3.46c-1.141535.402988-2.20909.990819-3.16 1.74-.87.9-1.75 1.78-2.58 2.61-1.28 0-1.81 1-2.39 1.76s-1.78.86-2.42 1.66h-2.69l-.76.71h-1.32l-.71.64h-4.06c-.53-.91-1.36-.56-2-.66l-.59.59c-.095383.04366-.196335.073946-.3.09h-10.64l-.77-.65h-1.27l-.77-.7h-2l-.76-.71h-1.31l-.74-.67h-3.12c-.6-.16-1-.69-1.68-.86-.46-.12-.95-.38-1.47-.54-1.46-.43-2.95-1.05-3.5-2.6-.3-.83-1-1.16-1.42-1.81v-.66l-3.37-3.37c.44-.93-1.16-1.16-.73-2.09l-1.2-1.2c-.057565-.086042-.101421-.1805-.13-.28-.05-.44.07-1.18-.13-1.27-.87-.42-.13-1.73-1.21-1.8v-3.5l-.7-.77v-6.81l-1.34-1.24c-.1-1.59 0-3.27-.05-4.89l-.65-.65v-4.09l-.65-.64v-3.43l.61-.71v-1.34l-.65-.71v-2l-.6-.55v-2.75l-.68-.69v-2.86l.57-.68c.13-.64-.25-.91-.69-1.34v-6.13l-.62-.62v-10.3l.65-.71v-1.35l1.29-1.27v-2.12c-.07-.08-.26-.34-.54-.71v-8.9l.66-.66v-2.72l.62-.62v-3.39c-.15-.38-.76-.49-.67-1.06-.09-.56.53-.67.66-1v-2.72l-.5-.5c-.91-1.3 1.05-2.16.28-3.68l-1.8-1.61v-5.09l-.5-.49c-.34-.5-.13-1.06-.13-1.59.16-.16.33-.32.56-.56v-5.85l1.3-2.39c-.58-.52-.43-1.58-1.22-2.06v-1.35c.27-.35.7-.54.7-1.1 0-.28.3-.55.5-.9 0-.07-.07-.3-.19-.37-1-.5-.89-1.75-1.69-2.38v-10.91l-.61-.65c-.21-1 0-2.28-.1-3.49l-1.21-1.21c-.35-.65.23-1.63-.83-2.13v-4.15c-.29-.28-.45-.44-.63-.63v-6.76l-.7-.77v-2l.66-.71v-1.36c-.18-.17-.41-.3-.49-.5-.32-.77-.06-1.71-.83-2.4-.22-.2 0-.87 0-1.32v-4.42l-1.34-2.41v-7.25l-.7-.76v-1.33l-.67-.71v-1.38l.51-.52c.221735-.733726.2493-1.512432.08-2.26l-1.24-1.25v-1.37l.61-.84c.12-.75-.41-.92-.66-1.28v-1.33c-.23-.26-.46-.5-.7-.76v-4.69c-.18-.18-.47-.34-.48-.51 0-1.41-1.07-2.57-.89-4.08.079645-1.412211.079645-2.827789 0-4.24l.65-.65v-6c.75-.58.56-1.71 1.39-2.19v-3.43c-.77-.66-.87-1.69-1.38-2.52l.71-1.07c-.1-.84-1.15-1.43-.67-2.46l-.68-.76v-2c.73-.4.64-1.31 1.12-1.91s0-1.78.9-2.34v-1.7c.41-.74.82-1.48 1.33-2.42v-3.21l-.63-.71v-1.33c.21-.24.44-.48.66-.72v-8.17c-1-.4-.28-1.83-1.33-2-.06-.56 0-.87.32-1.09s.36-.79.32-1.22.34-.78.67-1.13v-2.61c.78-.55.58-1.68 1.39-2.18-.36-1 .69-1.66.61-2.44-.09-1 .86-1.48.8-2.45s.63-1.55 1.06-2.25.14-1.08.28-1.67l1.33-1.4v-1c.4025-1.1358097 1.091392-2.1484813 2-2.94v-2c.79-.57.45-1.79 1.4-2.09v-1.45l.71-.75v-1.3l.71-.81c-.4-1.16.47-2.08.57-3.12s1.21-1.68.77-2.71l3.25-3.23h.45l4-4.09h1.11c1.066936-.5016056 2.067844-1.1330509 2.98-1.88.983148-.6323203 2.041312-1.1395676 3.15-1.51h2.24c.48-.18.59-.8 1.16-.7.57-.1.68.52 1.28.74l3.17-1.58.88 1.5h1.83l.72-.66h2.71c.35-.84 1.48-.45 1.95-1.33h2.78l.64-.65h3.49l.58.58.73-.63h2l.73.68h2c.975349.7655461 2.146886 1.2403996 3.38 1.37.690785.8004684 1.580829 1.4041807 2.58 1.75.89.31 1.58 1.12 2.67 1 .66-.1.95 1 1.73.72.39.5 1.11.77 1 1.64 0 .27.49.39.83.32 2.29 1.66 2.06 2.34 4.14 5.38.285053.5996475.454673 1.2475972.5 1.91 1 .5 1.13 1.77 1.95 2.6v2l.7.78v5.35l2 2.27c-.18.67.74.91.65 1.41-.21 1.18 1.14 2 .71 3.15l.68.76v2c.233333.26.463333.51.69.75v1.74c.262873.6743008.598171 1.3180721 1 1.92.678408.7634307 1.396043 1.4910792 2.15 2.18 1 1 1.92 1.93 2.63 2.63.59 1.15 1.1 2 1.44 2.83.31408.8069926.843229 1.5125254 1.53 2.04 1 .76 1 2.24 2.18 2.78v2.07c.93 1.08 1.16 2.53 2.06 3.6v1.74c.092115.190337.202642.3712.33.54.47.49 1 1 1.44 1.45.08.08.24.16.23.23-.11 1.11 1.18 1.37 1.34 2.16.13.61.7.93.71 1.41 0 1 1.17 1.19 1.26 1.86s.76 1 .82 1.72c.08.88 1 1.13 1.36 1.82v.68s0 .58.07.63c1 .52.33 1.67.92 2.37.495936.572153.839839 1.259959 1 2 .19.89 1.26 1.12 1.34 1.82.151995.770517.629616 1.437729 1.31 1.83.67.53.59 1.44 1.19 1.9s.77 1.33 1.24 1.86.36 1.22.87 1.73.39 1.24 1 1.59.38 1.26 1 1.65c.33.23.27.58.28 1 1.75 1.14 2.26 3.45 4.07 4.62v1.7l2.06 1.64v1.52c.35.36 1.1.76 1.22 1.3.234735.732474.675679 1.381737 1.27 1.87.43.49.1 1.39.94 1.54v2.1c.24.4.59.33.91.34 1.137054.855764 1.996273 2.028059 2.47 3.37-.34.88.47 1.39.7 2.09.300194 1.040611.881495 1.978305 1.68 2.71h.5l3.24 3.23v1c.28.75 1 1.16 1.52 1.72s1.11 1.13 1.65 1.67l1.84 3.88 3.72 3.72c.365763 1.235263 1.024434 2.363923 1.92 3.29 1.09.93 1.27 2.61 2.94 3.35.55.09.86-.63 1.37-1v-10.31l.51-.55c.42-.68.09-1.48.2-2.22l.65-.71v-1.37l-.58-.58v-8.23l.55-.71v-6l.7-.84v-2l-.64-.71v-1.33l.68-.73v-6.78l.6-.61c.23-1.54-.06-3.22.13-4.89l.55-.55v-9.4l.77-1v-3.29l.63-.63v-7.47l-.63-.7c0-.09 0-.22 0-.31.42-.85.85-1.69 1.39-2.75v-4.49l.58-.58v-5.43l-.66-1 1.4-2.68v-5.91l.47-.49c.07-.09.21-.17.21-.25 0-1.36 0-2.72 0-4l.5-.51c.33-.63.11-1.31.19-2.11l.6-.8v-1.46l-.57-.57v-2.07l.61-.71v-1.28l.71-.76v-1.33l.7-.75v-1.33l.25-.26c.08-.08.2-.15.24-.24.28-.79 0-1.78.85-2.37v-2.46l.64-.79v-1.85c.27-.43.66-.77.69-1.15 0-.56.49-.71.71-1.17v-1.27l.64-.62c0-.39.05-.92.08-1.41.23-.29.67-.63.61-.79-.35-1 .55-1.62.74-2.45.22-1 1.32-1 2-1.5.26-.21.49-.47.72-.69v-1.39l-.51-.51c-.224053-.7319881-.268642-1.507149-.13-2.26.44-.56 1.07-.13 1.86-.48.31-.34.83-.93 1.48-1.68l-1.33-.94v-2.3l1-1h1.24c.42.22.63 1 1.59.46l.78-.81v-1.25c.41-.43.78-.82 1.15-1.19.92.48 1.93.6 2.61 1.39h3.41l.71-.66h1.35c.38-.42.74-.85 1.4-.72.4-.41.8-.81 1.26-1.26h7.61l.66.66h3.47l.62.62h2.69l.75.7h1.33l.76.7h3.16l2.4 1.34c1-.48 1.61.52 2.42.75s1.16 1 1.74 1.54c.16.15.33.29.5.43l.66.06c.44.47.24 1.33 1 1.64-.07.94.55 1.37 1.28 1.7.19.09.5.06.59.2.58.87 1.63 1 2.37 1.67.372416.2918148.708185.6275843 1 1 .23.34.28.81.51 1.14.281689.3648979.600018.6999802.95 1 .51.85-.39 2.07.72 2.76.199859.7468606.199859 1.5331394 0 2.28zm269.16-19.38c-.37-.26-.62-.61-.42-1.45l1.91-1.59v-2.27c-.35-.34-.74-.61-.61-1.25.14-.18.35-.43.62-.75v-4l.7-.8v-2l.69-.74v-1.69l-1.4-.91v-3.55c-.6-.56-1.09-1.32-1.77-1.57-1.148156-.3834328-2.034319-1.30698606-2.37-2.47-.266794-.48254939-.711882-.84149141-1.24-1-1.36-.54-2.65-1.28-4.22-2.06h-2.05c-.803269-.5113067-1.657943-.93696777-2.55-1.27-.87-.22-1.12-1.29-1.81-1.34-1.08-.08-1.32-1.15-2.16-1.42-.65 0-1.38.16-1.85-.72h-3.46l-.61-.6c-.738999-.13733617-1.500111-.09619497-2.22.12l-.48.5h-2l-.75.7h-4.77l-2.67 2.67h-.75c-.25.29-.55.63-.9 1-.203502 1.38947156-.820215 2.68561445-1.77 3.72h-2.77l-1 1.09v1.27l-.7.85v3.36c-.65 1.77-2.29 2.69-3.39 4.09v2c-.638127.6131315-1.162864 1.3342224-1.55 2.13-.34.74-1.26 1.22-2.13 2l1.61 1.11v2.57l-1.49 2c-.82.14-1.44-.19-1.85.41v1.13l-2.1 4v1.74l-1.29 1.28v.64l-.7.76v3.38l-3.45 3.39v.65c-.24.26-.47.5-.7.76v1.27c-1.18 1.39-1.37 3.14-2 4.69-.12.28 0 .81-.17.92-.73.46-.34 1.57-1.19 1.92v3.39c-1 .94-1.16 2.27-1.86 3.34-.38.57-.21 1.49-.28 2.19l-.67.84v2.59l-.67.68v2.76l-.61.61v1l-1.4 1v3.61c-1.54.87-1.62 2.73-2.69 4v1.27l.66.71c-3.09 4.74-2.31 3.4-2.9 5.63l-.48.48v4.07l-.7.75v2.69l-.58.58v3.53l.54.69-.66.67v2.71c-1.51 1.09-1.64 2.9-2.73 4.17v2.6l-.64.64v4.09l-.72.72v2.78l-.64.64c-.021091.333-.021091.667 0 1 .06.56-.7.78-.64 1.07.16.82-.92 1.08-.71 1.76.27.92-.72 1.33-.71 2.11 0 .43.09.87-.3 1.24-.21.2-.22.59-.38.86s-.48.7-.67 1v3.21c-.83.69-.59 1.72-1.36 2.11v1.33l.69.76c-.12.54.25 1.18-.31 1.58-.82.59.12 1.87-1 2.34 0 .55-.09 1.1-.1 1.65v4.09c-.019217.210998-.062842.419055-.13.62l-1.21 1.22v.65c-.48.49-.94 1-1.41 1.47v2.71c-.513095.281268-.77505.870667-.64 1.44.15.68-.59.89-.76 1.73v3l-.58.58v1.31l-.7.77v3.36l-.7.76v2l-.7.78v2.63l-.6.71-.16 2.12c-1 .65-.44 1.64-.59 2.48 0 .18-.25.32-.39.48-.32 0-.68.07-.9-.29 0-.53-.09-1.07-.13-1.48l-.6-.6v-2.71c-.78-.4-.56-1.38-1.18-1.91s.07-1.26-.47-1.85c-.458879-.645239-.844582-1.339505-1.15-2.07v-1.76l-1.34-1.33c.37-.68-.35-.91-.65-1.38v-1.89l-2-2c-.169606-1.100204-.628611-2.135553-1.33-3v-2.72c-.555875-.347891-.825973-1.013056-.67-1.65l-1.44-1c.12-.92.15-1.6-.54-2 .21-.86-1-1.21-.76-2.07-.61-.38-.6-1.11-.92-1.66s-.73-1.29-1.16-2v-3.19l-1.37-1.37v-2.84c-1.51-1.09-1.63-2.9-2.64-4.08 0-.72-.08-1.38-.13-2.05-.85-.53-.53-1.39-.59-2.14-.034043-.235681-.080777-.469354-.14-.7l-1.95-1.83v-.7l-2.61-2.61c-.037593-.329931-.139516-.649289-.3-.94-.31-.35-.6-.66-.47-1.19l.65-.71c-.81-.5-.68-1.58-1.39-2.21v-1.94c-.9-.36-.39-1.57-1.26-1.9.07-1.08-.92-1.44-1.42-2.14.32-.88-1.06-1.18-.7-2.11.12-.29-.09-.59-.26-.9-.87-1.62-1.55-3.36-3.12-4.38 0-.33 0-.55 0-1l-1.3-.92c0-.73 0-1.17-.07-1.74-1.33-.28-1.11-1.78-2-2.47 0-1.48-1.61-1.76-2-2.9 0-.1 0-.27 0-.33-.68-.83-.91-1.93-1.75-2.71-.540582-.7632778-.949568-1.6116701-1.21-2.51l-3.16-3.14v-3.88l-1.54-3-9.11-9.11c-.66.24-.88-.51-1.48-.73h-1.65l-2.45-1.32h-1.7l-.89.65c-.75.12-.89-.57-1.27-.62-1.230457-.3108801-2.395443-.8391875-3.44-1.56-1-.56-2.12-1-3.1-1.58s-2.31-1-3.38-1.68c-1.038816-.7364392-2.124442-1.4045167-3.25-2h-3.74c-.09 0-.18-.11-.27-.17l-.5-.49h-.75l-.71.66h-2l-.77-.7h-2.67l-.59-.58h-4.9l-.63.63h-4.77l-.66.66h-10.49c-.210148-.0285199-.415392-.0857193-.61-.17l-.49-.49h-1.35c-.39.49-1.17.73-1 1.63l.58.66c-.3.43-.62.86-.76 1.06l-1.57.09c-.74.74-1.42 1.35-2 2s-1.9.68-2.37 1.67v1.35l.66.7v2.37l-1.31.88c0 .77-.06 1.2-.09 1.71-.339983.0141057-.676438.0746675-1 .18-.281181.1896061-.536636.4148104-.76.67h-1.93l-1 1v4.09l-.7.77v1.74l-2.69 5.21v4.52c-.440344.3365467-.713779.8469587-.75 1.4 0 .35-.7.53-.63 1.09.070453.5512606-.109284 1.1051452-.49 1.51-.29.37-.1 1.08-.31 1.56s-.61.6-.57 1.13 0 1.1 0 1.5l-.66.66v3.34l-.7.78v2l-.68.73v2c.25.26.47.51.64.7v2.17c-1 .41-.63 1.25-.55 2 .13.27.59.33.44.74-.16.17-.32.33-.51.51v1.94c-.9 1.14-1.19 2.55-2.1 3.68v5.34l-.58.58v5.58c.28.28.53.51.76.76s.4.5.5.63c.13.73-.38.91-.64 1.27v5.42l-.7.75v4.71l-.71.79v4l-.63.63v6.13l-1.34 1.34c-.070094.972071-.070094 1.947929 0 2.92l1.29 1.14v3.45l-.7.8v5.39c-.88.55-.68 1.33-.53 2.1l1.26 1.27c-.25.63.28.95.67 1.34-.84.48-.65 1.6-1.4 2.19v2.62l-.52.52c-.45.78.36 1.8-.48 2.53s.13 1.86-1 2.31v2c.76.5.57 1.6 1.24 2.07l-1.32 2.36v5.25c-.41.34-.72.65-.6 1.19.67.47 1.58.65 2 1.46v1.35l-.65.71v1.29l.61.71v2.16c-1 .47-.66 1.27-.5 2l1.21 1.22v1.35l-.66.71v2.7l.65.71v2.74c-.19.18-.35.34-.6.6 0 .66-.06 1.43-.09 2.08-.28.34-.48.6-.58.71v5.5l1.29 1.28v1.35l-.68.74v2.68l-.64.71v1.33l.58.71-.54.68v12.33c.67027.484468.857229 1.401871.43 2.11l-.48.49.65.72v2.09c-1.12.62-1.34 1.9-2 2.76v4.36l3.27 3.28v1.19c-.45.45-1 .79-1.2 1.27-.096198.535066-.371206 1.021619-.78 1.38l.69.75v1.3l.7.79v2.6l.9.41c.73 1.29.38 1.83-.23 2.31v.8c.07 1 .79 1 .66 1.59.1.58-.51.7-.7 1.17v1.22l-.7.8v4l-.58.58v6.07c.71 1.09.93 2.27 2 2.77v3.46l-.66.71v8.47l1.38.95c-.15 1.18-1.36 1.89-.56 3l.5.5v1.36l-.66.71v1.61c1-.24 1.52.52 2 1.21.1.54-.12 1.08.31 1.6.476693.562095.818721 1.22563 1 1.94.193909.645043.621914 1.194316 1.2 1.54.64.53.7 1.36 1.2 1.9 1.210855 1.350869 2.499725 2.629722 3.86 3.83.775079.542532 1.628168.964018 2.53 1.25.196669.1207.372312.2727.52.45h2.74c.44.84 1.51.71 2.18 1.4h3.31l.59.58h6.73l.8.7h1.3l.75.7h2l.65.59 2.39-1.33h1.79l.58-.59h5.46c.18.17.43.39.71.63h1.3l.74.7h2.72l1.69-1.7v-1.37l1.72-1.67c.72-.13 1.52.17 2.3-.26l.4-.45h1.38c.36-.27.54-.74 1.1-.69s.75-.75 1.42-.71c.35 0 .7-.49 1.09-.62s1.13.22 1.48-.38v-1.33l-.62-.71v-2.07l2.68-2.68v-.74l2.35-1.06 3.8-3.8v-2.56c.26-.29.47-.54.7-.81v-6.73l.65-.64v-2.63l.67-.89v-1.82c.21-.48.94-.72.68-1.43l-.67-.73v-4.06c.26-.36.77-.55.64-1.27l-.6-.85v-10.86l.53-.53c.190057-.744732.190057-1.525268 0-2.27l-.53-.52v-3.42l.65-.73c0-.4.19-1.06 0-1.25-.71-.61-.57-1.68-1.36-2.22v-7.36c-.264579-.249523-.487411-.53988-.66-.86-.12-.41 0-.93-.15-1.3s-.53-.62-.59-1.13-.45-.7-.64-1c0-4.08 0-8.05 0-12 0-.09-.11-.18-.52-.8l-.76-1.39.58-.64v-2.74c-.87-.54-.69-1.33-.55-2.1l1.26-1.26c0-1.64 0-3.33 0-5-.027227-.210412-.084475-.415835-.17-.61l-.48-.48c-.09-1 .06-2 0-2.75l-.65-.69v-3.4c.78-.67.88-1.69 1.35-2.51l-.75-1.18v-14.77l-.56-.55c-.149581-.754272-.11181-1.533725.11-2.27l.5-.5-.68-.74v-2.67l-.63-.71v-4.09l1.35-1.36v-6.1c.18973-.278096.536473-.403085.86-.31l1.84 1.64v.74c.88.89 1.76 1.77 2.71 2.71-.25.63.27 1 .66 1.34v2.72c.81.38.52 1.42 1.18 1.91.2.15.19.59.26.85.65.8 1.48 1.4 2 2.06v1.88c.83.83 1.62 1.63 2.49 2.49h.58l1.68 1.75v1.74c.73 1.39 1.38 2.6 2.1 4v1.82c.69822.699365 1.294111 1.493886 1.77 2.36.801951.953919 1.670815 1.849517 2.6 2.68.13926.160663.256923.338839.35.53v1.83c1.08.12.37 1.56 1.35 2v2.06l2.59 2.5c.95 2.4.95 2.4 4.08 5.53.256226.820445.612223 1.606326 1.06 2.34.47.61.49 1.4 1.13 2 .576092.669008 1.054204 1.416478 1.42 2.22v2.54c.83.65.68 1.95 2 2.36h1.1c.102142.420792.270941.822535.5 1.19.34.36.28.9.5 1.15.523499.797404.959359 1.649007 1.3 2.54.332881.781605.784915 1.506884 1.34 2.15.77.69.65 1.88 1.63 2.44.38.22.42 1 .77 1.34s.22 1.06.36 1.57c.07.29.36.53.66.95v4.22c.040069.269361.107072.534021.2.79l1.86 1.69v1.77l2.39 2.7h1.33l1 1v2.29l1.4 1.07c-.34 1.33.83 2.14.67 3.31-.06.46.83.74.65 1.41l2 2.19c.26.73-.52.94-.62 1.28v6c.61 1.35 2.12 1.12 2.66 2.24v3.44c1.05.51 1.15 1.79 1.93 2.53s1 2.27 2.14 2.8c.11.69-.21 1.43.49 1.91.61891 1.751999 1.696329 3.305969 3.12 4.5 1.012368.874304 1.977088 1.802305 2.89 2.78.984867.99959 2.200625 1.741409 3.54 2.16l4.59 4.6h6.62l2.44 1.4h6.62l.71.64h7.48c2-1.33 2-1.33 2.67-2.67h1.28c.51-.28.77-1 1.46-.71l2.63-2.63c1.06 0 1.5-.88 2.16-1.45h.64l2.43-2.38v-2.31l1.31-1v-3.55l-.52-.51c-.65-1.3 1-2.19.45-3.76l2.89-2.36v-6.27c.72-.59.79-1.44 1.18-2.11l-.54-.54v-3.4c.22-.24.44-.49.68-.74v-1.33c.4-.4.93-.73.64-1.34l-.65-.78c.085704-.811076.085704-1.628924 0-2.44-.23-1 1.1-1.46.71-2.45.456629-.812249.736092-1.711982.82-2.64l.54-.54v-2.71l.68-.73c0-.24 0-.46.05-1l1.37-1v-4.21l.66-.66v-2.86c.471069-.16915.744526-.660519.64-1.15l1.39-1.46v-2.81c1.39-.28 0-2 1.22-2.45l.2-2.18.6-.78v-2.1l2.06-1.63v-3.13c1.38-.22.37-1.47.94-2.24 1-1.31.09-3 .53-4.52l.6-.6v-4.09l.62-.62v-8.76c.8-.52.59-1.66 1.4-2.18v-2.67l.62-.63v-3.4l.61-.6c.15-2.18.15-2.18 1.56-4.35v-3.38l.6-.55v-5.44l.7-.76v-5.4l.62-.63v-3.4l.72-.72v-6.89l.72-.72v-3.41l.57-.56c.24-1-.15-2 .18-2.94l.57-.52v-6.81c.24-.26.47-.5.65-.71v-2.05c-.19-.18-.35-.34-.58-.58v-2.92l2.66-2.6v-3.39l.67-.75c-.111763-.800915.158464-1.607896.73-2.18v-3.31c.450356-.217.700087-.708275.61-1.2l-.66-.78c0-2.27 0-4.65 0-7 .02852-.210148.085719-.415392.17-.61l.49-.49v-3.37c.24-.26.46-.51.7-.76v-2l.7-.77v-4l.63-.63v-4.2c1.57-1 1.72-2.78 2.76-4.08v-8.07l.7-.78v-4.11c1.07-.53 1.15-1.81 2.08-2.69v-2.72l.6-.61v-2.68l.71-.76v-2.85c1.38-.21.36-1.47.92-2.23 1-1.32.12-3 .53-4.53.84-.35.34-1.55 1.21-1.88.14-1.67-.06-3.35.09-4.86l.63-.63v-2.71l.67-.72v-2l-.5-.5c-.05-.09-.16-.18-.16-.27 0-.89 0-1.79 0-2.62.16-.15.23-.24.32-.31.77-.59-.07-1.83 1-2.35.11-.05.09-.4.09-.62 0-.45 0-.91 0-1.41l.65-.76v-1.99l.71-.76v-2l.7-.75v-1.84l1.28-2.3v-8.15l-.58-.58v-1.41c.22-.34.83-.62.61-1.36-.19-.19-.42-.44-.65-.69v-2c.93-1.1 2.19-2 2.47-3.62zm228.35 266.61v1.85l-.84.91-1.56.18c-.4.23-.23.6-.3 1-1.46 1.07-2.44 2.73-4.15 3.74-1.559764 1.036334-3.209774 1.92995-4.93 2.67h-1.69c-.31.41-.72.94-1.15 1.52l-3.41-1.74-1.78 2.26c-.64 0-1-.05-1.22.33v3.44l-1.06.87c-1.13-.2-2 1.08-3.35.79l-.73-.66h-4l-.76-.7h-1.33l-.49-.49c-1.28-.85-2.18.84-3.25.54l-2 2h-4.5l-.29-.34c-.24-.2-.32-.33-.41-.33h-7.56c-.43-1.15-1.78-1.13-2.52-1.95s-2.21-1-3-1.74-2-.93-2.67-1.86-2.18-.68-2.46-1.94h-.76l-2.45-2.38v-.77c-1.13-.63-1.53-2.23-3.1-2.34-1-1-1.93-1.92-2.89-2.89.11-.92-1-1.37-.86-2.39.08-.8-1-1.44-.63-2.43-.83-1-1.1-2.29-2-3.51v-5.37c-.52-.52-1-.85-1.28-1.34s-.25-1.06-.79-1.37v-2.71l-3.32-3.19c-.14-.94-.29-1.72.56-2.26v-2l-.65-.71.5-.49c.223279-.732126.267857-1.5071.13-2.26l-1.22-1.34v-2.87c-.94-.77-2-1.62-2.78-2.29v-2.17c-.67-.92-.77-2.27-2-2.77v-3.48l-.7-.79v-1.82l-1.52-2.56c.35-.79.93-1.37.64-2.61l-1.24-.79v-2.33l-.7-.78v-1.31l-.7-.76v-1.14c-.86-.93-1.63-1.74-2.39-2.55l-.63.63h-9.53l-.66.66h-4.66l-.83.68-.71-.61h-1.29l-.75-.7h-4.75l-.48-.48c-.190441-.090293-.392298-.154214-.6-.19h-5.72l-.6.6h-7l-.6-.6h-6.8l-.64-.64h-2.85l-.8 1c-1.06.72-.76 1.54-1.4 2-.42.32.2 1.31-.51 1.8-.48.32-.22 1-.69 1.44s-.43 1.18-.93 1.62v1.83l-.62.82v5.25l-.7.87v1.9c-.23.28-.45.53-.7.82v2.65c-.24.25-.46.5-.7.76v1.33c-.24.25-.47.49-.7.75v1.3l-.71.79v2.66c-.27.28-.51.53-.75.76-.358751.264934-.582038.674904-.61 1.12 0 .27-.37.52-.62.84v2l-.7.75v2l-.6.57v2.74l-1.4 1.41c0 .35 0 .79-.06 1.25l-1.84 1.68c-.44 1.22.22 1.49.47 1.9v2c-.25.29-.46.54-.66.76v3.11c-1.55 2.68-1.55 2.68-3.4 3.63v2.7l-.71.77v4.14c-1.58.81-1.54 2.75-2.67 3.93.36.9-1.09 1.18-.72 2.08l-1.35 1.35v1l-2 2v1.11c-.46.23-1 .43-1.38.7s-.78 1-1.63 1.05c-.44 0-.73.86-1.41.61l-1.71 1.71v3.7l-1.7.08c-1.09-1.23-1.75-3-3.5-4h-2.55c-.721331.322047-1.39443.742734-2 1.25-.57.6-.68 1.59-1.48 2.07h-1.37c-.31-.74-1.18-.5-1.65-1l-1-1c-.79-.16-1 .26-1.35.56l-1 1v2.87l-1.2.94h-1.8l-.89-.66h-1.94l-.63-.63h-2.87l-.58.58h-2l-.71-.64h-1.65l-1.65-2h-1.51l-.58.58h-8.87l-.71-.61h-1.28l-.77-.7h-2.7l-5-5.08c.29-.85-1.06-1.15-.76-2l-1.06-.94c-.300036-.824801-.399442-1.709172-.29-2.58 0-.67 0-1.34 0-2l.61-.61v-2.78c-.09-.1-.29-.35-.54-.68v-5.53l.58-.58v-7.36c.26-.43.65-.78.67-1.15 0-.57.56-.68.73-1.31v-1.77l.7-.78v-1.31l.51-.51c0-.09.15-.2.13-.28-.29-1.16.55-2.09.64-3.13s.86-1.48.92-2.36c1-.61 1.12-1.84 1.89-2.66v-1.95c.43-.44.83-.84 1.29-1.29 0-.71.06-1.47.09-2.14l.6-.6v-2c.84-.51.45-1.76 1.41-2.05v-2.14l.5-.5c.23-.43-.29-.46-.45-.93v-5.14l3.29-6.59v-3.8l1.18-1.3v-2.9l-.58-.58c.206667-.24.426667-.48.66-.72v-2c.78-.63.71-1.85 1.67-2.37s1.09-1.6 1.71-2.53v-2.53c.24-.26.47-.5.7-.76v-2.7c.83-.36.46-1.48 1.29-1.93v-2.34l2.1-2.09v-3.86l2-1.86v-6.09l.7-.9v-2.45l1.41-2.48v-2.5c.24-.26.46-.51.7-.76v-2l.7-.77v-3.36l.63-.62v-3.41l1.31-1.39v-3.35l.7-.78v-2l.7-.76v-1.33l1.36-1.36c-.092472-.835285-.075664-1.679061.05-2.51.274711-.68451.505185-1.385953.69-2.1.301245-.850493.736761-1.64725 1.29-2.36v-1.18l-.66-.71c-.114077-.505412.140007-1.021912.61-1.24v-2.85c1-.51.59-1.44.84-2.12l.53-.54v-3.91c.75-.73.78-1.86 1.75-2.52l1.33-.06.88-.81c.230196-.745095.268038-1.536337.11-2.3l-1.18-1.21v-2.07l.61-.71v-2.64c.82-.51.66-1.58 1.35-2.2.3-.27-.08-.83-.56-1.15v-3.62c.91-.44.42-1.39.7-2.06l.53-.53v-4c.75-.59.57-1.71 1.41-2.19v-1.35l.7-.75v-1.29l.7-.81v-3.33c.465455-.498351.698003-1.17056.64-1.85l-.71-1c.53-.84.63-1.86 1.39-2.53v-2l.49-.48c.06-.09.18-.17.18-.26 0-1.13 0-2.26 0-3.34l2-2c.13-.73-.13-1.6.74-2.09l-.66-.72v-2c.84-.35.66-1.31 1.15-1.93s.33-1.58.82-2.37c.35-.58.07-1.55.07-2.66l2.64-2.16c.15-1 0-1.36-.53-1.59v-2.89c.62-.85.84-2.14 2-2.75v-2.08l.7-.76v-1.31l.7-.78v-4l.58-.58v-2.48l1.14-2 .68-.05 1-1v-1.39l1.25-1.18c.135337-.8764322.175571-1.7649229.12-2.65.6-1 1-2.18 2-2.89v-2.82c1.52-.85 1.52-2.74 2.63-3.93 0-1 .85-1.49 1.46-2.16v-1.31c.24-.26.47-.5.7-.76v-1.35l1.17-1.15c.46-.67-.2-1.68.82-2.16v-2.89l1.36-.94c0-.53 0-.75.06-.94.22-.55.75-.35 1.12-.52.54-.72 0-1.54.3-2.21l-.72-.77v-1.37c.1-.1.18-.25.26-.25h3.34c.54-.85 1.77-.48 2.09-1.47l.78.7h1.37c.55-.49.19-1.1.34-1.74l1.05-.89 1.51-.18c.33-1 0-2 .23-3.2l-1.39-1c-.19-1 .49-1.25.72-1.66.15-.09.26-.21.33-.19 1.18.37 2-1 3.39-.63l.93-1.24c0-.14.06-.44-.06-.56-.68-.74-1.4-1.43-2-2 0-1 .67-1.31 1.18-1.68.55-.12.81.28 1.16.63h2c.83-.76 2.21-.85 2.74-2 1-.21 1.51 1.24 2.55.66.678777.2886121 1.325608.6472179 1.93 1.07.7.59 1.89-.17 2.34 1h5.43c.09 0 .18-.12.33-.25v-1.73c.48-1.39 1.8-1.37 2.6-2.06.408024-.1859571.882548-.1520625 1.26.09.44.41 1 .44 1.42.71.454168.3517986.869817.750688 1.24 1.19h3.37l.74.7h3.4l.61-.62 1.47-.11c.33-.29.56-.73 1.21-.61s1 1.45 2.06 1.37c.31 0 .3.52.46.73.72 1 .65 2.67 2.41 2.7.4.5.27 1.31 1 1.64-.078754.764443.429193 1.466098 1.18 1.63.76.17 1 .84 1.56 1.17s1.27.33 1.65 1 .93.5 1.37.76c.546225.4041405 1.037078.878184 1.46 1.41.084596.1054651.152087.2235735.2.35v1.21c.51.54 1.12.18 1.64.29 1 .47.91 1.73 1.69 2.36-.1094.7027828.318013 1.3780952 1 1.58.91.27 1.62 1.28 2.77.81l2.4 2.55v.51l.7.75v1.34c.431671.3746242.829847.7861836 1.19 1.23.3.42.15 1.1.86 1.42v2.92c1.3.24 2 1.17 2.72 2v1.33l.59.59.14 1.49c.39 1 1.44.95 2.15 1.41s1.41.56 1.87 1.26v.73c.680445.5704757 1.309524 1.1995546 1.88 1.88.42.58.48 1.41.87 2 .477116.610779 1.005718 1.1795283 1.58 1.7 1.23-.13 1.22 1.07 1.58 1.68.47.79.85 1.69 1.3 2.51.3.55.25 1.32.93 1.66s.63 1.1 1 1.65c.78 1.27 1.14 2.8 2.41 3.76 0 .89.88 1.42.82 2.41.047181.7538373.367088 1.4647418.9 2 .55.61.27 1.26.45 1.88.8.52 1.12 1.75 2.36 1.68.38.51 1.12.77 1 1.63 0 .22.41.49.65.75v4.09c1.22.82 1.44 2.45 2.66 3.31.14 1 0 2 .06 2.78l-.67.67v2c.43.74 1.25.09 1.84.5.42.45.06 1 .07 1.1.81 1.55 1.39 2.68 2.11 4.08v1.68l.7.83v2.59c.92 1.12 1.19 2.54 2.1 3.66v2l2.69 2.68v2c.23.26.46.5.68.73v4.76c-.79.67-.89 1.69-1.43 2.64l2.11 2.1c-.14 1.1 1 1.38 1.31 2s-.52 1-.61 1.54c-.034697.399248-.034697.800752 0 1.2l.64.64v3.29c.78.57.44 1.79 1.4 2.09v1.48l-.49.46c-.239282.739054-.290831 1.526048-.15 2.29l1.92 1.92c.12.78.27 1.56-.58 2.1v2.7c.76.51.64 1.55 1.31 2.19.3.28-.1.82-.52 1.11.191037.559016.421619 1.103725.69 1.63.38.64 1.16.93 1.29 1.87.08.54.85 1 1.32 1.49v2.64c.25.3.47.54.66.76v3.22c.15.19.34.45.62.8v3.86c.569807.585473.838963 1.400318.73 2.21l-.67.76c0 .17-.09.53 0 .59.82.51.45 1.74 1.35 2v1.84c.39.75.78 1.5 1.31 2.5v3.75l.7.83v1.95l.68.76-.64.7v1.36l2.69 2.68v3.42l-.65.71v1.33l.69.74v.74l1.17.41c.53.51-.12 1.27.45 1.87.498392.546904.858448 1.205293 1.05 1.92.17.62-.07 1.36.69 1.79v2l.7.77v2.69l.7.76v2l.71.78v4c.19.19.5.36.49.51-.1 1.24 1.07 2.15.8 3.6l1.39 1.06v3.61c.23.38.72.54.71 1.1 0 .28.27.56.61 1.19v2.46l.66.67v1.8c.74 1.38 1.38 2.6 2.11 4v1.81l.7.75v1.35c.88.48.58 1.36.74 2.08.91.46.25 1.61.76 2s.3 1.59 1.18 1.94v2.69c.24.26.47.5.7.76v1.34l.61.61v2.72l.68.68v1.84l.75 1.13c.1.54-.28.81-.64 1.13v2.75c.39.77 1.24 1 2 1.41v.67l1.28 1.28v3.81l1.41 2.57v2.39c.26.42.49.77.71 1.14.54.91.71 2.1 1.67 2.69s.88 1.76 1.67 2.39c0 .9.78 1.45.83 2.41s.77 1.7 1.28 2.7v5.59c.36.78.76 1.52 1.28 2.52zm-101.43-103.68-.68-.79v-2l-.64-.64v-1.75l-2-3.93v-1.81c-.81-.36-.66-1.31-1.15-1.92s-.07-1.73-.89-2.33v-1.88l-.71-.71v-4.08l-1.33-1.33v-3.3c-.23-.25-.46-.49-.68-.74v-1.09c-.75-1.43-1.39-2.64-2.11-4v-3.17c-1.46-1-1.63-2.83-2.68-4.08v-7.71l-1.4-1c.35-1.41-1-2.21-.62-3.37-.9-1.07-1.13-2.52-2.06-3.59v-3.4c-1.278464-1.02225-2.06639-2.536376-2.17-4.17-.44-.3-.64-1-1.35-.87-.85.27-.47 1.41-1.24 1.75v2l-.7.78v4.72c-1.24.86-1.46 2.49-2.67 3.32-.09 1 .07 2-.06 2.78l-.65.68v8.16l-.7.75v2.06c-1.05.68-1.38 1.89-2.09 3v5.86l-.59.58v1.32l-.7.76v2.52c-.18.56-.69.68-.72 1.25 0 .37-.41.72-.67 1.13v1.89l-.58.7.61.77v1.86l-.65.76v1.34c.17.2.4.44.64.71v1.33l-.68.73v4c-.23.44-.78.6-.63 1.34.14.21.39.55.59.84v4.08c-.81.43-.6 1.16-.63 1.67l2.46 2.44c.46-.39 1.46-.3 1.95-1.1l.72.66h4c.26-.24.51-.47.71-.64h2l.58.58h13.76l.6-.61h2l.71-.72h2.8c.313372-.755122.41702-1.580853.3-2.39zm-635.54 126.8c-.05159.128998-.126127.24758-.22.35l-2.27 1.79v1c-.290123.303607-.759884.346313-1.1.1-.29767-.293392-.717472-.427134-1.13-.36-.82.5 0 1.27-.45 1.86-.68.33-1.44.09-2.14.17l-.69.5h-1.64c-.819628.279324-1.607358.644697-2.35 1.09-.69.53-.84 1.29-1.46 1.82v1.27c.553553.574454.985505 1.254694 1.27 2l-.86 1c-1.07-.14-1.64-.87-2.59-.54-.87-.57-2.08-.74-2.67-1.53h-1.85c-.673291.397844-1.258514.928628-1.72 1.56-.415065.51633-.659649 1.148754-.7 1.81l-.71.55c-.67.33-1.43 0-2.17.21-.55-1.06-2.24-.95-2.85-1.94v-1.28c.36-.78 1.57-1.06 1.94-1.87.01545-.082617.01545-.167383 0-.25-.23-.58-1.29-.13-1.49-.75-.61 0-.74.9-1.46.38l-.92 1.65c.14.45 1 .69.52 1.29-.8.6-1.07-.23-1.47-.33h-1.28c-.39.28-.71.5-1 .72v1l-.59.46c0 .23 0 .55-.08 1-.521636.530844-1.102044 1.000538-1.73 1.4l-2.86-1.13c-.77.4-1.51.74-1.23 1.54h-2.89l-1.12 1c-.909314.049963-1.820686.049963-2.73 0l-.7-.48c-.87-.1-1.81.28-2.43-.43l-2.19-.14-.87-.95h-4.09l-.72-.52h-1.27l-.59-.46-1-.06c-.730495.415044-1.578953.573469-2.41.45l-.75-.92h-4.29c-.297021-.645317-.630905-1.27302-1-1.88-.314089-.368491-.698172-.670999-1.13-.89-.42523-.21418-.866579-.394732-1.32-.54v-1l1.14-.9c.15-.12 0-.2-.14-.37s-.22-.43-.36-.63c-.103231-.138414-.220523-.26576-.35-.38-1.05-.13-1.26.8-2.05 1s-1-.51-1.44-.79v-1c.72-.56 1.69.05 2.41-.38.05-.66.05-.66-.88-1.39h-1.25l-.94-.74v-1.5c-.6-.58-1.41-.18-2.32-.33l-1.57-1.45h-1.09c-.705774-.515939-1.267069-1.204645-1.63-2-.13-.54 1.07-.67.66-1.31l3.21-2.51v-1.52l-.63-.54v-4.56l1.15-.91c-.34-.54-.48-1.16-1.13-1.6l.61-.54v-2l-.64-.54c0-.09 0-.19 0-.26l1.22-1.92v-2.74l.66-.65v-1.53l-.58-.53v-1l-1.33-1.1v-1.5l-.55-.43v-1.8l-1.37-2c.43-.85-1-1.23-.6-2.07l-2.37-.08-.26-.48c0-.08 0-.21 0-.24.890889-.608949 1.585707-1.463575 2-2.46l-.61-.59c.17-.15.36-.32.57-.53v-1.45l.44-.39c.109922-.099845.201328-.218334.27-.35 0-.6 0-1.19 0-1.78l-.46-.36c-.36-.46-.12-1-.19-1.46-.424449-.867631-1.064979-1.611472-1.86-2.16v-2.17l.55-.44v-1.06l-1-.69c-.44-.7-.21-1.29-.25-1.86s0-1 0-1.48l-.58-.45v-1.29l-2-3v-2.8l-1.31-1.08c0-.29-.13-.62 0-.78 1-1 1.07-2.2 1.88-3.44v-1.22c.25-.41.92-.59.67-1.11l-.65-.56v-1l-.66-.58v-3l-.55-.44v-1.63l.53-.41v-4c-.62-.39-.36-1.26-1.24-1.52v-2.59l-.64-.55v-1.51l.47-.37c.071116-.143071.124832-.294148.16-.45 0-.68 0-1.36 0-2l-1.24-1.85v-2.16l-3.2-2.52h-1.67l-.68.5h-3.22l-.6.48c-.882759.045045-1.767241.045045-2.65 0l-.52-.4-2.26.93c-.53.08-.72-.28-1.06-.49h-1.28l-.69.5h-2.56l-.46.36c-.187985.066553-.382354.113469-.58.14-1.17 0-2.35 0-3.43 0l-.73-.47-.56.43h-3.72c-.601575.442026-1.348772.638657-2.09.55l-.7-.5h-2.56l-.69.51h-5.14l-.59.46-1.17.06-.94-.52c-.42454-.04814-.84396.125673-1.11.46h-1.88l-.79.52h-5.78l-.66-.46-.69.49h-5.77l-1.62 1.22v2.53l-.64.55c0 .5.07 1-.45 1.41-.3573351.349204-.6338179.772462-.81 1.24-.18.45.11 1-.72 1.37v3.6l-.59.46v2c-.69.62-1.11 1.37-1.74 2-.6427457.726032-1.1416023 1.567641-1.47 2.48v5.26l-1.41.79c.32.71-.32.9-.59 1.28v5.52c-1 .67-.9 1.8-1.88 2.57v2.47l.6.53v1c-.2.17-.41.36-.64.54v5.57l-1.14.83c-.43.69.05 1.23.55 1.82-.4.6-.81 1.23-1.33 2v1.85l.63.54v1l-.58.45v2l-2 1.53c.0505731.45532-.2379711.879649-.68 1v1.05l-.64.55v3l1.21 1v2.58l-.53.53v1.1l-1.39.82c.27.66-.29.88-.61 1.21v3l-.58.46v2l-1 .83h-.66c-.65.25.09 1.14-.94 1.11v4.16l-.67.57v.84c-.19.3-.41.65-.65 1s-.43.54-.64.81v1.35l.64.67v1.83c0 .13-.18.29-.33.39-.65.47.12 1.4-.93 1.73v2.57l.63.53-1 .73h-3.79c-.59-.23-.85-.89-1.66-1s-1.17-.57-2-.55c-.63 0-1.19-.61-2.35-.39l-1.35 1.59c.52.76-1 1.52-.73 2.53l-1.61 2.35s-.06.05-.15.05h-9.66l-.84 1h-1.61l-.67-.48h-1.27l-.68.49h-1.23c-.27-.18-.57-.5-.75-.47-1.19.26-2-.93-3.25-.44l-.5.38h-2.6l-.67-.45h-1.94l-.67.48h-5.17l-.92-.75v-1l-.93-.77h-3.36l-.55.43h-4.37l-3.77-3c-.72716273.08776-1.44090908-.245839-1.84-.86v-2.61l1.2-.62v-1.25c-.41977184-.523582-1.04032853-.846562-1.71-.89-.06-.06-.19-.12-.19-.18 0-.85 0-1.69 0-2.33l1.82-2.77-.5-.47v-.95l-.65-.55c-.21-.51.26-.77.62-1v-1.34c.58-.89 1.18-1.79 2-3v-2.28l.59-.47v-3l.66-.57c-.2-1.31 1.22-2.13 1.55-3.24l1-.16v-2.07l.67-.64v-1.08l-1.25-.64v-2.84l.45-.36c.08949101-.136453.1506986-.289472.18-.45 0-.75 0-1.51 0-2.25-.82-.41-.68-1-.57-1.57l.46-.36c.05083514-.153009.08765336-.310323.11-.47.05-.75.08-1.5.12-2.25 1-.41.07-1.53 1.14-1.91.05-.57-.12-1.19.68-1.56-.13-.72.92-.91 1.1-1.41.24-.69 1.18-1.19.79-2.11l-.56-.54v-1.56l1.25-.68v-1.78l-.61-.47c-.0740136-.687375-.0940749-1.379492-.06-2.07l2.53-2-.63-.54c-.24-.52.42-.71.62-1v-1.56l-.55-.43v-1.47l.57-.71c.23-.52-.67-.62-.64-1.14l2-3v-3.84l.55-.43v-2.88l2.66-4.09v-2.34c1.11-.37.17-1.49 1.15-1.91 0-.75.81-1.11 1.4-1.61v-1c-.18-.35-.66-.25-1-.31-.5-.38-.16-.83-.27-1.22l.61-.52v-1l.63-.56v-5.36l1.25-1.83v-1.14l.91-1.42.84-.17c.07-.14.22-.29.22-.43 0-2.46 0-4.91 0-7.38l.56-.41v-3.07l.65-.51v-2.31l1.33-1.94v-2.81c.75-.42.44-1.32 1.33-1.56v-4.1l.67-.56v-1l.66-.6v-3l.55-.43v-2.31c.49-1.09 2.1-.92 2.64-1.79v-3l-.61-.48c-.0501002-.695766-.0501002-1.394234 0-2.09.83-.35.34-1.13.74-1.52.3817693-.347694.5749146-.856557.52-1.37 0-.58 0-1.16 0-1.65l.69-.53v-3.56l.58-.46v-1.5l.67-.56v-5.06l.46-.37c.3-1.78 1.77-3.14 2.75-4.94v-.75l.66-.55v-1.52l-.59-.46-.09-.92.65-.7v-1.95l.69-.54v-4.06l.6-.48v-2c.73-.43.54-1.27 1.33-1.63v-4c.2572433-.196771.4950008-.417785.71-.66.1-.13 0-.32.07-.48l1.85-1.46v-3l.67-.58v-4c.77-.38.65-1.17 1.27-1.64.21-.17 0-.64 0-.93l1.31-1v-4.57l.6-.47v-1.8l1.91-3v-1.78l.68-.63c.12-.47-.23-.68-.58-.93v-2.06l.6-.56c0-.26-.18-.73 0-.89.62-.48.49-1.27 1.27-1.65v-2.48c.23-.22.64-.46.59-.59-.3-.89 1-1.48.68-2.34.4932265-.568608.9131721-1.196847 1.25-1.87.23-.64 1-.83 1.31-1.34l-.46-.36c-.45-.69 0-1.24.49-1.77-.33-.81.51-1.37.86-2s1.18-.94 1.74-1.35v-2.62c.83-.26.37-1.14 1.21-1.43v-4c1.09-1 1.15-2.5 2.66-3.18v-4.65c1-.38 1.12-1.31 1.88-2v-1.37c.72-.43.54-1.27 1.33-1.63v-1l.58-.45v-2.14c1.2642103-.7387891 2.2619239-1.8590289 2.85-3.2.94-.37 0-1.27.87-1.77.49-.29.65-1 .85-1.48.3389711-1.0800541 1.0198501-2.0206499 1.94-2.68v-1l-.62-.53v-1c.44-.21.61-.74 1.22-.73.4017003.0150985.7816608-.182481 1-.52.59-.82 1.12-1.67 1.62-2.52.16-.28-.11-.63.21-1 .66-.69.92-1.57 1.72-2.49v-2.5c1-.26 2 0 3-.16.26-.29.83-.45.93-.93 0-.67-.93-.85-1.3-1.34.26-.5-.42-.68-.58-1 .43-.41 1-.06 1.47-.24l.75.55h1.3l.7.51h.62c.38-.61 1.35-.36 1.86-.86.4538309-.2528245 1.0061691-.2528245 1.46 0 .7242087.4892235 1.5598507.788404 2.43.87.89 0 1.39.64 2.32.59.6722827.0454286 1.3160373.2890115 1.85.7.6.42 1.17.23 1.77.2l.57-.45h3.29c.244564-.5604571.553292-1.0906647.92-1.58.51-.56.4-1.3.8-1.76s.28-1.18 1.07-1.44c-.022062-.4508611.260662-.8606053.69-1 .76-.39.69-1.15 1.25-1.64.23-.19 0-.71.14-1 1-1.35 1.84-2.78 2.75-4.18.133614-.294947.283855-.5820752.45-.86.47-.53 1.18-.87 1.38-1.6.13-.44.87-.64 1.16-1.14.933937-1.6706719 1.97268-3.2805567 3.11-4.82.19-.25 0-.68.11-1 .175287-.2801469.394796-.5300501.65-.74-.14-.71-1-.92-1.32-1.43.1-.39-.23-.85.3-1.19l1.34 1 1.88-1.64 1.58-2.47c-.53-.81-.77-1.82-1.9-2.28v-1.1l4.3-1.68c.470621.3417505 1.052042.4951314 1.63.43l2.59-2.2.25.3 3.4-1.3 1.68-1.32h1.29l.69.5h1c.63159.1799396 1.239277.435101 1.81.76.57.43 1.41 0 1.74.36.56.63 1.52.14 2 .53s1.15.35 1.8.38l1.34 1h1.25c.58-.2.05-.87.74-1 1.05-.12 1.21.88 1.78 1 .494487.0926171 1.001643-.0776967 1.34-.45h1.29l.67.49h7.72l.72.53h1.25c.55.43 1.11.83 1.61 1.27s1.35.07 1.48.73h5.2c.639275.3276507 1.147358.8639606 1.44 1.52h.57l1.64 1.3c.06.2-.15.5.42.68h2.3c.55.17.76.73 1.49.52l1.61 1.39 1 .22c.32.39.29.95.88 1.23-.18.64.68.8.92 1.22.31.58.92 1.05 1 1.7 0 .33 0 .66.38.9s.07 1.06.92 1.14v2.61l.62.53c.4.65-.84.77-.62 1.34s-.35.9-.65 1.31c.05.65 1.11 1.07.54 2 .65.46 1.35 1 2.09 1.46s.66 1.39 1.59 1.77.94 1.24 1.6 1.87v.9l.59.47c0 .46.06 1 .09 1.58l.61.55c-.19 1.06-1.59 1.75-1.23 3 .709024.4769459 1.283982 1.1276468 1.67 1.89.168781.3825661.267027.7924882.29 1.21l1.21 1v2l.61.47v5l.66.59v2.49l.65.56v11.19l-.47.37c-.32.37-.12.79-.12 1.19l.53.41v1.83l1.37 1.91v3.86l.66.59v1.5l-.61.53.65.56v1l1.22 1v7c.51503.3774402.780279 1.0078871.69 1.64l-.61.52v3.53l.64.55v3.53l.51.4c.37.69-.06 1.44.17 2.1l-.62.49v3.15l.6.47v3.55l.6.47v8.09l.66.57v1l.67.57v6.53l.62.54c.12.51-.35 1.11.59 1.34v6.24l-.6.59v1.47l-.6.47v3l.61.53v4l.67.57v1l.6.53v3.57l-.56.44.51.51c.05.92.05.92-.54 1.55v1.48l-.66.57v1c.74.28.46 1.07 1.1 1.38.07.09.18.16.18.22v3.3l1.25 1.84v1.86l.67.61v1.39l.66.56v1l-.62.53v3.05l.55.43v1.43l.72.75v1.45l.68.54v3.55l.59.47v3l.67.57v3.55l1.11.86c.43.5-.2 1.25.77 1.6v1.92c.50181.379463.767571.994508.7 1.62-.67.43-1.76.49-1.94 1.38.1.53.78.74 1.14 1.13s0 .89.8 1v4.2l.61.48v1.47l.67.6v9.12l-.63.53v1.49c.22.2.51.36.62.58s0 .5.3.67l1.48.09c.234662.568221.269911 1.199178.1 1.79l-.51.4v3l-.64.6c0 .13-.05.29-.06.46s-.08.45 0 .49c1 .41.41 1.23.83 1.77s.69.94 1 1.42l-.44.34c-.05.16-.08.31-.14.47-.3.74.87 1.09.77 1.77.67.62.82 1.53 1.82 1.91v1.05l.46.36c.06.07.17.13.17.2v5c1 .69.91 1.83 1.9 2.55v1.5l-.6.52v1l-.68.58c.15 1 1.55 1.72 1.31 2.86l-.64.8c-.2.57.95.72.64 1.32 1.29.76 1.51 2.06 2.52 3.14v2.87l.61.59c-.62.69-.75 1.66-1.82 2v1.09l2 1.54v2.54l.6.46v6c.27.37.9.57.66 1.1l1 .74h1.06c1.15.32 1 1.28 1.88 1.81v2.55l.59.47v3l1.3 1.07v5.59l-.55.43v3.67l.52.41c-.59.62-1.4 1.12-1.92 1.59.015081.575266.433234 1.060324 1 1.16.85852.006501 1.599753.6028 1.79 1.44 0 .14.29.24.48.39v1.59l1.33.72v1.28l.61.47c.055072.695578.055072 1.394422 0 2.09l-1.16.91c-.185218.551532-.185218 1.148468 0 1.7.87.12.87.12 2.47-1.13v-.5l1.24-1c0-.25 0-.57.08-1.18l1-.56.86.68v1l.64.55c-.8.26-.39 1.13-1.21 1.43v4l-.63.63c-.157945.538102-.140432 1.11252.05 1.64l.49.39v2.4c.46.63.87 1.18 1.33 1.82v2.42c.78.34.37 1.22 1.14 1.49zm-96.52-137.63c-1.25-.14-.59-1.13-1.51-1.36 0-2.18 0-4.37 0-6.57 0-.06-.11-.13-.17-.19l-.46-.37v-2c-.22-.19-.64-.39-.62-.56.09-.64-.6-.83-1-1.21-1.18 0-1.47-.86-2.35-1.31v-2l-1.22-1.69v-1.79c.48-.67.88-1.22 1.33-1.86v-2.37l.53-.42v-1.63l-.58-.45c0-1.56 0-3.16 0-4.77.030808-.157081.084727-.308729.16-.45l.47-.36v-1.5l.64-.55v-3c-.76-.39-.65-1.18-1.23-1.59v-2.46l.54-.56-.59-.46v-6c-.015073-.166326-.015073-.333674 0-.5 0-.07.1-.14.27-.33l1-.73v-3.93l-1.86-2.79v-4.4c.15-.37.65-.39.43-.7l-.5-.39c0-2.18 0-4.37 0-6.57 0-.06-.13-.12-.28-.27l-.36-.26v-4.12c-.814113-.472716-1.450131-1.200096-1.81-2.07.85-.71.89-1.78 1.8-2.47.06 0 0-.16 0-.24v-.75c.25-.27.73-.4.6-1-.91-.45-.72-1.62-1.62-2.27s-1.08-1.79-2.2-2.29c-.11-.43.22-.89-.28-1.22h-.29l-1.29.63c-.1.58 0 1-.24 1.21s-.6.47-.47.91l.61.54v2c-.28.3-.87.51-.62 1 .24.26.72.4.66.68-.11.61-1 .83-.68 1.45s-.65.67-.61 1c0 .56-.74.74-.74 1.31 0 .31-.71.59-1 .93s-.36.92-.9 1.24v3c-1.1.39-.15 1.51-1.17 1.91-.06.57-.12 1.14-.17 1.66l-.54.43v4.52l-.67.59v2l-2.2 1.66-1.69 2.63v.84c.29.32.88.53.65 1l-.67.58v1.76c-.5.85-.7 1.65-1.31 2.09-.88.63-.12 1.7-1.23 2.17v1.4l-1.33 1.8v1.39l-.6.47v2.6c-.87.22-.44 1-1 1.26s.08 1.13-.67 1.56c-.47.28-.26 1-.92 1.21v2l-.67.57v1l-.66.6v3.85l-1.33 1.94v1.75l-.55.43v2.57l-.66.56v1l-.67.56v1.5l-.59.46v2.84l-1.4 2v2.34c-.77.35-.44 1.17-1.22 1.44v2.53l-.66.56v1l-.66.6v2.48l-.56.44v2.27l1.51 1.57.88-.55h3.76l.52-.41c.096606-.004853.193394-.004853.29 0h8.71c.09 0 .17-.08.26-.12l.46-.37.68.49h1.27l.72-.52h1.9l.55-.43h2.72c.47.38.93.75 1.54.16v-.5l.93-.72h4.51l.67.48.69-.5c1.36.13 2.3-.57 3.47-1.06h1.19z" fill="#e8634d"/></svg>