<svg xmlns="http://www.w3.org/2000/svg" viewBox="0 0 380 200"><path fill="none" d="M0 0h380v200H0z"/><path d="M349.62 127.9a13.41 13.41 0 0 0-11.46-6.65c-4.3 0-8.08 1.76-8.08 6.32 0 3.84 4.76 6.45 9.71 9.64 5.4 3.39 11 7.56 11 14.79 0 9.44-9.19 15.24-19.81 15.24a39.14 39.14 0 0 1-14.06-2.8l.83-12.57c2.48 5 7.11 9 13.94 9 5.28 0 9.18-2.54 9.18-7 0-3.78-3.19-6.13-7.1-8.47-8.21-4.95-13.41-8.93-13.41-16.09 0-10.75 9-14.33 18.29-14.33 5.4 0 8.8 1 12.24 1l-1.29 11.92m-45.52 11.26c-1.17 2-2.66 4.63-3.57 6.59a72 72 0 0 0-1.18 14.13c0 2.28.4 5.34 1.43 6.38h-13.61c2.42-2.28 3.4-16.28 3.27-20.71a109.28 109.28 0 0 0-8.08-19.77c-2.41-4.62-5.21-9-7-9.83 3.06-.26 7-.46 8.86-.46 3.38 0 4.29.46 6.39 5 3.25 7.36 5.66 12.89 7.09 17 3.45-5.41 5.86-9.12 9-14.2a8.57 8.57 0 0 0 1.43-4.3 5.28 5.28 0 0 0-.71-3.06h13.48c-2.61.58-14.33 19-16.81 23.18m-47.32-11.33l-8.07 17.52h13.15l-5.08-17.52m15.83 39c-4.3 0-4.62-.13-8.08-12l-1.23-4.36c-2.08 1-5.8 1.43-11.73 1.43h-6l-1 2.22c-1.5 3.32-3.52 7.22-3.52 10a7.61 7.61 0 0 0 .33 2.27h-35.6c2-2.27 2.68-9.63 3.65-23l.2-3.19c.52-7.62.91-13.48.85-17.58-.07-3.39-.4-5.54-1.31-6.52h13.75c-2 1.5-2.68 9.58-3.59 22.93l-.3 3.19c-.32 5-1 10-1 15 0 2.28.91 2.8 3.26 2.8 8.33 0 10.42-.19 14.19-2.74 2.34-4.29 5-9.7 7.62-15.3l3.52-7.49c3.32-7 6.58-14.2 6.58-15.57a7.3 7.3 0 0 0-.65-2.8h10.98s4.43 16.41 5.41 19.93l2.14 8c3.71 13.35 6.06 19.86 9.19 22.4a76.27 76.27 0 0 1-7.69.46m-88.64.52c-13 0-20.46-10.68-20.46-22.67 0-16.67 9.05-29.57 26.32-29.57 5.4 0 7.94 1 12.31 1l-1.33 12.64c-2.47-4.49-6.51-7.56-11.91-7.56-10.71 0-15.09 11.63-15.09 21.56 0 10.81 6.06 16.73 14.14 16.73 4.36 0 8.2-1.17 14.65-5.66-2.6 8.34-8.66 13.35-18.62 13.35M139 122.1c-1.31 0-2.61 0-3.91.13-.39 2.15-.72 5.86-1.18 11.85l-.26 3.52a11.58 11.58 0 0 0 2.28.2c6.25 0 10.56-3.78 10.56-9.51 0-3.91-2.74-6.19-7.49-6.19m18.16 46.31c-3.71 0-4.62-.59-5.86-2.28l-14.07-19.54c-1.1-1.5-2-2.74-3.71-2.74h-.32l-.26 3.78c-.33 5.15-.52 9.26-.52 12.32.06 3.38.45 5.46 1.37 6.31h-13.63c2-1.76 2.67-7.62 3.78-23l.19-3.19c.53-7.56.92-13.42.85-17.52-.07-3.58-.45-5.8-1.43-6.58h18.56c6.06 0 14.39 1 14.39 10.88 0 8.07-5.4 12.5-12.11 14.58a34.7 34.7 0 0 1 2.54 3l10.22 13.56c6.39 8.4 6.91 8.79 9.19 10-2.87.32-6.71.45-9.19.45m-63.4-40.66l-8.18 17.51h13.22l-5.05-17.51m15.82 39c-4.29 0-4.62-.13-8.07-12l-1.24-4.36c-2.08 1-5.8 1.43-11.72 1.43h-6l-1 2.22c-1 2.34-3.58 7.16-3.52 10a8.71 8.71 0 0 0 .33 2.27h-12c3.33-3.56 7.7-11.56 13.76-24.5l3.51-7.49c3.19-6.77 6.58-14.46 6.58-15.57a7 7 0 0 0-.65-2.8h11s2.86 10.88 5.4 19.93l2.15 8c3.71 13.35 6 19.86 9.18 22.4-2.8.33-6.32.46-7.69.46m-62-44.68a34.62 34.62 0 0 0-3.52.13c-.52 3.52-.85 6.9-1.11 10.61 0 0-.19 3.19-.19 3.06h1.3c6.38 0 12.25-2.21 12.25-8.07 0-3.39-2.81-5.73-8.73-5.73m-1.68 19.88h-3.58l-.52 7.42c-.26 3.26-.39 6-.46 9.25 0 .46 1.43 1.43 4.82 1.43 7 0 11.66-3.51 11.66-9.31 0-6.45-5.28-8.79-11.92-8.79m.78 24.29H29.11c2.21-2 2.8-9.57 3.77-23l.2-3.13c.52-7.62.91-13.48.85-17.58-.07-3.52-.46-5.8-1.44-6.58h19.67c4.69 0 14.07.26 14.07 10 0 6.51-6.06 10.55-11.59 12 7.81.78 13.68 4.55 13.68 12.63 0 8.73-8.21 15.63-21.63 15.63" fill="#00aeef"/><path d="M187.74 31.6c-1.74 0-2.1.3-2.67.93h-.69a8.1 8.1 0 0 0-4.53 1.14c-1.42.94-2.1 2.59-1.34 3.81 0 0 .51-.75 2.17-.75h.77c2.31.27 4 1.49 3.81 4.69s-1.39 6.77-6.3 6.81c0 0-.63 0-1.3-.06a3.71 3.71 0 0 1-3-1.69 3 3 0 0 0 2-3c0-1.7-1.5-3.26-3.64-3.9a8 8 0 0 0-2.28-.3 9.14 9.14 0 0 0-7.27 3.55c-4.33 5.73-4.69 14.07-3.63 21.83s6 15 6.14 15.18.2.21.31.21a.36.36 0 0 0 .17-.07 26.87 26.87 0 0 0 5-6.78c.93.74.44 2.31-.07 4a26.36 26.36 0 0 1-2.09 4.74c-.42.72-1 1.56-.22 2a.53.53 0 0 0 .28.07c1 0 3.2-1.67 5.71-5a38.59 38.59 0 0 0 4.23-7.1c.21 0 .55.39.49 1.34a23.37 23.37 0 0 1-2.95 7.87 45.34 45.34 0 0 1-4.1 5.9c-.23.28 0 .45.11.56a47.34 47.34 0 0 0 8.58 6c5.92 3.16 8.55 3.73 8.55 3.73s2.62-.56 8.54-3.71a47.11 47.11 0 0 0 8.58-6 .35.35 0 0 0 .18-.46.33.33 0 0 0-.06-.1 44 44 0 0 1-4.09-5.87 23.2 23.2 0 0 1-3-7.86c0-1 .28-1.27.48-1.35a38.09 38.09 0 0 0 4.24 7.1c2.52 3.35 4.75 5 5.71 5a.66.66 0 0 0 .3-.07c.72-.44.18-1.29-.24-2a28.15 28.15 0 0 1-2.1-4.73c-.49-1.71-1-3.28-.05-4a25.56 25.56 0 0 0 5 6.77.29.29 0 0 0 .27 0 .44.44 0 0 0 .28-.2c.16-.21 5.1-7.4 6.15-15.19s.71-16.1-3.63-21.83a9.14 9.14 0 0 0-7.29-3.57 8.15 8.15 0 0 0-2.25.31c-2.16.65-3.64 2.22-3.62 3.91a3 3 0 0 0 2 3 3.73 3.73 0 0 1-3 1.69 11.1 11.1 0 0 1-1.28.07 5.21 5.21 0 0 1-4.66-2.51c-1.34-1.88-1.3-5.75-1.38-7s-.34-4.24-1.71-5.44a7.73 7.73 0 0 0-5.13-1.73h-.48" fill="#00afe9"/></svg>