<svg viewBox="0 0 247.056 27.608" xmlns="http://www.w3.org/2000/svg"><defs><clipPath id="a"><path d="M0 513.92h236.747v81.355H0V513.92z"/></clipPath></defs><g clip-path="url(#a)" transform="matrix(1.25 0 0 -1.25 -21.36 723.12)"><path d="M21.56 576.893h-4.474v1.313h10.5v-1.313H23.11v-16.205h-1.55v16.205zm6.948 1.312h1.458v-6.41h.05c.366 1.31 1.625 2.09 3.158 2.09 1.97 0 3.305-1.022 3.305-3.45v-9.748H35.02v9.334c0 1.775-.73 2.65-2.21 2.65-1.705 0-2.846-1.312-2.846-3.308v-8.675h-1.458v17.518zm16.464-9.911c-.05 3.21-.948 4.376-2.75 4.376-1.795 0-2.694-1.167-2.743-4.376h5.492zm1.433-3.327c-.22-2.747-1.726-4.573-4.154-4.573-2.722 0-4.325 1.897-4.325 6.762 0 4.468 1.603 6.73 4.446 6.73 2.867 0 4.156-1.97 4.156-6.272v-.536H39.48v-.605c0-3.72 1.31-4.863 2.743-4.863 1.533 0 2.482 1.093 2.724 3.357h1.458zm12.357 3.913c0 1.92-.438 2.72-1.485 2.72-1.31 0-1.483-1.654-1.483-4.352 0-2.966.172-4.324 1.483-4.324 1.168 0 1.438.8 1.485 3.11h3.644c-.025-4.057-1.628-5.69-5.2-5.69-4.958 0-5.347 3.48-5.347 7.39 0 3.695 1.068 6.444 5.347 6.444 4.13 0 5.2-2.163 5.2-5.3H58.76zm9.951 2.72c-1.166 0-1.508-1.14-1.508-4.326 0-3.21.342-4.35 1.508-4.35 1.213 0 1.458 1.09 1.458 4.325 0 3.258-.244 4.35-1.457 4.35m-5.444-4.375c0 3.938.872 6.954 5.42 6.954 4.81 0 5.417-2.943 5.417-6.88 0-3.94-.875-6.954-5.418-6.954-4.815 0-5.42 2.943-5.42 6.88m21.468 4.376c-1.165 0-1.506-1.14-1.506-4.326 0-3.21.342-4.35 1.507-4.35 1.218 0 1.46 1.09 1.46 4.325 0 3.258-.242 4.35-1.46 4.35m-5.442-4.375c0 3.938.874 6.954 5.42 6.954 4.812 0 5.42-2.943 5.42-6.88 0-3.94-.876-6.954-5.42-6.954-4.814 0-5.42 2.943-5.42 6.88m16.922-4.011c1.43 0 1.505 1.582 1.505 3.964 0 2.113-.047 4.132-1.53 4.132-1.166 0-1.41-1.41-1.41-3.964 0-2.33.098-4.133 1.434-4.133m-5.296 10.623h3.79v-1.606h.047c.294.902 1.096 1.948 2.844 1.948 2.652 0 4.063-1.897 4.063-6.807 0-4.082-.584-7.025-3.817-7.025-1.096 0-2.285.367-2.94 1.775h-.05v-5.708H90.92v17.424zm18.252-4.933c0 1.85-.242 2.844-1.335 2.844-1.29 0-1.507-1.07-1.507-2.844h2.843zm-2.842-2.283v-.802c0-2.045.293-3.04 1.435-3.04 1.02 0 1.336.754 1.433 2.408h3.647c-.072-3.26-1.85-4.84-5.106-4.84-4.957 0-5.348 3.478-5.348 7.39 0 3.693 1.07 6.443 5.347 6.443 4.887 0 5.225-3.09 5.225-7.56h-6.634zm7.419 7.217h3.793v-1.847h.048c.512 1.165 1.507 2.188 3.16 2.188.192 0 .386 0 .634-.05v-3.693a5.65 5.65 0 01-1.097.097c-1.58 0-2.598-.66-2.598-2.383v-7.463h-3.94v13.15zm20.327-2.723h-1.626v2.723h1.627v4.38h3.938v-4.38h1.822v-2.723h-1.822v-6.634c0-.924.342-1.216 1.26-1.216.17 0 .39.024.56.05v-2.627a17.48 17.48 0 00-2.257-.148c-2.724 0-3.502.49-3.502 3.548v7.025zm6.826 2.723h3.938v-13.15h-3.937v13.15zm0 4.397h3.938v-3.01h-3.937v3.01zm4.761-4.397h4.083l1.53-9.7h.05l1.556 9.7h3.938l-3.258-13.15h-4.664l-3.234 13.15zm17.658-4.934c0 1.85-.242 2.844-1.336 2.844-1.286 0-1.504-1.07-1.504-2.844h2.84zm-2.84-2.283v-.802c0-2.045.29-3.04 1.43-3.04 1.025 0 1.336.754 1.435 2.408h3.645c-.07-3.26-1.845-4.84-5.102-4.84-4.96 0-5.345 3.478-5.345 7.39 0 3.693 1.067 6.443 5.345 6.443 4.885 0 5.226-3.09 5.226-7.56h-6.634zm-85.798-.921h3.936v3.21h-3.936v-3.21zm53.386-.828c0-1.314-.755-1.8-1.58-1.8-.73 0-1.142.63-1.142 1.676 0 .73.195 1.143.607 1.46.364.292.9.314 2.14.97 0-.534-.025-1.214-.025-2.306m3.67-1.34v6.758c0 2.77-1.434 3.89-4.665 3.89-1.63 0-2.748-.224-3.67-.852-.807-.55-1.318-1.456-1.45-2.872h3.525c.13.734.508 1.146 1.374 1.146.874 0 1.24-.512 1.24-1.312 0-1-.218-1.193-1.41-1.508-1.095-.29-2.55-.535-3.525-1.07-.972-.533-1.605-1.82-1.605-3.354 0-2.843 1.29-4.01 3.502-4.01 1.31 0 2.55.683 3.086 1.847h.047c.024-.51.073-1.044.22-1.506h3.79c-.46.583-.46 1.847-.46 2.844" fill="#243d72"/><path d="M177.092 561.635c1.497 0 2.892.774 2.892 5.69 0 4.887-1.395 5.66-2.892 5.66-1.52 0-2.893-.773-2.893-5.66 0-4.916 1.37-5.69 2.892-5.69m-4.39 16.863h1.497v-6.56h.048c.324 1.397 1.448 2.296 3.093 2.296 2.92 0 4.242-2.347 4.242-6.91 0-4.59-1.323-6.937-4.24-6.937-1.572 0-2.844.974-3.243 2.496h-.05v-2.196h-1.35v17.81zm17.285-10.328h-.05c-.15-.447-.996-.722-1.595-.873l-1.247-.323c-1.496-.4-2.27-1.172-2.27-2.745 0-1.545.8-2.595 2.095-2.595 1.822 0 3.068 1.373 3.068 3.743v2.793zm-6.334 1.823c0 2.717 1.296 4.24 4.09 4.24 2.745 0 3.742-1.424 3.742-3.518v-7.832c0-.748.25-1.1.772-1.1h.426v-1.096c-.275-.1-.5-.148-.7-.148-1.17 0-1.92.273-1.92 1.644v.45h-.05c-.597-1.747-1.945-2.247-3.418-2.247-2.32 0-3.367 1.448-3.367 3.743 0 1.746.8 3.142 2.67 3.667l2.818.798c1.047.3 1.27.548 1.27 2.095 0 1.696-.945 2.295-2.293 2.295-1.77 0-2.544-1.073-2.544-2.992h-1.496zm10.9 3.941h1.348v-1.846h.05c.748 1.472 2.046 2.146 3.393 2.146 2.02 0 3.392-1.048 3.392-3.544v-10.003h-1.497v9.58c0 1.82-.75 2.72-2.27 2.72-1.746 0-2.92-1.35-2.92-3.393v-8.907h-1.496v13.247zm10.925 4.564h1.498v-11.15h.05l5.137 6.586h1.846l-3.992-4.914 4.715-8.333h-1.843l-3.942 6.984-1.97-2.343v-4.64h-1.498v17.81z" fill="#0d9ad2"/></g></svg>