<svg xmlns="http://www.w3.org/2000/svg" viewBox="0 0 128 128"><path fill="#52565a" d="M0 0h128v128H0z"/><path d="M110.81 77H17.54a2 2 0 0 0-.89 3.9 1.91 1.91 0 0 0 .89 0h93.27a2 2 0 0 0 .89-3.9 2.22 2.22 0 0 0-.89 0" fill="#f5d50f"/><path d="M40.7 56.88l-.91-.06c-3.56-.24-5.12-.52-5.12-2.16 0-2.06 3.33-3 5.58-3 1.78 0 4.93.3 6.11 2.28a2.6 2.6 0 0 0 3.24.93 2.1 2.1 0 0 0 1.11-2.71C49.57 48.8 46 47 40.24 47c-5.21 0-10.45 2.62-10.45 7.6 0 6.11 5.79 6.65 10.45 7.08h.63c3.92.28 5.76.61 5.76 2.37 0 2.26-3.89 3.19-6 3.19-3.21 0-6.1-1.1-6.59-2.5a2.48 2.48 0 0 0-1.89-1.71 2.15 2.15 0 0 0-2 .81 3.18 3.18 0 0 0-.1 3.26c1.9 4.25 8 4.71 10.6 4.71 4 0 10.86-1.63 10.86-7.76s-5.95-6.75-10.81-7.19M86 47.29A10.81 10.81 0 0 0 76.66 52a10.9 10.9 0 0 0-16.49-1.8v-.55A2.3 2.3 0 0 0 58 47.3h-.2a2.41 2.41 0 0 0-2.42 2.37v19.74a2.35 2.35 0 0 0 2.34 2.35h.11a2.31 2.31 0 0 0 2.43-2.18v-10.1A7.35 7.35 0 0 1 67.52 52h.17a5.83 5.83 0 0 1 6 6.44v11a2.46 2.46 0 1 0 4.92 0V59.7a7.34 7.34 0 0 1 7-7.67h.51a5.86 5.86 0 0 1 6 5.68v11.73a2.25 2.25 0 0 0 2.11 2.39h.31A2.32 2.32 0 0 0 97 69.69V57.58c0-6.68-5.7-10.29-11-10.29M109.58 60a2.16 2.16 0 0 0 2.16 2.18H122a3 3 0 0 0 2.37-.88 2.63 2.63 0 0 0 .62-2c-.1-5.94-3.38-10.3-8.75-11.82h-.13a13.2 13.2 0 0 0-7 0 11.63 11.63 0 0 0-8 7.63 13.6 13.6 0 0 0 2 12.42 12.45 12.45 0 0 0 9.89 4.26 11.84 11.84 0 0 0 8.22-2.9 2.33 2.33 0 0 0 .31-3.28l-.07-.08a2.49 2.49 0 0 0-3.46 0 8.7 8.7 0 0 1-5.37 1.68 7.15 7.15 0 0 1-7-5 8.34 8.34 0 0 1-.23-4.35 7 7 0 0 1 5.18-5.86 8.49 8.49 0 0 1 4.16-.08h.13a7.22 7.22 0 0 1 5.31 5.88h-8.43a2.19 2.19 0 0 0-2.17 2.2m-97.47 0a2.16 2.16 0 0 0 2.16 2.18h10.31a3 3 0 0 0 2.42-.86 2.63 2.63 0 0 0 .62-2c-.12-5.94-3.4-10.3-8.78-11.82h-.13a13.2 13.2 0 0 0-7 0 11.63 11.63 0 0 0-8 7.63 13.6 13.6 0 0 0 2 12.42 12.44 12.44 0 0 0 9.85 4.24 11.84 11.84 0 0 0 8.22-2.9 2.32 2.32 0 0 0 .37-3.27l-.15-.09a2.49 2.49 0 0 0-3.46 0 8.7 8.7 0 0 1-5.37 1.68 7.15 7.15 0 0 1-7-5A8.34 8.34 0 0 1 8 57.86 7 7 0 0 1 13.11 52a8.49 8.49 0 0 1 4.16-.08h.13a7.22 7.22 0 0 1 5.31 5.88h-8.43a2.19 2.19 0 0 0-2.17 2.2" fill="#fff"/></svg>