<svg xmlns="http://www.w3.org/2000/svg" viewBox="0 0 199.7 42.3"><path d="M44.8 17.8h12.6v3.3h-8.8v3.1H56v3h-7.4v6.4h-3.8V17.8zm13.6 7.9c0-4.6 3.2-8.3 8.5-8.3s8.5 3.7 8.5 8.3c0 4.6-3.2 8.3-8.5 8.3s-8.5-3.7-8.5-8.3zm13 0c0-2.8-2-4.6-4.6-4.6-2.5 0-4.5 1.8-4.5 4.6s2 4.6 4.5 4.6c2.6 0 4.6-1.8 4.6-4.6zm6.6-7.9h7.5c4 0 6.6 2.1 6.6 5.5 0 2.2-1 3.8-2.6 4.7v.3l3.6 5v.3h-4.4L85.5 29h-3.7v4.6H78V17.8zm7.4 3.3h-3.5v4.8h3.5c1.8 0 2.8-.8 2.8-2.4-.1-1.6-1.1-2.4-2.8-2.4zm17.1 3.1h8V26c0 4.6-2.5 8-7.6 8-5.3 0-8.5-3.7-8.5-8.3 0-4.6 3.2-8.3 8.5-8.3 4.2 0 6 2 6 2l-2.3 2.9s-1.5-1.2-3.8-1.2c-2.6 0-4.5 1.9-4.5 4.6 0 2.8 1.9 4.6 4.5 4.6 2.3 0 3.5-1.4 3.5-2.9v-.2h-3.9v-3zm21.7 3h-7v3.1h8.8v3.3h-12.6V17.8H126v3.3h-8.8v3.1h7v3zm4.9-9.4h7.5c4 0 6.6 2.1 6.6 5.5 0 2.2-1 3.8-2.6 4.7v.3l3.6 5v.3h-4.4l-3.1-4.6H133v4.6h-3.8V17.8zm7.3 3.3h-3.5v4.8h3.5c1.8 0 2.8-.8 2.8-2.4 0-1.6-1-2.4-2.8-2.4zm8.9 4.6c0-4.6 3.2-8.3 8.5-8.3s8.5 3.7 8.5 8.3c0 4.6-3.2 8.3-8.5 8.3s-8.5-3.7-8.5-8.3zm13 0c0-2.8-2-4.6-4.6-4.6-2.5 0-4.5 1.8-4.5 4.6s2 4.6 4.5 4.6c2.6 0 4.6-1.8 4.6-4.6zm20.2 6.4s-1.8 1.9-5.7 1.9c-5.3 0-8.5-3.7-8.5-8.3 0-4.6 3.2-8.3 8.5-8.3 3.9 0 5.7 1.9 5.7 1.9l-2.2 2.9s-1.6-1.2-3.4-1.2c-2.7 0-4.6 1.9-4.6 4.6 0 2.8 1.9 4.6 4.6 4.6 2.2 0 3.4-1.2 3.4-1.2l2.2 3.1zm5.9-7.5l6.5-6.8h4.7v.3l-6.1 6.5 6.1 8.7v.4h-4.7c-1.4-2.1-2.8-4.2-4.1-6.2l-2.4 2.5v3.7h-3.8V17.8h3.8v6.8zm13.9-7.1c.2 0 .5.1.7.2.2.1.4.3.5.5.1.2.2.4.2.7 0 .2-.1.5-.2.7-.1.2-.3.4-.5.5s-.4.2-.7.2c-.2 0-.5-.1-.7-.2s-.4-.3-.5-.5c-.1-.2-.2-.4-.2-.7 0-.2.1-.5.2-.7s.3-.4.5-.5c.3-.1.5-.2.7-.2zm0 .3c-.2 0-.4 0-.5.1s-.3.2-.4.4c-.1.2-.1.4-.1.6 0 .2 0 .4.1.5.1.2.2.3.4.4s.4.1.5.1c.2 0 .4 0 .5-.1s.3-.2.4-.4c.1-.2.1-.4.1-.5 0-.2 0-.4-.1-.6-.1-.2-.2-.3-.4-.4-.1 0-.3-.1-.5-.1zm-.6 1.8v-1.4h.8c.1 0 .2 0 .2.1.1 0 .1.1.1.1 0 .1.1.1.1.2s0 .2-.1.3c-.1.1-.2.1-.3.1 0 0 .1 0 .1.1l.1.1s0 .1.1.2l.2.3h-.4l-.1-.2c-.1-.2-.1-.3-.2-.3s-.1-.1-.2-.1h-.1v.6h-.3zm.3-.8h.4s.1 0 .1-.1v-.2l-.1-.1h-.4v.4zM25.4 3.7L12.9 25.6l4.1 7.2 12.5-22zm6.2 10.8l-12.5 22 3.3 5.8h6.1l9.4-16.6zM11.3 4L0 23.8h9.8L23.4 0zm6.8 38.3L9.8 27.6 0 27.5l8.4 14.8z" fill="#bb3d11"/></svg>
