<svg width="200pt" height="104pt" viewBox="0 0 200 104" xmlns="http://www.w3.org/2000/svg"><g fill="#15569c"><path d="M.49 0h79.12c1.1.82 2.19 1.66 3.24 2.54-26.49.05-52.99.03-79.49.01C2.39 1.71 1.43.86.49 0zM121.01 0h78.52c-.29 1.39-2.27 2.52-3.64 2.5-26.02 0-52.05.01-78.07-.01.8-.62 2.4-1.87 3.19-2.49zM7.29 5.88c25.94-.03 51.88.02 77.82-.02 2.01-.5 3.14 1.54 4.54 2.51-26.48 0-52.97.1-79.45.02-.97-.83-1.94-1.67-2.91-2.51zM111.12 8.43c.95-.87 1.93-1.72 2.93-2.54 26.42-.03 52.83-.02 79.25 0-.98.89-1.98 1.77-3.03 2.57-26.39-.05-52.77 0-79.15-.03zM13.98 11.63c26.58.04 53.17-.1 79.74.07l2.9 2.48c-25.89.02-51.78-.01-77.67.02-2.12.46-3.39-1.61-4.97-2.57zM104.45 14.18c.9-.86 1.82-1.71 2.75-2.53 26.49-.05 52.99-.02 79.48-.02-1.1.92-2.24 1.78-3.43 2.57-26.27-.05-52.54.01-78.8-.02zM20.9 17.46c26.34.03 52.67-.02 79.01.03 1.37.45 2.34 1.68 3.55 2.45-26.42-.01-52.84.01-79.26-.01-1.12-.8-2.22-1.62-3.3-2.47zM105.32 17.47c24.83-.01 49.66.01 74.49-.01-1.52.89-2.72 2.81-4.7 2.49-22.3-.03-44.59.02-66.89-.03-.99-.8-1.96-1.61-2.9-2.45zM27.82 23.21c26.35.03 52.71-.02 79.06.03 1.26.51 2.11 1.67 3.17 2.49-26.29-.02-52.59.02-78.88-.03-1.35-.41-2.22-1.69-3.35-2.49zM111.91 23.22c20.38-.01 40.77 0 61.15 0-1.1.86-2.22 1.68-3.36 2.49-18.17.03-36.34.01-54.51.01-1.13-.79-2.21-1.63-3.28-2.5zM34.76 29.04c26.35-.01 52.7-.02 79.05 0 1.01.82 2.02 1.64 3.01 2.49-26.43-.02-52.86.06-79.29-.04-.93-.81-1.86-1.62-2.77-2.45zM119.04 28.98c15.68-.02 31.36-.01 47.05-.01-1.15.85-2.05 2.18-3.43 2.62-13.61-.03-27.24.09-40.85-.06-.93-.85-1.86-1.69-2.77-2.55zM0 36.97c3.61.01 7.22-.03 10.83.02.05 3.6-.02 7.21.03 10.81 3.72.02 7.43.02 11.15 0 .06-3.61-.02-7.21.03-10.81 3.67-.03 7.34-.03 11.01 0 .02 10.1.03 20.2-.01 30.3-3.66.04-7.33.03-11 .01-.05-3.83.03-7.67-.03-11.5-3.72-.03-7.43-.03-11.15 0-.05 3.83.02 7.66-.03 11.49-3.61.05-7.22.01-10.83.02V36.97zM34.24 67.43C38.72 57.28 43.2 47.12 47.75 37c3.46-.01 6.92.01 10.38-.01 4.65 10.08 9.02 20.3 13.54 30.44-3.66.01-7.33.01-10.99 0-.77-1.66-1.46-3.36-2.2-5.03-3.68-.05-7.37-.04-11.05-.01-.76 1.68-1.45 3.37-2.23 5.04-3.65.02-7.31.01-10.96 0m16.24-11.59c1.64.01 3.28.01 4.91-.01-.76-1.9-1.53-3.8-2.39-5.66-1.05 1.79-1.7 3.77-2.52 5.67zM72.46 37.03c3.67-.06 7.33-.02 11-.02.03 7.53-.01 15.07.02 22.6 3.63.04 7.25-.01 10.88.03.02 2.59.02 5.19 0 7.79-7.29.02-14.58 0-21.87.01-.06-10.14 0-20.28-.03-30.41zM96.44 36.99c3.56-.04 7.12-.02 10.67-.01.02 10.15.02 20.3 0 30.44-3.55.04-7.1.01-10.65.02-.05-10.15-.02-20.3-.02-30.45zM111.25 37.02c7.13-.03 14.25-.04 21.38.01v6.95c-3.41.07-6.82-.03-10.23.05-.01 1.3-.01 2.61.01 3.92 3.29.06 6.59-.02 9.89.04.03 2.52-.01 5.04.03 7.57-3.3.16-6.6.01-9.9.07-.07 3.93.01 7.86-.03 11.79-3.72.02-7.44.04-11.15 0v-30.4zM142.25 37.08c3.51-.04 7.01-.02 10.52-.01 3.83 8.52 7.49 17.12 11.38 25.61 2.79-3.47 5.65-6.89 8.43-10.38-3.99-5.11-8.04-10.19-12.02-15.32 4.75-.01 9.49-.03 14.24.01 1.72 2.13 3.33 4.35 5.04 6.49 1.79-2.14 3.47-4.37 5.27-6.5 4.11-.02 8.21-.02 12.32 0-3.72 4.89-8 9.42-11.45 14.47 4.2 5.29 8.3 10.64 12.43 15.98-4.67-.09-9.38.22-14.03-.15-1.83-2.44-3.73-4.83-5.64-7.2-1.99 2.43-3.93 4.9-5.91 7.33-5.89.12-11.73.38-17.62.07-.75-1.68-1.44-3.39-2.26-5.04h-10.87c-.83 1.65-1.53 3.36-2.29 5.04-3.65.04-7.31.03-10.96 0 4.46-10.14 8.94-20.27 13.42-30.4m5.24 13.11c-.85 1.89-1.66 3.8-2.45 5.71 1.65.01 3.29.02 4.94.01-.78-1.93-1.57-3.85-2.49-5.72zM37.46 72.42c13.71-.03 27.41-.03 41.11 0 .97.83 1.93 1.67 2.86 2.54-15.67.02-31.35.02-47.02 0 1-.87 2.02-1.71 3.05-2.54zM83.63 72.47c26.34 0 52.68-.01 79.02 0 1.16.65 2.08 1.65 3.11 2.48-26.3.04-52.59.02-78.89.01-1.27-.53-2.16-1.67-3.24-2.49zM27.38 80.72c1.49-.85 2.66-2.74 4.58-2.48 17.69.03 35.37-.02 53.06.03 1.39.43 2.36 1.68 3.57 2.45H27.38zM90.37 78.25c26.42.01 52.84-.02 79.27.02 1.02.8 2.05 1.61 3.05 2.44-26.44.02-52.88.02-79.32 0-1.02-.8-2.02-1.61-3-2.46zM24.15 84.08c22.64-.03 45.29-.03 67.94 0 1.2.56 2.06 1.63 3.09 2.45H20.64c1.16-.82 2.2-1.86 3.51-2.45zM96.99 84.07c26.34-.01 52.68-.02 79.02.01 1.36.51 2.38 1.65 3.57 2.46-26.41-.01-52.82-.02-79.24 0-1.15-.78-2.26-1.62-3.35-2.47zM13.76 92.31c1.09-.86 2.21-1.69 3.35-2.48 26.32-.03 52.63-.02 78.95-.01-.94.88-1.9 1.73-2.88 2.55-26.47-.01-52.95-.04-79.42-.06zM103.89 89.82c26.38-.02 52.77 0 79.16-.01 1.17.79 2.3 1.62 3.41 2.5-26.52.01-53.05 0-79.57 0-1.03-.8-2.03-1.63-3-2.49zM7.19 98.05a96.1 96.1 0 0 1 2.94-2.47c26.39-.04 52.78-.02 79.16-.01-1.35.91-2.36 2.89-4.27 2.5-25.94-.02-51.88.01-77.83-.02zM110.82 95.63c26.44-.02 52.87-.06 79.31-.06 1.04.8 2.08 1.62 3.08 2.48-26.1.03-52.2 0-78.3.02-1.79.3-2.77-1.65-4.09-2.44zM3.52 101.53c26.38-.06 52.75-.02 79.13-.02-.95.84-1.9 1.69-2.89 2.49H.44c1.02-.83 2.05-1.66 3.08-2.47zM117.61 101.42c26.09-.03 52.19 0 78.28-.02 1.84-.25 2.78 1.71 4.11 2.6h-79.16c-1.11-.83-2.17-1.71-3.23-2.58z"/></g></svg>