<svg xmlns="http://www.w3.org/2000/svg" viewBox="0 0 392.1 85"><path fill="#fff" d="M128.9 0h-85L1.4 42.5 43.9 85h85l42.6-42.5z"/><path d="M171.5 42.5L128.9 0v85zm-85.1 0L128.9 0h-85zm-85 0L43.9 85V0zm85 0L43.9 85h85z" fill="#db0011"/><path d="M208.8 45.1h-15.4v15.2h-7.7V24.7h7.7v14.6h15.4V24.7h7.7v35.6h-7.7V45.1zM235 61c-7.7 0-14-3.1-14.1-11.6h7.7c.1 3.8 2.3 6.1 6.5 6.1 3.1 0 6.7-1.6 6.7-5.1 0-2.8-2.4-3.6-6.4-4.8l-2.6-.7c-5.6-1.6-11.2-3.8-11.2-10.2 0-7.9 7.4-10.6 14.1-10.6 6.9 0 12.9 2.4 13 10.3H241c-.3-3.2-2.2-5.1-5.8-5.1-2.9 0-5.7 1.5-5.7 4.7 0 2.6 2.4 3.4 7.4 5l3 .9c6.1 1.9 10 4 10 10 0 8-7.9 11.1-14.9 11.1zm19.2-36.3h12.4c2.3-.1 4.7 0 7 .4 4.3 1 7.6 3.8 7.6 8.6 0 4.6-2.9 6.9-7.1 8 4.8.9 8.4 3.3 8.4 8.6 0 8.1-8 9.9-14.2 9.9h-14l-.1-35.5zm12.4 14.8c3.4 0 6.9-.7 6.9-4.8 0-3.7-3.2-4.7-6.4-4.7h-5.4v9.5h4.9zm.7 15.5c3.6 0 7.1-.8 7.1-5.2s-3-5.2-6.7-5.2h-6.1V55h5.7zm35.3 6c-11.5 0-16.6-7.3-16.6-18.2S291.7 24 303 24c7.1 0 14 3.2 14.2 11.2h-8c-.4-3.6-2.8-5.4-6.2-5.4-7 0-9.1 7.5-9.1 13.2 0 5.7 2.1 12.3 8.8 12.3 3.5 0 6.1-1.9 6.6-5.5h8C316.5 58 310 61 302.6 61zm42.6-.1c-8.8 0-13.6-4.9-13.6-13.6V24.7h3.4v21.4c0 2.8 0 5.6 1.6 8 1.9 2.9 5.4 4.1 8.7 4.1 3.9 0 7.7-1.7 9.4-5.4.8-2.1 1.1-4.4.9-6.7V24.7h3.4v22.5c-.2 8.5-5.3 13.7-13.8 13.7zm20.6-36.2h3.2v35.6h-3.2V24.7zm3.4 16.3l15.9-16.3h4.3l-16.3 16.1 18 19.6h-4.4L369.2 41z"/></svg>