<svg xmlns="http://www.w3.org/2000/svg" viewBox="0 0 120 60"><path fill="none" d="M0 0h120v60H0z"/><path d="M96.32 28.36h-1.39v-6.57h1.39a3.29 3.29 0 0 1 0 6.57m0-8.32h-3.2v10h3.2a5.21 5.21 0 0 0 3.68-1.39 5 5 0 0 0 0-7.19A5.24 5.24 0 0 0 96.32 20M89.9 20.07l-2.59 4.46-2.8-4.53h-2.15l3.89 6.1-2.39 3.94h2.06L92 20h-2.08zM77 28.49a3.3 3.3 0 0 1-3.27-3.43V25a3.27 3.27 0 1 1 6.54.06A3.3 3.3 0 0 1 77 28.49m0-8.56a5.09 5.09 0 0 0-5.13 5.13 5.16 5.16 0 0 0 1.47 3.66 5.2 5.2 0 0 0 7.31 0 5.23 5.23 0 0 0 0-7.3A5.11 5.11 0 0 0 77 19.93M106.79 24.16a6.23 6.23 0 0 1-1.65-.69.81.81 0 0 1-.42-.73.92.92 0 0 1 .53-.87 2.57 2.57 0 0 1 1.19-.25 5.65 5.65 0 0 1 2.32.55h.13v-1.7a6 6 0 0 0-2.52-.51 4 4 0 0 0-2.26.68 2.54 2.54 0 0 0-1.11 2.12c0 1.71 1.35 2.48 2.68 2.89a7.61 7.61 0 0 1 1.51.61 1.13 1.13 0 0 1 .06 1.95 2.14 2.14 0 0 1-1.16.31 5.39 5.39 0 0 1-2.75-.84h-.06l-.11-.06v1.88h.08a6.13 6.13 0 0 0 2.87.72 3.2 3.2 0 0 0 3.45-3c0-1.7-1.18-2.54-2.77-3M58.89 20h-1.84v10h6.4v-1.7h-4.56zM66.9 20h-1.84v10h6.41v-1.7H66.9zM90.42 41.56L85.73 34h-2.38v10h1.79v-7.68l4.77 7.76h2.27V34h-1.76zM98.89 38.68l4.7-4.64h-2.41L97 38.38V34h-1.85v10h1.78v-5l4.42 5h2.51zM74.92 40.25l1.57-4.09L78 40.25zm.85-6.25L71.4 44h2l.9-2.3h4.36l.93 2.3h2.05l-4.32-10zM66.11 42.58H64.5v-2.93h1.68c1.45 0 2.17.37 2.17 1.43 0 1.31-1.32 1.5-2.24 1.5m-1.61-7.07h1.44c1.35 0 2 .36 2 1.25s-.64 1.36-1.84 1.36h-1.6zm3.5 3.28a2.23 2.23 0 0 0 1.74-2.2c0-1.83-1.56-2.52-3.08-2.52h-3.95v10h3.63c1.9 0 3.8-.74 3.8-2.92A2.32 2.32 0 0 0 68 38.79" fill="#15854f"/><path d="M48.56 30.8c.75.49 1.52.84 1.52 1.62 0 .22-.33.45-1 .45a1.84 1.84 0 0 1-1.43-.5c-.23-.26.1-.62-.1-.88s-.51-.12-.73-.23-.3-.24-.48-.57a8.52 8.52 0 0 0-1.67-1.78 3.16 3.16 0 0 0-1.79-.91 4.52 4.52 0 0 1-.52 0c-.57 0-1.08.49-1.9.8a5.32 5.32 0 0 1-1.29.4l-.12.13h.75c.7 0 1.64-.08 2.33-.08s1.09.57 1.36 1.17a32.41 32.41 0 0 0 2.35 4.44 3.23 3.23 0 0 1 .88 2c0 .25 0 .61-.43.61s-1.95-.51-1.95-1.06.37-.6.37-1c0-.27-.44-.23-.54-.47a7.28 7.28 0 0 0-1.61-3.37c-.43-.41-.48-.59-.9-.59a2.4 2.4 0 0 0-.66.11c-1.15.39-2.67 1.52-4.58 2-.73.19-.85-.18-1.61 0-.6.11-1.08.43-1.9.62a14.62 14.62 0 0 1-4.72.24c-1.13-.12-2.58-.32-3.21-.3a6.16 6.16 0 0 1-3 3.44c-.8.31-1.05.76-.8 1.56.3 1 1.3 1.73 1.83 2.57a6.49 6.49 0 0 0 2.08 2.27c.83.38 1.33.94 1.33 1.41 0 .22-.1.35-.36.35h-1.6A.46.46 0 0 1 24 45c-.23-.38-.07-.74-.38-1.07s-.4-.18-.67-.38c-.51-.42-.13-.66-.51-1.2a35.18 35.18 0 0 0-2.38-2.87c-.5-.55-1.1-.82-1.1-1.55 0-.88 1-1 1-1.94a5.57 5.57 0 0 1-2.56.89 2.15 2.15 0 0 0-.72.47 1.71 1.71 0 0 0-.61 1.25 15.21 15.21 0 0 0-.23 3.62A1.94 1.94 0 0 0 17 43.68c.45.27 1 .65 1 1.21a.29.29 0 0 1-.3.33h-1.79a.47.47 0 0 1-.38-.2c-.2-.31-.07-.53-.15-.89-.17-.73-1.11-.69-1.11-1.45 0-.21.16-.51.18-1a17.21 17.21 0 0 0 .06-4.66c-.16-1.16 1.2-1.21 1.9-2.23a4.91 4.91 0 0 0 .55-.76 1.53 1.53 0 0 0 .18-1 6.06 6.06 0 0 1-.14-2.48 3.84 3.84 0 0 1 .93-1.84s0-.11-.15-.11a7.64 7.64 0 0 1-1.18-.11 1.05 1.05 0 0 0-.88.5.48.48 0 0 1-.32-.44.77.77 0 0 1 .3-.64c.09-.09 0-.13-.14-.13a1.49 1.49 0 0 0-1.19 1c-.33-.05-.35-.43-.51-.43s-.24.2-.24.41c0 1.42 2.6 1.73 2.6 3.59 0 2.16-2.93 1.72-2.93 2.49 0 .16.13.29.35.38a.67.67 0 0 1-.63.29 1 1 0 0 1-1.13-1c0-1.18 1.78-1.2 1.78-2.09 0-.42-.29-.56-.57-.75-1.71-1.07-2.66-2.14-2.66-3.89a3.32 3.32 0 0 1 3.41-3.34c2.81 0 2.89 2.87 5.44 3.11a6.3 6.3 0 0 1 3.18-.91c1.66 0 2.39.38 4.14.38a6.4 6.4 0 0 0 3.29-1 8.56 8.56 0 0 0 1.22-.76 5.53 5.53 0 0 0 2.13-3.66v.07c0-.38-.1-.6-.29-.6-.61 0-1.13.49-1.74 1-.37.35.21.51-.65.93-.3.14-.65-.11-1-.11-.68 0-1-.71-1-1.33 0-.32.28-.4.43-.69.35-.6.33-.83.65-1.43.21-.4.55-.67.53-1 0-.11-.1-.18-.1-.29 0-.6.9-1 .9-1.6 0-.33-.43-.49-.53-.76s0-.32 0-.32a.13.13 0 0 1 .12-.07c.35 0 .51.33.84.5 0-.39-.13-.48-.13-.77s0-.4.15-.4.19.27.4.4.47.15.75.31.55.54.68.55c.35.05.45-.33.27-.55.4 0 .81.27 1.34.27a1.85 1.85 0 0 1 1.25.3c.53.4.63.72 1.21.72a.63.63 0 0 0 .52-.32 1.06 1.06 0 0 1 0 1.5c.18.46.92.51 1.28.73s.3.34.56.47a.51.51 0 0 0 .52 0c.17.62-.43 1.18-1.16 1.26 0 .8 1 1.29 1.41 1.49a1.44 1.44 0 0 1-1.11.73c.13.5.73 1.21.43 1.85-.27-.11-.68 0-.68.35s.59.6 0 .89c-.27.14-.32.49.18.82a8.71 8.71 0 0 1 2-.13c.45 0 1-.11 1.45-.11a2.31 2.31 0 0 1 1.76.8 32 32 0 0 0 4.07 3.69" fill="#231f20"/><path d="M11.35 27.24c.3 0 .85-1.46 2-1.46.33 0 .4.11.4.22s-.37.37-.37.64c0 0 0 .11.13.11.27 0 .47-.53 1.6-.53a3.7 3.7 0 0 1 .83.09c.12 0 .38.13.27-.17a2.41 2.41 0 0 0-2.33-1.34 2.71 2.71 0 0 0-2.61 2.11c0 .2 0 .33.11.33M32.15 18.09c-.32-.11-.38-.27-.28-.62s.1-.54-.1-.58a.71.71 0 0 0-.62.26 4.36 4.36 0 0 0-.63.79c-.1.3.33.26 0 .77a10.64 10.64 0 0 0-.9 1.63 2.68 2.68 0 0 1-.52.9c-.16.18.2.2.6.09s.45.31.3.63 0 .31.32.06-.17-.4 0-1.11a3.59 3.59 0 0 1 .68-1.64c.38-.56.7-1 1.36-.76.25.11.12-.29-.23-.42M46.09 37c.13 0 .15-.16.15-.29a1.43 1.43 0 0 0-.47-1c-.07.47-.33.78-.33 1s.48.29.65.29M49.21 32.49c.19 0 .49-.07.49-.2s-.44-.73-.85-.85c.28.47 0 1.05.36 1.05M35.44 26.42c2.83 1.15 2.66 3.27 2.91 2.73a2 2 0 0 0-.53-2.26c-.77-.8-1.08-.6-.77-1.27 1.22-2.64 2-6.64-1.69-8-.42-.16-.77-.16-.77-.09s.4.18.88.47c2.45 1.44 1.7 5.38-.56 7.29-.76.64-.4.79.53 1.17M25.76 44.83c.2 0 .1-.25 0-.37a1.64 1.64 0 0 0-.76-.56c.09.27.11.93.41.93zM17.21 44.83c.2 0 .05-.25 0-.37a1.71 1.71 0 0 0-.8-.53c.07.26.12.9.42.9zM27.56 29.8c1.56-.16 1.81-.47 2.08-1.52a3.3 3.3 0 0 1 .88-1.28 4.42 4.42 0 0 0 .68-.73c.07-.13.12-.24 0-.2s-.71.42-.93.58a8 8 0 0 1-3.46 1c-1.43 0-2.65-.38-4-.38-3.91 0-5.37 2.72-5.16 4.29 0 .25.07.26.17.26.28 0 .5-.92 1.48-1.75a7.58 7.58 0 0 1 5.19-1.88c1.61 0 2.25.46 2.25.64 0 .35-.68.37-.62.73 0 .11.37.38 1.4.27" fill="#656263"/></svg>