<svg xmlns="http://www.w3.org/2000/svg" viewBox="0 0 120 32"><defs><linearGradient x1="-54.905%" y1="-49.093%" x2="173.163%" y2="132.938%" id="a"><stop stop-color="#0CECFC" offset="0%"/><stop stop-color="#0D6FCD" offset="100%"/></linearGradient></defs><g fill="url(#a)" fill-rule="evenodd"><path d="M114.095 20.727l.344-2.17c1.42-.113 2.45-.406 3.3-.92 1.033-.62 2.261-1.849 2.261-4.171a7.418 7.418 0 0 0-.912-3.573 3.556 3.556 0 0 0-3.301-1.828c-.075-1.893-1.641-3.39-3.55-3.394a33.932 33.932 0 0 0-5.263.39c-1.513.235-2.705 1.648-2.957 3.152-.014.085-4.022 0-6.722 0-2.072 0-3.173 1.025-3.173 1.025s-1.02-1.327-3.709-1.025a24.887 24.887 0 0 0-3.89.505c.276-1.627.435-3.27.478-4.92v-.177C87.01 1.654 85.43.042 83.45 0h-.002c-2.596 0-5.565.352-7.06.724a3.587 3.587 0 0 0-2.686 3.667c.084 1.526-.603 6.07-.603 6.07-1.67-1.385-3.865-2.176-6.395-2.176a14.12 14.12 0 0 0-6.596 1.596 3.584 3.584 0 0 0-2.734-1.233h-.002c-1.994 0-3.542-.026-5.018.1a3.51 3.51 0 0 0-2.757 1.683c-.036-.068-.073-.156-.111-.222a3.576 3.576 0 0 0-3.098-1.824c-2.667 0-7.273.783-7.472.876a11.661 11.661 0 0 0-5.027-1.01 13.797 13.797 0 0 0-7.288 1.963c-.36-5.375-5.017-9.036-11.578-9.036 0 0-8.035.3-9.484.616a3.522 3.522 0 0 0-2.784 3.695c.097 1.3.018 2.608-.234 3.889l-2.358 15.1c-.15.914-.59 3.631 1.125 5.642.69.811 1.975 1.778 4.168 1.778 1.04 0 3.695-.111 5.906-1.132a3.554 3.554 0 0 0 1.451-1.23c1.2 1.386 2.963 2.394 5.546 2.424a14.645 14.645 0 0 0 6.493-1.568 11.313 11.313 0 0 0 6.043 1.6c3.846 0 7.449-1.55 9.726-4.113 1.282 3.264 3.598 4.021 5.467 4.021 1.609 0 3.485-.17 5.368-1.115 1.55-.778 2.286-3.364 2.61-3.937 1.571 3.176 4.734 5.151 8.733 5.151a13.84 13.84 0 0 0 8.76-3.02c.17.295.366.574.588.833.816.95 2.37 2.085 5.138 2.085a9.685 9.685 0 0 0 5.516-1.605c.904.86 2.354 1.707 4.565 1.707a10.387 10.387 0 0 0 4.753-1.23c1.08.75 2.456 1.13 4.106 1.13 2.596 0 4.922-.9 6.47-2.451 1.275 1.255 3.498 2.552 7.252 2.552 3.493 0 6.93-2.216 8.697-5.205 1.356-2.292-.182-6.224-4.548-6.07l-.001.002z" fill="none"/><path d="M12.311 4.72c-2.445.033-5.157.309-5.946.529.79-.222 3.501-.496 5.946-.53v.001zm78.087 19.095zm.195 1.246zM13.848 8.256h-1.382a14.496 14.496 0 0 0-.269 1.683l-1.01 6.179h1.684c2.19 0 3.84-1.852 3.84-4.602 0-2.014-1.112-3.26-2.863-3.26zm18.833 6.658c-1.01 0-1.718 1.989-2.088 3.562h.539c1.28 0 2.256-.826 2.425-1.832.019-.136.028-.274.028-.411a1.657 1.657 0 0 0-.228-.907.824.824 0 0 0-.677-.412h.001zm33.009.238a.681.681 0 0 0-.114-.078.524.524 0 0 0-.252-.065.816.816 0 0 0-.5.194 1.866 1.866 0 0 0-.291.296 4.962 4.962 0 0 0-.707 1.363 12.01 12.01 0 0 0-.387 1.327c-.063.277-.12.56-.17.854a16.814 16.814 0 0 0-.235 2.776c-.002.469.023.937.074 1.403.012.105.026.207.042.305.039.266.097.529.175.787.042.139.095.275.158.406.175.356.398.554.663.554a.693.693 0 0 0 .295-.08c.133-.065.253-.153.354-.261.403-.422.77-1.209 1.055-2.188.07-.24.135-.49.194-.75a16.22 16.22 0 0 0 .393-3.53 8.015 8.015 0 0 0-.366-2.712 1.494 1.494 0 0 0-.38-.6h-.001zm48.405 5.575l.344-2.17c1.42-.113 2.45-.406 3.3-.92 1.033-.62 2.261-1.849 2.261-4.171a7.418 7.418 0 0 0-.912-3.573 3.556 3.556 0 0 0-3.301-1.828c-.075-1.893-1.641-3.39-3.55-3.394a33.932 33.932 0 0 0-5.263.39c-1.513.235-2.705 1.648-2.957 3.152-.014.085-4.022 0-6.722 0-2.072 0-3.173 1.025-3.173 1.025s-1.02-1.327-3.709-1.025a24.887 24.887 0 0 0-3.89.505c.276-1.627.435-3.27.478-4.92v-.177C87.01 1.654 85.43.042 83.45 0h-.002c-2.596 0-5.565.352-7.06.724a3.587 3.587 0 0 0-2.686 3.667c.084 1.526-.603 6.07-.603 6.07-1.67-1.385-3.865-2.176-6.395-2.176a14.12 14.12 0 0 0-6.596 1.596 3.584 3.584 0 0 0-2.734-1.233h-.002c-1.994 0-3.542-.026-5.018.1a3.51 3.51 0 0 0-2.757 1.683c-.036-.068-.073-.156-.111-.222a3.576 3.576 0 0 0-3.098-1.824c-2.667 0-7.273.783-7.472.876a11.661 11.661 0 0 0-5.027-1.01 13.797 13.797 0 0 0-7.288 1.963c-.36-5.375-5.017-9.036-11.578-9.036 0 0-8.035.3-9.484.616a3.522 3.522 0 0 0-2.784 3.695c.097 1.3.018 2.608-.234 3.889l-2.358 15.1c-.15.914-.59 3.631 1.125 5.642.69.811 1.975 1.778 4.168 1.778 1.04 0 3.695-.111 5.906-1.132a3.554 3.554 0 0 0 1.451-1.23c1.2 1.386 2.963 2.394 5.546 2.424a14.645 14.645 0 0 0 6.493-1.568 11.313 11.313 0 0 0 6.043 1.6c3.846 0 7.449-1.55 9.726-4.113 1.282 3.264 3.598 4.021 5.467 4.021 1.609 0 3.485-.17 5.368-1.115 1.55-.778 2.286-3.364 2.61-3.937 1.571 3.176 4.734 5.151 8.733 5.151a13.84 13.84 0 0 0 8.76-3.02c.17.295.366.574.588.833.816.95 2.37 2.085 5.138 2.085a9.685 9.685 0 0 0 5.516-1.605c.904.86 2.354 1.707 4.565 1.707a10.387 10.387 0 0 0 4.753-1.23c1.08.75 2.456 1.13 4.106 1.13 2.596 0 4.922-.9 6.47-2.451 1.275 1.255 3.498 2.552 7.252 2.552 3.493 0 6.93-2.216 8.697-5.205 1.356-2.292-.182-6.224-4.548-6.07l-.001.002zm-91.039-9.275c-.206 2.797-1.945 5.102-4.66 6.517l2.425 6.509c.707 1.78 1.112 2.495 1.92 3.065a4.98 4.98 0 0 1-.592.264c-1.22.41-2.5.612-3.787.598-1.247 0-2.998-.29-4.043-3.443l-1.853-5.31h-1.818l-.81 5.075a14.11 14.11 0 0 0-.184 1.715v.156c-.006.326.067.65.212.943l.007.014c-1.382.637-3.301.803-4.413.803-.96 0-1.853-.312-1.898-1.967a7.231 7.231 0 0 1 .112-1.354L6.032 9.94a19.61 19.61 0 0 0 .322-3.42 19.457 19.457 0 0 1-.322 3.401c.207-1.145.314-2.307.322-3.47-.002-.396.012-.56-.022-1.346h.033v.139c.79-.22 3.47-.495 5.915-.528.163-.003.294-.004.456-.004h2.29a10.595 10.595 0 0 1 4.71.979c.41.201.799.442 1.16.72.343.263.655.564.931.895.405.486.72 1.04.929 1.634a5.8 5.8 0 0 1 .322 1.94c0 .19-.008.379-.021.565v.007zm13.864.81a.044.044 0 0 1-.01-.026 7.761 7.761 0 0 0-1.71-.38c.59.06 1.17.188 1.73.38a.057.057 0 0 1-.01.027zm-2.942-.476h.004c-6.901 0-9.856 5.251-9.856 9.98 0-4.73 2.946-9.98 9.85-9.98h.002zm-1.886 9.765l-.05.004c-.218.017-.442.032-.67.042-.05.001-.098.005-.147.006-.26.01-.526.017-.801.017h-.068c.002.123.007.245.015.365.115 1.807.871 3.308 2.545 3.308.126 0 .251-.008.376-.022 1.586-.167 2.516-1.338 3.329-1.338a2.58 2.58 0 0 1 1.078.37l.809.537a9.934 9.934 0 0 1-7.613 3.624c-4.164 0-6.678-2.336-6.916-6.085-.004-.061.082-.124.078-.186-.005-.134.07-.265.07-.403v-.014c0-4.726 2.953-9.945 9.851-9.945a8.59 8.59 0 0 1 2.934.46.019.019 0 0 1-.003.005c1.659.6 2.62 1.762 2.62 3.367 0 1.89-1.215 5.362-7.437 5.888zm19.15 3.086a15.68 15.68 0 0 0-1.448 3.02c-1.144.604-2.426.704-3.706.704-1.078 0-2.054-.537-2.593-3.32l-1.583-7.92a22.29 22.29 0 0 0-1.483-4.663 14.327 14.327 0 0 1 1.725-.299h.004a29.8 29.8 0 0 1 .41-.047l.047-.005c.133-.013.271-.028.413-.04.015 0 .03-.003.044-.004.313-.027.642-.053.99-.074a56.098 56.098 0 0 1 .498-.025l.153-.007.373-.014c.06 0 .12-.003.181-.005l.388-.008.168-.003c.186-.003.375-.004.567-.004a10.412 10.412 0 0 1 .883 2.057c.118.38.205.77.262 1.163l1.045 7.213a94.355 94.355 0 0 0 2.492-5.268 27.482 27.482 0 0 0 1.288-3.646c.112-.415.21-.832.295-1.252a42.5 42.5 0 0 1 1.151-.08c.216-.012.43-.02.646-.028.161-.007.324-.016.485-.02.306-.012.61-.018.915-.023.064 0 .129-.004.193-.004a74.8 74.8 0 0 1 1.084-.01h.243a9.4 9.4 0 0 1-.843 3.086c-1.482 3.288-3.335 6.375-5.289 9.528l.002-.002zm19.61.038a9.657 9.657 0 0 1-2.453 2.213l-.056.037a9.73 9.73 0 0 1-.409.24c-.028.015-.052.03-.078.043a14.3 14.3 0 0 1-.418.216c-.024.012-.048.024-.072.034a9.644 9.644 0 0 1-.5.223 10.32 10.32 0 0 1-1.058.366c-.045.014-.09.025-.135.036a10.55 10.55 0 0 1-1.148.246c-.12.018-.24.035-.363.05-.068.008-.137.017-.206.024a9.17 9.17 0 0 1-.393.032l-.183.014c-.192.009-.385.015-.581.015-.237 0-.468-.01-.692-.03-.076-.006-.149-.018-.223-.027-.146-.017-.293-.033-.434-.056-.086-.015-.167-.037-.253-.055-.123-.026-.248-.052-.367-.083-.087-.025-.17-.054-.255-.081a5.043 5.043 0 0 1-.328-.111c-.085-.033-.168-.07-.249-.106-.1-.043-.2-.087-.295-.135-.081-.04-.16-.086-.238-.13a6.022 6.022 0 0 1-.267-.159 6.182 6.182 0 0 1-.464-.335 5.408 5.408 0 0 1-.802-.804 5.658 5.658 0 0 1-.174-.224 4.94 4.94 0 0 1-.162-.24c-.052-.082-.106-.161-.155-.247-.05-.085-.091-.168-.136-.254a4.852 4.852 0 0 1-.135-.27c-.04-.087-.075-.179-.11-.268-.04-.097-.08-.193-.114-.293-.032-.091-.058-.186-.086-.279-.03-.106-.065-.209-.092-.317-.022-.09-.038-.187-.058-.28a8.018 8.018 0 0 1-.175-1.724c0-3.536 1.62-6.503 4.176-8.295a9.752 9.752 0 0 1 1.335-.786c.45-.22.917-.405 1.396-.556l.067-.021c.234-.073.47-.136.712-.192l.091-.02c.223-.05.45-.093.68-.128.026-.004.052-.01.078-.013.239-.036.482-.063.726-.084l.159-.01a8.514 8.514 0 0 1 1.384-.001l.172.015c.165.017.327.039.486.065.04.007.084.012.123.02.187.035.369.077.546.126l.167.05a6.255 6.255 0 0 1 1.001.402c.06.031.117.066.175.099a5.875 5.875 0 0 1 .474.297 5.76 5.76 0 0 1 .547.444c.058.053.115.105.17.161.07.07.137.142.202.217.042.046.082.095.123.143.15.181.29.371.418.57 0 .002.003.004.004.006a5.414 5.414 0 0 1 .247.433 7.371 7.371 0 0 1 .78 3.433 10.185 10.185 0 0 1-2.118 6.343h-.004zm12.444-18.56a46.73 46.73 0 0 1-.383 2.686l-.715 4.541-1.778 11.295c-.02.129-.033.258-.037.388l-.002.086a2.14 2.14 0 0 0 .02.32c.003.023.01.042.013.063.014.076.034.15.06.222.009.028.017.054.027.079.03.071.068.14.112.204l.056.07c.034.041.071.08.111.115.022.019.042.04.064.055.25.171.55.257.853.245a3.568 3.568 0 0 1-.938.91c-.046.03-.09.062-.137.093a5.73 5.73 0 0 1-.28.164 5.443 5.443 0 0 1-.188.094c-.094.046-.185.092-.283.133a5.65 5.65 0 0 1-.476.174c-.073.022-.15.04-.223.06a6.25 6.25 0 0 1-.368.092c-.078.017-.156.03-.235.044a6.849 6.849 0 0 1-.42.06c-.069.008-.139.018-.208.023a6.68 6.68 0 0 1-.936.025l-.104-.007a9.263 9.263 0 0 1-.176-.013c-.042-.003-.084-.01-.126-.015a3.841 3.841 0 0 1-.29-.044c-.046-.009-.087-.016-.13-.026a4.124 4.124 0 0 1-.146-.036c-.039-.01-.076-.022-.114-.034a3.71 3.71 0 0 1-.15-.05c-.032-.011-.062-.024-.093-.037a2.9 2.9 0 0 1-.159-.069c-.019-.009-.037-.02-.056-.03a2.002 2.002 0 0 1-.695-.585c-.01-.014-.022-.026-.031-.04a2.03 2.03 0 0 1-.112-.181l-.033-.06a2.357 2.357 0 0 1-.182-.499c-.007-.026-.012-.054-.018-.08a2.969 2.969 0 0 1-.044-.258l-.006-.072a3.71 3.71 0 0 1-.02-.305 5.053 5.053 0 0 1 .065-.874l2.56-16.138c.034-.21.066-.411.095-.607.117-.732.193-1.471.228-2.212.023-.56.018-1.153-.02-1.844.095-.025.203-.048.321-.072.119-.023.247-.046.386-.07a20.867 20.867 0 0 1 1.062-.146 36.294 36.294 0 0 1 2.09-.178 39.63 39.63 0 0 1 2.34-.071c0 .528-.033 1.128-.09 1.764-.02.212-.042.428-.066.647h.005zm17.276 20.368c-.776 1.14-2.393 1.878-4.347 1.878-.206 0-.413-.008-.616-.027a4.37 4.37 0 0 1-.594-.1 2.894 2.894 0 0 1-.547-.188c-.858-.403-1.413-1.264-1.14-3.004l.035-.303a6.685 6.685 0 0 1-2.099 2.417 7.376 7.376 0 0 1-2.468 1.121c-.25.062-.503.109-.758.142a5.355 5.355 0 0 1-.672.044c-.145 0-.284-.008-.419-.021-.049-.005-.096-.013-.144-.019a3.75 3.75 0 0 1-.406-.079 3.064 3.064 0 0 1-.168-.05 2.413 2.413 0 0 1-.186-.064c-.03-.011-.058-.028-.088-.04-1.445-.636-1.889-2.36-1.519-4.625l1.01-6.44c.031-.187.057-.364.085-.538l.028-.199a29.923 29.923 0 0 0 .096-.776c.037-.349.064-.695.08-1.047l.005-.11a16.628 16.628 0 0 0 .012-.472c.002-.129.003-.258.002-.392a24.832 24.832 0 0 0-.036-1.132c.072-.017.151-.035.237-.053l.227-.045.104-.018.17-.03.124-.019.179-.027.136-.019.19-.027.15-.019.198-.024c.054-.006.108-.013.163-.018.068-.009.136-.016.205-.024l.177-.017.21-.02.186-.018c.072-.007.146-.013.22-.018l.19-.016.23-.017.195-.014.237-.014.197-.013.252-.013.19-.01.269-.01.183-.008c.093-.004.186-.006.28-.009l.18-.005.296-.006.164-.002c.154-.003.307-.003.46-.003.033 1.408-.237 3.32-.506 5.099l-.876 5.435c-.017.1-.032.2-.046.297-.015.106-.007.21-.019.314a6.663 6.663 0 0 0-.03.747v.009c-.011.275.001.551.038.825.021.143.065.282.129.412a.4.4 0 0 0 .214.2c.028.01.057.015.087.015.2 0 .511-.203.868-.575a8.595 8.595 0 0 0 1.363-1.994 11.552 11.552 0 0 0 .784-1.95c.053-.178.104-.361.15-.548l.472-3.087a42.382 42.382 0 0 0 .372-2.957 53.06 53.06 0 0 0 .134-1.907 9.5 9.5 0 0 1 .28-.04l.155-.02.106-.012.15-.016.122-.013.154-.016.142-.013.149-.014.167-.014.14-.01.195-.016c.037-.003.075.084.112.08.292-.02.603.03.93.03.1 0 .204-.098.308-.103.026 0 .05-.046.076-.048.102-.004.206-.03.31-.035.028-.002.056-.014.082-.015.102-.004.206-.013.31-.017.033 0 .066-.005.098-.006l.316-.011c.03 0 .06-.003.09-.004l.334-.008c.024 0 .048-.07.072-.07.119-.002.238-.075.358-.075.287 0 .577.061.87.061a44.962 44.962 0 0 1-.54 5.134l-1.212 7.634c-.201 1.24.304 1.862 1.247 1.862zm3.515-2.057a5.072 5.072 0 0 1 .066-1.096l1.28-7.95c-.23.032-.358.051-.486.071a25.825 25.825 0 0 0-1.197.234 11.756 11.756 0 0 1 .012-3.452c.275-.013.491-.03.886-.047.202-.007.311-.014.425-.018.124-.006.244.01.371.007.135-.005.271.014.41.014.1 0 .234-.028.33-.028.437-1.193 1.145-2.19 1.381-3.598a26.567 26.567 0 0 1 1.942-.238 34.03 34.03 0 0 1 2.733-.11c-.034 1.074-.17 2.4-.372 3.972h1.111c1.752 0 2.446-.216 3.018-.618a3.83 3.83 0 0 1 .492 1.83c-.002.856-.27 1.46-3.006 1.533a26 26 0 0 1-.605.007h-1.481l-1.248 7.918-.03.243a4.78 4.78 0 0 0-.01.236c-.02 1.09.5 1.94 1.354 1.94 1.315 0 1.619-1.042 2.123-1.042.4.028.786.167 1.11.403l.808.501c-.907 1.712-3.13 3.323-5.556 3.323-3.627.001-5.73-1.591-5.861-4.035z"/></g></svg>