<svg xmlns="http://www.w3.org/2000/svg" viewBox="0 0 2500 768"><path d="M0 0h2500v768H0z" fill="#fff" fill-rule="evenodd"/><path d="M283.35 445.66c-4.45-13.28-18.33-22.25-33.19-22.25h-70.1a35.23 35.23 0 0 0 0 70.45l55.12.05-80 80A35.232 35.232 0 0 0 205 623.74l81.11-81.12-.62 56.21a34.58 34.58 0 0 0 34.8 35.22 35.22 35.22 0 0 0 35.22-35.22v-70.1a35.28 35.28 0 0 0-23.18-33.11s-36-12.93-49-50zm109.41 50c-13.28 4.47-22.24 18.34-22.24 33.22V599a35.23 35.23 0 0 0 70.44 0v-55.1l80 80a35.23 35.23 0 1 0 49.82-49.82l-81.12-81.12 56.21.61a34.56 34.56 0 0 0 35.23-34.78 35.22 35.22 0 0 0-35.21-35.23h-70.07a35.21 35.21 0 0 0-33.1 23.17s-12.94 35.94-50 49zm50.31-109.45c4.48 13.29 18.33 22.25 33.21 22.25h70.1a35.23 35.23 0 0 0 0-70.45h-55.11l80-80a35.232 35.232 0 1 0-49.82-49.83l-81.11 81.13.61-56.21a34.57 34.57 0 0 0-34.77-35.23A35.23 35.23 0 0 0 371 233v70.09a35.24 35.24 0 0 0 23.16 33.11s35.92 12.99 48.91 50.01zm-110.32-49.42c13.28-4.46 22.26-18.32 22.26-33.2v-70.1a35.23 35.23 0 1 0-70.45 0v55.12l-80-80a35.23 35.23 0 0 0-49.82 49.82l81.11 81.11-56.21-.61a34.56 34.56 0 0 0-35.21 34.77 35.22 35.22 0 0 0 35.21 35.24h70.1a35.23 35.23 0 0 0 33.1-23.16s12.93-36 50-49zm360.72-101.1H640v-32.94h146.1v32.94h-53.43V381h-39.2V235.7zm105.3-32.94h35.46v67.16h.77a45.34 45.34 0 0 1 37.7-21.47c37.69 0 47.19 21.22 47.19 53.18V381h-35.48v-72.9c0-21.2-6.25-31.69-22.72-31.69-19.23 0-27.46 10.74-27.46 36.95V381h-35.46V202.75zM969 325.07c1 22.48 12 32.71 31.7 32.71 14.24 0 25.71-8.76 28-16.75h31.2c-10 30.46-31.2 43.45-60.42 43.45-40.7 0-65.9-28-65.9-67.89 0-38.72 26.71-68.16 65.9-68.16 44 0 65.16 37 62.69 76.64zm57.68-22.48c-3.26-18-11-27.45-28.21-27.45-22.48 0-29 17.48-29.46 27.45zm93.06-99.84h96.13c31.94 0 52.19 22.22 52.19 49.18 0 21-8.51 36.69-28.22 44.68v.51c19.2 5 24.73 23.72 26 41.68.74 11.24.51 32.21 7.5 42.19h-39.21c-4.75-11.23-4.25-28.44-6.24-42.68-2.75-18.71-10-27-29.71-27h-39.2V381h-39.2V202.75zm39.2 80.62h42.95c17.48 0 27-7.48 27-25.46 0-17.22-9.48-24.71-27-24.71h-42.95v50.17zm186.73-34.94c40.69 0 66.9 27 66.9 68.16 0 40.93-26.21 67.89-66.9 67.89-40.45 0-66.68-27-66.68-67.89.01-41.2 26.2-68.16 66.65-68.16zm0 109.36c24.21 0 31.44-20.72 31.44-41.19 0-20.73-7.23-41.45-31.44-41.45-24 0-31.21 20.72-31.21 41.45-.03 20.47 7.18 41.19 31.18 41.19zm146.49 39.44c-7.75 20.7-20 29.2-44.46 29.2a211.14 211.14 0 0 1-21.71-1.25V396c6.74.5 13.74 1.48 20.73 1.25 12.23-1.25 16.21-14 12.23-24.23l-45.45-121.08h38l29.21 88.36h.5l28.23-88.36h36.7l-53.93 145.32zm139.75-79.39c-6 5.24-18.49 5.48-29.45 7.49-11 2.24-21 6-21 19 0 13.24 10.23 16.47 21.71 16.47 27.71 0 28.72-22 28.72-29.7v-13.22zM1550 291.61c2-33.19 31.69-43.18 60.67-43.18 25.71 0 56.67 5.73 56.67 36.69v67.17c0 11.74 1.24 23.46 4.51 28.7h-36a53.59 53.59 0 0 1-2.51-12.47c-11.22 11.74-27.69 16-43.42 16-24.47 0-44-12.23-44-38.71 0-29.19 22-36.19 44-39.18 21.71-3.25 41.94-2.5 41.94-17 0-15.23-10.49-17.49-23-17.49-13.48 0-22.22 5.5-23.49 19.47H1550zm137.55-88.86H1723V381h-35.44zm139.2 147.79h41.94c15.48 0 29-5 29-23.47 0-18.23-11.51-25.48-28.22-25.48h-42.71v49zm-39.2-147.79h83.91c33.94 0 56.89 11 56.89 44.18 0 17.49-8.74 29.71-24.18 37.21 21.71 6.23 32.69 23 32.69 45.18 0 36.2-30.72 51.67-62.93 51.67h-86.38V202.75zm39.2 72.15h39.7c13.73 0 24-6.25 24-21.22 0-17-13-20.46-27-20.46h-36.71v41.68zm204.92 42.94c-6 5.24-18.47 5.48-29.45 7.49-11 2.24-21 6-21 19 0 13.24 10.23 16.47 21.71 16.47 27.74 0 28.72-22 28.72-29.7v-13.22zm-81.89-26.23c2-33.19 31.71-43.18 60.67-43.18 25.71 0 56.69 5.73 56.69 36.69v67.17c0 11.74 1.25 23.46 4.49 28.7h-36a52.53 52.53 0 0 1-2.48-12.47c-11.22 11.74-27.72 16-43.45 16-24.47 0-44-12.23-44-38.71 0-29.19 22-36.19 44-39.18 21.74-3.25 41.94-2.5 41.94-17 0-15.23-10.49-17.49-23-17.49-13.48 0-22.22 5.5-23.47 19.47h-35.47zm137.8-39.68h33.7v18h.77c9-14.48 24.47-21.47 39.44-21.47 37.71 0 47.19 21.22 47.19 53.18V381h-35.43v-72.9c0-21.2-6.25-31.69-22.72-31.69-19.25 0-27.49 10.74-27.49 36.95V381h-35.44V251.93zm140.49-49.18h35.46v95.61l44.7-46.43h41.91l-48.66 47.43 54.16 81.63h-42.94l-35.46-57.67-13.71 13.24V381h-35.46V202.75zM724.67 489c40.7 0 66.9 27 66.9 68.16 0 41-26.21 67.91-66.9 67.91-40.45 0-66.65-27-66.65-67.91C658 516 684.22 489 724.67 489zm0 109.36c24.22 0 31.47-20.71 31.47-41.2 0-20.71-7.25-41.44-31.47-41.44-24 0-31.22 20.74-31.22 41.44 0 20.48 7.24 41.19 31.22 41.19zm93.06-82.15H796.5v-23.72h21.23v-10c0-22.71 14.23-39.18 43.2-39.18 6.23 0 12.73.77 18.73 1v26.46a110.38 110.38 0 0 0-13-.74c-9.5 0-13.49 4-13.49 14.73v7.73h24.47v23.72h-24.45v105.36h-35.45V516.2zm148.7 46.19c0 23.72 18.47 33 39.44 33 13.75 0 34.71-4 34.71-22.23 0-19.21-26.71-22.46-52.92-29.46-26.46-7-53.19-17.21-53.19-50.66 0-36.45 34.45-53.94 66.68-53.94 37.18 0 71.4 16.24 71.4 57.42h-38c-1.25-21.46-16.49-27-35.2-27-12.48 0-27 5.24-27 20.22 0 13.76 8.49 15.48 53.18 27 13 3.26 52.94 11.51 52.94 52 0 32.69-25.72 57.15-74.16 57.15-39.45 0-76.4-19.46-75.9-63.42h37.94zm213.68-24.46c-2.26-14.48-11.5-22.23-26.22-22.23-22.71 0-30.2 23-30.2 41.94 0 18.48 7.23 40.7 29.44 40.7 16.48 0 26-10.49 28.21-26.21h34.21c-4.49 34.2-28.21 52.92-62.16 52.92-39 0-65.16-27.47-65.16-66.18 0-40.19 24-69.9 65.91-69.9 30.45 0 58.42 16 60.67 48.93h-34.7zM1292.93 489c40.71 0 66.92 27 66.92 68.16 0 41-26.21 67.91-66.92 67.91-40.44 0-66.65-27-66.65-67.91 0-41.16 26.2-68.16 66.65-68.16zm0 109.36c24.21 0 31.46-20.71 31.46-41.2 0-20.71-7.25-41.44-31.46-41.44-24 0-31.21 20.74-31.21 41.44-.01 20.48 7.28 41.19 31.21 41.19zm126.52-105.87h26v23.72h-26v63.92c0 12 3 15 15 15a55.32 55.32 0 0 0 11-1v27.72a134.72 134.72 0 0 1-20.73 1.26c-21.74 0-40.69-5-40.69-30.72v-76.14h-21.47V492.5H1384v-38.69h35.44v38.67zm39.91-49.18h35.46v178.27h-35.46zm136.75 115.1c-6 5.23-18.49 5.49-29.48 7.5-11 2.24-21 6-21 18.95 0 13.25 10.24 16.49 21.72 16.49 27.71 0 28.72-22 28.72-29.7V558.4zm-81.89-26.2c2-33.22 31.71-43.21 60.67-43.21 25.71 0 56.67 5.76 56.67 36.71v67.17c0 11.74 1.24 23.47 4.49 28.7h-35.94a51.06 51.06 0 0 1-2.48-12.48c-11.25 11.73-27.72 16-43.45 16-24.47 0-44-12.23-44-38.69 0-29.22 22-36.2 44-39.19 21.71-3.23 41.94-2.48 41.94-17 0-15.23-10.49-17.48-23-17.48-13.5 0-22.24 5.49-23.48 19.48zm137.8-39.72h33.7v18h.76c9-14.49 24.48-21.48 39.45-21.48 37.69 0 47.19 21.24 47.19 53.19v79.39h-35.46V548.7c0-21.23-6.22-31.7-22.72-31.7-19.19 0-27.46 10.73-27.46 37v67.65h-35.43v-129.1zm234.34 112.62h-.48c-8.26 14-22.72 20-39.21 20-38.93 0-57.93-33.45-57.93-69.14 0-34.71 19.25-66.93 57.19-66.93 15.23 0 30.2 6.49 38.46 19.24h.22V443.3h35.46v178.26h-33.72V605.1zm-30.94-89.4c-23.23 0-31.21 20-31.21 41.2 0 20.24 9.25 41.44 31.21 41.44 23.48 0 30.47-20.46 30.47-41.7 0-21-7.5-40.94-30.47-40.94z" fill="#1a3b73" fill-rule="evenodd"/></svg>