<svg xmlns="http://www.w3.org/2000/svg" viewBox="0 0 1856.04 373.62"><path d="M214 0c-1.3 11.51-.76 23.86 2.56 33.83 4.46 13.43 10.62 23.1 33.34 52.66 24 31.18 31.64 42.48 37.34 58.65C292 158.36 292 166 290 178c21 4 55.42 15.15 78.49 29 21.4 13.16 37 30.22 42.66 46.78 3.37 9.79 3.23 25-.34 34.47a73.17 73.17 0 0 1-15.1 24.34c-27.62 30.25-82.31 52-148.19 58.91-14.52 1.5-50.24 2.6-62.52 1.89-88-5.12-158.76-35.52-178.9-76.84-8.38-17.18-8.17-32 .65-49 7.28-14 27.23-31.33 50.69-44a399.14 399.14 0 0 1 66.47-25.38c1.1 14.83 30 50.27 39.56 62.82 20.86 27.3 29.11 40.32 35 50.75C202 298 204 302 203 313.92c0 0 8-7.26 11.06-13.43 3.91-8 5.31-16.09 4.56-26.5-.91-12.54-3-20.23-9-32.5-5.83-11.94-14.18-24-30.07-43.5-22.42-27.53-30.73-42.65-34.15-62.28-3.8-21.8 2.32-45 14.87-56.25a44.84 44.84 0 0 1 7.13-4.85s-.38 5.62-.38 12c0 13.5 1.54 20.53 6.72 30.81 6.43 12.77 15.33 24.71 42.63 57.19C240.53 203.36 248 218 248 236.21V245s6.38-4.87 9.34-9.33c9.36-14.13 10.84-36.18 3.72-55.72-4.89-13.38-12.81-25.57-36.22-55C201 95 191 71 191 51s4.38-39.08 23-51zm447.79 294.5a65.89 65.89 0 0 0-.7-16.76c-2.87-13.79-13-27.64-27.77-37.83-4.46-3.09-17.88-10-31.75-16.45C573.76 210.6 566 206 559 198.21s-9.29-14.36-9.35-25.21c-.05-7.22.36-9.4 2.7-14.5 7.65-16.5 26.49-25.25 48.44-22.5 13 1.64 19.73 4.53 27.36 11.67 8 7.46 12 16.11 14.24 30.3l.65 8h12l-1-55-4-1c-3-.76-22.95-4.55-33.5-5.88-15.75-2-22.14-2.22-31.4-1.15-18 2.07-32.82 8.89-44 20.2-11.42 11.52-17 23.75-17.82 39.33-.88 16 4.22 29.21 15.64 40.55 9.58 9.52 13.66 12 43.27 26.06 37.89 18 46.47 23.35 52.21 36.89 5 11.75 5.35 24.95.19 35.5-13.2 27-54.72 34-80.57 13.68a53.34 53.34 0 0 1-19-30.93l-1.28-6.22h-10.24l1.83 52.66s19.68 5.29 28.85 6.26c6.94.74 13.85 2.08 20.82 2.08 14 0 20.49 1.84 35-3 15-5 48-15 51.75-61.5zM754 208c16 0 30 7 36.65 17.33C797 235.1 797 243.49 797 249v76c0 9 6.52 11.9 15.93 8.74L820 331v10l-35 15.3c-4.06 1.81-6.84-2.33-8.78-10L774 339l-5.82 4.55C760 350 749 356 733 356c-15.1.07-25-2-34.82-17.67-4.6-9.05-5.09-21.23-1.22-30 4.5-10.17 13.4-15.39 50.78-29.84L773 269v-7c0-26-7-34-16-39-7.24-4-16.84-3-26 3-7.57 4.95-9.87 13.29-6 21.86 3 6.62 2 4.54 2 4.75l-20.5 10.84s-3.55-6.07-4.56-9.4c-4.72-15.46 1.34-24.18 24.53-36.94C738.6 210.44 745.73 208 754 208zm19 72s-32.91 13.89-39.23 17.11c-5 2.57-10.84 7.16-12.77 10.89-2.51 4.85-2.09 13.72 1 19 2.9 4.95 6.42 9 11 11a38 38 0 0 0 11 2c7.81 0 16-3.22 24.43-10.2L773 326zm103-72v26.91l6.88-6.5C897.82 214.32 912 208 923 208c25 0 48 22 47 53v72c0 8 2 13 10 13h13v10h-69v-10h10c8 0 11-5 11-13v-72c0-15-5.5-22.5-10-27-6-6-13.29-7.69-24-7-8.32.53-16.84 4.93-26.62 12.84L878 245v93c0 5 2 8 7 8h13v10h-68v-10h9c8 0 14-5 14-13v-77c0-20-6-26-23-17v-10.69C841 225 861 215 872 208zm193 148c9 0 11.12-1 19.5-8.08L1105 334l-4-7-7.36 3.92c-11 5.85-19.64 7.08-30.64 2.08-9.37-4.26-15-19-15-27v-81h46l5-14h-51v-46h-5c-12 22-30 43-52 56v4h32v81c0 19 7 33 18 41 10.48 7.59 17 9 28 9zm106-148c16 0 30 7 36.65 17.33 6.35 9.77 6.35 18.16 6.35 23.67v76c0 9 6.52 11.9 15.93 8.74L1241 331v10l-35 15.3c-4.06 1.81-6.84-2.33-8.78-10L1195 339l-5.82 4.55C1181 350 1170 356 1154 356c-15.1.07-25-2-34.82-17.67-4.6-9.05-5.09-21.23-1.22-30 4.5-10.17 13.4-15.39 50.78-29.84L1194 269v-7c0-26-7-34-16-39-7.24-4-16.84-3-26 3-7.57 4.95-9.87 13.29-6 21.86 3 6.62 2 4.54 2 4.75l-20.53 10.84s-3.55-6.07-4.56-9.4c-4.72-15.46 1.34-24.18 24.53-36.94 12.13-6.67 19.26-9.11 27.57-9.11zm19 72s-32.91 13.89-39.23 17.11c-5 2.57-10.84 7.16-12.77 10.89-2.51 4.85-2.09 13.72 1 19 2.9 4.95 6.42 9 11 11a38 38 0 0 0 11 2c7.81 0 16-3.22 24.43-10.2l4.57-3.8zm103-72v26.91l6.88-6.5C1318.82 214.32 1333 208 1344 208c25 0 48 22 47 53v72c0 8 2 13 10 13h13v10h-69v-10h10c8 0 11-5 11-13v-72c0-15-5.5-22.5-10-27-6-6-13.29-7.69-24-7-8.32.53-16.84 4.93-26.62 12.84L1299 245v93c0 5 2 8 7 8h13v10h-68v-10h9c8 0 14-5 14-13v-77c0-20-6-26-23-17v-10.69c11-3.31 31-13.31 42-20.31zm297 131v-10c-11 5-16 5-19.76 2.45-5.35-3.64-5.24-10.45-5.24-10.45V101h-3c-14.47 9.18-32 18-47 23v11c8-3 14-4.58 19-2 3.28 1.8 5 4 5 9v74.77l-5.87-2.37c-11.78-4.76-17.87-5.87-32.13-5.84-11.93 0-14.43.34-21.52 2.7-32.88 11-53.92 43.1-52.19 79.68 1 20.92 7.05 37.35 20.71 49.06 14 12 26 16 40 16 19 0 30-3.79 43.78-13.13C1540 340 1544 337 1544 337c1 10 3.44 16 7 21zm-103.67-1.79c-18.68-6.67-32.26-29.71-34-57.71-2.2-35 17.2-59.5 47.11-59.5 12.56 0 22.21 3.44 33.83 12.07l5.76 4.28-.52 89.87-6.41 3.88c-10.9 6.59-16.17 8.14-29.09 8.57-9.34.31-12.47 0-16.67-1.46zm211.17 17.29c8.31-2.2 19.5-6.5 32.5-14.5v-10c-11 8-28.43 13-44 13-16.89 0-30-5-39-15-13.28-14.75-17-27-19.29-57H1737s0-15-6-29c-4.11-9.6-8-17-19-24-10.3-6.55-24.2-9.33-36-9.41-12.27-.08-14.17.16-20.83 2.59-31.13 11.36-52.32 43.61-49.73 75.67 2.52 31 20.64 55.87 48 65.85 12.11 4.42 35 5.27 48.07 1.8zM1644 231c7-7 15-11 28-11 12 0 20 3 28 11 6 6 9 11 10.28 28h-78.55c1.27-12 5.27-21 12.27-28zm152-23v33c5.26-9.05 10-15 19-24 7-6.94 16-9 23-9 5 0 18 4 18 4v30h-5c-2-8-9-12-19-12-13 0-21.5 5.25-26.75 13.13S1798 255 1798 272v66c0 5 2 8 7 8h13v10h-68v-10h9c8 0 14-5 14-13v-77c0-22-8-21-22-15v-10c13-5 29-12 41-23z" fill="red"/></svg>