<svg viewBox="0 0 185 48" xmlns="http://www.w3.org/2000/svg"><g fill="none" fill-rule="evenodd"><path d="M66.31 28.32c2.77 0 4.854.954 4.854 3.529 0 1.334-.861 2.445-2.001 2.76 1.231.362 2.297 1.482 2.297 2.973 0 2.584-1.899 3.705-4.854 3.705h-5.325V28.32h5.029zm18.399 0l5.122 12.967H87.58l-1.278-3.307H80.43l-1.278 3.307h-2.177l5.122-12.967h2.612zm13.324 0l7.242 9.383V28.32h2.094v12.967h-1.89l-7.233-9.383-.01 9.383h-2.093V28.32h1.89zm19.224 0v5.455h1.278l4.872-5.455h2.704l-5.835 6.326 6.234 6.641h-2.844l-5.158-5.529h-1.251v5.529h-2.093V28.32h2.093zm-50.744 7.409h-3.139v3.594h3.139c1.65 0 2.751-.314 2.751-1.815 0-1.463-1.101-1.779-2.751-1.779zm16.853-5.325l-2.167 5.594h4.334l-2.167-5.594zm-17.14-.12h-2.852v3.491h2.871c1.454 0 2.723-.221 2.723-1.768 0-1.491-1.288-1.723-2.742-1.723zm-.09-23.949c1.889 0 3.38.528 4.687 1.398l-1.065 1.696c-1.103-.704-2.326-1.112-3.64-1.112-1.733 0-2.918.75-2.918 1.936 0 1.074 1.01 1.491 2.695 1.732l.899.12c2.102.287 4.176 1.159 4.176 3.566 0 2.641-2.389 4.085-5.195 4.085-1.76 0-3.872-.583-5.215-1.741l1.14-1.667c.889.814 2.565 1.425 4.065 1.425 1.696 0 3.03-.721 3.03-1.917 0-1.018-1.02-1.491-2.918-1.75l-1.01-.139c-1.927-.269-3.844-1.176-3.844-3.584 0-2.603 2.307-4.048 5.113-4.048zm111.768-.019c2.066 0 3.844.779 5.021 2.094l-1.538 1.491c-.815-.972-2.038-1.575-3.483-1.575-2.649 0-4.594 1.918-4.594 4.715 0 2.797 1.945 4.714 4.501 4.714 2.363 0 3.751-1.222 4.085-3.362h-3.436v-1.945h5.705c.01.167.018.333.018.5 0 3.724-2.361 6.808-6.372 6.808-3.343 0-6.696-2.39-6.696-6.715 0-3.899 2.853-6.725 6.789-6.725zm-32.893.242v12.967h-2.094V6.558h2.094zm-57.875 0V8.54h-4.195v10.984h-2.093V8.54h-4.196V6.558h10.484zm11.71 0l5.123 12.966h-2.251l-1.278-3.306h-5.873l-1.277 3.306h-2.177l5.122-12.966h2.611zm16.769 0c2.982 0 4.595 1.334 4.595 3.751 0 2.204-1.687 3.667-4.326 3.76l4.27 5.455h-2.594l-4.131-5.455h-1.055v5.455h-2.094V6.558h5.335zm13.74 0v10.984h7.178v1.982h-9.271V6.558h2.093zm25.333 0l7.242 9.382V6.558h2.094v12.966h-1.889l-7.234-9.382-.01 9.382h-2.092V6.558h1.889zM97.504 8.642l-2.167 5.593h4.334l-2.167-5.593zm18.055-.121h-3.185v3.649h3.185c1.687 0 2.474-.611 2.474-1.861 0-1.232-.834-1.788-2.474-1.788z" fill="#FFF"/><path class="site-logo-coin" d="M46.824 24c0 12.796-10.373 23.17-23.17 23.17C10.858 47.17.485 36.796.485 24 .485 11.204 10.858.83 23.654.83c12.797 0 23.17 10.374 23.17 23.17" fill="#7433FF"/><path class="site-logo-curve1" d="M16.681 23.955h2.834c0-6.135 4.973-11.108 11.108-11.108v-2.834c-7.7 0-13.942 6.242-13.942 13.942" fill="#FFF"/><path class="site-logo-curve2" d="M30.628 23.955h-2.835c0 6.137-4.975 11.111-11.112 11.111v2.836c7.703 0 13.947-6.245 13.947-13.947" fill="#FFF"/></g></svg>