<svg width="180" height="117" xmlns="http://www.w3.org/2000/svg"><g fill="#043751" fill-rule="nonzero"><path d="M176.484 30.34c1.942 0 3.516-1.582 3.516-3.535V3.535C180 1.583 178.426 0 176.484 0H157.5c-3.127 0-5.782 2.065-6.693 4.91h-49.47c-.037-.019-.072-.04-.11-.057-9.546-4.362-20.03-5.6-30.32-3.58L42.508 6.846H29.52C29.4 3.052 26.301 0 22.5 0H3.516C1.574 0 0 1.583 0 3.535v22.728c0 1.952 1.574 3.535 3.516 3.535 1.941 0 3.515-1.583 3.515-3.535V7.071H22.5v67.025H7.031V55.253c0-1.953-1.574-3.536-3.515-3.536C1.574 51.717 0 53.3 0 55.253V77.63c0 1.952 1.574 3.535 3.516 3.535H22.5c3.877 0 7.031-3.171 7.031-7.07v-.039a13.053 13.053 0 0 1 4.472 2.255l1.642 1.279a11.223 11.223 0 0 0 3.995 7.43 11.092 11.092 0 0 0 7.854 2.531 11.18 11.18 0 0 0 3.982 7.272 11.09 11.09 0 0 0 7.854 2.532 11.182 11.182 0 0 0 3.982 7.273 11.063 11.063 0 0 0 7.09 2.567c.255 0 .512-.012.77-.03a11.22 11.22 0 0 0 3.975 7.267 11.063 11.063 0 0 0 8.186 2.514 11.09 11.09 0 0 0 7.556-4.044l2.859-3.49a11.203 11.203 0 0 0 1.891-3.346 11.517 11.517 0 0 0 5.465 1.369l.17-.002a11.535 11.535 0 0 0 8.184-3.547 11.648 11.648 0 0 0 2.532-4.002l1.213 1.186a11.569 11.569 0 0 0 8.113 3.306c3.037 0 6.072-1.185 8.35-3.543a11.638 11.638 0 0 0 2.732-4.581 11.604 11.604 0 0 0 5.178 1.218c3.037 0 6.071-1.184 8.35-3.542a11.665 11.665 0 0 0 3.292-8.327 11.658 11.658 0 0 0-3.524-8.226l-2.442-2.394 7.217-3.917v3.03c0 3.9 3.154 7.071 7.031 7.071h18.984c1.942 0 3.516-1.583 3.516-3.535V54.192c0-1.952-1.574-3.535-3.516-3.535-1.941 0-3.515 1.583-3.515 3.535v19.904H157.5V65.16 7.071h15.469v19.734c0 1.953 1.574 3.536 3.515 3.536zM52.814 75.505l-2.86 3.49a4.14 4.14 0 0 1-5.843.568 4.195 4.195 0 0 1-.565-5.876l2.859-3.49a4.116 4.116 0 0 1 3.211-1.521c.96 0 1.882.331 2.632.953a4.196 4.196 0 0 1 .565 5.876zm11.834 9.805L61.79 88.8a4.14 4.14 0 0 1-5.844.568 4.153 4.153 0 0 1-1.493-2.82 4.163 4.163 0 0 1 .928-3.056l2.86-3.49a4.115 4.115 0 0 1 3.211-1.522c.96 0 1.882.332 2.632.953a4.154 4.154 0 0 1 1.493 2.821 4.165 4.165 0 0 1-.929 3.056zm11.837 9.803l-2.86 3.49a4.115 4.115 0 0 1-2.804 1.501 4.1 4.1 0 0 1-3.04-.932 4.155 4.155 0 0 1-1.492-2.821 4.164 4.164 0 0 1 .928-3.056l2.859-3.49a4.136 4.136 0 0 1 5.844-.568 4.195 4.195 0 0 1 .565 5.876zm11.835 9.805l-2.86 3.49a4.116 4.116 0 0 1-2.804 1.501 4.1 4.1 0 0 1-3.04-.933 4.195 4.195 0 0 1-.564-5.877l2.859-3.49a4.116 4.116 0 0 1 3.212-1.52c.96 0 1.882.331 2.632.953a4.153 4.153 0 0 1 1.493 2.82 4.163 4.163 0 0 1-.928 3.056zM140.883 89a4.598 4.598 0 0 1-6.521.094l-11.656-11.392c-.013-.013-.027-.023-.04-.035l-11.483-11.222a3.502 3.502 0 0 0-4.971.07 3.55 3.55 0 0 0 .07 5l18.247 17.833a4.661 4.661 0 0 1 .094 6.557 4.598 4.598 0 0 1-6.521.094L99.855 78.167c-.037-.036-.077-.067-.115-.101l-8.767-8.567a3.502 3.502 0 0 0-4.971.07 3.55 3.55 0 0 0 .071 5L104.32 92.4a4.661 4.661 0 0 1 .093 6.558 4.569 4.569 0 0 1-3.241 1.405 4.56 4.56 0 0 1-3.28-1.312l-5.11-4.994a3.534 3.534 0 0 0-.362-.304c-.066-.057-.129-.115-.196-.17a11.1 11.1 0 0 0-7.86-2.533 11.22 11.22 0 0 0-3.975-7.272 11.098 11.098 0 0 0-7.854-2.532 11.182 11.182 0 0 0-3.982-7.272 11.063 11.063 0 0 0-7.86-2.537 11.22 11.22 0 0 0-3.975-7.268 11.074 11.074 0 0 0-8.186-2.513 11.09 11.09 0 0 0-7.555 4.044l-2.86 3.49c-.24.293-.462.595-.668.904a20.147 20.147 0 0 0-7.919-3.281V13.916h13.317c.226 0 .451-.022.673-.065l28.732-5.638a42.722 42.722 0 0 1 14.615-.333 33.756 33.756 0 0 0-9.907 6.85L50.342 41.214c-4.827 4.802-4.914 12.703-.195 17.612a12.414 12.414 0 0 0 8.962 3.82c2.094 0 4.204-.53 6.123-1.62L93.126 45.18h9.63l38.033 37.264a4.617 4.617 0 0 1 1.397 3.26A4.616 4.616 0 0 1 140.883 89zm9.586-25.97l-12.496 6.781-25.14-24.633h2.468c1.942 0 3.516-1.583 3.516-3.535 0-1.952-1.574-3.535-3.516-3.535H92.2c-.605 0-1.2.157-1.728.457L61.773 54.87a5.405 5.405 0 0 1-6.571-.959c-2.056-2.138-2.018-5.58.085-7.672l26.618-26.484c5.039-5.013 11.718-7.774 18.806-7.774h49.757v51.05z"/><path d="M178.975 38.026A3.512 3.512 0 0 0 176.5 37c-.92 0-1.823.371-2.475 1.026A3.52 3.52 0 0 0 173 40.5c0 .92.375 1.824 1.025 2.474A3.528 3.528 0 0 0 176.5 44c.92 0 1.823-.374 2.475-1.026A3.533 3.533 0 0 0 180 40.5a3.52 3.52 0 0 0-1.025-2.474zM5.974 38.026A3.512 3.512 0 0 0 3.5 37c-.92 0-1.823.371-2.474 1.026A3.52 3.52 0 0 0 0 40.5c0 .92.374 1.82 1.026 2.474A3.526 3.526 0 0 0 3.5 44c.92 0 1.824-.374 2.474-1.026A3.533 3.533 0 0 0 7 40.5a3.52 3.52 0 0 0-1.026-2.474z"/></g></svg>