<svg width="149" height="195" xmlns="http://www.w3.org/2000/svg"><g fill="#043751" fill-rule="nonzero"><path d="M74.5 110c-7.995 0-14.5 6.612-14.5 14.738 0 6.8 4.555 12.536 10.726 14.229v21.197c0 2.118 1.69 3.836 3.774 3.836s3.774-1.718 3.774-3.836v-21.197C84.444 137.274 89 131.538 89 124.738 89 116.612 82.496 110 74.5 110zm0 21.804c-3.833 0-6.952-3.17-6.952-7.066s3.119-7.066 6.952-7.066c3.834 0 6.952 3.17 6.952 7.066s-3.118 7.066-6.952 7.066z"/><path d="M126.192 69.229h-8.588V43.045C117.604 19.31 98.267 0 74.5 0 50.732 0 31.396 19.31 31.396 43.045v26.183h-8.588C10.232 69.228 0 79.444 0 92.002v80.221C0 184.783 10.232 195 22.808 195h103.384C138.768 195 149 184.782 149 172.223V92.002c0-12.558-10.232-22.773-22.808-22.773zM39.053 43.045c0-19.519 15.901-35.398 35.447-35.398 19.545 0 35.446 15.88 35.446 35.398v26.183H99.15V43.045c0-13.575-11.058-24.62-24.65-24.62-13.59 0-24.649 11.044-24.649 24.62v26.183H39.053V43.045zm52.439 0v26.183H57.508V43.045c0-9.359 7.622-16.973 16.992-16.973 9.37 0 16.992 7.614 16.992 16.973zm49.85 129.178c0 8.342-6.796 15.13-15.15 15.13H22.808c-8.354 0-15.15-6.788-15.15-15.13V92.002c0-8.34 6.796-15.126 15.15-15.126H126.192c8.354 0 15.15 6.785 15.15 15.126v80.22z"/><path d="M132 106c-2.209 0-4 1.698-4 3.79v33.42c0 2.093 1.791 3.79 4 3.79s4-1.698 4-3.79v-33.42c0-2.093-1.791-3.79-4-3.79zM131.5 93c-4.663 0-4.67 8 0 8 4.663 0 4.67-8 0-8z"/></g></svg>