<svg width="143" height="143" xmlns="http://www.w3.org/2000/svg"><g fill="#043751" fill-rule="nonzero"><path d="M35.77 9.863a3.462 3.462 0 0 0-4.615.037l-9.616 8.8v-1.153c0-1.35-1.07-2.443-2.389-2.443-1.319 0-2.388 1.093-2.388 2.443v5.529l-3.983 3.645a2.483 2.483 0 0 0-.17 3.435 2.351 2.351 0 0 0 3.357.206l17.518-16.038L51 30.362a2.35 2.35 0 0 0 2.348.519 2.424 2.424 0 0 0 1.602-1.83 2.476 2.476 0 0 0-.763-2.33L35.77 9.863zM47.643 34c-1.302 0-2.357 1.074-2.357 2.4v16.8H21.714V36.4c0-1.326-1.055-2.4-2.357-2.4C18.055 34 17 35.074 17 36.4v18.324c.023 1.832 1.5 3.299 3.3 3.276h26.4c1.8.018 3.277-1.45 3.3-3.284V36.4c0-1.326-1.056-2.4-2.357-2.4zM33.5 62C24.387 62 17 69.387 17 78.5S24.387 95 33.5 95 50 87.613 50 78.5c-.01-9.108-7.392-16.49-16.5-16.5zM21.714 78.5a11.807 11.807 0 0 1 9.429-11.55v10.214l-8.722 5.23a11.621 11.621 0 0 1-.707-3.894zm3.136 7.936l8.285-4.97 6.854 6.854a11.673 11.673 0 0 1-15.139-1.884zm18.472-1.449l-7.465-7.463V66.95a11.765 11.765 0 0 1 7.465 18.037zM128.63 42.25v-8.13a3.744 3.744 0 0 0-3.739-3.745h-6.746a3.744 3.744 0 0 0-3.738 3.745v8.13h-4.74V27.359a4.11 4.11 0 0 0-4.101-4.11h-6.021a4.11 4.11 0 0 0-4.1 4.11v14.89h-4.741V16.126a4.745 4.745 0 0 0-4.741-4.75h-4.741a4.745 4.745 0 0 0-4.74 4.75V42.25H74.11a2.373 2.373 0 0 1-2.37-2.375v-28.5A2.373 2.373 0 0 0 69.37 9 2.373 2.373 0 0 0 67 11.375v28.5C67 43.81 70.184 47 74.111 47h54.519c1.309 0 2.37-1.063 2.37-2.375a2.373 2.373 0 0 0-2.37-2.375zm-42.667 0h-4.741V16.125h4.74V42.25zm18.963 0h-4.741V28h4.74v14.25zm18.963 0h-4.74v-7.125h4.74v7.125zM128.63 90.25H74.11a2.372 2.372 0 0 1-2.37-2.375v-3.767l7.806-7.82c.936-.901 2.415-.901 3.352 0l2.778 2.783a7.101 7.101 0 0 0 10.055 0l9.889-9.909c.936-.9 2.415-.9 3.352 0l2.778 2.786a7.115 7.115 0 0 0 10.055 0l8.5-8.517a2.378 2.378 0 0 0-.029-3.329 2.367 2.367 0 0 0-3.323-.029l-8.5 8.515a2.367 2.367 0 0 1-3.352 0l-2.778-2.784a7.271 7.271 0 0 0-10.055 0l-9.889 9.909a2.367 2.367 0 0 1-3.352 0l-2.775-2.784a7.274 7.274 0 0 0-10.058 0l-4.453 4.463V59.375A2.373 2.373 0 0 0 69.37 57 2.373 2.373 0 0 0 67 59.375v28.5C67 91.81 70.184 95 74.111 95h54.519c1.309 0 2.37-1.063 2.37-2.375a2.373 2.373 0 0 0-2.37-2.375z"/><path d="M142.985 110.715v-97.5c.332-6.93-4.988-12.83-11.914-13.215H11.929C5.003.385-.317 6.285.015 13.216v97.5c-.333 6.93 4.987 12.833 11.914 13.217h38.125v4.767h-9.53c-5.265 0-9.532 4.268-9.532 9.534v2.383A2.383 2.383 0 0 0 33.375 143h76.25a2.383 2.383 0 0 0 2.383-2.383v-2.383c0-5.266-4.267-9.534-9.53-9.534h-9.532v-4.767h38.125c6.927-.384 12.247-6.286 11.914-13.218zm-40.508 22.752a4.766 4.766 0 0 1 4.766 4.767H35.757a4.766 4.766 0 0 1 4.766-4.767h61.954zM54.82 128.7v-4.767h33.36v4.767H54.82zm76.25-9.533H11.93a7.893 7.893 0 0 1-7.15-8.451v-5.849h133.44v5.849a7.893 7.893 0 0 1-7.15 8.451zm7.15-105.951V100.1H4.78V13.216a7.89 7.89 0 0 1 7.15-8.45H131.07a7.89 7.89 0 0 1 7.148 8.45z"/></g></svg>