<svg width="148" height="150" xmlns="http://www.w3.org/2000/svg"><g fill="#043751" fill-rule="nonzero"><path d="M147.478 10.204a2.224 2.224 0 0 0-1.51-.778l-32.826-2.788-.595-4.705a2.22 2.22 0 0 0-2.48-1.916L79.615 3.825a2.221 2.221 0 0 0-.37-.065L37.388.204C36.184.1 35.09 1.02 34.988 2.216l-.624 7.266-32.42 4.054c-1.2.15-2.078 1.273-1.927 2.466l16.548 130.901c.076.597-.053 1.17.192 1.748A2.242 2.242 0 0 0 18.804 150h108.974a2.214 2.214 0 0 0 2.22-2.209v-2.876l4.302.365c1.205.104 2.3-.816 2.402-2.012l11.29-131.453a2.2 2.2 0 0 0-.514-1.611zM16.583 111.628L4.7 17.643l11.882-1.486v95.47zM39.224 4.793l19.438 1.651L38.87 8.92l.354-4.126zm69.193-.117l1.135 8.976H36.624l71.793-8.976zm24.048 136.015l-2.466-.21V75.936c0-1.22-.994-2.209-2.221-2.209a2.214 2.214 0 0 0-2.221 2.209v69.646H21.025V18.07h104.532v47.56c0 1.22.994 2.209 2.221 2.209a2.214 2.214 0 0 0 2.221-2.21V15.86c0-1.22-.994-2.208-2.22-2.208h-13.75l-.32-2.533 29.668 2.52-10.912 127.052z"/><path d="M115.797 25h-11.748c-.737 0-1.425.365-1.833.973l-4.986 7.419a32.748 32.748 0 0 0-19.027-6.061A2.194 2.194 0 0 0 76 29.516v30.299c0 1.207.986 2.185 2.203 2.185h30.545a2.193 2.193 0 0 0 2.203-2.185c0-9.303-3.964-17.703-10.303-23.631l4.58-6.814h10.57A2.194 2.194 0 0 0 118 27.185 2.194 2.194 0 0 0 115.797 25zm-9.336 32.63H80.406V31.785a28.316 28.316 0 0 1 14.377 5.248l-1.966 2.924a2.193 2.193 0 0 0 .415 2.884c.992.828 2.532.61 3.251-.46l1.682-2.502c4.684 4.614 7.757 10.835 8.296 17.75z"/><path d="M115.796 98.56h-19.94l-3.513-5.66A33.007 33.007 0 0 0 101.54 70c0-1.226-.986-2.22-2.204-2.22H70.975V39.22c0-1.226-.987-2.22-2.204-2.22C50.7 37 36 51.804 36 70c0 18.196 14.701 33 32.77 33 7.639 0 14.674-2.645 20.253-7.073l3.742 6.03a2.201 2.201 0 0 0 1.87 1.043h21.16a2.212 2.212 0 0 0 2.205-2.22c0-1.226-.987-2.22-2.204-2.22zM84.748 80.662a2.195 2.195 0 0 0-3.038-.706 2.229 2.229 0 0 0-.7 3.059l5.66 9.122c-4.885 4.014-11.117 6.424-17.9 6.424C53.133 98.56 40.41 85.748 40.41 70c0-15.002 11.545-27.34 26.158-28.476V70c0 1.226.986 2.22 2.204 2.22h28.277a28.55 28.55 0 0 1-7.123 16.784l-5.177-8.342zM50.721 110H31.28C30.02 110 29 111.119 29 112.5s1.02 2.5 2.279 2.5H50.72c1.259 0 2.279-1.119 2.279-2.5s-1.02-2.5-2.279-2.5zM78.721 110H59.28C58.02 110 57 111.119 57 112.5s1.02 2.5 2.279 2.5H78.72c1.259 0 2.279-1.119 2.279-2.5s-1.02-2.5-2.279-2.5zM61.794 121H31.206c-1.218 0-2.206 1.119-2.206 2.5s.988 2.5 2.206 2.5h30.588c1.218 0 2.206-1.119 2.206-2.5s-.988-2.5-2.206-2.5zM76.885 121h-6.77c-1.168 0-2.115 1.119-2.115 2.5s.947 2.5 2.115 2.5h6.77c1.168 0 2.115-1.119 2.115-2.5s-.947-2.5-2.115-2.5zM40.766 134h-9.532C30 134 29 135.119 29 136.5s1 2.5 2.234 2.5h9.532C42 139 43 137.881 43 136.5s-1-2.5-2.234-2.5zM76.838 134H49.162c-1.194 0-2.162 1.119-2.162 2.5s.968 2.5 2.162 2.5h27.676c1.194 0 2.162-1.119 2.162-2.5s-.968-2.5-2.162-2.5z"/></g></svg>