<svg width="160" height="159" xmlns="http://www.w3.org/2000/svg"><g fill="#043751" fill-rule="nonzero"><circle cx="3.5" cy="153.5" r="3.5"/><circle cx="83.5" cy="76.5" r="3.5"/><path d="M125.05 36.955A13.418 13.418 0 0 0 115.5 33c-3.608 0-7 1.405-9.55 3.955-5.267 5.265-5.267 13.832 0 19.097A13.465 13.465 0 0 0 115.5 60c3.458 0 6.918-1.316 9.55-3.948 5.267-5.266 5.267-13.832 0-19.097zm-4.487 14.61c-2.792 2.79-7.335 2.79-10.126 0-2.792-2.791-2.792-7.333 0-10.124a7.114 7.114 0 0 1 5.063-2.096c1.913 0 3.71.744 5.063 2.096 2.792 2.791 2.792 7.333 0 10.124zM39.25 128.692a3.156 3.156 0 0 0-4.23 1.418l-3.76 7.548a10.414 10.414 0 0 1-8.58 5.727l-4.37.3a1.852 1.852 0 0 1-1.45-.544 1.85 1.85 0 0 1-.544-1.45l.3-4.371a10.416 10.416 0 0 1 5.726-8.58l7.548-3.759a3.155 3.155 0 1 0-2.813-5.65l-7.548 3.76a16.75 16.75 0 0 0-9.21 13.797l-.3 4.372a8.18 8.18 0 0 0 8.721 8.72l4.372-.298a16.748 16.748 0 0 0 13.798-9.21l3.758-7.549a3.155 3.155 0 0 0-1.418-4.231z"/><path d="M157.835 2.09a7.266 7.266 0 0 0-5.56-2.075l-2.922.186c-26.194 1.672-50.709 14.31-67.257 34.676l-6.877 8.462-17.995-.528-.092-.002c-14.272 0-27.69 5.556-37.781 15.643L.919 76.876a3.135 3.135 0 0 0 2.058 5.35l39.015 2.003-1.59 1.958a3.135 3.135 0 0 0-.321 3.475A73.006 73.006 0 0 0 42 92.98l-9.252 10.98a3.137 3.137 0 0 0-.437 3.361 41.09 41.09 0 0 0 7.973 11.4 41.079 41.079 0 0 0 11.641 8.206 3.133 3.133 0 0 0 3.32-.399c1.992-1.616 4.29-3.533 6.513-5.387a939.532 939.532 0 0 1 4.72-3.92c.903.545 1.819 1.072 2.748 1.577a3.134 3.134 0 0 0 3.423-.277l2.138-1.659 2.013 39.163a3.137 3.137 0 0 0 5.352 2.057l18.431-18.424c10.092-10.088 15.65-23.5 15.65-37.765v-17.18l7.271-5.64a94.236 94.236 0 0 0 36.412-69.93l.074-1.526a7.265 7.265 0 0 0-2.156-5.527zM10.345 76.323l13.443-13.437c8.895-8.891 20.72-13.793 33.299-13.805l13.152.386L46.89 78.2l-36.545-1.876zm47.394 40c-1.638 1.366-3.317 2.767-4.876 4.048a34.64 34.64 0 0 1-8.122-6.07 34.647 34.647 0 0 1-5.856-7.89l6.774-8.038a72.717 72.717 0 0 0 6.712 7.786l.006.005.002.002.003.003a72.734 72.734 0 0 0 8.638 7.422c-1.082.898-2.19 1.823-3.281 2.732zm52.22-14.432c0 12.59-4.904 24.427-13.811 33.33l-13.442 13.436-1.876-36.483 29.13-22.595v12.312zM153.65 8.836a87.972 87.972 0 0 1-33.991 65.281l-49.208 38.17a66.435 66.435 0 0 1-11.366-8.387l16.59-16.583a3.136 3.136 0 1 0-4.437-4.435L54.663 99.449a66.4 66.4 0 0 1-8.044-10.966l40.348-49.652c15.448-19.011 38.332-30.81 62.786-32.37l2.921-.186a.985.985 0 0 1 .757.283.979.979 0 0 1 .294.752l-.075 1.526z"/></g></svg>