<?xml version="1.0" encoding="UTF-8"?>
<svg width="206px" height="24px" viewBox="0 0 206 24" version="1.1" xmlns="http://www.w3.org/2000/svg" xmlns:xlink="http://www.w3.org/1999/xlink">
    <title>9B6BC957-0AA5-438B-8652-B7AA5ACCD948</title>
    <g id="Desktop" stroke="none" stroke-width="1" fill="none" fill-rule="evenodd">
        <g id="1-Applications" transform="translate(-12.000000, -12.000000)">
            <g id="Group" transform="translate(12.000000, 12.000000)">
                <g id="Advisor-Portal" transform="translate(-0.000000, 0.000000)">
                    <g id="swoop-logo" transform="translate(0.000000, 0.000000)">
                        <path d="M60.0304413,5.28985038 C61.6546922,5.28985038 62.9915242,5.88728666 64.0409373,7.08213166 C65.1104029,8.27251829 65.6384516,9.77053292 65.6384516,11.5828631 C65.6384516,13.3550679 65.1104029,14.8263323 64.0543056,16.0100313 C63.0048925,17.1803553 61.6792008,17.7666318 60.0772304,17.768861 C58.6936093,17.768861 57.4570397,17.2160223 56.3675216,16.1103448 L56.3675216,23.8077325 L53.6470684,23.8411703 L53.6470684,6.26624869 L56.3742057,6.31306165 L56.3742057,6.9015674 C57.4503555,5.82486938 58.6691007,5.28763497 60.0304413,5.28985038 Z M31.4155522,0 L28.8354664,5.61086729 L22.6593025,18.3038662 L19.3773799,10.7001045 L16.0553524,18.3038662 L9.88587269,5.61086729 L12.3991169,4.40710554 L16.0419841,12.3519331 L19.3773799,4.53416928 L22.7328283,12.3519331 L26.1618024,4.7816092 L31.4155522,0 Z M6.46358275,0 C8.61588229,0 10.440658,0.963009404 11.6504909,2.88234065 L9.21745669,4.1262278 C8.78967045,3.44409613 8.38193669,3.00271682 7.9942554,2.7954023 C7.5932058,2.56133751 7.07184132,2.44096134 6.43016195,2.44096134 C5.64811523,2.44096134 4.99306755,2.6415883 4.47838722,3.04952978 C3.9637069,3.45747126 3.70302466,3.9523511 3.70302466,4.55423197 C3.70302466,5.39017764 4.38480898,6.05893417 5.74169347,6.5738767 L7.60657412,7.26938349 C9.12387845,7.83113898 10.233449,8.51327064 10.94197,9.32915361 C11.6504909,10.1450366 11.9980673,11.1281087 11.9980673,12.3051202 C11.9980673,13.876698 11.4254576,15.1785441 10.2802381,16.2106583 C9.12387845,17.2472309 7.6934682,17.7621735 5.97563907,17.7621735 C4.35138818,17.7621735 3.01010007,17.3230233 1.95177473,16.4447231 C0.909045765,15.5619645 0.258454188,14.3225357 0,12.7264368 L2.8608205,12.1513062 C2.98781954,13.154441 3.21508098,13.8499478 3.54260482,14.2378265 C4.12412674,14.9801463 4.97301507,15.3479624 6.08926979,15.3479624 C6.97157892,15.3479624 7.70015236,15.0804598 8.28167428,14.538767 C8.86319621,13.9970742 9.15729925,13.3149425 9.15729925,12.4856844 C9.15960992,12.1736715 9.10758733,11.86364 9.00356357,11.569488 C8.89844629,11.2859066 8.73700892,11.0265653 8.52898821,10.8071055 C8.28512755,10.5504732 8.00606025,10.3298077 7.70015236,10.1517241 C7.31202578,9.9277092 6.90760725,9.73322115 6.4903194,9.56990596 L4.68559619,8.88108673 C2.12556289,7.89132706 0.844432218,6.44235458 0.842204165,4.53416928 C0.842204165,3.25015674 1.37916502,2.17568791 2.45308673,1.3107628 C3.5292365,0.44137931 4.86606851,0 6.46358275,0 Z M33.5143784,5.28986416 C35.2656284,5.28986416 36.7695644,5.89174504 37.9994498,7.09550679 C39.2092828,8.29926855 39.8153133,9.77944967 39.8175413,11.5360502 C39.8175413,13.308255 39.2092828,14.7862069 37.9860815,15.9832811 C36.7628802,17.1803553 35.25226,17.7621735 33.4675893,17.7621735 C31.6962869,17.7621735 30.2190875,17.153605 29.0226229,15.9431557 C27.8261582,14.7460815 27.2268119,13.2436085 27.2245838,11.4357367 C27.2245838,9.73040752 27.8350704,8.27920585 29.0560437,7.08213166 C30.2725608,5.88505747 31.7631285,5.28986416 33.5143784,5.28986416 Z M46.6821737,5.28986416 C48.4334236,5.28986416 49.9373596,5.89174504 51.1672451,7.09550679 C52.377078,8.29926855 52.9831086,9.77944967 52.9853366,11.5360502 C52.9853366,13.308255 52.377078,14.7862069 51.1538768,15.9832811 C49.9306755,17.1803553 48.4200553,17.7621735 46.6353846,17.7621735 C44.8640822,17.7621735 43.3868828,17.153605 42.1904181,15.9431557 C40.9872693,14.7460815 40.3923791,13.2413793 40.3923791,11.4357367 C40.3923791,9.73040752 41.0028657,8.27920585 42.2238389,7.08213166 C43.4403561,5.88505747 44.9309238,5.28986416 46.6821737,5.28986416 Z M59.5826026,7.75088819 C58.5799786,7.75088819 57.7711952,8.09864159 57.1495683,8.79414838 C56.5279414,9.48965517 56.2137859,10.4058516 56.2137859,11.5360502 C56.2137859,12.646186 56.5279414,13.5556949 57.1495683,14.2779519 C57.764511,14.9801463 58.5732944,15.3345873 59.5759184,15.3345873 C60.518385,15.3345873 61.3004317,14.9801463 61.9153744,14.2645768 C62.5436855,13.5490073 62.857841,12.6595611 62.857841,11.5895507 C62.857841,10.4593521 62.5503696,9.53646813 61.9354269,8.82758621 C61.3138,8.10532915 60.5317533,7.75088819 59.5826026,7.75088819 Z M33.5143784,7.74420063 C32.4716495,7.74420063 31.6294453,8.09195402 30.9810818,8.78746082 C30.3327182,9.48296761 30.0118786,10.3791014 30.0118786,11.4825496 C30.0118786,12.6595611 30.3260341,13.5958203 30.9543451,14.2846395 C31.6027087,14.9801463 32.451597,15.3278997 33.5143784,15.3278997 C34.5771599,15.3278997 35.4327324,14.9868339 36.0744117,14.2980146 C36.7160911,13.6091954 37.0302466,12.692999 37.0302466,11.5427377 C37.0302466,10.3924765 36.7094069,9.47628004 36.0744117,8.78746082 C35.4260482,8.09195402 34.5771599,7.74420063 33.5143784,7.74420063 Z M46.6821737,7.74420063 C45.6394447,7.74420063 44.7972406,8.09195402 44.148877,8.78746082 C43.5005135,9.48296761 43.1796738,10.3791014 43.1796738,11.4825496 C43.1796738,12.6595611 43.4938294,13.5958203 44.1221404,14.2846395 C44.7705039,14.9801463 45.6193922,15.3278997 46.6821737,15.3278997 C47.7449551,15.3278997 48.6005276,14.9868339 49.242207,14.2980146 C49.8838863,13.6091954 50.1980419,12.692999 50.1980419,11.5427377 C50.1980419,10.3924765 49.8772022,9.47628004 49.242207,8.78746082 C48.5938435,8.09195402 47.7449551,7.74420063 46.6821737,7.74420063 Z" id="Shape" fill="#FFFFFF"></path>
                        <polygon id="Path" fill="#96D3E1" fill-rule="nonzero" points="31.0813442 3.1030303 28.9892021 5.51724138 26.1618024 4.7816092"></polygon>
                        <polygon id="Path" fill="#082330" fill-rule="nonzero" points="30.6000846 4.70135841 28.7084674 5.8984326 26.1618024 4.7816092"></polygon>
                    </g>
                    <path d="M72.1670363,17.7142857 L73.7241201,13.462 L80.2355615,13.462 L81.757257,17.7142857 L84.6355028,17.7142857 L78.5133324,0.775428571 L75.4109609,0.775428571 L69.2769944,17.7142857 L72.1670363,17.7142857 Z M79.5277961,10.9317143 L74.3847011,10.9317143 L76.9680447,3.55171429 L79.5277961,10.9317143 Z M89.6333453,17.9485714 C90.2860623,17.9485714 90.8444105,17.8626667 91.30839,17.6908571 C91.7723695,17.5190476 92.1596745,17.2964762 92.4703048,17.0231429 C92.7809352,16.7498095 93.0286531,16.455 93.2134585,16.1387143 C93.3982639,15.8224286 93.5378509,15.5198095 93.6322196,15.2308571 L93.6322196,15.2308571 L93.950714,17.7142857 L96.0740101,17.7142857 L96.0740101,0.306857143 L93.1957643,0.306857143 L93.1957643,7.37057143 C93.0699394,7.13628571 92.894964,6.902 92.6708383,6.66771429 C92.4467126,6.43342857 92.1734366,6.21866667 91.8510101,6.02342857 C91.5285837,5.82819048 91.1609389,5.67004762 90.7480758,5.549 C90.3352126,5.42795238 89.8771312,5.36742857 89.3738314,5.36742857 C88.2964552,5.36742857 87.3940544,5.62319048 86.6666288,6.13471429 C85.9392033,6.6462381 85.3887192,7.36861905 85.0151763,8.30185714 C84.6416335,9.23509524 84.4548621,10.3342857 84.4548621,11.5994286 C84.4548621,13.6299048 84.9149096,15.1957143 85.8350045,16.2968571 C86.7550995,17.398 88.0212131,17.9485714 89.6333453,17.9485714 Z M90.2231498,15.8517143 C89.2873267,15.8517143 88.5638332,15.486619 88.0526693,14.7564286 C87.5415055,14.0262381 87.2859235,12.9504762 87.2859235,11.5291429 C87.2859235,10.1 87.5650977,9.06914286 88.1234459,8.43657143 C88.6817941,7.804 89.3934915,7.48771429 90.2585381,7.48771429 C90.9348472,7.48771429 91.4872974,7.64 91.9158886,7.94457143 C92.3444799,8.24914286 92.6629743,8.70209524 92.8713719,9.30342857 C93.0797694,9.9047619 93.1879003,10.6466667 93.1957643,11.5291429 C93.1957643,13.0754286 92.9578765,14.1824286 92.4821009,14.8501429 C92.0063253,15.5178571 91.2533416,15.8517143 90.2231498,15.8517143 Z M103.348498,17.7142857 L107.842808,5.60171429 L105.200484,5.60171429 L102.28685,14.0828571 L102.133501,14.0828571 L99.2080705,5.60171429 L96.5775426,5.60171429 L101.083649,17.7142857 L103.348498,17.7142857 Z M111.342547,3.48142857 L111.342547,0.787142857 L108.49969,0.787142857 L108.49969,3.48142857 L111.342547,3.48142857 Z M111.307159,17.7142857 L111.307159,5.60171429 L108.546874,5.60171429 L108.546874,17.7142857 L111.307159,17.7142857 Z M117.814901,17.9485714 C118.8215,17.9485714 119.694411,17.8001905 120.433633,17.5034286 C121.172854,17.2066667 121.744965,16.783 122.149964,16.2324286 C122.554963,15.6818571 122.757462,15.0160952 122.757462,14.2351429 C122.757462,13.954 122.712244,13.6474762 122.621807,13.3155714 C122.531371,12.9836667 122.372123,12.6595714 122.144066,12.3432857 C121.916008,12.027 121.601446,11.7360952 121.200379,11.4705714 C120.799311,11.2050476 120.284216,10.9941905 119.655091,10.838 L119.655091,10.838 L117.461018,10.3108571 C116.800437,10.1624762 116.305001,9.98285714 115.974711,9.772 C115.64442,9.56114286 115.479275,9.27219048 115.479275,8.90514286 C115.479275,8.37409524 115.695537,7.97971429 116.12806,7.722 C116.560583,7.46428571 117.115,7.33542857 117.791309,7.33542857 C118.444026,7.33542857 118.97485,7.48185714 119.383781,7.77471429 C119.792712,8.06757143 120.04043,8.47561905 120.126934,8.99885714 L120.126934,8.99885714 L122.568725,8.99885714 C122.545133,7.8352381 122.104745,6.93909524 121.247563,6.31042857 C120.39038,5.6817619 119.250092,5.36742857 117.826697,5.36742857 C116.749321,5.36742857 115.844954,5.52947619 115.113596,5.85357143 C114.382239,6.17766667 113.831755,6.62085714 113.462144,7.18314286 C113.092533,7.74542857 112.91166,8.38580952 112.919524,9.10428571 C112.927388,10.0570476 113.243916,10.7950476 113.869109,11.3182857 C114.494302,11.8415238 115.321994,12.216381 116.352186,12.4428571 L116.352186,12.4428571 L118.676015,12.97 C119.2265,13.0871429 119.627567,13.2589524 119.879216,13.4854286 C120.130866,13.7119048 120.256691,14.0164762 120.256691,14.3991429 C120.256691,14.922381 120.0306,15.3089524 119.578416,15.5588571 C119.126233,15.8087619 118.534462,15.9337143 117.803105,15.9337143 C117.402038,15.9337143 117.008835,15.8692857 116.623496,15.7404286 C116.238157,15.6115714 115.9059,15.4065714 115.626726,15.1254286 C115.347552,14.8442857 115.152917,14.4811429 115.04282,14.036 L115.04282,14.036 L112.518457,14.036 C112.652146,14.9497143 112.976538,15.6955238 113.491634,16.2734286 C114.00673,16.8513333 114.643719,17.275 115.402601,17.5444286 C116.161482,17.8138571 116.965582,17.9485714 117.814901,17.9485714 Z M128.982098,17.9485714 C130.208891,17.9485714 131.248913,17.6830476 132.102164,17.152 C132.955414,16.6209524 133.604199,15.8888095 134.048519,14.9555714 C134.492838,14.0223333 134.714998,12.9426667 134.714998,11.7165714 C134.714998,10.3889524 134.481042,9.25266667 134.01313,8.30771429 C133.545219,7.3627619 132.882672,6.63647619 132.025489,6.12885714 C131.168307,5.6212381 130.157775,5.36742857 128.993894,5.36742857 C127.790693,5.36742857 126.756569,5.63295238 125.891523,6.164 C125.026476,6.69504762 124.363929,7.43695238 123.903882,8.38971429 C123.443834,9.34247619 123.21381,10.4514286 123.21381,11.7165714 C123.21381,13.0207619 123.451698,14.1375238 123.927474,15.0668571 C124.403249,15.9961905 125.073661,16.7088095 125.938707,17.2047143 C126.803754,17.700619 127.818217,17.9485714 128.982098,17.9485714 Z M128.993894,15.7814286 C128.270401,15.7814286 127.692392,15.5881429 127.259869,15.2015714 C126.827346,14.815 126.514749,14.307381 126.32208,13.6787143 C126.129411,13.0500476 126.033076,12.3686667 126.033076,11.6345714 C126.033076,10.822381 126.141207,10.1058571 126.357468,9.485 C126.57373,8.86414286 126.900088,8.37995238 127.336544,8.03242857 C127.772999,7.68490476 128.325449,7.51114286 128.993894,7.51114286 C129.70166,7.51114286 130.269838,7.70052381 130.698429,8.07928571 C131.12702,8.45804762 131.433719,8.95980952 131.618524,9.58457143 C131.80333,10.2093333 131.895732,10.8926667 131.895732,11.6345714 C131.895732,12.4311429 131.791533,13.1418095 131.583136,13.7665714 C131.374738,14.3913333 131.056244,14.8833333 130.627653,15.2425714 C130.199061,15.6018095 129.654475,15.7814286 128.993894,15.7814286 Z M138.592212,17.7142857 L138.592212,10.674 C138.592212,10.2210476 138.670852,9.82471429 138.828133,9.485 C138.985415,9.14528571 139.21937,8.86414286 139.530001,8.64157143 C139.840631,8.419 140.222038,8.26085714 140.674221,8.16714286 C141.126405,8.07342857 141.647399,8.05 142.237203,8.09685714 C142.339436,8.09685714 142.459363,8.10466667 142.596984,8.12028571 C142.734605,8.13590476 142.846668,8.1632381 142.933173,8.20228571 L142.933173,8.20228571 L142.933173,5.47285714 C142.87026,5.43380952 142.771959,5.40647619 142.63827,5.39085714 C142.504581,5.3752381 142.36696,5.36742857 142.225407,5.36742857 C141.643467,5.36742857 141.104779,5.48066667 140.609343,5.70714286 C140.113907,5.93361905 139.68335,6.25966667 139.317671,6.68528571 C138.951992,7.11090476 138.670852,7.62438095 138.474251,8.22571429 L138.474251,8.22571429 L138.474251,5.60171429 L135.725762,5.60171429 L135.725762,17.7142857 L138.592212,17.7142857 Z M150.593232,17.7142857 L150.593232,11.576 L154.108467,11.576 C155.319532,11.576 156.377248,11.3651429 157.281615,10.9434286 C158.185981,10.5217143 158.891781,9.91257143 159.399013,9.116 C159.906244,8.31942857 160.15986,7.3627619 160.15986,6.246 C160.15986,5.05895238 159.880686,4.05933333 159.322338,3.24714286 C158.76399,2.43495238 157.99921,1.81995238 157.027999,1.40214286 C156.056787,0.984333333 154.957785,0.775428571 153.730992,0.775428571 L153.730992,0.775428571 L147.679598,0.775428571 L147.679598,17.7142857 L150.593232,17.7142857 Z M154.03769,9.29171429 L150.56964,9.29171429 L150.56964,3.02457143 L153.955117,3.02457143 C154.953853,3.02457143 155.783511,3.29204762 156.444092,3.827 C157.104673,4.36195238 157.434964,5.11361905 157.434964,6.082 C157.434964,7.0347619 157.118435,7.80790476 156.485379,8.40142857 C155.852322,8.99495238 155.036426,9.29171429 154.03769,9.29171429 L154.03769,9.29171429 Z M165.523382,17.9485714 C166.750175,17.9485714 167.790197,17.6830476 168.643447,17.152 C169.496698,16.6209524 170.145483,15.8888095 170.589802,14.9555714 C171.034121,14.0223333 171.256281,12.9426667 171.256281,11.7165714 C171.256281,10.3889524 171.022325,9.25266667 170.554414,8.30771429 C170.086502,7.3627619 169.423955,6.63647619 168.566773,6.12885714 C167.70959,5.6212381 166.699059,5.36742857 165.535178,5.36742857 C164.331977,5.36742857 163.297853,5.63295238 162.432806,6.164 C161.56776,6.69504762 160.905213,7.43695238 160.445165,8.38971429 C159.985118,9.34247619 159.755094,10.4514286 159.755094,11.7165714 C159.755094,13.0207619 159.992982,14.1375238 160.468757,15.0668571 C160.944533,15.9961905 161.614944,16.7088095 162.479991,17.2047143 C163.345037,17.700619 164.359501,17.9485714 165.523382,17.9485714 Z M165.535178,15.7814286 C164.811684,15.7814286 164.233676,15.5881429 163.801153,15.2015714 C163.368629,14.815 163.056033,14.307381 162.863364,13.6787143 C162.670694,13.0500476 162.574359,12.3686667 162.574359,11.6345714 C162.574359,10.822381 162.68249,10.1058571 162.898752,9.485 C163.115013,8.86414286 163.441372,8.37995238 163.877827,8.03242857 C164.314282,7.68490476 164.866733,7.51114286 165.535178,7.51114286 C166.242943,7.51114286 166.811121,7.70052381 167.239713,8.07928571 C167.668304,8.45804762 167.975002,8.95980952 168.159808,9.58457143 C168.344613,10.2093333 168.437016,10.8926667 168.437016,11.6345714 C168.437016,12.4311429 168.332817,13.1418095 168.124419,13.7665714 C167.916022,14.3913333 167.597527,14.8833333 167.168936,15.2425714 C166.740345,15.6018095 166.195759,15.7814286 165.535178,15.7814286 Z M175.133495,17.7142857 L175.133495,10.674 C175.133495,10.2210476 175.212136,9.82471429 175.369417,9.485 C175.526698,9.14528571 175.760654,8.86414286 176.071284,8.64157143 C176.381915,8.419 176.763321,8.26085714 177.215505,8.16714286 C177.667688,8.07342857 178.188682,8.05 178.778487,8.09685714 C178.88072,8.09685714 179.000646,8.10466667 179.138267,8.12028571 C179.275889,8.13590476 179.387951,8.1632381 179.474456,8.20228571 L179.474456,8.20228571 L179.474456,5.47285714 C179.411544,5.43380952 179.313243,5.40647619 179.179554,5.39085714 C179.045865,5.3752381 178.908244,5.36742857 178.766691,5.36742857 C178.18475,5.36742857 177.646062,5.48066667 177.150626,5.70714286 C176.655191,5.93361905 176.224633,6.25966667 175.858955,6.68528571 C175.493276,7.11090476 175.212136,7.62438095 175.015534,8.22571429 L175.015534,8.22571429 L175.015534,5.60171429 L172.267045,5.60171429 L172.267045,17.7142857 L175.133495,17.7142857 Z M185.309821,17.808 C185.844577,17.808 186.271202,17.782619 186.589697,17.7318571 C186.908191,17.6810952 187.146079,17.6244762 187.30336,17.562 L187.30336,17.562 L187.30336,15.758 L185.805257,15.758 C185.490694,15.758 185.24101,15.732619 185.056205,15.6818571 C184.8714,15.6310952 184.737711,15.5217619 184.655138,15.3538571 C184.572565,15.1859524 184.531279,14.922381 184.531279,14.5631429 L184.531279,14.5631429 L184.519483,7.61657143 L187.24438,7.61657143 L187.24438,5.59 L184.519483,5.59 L184.519483,2.00542857 L182.455167,2.00542857 L181.735606,5.60171429 L179.67129,5.60171429 L179.67129,7.61657143 L181.653033,7.61657143 L181.653033,14.6685714 C181.653033,15.3167619 181.755266,15.8751429 181.959732,16.3437143 C182.164197,16.8122857 182.531842,17.1734762 183.062666,17.4272857 C183.59349,17.6810952 184.342542,17.808 185.309821,17.808 Z M191.923728,17.9485714 C192.788774,17.9485714 193.557486,17.7748095 194.229863,17.4272857 C194.90224,17.0797619 195.458622,16.4491429 195.89901,15.5354286 L195.89901,15.5354286 L196.123136,17.7142857 L198.541334,17.7142857 L198.541334,9.22142857 C198.541334,8.4092381 198.368325,7.71614286 198.022306,7.14214286 C197.676287,6.56814286 197.137599,6.12885714 196.406242,5.82428571 C195.674884,5.51971429 194.727265,5.36742857 193.563384,5.36742857 C192.564649,5.36742857 191.683874,5.50604762 190.92106,5.78328571 C190.158246,6.06052381 189.558612,6.47833333 189.122156,7.03671429 C188.685701,7.59509524 188.443881,8.28819048 188.396697,9.116 L188.396697,9.116 L190.838487,9.116 C190.995769,8.48342857 191.320161,8.03242857 191.811665,7.763 C192.303169,7.49357143 192.843823,7.35495238 193.433627,7.34714286 C194.235761,7.33933333 194.827532,7.517 195.208939,7.88014286 C195.590345,8.24328571 195.781049,8.74504762 195.781049,9.38542857 L195.781049,9.38542857 L195.781049,10.2054286 L193.964451,10.2522857 C191.833291,10.2835238 190.282105,10.6388571 189.310894,11.3182857 C188.339683,11.9977143 187.854077,13.0051429 187.854077,14.3405714 C187.854077,15.1059048 188.029052,15.7560476 188.379003,16.291 C188.728953,16.8259524 189.212593,17.2359524 189.829922,17.521 C190.44725,17.8060476 191.145186,17.9485714 191.923728,17.9485714 Z M192.855619,16.0157143 C192.210766,16.0157143 191.672078,15.8419524 191.239555,15.4944286 C190.807031,15.1469048 190.59077,14.6646667 190.59077,14.0477143 C190.59077,13.5088571 190.746085,13.077381 191.056715,12.7532857 C191.367345,12.4291905 191.797903,12.1929524 192.348387,12.0445714 C192.898871,11.8961905 193.543724,11.8180952 194.282946,11.8102857 L194.282946,11.8102857 L195.781049,11.7868571 L195.781049,13.6962857 C195.781049,13.9930476 195.69651,14.2780952 195.527433,14.5514286 C195.358356,14.8247619 195.132264,15.0727143 194.849158,15.2952857 C194.566052,15.5178571 194.251489,15.6935714 193.905471,15.8224286 C193.559452,15.9512857 193.209501,16.0157143 192.855619,16.0157143 Z M203.881263,17.89 C204.085729,17.89 204.298058,17.8665714 204.518252,17.8197143 C204.738445,17.7728571 204.954707,17.7181905 205.167037,17.6557143 L205.167037,17.6557143 L205.167037,15.8634286 L204.55364,15.84 C204.066068,15.7931429 203.714152,15.6252381 203.49789,15.3362857 C203.281628,15.0473333 203.173498,14.6412381 203.173498,14.118 L203.173498,14.118 L203.173498,0.306857143 L200.366028,0.306857143 L200.366028,14.446 C200.366028,14.8755238 200.401417,15.2952857 200.472193,15.7052857 C200.54297,16.1152857 200.696319,16.4842857 200.932241,16.8122857 C201.168162,17.1402857 201.522045,17.4019048 201.993889,17.5971429 C202.465732,17.792381 203.094857,17.89 203.881263,17.89 Z" id="AdvisorPortal" fill="#96D3E1"></path>
                </g>
            </g>
        </g>
    </g>
</svg>