<svg width="154" height="132" viewBox="0 0 154 132" fill="none" xmlns="http://www.w3.org/2000/svg">
<path fill-rule="evenodd" clip-rule="evenodd" d="M88.291 45.285H93.273V43.685C93.273 42.405 92.227 41.362 90.986 41.362H90.582C89.338 41.362 88.292 42.405 88.292 43.684V45.285H88.291ZM87.771 46.325C87.519 46.325 87.251 46.095 87.251 45.805V43.685C87.251 41.825 88.755 40.325 90.581 40.325H90.986C92.81 40.325 94.314 41.825 94.314 43.685V45.805C94.314 46.095 94.044 46.325 93.793 46.325H87.77H87.771Z" fill="#46C8B8"/>
<path fill-rule="evenodd" clip-rule="evenodd" d="M61.807 75.95H87.464L87.25 43.684C87.25 42.764 87.594 41.979 88.171 41.362H64.091C62.824 41.362 61.807 42.405 61.807 43.684V75.951V75.95ZM61.287 76.984C61.2183 76.9875 61.1496 76.9767 61.0853 76.9522C61.021 76.9277 60.9626 76.8901 60.9136 76.8417C60.8647 76.7933 60.8264 76.7353 60.8011 76.6713C60.7759 76.6073 60.7643 76.5387 60.767 76.47V43.684C60.767 41.825 62.269 40.324 64.091 40.324H90.582C90.914 40.324 91.103 40.554 91.103 40.844C91.103 41.134 90.914 41.362 90.583 41.362C89.338 41.362 88.291 42.405 88.291 43.684V76.632C88.205 76.83 88.059 76.984 87.805 76.984H61.286H61.287Z" fill="#46C8B8"/>
<path d="M84.193 54.184C83.348 54.601 82.194 54.705 80.732 54.496C78.538 54.181 79.292 54.046 77.387 54.046C75.481 54.046 75.453 54.496 73.127 54.496C70.801 54.496 69.58 54.225 68.105 54.046C66.631 53.866 66.376 54.27 64.393 54.27M64.393 48.184C65.238 48.601 66.392 48.705 67.854 48.496C70.048 48.181 69.294 48.046 71.199 48.046C73.105 48.046 73.133 48.496 75.459 48.496C77.785 48.496 79.006 48.225 80.48 48.046C81.955 47.866 82.21 48.27 84.193 48.27L64.393 48.184ZM64.393 51.416C65.238 50.999 66.392 50.895 67.854 51.104C70.048 51.419 69.294 51.554 71.199 51.554C73.105 51.554 73.133 51.104 75.459 51.104C77.785 51.104 79.006 51.375 80.48 51.554C81.955 51.734 82.21 51.33 84.193 51.33L64.393 51.416Z" stroke="#46C8B8" stroke-width="1.2" stroke-linecap="round" stroke-linejoin="round"/>
<path d="M84.193 63.184C83.348 63.601 82.194 63.705 80.732 63.496C78.538 63.181 79.292 63.046 77.387 63.046C75.481 63.046 75.453 63.496 73.127 63.496C70.801 63.496 69.58 63.225 68.105 63.046C66.631 62.866 66.376 63.27 64.393 63.27M64.393 57.184C65.238 57.601 66.392 57.705 67.854 57.496C70.048 57.181 69.294 57.046 71.199 57.046C73.105 57.046 73.133 57.496 75.459 57.496C77.785 57.496 79.006 57.225 80.48 57.046C81.955 56.866 82.21 57.27 84.193 57.27L64.393 57.184ZM64.393 60.416C65.238 59.999 66.392 59.895 67.854 60.104C70.048 60.419 69.294 60.554 71.199 60.554C73.105 60.554 73.133 60.104 75.459 60.104C77.785 60.104 79.006 60.375 80.48 60.554C81.955 60.734 82.21 60.33 84.193 60.33L64.393 60.416Z" stroke="#46C8B8" stroke-width="1.2" stroke-linecap="round" stroke-linejoin="round"/>
<path d="M77 25.2C96.934 25.2 113.094 41.318 113.094 61.2C113.094 81.082 96.934 97.2 77 97.2C57.066 97.2 40.906 81.082 40.906 61.2C40.906 41.318 57.066 25.2 77 25.2V25.2ZM77 27.6C58.395 27.6 43.312 42.643 43.312 61.2C43.312 79.757 58.395 94.8 77 94.8C95.605 94.8 110.688 79.757 110.688 61.2C110.688 42.643 95.605 27.6 77 27.6V27.6Z" fill="#46C8B8" fill-opacity="0.3" stroke="#46C8B8"/>
<path fill-rule="evenodd" clip-rule="evenodd" d="M94.57 75.989C94.57 79.835 91.446 82.979 87.59 82.979C83.735 82.979 80.61 79.835 80.61 75.989C80.61 72.143 83.734 69 87.59 69C91.446 69 94.57 72.143 94.57 75.989V75.989Z" fill="white" stroke="#46C8B8" stroke-width="2" stroke-linecap="square" stroke-linejoin="round"/>
<path fill-rule="evenodd" clip-rule="evenodd" d="M90.482 75.802C90.4807 76.6104 90.1585 77.3852 89.5862 77.9562C89.0139 78.5271 88.2384 78.8476 87.43 78.847C87.03 78.8473 86.6338 78.7687 86.2641 78.6158C85.8944 78.4629 85.5585 78.2387 85.2756 77.9559C84.9926 77.6731 84.7681 77.3373 84.615 76.9678C84.4618 76.5982 84.383 76.2021 84.383 75.802C84.3833 75.4024 84.4623 75.0067 84.6156 74.6377C84.769 74.2686 84.9936 73.9334 85.2766 73.6512C85.5596 73.3691 85.8954 73.1455 86.265 72.9932C86.6345 72.841 87.0304 72.7631 87.43 72.764C87.8299 72.7628 88.2262 72.8405 88.5961 72.9926C88.966 73.1447 89.3023 73.3682 89.5858 73.6503C89.8692 73.9325 90.0943 74.2678 90.2481 74.637C90.4019 75.0062 90.4813 75.4021 90.482 75.802Z" stroke="#46C8B8" stroke-linecap="round" stroke-linejoin="round"/>
<path fill-rule="evenodd" clip-rule="evenodd" d="M88.922 77.218H88.696C88.6195 77.2183 88.5437 77.2035 88.4729 77.1744C88.4021 77.1453 88.3378 77.1026 88.2835 77.0486C88.2293 76.9947 88.1862 76.9305 88.1568 76.8599C88.1273 76.7893 88.1121 76.7135 88.112 76.637V76.551C88.2341 76.4854 88.3363 76.3881 88.4077 76.2693C88.4792 76.1505 88.5173 76.0146 88.518 75.876V74.939C88.5169 74.7344 88.4348 74.5385 88.2895 74.3943C88.1442 74.2502 87.9477 74.1695 87.743 74.17H87.12C87.0185 74.1695 86.9179 74.189 86.8239 74.2273C86.7299 74.2657 86.6444 74.3222 86.5722 74.3936C86.5001 74.465 86.4427 74.5499 86.4034 74.6435C86.364 74.7371 86.3435 74.8375 86.343 74.939V75.876C86.343 76.171 86.51 76.42 86.747 76.551V76.637C86.747 76.959 86.487 77.218 86.165 77.218H85.939C85.762 77.2195 85.5888 77.2698 85.4386 77.3635C85.2884 77.4572 85.1671 77.5907 85.088 77.749C85.3659 78.0804 85.7107 78.3492 86.0999 78.5378C86.4891 78.7263 86.9137 78.8303 87.346 78.843H87.514C87.9464 78.8305 88.3713 78.7265 88.7607 78.538C89.15 78.3494 89.495 78.0805 89.773 77.749C89.6941 77.5906 89.5728 77.4571 89.4225 77.3635C89.2723 77.27 89.099 77.2199 88.922 77.219V77.218Z" stroke="#46C8B8" stroke-linecap="round" stroke-linejoin="round"/>
<path d="M90.72 79.59L91.25 79.058M89.833 78.177L90.221 78.56L89.833 78.177ZM90.149 79.015L90.679 78.488L90.149 79.015ZM90.433 79.303L90.963 78.776L90.433 79.303Z" stroke="#46C8B8" stroke-linejoin="round"/>
</svg>
