<svg width="176" height="170" xmlns="http://www.w3.org/2000/svg" xmlns:xlink="http://www.w3.org/1999/xlink"><defs><rect id="a" x=".4" width="86.2" height="116" rx="1.1"/><rect id="b" x="11.7" y="42.1" width="63.6" height="62.4" rx="1.1"/></defs><g fill="none" fill-rule="evenodd"><path d="M89.3 155.7c32.4 0 79.8-41.7 58.7-65.3-35-39.2-23.3-60.2-58.7-65.4-46.6-7-67.5 18.3-58.7 65.4 6.1 33 26.2 65.3 58.7 65.3z" fill="#45B5AA" opacity=".1"/><g transform="translate(47.5 32.4)"><use fill="#FFF" xlink:href="#a"/><rect stroke-opacity=".2" stroke="#53646C" stroke-width="1.1" x=".9" y=".5" width="85.1" height="114.9" rx="1.1"/><rect fill="#E7E7E9" x="11.5" y="10.9" width="16.8" height="1.6" rx=".5"/><rect fill="#E7E7E9" x="11.5" y="14.9" width="48.3" height="1.6" rx=".5"/><rect fill="#E7E7E9" x="11.5" y="18.8" width="60" height="1.6" rx=".5"/><rect fill="#E7E7E9" x="11.5" y="22.7" width="44.3" height="1.6" rx=".5"/><rect fill="#E7E7E9" x="11.5" y="30.6" width="60" height="1.6" rx=".5"/><rect fill="#E7E7E9" x="11.5" y="34.5" width="52.2" height="1.6" rx=".5"/><use fill="#FFF" xlink:href="#b"/><rect stroke="#E7E7E9" stroke-width="1.1" x="12.3" y="42.6" width="62.5" height="61.3" rx="1.1"/></g><g transform="translate(61.8 77.2)" fill="#CFD0D3" opacity=".5"><rect y=".4" width="6.4" height="1.1" rx=".5"/><rect y="6.3" width="5.8" height="1.1" rx=".5"/><rect y="12.4" width="4.2" height="1.1" rx=".5"/><rect y="18.3" width="5.8" height="1.1" rx=".5"/><rect y="24.4" width="5.8" height="1.1" rx=".5"/><rect y="30.3" width="5.8" height="1.1" rx=".5"/><rect y="36.4" width="5.3" height="1.1" rx=".5"/><rect y="42.3" width="6.4" height="1.1" rx=".5"/><rect y="48.4" width="4.7" height="1.1" rx=".5"/><rect y="54.9" width="6.4" height="1.1" rx=".5"/><rect x="11" y=".4" width="6.4" height="1.1" rx=".5"/><rect x="11" y="6.3" width="5.8" height="1.1" rx=".5"/><rect x="11" y="12.4" width="4.2" height="1.1" rx=".5"/><rect x="11" y="18.3" width="5.8" height="1.1" rx=".5"/><rect x="11" y="24.4" width="5.8" height="1.1" rx=".5"/><rect x="11" y="30.3" width="5.8" height="1.1" rx=".5"/><rect x="11" y="36.4" width="5.3" height="1.1" rx=".5"/><rect x="11" y="42.3" width="6.4" height="1.1" rx=".5"/><rect x="11" y="48.4" width="4.7" height="1.1" rx=".5"/><rect x="11" y="54.9" width="6.4" height="1.1" rx=".5"/><rect x="24.1" y=".4" width="6.4" height="1.1" rx=".5"/><rect x="24.1" y="6.3" width="5.8" height="1.1" rx=".5"/><rect x="24.1" y="12.4" width="4.2" height="1.1" rx=".5"/><rect x="24.1" y="18.3" width="5.8" height="1.1" rx=".5"/><rect x="24.1" y="24.4" width="5.8" height="1.1" rx=".5"/><rect x="24.1" y="30.3" width="5.8" height="1.1" rx=".5"/><rect x="24.1" y="36.4" width="5.3" height="1.1" rx=".5"/><rect x="24.1" y="42.3" width="6.4" height="1.1" rx=".5"/><rect x="24.1" y="48.4" width="4.7" height="1.1" rx=".5"/><rect x="24.1" y="54.9" width="6.4" height="1.1" rx=".5"/><rect x="37.3" y=".4" width="6.4" height="1.1" rx=".5"/><rect x="37.3" y="6.3" width="5.8" height="1.1" rx=".5"/><rect x="37.3" y="12.4" width="4.2" height="1.1" rx=".5"/><rect x="37.3" y="18.3" width="5.8" height="1.1" rx=".5"/><rect x="37.3" y="24.4" width="5.8" height="1.1" rx=".5"/><rect x="37.3" y="30.3" width="5.8" height="1.1" rx=".5"/><rect x="37.3" y="36.4" width="5.3" height="1.1" rx=".5"/><rect x="37.3" y="42.3" width="6.4" height="1.1" rx=".5"/><rect x="37.3" y="48.4" width="4.7" height="1.1" rx=".5"/><rect x="37.3" y="54.9" width="6.4" height="1.1" rx=".5"/><rect x="50.4" y=".4" width="6.4" height="1.1" rx=".5"/><rect x="50.4" y="6.3" width="5.8" height="1.1" rx=".5"/><rect x="50.4" y="12.4" width="4.2" height="1.1" rx=".5"/><rect x="50.4" y="18.3" width="5.8" height="1.1" rx=".5"/><rect x="50.4" y="24.4" width="5.8" height="1.1" rx=".5"/><rect x="50.4" y="30.3" width="5.8" height="1.1" rx=".5"/><rect x="50.4" y="36.4" width="5.3" height="1.1" rx=".5"/><rect x="50.4" y="42.3" width="6.4" height="1.1" rx=".5"/><rect x="50.4" y="48.4" width="4.7" height="1.1" rx=".5"/><rect x="50.4" y="54.9" width="6.4" height="1.1" rx=".5"/></g><path d="M59.8 74.5h62v1.1h-62zm0 36h62v1.1h-62zm0-12h62v1.1h-62zm0-12h62v1.1h-62zm0 36h62v1.1h-62zm0-42h62v1.1h-62zm0 36h62v1.1h-62zm0-12h62v1.1h-62zm0-12h62v1.1h-62zm0 36h62v1.1h-62z" fill="#E7E7E9"/><path d="M71.3 74.7v60.8m25.1-60.8v60.8M83.6 74.7v60.8m25.5-60.8v60.8" stroke="#E7E7E9" stroke-linecap="square" stroke-width="1.1"/><g transform="translate(112.5 124.5)"><ellipse stroke="#FFF" stroke-width="1.6" fill="#45B5AA" cx="14.7" cy="14.7" rx="14.7" ry="14.7"/><path d="M12.8 21.6c-.3 0-.7-.1-1-.4l-5-5.1a1.3 1.3 0 1 1 1.7-1.9l4.3 4.3L22.2 9a1.3 1.3 0 0 1 1.8 1.8L13.7 21.2c-.2.3-.6.4-.9.4z" fill="#FFF" fill-rule="nonzero"/></g><ellipse fill="#45B5AA" opacity=".1" cx="102.3" cy="8.8" rx="1.5" ry="1.5"/><ellipse fill="#45B5AA" opacity=".1" cx="1.5" cy="72.2" rx="1.5" ry="1.5"/><ellipse fill="#45B5AA" opacity=".1" cx="174.5" cy="83.5" rx="1.5" ry="1.5"/><ellipse fill="#45B5AA" opacity=".4" cx="157.3" cy="145.8" rx="1.5" ry="1.5"/><ellipse fill="#45B5AA" opacity=".1" cx="86.8" cy="1.7" rx="1.7" ry="1.7"/><ellipse fill="#45B5AA" opacity=".1" cx="164.4" cy="74.4" rx="1.7" ry="1.7"/><ellipse fill="#45B5AA" opacity=".1" cx="32.7" cy="143.6" rx="1.7" ry="1.7"/><ellipse fill="#45B5AA" opacity=".2" cx="34.2" cy="20.4" rx="1.7" ry="1.7"/><path d="M150.3 27.3h-1.8a.5.5 0 0 1 0-1h1.8v-1.8c0-.3.2-.5.5-.5s.5.2.5.5v1.8h1.8c.3 0 .5.2.5.5s-.2.5-.5.5h-1.8v1.8c0 .3-.2.5-.5.5a.5.5 0 0 1-.5-.5v-1.8zM14 54.5h-2a.5.5 0 1 1 0-1h2v-1.8c0-.3.2-.5.5-.5s.5.2.5.5v1.8h1.8c.3 0 .5.2.5.5s-.2.5-.5.5H15v1.9c0 .2-.2.4-.5.4a.5.5 0 0 1-.5-.4v-1.9z" fill="#45B5AA" opacity=".4"/><path d="M12.3 127.2l-1.3-1.3a.5.5 0 1 1 .7-.7l1.3 1.3 1.3-1.3c.2-.2.5-.2.7 0 .2.2.2.5 0 .7l-1.3 1.3 1.3 1.3c.2.2.2.5 0 .7-.2.2-.5.2-.7 0l-1.3-1.3-1.3 1.3c-.2.2-.5.2-.7 0a.5.5 0 0 1 0-.7l1.3-1.3z" fill="#45B5AA" opacity=".5"/></g></svg>