<svg width="175" height="120" xmlns="http://www.w3.org/2000/svg" xmlns:xlink="http://www.w3.org/1999/xlink"><defs><rect id="a" x="43.15" y="24" width="89.48" height="96" rx="1.2"/><path d="M84.13 20.14a.45.45 0 0 1-.43-.3L82 14.71l-5.14-1.7a.44.44 0 0 1-.09-.81l16.94-9.77a.45.45 0 0 1 .47.02c.15.1.22.27.19.44L91.69 18a.45.45 0 0 1-.61.33l-5.73-2.45-.79 3.9c-.04.2-.2.34-.4.36h-.03zm-6.05-7.66l4.4 1.46c.14.05.24.15.29.29l1.25 3.74.56-2.8a.44.44 0 0 1 .23-.3.44.44 0 0 1 .38-.02l5.72 2.44 2.41-13.6-15.24 8.8z" id="b"/><path d="M84.6 15.27a.44.44 0 0 1-.36-.7L90 6.5l-7.78 7.75a.45.45 0 0 1-.63 0 .44.44 0 0 1 0-.63L93.2 2.08a.45.45 0 0 1 .68.57l-8.92 12.43a.45.45 0 0 1-.36.19z" id="c"/><path d="M81.89 23.05c-.42 0-.85-.05-1.28-.14a.44.44 0 0 1-.35-.52c.05-.24.29-.4.53-.34.37.07.74.1 1.1.1h.2c.3-.01.46.19.47.43 0 .25-.19.45-.43.46H81.89zm-3.2-.85a.45.45 0 0 1-.2-.05c-.41-.22-.84-.48-1.26-.77a.44.44 0 0 1-.11-.62c.14-.2.42-.25.62-.1.39.27.78.5 1.16.7a.44.44 0 0 1-.2.84z" id="d"/><path d="M76.71 103.39a.5.5 0 0 1-.44-.27l-2.25-4.04-2.57 2.01a.5.5 0 0 1-.82-.4V86.63a.5.5 0 0 1 .86-.36l10.15 10.16a.5.5 0 0 1-.36.86h-3.2l2.12 3.82c.07.12.08.26.04.4a.5.5 0 0 1-.26.3l-3.04 1.52a.5.5 0 0 1-.23.06zm-2.53-5.59a.5.5 0 0 1 .44.26l2.3 4.15 2.14-1.07-2.28-4.1a.5.5 0 0 1 .44-.76h2.83l-8.4-8.42v11.79l2.21-1.74a.5.5 0 0 1 .32-.1z" id="e"/></defs><g fill="none" fill-rule="evenodd"><path d="M168.28 119.92A85.59 85.59 0 0 0 175 86.6C175 38.77 135.83 0 87.5 0 39.18 0 0 38.77 0 86.6c0 11.81 2.4 23.06 6.72 33.32h161.56z" fill="#ECF7F6"/><path d="M151.38 119.93a70.7 70.7 0 0 0 8.33-33.31c0-39.56-32.4-71.62-72.35-71.62C47.4 15 15 47.06 15 86.62a70.66 70.66 0 0 0 8.33 33.3h128.05z" fill="#DAEFED"/><use fill="#FFF" xlink:href="#a"/><rect stroke-opacity=".13" stroke="#043751" stroke-width="1.2" x="43.75" y="24.6" width="88.28" height="94.8" rx="1.2"/><path d="M151.52 67.75l4.6.67c.13.02.25.1.32.23l1.88 3.47.07-2.86a.44.44 0 0 1 .55-.42l6.05 1.41.02-13.81-13.5 11.3z" fill="#FFF" fill-rule="nonzero"/><g fill-rule="nonzero" transform="rotate(-10 430.63 -379.6)"><use fill="#FFF" fill-rule="evenodd" xlink:href="#b"/><path stroke="#45B5AA" stroke-width="1.2" d="M84.12 19.54zm0 0h.12l.03.09a.15.15 0 0 0-.14-.1h-.01zm-.15.12zm.12-.57l.81-4.05.68.29 5.56 2.37 2.58-14.57-16.34 9.42 5.09 1.7.09.28 1.53 4.56zm7.01-1.2zM93.78 2.8zm-8.65 12.67l-.97 4.82-.71-2.13-1.23-3.67-5.6-1.86 17.52-10.1-2.77 15.6-.7-.29-5.54-2.37z"/></g><g fill-rule="nonzero" transform="rotate(-10 432.88 -382.25)"><use fill="#FFF" fill-rule="evenodd" xlink:href="#c"/><path stroke="#45B5AA" stroke-width="1.2" d="M84.47 14.73zm5.8-8.08l2.02-2.82-2.46 2.45.43.37z"/></g><path d="M148.7 74.84c-.1.02-.21 0-.31-.06l-.76-.5a.44.44 0 0 1-.1-.63c.13-.2.41-.25.61-.1l.73.48a.44.44 0 0 1-.17.8z" fill="#45B5AA" fill-rule="nonzero"/><g fill-rule="nonzero" transform="rotate(-10 424.97 -369.05)"><use fill="#FFF" fill-rule="evenodd" xlink:href="#d"/><path stroke="#45B5AA" stroke-width="1.2" d="M80.73 22.33zm0 0c.08.01.14.1.12.18-.02.09-.1.14-.18.12.4.09.82.13 1.22.13h.21c-.05 0-.14-.1-.14-.16 0-.08.06-.15.15-.16h-.22c-.38 0-.77-.03-1.16-.11zm-2.11-.44a9.54 9.54 0 0 0-.03-.02z"/></g><path d="M157.36 75.8a.44.44 0 0 1-.32-.8c.23-.16.45-.32.67-.51a.45.45 0 0 1 .63.05c.16.18.14.46-.05.62-.24.21-.5.4-.76.57a.45.45 0 0 1-.17.07z" fill="#45B5AA" fill-rule="nonzero"/><path d="M145.63 72.47c-3.64-1.93-5.45-4.24-5.45-6.93 0-2.7 1.81-3.35 5.45-1.98 4.81 3.76 2.14 7.2-8.02 10.35-15.23 4.71-26.91-10.35-35.85 7.63-5.95 11.99-15.39 14.16-28.32 6.53" stroke="#45B5AA" stroke-width=".96" stroke-linecap="round" stroke-linejoin="round" stroke-dasharray="1.200000047683716,2.400000095367432"/><path d="M33.56 119.4h106.68" stroke="#043751" stroke-width="1.2" opacity=".1" stroke-linecap="round"/><rect fill="#043751" opacity=".1" x="67.12" y="40.8" width="26.73" height="2.27" rx="1.13"/><rect fill="#043751" opacity=".1" x="55.14" y="39.6" width="9.59" height="9.08" rx="1.2"/><rect fill="#043751" opacity=".1" x="67.12" y="45.6" width="17.14" height="2.27" rx="1.13"/><rect fill="#043751" opacity=".1" x="56.34" y="85.2" width="15.58" height="5.67" rx="1.2"/><rect fill="#043751" opacity=".1" x="56.34" y="57.6" width="55.5" height="2.27" rx="1.13"/><rect fill="#043751" opacity=".1" x="56.34" y="63.6" width="36.32" height="2.27" rx="1.13"/><path d="M17.98 119.4h9.59m116.27 0h4.79m3.6 0h2.4" stroke="#043751" stroke-width="1.2" opacity=".1" stroke-linecap="round"/><g fill-rule="nonzero"><use fill="#FFF" fill-rule="evenodd" xlink:href="#e"/><path stroke="#45B5AA" stroke-width="1.2" d="M76.75 102.76l2.88-1.44-2.57-4.63h4l-9.83-9.84v13.65l2.97-2.33.35.61 2.2 3.98zm-2.6-4.31l-3.1 2.43V86.41L81.5 96.88h-4.12l2.5 4.51-3.2 1.61-.28-.5-2.25-4.05z"/></g><path d="M71.13 83.08a.5.5 0 0 1-.5-.51v-3.05a.5.5 0 1 1 1.01 0v3.05a.5.5 0 0 1-.5.5zm-4.05 4.06h-3.05a.5.5 0 0 1 0-1.02h3.05a.5.5 0 0 1 0 1.02zm11.15 0H75.2a.5.5 0 0 1 0-1.02h3.04a.5.5 0 0 1 0 1.02zm-9.96-2.88a.5.5 0 0 1-.36-.14l-2.16-2.16a.5.5 0 0 1 .72-.71l2.15 2.15a.5.5 0 0 1-.35.86zm-2.16 7.9a.5.5 0 0 1-.36-.87l2.16-2.15a.5.5 0 1 1 .71.72l-2.15 2.16a.5.5 0 0 1-.36.14zm7.89-7.9a.5.5 0 0 1-.36-.87l2.16-2.14a.5.5 0 1 1 .71.71l-2.15 2.16a.5.5 0 0 1-.36.14z" fill="#45B5AA" fill-rule="nonzero" opacity=".6"/></g></svg>