<svg viewBox="0 0 210 35" xmlns="http://www.w3.org/2000/svg" xmlns:xlink="http://www.w3.org/1999/xlink"><defs><path id="a" d="M0 0h210v35H0z"/></defs><g fill="none" fill-rule="evenodd"><mask id="b" fill="#fff"><use xlink:href="#a"/></mask><path d="M48.344 29.872H39c1.177-1.025 1.49-5.02 2.008-12.054l.103-1.638c.278-3.995.486-7.068.45-9.217-.034-1.845-.242-3.041-.762-3.45h10.452c2.492 0 7.477.137 7.477 5.257 0 3.415-3.22 5.532-6.161 6.285 4.153.41 7.268 2.389 7.268 6.623-.001 4.574-4.361 8.194-11.49 8.194m-.416-12.735h-1.903l-.277 3.892a76.422 76.422 0 00-.242 4.847c0 .241.76.753 2.56.753 3.737 0 6.196-1.843 6.196-4.884 0-3.38-2.805-4.608-6.334-4.608m.864-10.448c-.52 0-1.21 0-1.868.069-.278 1.844-.45 3.618-.588 5.564 0 0-.105 1.673-.105 1.604h.693c3.392 0 6.508-1.16 6.508-4.231 0-1.778-1.49-3.006-4.64-3.006M81.741 30.11c-2.282 0-2.455-.066-4.29-6.28l-.657-2.289c-1.11.512-3.082.75-6.231.75h-3.184l-.553 1.162c-.554 1.231-1.904 3.757-1.87 5.226 0 .34.035.682.174 1.194h-6.402c1.833-1.81 4.153-6.008 7.371-12.803l1.87-3.927c1.694-3.55 3.495-7.58 3.495-8.16 0-.514-.136-.99-.346-1.47h5.816s1.52 5.703 2.871 10.449l1.142 4.166c1.973 7 3.219 10.414 4.88 11.745-1.488.17-3.357.237-4.086.237M73.334 9.695l-4.33 9.182h7.026l-2.696-9.182M107.04 31c-1.972 0-2.457-.31-3.113-1.197L96.45 19.559c-.589-.784-1.038-1.433-1.972-1.433h-.173l-.138 1.98c-.174 2.698-.277 4.851-.277 6.455.034 1.775.242 2.866.727 3.311h-7.234c1.037-.922 1.417-3.996 2.007-12.054l.105-1.672c.276-3.96.485-7.034.449-9.183-.035-1.879-.24-3.041-.762-3.45h9.863c3.219 0 7.65.547 7.65 5.702 0 4.233-2.875 6.556-6.438 7.647.346.309.968 1.093 1.35 1.572l5.433 7.103c3.392 4.405 3.668 4.609 4.88 5.223-1.523.17-3.563.24-4.88.24M97.386 6.723c-.658 0-1.456 0-2.077.068-.207 1.126-.382 3.073-.623 6.213l-.14 1.846c.348.069.797.104 1.213.104 3.32 0 5.607-1.983 5.607-4.986 0-2.05-1.454-3.245-3.98-3.245m23.88 23.661c-6.888 0-10.869-5.598-10.869-11.88C110.397 9.762 115.207 3 124.38 3c2.873 0 4.223.512 6.541.512l-.692 6.727c-1.314-2.356-3.461-3.961-6.332-3.961-5.71 0-8.03 6.08-8.03 11.303 0 5.667 3.22 8.774 7.51 8.774 2.32 0 4.36-.616 7.788-2.97-1.385 4.371-4.604 7-9.898 7m47.101-.275c-2.285 0-2.456-.066-4.292-6.28l-.656-2.289c-1.106.512-3.081.75-6.23.75h-3.184l-.554 1.162c-.797 1.743-1.869 3.789-1.869 5.226 0 .34.034.716.174 1.194H132.86c1.073-1.194 1.42-5.052 1.938-12.054l.104-1.672c.277-3.995.486-7.068.45-9.218-.034-1.776-.208-2.903-.692-3.414h7.304c-1.04.786-1.422 5.018-1.905 12.02l-.138 1.671c-.175 2.596-.52 5.259-.52 7.854 0 1.193.485 1.466 1.733 1.466 4.427 0 5.537-.102 7.543-1.433 1.245-2.254 2.666-5.089 4.048-8.024l1.872-3.927c1.764-3.687 3.492-7.445 3.492-8.16 0-.515-.137-.99-.343-1.47h5.814s2.353 8.606 2.872 10.448l1.14 4.167c1.973 7 3.22 10.414 4.882 11.745-1.387.172-3.359.238-4.086.238m-8.41-20.415l-4.29 9.182h6.989l-2.7-9.182m25.162 5.973c-.625 1.025-1.418 2.423-1.905 3.449-.414 1.945-.623 4.542-.623 7.408 0 1.196.209 2.8.762 3.347h-7.233c1.28-1.194 1.8-8.534 1.732-10.857-.97-3.312-2.287-6.487-4.294-10.346-1.277-2.424-2.767-4.714-3.702-5.157 1.626-.135 3.702-.238 4.708-.238 1.798 0 2.284.238 3.392 2.63 1.728 3.859 3.009 6.758 3.77 8.912 1.836-2.835 3.117-4.78 4.778-7.444.415-.649.761-1.468.761-2.254 0-.616-.105-1.298-.381-1.606h7.165c-1.384.308-7.615 9.972-8.93 12.156m24.192-5.906c-1.11-1.982-3.499-3.485-6.093-3.485-2.283 0-4.29.922-4.29 3.313 0 2.014 2.527 3.38 5.158 5.054 2.871 1.775 5.849 3.959 5.849 7.751 0 4.952-4.88 7.99-10.523 7.99-2.318 0-4.74-.443-7.474-1.468l.449-6.59c1.315 2.63 3.774 4.712 7.405 4.712 2.805 0 4.88-1.33 4.88-3.655 0-1.98-1.697-3.208-3.771-4.437-4.362-2.595-7.13-4.679-7.13-8.435 0-5.635 4.775-7.512 9.725-7.512 2.87 0 4.672.512 6.505.512l-.69 6.25M15.288.002c-.937 0-1.13.161-1.435.497a6.813 6.813 0 00-.375-.01c-.721 0-1.647.105-2.437.628-.763.498-1.125 1.381-.718 2.027 0 0 .272-.397 1.168-.397.127 0 .267.014.415.026 1.24.145 2.157.79 2.045 2.496-.099 1.704-.744 3.604-3.385 3.626 0 0-.34 0-.703-.033-1.229-.133-1.616-.897-1.616-.897S9.31 7.68 9.32 6.345c-.01-.908-.808-1.738-1.96-2.074a4.436 4.436 0 00-1.224-.163c-1.36 0-2.886.562-3.914 1.892C-.109 9.048-.299 13.49.27 17.623c.572 4.14 3.226 7.975 3.303 8.08.057.073.107.114.164.114.03 0 .06-.013.092-.04 1.146-1.1 2.238-2.604 2.706-3.61.5.395.238 1.234-.036 2.13-.262.918-.897 2.134-1.127 2.527-.222.383-.52.83-.12 1.062a.294.294 0 00.155.038c.514 0 1.722-.887 3.071-2.666 1.51-2.003 2.276-3.78 2.276-3.78.11.024.295.21.265.713-.02.512-.553 2.417-1.588 4.19-1.046 1.772-2.013 2.88-2.208 3.133-.12.146-.018.237.06.296.076.051 1.928 1.762 4.617 3.207C15.086 34.698 16.498 35 16.498 35s1.41-.295 4.595-1.974c2.689-1.447 4.547-3.166 4.616-3.224.078-.052.177-.135.06-.295-.184-.241-1.154-1.355-2.198-3.127-1.032-1.76-1.584-3.678-1.592-4.183-.022-.51.152-.678.258-.72 0 0 .774 1.788 2.284 3.78 1.355 1.781 2.553 2.666 3.068 2.666a.315.315 0 00.16-.038c.388-.233.1-.685-.128-1.064-.212-.39-.856-1.6-1.13-2.525-.263-.906-.535-1.745-.026-2.13.469 1.005 1.554 2.517 2.703 3.603a.14.14 0 00.099.047c.05 0 .105-.04.152-.107.085-.112 2.742-3.941 3.31-8.088.57-4.14.382-8.573-1.952-11.622C29.754 4.667 28.218 4.1 26.85 4.1a4.47 4.47 0 00-1.208.16c-1.162.347-1.957 1.185-1.95 2.084 0 1.334 1.068 1.62 1.068 1.62s-.358.745-1.63.896a5.713 5.713 0 01-.69.043c-.957 0-1.764-.3-2.508-1.34-.72-1-.697-3.06-.739-3.747-.032-.697-.183-2.26-.923-2.899C17.533.263 16.633.043 15.513 0c-.083.002-.156.002-.225.002" fill="#FFF" mask="url(#b)"/></g></svg>
