<svg xmlns="http://www.w3.org/2000/svg" viewBox="0 0 399.771 128"><defs><style>.cls-1{fill:#03080c;}</style></defs><g id="Layer_2" data-name="Layer 2"><g id="Layer_6" data-name="Layer 6"><path id="FIBR_logo_black_RGB" class="cls-1" d="M140.769,0V127.971H116.978V0Zm259,127.967H368.783L314.6,71.66v56.307H291.4V0H354.78c24.8,0,42.189,16.735,42.189,39.769,0,22.05-15.392,37.014-38.982,37.014h-4.6a20.648,20.648,0,0,1-4.6-.4ZM351.9,59.652a19.389,19.389,0,0,0,20.2-19.883c0-11.223-8.4-18.9-20.2-18.9H315.113V59.652Zm-79.194,31.7c-.021,21.076-16.818,36.616-40.213,36.616H167.334v-55.9h23.172V108.1h39.183a18.041,18.041,0,1,0,0-36.028H190.506V52.422H167.334V0h61.384C250.911,0,267.3,14.371,267.3,33.665a29.175,29.175,0,0,1-17.389,26.58A30.987,30.987,0,0,1,272.708,91.355ZM243.092,36.433A16.306,16.306,0,0,0,225.5,20.288l-34.992,0V52.383H225.3a16.688,16.688,0,0,0,17.794-15.95ZM23.771,36.014V52.422H0V36A36,36,0,0,1,36,0H96.837V20.114H39.671A15.9,15.9,0,0,0,23.771,36.014ZM83.18,72.069V52.422H23.771V72.069ZM0,128H23.771V72.069H0Z"/></g></g></svg>