<?xml version="1.0" encoding="UTF-8"?>
<svg width="92px" height="35px" viewBox="0 0 92 35" version="1.1" xmlns="http://www.w3.org/2000/svg" xmlns:xlink="http://www.w3.org/1999/xlink">
    <title>00E87C9E-1EAE-45EA-AB35-B727445B425A</title>
    <defs>
        <filter id="filter-1">
            <feColorMatrix in="SourceGraphic" type="matrix" values="0 0 0 0 0.807843 0 0 0 0 0.843137 0 0 0 0 0.870588 0 0 0 1.000000 0"></feColorMatrix>
        </filter>
    </defs>
    <g id="Journey" stroke="none" stroke-width="1" fill="none" fill-rule="evenodd">
        <g id="3c-Loan-Matches-" transform="translate(-334.000000, -619.000000)">
            <g id="Offline-loan-matches" transform="translate(303.000000, 232.000000)">
                <g id="Product-/-Horizontal-Copy-4" transform="translate(0.000000, 345.000000)">
                    <g id="assets/logo-blue" transform="translate(31.000000, 42.000000)" filter="url(#filter-1)">
                        <g transform="translate(0.000000, 0.200000)" id="swoop-logo">
                            <path d="M83.459798,7.40579054 C85.7179798,7.40579054 87.5765657,8.24220132 89.0355556,9.91498433 C90.5224242,11.5815256 91.2565657,13.6787461 91.2565657,16.2160084 C91.2565657,18.6970951 90.5224242,20.7568652 89.0541414,22.4140439 C87.5951515,24.0524974 85.7520539,24.8732846 83.5248485,24.8764054 C81.6012121,24.8764054 79.8820202,24.1024312 78.3672727,22.5544828 L78.3672727,33.3308255 L74.5850505,33.3776385 L74.5850505,8.77274817 L78.3765657,8.83828631 L78.3765657,9.66219436 C79.8727273,8.15481714 81.567138,7.40268896 83.459798,7.40579054 Z M43.6767677,0 L40.089697,7.85521421 L31.5030303,25.6254127 L26.940202,14.9801463 L22.3216162,25.6254127 L13.7442424,7.85521421 L17.2383838,6.16994775 L22.3030303,17.2927064 L26.940202,6.34783699 L31.6052525,17.2927064 L36.3725253,6.69425287 L43.6767677,0 Z M8.98626263,0 C11.9785859,0 14.5155556,1.34821317 16.1975758,4.03527691 L12.8149495,5.77671891 C12.220202,4.82173459 11.6533333,4.20380355 11.1143434,3.91356322 C10.5567677,3.58587252 9.83191919,3.41734587 8.93979798,3.41734587 C7.85252525,3.41734587 6.94181818,3.69822362 6.22626263,4.26934169 C5.51070707,4.84045977 5.14828283,5.53329154 5.14828283,6.37592476 C5.14828283,7.54624869 6.09616162,8.48250784 7.98262626,9.20342738 L10.5753535,10.1771369 C12.6848485,10.9635946 14.2274747,11.9185789 15.2125253,13.060815 C16.1975758,14.2030512 16.6808081,15.5793521 16.6808081,17.2271682 C16.6808081,19.4273772 15.8847138,21.2499617 14.2925253,22.6949216 C12.6848485,24.1461233 10.6961616,24.8670428 8.30787879,24.8670428 C6.04969697,24.8670428 4.18491582,24.2522327 2.71353535,23.0226123 C1.26383838,21.7867503 0.359326599,20.05155 3.46744855e-12,17.8170115 L3.97737374,17.0118286 C4.15393939,18.4162173 4.46989899,19.3899269 4.92525253,19.9329572 C5.73373737,20.9722048 6.91393939,21.4871473 8.46585859,21.4871473 C9.69252525,21.4871473 10.7054545,21.1126437 11.5139394,20.3542738 C12.3224242,19.5959039 12.7313131,18.6409195 12.7313131,17.4799582 C12.7345256,17.0431401 12.6621991,16.609096 12.5175758,16.1972832 C12.3714321,15.8002693 12.1469872,15.4371914 11.8577778,15.1299478 C11.5187404,14.7706625 11.1307556,14.4617308 10.7054545,14.2124138 C10.1658455,13.8987929 9.603586,13.6265096 9.02343434,13.3978683 L6.51434343,12.4335214 C2.95515152,11.0478579 1.17400673,9.01929641 1.17090909,6.34783699 C1.17090909,4.55021944 1.91744108,3.04596308 3.41050505,1.83506792 C4.90666667,0.617931034 6.76525253,0 8.98626263,0 Z M46.5947475,7.40580982 C49.0294949,7.40580982 51.120404,8.24844305 52.830303,9.93370951 C54.5123232,11.618976 55.3548822,13.6912295 55.3579798,16.1504702 C55.3579798,18.6315569 54.5123232,20.7006897 52.8117172,22.3765935 C51.1111111,24.0524974 49.0109091,24.8670428 46.529697,24.8670428 C44.0670707,24.8670428 42.0133333,24.015047 40.349899,22.320418 C38.6864646,20.6445141 37.8531987,18.5410519 37.850101,16.0100313 C37.850101,13.6225705 38.6988552,11.5908882 40.3963636,9.91498433 C42.0876768,8.23908046 44.16,7.40580982 46.5947475,7.40580982 Z M64.9018182,7.40580982 C67.3365657,7.40580982 69.4274747,8.24844305 71.1373737,9.93370951 C72.8193939,11.618976 73.6619529,13.6912295 73.6650505,16.1504702 C73.6650505,18.6315569 72.8193939,20.7006897 71.1187879,22.3765935 C69.4181818,24.0524974 67.3179798,24.8670428 64.8367677,24.8670428 C62.3741414,24.8670428 60.320404,24.015047 58.6569697,22.320418 C56.9842424,20.6445141 56.1571717,18.537931 56.1571717,16.0100313 C56.1571717,13.6225705 57.0059259,11.5908882 58.7034343,9.91498433 C60.3947475,8.23908046 62.4670707,7.40580982 64.9018182,7.40580982 Z M82.8371717,10.8512435 C81.4432323,10.8512435 80.3187879,11.3380982 79.4545455,12.3118077 C78.590303,13.2855172 78.1535354,14.5681923 78.1535354,16.1504702 C78.1535354,17.7046604 78.590303,18.9779728 79.4545455,19.9891327 C80.3094949,20.9722048 81.4339394,21.4684222 82.8278788,21.4684222 C84.1381818,21.4684222 85.2254545,20.9722048 86.080404,19.9704075 C86.9539394,18.9686102 87.3907071,17.7233856 87.3907071,16.225371 C87.3907071,14.643093 86.9632323,13.3510554 86.1082828,12.3586207 C85.2440404,11.3474608 84.1567677,10.8512435 82.8371717,10.8512435 Z M46.5947475,10.8418809 C45.1450505,10.8418809 43.9741414,11.3287356 43.0727273,12.3024451 C42.1713131,13.2761546 41.7252525,14.5307419 41.7252525,16.0755695 C41.7252525,17.7233856 42.1620202,19.0341484 43.0355556,19.9984953 C43.9369697,20.9722048 45.1171717,21.4590596 46.5947475,21.4590596 C48.0723232,21.4590596 49.2618182,20.9815674 50.1539394,20.0172205 C51.0460606,19.0528736 51.4828283,17.7701985 51.4828283,16.1598328 C51.4828283,14.5494671 51.0367677,13.2667921 50.1539394,12.3024451 C49.2525253,11.3287356 48.0723232,10.8418809 46.5947475,10.8418809 Z M64.9018182,10.8418809 C63.4521212,10.8418809 62.2812121,11.3287356 61.379798,12.3024451 C60.4783838,13.2761546 60.0323232,14.5307419 60.0323232,16.0755695 C60.0323232,17.7233856 60.4690909,19.0341484 61.3426263,19.9984953 C62.2440404,20.9722048 63.4242424,21.4590596 64.9018182,21.4590596 C66.3793939,21.4590596 67.5688889,20.9815674 68.4610101,20.0172205 C69.3531313,19.0528736 69.789899,17.7701985 69.789899,16.1598328 C69.789899,14.5494671 69.3438384,13.2667921 68.4610101,12.3024451 C67.559596,11.3287356 66.3793939,10.8418809 64.9018182,10.8418809 Z" id="Shape" fill="#FFFFFF"></path>
                            <polygon id="Path" fill="#96D3E1" fill-rule="nonzero" points="43.2121212 4.34424242 40.3034343 7.72413793 36.3725253 6.69425287"></polygon>
                            <polygon id="Path" fill="#082330" fill-rule="nonzero" points="42.5430303 6.58190178 39.9131313 8.25780564 36.3725253 6.69425287"></polygon>
                        </g>
                    </g>
                </g>
            </g>
        </g>
    </g>
</svg>