<svg width="257" height="199" viewBox="0 0 257 199" fill="none" xmlns="http://www.w3.org/2000/svg">
<path d="M128.333 21C161.47 21 188.333 47.863 188.333 81C188.333 114.137 161.47 141 128.333 141C95.196 141 68.333 114.137 68.333 81C68.333 47.863 95.196 21 128.333 21ZM128.333 25C97.405 25 72.333 50.072 72.333 81C72.333 111.928 97.405 137 128.333 137C159.261 137 184.333 111.928 184.333 81C184.333 50.072 159.261 25 128.333 25Z" fill="#E8EFF8" stroke="#CFD7DE"/>
<path d="M124.562 102.449C123.374 106.379 119.207 108.559 115.328 107.378C114.398 107.099 113.532 106.638 112.781 106.023C112.029 105.408 111.406 104.651 110.949 103.794C110.491 102.938 110.207 101.999 110.113 101.033C110.019 100.066 110.117 99.0905 110.402 98.162M145.883 97.265L135.062 100.577C135.768 101.485 136.742 102.146 137.846 102.467L137.81 102.455C138.827 102.805 139.427 103.877 139.154 104.885C138.809 105.938 137.717 106.495 136.697 106.145L136.289 106.082C137.765 106.667 139.403 106.754 141.077 106.268C142.906 105.708 144.438 104.446 145.339 102.759C146.24 101.072 146.435 99.0962 145.883 97.265V97.265Z" stroke="#CFD7DE" stroke-width="2" stroke-linecap="round" stroke-linejoin="round"/>
<path fill-rule="evenodd" clip-rule="evenodd" d="M137.809 102.455L137.848 102.467C134.932 101.609 133.248 98.501 134.148 95.579L134.908 93.137L134.968 92.933L137.644 84.053C139.489 78.002 137.203 71.693 132.412 68.138L133.105 65.848C133.861 63.308 132.418 60.53 129.808 59.72C127.204 58.982 124.488 60.404 123.682 63.01L122.992 65.23C117.037 65.558 111.622 69.46 109.78 75.56L107.038 84.455L106.993 84.653L106.279 87.101C105.361 90.023 102.256 91.655 99.337 90.8L99.376 90.812C98.346 90.458 97.213 91.025 96.922 92.057C96.598 93.083 97.195 94.157 98.262 94.496L136.699 106.145C137.719 106.495 138.808 105.938 139.153 104.885C139.426 103.877 138.829 102.805 137.809 102.455V102.455Z" stroke="#CFD7DE" stroke-width="2" stroke-linecap="round" stroke-linejoin="round"/>
<path fill-rule="evenodd" clip-rule="evenodd" d="M159.027 91.3C158.757 90.265 157.653 89.719 156.633 90.052L156.669 90.046C153.822 90.883 150.798 89.287 149.898 86.443L149.16 84.052L149.12 83.86L146.493 75.127C144.693 69.238 139.365 65.371 133.542 65.116L133.26 64.207C133.278 64.747 133.248 65.302 133.104 65.851L132.411 68.137C137.201 71.692 139.488 78.001 137.646 84.052L134.966 92.932L134.906 93.136L134.151 95.581C133.896 96.4265 133.845 97.3206 134.003 98.1896C134.161 99.0586 134.523 99.8775 135.06 100.579L157.716 93.655C158.781 93.316 159.363 92.272 159.026 91.3H159.027ZM123.682 63.01C124.48 60.426 127.156 59.016 129.73 59.703C128.805 59.4368 127.825 59.4316 126.898 59.688C125.224 60.246 124.03 61.558 123.625 63.192L123.682 63.009V63.01Z" stroke="#CFD7DE" stroke-width="2" stroke-linecap="round" stroke-linejoin="round"/>
<path d="M147.181 61.28C151.949 62.483 154.441 65.756 152.771 70.448M100.251 67.47C100.595 58.433 105.367 52.855 114.128 54.366L100.251 67.47ZM105.236 66.288C105.509 61.326 108.268 58.224 113.232 58.977L105.236 66.288ZM147.46 56.585C156.023 58.653 160.476 64.365 157.433 72.596L147.46 56.585Z" stroke="#CFD7DE" stroke-linecap="round" stroke-linejoin="round"/>
</svg>
