<svg width="123.99999999999999" height="61.99999999999999" xmlns="http://www.w3.org/2000/svg" fill="none">

 <g>
  <title>Layer 1</title>
  <path id="svg_15" fill="white" d="m101.47605,34.2029c2.357,0 4.296,0.8727 5.819,2.6182c1.551,1.739 2.317,3.9274 2.317,6.575c0,2.589 -0.766,4.7383 -2.298,6.4675c-1.522,1.7097 -3.446,2.5662 -5.77,2.5695c-2.007,0 -3.801,-0.8077 -5.3816,-2.4229l0,11.2449l-3.9467,0.0488l0,-25.6747l3.9564,0.0684l0,0.8598c1.5612,-1.573 3.3293,-2.3578 5.3039,-2.3545zm-41.5124,-7.7278l-3.743,8.1967l-8.96,18.5429l-4.7612,-11.1081l-4.8194,11.1081l-8.9503,-18.5429l3.646,-1.7585l5.2849,11.6064l4.8388,-11.4208l4.8679,11.4208l4.9745,-11.0593l7.6218,-6.9853zm-36.1988,0c3.1225,0 5.7697,1.4068 7.5249,4.2107l-3.5297,1.8172c-0.6206,-0.9965 -1.2121,-1.6413 -1.7746,-1.9442c-0.5818,-0.3419 -1.3381,-0.5178 -2.2691,-0.5178c-1.1345,0 -2.0848,0.2931 -2.8315,0.8891c-0.7466,0.5959 -1.1248,1.3189 -1.1248,2.1981c0,1.2212 0.9891,2.1982 2.9576,2.9505l2.7054,1.016c2.2012,0.8207 3.8109,1.8172 4.8388,3.0091c1.0279,1.1919 1.5321,2.628 1.5321,4.3475c0,2.2958 -0.8307,4.1977 -2.4921,5.7055c-1.6776,1.5143 -3.7527,2.2665 -6.2448,2.2665c-2.3564,0 -4.3023,-0.6415 -5.8376,-1.9246c-1.5128,-1.2896 -2.4566,-3.1002 -2.8315,-5.4319l4.1503,-0.8402c0.1842,1.4654 0.5139,2.4815 0.9891,3.0481c0.8436,1.0844 2.0751,1.6218 3.6945,1.6218c1.28,0 2.337,-0.3908 3.1806,-1.1822c0.8436,-0.7913 1.2703,-1.7878 1.2703,-2.9992c0.0034,-0.4559 -0.0721,-0.9088 -0.223,-1.3385c-0.1525,-0.4143 -0.3867,-0.7931 -0.6885,-1.1137c-0.3538,-0.3749 -0.7586,-0.6973 -1.2024,-0.9575c-0.5631,-0.3272 -1.1498,-0.6113 -1.7552,-0.8499l-2.6182,-1.0063c-3.7139,-1.4459 -5.5725,-3.5627 -5.5757,-6.3503c0,-1.8757 0.779,-3.4454 2.3369,-4.7089c1.5613,-1.2701 3.5007,-1.9149 5.8182,-1.9149zm39.2437,7.7277c2.5406,0 4.7224,0.8793 6.5066,2.6379c1.7552,1.7585 2.6344,3.9208 2.6376,6.487c0,2.589 -0.8824,4.7481 -2.657,6.4968c-1.7745,1.7488 -3.966,2.5988 -6.5551,2.5988c-2.5697,0 -4.7127,-0.8891 -6.4485,-2.6574c-1.7358,-1.7488 -2.6053,-3.9437 -2.6085,-6.5847c0,-2.4913 0.8857,-4.6113 2.657,-6.3601c1.7648,-1.7488 3.9273,-2.6183 6.4679,-2.6183zm19.103,0c2.5406,0 4.7224,0.8793 6.5066,2.6379c1.7552,1.7585 2.6344,3.9208 2.6376,6.487c0,2.589 -0.8824,4.7481 -2.657,6.4968c-1.7745,1.7488 -3.966,2.5988 -6.5551,2.5988c-2.5697,0 -4.7128,-0.8891 -6.4485,-2.6574c-1.7455,-1.7488 -2.6085,-3.9469 -2.6085,-6.5847c0,-2.4913 0.8857,-4.6113 2.657,-6.3601c1.7648,-1.7488 3.9272,-2.6183 6.4679,-2.6183zm18.7155,3.5954c-1.4549,0 -2.6282,0.508 -3.5301,1.524c-0.9018,1.0161 -1.3575,2.3545 -1.3575,4.0056c0,1.6218 0.4557,2.9504 1.3575,4.0055c0.8922,1.0259 2.0655,1.5437 3.5201,1.5437c1.367,0 2.502,-0.5178 3.394,-1.5632c0.911,-1.0453 1.367,-2.3447 1.367,-3.9079c0,-1.651 -0.446,-2.9992 -1.338,-4.0348c-0.902,-1.0551 -2.036,-1.5729 -3.413,-1.5729zm-37.8185,-0.0098c-1.5127,0 -2.7345,0.508 -3.6751,1.524c-0.9406,1.0161 -1.4061,2.3252 -1.4061,3.9372c0,1.7195 0.4558,3.0872 1.3673,4.0935c0.9406,1.0161 2.1721,1.5241 3.7139,1.5241c1.5418,0 2.783,-0.4983 3.7139,-1.5046c0.931,-1.0062 1.3867,-2.3447 1.3867,-4.0251c0,-1.6803 -0.4654,-3.0188 -1.3867,-4.0251c-0.9406,-1.016 -2.1721,-1.524 -3.7139,-1.524zm19.103,0c-1.5127,0 -2.7345,0.508 -3.6752,1.524c-0.9406,1.0161 -1.406,2.3252 -1.406,3.9372c0,1.7195 0.4557,3.0872 1.3673,4.0935c0.9406,1.0161 2.1721,1.5241 3.7139,1.5241c1.5418,0 2.783,-0.4983 3.7139,-1.5046c0.9309,-1.0062 1.3867,-2.3447 1.3867,-4.0251c0,-1.6803 -0.4655,-3.0188 -1.3867,-4.0251c-0.9406,-1.016 -2.1721,-1.524 -3.7139,-1.524z" clip-rule="evenodd" fill-rule="evenodd"/>
  <path id="svg_16" fill="#96D3E1" d="m58.9719,31.0083l-3.0351,3.5268l-4.1018,-1.0746l7.1369,-2.4522l0,0z"/>
  <path id="svg_17" fill="#082330" d="m58.2738,33.3433l-2.7443,1.7487l-3.6945,-1.6315l6.4388,-0.1172l0,0z"/>
  <g id="svg_18">
   <path id="svg_1" fill="white" d="m24.73091,14.22221l0,-10.84502l3.66752,0c0.775,0 1.46499,0.13 2.06999,0.39c0.605,0.26 1.08,0.645 1.425,1.155c0.35,0.51 0.52499,1.1375 0.52499,1.8825c0,0.72 -0.16248,1.335 -0.48748,1.845c-0.32,0.51 -0.76752,0.8975 -1.34252,1.1625c-0.575,0.265 -1.24248,0.3975 -2.00248,0.3975l-2.43001,0l0,4.01252l-1.42501,0zm1.41752,-5.18252l2.4075,0c0.745,0 1.34998,-0.2075 1.81498,-0.6225c0.465,-0.415 0.69751,-0.98 0.69751,-1.695c0,-0.72 -0.24,-1.265 -0.72,-1.635c-0.48,-0.37 -1.1,-0.555 -1.86,-0.555l-2.33999,0l0,4.5075z"/>
   <path id="svg_2" fill="white" d="m36.37609,14.37221c-0.715,0 -1.34,-0.1525 -1.875,-0.4575c-0.53502,-0.31 -0.95001,-0.7625 -1.24501,-1.3575c-0.295,-0.59502 -0.44251,-1.32252 -0.44251,-2.18252c0,-0.81 0.13751,-1.52 0.41251,-2.13c0.275,-0.61 0.6775,-1.0825 1.20751,-1.4175c0.535,-0.34 1.1825,-0.51 1.9425,-0.51c0.715,0 1.335,0.1575 1.86,0.4725c0.53,0.31 0.94,0.7675 1.23,1.3725c0.29,0.605 0.435,1.3425 0.435,2.2125c0,0.79 -0.135,1.485 -0.405,2.08502c-0.265,0.6 -0.66,1.07 -1.185,1.41c-0.52,0.335 -1.165,0.5025 -1.935,0.5025zm0,-1.095c0.465,0 0.8575,-0.1175 1.1775,-0.3525c0.32,-0.235 0.5625,-0.5725 0.7275,-1.01252c0.165,-0.44 0.2475,-0.9625 0.2475,-1.5675c0,-0.555 -0.0725,-1.0525 -0.2175,-1.4925c-0.145,-0.445 -0.3775,-0.7975 -0.6975,-1.0575c-0.315,-0.26 -0.7275,-0.39 -1.2375,-0.39c-0.47,0 -0.8675,0.1175 -1.1925,0.3525c-0.325,0.23 -0.5725,0.565 -0.7425,1.005c-0.165,0.44 -0.2475,0.9675 -0.2475,1.5825c0,0.545 0.075,1.04 0.225,1.485c0.15,0.44502 0.385,0.79752 0.705,1.05752c0.32,0.26 0.7375,0.39 1.2525,0.39z"/>
   <path id="svg_3" fill="white" d="m51.16939,6.46719l-2.3475,7.75502l-1.365,0l-1.77,-5.72252l-1.68,5.72252l-1.3575,0l-2.3925,-7.75502l1.2825,0l1.7775,5.96252l0.12,0l1.7475,-5.96252l1.05,0l1.815,5.94752l0.12,0l1.7025,-5.94752l1.2975,0z"/>
   <path id="svg_4" fill="white" d="m52.98969,10.66719c0,0.49 0.0799,0.935 0.2399,1.335c0.165,0.39502 0.4125,0.71002 0.7425,0.94502c0.335,0.235 0.7525,0.3525 1.2525,0.3525c0.495,0 0.92,-0.115 1.275,-0.345c0.36,-0.23 0.59,-0.5625 0.69,-0.99752l1.3125,0c-0.095,0.52502 -0.305,0.96752 -0.63,1.32752c-0.325,0.36 -0.7175,0.6325 -1.1775,0.8175c-0.46,0.18 -0.94,0.27 -1.44,0.27c-0.725,0 -1.3625,-0.1575 -1.9125,-0.4725c-0.55,-0.315 -0.9799,-0.7675 -1.2899,-1.3575c-0.31,-0.59002 -0.4651,-1.29752 -0.4651,-2.12252c0,-0.815 0.14,-1.53 0.42,-2.145c0.28,-0.615 0.685,-1.095 1.215,-1.44c0.535,-0.345 1.1775,-0.5175 1.9275,-0.5175c0.73,0 1.3475,0.1575 1.8525,0.4725c0.505,0.315 0.8875,0.76 1.1475,1.335c0.265,0.57 0.3975,1.2475 0.3975,2.0325l0,0.51l-5.5574,0zm0.0074,-0.9375l4.215,0c0,-0.445 -0.075,-0.845 -0.225,-1.2c-0.15,-0.36 -0.38,-0.6425 -0.69,-0.8475c-0.305,-0.21 -0.69,-0.315 -1.155,-0.315c-0.485,0 -0.8875,0.1175 -1.2075,0.3525c-0.315,0.23 -0.5525,0.5275 -0.7125,0.8925c-0.155,0.36 -0.23,0.7325 -0.225,1.1175z"/>
   <path id="svg_5" fill="white" d="m59.98299,14.22221l0,-7.75502l1.32,0l0,1.4925c0.13,-0.37 0.3126,-0.675 0.5476,-0.915c0.235,-0.245 0.5024,-0.4275 0.8024,-0.5475c0.305,-0.12 0.6201,-0.18 0.9451,-0.18c0.115,0 0.2274,0.0075 0.3374,0.0225c0.11,0.015 0.195,0.04 0.255,0.075l0,1.3425c-0.075,-0.035 -0.1725,-0.0575 -0.2925,-0.0675c-0.115,-0.015 -0.2125,-0.0225 -0.2925,-0.0225c-0.31,-0.02 -0.6,0 -0.87,0.06c-0.27,0.055 -0.5075,0.1525 -0.7125,0.2925c-0.205,0.14 -0.3674,0.325 -0.4874,0.555c-0.115,0.225 -0.1726,0.5 -0.1726,0.825l0,4.82252l-1.38,0z"/>
   <path id="svg_6" fill="white" d="m66.14389,10.66719c0,0.49 0.08,0.935 0.24,1.335c0.165,0.39502 0.4125,0.71002 0.7425,0.94502c0.335,0.235 0.7525,0.3525 1.2525,0.3525c0.495,0 0.92,-0.115 1.275,-0.345c0.36,-0.23 0.59,-0.5625 0.69,-0.99752l1.3125,0c-0.095,0.52502 -0.305,0.96752 -0.63,1.32752c-0.325,0.36 -0.7175,0.6325 -1.1775,0.8175c-0.46,0.18 -0.94,0.27 -1.44,0.27c-0.725,0 -1.3625,-0.1575 -1.9125,-0.4725c-0.55,-0.315 -0.98,-0.7675 -1.29,-1.3575c-0.31,-0.59002 -0.465,-1.29752 -0.465,-2.12252c0,-0.815 0.14,-1.53 0.42,-2.145c0.28,-0.615 0.685,-1.095 1.215,-1.44c0.535,-0.345 1.1775,-0.5175 1.9275,-0.5175c0.73,0 1.3475,0.1575 1.8525,0.4725c0.505,0.315 0.8875,0.76 1.1475,1.335c0.265,0.57 0.3975,1.2475 0.3975,2.0325l0,0.51l-5.5575,0zm0.0075,-0.9375l4.215,0c0,-0.445 -0.075,-0.845 -0.225,-1.2c-0.15,-0.36 -0.38,-0.6425 -0.69,-0.8475c-0.305,-0.21 -0.69,-0.315 -1.155,-0.315c-0.485,0 -0.8875,0.1175 -1.2075,0.3525c-0.315,0.23 -0.5525,0.5275 -0.7125,0.8925c-0.155,0.36 -0.23,0.7325 -0.225,1.1175z"/>
   <path id="svg_7" fill="white" d="m75.93479,14.37221c-1.005,0 -1.8025,-0.345 -2.3925,-1.035c-0.59,-0.69 -0.885,-1.69752 -0.885,-3.02252c0,-0.805 0.1175,-1.5075 0.3525,-2.1075c0.24,-0.6 0.595,-1.065 1.065,-1.395c0.47,-0.33 1.055,-0.495 1.755,-0.495c0.37,0 0.6975,0.0475 0.9825,0.1425c0.29,0.095 0.54,0.215 0.75,0.36c0.21,0.145 0.38,0.295 0.51,0.45c0.135,0.155 0.235,0.2975 0.3,0.4275l0,-4.62l1.395,0l0,11.14502l-1.0575,0l-0.15,-1.59c-0.05,0.15 -0.13,0.325 -0.24,0.525c-0.11,0.195 -0.265,0.3875 -0.465,0.5775c-0.2,0.185 -0.4575,0.3375 -0.7725,0.4575c-0.31,0.12 -0.6925,0.18 -1.1475,0.18zm0.2475,-1.065c0.785,0 1.345,-0.2375 1.68,-0.7125c0.34,-0.48002 0.51,-1.26252 0.51,-2.34752c-0.005,-0.605 -0.0825,-1.12 -0.2325,-1.545c-0.145,-0.425 -0.375,-0.7475 -0.69,-0.9675c-0.31,-0.225 -0.7225,-0.3375 -1.2375,-0.3375c-0.64,0 -1.16,0.2275 -1.56,0.6825c-0.4,0.455 -0.6,1.1775 -0.6,2.1675c0,0.97 0.18,1.7225 0.54,2.25752c0.365,0.535 0.895,0.8025 1.59,0.8025z"/>
   <path id="svg_8" fill="white" d="m88.41029,14.37221c-0.455,0 -0.84,-0.06 -1.155,-0.18c-0.31,-0.12 -0.565,-0.2725 -0.765,-0.4575c-0.2,-0.19 -0.355,-0.3825 -0.465,-0.5775c-0.11,-0.2 -0.19,-0.375 -0.24,-0.525l-0.15,1.59l-1.0575,0l0,-11.14502l1.395,0l0,4.62c0.065,-0.13 0.1625,-0.2725 0.2925,-0.4275c0.135,-0.155 0.3075,-0.305 0.5175,-0.45c0.21,-0.145 0.4575,-0.265 0.7425,-0.36c0.29,-0.095 0.62,-0.1425 0.99,-0.1425c0.97,0 1.74,0.3375 2.31,1.0125c0.575,0.675 0.8625,1.67 0.8625,2.985c0,0.815 -0.1225,1.5275 -0.3675,2.13752c-0.245,0.605 -0.61,1.0775 -1.095,1.4175c-0.485,0.335 -1.09,0.5025 -1.815,0.5025zm-0.2475,-1.065c0.63,0 1.1425,-0.2425 1.5375,-0.7275c0.395,-0.49002 0.5925,-1.26752 0.5925,-2.33252c0,-0.905 -0.185,-1.605 -0.555,-2.1c-0.365,-0.5 -0.9,-0.75 -1.605,-0.75c-0.515,0 -0.93,0.1125 -1.245,0.3375c-0.31,0.22 -0.54,0.5425 -0.69,0.9675c-0.145,0.425 -0.22,0.94 -0.225,1.545c0,1.085 0.1675,1.8675 0.5025,2.34752c0.34,0.475 0.9025,0.7125 1.6875,0.7125z"/>
   <path id="svg_9" fill="white" d="m93.51659,16.69721c-0.455,0 -0.7675,-0.0325 -0.9375,-0.0975c-0.17,-0.065 -0.255,-0.0975 -0.255,-0.0975l0,-0.9l0.7875,0.015c0.29,0.01 0.53,-0.01 0.72,-0.06c0.19,-0.05 0.3425,-0.1175 0.4575,-0.2025c0.115,-0.085 0.2025,-0.18 0.2625,-0.285c0.065,-0.105 0.1175,-0.205 0.1575,-0.3l0.27,-0.735l-3.03,-7.56752l1.4025,0l2.2875,5.98502l2.2725,-5.98502l1.3575,0l-3.27,8.34002c-0.2,0.49 -0.425,0.8725 -0.675,1.1475c-0.245,0.275 -0.52,0.4675 -0.825,0.5775c-0.3,0.11 -0.6275,0.165 -0.9825,0.165z"/>
  </g>
 </g>
</svg>