<svg width="154" height="132" viewBox="0 0 154 132" fill="none" xmlns="http://www.w3.org/2000/svg">
<path d="M77 25.2C96.934 25.2 113.094 41.318 113.094 61.2C113.094 81.082 96.934 97.2 77 97.2C57.066 97.2 40.906 81.082 40.906 61.2C40.906 41.318 57.066 25.2 77 25.2V25.2ZM77 27.6C58.395 27.6 43.312 42.643 43.312 61.2C43.312 79.757 58.395 94.8 77 94.8C95.605 94.8 110.688 79.757 110.688 61.2C110.688 42.643 95.605 27.6 77 27.6V27.6Z" fill="#46C8B8" fill-opacity="0.3" stroke="#46C8B8"/>
<path fill-rule="evenodd" clip-rule="evenodd" d="M82.423 68.339V70.922L76.73 65.188L82.423 59.446V62.556H86.84V45.274C86.84 44.288 86.024 43.473 85.072 43.473H67.01C66.06 43.473 65.244 44.288 65.244 45.274V77.854C65.244 78.879 66.059 79.647 67.01 79.647H85.073C86.025 79.647 86.841 78.879 86.841 77.853V68.34H82.424L82.423 68.339Z" stroke="#46C8B8" stroke-width="2" stroke-linejoin="round"/>
<path d="M86.84 73.746H65.242V49.33H86.84" stroke="#46C8B8" stroke-linejoin="round"/>
<path d="M74.84 76.807H77.243" stroke="#46C8B8" stroke-linecap="round" stroke-linejoin="round"/>
<path fill-rule="evenodd" clip-rule="evenodd" d="M82.423 68.339H87.394C89.531 68.339 91.224 66.665 91.224 64.541V59.494C91.224 59.348 91.199 59.25 91.184 59.107C90.964 61.032 89.398 62.556 87.394 62.556H82.423V59.446L76.73 65.188L82.423 70.922V68.339V68.339Z" stroke="#46C8B8" stroke-width="2" stroke-linecap="round" stroke-linejoin="round"/>
</svg>
