<svg width="215" height="155" viewBox="0 0 215 155" fill="none" xmlns="http://www.w3.org/2000/svg">
<g clip-path="url(#clip0)">
<path d="M155 98C155 72.0426 133.957 51 108 51C82.0426 51 61 72.0426 61 98C61 123.957 82.0426 145 108 145C133.957 145 155 123.957 155 98Z" fill="#F9FAFB" stroke="#46C8B8" stroke-width="2"/>
<path d="M20.8 107.2C20.8 58.82 60.02 19.6 108.4 19.6C156.78 19.6 196 58.82 196 107.2" stroke="#CED7DE"/>
<path d="M41.9 106C41.9 95.0095 32.9905 86.1 22 86.1C11.0095 86.1 2.10001 95.0095 2.10001 106C2.10001 116.99 11.0095 125.9 22 125.9C32.9905 125.9 41.9 116.99 41.9 106Z" fill="#F9FAFB" stroke="#CED7DE"/>
<path d="M68.3 46C68.3 35.0095 59.3905 26.1 48.4 26.1C37.4095 26.1 28.5 35.0095 28.5 46C28.5 56.9905 37.4095 65.9 48.4 65.9C59.3905 65.9 68.3 56.9905 68.3 46Z" fill="#F9FAFB" stroke="#CED7DE"/>
<path fill-rule="evenodd" clip-rule="evenodd" d="M48.48 34.137C42.02 34.137 36.693 39.412 36.693 45.922C36.693 52.38 42.02 57.679 48.48 57.679C54.992 57.679 60.267 52.38 60.267 45.922C60.267 39.412 54.992 34.137 48.48 34.137ZM48.48 58.747C41.414 58.747 35.654 52.987 35.654 45.922C35.654 38.805 41.414 33.045 48.48 33.045C55.6 33.045 61.358 38.805 61.358 45.922C61.358 52.987 55.599 58.747 48.48 58.747Z" fill="#46C8B8"/>
<path fill-rule="evenodd" clip-rule="evenodd" d="M48.48 37.322C43.77 37.322 39.932 41.159 39.932 45.922C39.932 50.632 43.77 54.47 48.48 54.47C53.245 54.47 57.082 50.632 57.082 45.922C57.082 41.159 53.245 37.322 48.48 37.322ZM48.48 55.562C43.162 55.562 38.84 51.241 38.84 45.922C38.84 40.552 43.162 36.23 48.48 36.23C53.798 36.23 58.173 40.552 58.173 45.922C58.173 51.241 53.798 55.562 48.48 55.562Z" fill="#46C8B8"/>
<path d="M44.844 49V46.32H47.676V45.656H44.844V43.672H47.996L48 43H44V49H44.844ZM48.842 49L50.436 46.527L52.055 49H53L50.907 45.859L52.814 43H51.972L50.498 45.286L49.012 43H48.07L50.023 45.938L48 49H48.842Z" fill="#46C8B8"/>
<path d="M214.3 106.4C214.3 95.4095 205.39 86.5 194.4 86.5C183.41 86.5 174.5 95.4095 174.5 106.4C174.5 117.39 183.41 126.3 194.4 126.3C205.39 126.3 214.3 117.39 214.3 106.4Z" fill="#F9FAFB" stroke="#CED7DE"/>
<path d="M188.3 46C188.3 35.0095 179.39 26.1 168.4 26.1C157.41 26.1 148.5 35.0095 148.5 46C148.5 56.9905 157.41 65.9 168.4 65.9C179.39 65.9 188.3 56.9905 188.3 46Z" fill="#F9FAFB" stroke="#CED7DE"/>
<path d="M131.3 22.4C131.3 11.4095 122.39 2.5 111.4 2.5C100.41 2.5 91.5 11.4095 91.5 22.4C91.5 33.3905 100.41 42.3 111.4 42.3C122.39 42.3 131.3 33.3905 131.3 22.4Z" fill="#F9FAFB" stroke="#CED7DE"/>
<path fill-rule="evenodd" clip-rule="evenodd" d="M188.965 95.912C188.888 95.9098 188.812 95.9233 188.74 95.9517C188.669 95.98 188.604 96.0227 188.55 96.077C188.496 96.1313 188.453 96.1961 188.425 96.2675C188.396 96.3388 188.383 96.4152 188.385 96.492V115.206C188.385 115.529 188.634 115.787 188.965 115.787H199.293C199.37 115.788 199.446 115.774 199.517 115.746C199.588 115.717 199.653 115.674 199.707 115.62C199.762 115.566 199.804 115.502 199.833 115.431C199.862 115.36 199.877 115.284 199.876 115.207V96.49C199.878 96.4131 199.864 96.3367 199.835 96.2654C199.806 96.1941 199.764 96.1293 199.709 96.0751C199.654 96.021 199.589 95.9785 199.518 95.9502C199.446 95.922 199.37 95.9087 199.293 95.911H188.965V95.912ZM199.293 116.699H188.965C188.57 116.697 188.191 116.539 187.912 116.26C187.633 115.98 187.475 115.601 187.474 115.206V96.491C187.474 95.672 188.146 95.001 188.964 95.001H199.293C200.113 95.001 200.785 95.672 200.785 96.491V115.206C200.785 116.026 200.113 116.699 199.293 116.699Z" fill="#46C8B8"/>
<path fill-rule="evenodd" clip-rule="evenodd" d="M188.386 112.391H199.876V99.255H188.386V112.391ZM200.329 113.288H187.93C187.811 113.289 187.697 113.243 187.612 113.16C187.527 113.078 187.477 112.965 187.474 112.847V98.799C187.474 98.566 187.675 98.364 187.93 98.364H200.329C200.447 98.3624 200.561 98.407 200.646 98.4883C200.731 98.5697 200.781 98.6812 200.785 98.799V112.847C200.782 112.965 200.732 113.078 200.647 113.16C200.562 113.243 200.448 113.289 200.329 113.288V113.288ZM194.806 115.04H193.452C193.392 115.041 193.332 115.029 193.277 115.006C193.221 114.984 193.171 114.95 193.128 114.908C193.085 114.865 193.052 114.815 193.029 114.759C193.006 114.704 192.995 114.644 192.995 114.584C192.995 114.33 193.197 114.128 193.452 114.128H194.806C195.06 114.128 195.262 114.33 195.262 114.584C195.262 114.644 195.251 114.703 195.228 114.759C195.205 114.814 195.172 114.865 195.129 114.907C195.087 114.95 195.036 114.983 194.981 115.006C194.925 115.029 194.866 115.04 194.806 115.04" fill="#46C8B8"/>
<path fill-rule="evenodd" clip-rule="evenodd" d="M31.252 115.05H10.478C10.4181 115.05 10.3588 115.039 10.3034 115.016C10.248 114.993 10.1977 114.96 10.1554 114.918C10.1131 114.875 10.0796 114.825 10.0568 114.77C10.0341 114.714 10.0226 114.655 10.023 114.595C10.023 114.341 10.224 114.14 10.478 114.14H31.252C31.505 114.14 31.707 114.341 31.707 114.595C31.7074 114.655 31.6959 114.714 31.6732 114.77C31.6505 114.825 31.617 114.875 31.5746 114.918C31.5323 114.96 31.482 114.993 31.4266 115.016C31.3712 115.039 31.3119 115.05 31.252 115.05Z" fill="#46C8B8"/>
<path fill-rule="evenodd" clip-rule="evenodd" d="M30.712 115.585C30.156 115.585 29.707 115.135 29.707 114.595C29.708 114.464 29.7349 114.335 29.7859 114.214C29.837 114.094 29.9113 113.984 30.0047 113.892C30.098 113.801 30.2085 113.728 30.3298 113.679C30.4512 113.63 30.5811 113.605 30.712 113.606C31.258 113.606 31.707 114.049 31.707 114.596C31.7044 114.859 31.5985 115.11 31.4124 115.295C31.2262 115.48 30.9746 115.585 30.712 115.586V115.585ZM11.013 115.585C10.7511 115.583 10.5005 115.478 10.3153 115.293C10.1301 115.108 10.0251 114.857 10.023 114.595C10.023 114.049 10.472 113.606 11.013 113.606C11.553 113.606 12.002 114.049 12.002 114.596C12.002 115.136 11.552 115.586 11.012 115.586L11.013 115.585ZM13.28 114.14H14.934V112.183H13.28V114.14ZM15.389 115.05H12.826C12.7661 115.05 12.7068 115.039 12.6514 115.016C12.596 114.993 12.5457 114.96 12.5034 114.918C12.461 114.875 12.4275 114.825 12.4048 114.77C12.3821 114.714 12.3706 114.655 12.371 114.595V111.729C12.371 111.475 12.572 111.274 12.826 111.274H15.389C15.5068 111.278 15.6184 111.327 15.6999 111.412C15.7815 111.498 15.8264 111.611 15.825 111.729V114.595C15.8264 114.713 15.7815 114.826 15.6999 114.912C15.6184 114.997 15.5068 115.046 15.389 115.05V115.05ZM17.785 114.14H19.439V104.971H17.785V114.14V114.14ZM19.895 115.05H17.331C17.2711 115.05 17.2118 115.039 17.1564 115.016C17.101 114.993 17.0507 114.96 17.0084 114.918C16.966 114.875 16.9325 114.825 16.9098 114.77C16.8871 114.714 16.8756 114.655 16.876 114.595V104.516C16.876 104.262 17.077 104.061 17.331 104.061H19.895C20.126 104.061 20.327 104.262 20.327 104.516V114.595C20.3292 114.712 20.2851 114.826 20.2042 114.911C20.1234 114.996 20.0123 115.046 19.895 115.05V115.05ZM22.291 114.14H23.945V107.679H22.291V114.14V114.14ZM24.391 115.05H21.836C21.7761 115.05 21.7168 115.039 21.6614 115.016C21.606 114.993 21.5557 114.96 21.5134 114.918C21.471 114.875 21.4375 114.825 21.4148 114.77C21.3921 114.714 21.3806 114.655 21.381 114.595V107.224C21.381 106.97 21.582 106.769 21.836 106.769H24.391C24.5098 106.771 24.623 106.82 24.7058 106.905C24.7886 106.991 24.8343 107.105 24.833 107.224V114.595C24.8343 114.714 24.7886 114.828 24.7058 114.914C24.623 114.999 24.5098 115.048 24.391 115.05V115.05ZM26.795 114.14H28.449V98.668H26.795V114.14ZM28.883 115.05H26.34C26.2802 115.05 26.2209 115.039 26.1656 115.016C26.1102 114.993 26.06 114.96 26.0177 114.918C25.9755 114.875 25.9421 114.825 25.9195 114.77C25.8968 114.714 25.8855 114.655 25.886 114.595V98.213C25.886 97.96 26.087 97.758 26.34 97.758H28.883C29.136 97.758 29.337 97.96 29.337 98.213V114.595C29.3375 114.655 29.3262 114.714 29.3035 114.77C29.2809 114.825 29.2475 114.875 29.2053 114.918C29.163 114.96 29.1128 114.993 29.0574 115.016C29.0021 115.039 28.9428 115.05 28.883 115.05V115.05Z" fill="#46C8B8"/>
<path fill-rule="evenodd" clip-rule="evenodd" d="M11.012 110C10.9314 109.997 10.8519 109.98 10.777 109.95C10.6776 109.886 10.6067 109.786 10.5791 109.671C10.5516 109.556 10.5694 109.434 10.629 109.332L15.001 102.07C15.0368 102.013 15.0845 101.964 15.1409 101.926C15.1973 101.889 15.2612 101.864 15.328 101.854L21.559 101.098L25.652 94.478C25.7159 94.3747 25.8183 94.301 25.9365 94.2732C26.0547 94.2453 26.1792 94.2656 26.2825 94.3295C26.3858 94.3934 26.4595 94.4957 26.4873 94.614C26.5152 94.7322 26.4949 94.8567 26.431 94.96L22.216 101.76C22.1793 101.814 22.1321 101.861 22.0771 101.897C22.0222 101.933 21.9606 101.958 21.896 101.97L15.647 102.727L11.397 109.78C11.324 109.937 11.159 110 11.012 110" fill="#46C8B8"/>
<path fill-rule="evenodd" clip-rule="evenodd" d="M15.38 103.404C14.805 103.404 14.368 102.944 14.368 102.391C14.3654 102.257 14.3898 102.125 14.4398 102.001C14.4897 101.877 14.5642 101.764 14.6587 101.67C14.7531 101.575 14.8657 101.501 14.9897 101.451C15.1136 101.401 15.2464 101.376 15.38 101.379C15.933 101.379 16.393 101.817 16.393 102.391C16.393 102.944 15.933 103.404 15.38 103.404ZM11.013 110.464C10.46 110.464 10 110.004 10 109.451C10 108.899 10.46 108.439 11.013 108.439C11.565 108.439 12.025 108.899 12.025 109.451C12.025 110.004 11.565 110.464 11.013 110.464V110.464ZM21.836 102.558C21.5681 102.556 21.3116 102.449 21.1221 102.26C20.9325 102.07 20.8251 101.814 20.823 101.546C20.823 100.99 21.283 100.533 21.836 100.533C22.389 100.533 22.848 100.99 22.848 101.546C22.8459 101.814 22.7386 102.07 22.5493 102.259C22.3599 102.449 22.1038 102.556 21.836 102.558ZM25.783 96.092C25.6492 96.0943 25.5162 96.0696 25.3922 96.0194C25.2681 95.9692 25.1554 95.8945 25.0608 95.7997C24.9663 95.705 24.8918 95.5921 24.8418 95.468C24.7919 95.3438 24.7674 95.2108 24.77 95.077C24.77 94.524 25.21 94.064 25.783 94.064C26.335 94.064 26.795 94.524 26.795 95.077C26.795 95.652 26.335 96.092 25.783 96.092Z" fill="#46C8B8"/>
<path fill-rule="evenodd" clip-rule="evenodd" d="M160.457 39.289V46.021C160.457 51.189 163.707 55.831 168.563 57.631C173.417 55.831 176.676 51.189 176.676 46.021V39.289C173.672 39.817 170.506 39.307 168.569 38.075C166.662 39.294 163.418 39.817 160.457 39.289ZM168.563 58.574C168.513 58.5729 168.463 58.5628 168.417 58.544C163.117 56.648 159.545 51.624 159.545 46.021V38.749C159.545 38.599 159.615 38.477 159.731 38.397C159.781 38.3525 159.841 38.3209 159.907 38.3049C159.972 38.2888 160.04 38.2889 160.105 38.305C161.011 38.501 161.915 38.593 162.831 38.593C165.021 38.593 167.067 38.059 168.306 37.173C168.382 37.1142 168.475 37.0823 168.571 37.0823C168.668 37.0823 168.761 37.1142 168.837 37.173C170.093 38.059 172.137 38.593 174.299 38.593C175.232 38.593 176.113 38.501 177.04 38.305C177.106 38.2916 177.173 38.293 177.238 38.3092C177.303 38.3253 177.364 38.3558 177.416 38.3983C177.468 38.4409 177.509 38.4944 177.538 38.5551C177.566 38.6158 177.58 38.682 177.58 38.749V46.021C177.58 51.625 174.021 56.648 168.714 58.545C168.666 58.5655 168.614 58.5754 168.562 58.574H168.563Z" fill="#46C8B8"/>
<path fill-rule="evenodd" clip-rule="evenodd" d="M164.965 43.862V46.93C164.965 49.462 166.372 51.64 168.563 52.48C170.756 51.64 172.182 49.462 172.182 46.93V43.86C171.898 43.8859 171.613 43.8979 171.328 43.896C170.236 43.896 169.257 43.655 168.511 43.218C167.778 43.662 166.851 43.896 165.791 43.896C165.515 43.8983 165.24 43.8869 164.965 43.862V43.862ZM168.563 53.425C168.513 53.4245 168.463 53.4143 168.417 53.395C165.772 52.459 164.054 49.909 164.054 46.93V43.293C164.054 42.933 164.508 42.725 164.777 42.909C164.943 42.946 165.386 42.985 165.791 42.985C166.784 42.985 167.641 42.749 168.257 42.305C168.334 42.2551 168.423 42.2286 168.514 42.2286C168.606 42.2286 168.695 42.2551 168.772 42.305C169.369 42.735 170.309 42.985 171.328 42.985C171.745 42.985 172.185 42.945 172.373 42.908C172.622 42.726 173.071 42.934 173.071 43.293V46.93C173.071 49.909 171.368 52.459 168.715 53.395C168.667 53.4162 168.615 53.4264 168.563 53.425" fill="#46C8B8"/>
<path fill-rule="evenodd" clip-rule="evenodd" d="M167.715 49.564C167.656 49.563 167.598 49.5496 167.544 49.5246C167.491 49.4996 167.444 49.4636 167.405 49.419C167.364 49.3783 167.331 49.3298 167.309 49.2765C167.287 49.2231 167.275 49.1658 167.275 49.108C167.275 49.0502 167.287 48.9929 167.309 48.9395C167.331 48.8862 167.364 48.8377 167.405 48.797L169.965 46.217C170.051 46.1339 170.166 46.0874 170.285 46.0874C170.404 46.0874 170.519 46.1339 170.605 46.217C170.688 46.3028 170.735 46.4176 170.735 46.537C170.735 46.6564 170.688 46.7712 170.605 46.857L168.045 49.419C168.003 49.4646 167.952 49.501 167.895 49.526C167.838 49.5509 167.777 49.5639 167.715 49.564" fill="#46C8B8"/>
<path fill-rule="evenodd" clip-rule="evenodd" d="M167.698 49.564C167.64 49.5615 167.582 49.5474 167.529 49.5225C167.477 49.4976 167.429 49.4624 167.39 49.419L166.52 48.569C166.436 48.4834 166.39 48.3686 166.39 48.249C166.39 48.1294 166.436 48.0145 166.52 47.929C166.605 47.8456 166.72 47.7988 166.839 47.7988C166.958 47.7988 167.073 47.8456 167.158 47.929L168.03 48.797C168.071 48.8377 168.104 48.8862 168.126 48.9395C168.148 48.9929 168.16 49.0502 168.16 49.108C168.16 49.1658 168.148 49.2231 168.126 49.2764C168.104 49.3298 168.071 49.3783 168.03 49.419C167.988 49.4648 167.936 49.5014 167.879 49.5264C167.822 49.5513 167.76 49.5641 167.698 49.564" fill="#46C8B8"/>
<path d="M212 57H204C203.448 57 203 57.4477 203 58C203 58.5523 203.448 59 204 59H212C212.552 59 213 58.5523 213 58C213 57.4477 212.552 57 212 57Z" fill="#E8EFF8"/>
<path d="M191 12H183C182.448 12 182 12.4477 182 13C182 13.5523 182.448 14 183 14H191C191.552 14 192 13.5523 192 13C192 12.4477 191.552 12 191 12Z" fill="#E8EFF8"/>
<path d="M26 7H18C17.4477 7 17 7.44772 17 8C17 8.55228 17.4477 9 18 9H26C26.5523 9 27 8.55228 27 8C27 7.44772 26.5523 7 26 7Z" fill="#E8EFF8"/>
<path d="M73 2H65C64.4477 2 64 2.44772 64 3C64 3.55228 64.4477 4 65 4H73C73.5523 4 74 3.55228 74 3C74 2.44772 73.5523 2 73 2Z" fill="#E8EFF8"/>
<path d="M9 53H1C0.447715 53 0 53.4477 0 54C0 54.5523 0.447715 55 1 55H9C9.55229 55 10 54.5523 10 54C10 53.4477 9.55229 53 9 53Z" fill="#E8EFF8"/>
<path d="M160 0H152C151.448 0 151 0.447715 151 1C151 1.55228 151.448 2 152 2H160C160.552 2 161 1.55228 161 1C161 0.447715 160.552 0 160 0Z" fill="#E8EFF8"/>
<path fill-rule="evenodd" clip-rule="evenodd" d="M90.6 77.886C90.2786 77.8841 89.96 77.9461 89.6627 78.0683C89.3654 78.1905 89.0953 78.3704 88.868 78.5977C88.6408 78.8251 88.461 79.0952 88.3389 79.3926C88.2168 79.69 88.155 80.0086 88.157 80.33V114.894C88.1547 115.216 88.2164 115.535 88.3384 115.832C88.4604 116.13 88.6403 116.4 88.8677 116.628C89.0951 116.855 89.3654 117.036 89.6629 117.158C89.9605 117.28 90.2793 117.342 90.601 117.34H125.165C125.487 117.342 125.806 117.28 126.104 117.158C126.401 117.036 126.672 116.856 126.899 116.628C127.127 116.401 127.307 116.13 127.429 115.833C127.551 115.535 127.613 115.216 127.611 114.894V80.33C127.613 80.0084 127.551 79.6895 127.429 79.3921C127.306 79.0946 127.126 78.8243 126.899 78.597C126.671 78.3696 126.401 78.1897 126.103 78.0677C125.806 77.9456 125.487 77.8839 125.165 77.886H90.6ZM125.165 119.116H90.6C88.226 119.116 86.336 117.224 86.336 114.894V80.33C86.3328 79.7692 86.4409 79.2133 86.6541 78.6945C86.8673 78.1757 87.1812 77.7044 87.5778 77.3078C87.9744 76.9112 88.4457 76.5973 88.9645 76.3841C89.4833 76.1709 90.0392 76.0628 90.6 76.066H125.164C127.494 76.066 129.41 77.956 129.41 80.33V114.894C129.41 117.224 127.494 119.116 125.164 119.116H125.165Z" fill="#46C8B8"/>
<path fill-rule="evenodd" clip-rule="evenodd" d="M106.968 119.116H108.772V76.066H106.968V119.116Z" fill="#46C8B8"/>
<path fill-rule="evenodd" clip-rule="evenodd" d="M86.336 98.502H129.41V96.682H86.336V98.502ZM96.39 92.846H98.21V82.472H96.39V92.846Z" fill="#46C8B8"/>
<path fill-rule="evenodd" clip-rule="evenodd" d="M92.134 88.548H102.468V86.772H92.134V88.548ZM114.248 107.89H122.636V106.072H114.248V107.89ZM114.248 111.486H122.636V109.71H114.248V111.486ZM100.346 113.08L93.022 105.755L94.302 104.477L101.626 111.801L100.346 113.08Z" fill="#46C8B8"/>
<path fill-rule="evenodd" clip-rule="evenodd" d="M94.3 113.08L93.023 111.801L100.345 104.477L101.625 105.755L94.3 113.08ZM113.256 88.548H123.63V86.772H113.256V88.548Z" fill="#46C8B8"/>
<path fill-rule="evenodd" clip-rule="evenodd" d="M104.218 20.029H103.003C102.943 20.0312 102.882 20.021 102.826 19.9989C102.77 19.9769 102.719 19.9434 102.676 19.9007C102.634 19.858 102.6 19.8069 102.578 19.7507C102.556 19.6945 102.546 19.6343 102.548 19.574C102.548 19.334 102.728 19.133 103.003 19.133H104.218C104.45 19.133 104.648 19.335 104.648 19.573C104.651 19.6903 104.607 19.8039 104.527 19.8893C104.446 19.9746 104.335 20.0248 104.218 20.029V20.029ZM116.387 22.4H114.859C114.801 22.4026 114.742 22.3933 114.687 22.3727C114.633 22.3521 114.582 22.3206 114.54 22.2801C114.498 22.2397 114.464 22.1911 114.441 22.1373C114.418 22.0835 114.406 22.0255 114.406 21.967C114.406 21.713 114.585 21.512 114.859 21.512H116.387C116.617 21.512 116.841 21.713 116.841 21.967C116.841 22.198 116.618 22.4 116.387 22.4ZM104.621 24.569C104.595 24.5691 104.569 24.5668 104.543 24.562C104.323 24.542 104.195 24.394 104.17 24.172L103.813 21.117C103.783 20.865 103.934 20.639 104.207 20.607C104.447 20.575 104.648 20.766 104.674 21.001L104.867 22.508L106.302 19.385C106.359 19.2774 106.454 19.1952 106.569 19.1545C106.684 19.1137 106.81 19.1175 106.922 19.165C107.127 19.282 107.235 19.542 107.118 19.763L105.028 24.325C104.991 24.4007 104.933 24.4641 104.861 24.5074C104.788 24.5507 104.705 24.5721 104.621 24.569V24.569ZM107.107 24.569C107.08 24.569 107.008 24.554 106.94 24.542C106.695 24.45 106.626 24.152 106.7 23.947L108.836 19.385C108.953 19.155 109.208 19.073 109.456 19.165C109.661 19.282 109.769 19.542 109.652 19.763L107.515 24.326C107.475 24.506 107.295 24.569 107.107 24.569" fill="#46C8B8"/>
<path fill-rule="evenodd" clip-rule="evenodd" d="M116.991 24.569C116.891 24.5712 116.793 24.5394 116.713 24.4787C116.633 24.4181 116.576 24.3322 116.551 24.235L115.724 20.93L114.142 24.325C114.093 24.4285 114.005 24.509 113.898 24.5494C113.791 24.5899 113.672 24.5872 113.567 24.542C113.511 24.52 113.461 24.4869 113.418 24.4447C113.376 24.4024 113.342 24.352 113.32 24.2965C113.297 24.2409 113.286 24.1814 113.287 24.1215C113.289 24.0616 113.302 24.0025 113.327 23.948L115.46 19.385C115.501 19.3016 115.567 19.2329 115.649 19.1878C115.73 19.1428 115.823 19.1237 115.916 19.133C116.082 19.141 116.256 19.293 116.308 19.476L117.431 24.038C117.498 24.261 117.335 24.533 117.112 24.554C117.073 24.5638 117.032 24.5688 116.992 24.569H116.991ZM112.589 22.196H110.363C110.285 22.1973 110.208 22.1792 110.138 22.1434C110.069 22.1077 110.009 22.0553 109.965 21.991C109.912 21.8573 109.91 21.7086 109.961 21.574L110.97 19.384C111.006 19.3072 111.064 19.2426 111.137 19.1981C111.209 19.1536 111.293 19.1309 111.378 19.133H113.628C113.863 19.133 114.045 19.335 114.045 19.573C114.045 19.828 113.863 20.029 113.629 20.029H111.652L111.081 21.308H112.589C112.819 21.308 113.044 21.508 113.044 21.763C113.044 21.993 112.82 22.196 112.589 22.196" fill="#46C8B8"/>
<path fill-rule="evenodd" clip-rule="evenodd" d="M111.594 24.569H109.244C109.013 24.569 108.789 24.389 108.789 24.132C108.789 23.882 109.013 23.704 109.244 23.704H111.274L112.187 21.672C112.3 21.442 112.551 21.352 112.801 21.442C113.009 21.555 113.121 21.806 113.009 22.036L111.996 24.318C111.929 24.498 111.751 24.568 111.594 24.568" fill="#46C8B8"/>
<path fill-rule="evenodd" clip-rule="evenodd" d="M101.927 16.172C101.759 16.1757 101.599 16.2456 101.482 16.3665C101.365 16.4875 101.3 16.6497 101.302 16.818V26.912C101.301 26.9943 101.317 27.0758 101.348 27.152C101.379 27.2281 101.425 27.2972 101.484 27.3554C101.542 27.4136 101.611 27.4596 101.687 27.4908C101.763 27.5219 101.845 27.5377 101.927 27.537H120.406C120.488 27.5377 120.57 27.5219 120.646 27.4908C120.722 27.4596 120.791 27.4136 120.849 27.3554C120.908 27.2972 120.954 27.2281 120.985 27.152C121.016 27.0758 121.032 26.9943 121.031 26.912V16.818C121.033 16.6497 120.968 16.4875 120.851 16.3665C120.734 16.2456 120.574 16.1757 120.406 16.172H101.926H101.927ZM120.406 28.447H101.926C101.072 28.447 100.393 27.767 100.393 26.912V16.818C100.393 15.964 101.072 15.262 101.927 15.262H120.406C121.261 15.262 121.941 15.964 121.941 16.818V26.912C121.941 27.767 121.261 28.447 120.406 28.447Z" fill="#46C8B8"/>
<path fill-rule="evenodd" clip-rule="evenodd" d="M119.344 24.938C119.214 24.934 119.091 24.8808 118.999 24.789C118.94 24.697 118.904 24.5925 118.893 24.484C118.893 24.354 118.941 24.224 118.999 24.131C119.095 24.0595 119.212 24.0209 119.331 24.0209C119.451 24.0209 119.568 24.0595 119.664 24.131C119.752 24.224 119.76 24.344 119.76 24.484C119.76 24.57 119.752 24.7 119.655 24.789C119.572 24.8738 119.462 24.9268 119.344 24.939V24.938ZM119.344 26.505H118.149C117.917 26.505 117.711 26.281 117.711 26.05C117.711 25.774 117.917 25.595 118.149 25.595H119.344C119.582 25.595 119.762 25.775 119.762 26.05C119.762 26.281 119.582 26.505 119.344 26.505Z" fill="#46C8B8"/>
</g>
<defs>
<clipPath id="clip0">
<rect width="215" height="155" fill="white"/>
</clipPath>
</defs>
</svg>
