<svg xmlns="http://www.w3.org/2000/svg" viewBox="0 0 982 356.5"><path d="M174.3 43.1l-36.4 18.6c-6.4-10.2-12.5-16.8-18.3-19.9-6-3.5-13.8-5.3-23.4-5.3-11.7 0-21.5 3-29.2 9.1S55.4 59.1 55.4 68.1c0 12.5 10.2 22.5 30.5 30.2l27.9 10.4c22.7 8.4 39.3 18.6 49.9 30.8s15.8 26.9 15.8 44.5q0 35.25-25.7 58.4c-17.3 15.5-38.7 23.2-64.4 23.2q-36.45 0-60.2-19.7Q5.8 226.1 0 190.3l42.8-8.6q2.85 22.5 10.2 31.2c8.7 11.1 21.4 16.6 38.1 16.6 13.2 0 24.1-4 32.8-12.1s13.1-18.3 13.1-30.7a40.18 40.18 0 0 0-2.3-13.7 33.49 33.49 0 0 0-7.1-11.4 55.9 55.9 0 0 0-12.4-9.8 133.68 133.68 0 0 0-18.1-8.7l-27-10.3q-57.45-22.2-57.5-65 0-28.8 24.1-48.2C52.8 6.6 72.8 0 96.7 0c32.2 0 59.5 14.4 77.6 43.1z" fill="#fff"/><path d="M185.5 65.9L240 184.7l49.9-116.9 50.2 116.9 51.3-113.2L470 0l-38.6 83.9L339 273.7 289.9 160l-49.7 113.7-92.3-189.8z" fill="#fff"/><path d="M407.3 171q0-38.25 27.4-65.1c18.2-17.9 40.5-26.8 66.7-26.8s48.7 9 67.1 27q27.15 27 27.2 66.4c0 26.5-9.1 48.6-27.4 66.5s-40.9 26.6-67.6 26.6c-26.5 0-48.6-9.1-66.5-27.2q-26.85-26.85-26.9-67.4zm41.7.7c0 17.6 4.7 31.6 14.1 41.9 9.7 10.4 22.4 15.6 38.3 15.6s28.7-5.1 38.3-15.4 14.3-24 14.3-41.2-4.8-30.9-14.3-41.2c-9.7-10.4-22.4-15.6-38.3-15.6-15.6 0-28.2 5.2-37.9 15.6S449 155.2 449 171.7zm155.3-.7q0-38.25 27.4-65.1c18.2-17.9 40.5-26.8 66.7-26.8s48.7 9 67.1 27q27.15 27 27.2 66.4c0 26.5-9.1 48.6-27.4 66.5s-40.9 26.6-67.6 26.6c-26.5 0-48.6-9.1-66.5-27.2-18-17.9-26.9-40.4-26.9-67.4zm41.7.7c0 17.6 4.7 31.6 14.1 41.9 9.7 10.4 22.4 15.6 38.3 15.6s28.7-5.1 38.3-15.4 14.3-24 14.3-41.2-4.8-30.9-14.3-41.2c-9.7-10.4-22.4-15.6-38.3-15.6-15.6 0-28.2 5.2-37.9 15.6S646 155.2 646 171.7zM843.4 356l-40.8.5V93.7l40.8.7v8.8q24.15-24.15 54.7-24.1 36.45 0 60 26.8c16 17.8 23.9 40.2 23.9 67.3 0 26.5-7.9 48.5-23.7 66.2q-23.55 26.25-59.5 26.3-31.05 0-55.5-24.8V356h.1zm97-182.7c0-16.9-4.6-30.7-13.8-41.3-9.3-10.8-21-16.1-35.2-16.1-15 0-27.1 5.2-36.4 15.6s-14 24.1-14 41c0 16.6 4.7 30.2 14 41 9.2 10.5 21.3 15.8 36.3 15.8 14.1 0 25.8-5.3 35-16 9.4-10.7 14.1-24 14.1-40z" fill="#fff"/><path fill="#e4e5e4" d="M465 46.4l-31.3 36.1-42.3-11L465 46.4z"/><path fill="#c5c5c4" d="M457.8 70.3l-28.3 17.9-38.1-16.7 66.4-1.2z"/></svg>