<?xml version="1.0" encoding="UTF-8"?>
<svg width="26px" height="26px" viewBox="0 0 26 26" version="1.1" xmlns="http://www.w3.org/2000/svg" xmlns:xlink="http://www.w3.org/1999/xlink">
    <title>37236E69-8CD7-4E68-B8A9-82225321D73B</title>
    <g id="Overview-April-2021" stroke="none" stroke-width="1" fill="none" fill-rule="evenodd">
        <g id="3c-Overview-Retracted-Loans-Matches" transform="translate(-21.000000, -17.000000)">
            <g id="Logo-/-Responsive" transform="translate(21.000000, 17.000000)">
                <circle id="Oval" fill="#2E9C8E" cx="13" cy="13" r="13"></circle>
                <path d="M13.3984796,5.41666667 C15.2446727,5.41666667 16.8099234,6.25363956 17.8476903,7.92177303 L15.7606894,9.00286301 C15.3937442,8.41000722 15.0439995,8.02639464 14.7114554,7.84621298 C14.3674443,7.64278207 13.9202298,7.53816045 13.369812,7.53816045 C12.6989903,7.53816045 12.1371054,7.71252981 11.6956244,8.06708082 C11.2541435,8.42163184 11.0305362,8.85174291 11.0305362,9.37485097 C11.0305362,10.1013899 11.6153552,10.6826211 12.7792595,11.1301691 L14.3789113,11.7346495 C15.6804201,12.2228837 16.6321843,12.8157395 17.2399373,13.5248416 C17.8476903,14.2339436 18.1458333,15.0883534 18.1458333,16.1113203 C18.1458333,17.4772135 17.6546619,18.6086769 16.6723189,19.5057103 C15.6804201,20.4066187 14.4534471,20.8541667 12.9799327,20.8541667 C11.5866876,20.8541667 10.4361614,20.4724915 9.52835422,19.7091413 C8.63392526,18.9419161 8.07586274,17.864701 7.85416667,16.4774959 L10.3081128,15.9776371 C10.4170497,16.8494839 10.6119893,17.4539643 10.8929318,17.7910784 C11.3917479,18.436245 12.1199048,18.7559221 13.0774025,18.7559221 C13.834227,18.7559221 14.4591806,18.5234297 14.9579968,18.0526324 C15.4568129,17.5818352 15.7090877,16.9889794 15.7090877,16.2682527 C15.7110698,15.9970753 15.666446,15.7276201 15.5772168,15.471966 C15.4870496,15.2254991 15.3485723,15.0000998 15.170137,14.8093624 C14.9609589,14.5863176 14.7215814,14.3945323 14.4591806,14.2397559 C14.1262545,14.0450595 13.7793536,13.8760256 13.4214136,13.7340848 L11.8733635,13.1354167 C9.67742572,12.2751945 8.57850124,11.0158603 8.57659006,9.35741403 C8.57659006,8.24145018 9.03718276,7.30760542 9.95836815,6.55587977 C10.8814647,5.80027924 12.0281685,5.41666667 13.3984796,5.41666667 Z" id="Path" fill="#FFFFFF" fill-rule="nonzero"></path>
            </g>
        </g>
    </g>
</svg>