<svg xmlns="http://www.w3.org/2000/svg" viewBox="0 0 508.7 382.1"><g fill="#123c4e"><path d="M178.4 382h50.9l-.1-127.6c0-14 11.4-25.4 25.4-25.5 14 0 25.4 11.4 25.5 25.4l.1 127.6h50.9l-.1-127.6c0-42.2-34.3-76.3-76.4-76.2-42.1.1-76.2 34.3-76.2 76.4V382z"/><path d="M280.1 381.9H331l-.1-127.6c0-14 11.4-25.4 25.4-25.5 14 0 25.4 11.4 25.5 25.4l.1 127.6h50.9l-.1-127.6c0-42.2-34.3-76.3-76.4-76.2-42.1.1-76.2 34.3-76.2 76.4v127.5z"/></g><path fill="#123c4e" d="M458.3 258.1h50.3v123.6h-50.3zM152.9 178.8H102l.1 126.9c0 14.1-11.4 25.5-25.4 25.5-14.1 0-25.5-11.4-25.5-25.4L51 178.9H.1l.1 126.8c0 42.2 34.3 76.4 76.5 76.3 42.2-.1 76.3-34.3 76.3-76.5l-.1-126.7z"/><path d="M76.5 152.6c-14.1 0-25.5-11.4-25.5-25.5s11.4-25.5 25.5-25.5S102 113 102 127.1s-11.4 25.5-25.5 25.5" fill="#fcbe31"/><path d="M25.5 76.2C11.4 76.3 0 64.9 0 50.8c0-14.1 11.4-25.5 25.5-25.5S51 36.7 51 50.8c0 14-11.4 25.4-25.5 25.4" fill="#f0b8a1"/><path d="M127.4 51c-14.1 0-25.5-11.4-25.5-25.5S113.3 0 127.4 0s25.5 11.4 25.5 25.5c0 14-11.4 25.4-25.5 25.5" fill="#65b43b"/><path d="M203.5 127.2c-14.1 0-25.5-11.4-25.5-25.5s11.4-25.5 25.5-25.5S229 87.6 229 101.7c0 14-11.4 25.5-25.5 25.5" fill="#e64940"/><path d="M305.3 101.6c-14.1 0-25.5-11.4-25.5-25.5s11.4-25.5 25.5-25.5 25.5 11.4 25.5 25.5-11.4 25.5-25.5 25.5" fill="#48b9db"/><path d="M407.2 152.3c-14.1 0-25.5-11.4-25.5-25.5s11.4-25.5 25.5-25.5 25.5 11.4 25.5 25.5-11.4 25.5-25.5 25.5" fill="#f0820d"/><path d="M483.1 228.9c-14.1 0-25.5-11.4-25.5-25.5s11.4-25.5 25.5-25.5 25.5 11.4 25.5 25.5c0 14-11.4 25.4-25.5 25.5" fill="#123c4e"/></svg>
