<svg width="56" height="56" viewBox="0 0 56 56" xmlns="http://www.w3.org/2000/svg">
<circle cx="28" cy="28" r="28" class="svg-background"/>
<path d="M34.5625 36.125C34.9375 36.5 35.4167 36.6875 36 36.6875C36.5833 36.6875 37.0625 36.5 37.4375 36.125C37.8125 35.7083 38 35.2292 38 34.6875C38 34.1458 37.8125 33.6875 37.4375 33.3125C37.0625 32.8958 36.5833 32.6875 36 32.6875C35.4167 32.6875 34.9375 32.8958 34.5625 33.3125C34.1875 33.6875 34 34.1458 34 34.6875C34 35.2292 34.1875 35.7083 34.5625 36.125ZM38 24.6875H34.6875V28H40.625L38 24.6875ZM18.5625 36.125C18.9375 36.5 19.4167 36.6875 20 36.6875C20.5833 36.6875 21.0625 36.5 21.4375 36.125C21.8125 35.7083 22 35.2292 22 34.6875C22 34.1458 21.8125 33.6875 21.4375 33.3125C21.0625 32.8958 20.5833 32.6875 20 32.6875C19.4167 32.6875 18.9375 32.8958 18.5625 33.3125C18.1875 33.6875 18 34.1458 18 34.6875C18 35.2292 18.1875 35.7083 18.5625 36.125ZM38.6875 22.6875L42.6875 28V34.6875H40C40 35.7708 39.6042 36.7083 38.8125 37.5C38.0208 38.2917 37.0833 38.6875 36 38.6875C34.9167 38.6875 33.9792 38.2917 33.1875 37.5C32.3958 36.7083 32 35.7708 32 34.6875H24C24 35.7708 23.6042 36.7083 22.8125 37.5C22.0208 38.2917 21.0833 38.6875 20 38.6875C18.9167 38.6875 17.9792 38.2917 17.1875 37.5C16.3958 36.7083 16 35.7708 16 34.6875H13.3125V20C13.3125 19.2917 13.5833 18.6667 14.125 18.125C14.6667 17.5833 15.2917 17.3125 16 17.3125H34.6875V22.6875H38.6875Z"/>
</svg>
