<svg width="56" height="56" viewBox="0 0 56 56" xmlns="http://www.w3.org/2000/svg">
<circle cx="28" cy="28" r="28" class="svg-background"/>
<path fill-rule="evenodd" clip-rule="evenodd" d="M44 11V16.8107L41.6214 14.3981L38.0194 18L37 16.9806L40.6019 13.3786L38.1893 11H44ZM35.875 35.1875C37.75 33.1875 38.6875 30.7917 38.6875 28C38.6875 25.7917 38.0625 23.7917 36.8125 22C35.6042 20.2083 34 18.9167 32 18.125V18.6875C32 19.3958 31.7292 20.0208 31.1875 20.5625C30.6458 21.0625 30.0208 21.3125 29.3125 21.3125H26.6875V24C26.6875 24.375 26.5417 24.6875 26.25 24.9375C26 25.1875 25.6875 25.3125 25.3125 25.3125H22.6875V28H30.6875C31.0625 28 31.375 28.125 31.625 28.375C31.875 28.625 32 28.9375 32 29.3125V33.3125H33.3125C34.5625 33.3125 35.4167 33.9375 35.875 35.1875ZM26.6875 38.5625V36C25.9792 36 25.3542 35.7292 24.8125 35.1875C24.2708 34.6458 24 34.0208 24 33.3125V32L17.625 25.625C17.4167 26.4583 17.3125 27.25 17.3125 28C17.3125 30.7083 18.2083 33.0625 20 35.0625C21.8333 37.0625 24.0625 38.2292 26.6875 38.5625ZM18.5625 18.625C21.1875 16 24.3333 14.6875 28 14.6875C31.6667 14.6875 34.7917 16 37.375 18.625C40 21.2083 41.3125 24.3333 41.3125 28C41.3125 31.6667 40 34.8125 37.375 37.4375C34.7917 40.0208 31.6667 41.3125 28 41.3125C24.3333 41.3125 21.1875 40.0208 18.5625 37.4375C15.9792 34.8125 14.6875 31.6667 14.6875 28C14.6875 24.3333 15.9792 21.2083 18.5625 18.625ZM11 38.1893V44H16.8107L14.3981 41.6214L18 38.0194L16.9806 37L13.3786 40.6019L11 38.1893ZM12 11V16.8107L14.3786 14.3981L17.9806 18L19 16.9806L15.3981 13.3786L17.8107 11H12ZM45 38.1893V44H39.1893L41.6019 41.6214L38 38.0194L39.0194 37L42.6214 40.6019L45 38.1893Z"/>
</svg>
