<svg width="56" height="56" viewBox="0 0 56 56" xmlns="http://www.w3.org/2000/svg">
<circle cx="28" cy="28" r="28" class="svg-background"/>
<path d="M34.6875 34.6875H21.3125V30.6875L16 36L21.3125 41.3125V37.3125H37.3125V29.3125H34.6875V34.6875ZM21.3125 21.3125H34.6875V25.3125L40 20L34.6875 14.6875V18.6875H18.6875V26.6875H21.3125V21.3125ZM40 13.3125C40.7083 13.3125 41.3333 13.5833 41.875 14.125C42.4167 14.6667 42.6875 15.2917 42.6875 16V40C42.6875 40.7083 42.4167 41.3333 41.875 41.875C41.3333 42.4167 40.7083 42.6875 40 42.6875H16C15.2917 42.6875 14.6667 42.4167 14.125 41.875C13.5833 41.3333 13.3125 40.7083 13.3125 40V16C13.3125 15.2917 13.5833 14.6667 14.125 14.125C14.6667 13.5833 15.2917 13.3125 16 13.3125H40Z"/>
<path d="M24 33.262V31.568H24.476C24.826 31.568 25.113 31.456 25.337 31.232C25.561 31.0033 25.673 30.6347 25.673 30.126C25.673 29.902 25.6613 29.6757 25.638 29.447C25.6147 29.2137 25.5773 28.9057 25.526 28.523H24.098V27.389H25.295L25.155 26.122C25.0897 25.618 25.1293 25.1723 25.274 24.785C25.4187 24.3977 25.6427 24.071 25.946 23.805C26.2493 23.539 26.6063 23.3383 27.017 23.203C27.4277 23.0677 27.8593 23 28.312 23C28.816 23 29.2827 23.0793 29.712 23.238C30.1413 23.3967 30.5147 23.6277 30.832 23.931C31.154 24.2297 31.4037 24.589 31.581 25.009L29.803 25.555C29.6537 25.2283 29.4903 24.9927 29.313 24.848C29.1403 24.6987 28.9093 24.624 28.62 24.624C28.4007 24.624 28.2047 24.6707 28.032 24.764C27.8593 24.8573 27.724 24.9927 27.626 25.17C27.528 25.3473 27.479 25.5597 27.479 25.807C27.479 26.003 27.4977 26.2317 27.535 26.493C27.577 26.7497 27.633 27.046 27.703 27.382H29.754V28.516H27.864C27.892 28.8333 27.9037 29.1017 27.899 29.321C27.899 29.5357 27.8757 29.7597 27.829 29.993C27.7963 30.259 27.7403 30.4853 27.661 30.672C27.5863 30.8587 27.493 31.022 27.381 31.162C27.2737 31.2973 27.1523 31.428 27.017 31.554H28.9C29.3527 31.554 29.691 31.47 29.915 31.302C30.1437 31.134 30.3327 30.8447 30.482 30.434L32.211 30.812C31.987 31.624 31.6137 32.2353 31.091 32.646C30.5683 33.0567 29.8893 33.262 29.054 33.262H24Z"/>
</svg>
