<svg width="56" height="56" viewBox="0 0 56 56" xmlns="http://www.w3.org/2000/svg">
<circle cx="28" cy="28" r="28" class="svg-background"/>
<path d="M30.6875 14.6875H20C19.25 14.6875 18.625 14.9583 18.125 15.5C17.625 16 17.375 16.6042 17.375 17.3125L17.3125 38.6875C17.3125 39.3958 17.5625 40.0208 18.0625 40.5625C18.6042 41.0625 19.25 41.3125 20 41.3125H36C36.75 41.3125 37.375 41.0625 37.875 40.5625C38.4167 40.0208 38.6875 39.3958 38.6875 38.6875V22.6875L30.6875 14.6875ZM29.3125 24V16.6875L36.6875 24H29.3125Z"/>
<path d="M24 36.262V34.568H24.476C24.826 34.568 25.113 34.456 25.337 34.232C25.561 34.0033 25.673 33.6347 25.673 33.126C25.673 32.902 25.6613 32.6757 25.638 32.447C25.6147 32.2137 25.5773 31.9057 25.526 31.523H24.098V30.389H25.295L25.155 29.122C25.0897 28.618 25.1293 28.1723 25.274 27.785C25.4187 27.3977 25.6427 27.071 25.946 26.805C26.2493 26.539 26.6063 26.3383 27.017 26.203C27.4277 26.0677 27.8593 26 28.312 26C28.816 26 29.2827 26.0793 29.712 26.238C30.1413 26.3967 30.5147 26.6277 30.832 26.931C31.154 27.2297 31.4037 27.589 31.581 28.009L29.803 28.555C29.6537 28.2283 29.4903 27.9927 29.313 27.848C29.1403 27.6987 28.9093 27.624 28.62 27.624C28.4007 27.624 28.2047 27.6707 28.032 27.764C27.8593 27.8573 27.724 27.9927 27.626 28.17C27.528 28.3473 27.479 28.5597 27.479 28.807C27.479 29.003 27.4977 29.2317 27.535 29.493C27.577 29.7497 27.633 30.046 27.703 30.382H29.754V31.516H27.864C27.892 31.8333 27.9037 32.1017 27.899 32.321C27.899 32.5357 27.8757 32.7597 27.829 32.993C27.7963 33.259 27.7403 33.4853 27.661 33.672C27.5863 33.8587 27.493 34.022 27.381 34.162C27.2737 34.2973 27.1523 34.428 27.017 34.554H28.9C29.3527 34.554 29.691 34.47 29.915 34.302C30.1437 34.134 30.3327 33.8447 30.482 33.434L32.211 33.812C31.987 34.624 31.6137 35.2353 31.091 35.646C30.5683 36.0567 29.8893 36.262 29.054 36.262H24Z" class="svg-background"/>
<circle cx="36" cy="39" r="5" fill="none" class="svg-background"/>
<path d="M43.3438 39L41.7188 37.125L41.9375 34.6875L39.5312 34.125L38.2812 32L36 32.9688L33.7188 32L32.4688 34.125L30.0625 34.6562L30.2812 37.125L28.6562 39L30.2812 40.875L30.0625 43.3125L32.4688 43.875L33.7188 46L36 45.0312L38.2812 46L39.5312 43.875L41.9375 43.3125L41.7188 40.875L43.3438 39ZM34.7188 42.1562L32.1875 39.5938L33.1875 38.625L34.7188 40.1875L38.625 36.25L39.625 37.25L34.7188 42.1562Z"/>
</svg>
