<svg width="56" height="56" viewBox="0 0 56 56" xmlns="http://www.w3.org/2000/svg">
<circle cx="28" cy="28" r="28" class="svg-background"/>
<path d="M24.0625 30.4375C25.8958 29.6875 27.6458 29.3125 29.3125 29.3125C30.9792 29.3125 32.7292 29.6875 34.5625 30.4375C36.3958 31.1458 37.3125 32.1042 37.3125 33.3125V36H21.3125V33.3125C21.3125 32.1042 22.2292 31.1458 24.0625 30.4375ZM38.1875 29.5625C39.7292 29.8125 41.0833 30.2708 42.25 30.9375C43.4167 31.5625 44 32.3542 44 33.3125V36H40V33.3125C40 31.8958 39.3958 30.6458 38.1875 29.5625ZM32.125 25.5C31.3333 26.2917 30.3958 26.6875 29.3125 26.6875C28.2292 26.6875 27.2917 26.2917 26.5 25.5C25.7083 24.7083 25.3125 23.7708 25.3125 22.6875C25.3125 21.6042 25.7083 20.6667 26.5 19.875C27.2917 19.0833 28.2292 18.6875 29.3125 18.6875C30.3958 18.6875 31.3333 19.0833 32.125 19.875C32.9167 20.6667 33.3125 21.6042 33.3125 22.6875C33.3125 23.7708 32.9167 24.7083 32.125 25.5ZM36 26.6875C35.5833 26.6875 35.1875 26.625 34.8125 26.5C35.6042 25.375 36 24.1042 36 22.6875C36 21.2708 35.6042 20 34.8125 18.875C35.1875 18.75 35.5833 18.6875 36 18.6875C37.0833 18.6875 38.0208 19.0833 38.8125 19.875C39.6042 20.6667 40 21.6042 40 22.6875C40 23.7708 39.6042 24.7083 38.8125 25.5C38.0208 26.2917 37.0833 26.6875 36 26.6875ZM22.6875 25.3125V28H18.6875V32H16V28H12V25.3125H16V21.3125H18.6875V25.3125H22.6875Z"/>
</svg>
