<svg width="56" height="56" viewBox="0 0 56 56" xmlns="http://www.w3.org/2000/svg">
<circle cx="28" cy="28" r="28" class="svg-background"/>
<path fill-rule="evenodd" clip-rule="evenodd" d="M18.25 23.6875C17.625 25.0208 17.3125 26.4583 17.3125 28C17.3125 29.375 17.5417 30.6667 18 31.875C18.5 33.0417 19.1667 34.1042 20 35.0625C20.875 36.0208 21.875 36.8125 23 37.4375C24.125 38.0208 25.3542 38.3958 26.6875 38.5625V41.25C24.9792 41.0833 23.3958 40.625 21.9375 39.875C20.4792 39.125 19.2083 38.1667 18.125 37C17.0417 35.7917 16.1875 34.4375 15.5625 32.9375C14.9792 31.3958 14.6875 29.75 14.6875 28C14.6875 26.0833 15.0625 24.2917 15.8125 22.625C16.6042 20.9167 17.6458 19.4583 18.9375 18.25L16 15.3125H24V23.3125L20.8125 20.1875C19.7708 21.1458 18.9167 22.3125 18.25 23.6875ZM40.375 23.125C41 24.625 41.3125 26.25 41.3125 28C41.3125 29.9167 40.9167 31.7292 40.125 33.4375C39.375 35.1042 38.3542 36.5417 37.0625 37.75L40 40.6875H32V32.6875L35.1875 35.8125C36.2292 34.8542 37.0625 33.7083 37.6875 32.375C38.3542 31 38.6875 29.5417 38.6875 28C38.6875 26.625 38.4375 25.3542 37.9375 24.1875C37.4792 22.9792 36.8125 21.8958 35.9375 20.9375C35.1042 19.9792 34.125 19.2083 33 18.625C31.875 18 30.6458 17.6042 29.3125 17.4375V14.75C31.0208 14.9167 32.6042 15.375 34.0625 16.125C35.5208 16.875 36.7917 17.8542 37.875 19.0625C38.9583 20.2292 39.7917 21.5833 40.375 23.125ZM24 31.568V33.262H29.054C29.8893 33.262 30.5683 33.0567 31.091 32.646C31.6137 32.2353 31.987 31.624 32.211 30.812L30.482 30.434C30.3327 30.8447 30.1437 31.134 29.915 31.302C29.691 31.47 29.3527 31.554 28.9 31.554H27.017C27.1523 31.428 27.2737 31.2973 27.381 31.162C27.493 31.022 27.5863 30.8587 27.661 30.672C27.7403 30.4853 27.7963 30.259 27.829 29.993C27.8757 29.7597 27.899 29.5357 27.899 29.321C27.9037 29.1017 27.892 28.8333 27.864 28.516H29.754V27.382H27.703C27.633 27.046 27.577 26.7497 27.535 26.493C27.4977 26.2317 27.479 26.003 27.479 25.807C27.479 25.5597 27.528 25.3473 27.626 25.17C27.724 24.9927 27.8593 24.8573 28.032 24.764C28.2047 24.6707 28.4007 24.624 28.62 24.624C28.9093 24.624 29.1403 24.6987 29.313 24.848C29.4903 24.9927 29.6537 25.2283 29.803 25.555L31.581 25.009C31.4037 24.589 31.154 24.2297 30.832 23.931C30.5147 23.6277 30.1413 23.3967 29.712 23.238C29.2827 23.0793 28.816 23 28.312 23C27.8593 23 27.4277 23.0677 27.017 23.203C26.6063 23.3383 26.2493 23.539 25.946 23.805C25.6427 24.071 25.4187 24.3977 25.274 24.785C25.1293 25.1723 25.0897 25.618 25.155 26.122L25.295 27.389H24.098V28.523H25.526C25.5773 28.9057 25.6147 29.2137 25.638 29.447C25.6613 29.6757 25.673 29.902 25.673 30.126C25.673 30.6347 25.561 31.0033 25.337 31.232C25.113 31.456 24.826 31.568 24.476 31.568H24Z"/>
</svg>
