<svg width="56" height="56" viewBox="0 0 56 56" xmlns="http://www.w3.org/2000/svg">
<circle cx="28" cy="28" r="28" class="svg-background"/>
<path fill-rule="evenodd" clip-rule="evenodd" d="M18.6875 38.6875V28H14.6875L28 16L41.3125 28H37.3125V38.6875H18.6875ZM23.748 32.3058V33.9998H28.802C29.6374 33.9998 30.3164 33.7945 30.839 33.3838C31.3617 32.9731 31.735 32.3618 31.959 31.5498L30.23 31.1718C30.0807 31.5825 29.8917 31.8718 29.663 32.0398C29.439 32.2078 29.1007 32.2918 28.648 32.2918H26.765C26.9004 32.1658 27.0217 32.0351 27.129 31.8998C27.241 31.7598 27.3344 31.5965 27.409 31.4098C27.4884 31.2231 27.5444 30.9968 27.577 30.7308C27.6237 30.4975 27.647 30.2735 27.647 30.0588C27.6517 29.8395 27.64 29.5711 27.612 29.2538H29.502V28.1198H27.451C27.381 27.7838 27.325 27.4875 27.283 27.2308C27.2457 26.9695 27.227 26.7408 27.227 26.5448C27.227 26.2975 27.276 26.0851 27.374 25.9078C27.472 25.7305 27.6074 25.5951 27.78 25.5018C27.9527 25.4085 28.1487 25.3618 28.368 25.3618C28.6574 25.3618 28.8884 25.4365 29.061 25.5858C29.2384 25.7305 29.4017 25.9661 29.551 26.2928L31.329 25.7468C31.1517 25.3268 30.902 24.9675 30.58 24.6688C30.2627 24.3655 29.8894 24.1345 29.46 23.9758C29.0307 23.8171 28.564 23.7378 28.06 23.7378C27.6074 23.7378 27.1757 23.8055 26.765 23.9408C26.3544 24.0761 25.9974 24.2768 25.694 24.5428C25.3907 24.8088 25.1667 25.1355 25.022 25.5228C24.8774 25.9101 24.8377 26.3558 24.903 26.8598L25.043 28.1268H23.846V29.2608H25.274C25.3254 29.6435 25.3627 29.9515 25.386 30.1848C25.4094 30.4135 25.421 30.6398 25.421 30.8638C25.421 31.3725 25.309 31.7411 25.085 31.9698C24.861 32.1938 24.574 32.3058 24.224 32.3058H23.748Z"/>
</svg>
