<svg width="56" height="56" viewBox="0 0 56 56" xmlns="http://www.w3.org/2000/svg">
<circle cx="28" cy="28" r="28" class="svg-background"/>
<path d="M32.8125 36.8125C33.3542 36.2708 33.9792 36 34.6875 36C35.3958 36 36 36.2708 36.5 36.8125C37.0417 37.3542 37.3125 37.9792 37.3125 38.6875C37.3125 39.3958 37.0417 40.0208 36.5 40.5625C36 41.0625 35.3958 41.3125 34.6875 41.3125C33.9792 41.3125 33.3542 41.0625 32.8125 40.5625C32.2708 40.0208 32 39.3958 32 38.6875C32 37.9792 32.2708 37.3542 32.8125 36.8125ZM13.3125 14.6875H17.6875L18.9375 17.3125H38.6875C39.0625 17.3125 39.375 17.4583 39.625 17.75C39.875 18 40 18.3125 40 18.6875C40 18.7292 39.9375 18.9375 39.8125 19.3125L35.0625 27.9375C34.5625 28.8542 33.7917 29.3125 32.75 29.3125H22.8125L21.625 31.5L21.5625 31.6875C21.5625 31.8958 21.6667 32 21.875 32H37.3125V34.6875H21.3125C20.6042 34.6875 19.9792 34.4167 19.4375 33.875C18.9375 33.3333 18.6875 32.7083 18.6875 32C18.6875 31.5833 18.7917 31.1667 19 30.75L20.8125 27.4375L16 17.3125H13.3125V14.6875ZM19.4375 36.8125C19.9792 36.2708 20.6042 36 21.3125 36C22.0208 36 22.6458 36.2708 23.1875 36.8125C23.7292 37.3542 24 37.9792 24 38.6875C24 39.3958 23.7292 40.0208 23.1875 40.5625C22.6458 41.0625 22.0208 41.3125 21.3125 41.3125C20.6042 41.3125 19.9792 41.0625 19.4375 40.5625C18.9375 40.0208 18.6875 39.3958 18.6875 38.6875C18.6875 37.9792 18.9375 37.3542 19.4375 36.8125Z"/>
</svg>
