<svg width="56" height="56" viewBox="0 0 56 56" xmlns="http://www.w3.org/2000/svg">
<circle cx="28" cy="28" r="28" class="svg-background"/>
<path d="M38.3749 36.5625L30.6874 26.25V20.6875L32.4374 18.4375C32.6457 18.1875 32.6874 17.9375 32.5624 17.6875C32.4374 17.4375 32.2291 17.3125 31.9374 17.3125H24.0624C23.7707 17.3125 23.5624 17.4375 23.4374 17.6875C23.3124 17.9375 23.3541 18.1875 23.5624 18.4375L25.3124 20.6875V26.25L17.6249 36.5625C17.3749 36.8542 17.2707 37.1667 17.3124 37.5C17.3541 37.7917 17.4999 38.0625 17.7499 38.3125C17.9999 38.5625 18.3124 38.6875 18.6874 38.6875H37.3124C37.6874 38.6875 37.9999 38.5625 38.2499 38.3125C38.4999 38.0625 38.6457 37.7917 38.6874 37.5C38.7291 37.1667 38.6249 36.8542 38.3749 36.5625Z"/>
</svg>
