<svg xmlns="http://www.w3.org/2000/svg" viewBox="0 0 560.99 321.35"><defs><style>.a{fill:#46b5aa}.b{fill:#96d7e1}.c{fill:#013751}</style></defs><path class="a" d="M226.59 71.98c-.2 6.7-8.3 10.9-13.6 13.3-9.6 4.4-20.4 6.5-30.9 7.8-23 2.8-48.7 2-70.5-6.6-5.7-2.2-14.2-6-16-12.5s5.5-11.2 10.2-13.8c19.6-10.5 45.2-11.5 66.9-10.2 12.5.8 25.2 2.7 36.9 7.3 6.1 2.4 16.7 6.9 17 14.7.1 3.2 5.1 3.2 5 0-.3-7.2-6.2-12.2-12-15.6-10.4-5.9-22.6-8.5-34.2-10.1-25.6-3.5-55.6-2.9-79.4 8.3-6.3 3-13.8 7.7-15.3 15-1.4 7 3.8 12.7 9.2 16.3 9.1 6.2 20.6 9 31.3 10.9a177.78 177.78 0 0 0 44.3 1.9c13.6-1.1 27.7-3.4 40.2-9.2 7.2-3.3 15.7-8.8 16.1-17.6-.1-3.1-5.1-3.1-5.2.1z"/><path class="a" d="M94.89 108.54c.1-12.1.3-24.2.4-36.2 0-3.2-5-3.2-5 0-.1 12.1-.3 24.2-.4 36.2-.1 3.24 4.9 3.24 5 0zm136.2.7c.1-12.1.3-24.2.4-36.2 0-3.2-5-3.2-5 0-.1 12.1-.3 24.2-.4 36.2 0 3.24 5 3.24 5 .04z"/><path class="a" d="M226.09 106.98c.5 6.4-6.6 10.8-11.5 13.4-11.5 6-25.3 7.9-38.1 8.6a183.61 183.61 0 0 1-53.3-4.6 86.23 86.23 0 0 1-19.6-6.9c-3.5-1.8-8.2-4.4-8.8-8.6-.5-3.2-5.3-1.8-4.8 1.3 1.2 7.8 11.3 12 17.6 14.6 13.3 5.3 27.8 7.7 42 8.9 15 1.2 30.3 1 45.2-1.7 9.3-1.7 19.1-4.5 27-10 4.8-3.4 9.8-8.5 9.3-14.9-.3-3.3-5.3-3.3-5-.1z"/><path class="a" d="M228.29 109.08c4.9 3.8 8.5 9.1 4.3 14.6-2.8 3.7-7.3 6.1-11.5 8-14.1 6.4-30.4 8.4-45.7 8.9-16.3.6-33.1-.7-48.8-5.4-7.4-2.2-22.9-7-23.2-16.8-.1-3.2-5.1-3.2-5 0 .3 8.2 7.8 13.5 14.5 16.9 11.8 5.9 25.3 8.3 38.3 9.6a177.08 177.08 0 0 0 49.3-1.9c11-2.1 23.2-5.2 32.1-12.4 9.2-7.5 8.5-17.7-.9-25-2.4-2-5.9 1.5-3.4 3.5z"/><path class="a" d="M102.99 154.88c.1-12.1.3-24.2.4-36.2 0-3.2-5-3.2-5 0-.1 12.1-.3 24.2-.4 36.2-.1 3.2 4.9 3.2 5 0zm136.2.7c.1-12.1.3-24.2.4-36.2 0-3.2-5-3.2-5 0-.1 12.1-.3 24.2-.4 36.2-.1 3.2 4.9 3.2 5-.04z"/><path class="a" d="M234.19 153.28c.5 6.4-6.6 10.8-11.5 13.4-11.5 6-25.3 7.9-38.1 8.6a183.61 183.61 0 0 1-53.3-4.6 86.23 86.23 0 0 1-19.6-6.9c-3.5-1.8-8.2-4.4-8.8-8.6-.5-3.2-5.3-1.8-4.8 1.3 1.2 7.8 11.3 12 17.6 14.6 13.3 5.3 27.8 7.7 42 8.9 15 1.2 30.3 1 45.2-1.7 9.3-1.7 19.1-4.5 27-10 4.8-3.4 9.8-8.5 9.3-14.9-.3-3.3-5.3-3.3-5-.1z"/><path class="a" d="M95.49 150.28c-8 5.7-11.8 14.4-5 22.5s18.1 12 27.8 14.7a168.93 168.93 0 0 0 48 5.9c14.1-.2 28.8-1.7 42.1-6.6 8.2-3 18.7-8.2 19.5-18.1.2-3.2-4.8-3.2-5 0-.7 9.6-16 13.7-23.3 15.6-15.8 4.1-32.6 4.8-48.8 3.6-15.2-1.1-31.2-3.7-45.1-10.4-9.8-4.8-20.5-13.9-7.7-23 2.6-1.7.1-6.1-2.5-4.2z"/><path class="a" d="M226.79 205.28c.3-12.1.7-24.2 1-36.2.1-3.2-4.9-3.2-5 0-.3 12.1-.7 24.2-1 36.2 0 3.2 5 3.2 5 0zm-136.06-4.8c.3-12.1.7-24.2 1-36.2.1-3.2-4.9-3.2-5 0-.3 12.1-.7 24.2-1 36.2-.14 3.2 4.86 3.2 5 0z"/><path class="a" d="M85.79 198.18c-1.8 14.4 20 22.1 30.3 25 13.8 3.8 28.3 5 42.6 4.9 15.2-.1 30.8-1.6 45.4-5.9 7.6-2.2 20.7-6.2 22.6-15.4.6-3.1-4.2-4.5-4.8-1.3-.8 4-5.4 6.3-8.7 8-6.1 3-12.9 4.8-19.6 6.2a182.65 182.65 0 0 1-54.2 2.6c-12.6-1.2-26.1-3.7-37.3-10-4.9-2.7-12.1-7.5-11.2-14.1.3-3.2-4.7-3.2-5.1 0z"/><path class="a" d="M91.99 243.48c.1-12.1.3-24.2.4-36.2 0-3.2-5-3.2-5 0-.1 12.1-.3 24.2-.4 36.2 0 3.3 5 3.3 5 0zm136.2.8c.1-12.1.3-24.2.4-36.2 0-3.2-5-3.2-5 0-.1 12.1-.3 24.2-.4 36.2 0 3.2 5 3.2 5 0z"/><path class="a" d="M223.19 241.98c.5 6.4-6.6 10.8-11.5 13.4-11.5 6-25.3 7.9-38.1 8.6a183.61 183.61 0 0 1-53.3-4.6 86.23 86.23 0 0 1-19.6-6.9c-3.5-1.8-8.2-4.4-8.8-8.6-.5-3.2-5.3-1.8-4.8 1.3 1.2 7.8 11.3 12 17.6 14.6 13.3 5.3 27.8 7.7 42 8.9 15 1.2 30.3 1 45.2-1.7 9.3-1.7 19.1-4.5 27-10 4.8-3.4 9.8-8.5 9.3-14.9-.2-3.3-5.2-3.4-5-.1z"/><path class="a" d="M91.39 284.48c.1-12.1.3-24.2.4-36.2 0-3.2-5-3.2-5 0-.1 12.1-.3 24.2-.4 36.2 0 3.2 5 3.2 5 0zm136.2.7c.1-12.1.3-24.2.4-36.2 0-3.2-5-3.2-5 0-.1 12.1-.3 24.2-.4 36.2 0 3.2 5 3.3 5 0z"/><path class="a" d="M222.59 282.88c.5 6.4-6.6 10.8-11.5 13.4-11.5 6-25.3 7.9-38.1 8.6a183.61 183.61 0 0 1-53.3-4.6 86.23 86.23 0 0 1-19.6-6.9c-3.5-1.8-8.2-4.4-8.8-8.6-.5-3.2-5.3-1.8-4.8 1.3 1.2 7.8 11.3 12 17.6 14.6 13.3 5.3 27.8 7.7 42 8.9 15 1.2 30.3 1 45.2-1.7 9.3-1.7 19.1-4.5 27-10 4.8-3.4 9.8-8.5 9.3-14.9-.2-3.3-5.2-3.3-5-.1z"/><path class="b" d="M220.39 111.18c0-5.4-.1-10.8-.1-16.2 0-2.4-3.8-2.4-3.8 0 0 5.4.1 10.8.1 16.2.14 2.36 3.8 2.36 3.8 0zm-13-13c0 6-.1 12-.1 17.9 0 2.4 3.7 2.4 3.8 0 0-6 .1-12 .1-17.9a1.9 1.9 0 0 0-3.8 0zm-11.7 1.7v21.6c0 2.4 3.8 2.4 3.8 0v-21.6c0-2.4-3.76-2.4-3.76 0zm-15.8 2.9v21.6c0 2.4 3.8 2.4 3.8 0v-21.6c-.1-2.4-3.8-2.4-3.8 0zm-17.2.6v21.6c0 2.4 3.8 2.4 3.8 0v-21.6a1.9 1.9 0 0 0-3.76 0zm-13.5 21.16v-21.6c0-2.4-3.8-2.4-3.8 0v21.6c0 2.44 3.8 2.44 3.8 0zm-16.9-3.1v-19.6c0-2.4-3.8-2.4-3.8 0v19.6c.1 2.44 3.8 2.44 3.8.04zm-15.3-4.4V97.98c0-2.4-3.8-2.4-3.8 0v19.1c0 2.4 3.8 2.4 3.8 0zm-11.8-6.5V93.78c0-2.4-3.8-2.4-3.8 0v16.76c0 2.4 3.8 2.4 3.8 0zm123.3 46.9c0-5.4-.1-10.8-.1-16.2 0-2.4-3.8-2.4-3.8 0 0 5.4.1 10.8.1 16.2.1 2.44 3.8 2.44 3.8.04zm-13-13c0 6-.1 12-.1 17.9 0 2.4 3.7 2.4 3.8 0 0-6 .1-12 .1-17.9 0-2.36-3.8-2.36-3.8.04zm-11.7 1.7v21.6c0 2.4 3.8 2.4 3.8 0v-21.6c0-2.36-3.8-2.36-3.8.04zm-15.8 2.9v21.6c0 2.4 3.8 2.4 3.8 0v-21.6c-.06-2.36-3.8-2.36-3.8.04zm-17.2.6v21.6c0 2.4 3.8 2.4 3.8 0v-21.6c-.1-2.36-3.8-2.36-3.8.04zm-13.5 21.2v-21.6c0-2.4-3.8-2.4-3.8 0v21.6c0 2.44 3.8 2.44 3.8.04zm-16.9-3.1v-19.6c0-2.4-3.8-2.4-3.8 0v19.6c.14 2.44 3.8 2.44 3.8.04zm-15.3-4.4v-19.1c0-2.4-3.8-2.4-3.8 0v19.1c0 2.44 3.8 2.44 3.8.04zm-11.8-6.5v-16.8c0-2.4-3.8-2.4-3.8 0v16.8c0 2.44 3.8 2.44 3.8.04zm-13.3 45.9c.3-5.4.5-10.8.8-16.2.1-2.4-3.6-2.4-3.8 0-.3 5.4-.5 10.8-.8 16.2 0 2.44 3.7 2.44 3.8.04zm6.1-12.7c-.2 6-.4 11.9-.6 17.9-.1 2.4 3.7 2.4 3.8 0 .2-6 .4-11.9.6-17.9 0-2.36-3.7-2.36-3.8.04zm11.6 2.3l-.9 21.6c-.1 2.4 3.7 2.4 3.8 0l.9-21.6c0-2.36-3.7-2.36-3.76.04zm15.7 3.5l-.9 21.6c-.1 2.4 3.7 2.4 3.8 0l.9-21.6c0-2.36-3.7-2.36-3.8.04zm17.2 1.2l-.9 21.6c-.1 2.4 3.7 2.4 3.8 0l.9-21.6c0-2.36-3.66-2.36-3.8.04zm20.1 22l.9-21.6c.1-2.4-3.7-2.4-3.8 0l-.9 21.6c-.1 2.44 3.7 2.44 3.84.04zm16.9-2.4c.3-6.5.5-13.1.8-19.6.1-2.4-3.7-2.4-3.8 0-.3 6.5-.5 13.1-.8 19.6 0 2.44 3.7 2.44 3.8.04zm15.5-3.8c.3-6.4.5-12.7.8-19.1.1-2.4-3.7-2.4-3.8 0-.3 6.4-.5 12.7-.8 19.1 0 2.44 3.7 2.44 3.8.04zm12.1-6c.2-5.6.5-11.2.7-16.7.1-2.4-3.7-2.4-3.8 0-.2 5.6-.5 11.2-.7 16.7 0 2.44 3.7 2.44 3.8.04zm2.4 39.2c0-5.4-.1-10.8-.1-16.2 0-2.4-3.8-2.4-3.8 0 0 5.4.1 10.8.1 16.2 0 2.44 3.8 2.44 3.8.04zm-13-13c0 6-.1 12-.1 17.9 0 2.4 3.7 2.4 3.8 0 0-6 .1-12 .1-17.9-.1-2.36-3.8-2.36-3.8.04zm-11.7 1.8v21.6c0 2.4 3.8 2.4 3.8 0v-21.6c-.1-2.4-3.8-2.4-3.8 0zm-15.9 2.9v21.6c0 2.4 3.8 2.4 3.8 0v-21.6a1.9 1.9 0 0 0-3.8 0zm-17.2.5v21.6c0 2.4 3.8 2.4 3.8 0v-21.6c0-2.4-3.8-2.4-3.8 0zm-13.5 21.2v-21.6c0-2.4-3.8-2.4-3.8 0v21.6c.1 2.44 3.8 2.54 3.8.04zm-16.8-3.1v-19.6c0-2.4-3.8-2.4-3.8 0v19.6a1.9 1.9 0 0 0 3.8.04zm-15.4-4.4v-19.1c0-2.4-3.8-2.4-3.8 0v19.1a1.9 1.9 0 0 0 3.8.04zm-11.8-6.5v-16.8c0-2.4-3.8-2.4-3.8 0v16.8a1.9 1.9 0 0 0 3.8.04zm114.7 41.6c0-5.4-.1-10.8-.1-16.2 0-2.4-3.8-2.4-3.8 0 0 5.4.1 10.8.1 16.2 0 2.44 3.8 2.44 3.8.04zm-13-13c0 6-.1 12-.1 17.9 0 2.4 3.7 2.4 3.8 0 0-6 .1-12 .1-17.9-.06-2.36-3.8-2.36-3.8.04zm-11.7 1.7v21.6c0 2.4 3.8 2.4 3.8 0v-21.6c-.1-2.36-3.8-2.36-3.8.04zm-15.9 2.9v21.6c0 2.4 3.8 2.4 3.8 0v-21.6c0-2.36-3.8-2.36-3.8.04zm-17.2.6v21.6c0 2.4 3.8 2.4 3.8 0v-21.6c0-2.36-3.8-2.36-3.8.04zm-13.46 21.24v-21.6c0-2.4-3.8-2.4-3.8 0v21.6c.06 2.4 3.8 2.4 3.8 0zm-16.8-3.1v-19.6a1.85 1.85 0 0 0-3.7 0v19.6c-.14 2.4 3.66 2.4 3.66 0zm-15.4-4.4v-19.1c0-2.4-3.8-2.4-3.8 0v19.1c.1 2.4 3.8 2.4 3.8 0zm-11.8-6.5v-16.8c0-2.4-3.8-2.4-3.8 0v16.8c.06 2.4 3.8 2.4 3.8 0z"/><path class="a" d="M49.59 136.28c-8.6.7-51.5 6.3-36.8 24.3 5.9 7.2 16.7 10.3 25.2 12.6a166.82 166.82 0 0 0 43.9 5.1c3.2 0 3.2-5 0-5a166.08 166.08 0 0 1-36.5-3.5c-8.6-1.8-17.8-4.2-25.2-9.2-5.2-3.5-7-8-1-11.8 8.6-5.6 20.4-6.7 30.3-7.4 3.3-.3 3.3-5.3.1-5.1zm45.3 2.4c-6.6-1-13.2-1.7-19.9-2.2-3.2-.3-3.2 4.7 0 5 6.2.5 12.4 1.1 18.6 2 3.14.5 4.5-4.3 1.3-4.8z"/><path class="a" d="M13.59 183.68l1.5-28.2c.2-3.2-4.8-3.2-5 0l-1.5 28.2c-.1 3.2 4.9 3.2 5 0z"/><path class="a" d="M8.73 181.88c-1.4 11.6 14.9 16.6 23.4 19.2 15.9 4.7 33.1 5.3 49.6 4.7 3.2-.1 3.2-5.1 0-5-13.8.5-27.9.1-41.4-2.8-7-1.5-27.9-5.8-26.7-16.1.5-3.1-4.5-3.1-4.9 0z"/><path class="a" d="M9.59 180.98c-4.8 3.4-9.5 9.5-7.3 15.7 2.6 7.3 13.9 11 20.5 13.5a99.56 99.56 0 0 0 30 6.6c9.8.6 20.7 1.7 30.4-.3 3.1-.7 1.8-5.5-1.3-4.8-7 1.4-14.5.6-21.6.4-8.3-.3-16.7-.6-24.7-2.8a104.19 104.19 0 0 1-20.1-7.7c-2.8-1.5-7.8-3.8-8.5-7.1-.9-3.7 2.3-7.2 5.2-9.2 2.5-1.9 0-6.2-2.6-4.3z"/><path class="a" d="M5.09 220.38l1.5-28.2c.2-3.2-4.8-3.2-5 0l-1.5 28.2c-.1 3.16 4.9 3.16 5 0z"/><path class="a" d="M.09 217.88c-1.5 13 15.3 18.7 25.1 21.7 17.9 5.5 37.3 5.9 55.8 4 3.2-.3 3.2-5.3 0-5-15.6 1.6-31.9 1.6-47.3-1.9-8.4-1.9-30-6.7-28.6-18.8.4-3.2-4.6-3.2-5 0z"/><path class="a" d="M81.99 248.48a174.41 174.41 0 0 1-37.5-1.8 89.2 89.2 0 0 1-16.2-4c-4.6-1.7-13.5-5-13.9-10.8-.3-3.2-5.3-3.2-5 0 .9 11.7 17.5 16.2 26.8 18.4 14.8 3.4 30.6 4.1 45.7 3.2 3.3-.1 3.3-5.1.1-5z"/><path class="a" d="M13.39 259.54c.3-8.8.6-17.6 1-26.5.1-3.2-4.9-3.2-5 0-.3 8.8-.6 17.6-1 26.5-.1 3.24 4.9 3.24 5 0z"/><path class="a" d="M80.89 276.08a167.55 167.55 0 0 1-37.4-2.8 127.72 127.72 0 0 1-17.1-4.8c-4.3-1.6-12.1-3.6-13.2-8.9-.7-3.1-5.5-1.8-4.8 1.3 1 4.9 5 7.4 9.3 9.4a119.1 119.1 0 0 0 19.3 6.7c14.3 3.6 29.2 4.6 43.9 4.2 3.3-.2 3.3-5.2 0-5.1z"/><path class="b" d="M19.09 172.98v12.56a1.25 1.25 0 0 0 2.5 0v-12.6a1.25 1.25 0 0 0-2.5.04zm10.4 16.8v-13.9a1.25 1.25 0 0 0-2.5 0v13.9a1.25 1.25 0 0 0 2.5 0zm9.2 2.9v-13.14a1.25 1.25 0 0 0-2.5 0v13.1a1.27 1.27 0 0 0 2.54.04zm10.3 2v-11.6a1.25 1.25 0 0 0-2.5 0v11.6a1.25 1.25 0 0 0 2.5 0zm10.6 1.7v-12.3a1.25 1.25 0 0 0-2.5 0v12.3a1.25 1.25 0 0 0 2.5 0zm10.8.9v-12.3a1.25 1.25 0 0 0-2.5 0v12.3a1.25 1.25 0 0 0 2.5 0zm10.5.2v-12.3a1.25 1.25 0 0 0-2.5 0v12.3a1.25 1.25 0 0 0 2.5 0zm-70.3 12.2v12.6a1.25 1.25 0 0 0 2.5 0v-12.6a1.25 1.25 0 0 0-2.5 0zm10.4 16.8v-13.94a1.25 1.25 0 0 0-2.5 0v13.9a1.25 1.25 0 0 0 2.5.04zm10 2v-11.5a1.25 1.25 0 0 0-2.5 0v11.5a1.25 1.25 0 0 0 2.5 0zm10.7 2.8v-11.2a1.25 1.25 0 0 0-2.5 0v11.2a1.27 1.27 0 0 0 2.54 0zm10.7 1.3v-11.1a1.25 1.25 0 0 0-2.5 0v11.06a1.25 1.25 0 1 0 2.5 0zm20.9-11.4v12.36a1.25 1.25 0 0 0 2.5 0v-12.4a1.25 1.25 0 0 0-2.5.04zm-11.1.4v12.4a1.25 1.25 0 0 0 2.5 0v-12.44a1.25 1.25 0 0 0-2.5 0zm1.3 50.5v-13a1.25 1.25 0 0 0-2.5 0v13a1.25 1.25 0 0 0 2.5 0zm12.6.4v-13a1.25 1.25 0 0 0-2.5 0v13a1.25 1.25 0 0 0 2.5 0zm-27-15.1v13.3a1.25 1.25 0 0 0 2.5 0v-13.3a1.25 1.25 0 0 0-2.5 0zm-10.8-1v10.8a1.25 1.25 0 0 0 2.5 0v-10.8a1.25 1.25 0 0 0-2.5 0zm-7.9 8.2v-11.3a1.25 1.25 0 0 0-2.5 0v11.26a1.25 1.25 0 0 0 2.5 0zm-11.1-13.9v8.1a1.25 1.25 0 0 0 2.5 0v-8.1a1.25 1.25 0 0 0-2.5 0z"/><path class="c" d="M45.79 40.98a.61.61 0 0 1-.6-.9l16-39.7c.2-.5.5-.5.7 0l15.9 39.7a.61.61 0 0 1-.6.9h-8a1 1 0 0 0-1 1v111a.94.94 0 0 1-1 1h-10a1 1 0 0 1-1-1v-111a1.08 1.08 0 0 0-1-1zm248.02 127.07a61.51 61.51 0 0 1 12.32-24.51c5.28-6.24 12.05-11.08 16.8-17.86a22.26 22.26 0 0 0 2.91-21c-2.82-7.48-8.8-13.46-10.83-21.29-1 1.84-2 3.6-3.08 5.45a42.43 42.43 0 0 1 37.14 8c4.75 4 8.71 9.06 15 10.82 7 2 14.35-.26 21.21-1.76 10.16-2.36 20.45-4.36 30.75-5.95 11.44-1.76 22.61-1.23 34.14-.71 23.32 1.15 44.79 7.31 63 22.62 21.91 18.39 37.66 44.17 39.15 73.12 1.67 33.09-17.24 62-44.17 79.9a4.52 4.52 0 0 0-1.58 6c2.46 5.19 5.54 13.73 3.78 19.54-.88 2.81-5.9 3.52-8.54 4.31-3.25 1.05-6.51 1.93-9.76 2.81-6.25 1.68-13 3.79-19.54 3.35-5.28-.35-12-4.23-10-10.47a4.4 4.4 0 0 0-4.22-5.55 263.7 263.7 0 0 1-74.8-6.16 4.67 4.67 0 0 0-5.45 3.08c-1.32 3.61-2.55 7.13-3.87 10.74-.71 2-1.94 8.53-3.79 9.85s-8.62-1.14-10.56-1.58c-3.34-.79-6.77-1.67-10-2.64a176.78 176.78 0 0 1-20.77-7.66c-1.14-.52-3.43-1.05-4.4-2-1.14-.18-1.49-.88-1-2.11.35-1.06.7-2.11 1-3.08 1.32-3.78 2.91-7.48 4.58-11.09a4.44 4.44 0 0 0-2.64-6.42c-20.59-7.92-35.46-28.16-37-50.16-.08-1.76-1.23-3.87-3.25-4.22-9.07-1.67-18-3.35-27.1-5-1.76-.35-5.28-.26-6.43-1.85-1-1.32-.7-4.75-.88-6.33a84.24 84.24 0 0 1 0-13.29 79.58 79.58 0 0 1 2.2-12.76c.88-3.25 1.67-9.94 5.28-10.47 4.4-.61 9.33-.09 13.82-.17 5.19-.09 10.38-.09 15.48-.18 5.63-.09 5.63-8.89 0-8.8-6.33.09-12.67.09-19 .18-4.84.08-11.53-1.06-16.11 1.23-4.31 2.11-5.63 7.83-7 12.05a89.78 89.78 0 0 0-3.43 17.25 80.23 80.23 0 0 0 .09 17.25c.53 4.66.88 9.76 5.45 12.23s11.18 2.64 16.28 3.52c6.25 1.14 12.59 2.29 18.83 3.52-1.05-1.41-2.11-2.82-3.25-4.23a68.15 68.15 0 0 0 43.47 58.61c-.88-2.11-1.76-4.31-2.64-6.43a127.42 127.42 0 0 0-6 14.79c-1.4 4.22-2 8.53 1.76 11.79 3.35 3 8.54 4.49 12.67 6.16 5.2 2.11 10.48 4.05 15.84 5.72 5.11 1.58 10.3 2.9 15.49 4 4.22.88 8.89 2.2 12.94.17 3.87-1.93 5.1-6.16 6.51-10l5.8-16.1c-1.84 1.05-3.6 2-5.45 3.08a273.25 273.25 0 0 0 77.08 6.51l-4.22-5.54c-2.47 7.74 2.11 15.75 9.15 19.27 9.15 4.66 20.33 1.49 29.56-1 5.46-1.41 10.92-3 16.28-4.84 3.7-1.32 7.31-2.64 9.07-6.42 4-8.45-.18-21-4-28.87-.53 2-1.06 4.05-1.59 6 24.38-16.19 43.82-41.1 47.78-70.66 4.14-30.89-7.56-60.72-28-83.6-17.16-19.27-39.77-32.73-65.55-36.34a224.59 224.59 0 0 0-38.46-2.11c-11.44.44-23 2.91-34.14 5.19-6.25 1.24-12.41 2.82-18.65 4-4.67.88-9.15 1-13.11-1.93-3.26-2.38-5.9-5.55-9.16-8.1a51.16 51.16 0 0 0-43.73-8.8 4.54 4.54 0 0 0-2.97 5.42c1.85 7.3 6.69 12.93 10 19.53 3.88 7.66 1.06 14-4.48 19.89-5.46 5.72-11.36 10.64-15.93 17.16a69.59 69.59 0 0 0-10.74 23.49c-1.23 5.63 7.22 7.92 8.63 2.46z"/><path class="c" d="M338.07 168.54c11.35 0 11.35-17.6 0-17.6s-11.34 17.6 0 17.6z"/><path class="b" d="M420.08 80.24c-9.07-23.15 8.09-48.49 33.44-46.73 24.81 1.76 38.1 29.83 25.87 50.77-2.82 4.93 4.75 9.33 7.56 4.4 11.78-20.14 5.37-46.72-15.13-58.51-19.27-11.09-44.35-4.84-56.49 13.64a42.75 42.75 0 0 0-3.79 38.73c2.03 5.26 10.56 3 8.54-2.3z"/></svg>