<svg xmlns="http://www.w3.org/2000/svg" viewBox="0 0 239.6 310.2"><style>.a{fill:#46b5aa}.b{fill:#96d7e1}</style><switch><g><path class="a" d="M226.6 72c-.2 6.7-8.3 10.9-13.6 13.3-9.6 4.4-20.4 6.5-30.9 7.8-23 2.8-48.7 2-70.5-6.6-5.7-2.2-14.2-6-16-12.5-1.8-6.5 5.5-11.2 10.2-13.8C125.4 49.7 151 48.7 172.7 50c12.5.8 25.2 2.7 36.9 7.3 6.1 2.4 16.7 6.9 17 14.7.1 3.2 5.1 3.2 5 0-.3-7.2-6.2-12.2-12-15.6-10.4-5.9-22.6-8.5-34.2-10.1-25.6-3.5-55.6-2.9-79.4 8.3-6.3 3-13.8 7.7-15.3 15-1.4 7 3.8 12.7 9.2 16.3 9.1 6.2 20.6 9 31.3 10.9 14.6 2.5 29.6 3.1 44.3 1.9 13.6-1.1 27.7-3.4 40.2-9.2 7.2-3.3 15.7-8.8 16.1-17.6-.1-3.1-5.1-3.1-5.2.1z"/><path class="a" d="M94.9 108.6c.1-12.1.3-24.2.4-36.2 0-3.2-5-3.2-5 0-.1 12.1-.3 24.2-.4 36.2-.1 3.2 4.9 3.2 5 0zm136.2.7c.1-12.1.3-24.2.4-36.2 0-3.2-5-3.2-5 0-.1 12.1-.3 24.2-.4 36.2 0 3.2 5 3.2 5 0z"/><path class="a" d="M226.1 107c.5 6.4-6.6 10.8-11.5 13.4-11.5 6-25.3 7.9-38.1 8.6-17.8 1-36-.4-53.3-4.6-6.7-1.6-13.4-3.7-19.6-6.9-3.5-1.8-8.2-4.4-8.8-8.6-.5-3.2-5.3-1.8-4.8 1.3 1.2 7.8 11.3 12 17.6 14.6 13.3 5.3 27.8 7.7 42 8.9 15 1.2 30.3 1 45.2-1.7 9.3-1.7 19.1-4.5 27-10 4.8-3.4 9.8-8.5 9.3-14.9-.3-3.3-5.3-3.3-5-.1z"/><path class="a" d="M228.3 109.1c4.9 3.8 8.5 9.1 4.3 14.6-2.8 3.7-7.3 6.1-11.5 8-14.1 6.4-30.4 8.4-45.7 8.9-16.3.6-33.1-.7-48.8-5.4-7.4-2.2-22.9-7-23.2-16.8-.1-3.2-5.1-3.2-5 0 .3 8.2 7.8 13.5 14.5 16.9 11.8 5.9 25.3 8.3 38.3 9.6 16.4 1.6 33.1 1.1 49.3-1.9 11-2.1 23.2-5.2 32.1-12.4 9.2-7.5 8.5-17.7-.9-25-2.4-2-5.9 1.5-3.4 3.5z"/><path class="a" d="M103 154.9c.1-12.1.3-24.2.4-36.2 0-3.2-5-3.2-5 0-.1 12.1-.3 24.2-.4 36.2-.1 3.2 4.9 3.2 5 0zm136.2.7c.1-12.1.3-24.2.4-36.2 0-3.2-5-3.2-5 0-.1 12.1-.3 24.2-.4 36.2-.1 3.2 4.9 3.2 5 0z"/><path class="a" d="M234.2 153.3c.5 6.4-6.6 10.8-11.5 13.4-11.5 6-25.3 7.9-38.1 8.6-17.8 1-36-.4-53.3-4.6-6.7-1.6-13.4-3.7-19.6-6.9-3.5-1.8-8.2-4.4-8.8-8.6-.5-3.2-5.3-1.8-4.8 1.3 1.2 7.8 11.3 12 17.6 14.6 13.3 5.3 27.8 7.7 42 8.9 15 1.2 30.3 1 45.2-1.7 9.3-1.7 19.1-4.5 27-10 4.8-3.4 9.8-8.5 9.3-14.9-.3-3.3-5.3-3.3-5-.1z"/><path class="a" d="M95.5 150.3c-8 5.7-11.8 14.4-5 22.5 6.7 8 18.1 12 27.8 14.7 15.5 4.4 31.9 6.1 48 5.9 14.1-.2 28.8-1.7 42.1-6.6 8.2-3 18.7-8.2 19.5-18.1.2-3.2-4.8-3.2-5 0-.7 9.6-16 13.7-23.3 15.6-15.8 4.1-32.6 4.8-48.8 3.6-15.2-1.1-31.2-3.7-45.1-10.4-9.8-4.8-20.5-13.9-7.7-23 2.6-1.7.1-6.1-2.5-4.2z"/><path class="a" d="M226.8 205.3c.3-12.1.7-24.2 1-36.2.1-3.2-4.9-3.2-5 0-.3 12.1-.7 24.2-1 36.2 0 3.2 5 3.2 5 0zm-136.1-4.8c.3-12.1.7-24.2 1-36.2.1-3.2-4.9-3.2-5 0-.3 12.1-.7 24.2-1 36.2-.1 3.2 4.9 3.2 5 0z"/><path class="a" d="M85.8 198.2c-1.8 14.4 20 22.1 30.3 25 13.8 3.8 28.3 5 42.6 4.9 15.2-.1 30.8-1.6 45.4-5.9 7.6-2.2 20.7-6.2 22.6-15.4.6-3.1-4.2-4.5-4.8-1.3-.8 4-5.4 6.3-8.7 8-6.1 3-12.9 4.8-19.6 6.2-17.7 3.7-36.3 4.3-54.2 2.6-12.6-1.2-26.1-3.7-37.3-10-4.9-2.7-12.1-7.5-11.2-14.1.3-3.2-4.7-3.2-5.1 0z"/><path class="a" d="M92 243.5c.1-12.1.3-24.2.4-36.2 0-3.2-5-3.2-5 0-.1 12.1-.3 24.2-.4 36.2 0 3.3 5 3.3 5 0zm136.2.8c.1-12.1.3-24.2.4-36.2 0-3.2-5-3.2-5 0-.1 12.1-.3 24.2-.4 36.2 0 3.2 5 3.2 5 0z"/><path class="a" d="M223.2 242c.5 6.4-6.6 10.8-11.5 13.4-11.5 6-25.3 7.9-38.1 8.6-17.8 1-36-.4-53.3-4.6-6.7-1.6-13.4-3.7-19.6-6.9-3.5-1.8-8.2-4.4-8.8-8.6-.5-3.2-5.3-1.8-4.8 1.3 1.2 7.8 11.3 12 17.6 14.6 13.3 5.3 27.8 7.7 42 8.9 15 1.2 30.3 1 45.2-1.7 9.3-1.7 19.1-4.5 27-10 4.8-3.4 9.8-8.5 9.3-14.9-.2-3.3-5.2-3.4-5-.1z"/><path class="a" d="M91.4 284.5c.1-12.1.3-24.2.4-36.2 0-3.2-5-3.2-5 0-.1 12.1-.3 24.2-.4 36.2 0 3.2 5 3.2 5 0zm136.2.7c.1-12.1.3-24.2.4-36.2 0-3.2-5-3.2-5 0-.1 12.1-.3 24.2-.4 36.2 0 3.2 5 3.3 5 0z"/><path class="a" d="M222.6 282.9c.5 6.4-6.6 10.8-11.5 13.4-11.5 6-25.3 7.9-38.1 8.6-17.8 1-36-.4-53.3-4.6-6.7-1.6-13.4-3.7-19.6-6.9-3.5-1.8-8.2-4.4-8.8-8.6-.5-3.2-5.3-1.8-4.8 1.3 1.2 7.8 11.3 12 17.6 14.6 13.3 5.3 27.8 7.7 42 8.9 15 1.2 30.3 1 45.2-1.7 9.3-1.7 19.1-4.5 27-10 4.8-3.4 9.8-8.5 9.3-14.9-.2-3.3-5.2-3.3-5-.1z"/><path class="b" d="M220.4 111.2c0-5.4-.1-10.8-.1-16.2 0-2.4-3.8-2.4-3.8 0 0 5.4.1 10.8.1 16.2.1 2.4 3.8 2.4 3.8 0zm-13-13c0 6-.1 12-.1 17.9 0 2.4 3.7 2.4 3.8 0 0-6 .1-12 .1-17.9 0-2.5-3.8-2.5-3.8 0zm-11.7 1.7v21.6c0 2.4 3.8 2.4 3.8 0V99.9c0-2.4-3.8-2.4-3.8 0zm-15.8 2.9v21.6c0 2.4 3.8 2.4 3.8 0v-21.6c-.1-2.4-3.8-2.4-3.8 0zm-17.2.6V125c0 2.4 3.8 2.4 3.8 0v-21.6c-.1-2.5-3.8-2.5-3.8 0zm-13.5 21.2V103c0-2.4-3.8-2.4-3.8 0v21.6c0 2.4 3.8 2.4 3.8 0zm-16.9-3.1v-19.6c0-2.4-3.8-2.4-3.8 0v19.6c.1 2.4 3.8 2.4 3.8 0zm-15.3-4.4V98c0-2.4-3.8-2.4-3.8 0v19.1c0 2.4 3.8 2.4 3.8 0zm-11.8-6.5V93.8c0-2.4-3.8-2.4-3.8 0v16.8c0 2.4 3.8 2.4 3.8 0zm123.3 46.9c0-5.4-.1-10.8-.1-16.2 0-2.4-3.8-2.4-3.8 0 0 5.4.1 10.8.1 16.2.1 2.4 3.8 2.4 3.8 0zm-13-13c0 6-.1 12-.1 17.9 0 2.4 3.7 2.4 3.8 0 0-6 .1-12 .1-17.9 0-2.4-3.8-2.4-3.8 0zm-11.7 1.7v21.6c0 2.4 3.8 2.4 3.8 0v-21.6c0-2.4-3.8-2.4-3.8 0zm-15.8 2.9v21.6c0 2.4 3.8 2.4 3.8 0v-21.6c-.1-2.4-3.8-2.4-3.8 0zm-17.2.6v21.6c0 2.4 3.8 2.4 3.8 0v-21.6c-.1-2.4-3.8-2.4-3.8 0zm-13.5 21.2v-21.6c0-2.4-3.8-2.4-3.8 0v21.6c0 2.4 3.8 2.4 3.8 0zm-16.9-3.1v-19.6c0-2.4-3.8-2.4-3.8 0v19.6c.1 2.4 3.8 2.4 3.8 0zm-15.3-4.4v-19.1c0-2.4-3.8-2.4-3.8 0v19.1c0 2.4 3.8 2.4 3.8 0zm-11.8-6.5v-16.8c0-2.4-3.8-2.4-3.8 0v16.8c0 2.4 3.8 2.4 3.8 0zM100 202.8c.3-5.4.5-10.8.8-16.2.1-2.4-3.6-2.4-3.8 0-.3 5.4-.5 10.8-.8 16.2 0 2.4 3.7 2.4 3.8 0zm6.1-12.7c-.2 6-.4 11.9-.6 17.9-.1 2.4 3.7 2.4 3.8 0 .2-6 .4-11.9.6-17.9 0-2.4-3.7-2.4-3.8 0zm11.6 2.3l-.9 21.6c-.1 2.4 3.7 2.4 3.8 0l.9-21.6c0-2.4-3.7-2.4-3.8 0zm15.7 3.5l-.9 21.6c-.1 2.4 3.7 2.4 3.8 0l.9-21.6c0-2.4-3.7-2.4-3.8 0zm17.2 1.2l-.9 21.6c-.1 2.4 3.7 2.4 3.8 0l.9-21.6c0-2.4-3.7-2.4-3.8 0zm20.1 22l.9-21.6c.1-2.4-3.7-2.4-3.8 0l-.9 21.6c-.1 2.4 3.7 2.4 3.8 0zm16.9-2.4c.3-6.5.5-13.1.8-19.6.1-2.4-3.7-2.4-3.8 0-.3 6.5-.5 13.1-.8 19.6 0 2.4 3.7 2.4 3.8 0zm15.5-3.8c.3-6.4.5-12.7.8-19.1.1-2.4-3.7-2.4-3.8 0-.3 6.4-.5 12.7-.8 19.1 0 2.4 3.7 2.4 3.8 0zm12.1-6c.2-5.6.5-11.2.7-16.7.1-2.4-3.7-2.4-3.8 0-.2 5.6-.5 11.2-.7 16.7 0 2.4 3.7 2.4 3.8 0zm2.4 39.2c0-5.4-.1-10.8-.1-16.2 0-2.4-3.8-2.4-3.8 0 0 5.4.1 10.8.1 16.2 0 2.4 3.8 2.4 3.8 0zm-13-13c0 6-.1 12-.1 17.9 0 2.4 3.7 2.4 3.8 0 0-6 .1-12 .1-17.9-.1-2.4-3.8-2.4-3.8 0zm-11.7 1.8v21.6c0 2.4 3.8 2.4 3.8 0v-21.6c-.1-2.4-3.8-2.4-3.8 0zm-15.9 2.9v21.6c0 2.4 3.8 2.4 3.8 0v-21.6c0-2.5-3.8-2.5-3.8 0zm-17.2.5v21.6c0 2.4 3.8 2.4 3.8 0v-21.6c0-2.4-3.8-2.4-3.8 0zm-13.5 21.2v-21.6c0-2.4-3.8-2.4-3.8 0v21.6c.1 2.4 3.8 2.5 3.8 0zm-16.8-3.1v-19.6c0-2.4-3.8-2.4-3.8 0v19.6c0 2.5 3.8 2.5 3.8 0zm-15.4-4.4v-19.1c0-2.4-3.8-2.4-3.8 0V252c.1 2.5 3.8 2.5 3.8 0zm-11.8-6.5v-16.8c0-2.4-3.8-2.4-3.8 0v16.8c.1 2.5 3.8 2.5 3.8 0zM217 287.1c0-5.4-.1-10.8-.1-16.2 0-2.4-3.8-2.4-3.8 0 0 5.4.1 10.8.1 16.2 0 2.4 3.8 2.4 3.8 0zm-13-13c0 6-.1 12-.1 17.9 0 2.4 3.7 2.4 3.8 0 0-6 .1-12 .1-17.9-.1-2.4-3.8-2.4-3.8 0zm-11.7 1.7v21.6c0 2.4 3.8 2.4 3.8 0v-21.6c-.1-2.4-3.8-2.4-3.8 0zm-15.9 2.9v21.6c0 2.4 3.8 2.4 3.8 0v-21.6c0-2.4-3.8-2.4-3.8 0zm-17.2.6v21.6c0 2.4 3.8 2.4 3.8 0v-21.6c0-2.4-3.8-2.4-3.8 0zm-13.5 21.2v-21.6c0-2.4-3.8-2.4-3.8 0v21.6c.1 2.4 3.8 2.4 3.8 0zm-16.8-3.1v-19.6c0-2.4-3.7-2.4-3.7 0v19.6c-.1 2.4 3.7 2.4 3.7 0zm-15.4-4.4v-19.1c0-2.4-3.8-2.4-3.8 0V293c.1 2.4 3.8 2.4 3.8 0zm-11.8-6.5v-16.8c0-2.4-3.8-2.4-3.8 0v16.8c.1 2.4 3.8 2.4 3.8 0z"/><path class="a" d="M49.6 136.3c-8.6.7-51.5 6.3-36.8 24.3 5.9 7.2 16.7 10.3 25.2 12.6 14.3 3.8 29.2 5.2 43.9 5.1 3.2 0 3.2-5 0-5-12.2.1-24.5-.9-36.5-3.5-8.6-1.8-17.8-4.2-25.2-9.2-5.2-3.5-7-8-1-11.8 8.6-5.6 20.4-6.7 30.3-7.4 3.3-.3 3.3-5.3.1-5.1zm45.3 2.4c-6.6-1-13.2-1.7-19.9-2.2-3.2-.3-3.2 4.7 0 5 6.2.5 12.4 1.1 18.6 2 3.1.5 4.5-4.3 1.3-4.8z"/><path class="a" d="M13.6 183.7l1.5-28.2c.2-3.2-4.8-3.2-5 0l-1.5 28.2c-.1 3.2 4.9 3.2 5 0z"/><path class="a" d="M8.7 181.9c-1.4 11.6 14.9 16.6 23.4 19.2 15.9 4.7 33.1 5.3 49.6 4.7 3.2-.1 3.2-5.1 0-5-13.8.5-27.9.1-41.4-2.8-7-1.5-27.9-5.8-26.7-16.1.5-3.1-4.5-3.1-4.9 0z"/><path class="a" d="M9.6 181c-4.8 3.4-9.5 9.5-7.3 15.7 2.6 7.3 13.9 11 20.5 13.5 9.8 3.7 19.5 6 30 6.6 9.8.6 20.7 1.7 30.4-.3 3.1-.7 1.8-5.5-1.3-4.8-7 1.4-14.5.6-21.6.4-8.3-.3-16.7-.6-24.7-2.8-6.8-1.9-13.8-4.4-20.1-7.7-2.8-1.5-7.8-3.8-8.5-7.1-.9-3.7 2.3-7.2 5.2-9.2 2.5-1.9 0-6.2-2.6-4.3z"/><path class="a" d="M5.1 220.4l1.5-28.2c.2-3.2-4.8-3.2-5 0L.1 220.4c-.1 3.2 4.9 3.2 5 0z"/><path class="a" d="M.1 217.9c-1.5 13 15.3 18.7 25.1 21.7 17.9 5.5 37.3 5.9 55.8 4 3.2-.3 3.2-5.3 0-5-15.6 1.6-31.9 1.6-47.3-1.9-8.4-1.9-30-6.7-28.6-18.8.4-3.2-4.6-3.2-5 0z"/><path class="a" d="M82 248.5c-12.5.7-25.1.2-37.5-1.8-5.5-.9-11-2.1-16.2-4-4.6-1.7-13.5-5-13.9-10.8-.3-3.2-5.3-3.2-5 0 .9 11.7 17.5 16.2 26.8 18.4 14.8 3.4 30.6 4.1 45.7 3.2 3.3-.1 3.3-5.1.1-5z"/><path class="a" d="M13.4 259.6c.3-8.8.6-17.6 1-26.5.1-3.2-4.9-3.2-5 0-.3 8.8-.6 17.6-1 26.5-.1 3.2 4.9 3.2 5 0z"/><path class="a" d="M80.9 276.1c-12.5.3-25.1-.3-37.4-2.8-5.8-1.2-11.5-2.8-17.1-4.8-4.3-1.6-12.1-3.6-13.2-8.9-.7-3.1-5.5-1.8-4.8 1.3 1 4.9 5 7.4 9.3 9.4 6.2 2.8 12.7 5 19.3 6.7 14.3 3.6 29.2 4.6 43.9 4.2 3.3-.2 3.3-5.2 0-5.1z"/><path class="b" d="M19.1 173v12.6c0 1.6 2.5 1.6 2.5 0V173c0-1.6-2.5-1.6-2.5 0zm10.4 16.8v-13.9c0-1.6-2.5-1.6-2.5 0v13.9c0 1.6 2.5 1.6 2.5 0zm9.2 2.9v-13.1c0-1.6-2.5-1.6-2.5 0v13.1c0 1.6 2.5 1.6 2.5 0zm10.3 2v-11.6c0-1.6-2.5-1.6-2.5 0v11.6c0 1.6 2.5 1.6 2.5 0zm10.6 1.7v-12.3c0-1.6-2.5-1.6-2.5 0v12.3c0 1.6 2.5 1.6 2.5 0zm10.8.9V185c0-1.6-2.5-1.6-2.5 0v12.3c0 1.6 2.5 1.6 2.5 0zm10.5.2v-12.3c0-1.6-2.5-1.6-2.5 0v12.3c0 1.6 2.5 1.6 2.5 0zm-70.3 12.2v12.6c0 1.6 2.5 1.6 2.5 0v-12.6c0-1.6-2.5-1.6-2.5 0zM21 226.5v-13.9c0-1.6-2.5-1.6-2.5 0v13.9c0 1.6 2.5 1.6 2.5 0zm10 2V217c0-1.6-2.5-1.6-2.5 0v11.5c0 1.6 2.5 1.7 2.5 0zm10.7 2.8v-11.2c0-1.6-2.5-1.6-2.5 0v11.2c0 1.6 2.5 1.6 2.5 0zm10.7 1.3v-11.1c0-1.6-2.5-1.6-2.5 0v11.1c0 1.7 2.5 1.7 2.5 0zm20.9-11.4v12.4c0 1.6 2.5 1.6 2.5 0v-12.4c0-1.6-2.5-1.6-2.5 0zm-11.1.4V234c0 1.6 2.5 1.6 2.5 0v-12.4c0-1.6-2.5-1.7-2.5 0zm1.3 50.5v-13c0-1.6-2.5-1.6-2.5 0v13c0 1.6 2.5 1.6 2.5 0zm12.6.4v-13c0-1.6-2.5-1.6-2.5 0v13c0 1.6 2.5 1.6 2.5 0zm-27-15.1v13.3c0 1.6 2.5 1.6 2.5 0v-13.3c0-1.6-2.5-1.6-2.5 0zm-10.8-1v10.8c0 1.6 2.5 1.6 2.5 0v-10.8c0-1.6-2.5-1.6-2.5 0zm-7.9 8.2v-11.3c0-1.6-2.5-1.6-2.5 0v11.3c0 1.6 2.5 1.6 2.5 0zm-11.1-13.9v8.1c0 1.6 2.5 1.6 2.5 0v-8.1c0-1.6-2.5-1.6-2.5 0z"/><path d="M45.8 41c-.5 0-.8-.4-.6-.9L61.2.4c.2-.5.5-.5.7 0l15.9 39.7c.2.5-.1.9-.6.9h-8c-.6 0-1 .5-1 1v111c0 .6-.4 1-1 1h-10c-.5 0-1-.4-1-1V42c0-.5-.5-1-1-1h-9.4z" fill="#013751"/></g></switch></svg>