<svg xmlns="http://www.w3.org/2000/svg" viewBox="0 0 361.5 337.1"><style>.a{fill:#013751}</style><switch><g><path class="a" d="M57.7 162.8c2.6-10.2 7.2-19.8 14-27.9 6-7.1 13.7-12.6 19.1-20.3 5-7.1 6.4-15.7 3.3-23.9-3.2-8.5-10-15.3-12.3-24.2-1.2 2.1-2.3 4.1-3.5 6.2 14.5-3.7 30.6-.5 42.2 9.1 5.4 4.5 9.9 10.3 17.1 12.3 8 2.3 16.3-.3 24.1-2 11.5-2.6 23.2-4.9 34.9-6.7 13-2 25.7-1.4 38.8-.8 26.5 1.3 50.9 8.3 71.6 25.7 24.9 20.9 42.8 50.2 44.5 83.1 1.9 37.6-19.6 70.5-50.2 90.8-2.4 1.6-3 4.3-1.8 6.8 2.8 5.9 6.3 15.6 4.3 22.2-1 3.2-6.7 4-9.7 4.9-3.7 1.2-7.4 2.2-11.1 3.2-7.1 1.9-14.8 4.3-22.2 3.8-6-.4-13.6-4.8-11.4-11.9.9-3-1.6-6.5-4.8-6.3-28.6 1.7-57.1-.6-85-7-2.8-.6-5.2.9-6.2 3.5-1.5 4.1-2.9 8.1-4.4 12.2-.8 2.3-2.2 9.7-4.3 11.2-2.2 1.5-9.8-1.3-12-1.8-3.8-.9-7.7-1.9-11.4-3-8-2.4-15.9-5.3-23.6-8.7-1.3-.6-3.9-1.2-5-2.3-1.3-.2-1.7-1-1.1-2.4.4-1.2.8-2.4 1.2-3.5 1.5-4.3 3.3-8.5 5.2-12.6 1.5-3.1.2-6.1-3-7.3-23.4-9-40.3-32-42.1-57-.1-2-1.4-4.4-3.7-4.8-10.3-1.9-20.5-3.8-30.8-5.7-2-.4-6-.3-7.3-2.1-1.1-1.5-.8-5.4-1-7.2-.4-5-.4-10.1 0-15.1.4-4.9 1.3-9.7 2.5-14.5 1-3.7 1.9-11.3 6-11.9 5-.7 10.6-.1 15.7-.2 5.9-.1 11.8-.1 17.6-.2 6.4-.1 6.4-10.1 0-10-7.2.1-14.4.1-21.6.2-5.5.1-13.1-1.2-18.3 1.4-4.9 2.4-6.4 8.9-7.9 13.7-2 6.4-3.2 13-3.9 19.6-.7 6.5-.6 13.1.1 19.6.6 5.3 1 11.1 6.2 13.9 5.2 2.8 12.7 3 18.5 4 7.1 1.3 14.3 2.6 21.4 4-1.2-1.6-2.4-3.2-3.7-4.8 2.1 29.8 21.6 56 49.4 66.6-1-2.4-2-4.9-3-7.3-2.6 5.5-4.9 11-6.8 16.8-1.6 4.8-2.3 9.7 2 13.4 3.8 3.4 9.7 5.1 14.4 7 5.9 2.4 11.9 4.6 18 6.5 5.8 1.8 11.7 3.3 17.6 4.5 4.8 1 10.1 2.5 14.7.2 4.4-2.2 5.8-7 7.4-11.4l6.6-18.3c-2.1 1.2-4.1 2.3-6.2 3.5 28.7 6.6 58.2 9.1 87.6 7.4l-4.8-6.3c-2.8 8.8 2.4 17.9 10.4 21.9 10.4 5.3 23.1 1.7 33.6-1.1 6.2-1.6 12.4-3.4 18.5-5.5 4.2-1.5 8.3-3 10.3-7.3 4.5-9.6-.2-23.9-4.5-32.8-.6 2.3-1.2 4.6-1.8 6.8 27.7-18.4 49.8-46.7 54.3-80.3 4.7-35.1-8.6-69-31.8-95-19.5-21.9-45.2-37.2-74.5-41.3-14.2-2-29.3-2.9-43.7-2.4-13 .5-26.1 3.3-38.8 5.9-7.1 1.4-14.1 3.2-21.2 4.6-5.3 1-10.4 1.1-14.9-2.2-3.7-2.7-6.7-6.3-10.4-9.2-14-10.8-32.6-14.4-49.7-10-2.6.7-4.2 3.6-3.5 6.2 2.1 8.3 7.6 14.7 11.4 22.2 4.4 8.7 1.2 15.9-5.1 22.6-6.2 6.5-12.9 12.1-18.1 19.5-5.7 8-9.8 17.1-12.2 26.7-1.4 6.4 8.2 9 9.8 2.8z"/><path class="a" d="M108 163.4c12.9 0 12.9-20 0-20-12.8 0-12.9 20 0 20z"/><path d="M201.2 63c-10.3-26.3 9.2-55.1 38-53.1 28.2 2 43.3 33.9 29.4 57.7-3.2 5.6 5.4 10.6 8.6 5 13.4-22.9 6.1-53.1-17.2-66.5-21.9-12.6-50.4-5.5-64.2 15.5-8.5 12.9-9.9 29.6-4.3 44 2.3 6 12 3.4 9.7-2.6z" fill="#96d7e1"/></g></switch></svg>