<?xml version="1.0" encoding="UTF-8"?>
<svg width="62px" height="62px" viewBox="0 0 62 62" version="1.1" xmlns="http://www.w3.org/2000/svg" xmlns:xlink="http://www.w3.org/1999/xlink">
    <title>tax-credits / Icons / Amount</title>
    <g id="tax-credits-/-Icons-/-Amount" stroke="none" stroke-width="1" fill="none" fill-rule="evenodd">
        <g id="Amount">
            <circle id="Oval" fill="#EAF6FF" cx="33" cy="33" r="33"></circle>
            <path d="M16.9166514,37.3120561 C19.4601991,37.3120561 21.7613839,39.5175307 21.8315875,42.1745402 L21.8332367,42.2994116 L21.8332367,42.9993913 L17.5833071,42.9993913 C17.1599368,43.0115773 16.7504379,42.8403426 16.4509573,42.525892 C16.1728682,42.2339021 16.0123876,41.8423076 16.0001729,41.4319369 L16,37.3120561 L16.9166514,37.3120561 Z M50.0827689,37.3120561 L50.9994203,37.3120561 L50.9994203,41.3369396 C51.0110261,41.7814729 50.8479436,42.2114413 50.548463,42.525892 C50.270374,42.817882 49.8974222,42.9863844 49.506588,42.9992097 L45.1661836,42.9993913 L45.1661836,42.2994116 C45.1661836,39.6287198 47.4282368,37.3821577 49.9637251,37.3136647 L50.0827689,37.3120561 Z M43.4995446,22 L43.4995446,22.6999798 C43.4995446,26.3732726 46.5080833,29.3635544 49.9549129,29.4359419 L50.0827689,29.4372844 L50.9994203,29.4372844 L50.9994203,35.5621069 L50.0827689,35.5621069 C46.6255089,35.5621069 43.5748086,38.5075924 43.5009153,42.1636802 L43.4995446,42.2994116 L43.4995446,42.9993913 L23.4998757,42.9993913 L23.4998757,42.2994116 C23.4998757,38.6261187 20.491337,35.6358369 17.0445074,35.5634495 L16.9166514,35.5621069 L16,35.5621069 L16,29.4372844 L16.9166514,29.4372844 C20.3733844,29.4372844 23.4236818,26.5353719 23.498471,22.8811117 L23.4998757,22.7437284 L23.4998757,22 L43.4995446,22 Z M33.4997101,23.1812158 C28.5982642,23.1812158 24.6248572,27.3532413 24.6248572,32.4996957 C24.6248572,37.64615 28.5982642,41.8181756 33.4997101,41.8181756 C38.4011561,41.8181756 42.3745631,37.64615 42.3745631,32.4996957 C42.3745631,27.3532413 38.4011561,23.1812158 33.4997101,23.1812158 Z M33.4997101,24.9307889 C35.4148491,24.9194395 37.254782,25.7130701 38.6090127,27.1349946 C39.9632434,28.5569192 40.7190914,30.4888248 40.7082824,32.4996957 C40.7082824,36.6796797 37.4806969,40.0682263 33.4997101,40.0682263 C29.5187236,40.0682263 26.2914963,36.6796797 26.2914963,32.4996957 C26.2914963,28.3197116 29.5187236,24.9307889 33.4997101,24.9307889 Z M36.9996522,29.4372844 C36.7498744,28.047506 35.5522277,27.0715255 34.2080317,27.1623504 C33.8056774,27.1605479 33.4077066,27.2500903 33.0413844,27.4248428 C32.6884556,27.5598191 32.3733252,27.7854212 32.1247329,28.0810737 C31.8596214,28.3481606 31.6595575,28.678262 31.5414092,29.0435459 C31.406265,29.3610744 31.3349126,29.7039487 31.3312656,30.0507992 L31.3330794,30.1810128 C31.3336481,30.6819318 31.3895768,31.1810892 31.4997433,31.6684698 C31.5101598,31.7012813 31.5179721,31.7340928 31.5244824,31.7669044 L31.558336,31.9637737 L31.5830753,32.0622083 L30.166432,32.0622083 C29.7062024,32.0622083 29.3331126,32.4539478 29.3331126,32.937183 C29.3331126,33.3984528 29.6730559,33.7763559 30.1042403,33.8097577 L30.166432,33.8121575 L31.7080732,33.8121575 L31.7080732,34.2933937 C31.667082,34.6930374 31.5347694,35.0756775 31.3231923,35.4090886 L31.2497474,35.5183581 L30.9164196,36.0433429 C30.7302674,36.2894342 30.7025068,36.6259378 30.8400703,36.8999993 L30.8747536,36.9620663 C31.0171772,37.2452501 31.3006094,37.4155136 31.6016695,37.4046734 L31.6664071,37.3995536 L32.9997184,37.2245587 C33.3466351,37.1857812 33.6963947,37.2622902 33.9997019,37.4433024 C34.4912158,37.7017908 35.0332896,37.8365943 35.5830089,37.837041 C35.8750427,37.8423888 36.1657607,37.7995786 36.4446073,37.7104573 L36.5829924,37.662046 L37.0413181,37.5307999 C37.4773396,37.3843359 37.7191931,36.8959838 37.5829759,36.4370814 C37.5263475,36.2098548 37.3808065,36.0183896 37.1823401,35.9100283 C37.0059257,35.8137071 36.8023326,35.7910412 36.6120004,35.84466 L36.5413264,35.868348 L36.0830006,35.9995943 C35.6725348,36.1196618 35.2364464,36.0890788 34.846243,35.9148845 L34.7496895,35.868348 C34.2581756,35.6098596 33.7161018,35.4750561 33.1663824,35.4746094 C33.2411375,35.1873482 33.3006391,34.8960079 33.3446307,34.6019362 L33.3747123,34.3808912 L33.3747123,33.8121575 L34.7496895,33.8121575 C35.2099191,33.8121575 35.5830089,33.4204182 35.5830089,32.937183 C35.5830089,32.475913 35.2430656,32.0980101 34.8118811,32.0646083 L34.7496895,32.0622083 L33.2913803,32.0622083 C33.2558146,31.7954883 33.2000839,31.5321643 33.1247163,31.2747311 C33.0491827,30.9153104 33.0073173,30.5489932 32.9997184,30.1810128 C32.9833607,30.0155448 33.0122677,29.8486093 33.0830504,29.6997768 C33.1168451,29.5404526 33.2059773,29.4000713 33.3330462,29.3060383 C33.4140424,29.1936153 33.5173624,29.1015254 33.635465,29.0359276 L33.70804,28.9997971 L34.2080317,28.9122996 C34.8955203,28.9122996 35.1714511,29.2093892 35.2985598,29.5276996 L35.3297334,29.6148304 L35.3547116,29.7017697 L35.3746791,29.7872743 C35.4785359,30.2620768 35.9173036,30.5692106 36.3746625,30.487254 C36.5963826,30.4468171 36.7912341,30.3092118 36.910505,30.1088394 C37.0297759,29.9084667 37.0621929,29.6642652 36.9996522,29.4372844 Z M21.8332367,22 L21.8332367,22.7437284 C21.8332367,25.4144202 19.5711835,27.6185694 17.0356952,27.6857573 L16.9166514,27.6873352 L16,27.6873352 L16.0001729,23.5674544 C16.0123876,23.1570837 16.1728682,22.7654893 16.4509573,22.4734993 C16.7290463,22.1815093 17.1019982,22.0130069 17.4928323,22.0001816 L21.8332367,22 Z M49.506588,22.0001816 C49.8974222,22.0130069 50.270374,22.1815093 50.548463,22.4734993 C50.8265521,22.7654893 50.9870327,23.1570837 50.9992474,23.5674544 L50.9994203,27.6873352 L50.0827689,27.6873352 C47.5392212,27.6873352 45.2380364,25.4818606 45.1678328,22.8248511 L45.1661836,22.6999798 L45.1661836,22 L49.506588,22.0001816 Z" id="Shape" fill="#51AAED" fill-rule="nonzero"></path>
        </g>
    </g>
</svg>