<?xml version="1.0" encoding="UTF-8"?>
<svg width="62px" height="62px" viewBox="0 0 62 62" version="1.1" xmlns="http://www.w3.org/2000/svg" xmlns:xlink="http://www.w3.org/1999/xlink">
    <title>tax-credits / Icons / Cost</title>
    <g id="tax-credits-/-Icons-/-Cost" stroke="none" stroke-width="1" fill="none" fill-rule="evenodd">
        <g id="Cost">
            <circle id="Oval" fill="#E8EFF8" cx="33" cy="33" r="33"></circle>
            <path d="M46.6774797,19.3223363 C47.1075068,19.7521181 47.1075068,20.4489321 46.6774797,20.8787139 L21.8708916,45.6711508 C21.6630752,45.8830551 21.3781746,46.0016959 21.0812919,46 C20.642543,45.9938031 20.2497027,45.7268578 20.0826327,45.3213478 C19.9155626,44.9158377 20.0064278,44.4498332 20.3136256,44.136694 L45.1202137,19.3223363 C45.5502409,18.8925546 46.2474526,18.8925546 46.6774797,19.3223363 Z M40,32 C43.3137085,32 46,34.6862915 46,38 C46,41.3137085 43.3137085,44 40,44 C36.6862915,44 34,41.3137085 34,38 C34,34.6862915 36.6862915,32 40,32 Z M28,20 C31.3137085,20 34,22.6862915 34,26 C34,29.3137085 31.3137085,32 28,32 C24.6862915,32 22,29.3137085 22,26 C22,22.6862915 24.6862915,20 28,20 Z" id="Shape" fill="#003E52" fill-rule="nonzero"></path>
        </g>
    </g>
</svg>