<?xml version="1.0" encoding="UTF-8"?>
<svg width="62px" height="62px" viewBox="0 0 62 62" version="1.1" xmlns="http://www.w3.org/2000/svg" xmlns:xlink="http://www.w3.org/1999/xlink">
    <title>Pack</title>
    <g id="Symbols" stroke="none" stroke-width="1" fill="none" fill-rule="evenodd">
        <g id="Pack">
            <circle id="Oval" fill="#FFEFE8" cx="33" cy="33" r="33"></circle>
            <path d="M47.9963018,23.4540317 C47.9906755,23.1989635 47.8330011,22.9713644 47.5945679,22.8741386 L33.2483703,17.0477128 C33.0913091,16.9840957 32.9152656,16.9840957 32.7582044,17.0477128 L18.4094802,22.8716391 C18.1283491,22.9796484 17.9611682,23.2667376 18.0077463,23.5615119 C18.0066886,23.5823282 18.0066886,23.603184 18.0077463,23.6240004 L18.0077463,42.0805977 C18.0072243,42.3329256 18.1566455,42.5619963 18.3892672,42.6654899 L32.5257545,48.9443323 L32.5813404,48.9618291 L32.6268197,48.9768263 C32.73322,49.0077246 32.8463545,49.0077246 32.9527548,48.9768263 L32.9957075,48.9643286 L33.0487667,48.9468318 L47.6097276,42.6679894 C47.8461537,42.5663852 47.9990277,42.3356045 47.9988285,42.0805977 L47.9988285,23.6240004 C48.0000425,23.603184 48.0000425,23.5823282 47.9988285,23.5615119 C48.0010595,23.5256789 48.0000425,23.4897233 47.9963018,23.4540317 Z M28.793924,20.1496409 L41.1744044,25.5286492 L38.3268939,26.8109128 L25.9464135,21.3594179 L28.793924,20.1496409 Z M42.1850559,26.5434621 L42.1850559,34.6094751 L38.9762375,35.9842216 L38.9787641,27.9332059 L42.1850559,26.5434621 Z M33.0032874,18.3324759 L45.7198094,23.4990234 L42.7687071,24.8187801 L30.3351675,19.4147764 L33.0032874,18.3324759 Z M24.0943947,21.9468096 L36.7250114,27.4982861 L32.9148554,29.1554806 L20.2817121,23.4990234 L24.0943947,21.9468096 Z M19.2938003,24.6113183 L32.1442336,30.3177663 L32.1442336,47.3721221 L19.3013802,41.6681737 L19.2938003,24.6113183 Z M46.702668,41.6631746 L33.4378675,47.3846198 L33.4378675,30.4127488 L37.6851303,28.4981018 L37.7154498,36.9565424 C37.7161312,37.1718369 37.8262082,37.3723603 38.0083749,37.4901535 C38.1905416,37.6079467 38.4203751,37.6272174 38.6199829,37.5414345 L43.1199085,35.6142898 C43.3573238,35.5134463 43.5112998,35.2825017 43.511536,35.0268981 L43.511536,25.9835653 L46.7178277,24.6013202 L46.702668,41.6631746 Z" id="Shape" fill="#F8783D" fill-rule="nonzero"></path>
        </g>
    </g>
</svg>