<?xml version="1.0" encoding="UTF-8"?>
<svg width="62px" height="62px" viewBox="0 0 62 62" version="1.1" xmlns="http://www.w3.org/2000/svg" xmlns:xlink="http://www.w3.org/1999/xlink">
    <title>tax-credits / Icons / Purpose</title>
    <g id="tax-credits-/-Icons-/-Purpose" stroke="none" stroke-width="1" fill="none" fill-rule="evenodd">
        <g id="Purpose">
            <circle id="Oval" fill="#e6ddee" cx="33" cy="33" r="33"></circle>
            <path d="M33.4297694,17 C33.9986136,17 34.4584207,17.4598071 34.4584207,18.0286513 L34.4584364,20.1284064 C40.4463301,20.6246671 45.2348717,25.4132087 45.7311324,31.4011024 L47.8308875,31.4011181 C48.3997317,31.4011181 48.8595388,31.8609252 48.8595388,32.4297694 C48.8595388,32.9986136 48.3997317,33.4584207 47.8308875,33.4584207 L45.7311324,33.4584364 C45.2348717,39.4463301 40.4463301,44.2348717 34.4584364,44.7311324 L34.4584207,46.8308875 C34.4584207,47.3997317 33.9986136,47.8595388 33.4297694,47.8595388 C32.8609252,47.8595388 32.4011181,47.3997317 32.4011181,46.8308875 L32.4011024,44.7311324 C26.4132087,44.2348717 21.6246671,39.4463301 21.1284064,33.4584364 L19.0286513,33.4584207 C18.4598071,33.4584207 18,32.9986136 18,32.4297694 C18,31.8609252 18.4598071,31.4011181 19.0286513,31.4011181 L21.1284064,31.4011024 C21.6246671,25.4132087 26.4132087,20.6246671 32.4011024,20.1284064 L32.4011181,18.0286513 C32.4011181,17.4598071 32.8609252,17 33.4297694,17 Z M27.3432546,33.4587645 L23.1942771,33.4583045 C23.6782124,38.3108703 27.5486684,42.1813264 32.4012342,42.6652617 L32.4012342,38.5163465 C29.9001232,38.0967661 27.9091404,36.173023 27.3902056,33.7071258 L27.3432546,33.4587645 Z M43.6652617,33.4583045 L39.5162842,33.4587645 C39.0825847,36.0429784 37.0429784,38.0825847 34.4587645,38.5162842 L34.4583045,42.6652617 C39.3108703,42.1813264 43.1813264,38.3108703 43.6652617,33.4583045 Z M23.1942771,31.4012342 L27.3431923,31.4012342 C27.7767795,28.816632 29.816632,26.7767795 32.4012342,26.3431923 L32.4012342,22.1942771 C27.5486684,22.6782124 23.6782124,26.5486684 23.1942771,31.4012342 Z M34.4583045,22.1942771 L34.4587645,26.3432546 C37.0431022,26.7769749 39.0827801,28.8167558 39.5163465,31.4012342 L43.6652617,31.4012342 C43.1813264,26.5486684 39.3108703,22.6782124 34.4583045,22.1942771 Z" id="Shape" fill="#6E3E9B" fill-rule="nonzero"></path>
        </g>
    </g>
</svg>