<svg xmlns="http://www.w3.org/2000/svg" viewBox="0 0 271 48"><path d="M5.797 1.398l5.898 9.899L1.352 21.18H19.23l1.684-3.961h-9.867l5.969-5.95-3.485-5.914h16.266L15.516 39.16h4.894L36.375 1.398H5.797" fill="#00cdff"/><path d="M239.77 33.7c-3.153-.427-5.004-1.036-5.004-3.11 0-1.887 1.851-3.043 4.14-3.043 1.852 0 4.203.73 5.684 1.828l1.976-2.926c-1.851-1.523-4.816-2.312-7.601-2.312-4.758 0-8.278 2.863-8.278 6.636 0 4.325 2.782 5.727 7.477 6.457 2.656.426 4.945.73 4.945 2.985 0 1.887-1.855 2.926-4.328 2.926-2.41 0-4.574-.672-6.676-2.317l-1.789 3.23c1.543 1.4 4.754 2.497 8.34 2.497 4.946 0 8.528-2.864 8.528-6.7 0-4.628-3.707-5.663-7.414-6.152m-112.856-.008c-3.152-.425-5.004-1.035-5.004-3.105 0-1.89 1.852-3.047 4.14-3.047 1.852 0 4.204.73 5.684 1.828l1.977-2.926c-1.852-1.523-4.816-2.312-7.602-2.312-4.757 0-8.277 2.863-8.277 6.637 0 4.328 2.781 5.726 7.477 6.457 2.656.43 4.945.734 4.945 2.984 0 1.89-1.856 2.926-4.328 2.926-2.41 0-4.574-.672-6.676-2.317l-1.79 3.23c1.544 1.4 4.759 2.497 8.345 2.497 4.941 0 8.527-2.863 8.527-6.7 0-4.628-3.707-5.663-7.418-6.152m133.34 9.317c-3.957 0-6.676-3.106-6.676-7.613 0-4.204 2.352-7.797 6.18-7.797 4.39 0 5.562 3.656 5.687 5.91h-7.586l-1.421 3.289h13.148c.062-.856.062-1.098.062-1.524 0-6.21-3.152-11.144-9.949-11.144-5.87 0-10.383 4.746-10.383 11.266 0 6.703 4.325 11.144 10.504 11.144 3.711 0 6.985-1.336 8.961-3.71l-2.472-2.38c-1.606 1.649-3.707 2.559-6.055 2.559M185.93 25.039c-1.297-.547-2.72-.668-3.524-.668-2.285 0-4.758.914-5.93 2.559h-.187v-2.38h-3.953v21.626h4.078V34.359c0-4.566 2.473-6.394 5.746-6.394 1.113 0 1.856.12 2.844.363l.926-3.289M72.406 24.98c-1.297-.55-2.719-.609-3.523-.609-2.285 0-4.508.914-5.684 2.555h-.187v-2.371h-3.953v21.62h4.078V34.36c0-4.566 2.226-6.394 5.5-6.394 1.113 0 1.855.12 2.843.363l.926-3.348m-36.031-7.738v3.903h9.148v25.03h4.329v-25.03h9.144v-3.903H36.375m50.43 20.59c0 3.227-2.657 5.297-6.364 5.297-2.226 0-4.14-1.031-4.14-3.594 0-2.37 1.976-3.957 5.004-3.957 2.718 0 4.511.488 5.5 1.219zm-5.746-13.707c-2.41 0-4.696.367-6.426 1.035l.68 3.293c1.976-.61 3.582-.855 5.19-.855 3.458 0 6.302 1.586 6.302 5.117v.61c-1.11-.427-2.844-.973-5.375-.973-5.563 0-9.207 2.8-9.207 7.367 0 4.754 3.582 6.883 7.597 6.883 3.34 0 5.625-1.336 6.801-2.922h.184v2.5h3.957V32.656c0-5.91-3.832-8.531-9.703-8.531zm25.09 0c-2.72 0-5.192 1.04-6.426 3.168h-.188v-2.738h-3.953v21.62h4.078v-11.69c0-4.266 2.164-6.825 5.563-6.825 3.21 0 5.129 1.703 5.129 5.664v12.852h4.078V32.594c0-5.48-3.211-8.469-8.282-8.469m36.77 0c0-2.68 1.3-4.203 3.77-4.203.93 0 2.41.246 3.585.672l1.297-2.985c-1.605-.793-3.523-1.097-5.004-1.097-4.14 0-7.726 2.07-7.726 7.613v.672h-2.719v3.41h2.719v17.969h4.078V28.207h4.14l1.422-3.41h-5.562v-.672m16.129 18.883c-3.953 0-6.672-3.106-6.672-7.613 0-4.204 2.348-7.797 6.18-7.797 4.386 0 5.562 3.656 5.687 5.91h-7.586l-1.422 3.289h13.145c.062-.856.062-1.098.062-1.524 0-6.21-3.152-11.144-9.949-11.144-5.87 0-10.379 4.746-10.379 11.266 0 6.703 4.32 11.144 10.504 11.144 3.707 0 6.98-1.336 8.961-3.71l-2.473-2.38c-1.605 1.649-3.707 2.559-6.058 2.559m56.734-25.766l-5.07 22.477h-.184l-5.254-15.164h-3.644l-5.996 15.164h-.184l-4.015-22.477h-4.391l5.5 28.934h4.078l6.492-16.02h.184l5.625 16.02H213l6.984-28.934h-4.203m6.797 0h4.45v4.387h-4.45zm.188 7.309h4.074v21.625h-4.074zm0 0" fill="#22314c"/></svg>