<?xml version="1.0" encoding="UTF-8"?>
<svg width="66px" height="66px" viewBox="0 0 66 66" version="1.1" xmlns="http://www.w3.org/2000/svg" xmlns:xlink="http://www.w3.org/1999/xlink">
    <title>SME / UI / Icons / B Current Account</title>
    <g id="SME-/-UI-/-Icons-/-B-Current-Account" stroke="none" stroke-width="1" fill="none" fill-rule="evenodd">
        <g id="Group">
            <circle id="Oval" fill="#EAF6FF" cx="33" cy="33" r="33"></circle>
            <path d="M33,16 C23.6111593,16 16,23.6111593 16,33 C16,42.3888407 23.6111593,50 33,50 C42.3888407,50 50,42.3888407 50,33 C50,28.4913197 48.2089337,24.1673032 45.0208153,20.9791847 C41.8326968,17.7910663 37.5086803,16 33,16 Z M43.8314286,42.7142857 L43.6614286,42.7142857 C42.5384094,37.7288343 38.1103716,34.1873001 33,34.1873001 C27.8896284,34.1873001 23.4615906,37.7288343 22.3385714,42.7142857 L22.1685714,42.7142857 C16.9184826,36.8801663 17.2325037,27.9359485 22.8788197,22.4843892 C28.5251357,17.03283 37.4748643,17.03283 43.1211803,22.4843892 C48.7674963,27.9359485 49.0815174,36.8801663 43.8314286,42.7142857 L43.8314286,42.7142857 Z M33,22 C29.9624339,22 27.5,24.4624339 27.5,27.5 C27.5,30.5375661 29.9624339,33 33,33 C36.0375661,33 38.5,30.5375661 38.5,27.5 C38.5,26.0413093 37.9205374,24.6423628 36.8890873,23.6109127 C35.8576372,22.5794626 34.4586907,22 33,22 Z" id="Shape" fill="#51AAED" fill-rule="nonzero"></path>
        </g>
    </g>
</svg>