<?xml version="1.0" encoding="UTF-8"?>
<svg width="66px" height="66px" viewBox="0 0 66 66" version="1.1" xmlns="http://www.w3.org/2000/svg" xmlns:xlink="http://www.w3.org/1999/xlink">
    <title>SME / UI / Icons / Debt Recovery</title>
    <g id="SME-/-UI-/-Icons-/-Debt-Recovery" stroke="none" stroke-width="1" fill="none" fill-rule="evenodd">
        <circle id="Oval" fill="#F8FFE4" cx="33" cy="33" r="33"></circle>
        <g id="Group-2" transform="translate(10.000000, 14.000000)" fill="#899C2E" fill-rule="nonzero">
            <g id="Group" transform="translate(0.000000, 0.500000)">
                <path d="M33.446875,30.559375 C30.559375,33.01375 26.901875,34.36125 23.1,34.36125 C14.245,34.36125 7.074375,27.190625 7.074375,18.335625 L7.074375,17.373125 L10.5875,17.373125 C10.9725,17.373125 11.3575,17.1325 11.55,16.795625 C11.7425,16.45875 11.7425,16.025625 11.501875,15.68875 L6.881875,8.47 C6.496875,7.844375 5.438125,7.844375 5.053125,8.47 L0.433125,15.68875 C0.240625,16.025625 0.1925,16.45875 0.385,16.795625 C0.5775,17.1325 0.9625,17.373125 1.3475,17.373125 L4.860625,17.373125 L4.860625,18.335625 C4.860625,28.39375 13.041875,36.575 23.1,36.575 C27.383125,36.575 31.57,35.035 34.890625,32.291875 C35.371875,31.906875 35.42,31.185 35.035,30.751875 C34.601875,30.2225 33.928125,30.12625 33.446875,30.559375 Z" id="Shape"></path>
                <path d="M45.815,19.8275 C45.6225,19.490625 45.2375,19.25 44.8525,19.25 L41.339375,19.25 L41.339375,18.2875 C41.339375,8.229375 33.158125,0.048125 23.1,0.048125 C18.816875,0.048125 14.63,1.588125 11.309375,4.33125 C10.828125,4.71625 10.78,5.438125 11.165,5.87125 C11.55,6.3525 12.271875,6.400625 12.705,6.015625 C15.5925,3.56125 19.25,2.21375 23.051875,2.21375 C31.906875,2.21375 39.0775,9.384375 39.0775,18.239375 L39.0775,19.201875 L35.6125,19.201875 C35.2275,19.201875 34.8425,19.4425 34.65,19.779375 C34.4575,20.11625 34.4575,20.549375 34.698125,20.88625 L39.318125,28.105 C39.510625,28.441875 39.8475,28.58625 40.2325,28.58625 C40.6175,28.58625 40.954375,28.39375 41.146875,28.105 L45.766875,20.88625 C46.0075,20.5975 46.0075,20.164375 45.815,19.8275 Z" id="Shape"></path>
            </g>
            <path d="M23.000309,9 C25.6266133,9 28.102662,10.0290391 30.0362748,11.900335 C31.9402904,13.7429877 33,16.2700656 33,18.938908 C33,21.5794378 31.96046,24.1133949 30.0985695,26.0373879 C28.3815948,27.7544157 26.1106791,28.8083719 23.7314536,28.9763394 L23.3908756,28.9942835 L23.000309,29 C17.5160826,29 13.0624542,24.5652672 13.0006244,19.0622503 C12.9413407,13.7858306 17.1106288,9.37579566 22.3733278,9.02214474 L22.6562862,9.00709779 L23.000309,9 Z M23.2087719,14.5 C22.8157895,14.5 22.4432749,14.5634379 22.0912281,14.6903138 C21.7391813,14.8171896 21.4352339,15.0044338 21.179386,15.2520464 C20.923538,15.4996589 20.7372807,15.8004775 20.620614,16.154502 C20.540614,16.3972617 20.5063283,16.6655202 20.5177569,16.9592775 L20.5348997,17.1843765 L20.7096491,18.441337 L19.6350877,18.441337 L19.6350877,19.3130969 L20.8815789,19.3130969 L20.9092105,19.5118827 L20.9534211,19.8645157 L20.9828947,20.1572306 C21.0013158,20.3761937 21.0105263,20.5879945 21.0105263,20.792633 C21.0105263,21.3042292 20.9092105,21.6736016 20.7065789,21.9007503 C20.5618421,22.0629994 20.3894319,22.1673024 20.1893484,22.2136593 L20.0659774,22.2345199 L19.9359649,22.2414734 L19.5,22.2414734 L19.5,23.5 L23.8596491,23.5 L24.0843026,23.4939366 C24.6711483,23.4615987 25.1601527,23.299909 25.5513158,23.0088677 C25.8935835,22.7542065 26.1609414,22.4017483 26.3533896,21.9514931 L26.4312811,21.752539 L26.5,21.5416098 L25.2289474,21.2469304 L25.1684211,21.3947713 C25.0421053,21.6774229 24.8842105,21.8818944 24.6947368,22.0081855 C24.5431579,22.1092185 24.3482707,22.1756115 24.1100752,22.2073648 L23.9233083,22.2246847 L23.7552632,22.2291951 L21.8824561,22.2291951 L21.9878655,22.1248295 C22.0574561,22.0511596 22.1256823,21.9693042 22.1925439,21.8792633 C22.2928363,21.7442019 22.3788012,21.5784447 22.4504386,21.3819918 C22.522076,21.1855389 22.5701754,20.9420191 22.5947368,20.6514325 C22.6274854,20.4427012 22.6407895,20.2370396 22.6346491,20.0344475 C22.6315789,19.9331514 22.6251827,19.8218793 22.6154605,19.700631 L22.5983827,19.5112764 L22.5763158,19.3069577 L24.3385965,19.3069577 L24.3385965,18.4351978 L22.4596491,18.4351978 L22.3910819,18.1425648 C22.3487817,17.9515689 22.3133041,17.7687585 22.2846491,17.5941337 C22.2416667,17.3321965 22.2201754,17.1030014 22.2201754,16.9065484 C22.2201754,16.6527967 22.2723684,16.4379263 22.3767544,16.2619372 C22.4811404,16.0859482 22.6244152,15.95191 22.8065789,15.8598226 C22.9887427,15.7677353 23.1944444,15.7216917 23.4236842,15.7216917 C23.7225146,15.7216917 23.9609649,15.7881992 24.1390351,15.9212142 C24.2577485,16.0098909 24.3660006,16.1317644 24.4637914,16.2868349 L24.535173,16.4093622 L24.6026316,16.5443383 L25.9166667,16.1207367 L25.8255439,15.9294407 C25.6938947,15.6812551 25.5216374,15.460573 25.3087719,15.2673943 C25.0426901,15.0259209 24.7315789,14.8376535 24.3754386,14.7025921 C24.0192982,14.5675307 23.6304094,14.5 23.2087719,14.5 Z" id="Shape"></path>
        </g>
    </g>
</svg>