<?xml version="1.0" encoding="UTF-8"?>
<svg width="66px" height="66px" viewBox="0 0 66 66" version="1.1" xmlns="http://www.w3.org/2000/svg" xmlns:xlink="http://www.w3.org/1999/xlink">
    <title>SME / UI / Icons / Energy</title>
    <g id="SME-/-UI-/-Icons-/-Energy" stroke="none" stroke-width="1" fill="none" fill-rule="evenodd">
        <g id="Group">
            <circle id="Oval" fill="#FFF9E5" cx="33" cy="33" r="33"></circle>
            <path d="M43.9022327,27.6391713 C43.7332307,27.2714471 43.3657838,27.0342829 42.9665386,27.0342829 L36.7570394,27.0342829 L43.2474235,16.6134348 C43.447635,16.2918258 43.460001,15.8827776 43.2798107,15.5449984 C43.0984426,15.2090159 42.7521946,15 42.3735594,15 L32.9082688,15 C32.5131456,15 32.1592424,15.2233894 31.9843518,15.5815312 L23.1102738,33.631159 C22.9501047,33.9569602 22.9660038,34.3378601 23.1562047,34.654079 C23.3464056,34.9655066 23.6749879,35.1511654 24.0341908,35.1511654 L29.4522659,35.1511654 L23.0820087,50.5416802 C22.8829749,51.0219974 23.0555101,51.5699903 23.4989196,51.8496763 C23.6614442,51.9478958 23.8463453,52 24.0336019,52 C24.3386299,52 24.6265811,51.8640499 24.8244371,51.6268857 L43.7561961,28.7627064 C44.016471,28.4506798 44.0735902,28.009291 43.9022327,27.6391713 Z" id="Path" fill="#F9CD28" fill-rule="nonzero"></path>
        </g>
    </g>
</svg>