<?xml version="1.0" encoding="UTF-8"?>
<svg width="66px" height="66px" viewBox="0 0 66 66" version="1.1" xmlns="http://www.w3.org/2000/svg" xmlns:xlink="http://www.w3.org/1999/xlink">
    <title>SME / UI / Icons / Foreign Exchange</title>
    <g id="SME-/-UI-/-Icons-/-Foreign-Exchange" stroke="none" stroke-width="1" fill="none" fill-rule="evenodd">
        <circle id="Oval" fill="#E4FFFC" cx="33" cy="33" r="33"></circle>
        <g id="Group" transform="translate(13.000000, 13.000000)" fill-rule="nonzero">
            <path d="M28.9549668,19.7164983 C31.4583897,19.7164983 33.8680083,20.6941059 35.6738911,22.500881 C39.3848644,26.2141103 39.3847338,32.2318247 35.6739029,35.944489 C33.8680658,37.7516296 31.4584729,38.7292929 28.9545575,38.7292929 C26.4512965,38.7292929 24.0417491,37.7515127 22.2364635,35.9445127 C18.5258875,32.2321034 18.5260181,26.2135702 22.2364398,22.5008928 C24.042249,20.6937802 26.4510053,19.7164983 28.9549668,19.7164983 Z M25.2435897,0.630728818 C25.4948718,0.462499636 25.8179487,0.462499636 26.0692308,0.597082982 C26.3205128,0.731666327 26.5,1.00083302 26.5,1.26999971 L26.5,1.26999971 L26.5001547,3.31639561 C28.9612839,4.04619801 31.2350862,5.30843523 33.1774479,7.04162404 L33.5396378,7.37390805 L33.8797539,7.70331223 C36.959092,10.7656028 38.7493158,14.7666075 38.9722936,19.0607882 L38.9906052,19.5390931 L39,20.3859483 L36.9424888,20.3804929 L36.9434517,20.0080901 C36.9540522,15.9083085 35.3511718,12.0522614 32.428073,9.14573482 C30.7250733,7.45212961 28.6899876,6.19790098 26.4648393,5.44540317 L26.4641026,7.73000029 C26.4641026,7.99916698 26.2846154,8.26833367 26.0333333,8.40291702 C25.7820513,8.53750036 25.4589744,8.53750036 25.2435897,8.36927118 L25.2435897,8.36927118 L19.8589744,5.13927089 C19.6435897,5.00468755 19.5,4.76916669 19.5,4.5 C19.5,4.23083331 19.6076923,3.99531245 19.8589744,3.86072911 L19.8589744,3.86072911 Z M10.5398227,1.29225589 C15.7879592,1.29225589 20.0412486,5.54751604 20.0416708,10.7986532 C20.0416708,16.0499206 15.7886423,20.3050505 10.5398227,20.3050505 C5.29153907,20.3050505 1.03755234,16.0492233 1.03797461,10.7986532 C1.03797461,5.5477952 5.29141242,1.29225589 10.5398227,1.29225589 Z" id="Shape" fill="#2E9C8E"></path>
            <g id="Group-2" transform="translate(10.500000, 29.500000) rotate(-180.000000) translate(-10.500000, -29.500000) translate(0.500000, 19.500000)" fill="#2E9C8E">
                <path d="M3.50179219,2.15380045 L3.61415453,2.1636643 C7.37084463,2.51557949 10.8702854,4.03676479 13.6774479,6.54162404 L14.0396378,6.87390805 L14.3797539,7.20331223 C17.459092,10.2656028 19.2493158,14.2666075 19.4722936,18.5607882 L19.4906052,19.0390931 L19.5,19.8859483 L17.4424888,19.8804929 L17.4434517,19.5080901 C17.4540522,15.4083085 15.8511718,11.5522614 12.928073,8.64573482 C10.6143177,6.34474317 7.68756825,4.85479216 4.50400375,4.33225946 L4.04750024,4.2642099 L3.67292767,4.21836291 L3.50179219,2.15380045 Z" id="Path"></path>
                <path d="M6.53333333,7.90291702 C6.78461538,7.76833367 6.96410256,7.49916698 6.96410256,7.23000029 L6.96410256,4.77385424 L7,3.19249993 L7,0.769999709 C7,0.500833018 6.82051282,0.231666327 6.56923077,0.0970829815 C6.31794872,-0.0375003639 5.99487179,-0.0375003639 5.74358974,0.130728818 L0.358974359,3.36072911 C0.107692308,3.49531245 0,3.73083331 0,4 C0,4.26916669 0.143589744,4.50468755 0.358974359,4.63927089 L5.74358974,7.86927118 C5.95897436,8.03750036 6.28205128,8.03750036 6.53333333,7.90291702 Z" id="Path"></path>
            </g>
            <path d="M10.8320097,6.62167273 C11.7299132,6.62167273 12.4060505,6.925531 12.9215762,7.55900962 L13.0471469,7.72426128 L11.9987114,8.4808835 C11.7069336,8.05958249 11.404516,7.90809428 10.9719648,7.90809428 C10.4336759,7.90809428 10.1070414,8.16625171 10.060297,8.76725939 L10.0544814,8.92470303 L10.0544814,9.96260202 L12.0318586,9.96260202 L12.0318586,10.8596579 L10.0544814,10.8596579 L10.0544814,11.6813791 C10.0544814,12.1827418 9.94693287,12.6123701 9.50554744,12.9219694 L9.36289041,13.0112 L12.8744538,13.0112 L12.6800717,14.3082667 L7.4714505,14.3082667 L7.4714505,13.0758896 C8.18290254,12.8509227 8.33462696,12.5367735 8.36243877,11.9292858 L8.3680634,11.6273347 L8.3680634,10.8596579 L7.57907679,10.8596579 L7.57907679,9.96260202 L8.3680634,9.96260202 L8.3680634,8.8813037 C8.3680634,7.58382761 9.23316595,6.62167273 10.8320097,6.62167273 Z" id="Path" fill="#FFFFFF"></path>
            <path d="M29.4845045,23.7201886 L29.4845045,25.3202316 C30.272036,25.3871958 30.9227954,25.6595814 31.4295972,26.0304184 L31.6128859,26.1738882 L30.7813398,27.0390088 C30.438292,26.7610659 30.0558583,26.6022414 29.6747561,26.5419087 L29.4845045,26.5198545 L29.4845045,28.4118195 C30.9327532,28.887165 31.7430196,29.4710088 31.7430196,30.7680754 C31.7430196,31.9154209 31.024982,32.8294266 29.7092982,33.0787671 L29.4845045,33.1140956 L29.4845045,34.7247838 L28.6091713,34.7247838 L28.6091713,33.1464404 C27.6289741,33.0770083 26.8385893,32.6989787 26.3061017,32.2450898 L26.1673232,32.119596 L26.9886386,31.1684956 C27.4140284,31.5374923 27.8478777,31.7823556 28.3765434,31.8663314 L28.6091713,31.8923636 L28.6091713,29.6441966 C27.0532962,29.1250424 26.437412,28.465864 26.437412,27.4386101 C26.437412,26.3327677 27.1844649,25.5565406 28.4019489,25.3584892 L28.6091713,25.3308768 L28.6091713,23.7201886 L29.4845045,23.7201886 Z M29.4845045,29.9905724 L29.4845045,31.8608377 L29.6108577,31.8253612 C29.9704392,31.7006328 30.1544065,31.4117775 30.1544065,30.9740175 C30.1544065,30.6369767 30.0713828,30.3827385 29.7616024,30.1561711 L29.6345249,30.0723977 L29.4845045,29.9905724 Z M28.6091713,26.5309091 L28.4730188,26.5639413 C28.1313576,26.6721919 27.9609582,26.9370158 27.9609582,27.2445414 C27.9609582,27.5327123 28.0176093,27.7291807 28.3356196,27.9309503 L28.4675246,28.0070519 L28.6091713,28.0769077 L28.6091713,26.5309091 Z" id="Shape" fill="#FFFFFF"></path>
        </g>
    </g>
</svg>