<?xml version="1.0" encoding="UTF-8"?>
<svg width="66px" height="66px" viewBox="0 0 66 66" version="1.1" xmlns="http://www.w3.org/2000/svg" xmlns:xlink="http://www.w3.org/1999/xlink">
    <title>SME / UI / Icons / Grants</title>
    <g id="SME-/-UI-/-Icons-/-Grants" stroke="none" stroke-width="1" fill="none" fill-rule="evenodd">
        <g id="Oval-2"></g>
        <g id="Group">
            <circle id="Oval" fill="#FBF6FF" cx="33" cy="33" r="33"></circle>
            <g id="noun_certification_161392" transform="translate(20.000000, 15.000000)"></g>
        </g>
        <g id="Group-2" transform="translate(12.000000, 12.000000)" fill="#6E3E9B" fill-rule="nonzero">
            <path d="M27.0808459,1.66300079e-14 C27.5842728,-0.0049694524 28.0847098,0.0784846109 28.5591246,0.247000517 C29.8820755,0.728855878 30.790547,1.88394771 31.6124408,3.1425877 L31.9603362,3.68668362 L31.9603362,3.68668362 L32.4748491,4.50480201 C32.9903412,5.31476256 33.5184502,6.08343295 34.1462899,6.65946379 C34.7790646,7.24000009 35.5760256,7.70760019 36.4076355,8.1509867 L37.6122513,8.78120606 L37.6122513,8.78120606 L38.1461021,9.06894674 C39.3768597,9.75038689 40.4822939,10.5165711 41.020053,11.6704747 C41.591422,12.8964974 41.4154404,14.3317122 41.1116556,15.8035797 L40.9754438,16.4361212 L40.9754438,16.4361212 L40.7654906,17.3867462 C40.5623165,18.3356294 40.3977677,19.274194 40.43644,20.1566014 C40.4695965,20.9132423 40.6699908,21.7074381 40.916874,22.5176721 L41.1088664,23.1280186 L41.1088664,23.1280186 L41.4047797,24.0504026 C41.8882053,25.5914217 42.2697518,27.1415474 41.7534682,28.5589466 C41.2716035,29.8818525 40.1164902,30.7903 38.857828,31.6121795 L38.3137226,31.9600694 L38.3137226,31.9600694 L37.4955902,32.4745758 C36.685616,32.9900623 35.9169333,33.5181681 35.3408946,34.146004 C34.7603389,34.7787643 34.292729,35.5757054 33.8493355,36.4072947 L33.3607445,37.3416253 C32.5604789,38.8766336 31.7309888,40.3666225 30.3297693,41.0196102 C29.7397999,41.2811369 29.0993345,41.4090897 28.454164,41.3943204 C27.6108677,41.3943204 26.7206181,41.2269611 25.8222133,41.0317071 L24.7426961,40.7929387 C23.8439749,40.5976834 22.9526175,40.4303193 22.1074222,40.4303111 C22.0189072,40.430252 21.9309161,40.4321442 21.8434489,40.4359875 C20.9760819,40.4739927 20.0593402,40.7317994 19.1256558,41.0274855 L18.1875251,41.3290602 C17.0892531,41.6799066 15.9826348,42 14.9191709,42 C14.4157529,42.0049565 13.9153267,41.9214994 13.4409184,41.7529922 C12.1179709,41.271127 11.2094968,40.1160344 10.3875958,38.8573981 L10.0396968,38.313304 L10.0396968,38.313304 L9.52517767,37.4951893 C9.00967866,36.6852328 8.4815608,35.9165677 7.85371057,35.3405421 C7.22094197,34.7600058 6.42398493,34.2924108 5.59237753,33.8490298 L4.38776465,33.2188179 L4.38776465,33.2188179 L3.85391471,32.9310799 C2.62315875,32.2496452 1.51772467,31.4834595 0.97996713,30.3295311 C0.408598106,29.1035019 0.584574837,27.6682871 0.888357084,26.1964212 L1.02456806,25.5638806 L1.02456806,25.5638806 L1.23452074,24.613257 C1.43769504,23.6643751 1.60224604,22.7258119 1.56358014,21.8434045 C1.53042451,21.0867635 1.33002851,20.2925702 1.08314247,19.482339 L0.891147766,18.8719946 L0.891147766,18.8719946 L0.595230646,17.9496136 C0.11179841,16.4085989 -0.269754909,14.8584743 0.246532236,13.4410593 C0.728400237,12.1181386 1.88351352,11.2096878 3.14217937,10.38781 L3.68628663,10.0399211 L3.68628663,10.0399211 L4.50442288,9.52541704 C5.31440171,9.00993333 6.08309158,8.48183137 6.65914189,7.85399863 C7.23969144,7.22123833 7.70729709,6.42429717 8.15068828,5.5927079 L8.6392776,4.65837728 C9.43954154,3.123369 10.2690365,1.63338006 11.6702672,0.980392419 C12.2602354,0.718861906 12.9007016,0.590908937 13.5458725,0.605682198 C14.3891702,0.605682198 15.2794212,0.773044925 16.1778252,0.96830144 L17.2573403,1.20707226 C18.1560587,1.40232878 19.0474102,1.56969151 19.8925947,1.56969151 C19.9811097,1.56975057 20.0691008,1.56785842 20.156568,1.56401507 C21.0239323,1.52600988 21.9406735,1.26820301 22.8743582,0.972516652 L23.8124895,0.670941646 C24.9107623,0.320094892 26.017382,1.66300079e-14 27.0808459,1.66300079e-14 Z M20.9782609,5 C12.1537111,5 5,12.1537111 5,20.9782609 C5,25.2159605 6.68341328,29.2800962 9.67991941,32.2766023 C12.6764255,35.2731085 16.7405613,36.9565217 20.9782609,36.9565217 C29.8028107,36.9565217 36.9565217,29.8028107 36.9565217,20.9782609 C36.9565217,12.1537111 29.8028107,5 20.9782609,5 Z M20.9782609,6.33153499 C26.90231,6.33153499 32.2430388,9.90011354 34.5100727,15.3732219 C36.7771066,20.8463303 35.5239919,27.1461495 31.3350542,31.3350825 C27.1461165,35.5240154 20.8462959,36.777123 15.3731901,34.5100829 C9.90008424,32.2430428 6.33153499,26.90231 6.33153499,20.9782609 C6.34067506,12.8928865 12.8928865,6.34067506 20.9782609,6.33153499 Z M21.228,16 C20.78,16 20.3553333,16.0723333 19.954,16.217 C19.5526667,16.3616667 19.2061667,16.5751667 18.9145,16.8575 C18.6228333,17.1398333 18.4105,17.4828333 18.2775,17.8865 C18.1825,18.1748333 18.1440476,18.4947143 18.1621429,18.8461429 L18.1797857,19.0607857 L18.379,20.494 L17.154,20.494 L17.154,21.488 L18.575,21.488 L18.6065,21.71466 L18.6569,22.11674 L18.6905,22.4505 C18.7115,22.7001667 18.722,22.9416667 18.722,23.175 C18.722,23.7583333 18.6065,24.1795 18.3755,24.4385 C18.2105,24.6235 18.0139524,24.7424286 17.7858571,24.7952857 L17.6452143,24.8190714 L17.497,24.827 L17,24.827 L17,26.262 L21.97,26.262 L22.2261049,26.2550864 C22.8951091,26.218214 23.4525741,26.0338519 23.8985,25.702 C24.2886852,25.4116296 24.5934733,25.009749 24.8128642,24.496358 L24.9016605,24.2695062 L24.98,24.029 L23.531,23.693 L23.462,23.8615714 C23.318,24.1838571 23.138,24.417 22.922,24.561 C22.742,24.681 22.5084286,24.7581429 22.2212857,24.7924286 L22.0425714,24.8078571 L21.851,24.813 L19.716,24.813 L19.8361667,24.694 C19.9155,24.61 19.9932778,24.5166667 20.0695,24.414 C20.1838333,24.26 20.2818333,24.071 20.3635,23.847 C20.4451667,23.623 20.5,23.3453333 20.528,23.014 C20.5653333,22.776 20.5805,22.5415 20.5735,22.3105 C20.57,22.195 20.5627083,22.068125 20.551625,21.929875 L20.5321562,21.7139687 L20.507,21.481 L22.516,21.481 L22.516,20.487 L20.374,20.487 L20.2958333,20.1533333 L20.2097593,19.7302222 L20.1745,19.528 C20.1255,19.2293333 20.101,18.968 20.101,18.744 C20.101,18.4546667 20.1605,18.2096667 20.2795,18.009 C20.3985,17.8083333 20.5618333,17.6555 20.7695,17.5505 C20.9771667,17.4455 21.2116667,17.393 21.473,17.393 C21.8136667,17.393 22.0855,17.4688333 22.2885,17.6205 C22.4238333,17.7216111 22.5472407,17.8605741 22.6587222,18.0373889 L22.7400972,18.1770972 L22.817,18.331 L24.315,17.848 L24.21112,17.62988 C24.06104,17.3468933 23.8646667,17.0952667 23.622,16.875 C23.3186667,16.5996667 22.964,16.385 22.558,16.231 C22.152,16.077 21.7086667,16 21.228,16 Z" id="Shape"></path>
        </g>
    </g>
</svg>