<?xml version="1.0" encoding="UTF-8"?>
<svg width="66px" height="66px" viewBox="0 0 66 66" version="1.1" xmlns="http://www.w3.org/2000/svg" xmlns:xlink="http://www.w3.org/1999/xlink">
    <title>SME / UI / Icons / Insurance</title>
    <g id="SME-/-UI-/-Icons-/-Insurance" stroke="none" stroke-width="1" fill="none" fill-rule="evenodd">
        <g id="Group">
            <circle id="Oval" fill="#FFE4E4" cx="33" cy="33" r="33"></circle>
            <g id="Icons-/-Insurance" transform="translate(16.000000, 15.000000)" fill="#9C2E2E">
                <path d="M18.1674987,35.6207199 C22.5780492,32.9657594 30.6208179,28.2879719 32.1774828,25.1273047 C33.7341477,22.2194908 33.0855374,12.8639157 32.9558153,7.55399473 C32.8260932,6.54258121 32.0477607,5.65759438 31.0099841,5.53116769 C26.3399894,5.02546093 22.0591609,3.38191396 18.4269428,0.474100088 C17.5188883,-0.158033363 16.3513896,-0.158033363 15.5730572,0.474100088 C11.9408391,3.38191396 7.66001057,5.02546093 2.99001586,5.53116769 C1.95223925,5.65759438 1.04418472,6.54258121 1.04418472,7.55399473 C0.914462649,12.8639157 0.265852272,22.2194908 1.82251718,25.1273047 C3.37918208,28.2879719 11.4219508,32.9657594 15.8325013,35.6207199 C16.4811117,36.1264267 17.3891662,36.1264267 18.1674987,35.6207199 Z M8.55102041,19.225 C7.81632653,18.525 7.81632653,17.475 8.55102041,16.775 C9.28571429,16.075 10.3877551,16.075 11.122449,16.775 L14.6122449,20.1 L22.877551,12.225 C23.6122449,11.525 24.7142857,11.525 25.4489796,12.225 C26.1836735,12.925 26.1836735,13.975 25.4489796,14.675 L15.8979592,23.775 C15.1632653,24.475 14.0612245,24.475 13.3265306,23.775 L8.55102041,19.225 Z" id="Shape"></path>
            </g>
        </g>
    </g>
</svg>