<?xml version="1.0" encoding="UTF-8"?>
<svg width="66px" height="66px" viewBox="0 0 66 66" version="1.1" xmlns="http://www.w3.org/2000/svg" xmlns:xlink="http://www.w3.org/1999/xlink">
    <title>SME / UI / Icons / Mortgage</title>
    <g id="SME-/-UI-/-Icons-/-Mortgage" stroke="none" stroke-width="1" fill="none" fill-rule="evenodd">
        <circle id="Oval" fill="#F7F0E5" cx="33" cy="33" r="33"></circle>
        <path d="M47.5191781,48.142027 L47.5191781,27.9776434 C47.5191781,27.6992509 47.744649,27.4735338 48.0232877,27.4735338 L50.3671019,27.4735338 L32.9,13.5 L15.4328981,27.4735338 L17.7767123,27.4735338 C18.055351,27.4735338 18.2808219,27.6992509 18.2808219,27.9776434 L18.2808219,48.142027 C18.2808219,48.4204195 18.055351,48.6461366 17.7767123,48.6461366 L14.5,48.6461366 L14.5,50.1584653 L32.9,50.1584653 L51.3,50.1584653 L51.3,48.6461366 L48.0232877,48.6461366 C47.744649,48.6461366 47.5191781,48.4204195 47.5191781,48.142027 Z M33.728,28 C34.2086667,28 34.652,28.077 35.058,28.231 C35.464,28.385 35.8186667,28.5996667 36.122,28.875 C36.3646667,29.0952667 36.56104,29.3468933 36.71112,29.62988 L36.815,29.848 L35.317,30.331 L35.2400972,30.1770972 C35.1081991,29.9324213 34.9576667,29.7468889 34.7885,29.6205 C34.5855,29.4688333 34.3136667,29.393 33.973,29.393 C33.7116667,29.393 33.4771667,29.4455 33.2695,29.5505 C33.0618333,29.6555 32.8985,29.8083333 32.7795,30.009 C32.6605,30.2096667 32.601,30.4546667 32.601,30.744 C32.601,30.968 32.6255,31.2293333 32.6745,31.528 C32.7071667,31.7271111 32.7476111,31.9355556 32.7958333,32.1533333 L32.874,32.487 L35.016,32.487 L35.016,33.481 L33.007,33.481 L33.0321562,33.7139687 C33.0544687,33.9384062 33.06825,34.13725 33.0735,34.3105 C33.0805,34.5415 33.0653333,34.776 33.028,35.014 C33,35.3453333 32.9451667,35.623 32.8635,35.847 C32.7818333,36.071 32.6838333,36.26 32.5695,36.414 C32.4932778,36.5166667 32.4155,36.61 32.3361667,36.694 L32.216,36.813 L34.351,36.813 L34.5425714,36.8078571 C34.9128571,36.7872857 35.206,36.705 35.422,36.561 C35.638,36.417 35.818,36.1838571 35.962,35.8615714 L36.031,35.693 L37.48,36.029 L37.4016605,36.2695062 C37.1788128,36.8926502 36.8444259,37.3701481 36.3985,37.702 C35.9525741,38.0338519 35.3951091,38.218214 34.7261049,38.2550864 L34.47,38.262 L29.5,38.262 L29.5,36.827 L29.997,36.827 L30.1452143,36.8190714 C30.4340714,36.7873571 30.6775,36.6605 30.8755,36.4385 C31.1065,36.1795 31.222,35.7583333 31.222,35.175 C31.222,34.9416667 31.2115,34.7001667 31.1905,34.4505 L31.1569,34.11674 L31.1065,33.71466 L31.075,33.488 L29.654,33.488 L29.654,32.494 L30.879,32.494 L30.6797857,31.0607857 C30.6309286,30.6239286 30.6635,30.2325 30.7775,29.8865 C30.9105,29.4828333 31.1228333,29.1398333 31.4145,28.8575 C31.7061667,28.5751667 32.0526667,28.3616667 32.454,28.217 C32.8553333,28.0723333 33.28,28 33.728,28 Z" id="Shape" fill="#B77209" fill-rule="nonzero"></path>
    </g>
</svg>