<?xml version="1.0" encoding="UTF-8"?>
<svg width="66px" height="66px" viewBox="0 0 66 66" version="1.1" xmlns="http://www.w3.org/2000/svg" xmlns:xlink="http://www.w3.org/1999/xlink">
    <title>SME / UI / Icons / Perks</title>
    <g id="SME-/-UI-/-Icons-/-Perks" stroke="none" stroke-width="1" fill="none" fill-rule="evenodd">
        <g id="Group">
            <circle id="Oval" fill="#FFECE4" cx="33" cy="33" r="33"></circle>
            <path d="M46,37.9552847 L46,49 L34.4425962,49 L34.4425962,37.9552847 L46,37.9552847 Z M32.5574038,37.9552847 L32.5574038,49 L21,49 L21,37.9552847 L32.5574038,37.9552847 Z M46,25 L46,36.0451096 L34.4425962,36.0451096 L34.4425962,25 L46,25 Z M32.5574038,25 L32.5574038,36.0451096 L21,36.0451096 L21,25 L32.5574038,25 Z M29.603718,14.6482123 C30.3565077,15.4653187 31.0547473,16.3368988 31.7590481,17.2326895 L32.6109974,18.3173225 C32.8985364,18.6814493 33.1909243,19.047513 33.4920401,19.4135766 C33.780064,19.0605867 34.0564505,18.710502 34.3263719,18.3639682 L35.1219125,17.335665 C35.7773203,16.488699 36.4246467,15.667961 37.1447063,14.8835389 C38.9710394,12.8832625 41.3275982,12.5302726 43.3895872,13.7069058 C45.3337482,14.8247073 46.3941997,17.1191419 45.863974,19.2370816 C45.2159203,21.6491796 43.5074151,23.0023078 40.7384585,23.0611394 C35.8485989,23.1199711 30.9587394,23.1199711 26.0688798,23.0611394 C23.3588371,23.0023078 21.709246,21.6491796 21.1201063,19.1194183 C20.6487945,17.0603103 21.591418,14.8835389 23.4766651,13.7657374 C25.5386541,12.5302726 27.718471,12.7655992 29.603718,14.6482123 Z M39.1301762,16.0988059 L39.0299534,16.1778354 C38.1883252,16.8165791 37.3659343,17.8587399 36.6067513,18.8981564 L35.6938742,20.1666167 C35.4609156,20.4888219 35.2370158,20.7919183 35.0238034,21.060863 L36.6195938,21.1321602 L36.6195938,21.1321602 L37.2091015,21.153368 C38.7471886,21.2011026 40.021245,21.1708527 41.2097703,20.8843681 C43.0361034,20.4725465 43.6841571,19.2959133 43.860899,18.2369434 C43.9787269,17.4721319 43.3895872,16.0601721 42.3880497,15.6483505 C41.4847022,15.2536881 39.9320735,15.5073996 39.1301762,16.0988059 L39.1301762,16.0988059 Z M24.6549445,15.6483505 C23.8301489,16.0013404 22.8286114,17.1779736 23.1231813,18.6487651 C23.2999232,19.6489032 24.7138585,20.5902098 25.715396,20.8255364 C26.6682654,21.0710946 27.6371719,21.1084622 28.7057872,21.0880377 L29.2487913,21.0737057 L29.2487913,21.0737057 L30.3939506,21.0328567 L30.3939506,21.0328567 L31.0007544,21.0146951 C31.3104413,21.007036 31.6298463,21.0020314 31.9602769,21.0020314 C31.704983,20.6784573 31.4660541,20.3630542 31.2385807,20.0566393 L30.7974533,19.4560359 L30.7974533,19.4560359 L30.3781458,18.8808535 C29.6240834,17.8505429 28.9360264,16.9557207 28.0719548,16.2366671 C27.2471592,15.5895188 25.597568,15.2365289 24.6549445,15.6483505 Z" id="Shape" fill="#F94D28" fill-rule="nonzero"></path>
        </g>
    </g>
</svg>