<?xml version="1.0" encoding="UTF-8"?>
<svg width="66px" height="66px" viewBox="0 0 66 66" version="1.1" xmlns="http://www.w3.org/2000/svg" xmlns:xlink="http://www.w3.org/1999/xlink">
    <title>SME / UI / Icons / Start up</title>
    <g id="SME-/-UI-/-Icons-/-Start-up" stroke="none" stroke-width="1" fill="none" fill-rule="evenodd">
        <g id="Group-2">
            <circle id="Oval" fill="#EEFFFD" cx="33" cy="33" r="33"></circle>
            <g id="Group" transform="translate(16.000000, 15.000000)" fill-rule="nonzero">
                <path d="M33.561,0.8316 C30.9348365,0.645626456 28.2957546,0.872787937 25.74,1.5048 C25.4562,1.5774 25.1724,1.65 24.882,1.7358 L24.882,1.7358 C21.6227886,2.57446075 18.639779,4.25140814 16.2294,6.6 C15.7051566,7.12834148 15.2136431,7.68818194 14.7576,8.2764 L8.2962,8.2764 C8.09306497,8.27530575 7.9007426,8.36781525 7.7748,8.5272 L0.7722,17.4108 C0.611545056,17.6135375 0.584134779,17.8914368 0.702085703,18.1216542 C0.820036628,18.3518717 1.06160223,18.4919623 1.32,18.48 C1.39866818,18.4797585 1.47674314,18.4663742 1.551,18.4404 L8.6196,15.8004 L10.065,17.2458 C9.86413784,17.8571777 9.69451849,18.478381 9.5568,19.107 C9.51920532,19.2674979 9.54774742,19.436372 9.636,19.5756 L8.6262,21.78 C8.51208942,22.0298611 8.56466349,22.3242759 8.7582,22.5192 L12.4938,26.2548 C12.6183544,26.3783431 12.78697,26.4472143 12.9624,26.4462 C13.0557866,26.4457674 13.1480183,26.4255215 13.233,26.3868 L15.4176,25.4034 C15.5175457,25.4627185 15.6313831,25.494593 15.7476,25.4958 C15.7935714,25.5023 15.8402286,25.5023 15.8862,25.4958 C16.514819,25.3580815 17.1360223,25.1884622 17.7474,24.9876 L19.1928,26.4 L16.5528,33.4686 C16.4488282,33.746708 16.5433588,34.0600097 16.7838,34.2342 C16.8978532,34.2996366 17.0288528,34.3295137 17.16,34.32 C17.3080867,34.3210163 17.4522123,34.2721996 17.5692,34.1814 L26.433,27.2052 C26.5923848,27.0792574 26.6848942,26.886935 26.6838,26.6838 L26.6838,20.2224 C27.2788054,19.7669969 27.8452723,19.2754712 28.38,18.7506 C30.7298129,16.3447221 32.4149527,13.3701433 33.2706,10.1178 C34.0630659,7.29059559 34.360052,4.34753042 34.1484,1.419 C34.1158279,1.10907963 33.8709204,0.864172071 33.561,0.8316 Z" id="Shape" fill="#46C8B8"></path>
                <path d="M3.1614,25.2846 C1.5114,26.9346 0.3102,33.3102 0.1782,34.0362 C0.142580098,34.2307067 0.196048622,34.4309366 0.323892701,34.5817926 C0.451736779,34.7326486 0.640485099,34.8182346 0.8382,34.8150885 L0.957,34.8150885 C1.683,34.683 8.0586,33.495 9.7086,31.8318 C10.8757867,30.6646133 11.331625,28.9634017 10.904405,27.368995 C10.477185,25.7745883 9.23181165,24.529215 7.63740499,24.101995 C6.04299834,23.674775 4.34178668,24.1306133 3.1746,25.2978 L3.1614,25.2846 Z" id="Shape" fill="#46C8B8"></path>
                <polygon id="Path-2" fill="#46C8B8" points="13.2 3.64153152e-14 13.2 1.32 11.88 1.32 11.88 2.64 13.2 2.64 13.2 3.96 14.52 3.96 14.52 2.64 15.84 2.64 15.84 1.32 14.52 1.32 14.52 3.64153152e-14"></polygon>
                <polygon id="Path" fill="#46C8B8" points="29.04 31.68 27.72 31.68 27.72 33 26.4 33 26.4 34.32 27.72 34.32 27.72 35.64 29.04 35.64 29.04 34.32 30.36 34.32 30.36 33 29.04 33"></polygon>
                <path d="M27.4296,7.5504 C26.5631684,6.68387997 25.3879819,6.19706665 24.1626,6.19706665 C22.9372181,6.19706665 21.7620316,6.68387997 20.8956,7.5504 C19.0912858,9.35471429 19.0912858,12.2800857 20.8956001,14.0843999 C22.6999143,15.8887142 25.6252857,15.8887142 27.4296,14.0844 C28.29612,13.2179684 28.7829334,12.0427819 28.7829334,10.8174 C28.7829334,9.59201814 28.29612,8.41683162 27.4296,7.5504 L27.4296,7.5504 Z M26.4924,13.1538 C25.548685,14.0978 24.129218,14.3803167 22.8959702,13.8695978 C21.6627223,13.3588789 20.8585953,12.1555161 20.8585953,10.8207 C20.8585953,9.4858839 21.6627223,8.2825211 22.8959702,7.77180221 C24.129218,7.26108331 25.548685,7.54359997 26.4924,8.4876 C27.7806604,9.77624951 27.7806604,11.8651505 26.4924,13.1538 L26.4924,13.1538 Z" id="Shape" fill="#FFFFFF"></path>
                <rect id="Rectangle" fill="#46C8B8" x="4.62" y="5.28" width="1.32" height="1.32"></rect>
                <rect id="Rectangle" fill="#46C8B8" x="32.34" y="23.1" width="1.32" height="1.32"></rect>
                <rect id="Rectangle" fill="#46C8B8" x="0.66" y="21.78" width="1.32" height="1.32"></rect>
                <rect id="Rectangle" fill="#46C8B8" x="12.54" y="31.68" width="1.32" height="1.32"></rect>
            </g>
        </g>
    </g>
</svg>