<?xml version="1.0" encoding="utf-8"?>
<!-- Generator: Adobe Illustrator 21.1.0, SVG Export Plug-In . SVG Version: 6.00 Build 0)  -->
<svg version="1.1" id="Capa_1" xmlns="http://www.w3.org/2000/svg" xmlns:xlink="http://www.w3.org/1999/xlink" x="0px" y="0px"
	 viewBox="0 0 113.4 56.7" style="enable-background:new 0 0 113.4 56.7;" xml:space="preserve">
<style type="text/css">
	.st0{fill:#EE2E24;}
</style>
<g>
	<path class="st0" d="M56.5,25.1c0.5-5.2,3.3-8.2,3.3-11.2c0-2.2-0.8-4-3.3-6.8c-2.5,2.8-3.3,4.7-3.3,6.8
		C53.1,16.9,55.9,19.9,56.5,25.1"/>
	<path class="st0" d="M51,24.4c-1.3,1.2-3.9,0.4-3.9-2.4c0-1.6,1.7-3,3.3-3c3.2,0,4.7,3.4,4.7,5c0.1,1.2-0.5,3.2-2.6,3.2
		c1-0.5,1.3-1.6,1.2-2.5c-0.1-1-0.7-2.3-2.1-2.3c-0.8,0-1.3,0.5-1.3,1C50.3,24,50.6,24.4,51,24.4"/>
	<path class="st0" d="M61.9,24.4c1.3,1.2,3.9,0.4,3.9-2.4c0-1.6-1.7-3-3.3-3c-3.2,0-4.7,3.4-4.7,5c-0.1,1.2,0.5,3.2,2.6,3.2
		c-1-0.5-1.3-1.6-1.2-2.5c0.1-1,0.7-2.3,2.1-2.3c0.8,0,1.3,0.5,1.3,1C62.6,24,62.4,24.4,61.9,24.4"/>
	<rect x="31.4" y="32.7" width="2.4" height="16.7"/>
	<polyline points="27.7,49.4 25.3,49.4 25.3,42.1 15.4,42.1 15.4,49.4 13,49.4 13,32.7 15.4,32.7 15.4,39.9 25.3,39.9 25.3,32.7 
		27.7,32.7 27.7,49.4 	"/>
	<polyline points="93.3,40.7 100.4,49.4 97.5,49.4 91.8,42.5 86.1,49.4 83.2,49.4 90.4,40.7 83.7,32.7 86.6,32.7 91.8,39 97,32.7 
		99.9,32.7 93.3,40.7 	"/>
	<path d="M75,32.5c5.5,0,9,3.9,9,8.6c0,4.5-3.4,8.6-9,8.6c-5.5,0-8.9-4-8.9-8.6C66,36.4,69.6,32.5,75,32.5 M75,47.4
		c3.7,0,6.5-2.7,6.5-6.4c0-3.7-2.8-6.4-6.5-6.4c-3.7,0-6.5,2.7-6.5,6.4C68.5,44.7,71.3,47.4,75,47.4z"/>
	<path d="M63.8,45.2c-1.2,1.4-3,2.2-5.1,2.2c-3.7,0-6.5-2.7-6.5-6.4c0-3.7,2.8-6.4,6.5-6.4c2,0,3.8,0.8,5,2.1l1.3-2.1
		c-1.5-1.4-3.7-2.2-6.2-2.2c-5.4,0-9,3.9-9,8.6c0,4.5,3.5,8.6,8.9,8.6c2.7,0,4.8-0.9,6.4-2.3L63.8,45.2"/>
	<path d="M46.8,35.8c-1.3-1.1-3-1.4-4.1-1.4c-1.7,0-3.2,0.8-3.2,2.2c0,3.2,8.5,3.2,8.5,8.5c0,3.5-3.5,4.6-6.3,4.5
		c-1.8-0.1-3.2-0.5-4.7-1.4v-2.4c1.5,0.9,2.8,1.4,4.4,1.6c1.7,0.1,4.2-0.3,4.2-2.3c0-3.5-8.6-3.6-8.6-8.1c0-2.7,2.4-4.5,5.3-4.5
		c1.9,0,3.2,0.4,4.4,1.1L46.8,35.8"/>
</g>
</svg>
