<?xml version="1.0" encoding="UTF-8"?>
<svg width="35px" height="32px" viewBox="0 0 35 32" version="1.1" xmlns="http://www.w3.org/2000/svg" xmlns:xlink="http://www.w3.org/1999/xlink">
    <title>8CC152AE-4767-42DF-B45A-78C345D136C2</title>
    <g id="🔗-Prototype" stroke="none" stroke-width="1" fill="none" fill-rule="evenodd">
        <g id="2I-Onbarding---Sectors-2" transform="translate(-716.000000, -1443.000000)" fill="#B1CFDF" fill-rule="nonzero">
            <g id="Group-4" transform="translate(0.000000, 1330.000000)">
                <g id="how-it-works" transform="translate(385.000000, 0.000000)">
                    <g id="Group-4" transform="translate(68.000000, 32.000000)">
                        <g id="Group-10" transform="translate(244.000000, 61.000000)">
                            <path d="M31.9265097,34.044471 C31.6594086,33.5309895 32.1191132,32.9422725 32.6480374,33.0306741 L32.727813,33.0491068 L49.5551821,38.2332954 C50.1245292,38.4297488 50.2264124,39.1845437 49.758633,39.5102973 L49.6753776,39.5604477 L46.4701644,41.302335 C46.0588288,41.4958781 45.9965052,42.0507015 46.2831937,42.3935737 L46.3499689,42.4635933 L53.7620244,48.7675666 C54.0191092,48.9956709 54.0741988,49.3631723 53.8964328,49.6783998 L53.8421547,49.7629308 L52.2395482,51.7536593 C52.0191898,52.0197809 51.630502,52.076807 51.3512283,51.8927923 L51.2779842,51.8366063 L43.6656029,45.4082124 C43.3275531,45.0971611 42.7782221,45.2235257 42.6118382,45.6506137 L42.5838435,45.7400005 L41.3818885,50.0117719 C41.1921062,50.6011323 40.4629424,50.7065968 40.1482506,50.2223744 L40.0998033,50.1361924 L31.9265097,34.044471 Z M29.9324588,39.8244308 L30.0130607,39.8321207 C30.2836078,39.8787969 30.4743558,40.1238308 30.4695359,40.3994489 L30.4621071,40.482884 L29.7809993,44.7131819 C29.731399,45.0212448 29.4499361,45.2293567 29.1523343,45.1780129 C28.8817873,45.1313367 28.6910393,44.8863028 28.6958592,44.6106847 L28.7032879,44.5272495 L29.3843957,40.2969516 C29.4294869,40.0168945 29.6662001,39.8194414 29.9324588,39.8244308 Z M26.664479,38.2942981 C26.8741625,38.472887 26.9222419,38.7794048 26.7900162,39.0147364 L26.7392373,39.0902706 L24.1350016,42.3666778 C23.9433078,42.6078492 23.5990402,42.6424961 23.3660585,42.444064 C23.156375,42.2654751 23.1082955,41.9589573 23.2405213,41.7236258 L23.2913002,41.6480916 L25.8955359,38.3716844 C26.0872297,38.130513 26.4314972,38.095866 26.664479,38.2942981 Z M24.5051129,35.173066 C24.6014187,35.4389088 24.491884,35.7324615 24.2589286,35.8660269 L24.1854218,35.9011093 L20.3391659,37.3941556 C20.056669,37.5038157 19.7417817,37.3556539 19.6358454,37.0632268 C19.5395396,36.7973841 19.6490743,36.5038314 19.8820297,36.3702659 L19.9555365,36.3351836 L23.8017923,34.8421373 C24.0842892,34.7324771 24.3991766,34.880639 24.5051129,35.173066 Z M19.5555811,30.0366827 L19.636183,30.0443726 L23.7228298,30.7494222 C24.0204316,30.800766 24.2214765,31.0921227 24.1718762,31.4001856 C24.1267851,31.6802428 23.8900719,31.8776958 23.6238132,31.8727065 L23.5432113,31.8650166 L19.4565645,31.1599669 C19.1589627,31.1086231 18.9579178,30.8172664 19.0075181,30.5092036 C19.0526093,30.2291464 19.2893224,30.0316933 19.5555811,30.0366827 Z M42.7354109,28.082894 C42.8308445,28.3490736 42.7203481,28.6422398 42.4869561,28.7749862 L42.4133347,28.80981 L38.5270137,30.3028564 C38.244159,30.4115235 37.9297592,30.2622563 37.8247821,29.9694588 C37.7293485,29.7032793 37.8398449,29.410113 38.0732369,29.2773667 L38.1468583,29.2425428 L42.0331793,27.7494965 C42.316034,27.6408294 42.6304338,27.7900965 42.7354109,28.082894 Z M22.3446023,24.3481089 L22.4175715,24.4006727 L25.5827195,27.0964508 C25.8157012,27.2948829 25.8491717,27.6512519 25.6574779,27.8924232 C25.4849534,28.1094774 25.1888443,28.1592469 24.961504,28.0223733 L24.8885348,27.9698094 L21.7233868,25.2740314 C21.490405,25.0755993 21.4569346,24.7192302 21.6486284,24.4780589 C21.8211529,24.2610047 22.117262,24.2112352 22.3446023,24.3481089 Z M39.0019428,22.6980525 C39.2126858,22.8753001 39.2625895,23.1815053 39.1317676,23.417676 L39.0814395,23.4935328 L36.4772038,26.8114135 C36.2869497,27.0538034 35.942895,27.0906464 35.7087361,26.8937046 C35.4979931,26.716457 35.4480894,26.4102518 35.5789113,26.174081 L35.6292395,26.0982242 L38.2334752,22.7803435 C38.4237293,22.5379536 38.767784,22.5011107 39.0019428,22.6980525 Z M27.5170721,20.8732412 L27.5507135,20.9494505 L28.9930594,24.9723809 C29.0980364,25.2651784 28.953838,25.5906298 28.6709832,25.6992969 C28.4138425,25.7980852 28.1306315,25.6837046 28.002393,25.4421086 L27.9687516,25.3658993 L26.5264057,21.342969 C26.4214286,21.0501715 26.5656271,20.7247201 26.8484818,20.616053 C27.1056225,20.5172647 27.3888335,20.6316452 27.5170721,20.8732412 Z M33.0984837,20.0001096 L33.1790735,20.0079334 C33.4495479,20.0550591 33.6399157,20.3004096 33.6346684,20.5760193 L33.6271103,20.659442 L32.9460025,24.8482664 C32.8959245,25.1562465 32.6141393,25.3638905 32.3166175,25.3120522 C32.0461432,25.2649266 31.8557754,25.019576 31.8610227,24.7439663 L31.8685808,24.6605436 L32.5496886,20.4717192 C32.595214,20.1917373 32.832233,19.9946778 33.0984837,20.0001096 Z" id="Shape"></path>
                        </g>
                    </g>
                </g>
            </g>
        </g>
    </g>
</svg>