<?xml version="1.0" encoding="UTF-8"?>
<svg width="14px" height="24px" viewBox="0 0 14 24" version="1.1" xmlns="http://www.w3.org/2000/svg" xmlns:xlink="http://www.w3.org/1999/xlink">
    <title>D8885ED7-FCCC-406A-A344-E5FD5CDCA950</title>
    <g id="🔗-Prototype" stroke="none" stroke-width="1" fill="none" fill-rule="evenodd">
        <g id="2I-Onbarding---Sectors-2" transform="translate(-937.000000, -1447.000000)" fill="#B1CFDF" fill-rule="nonzero">
            <g id="Group-4" transform="translate(0.000000, 1330.000000)">
                <g id="how-it-works" transform="translate(385.000000, 0.000000)">
                    <g id="Group-4" transform="translate(68.000000, 32.000000)">
                        <g id="Group-8-Copy-4" transform="translate(403.000000, 61.000000)">
                            <g id="Group-5" transform="translate(52.000000, 0.000000)">
                                <path d="M33.6666667,38.4 L33.6666667,41.0064 C33.6666667,42.6286637 33.2580248,44.2087392 32.4998123,45.6 L41.8333333,45.6 C42.4776656,45.6 43,46.1372582 43,46.8 C43,47.4627418 42.4776656,48 41.8333333,48 L30.1666667,48 C29.5223345,48 29,47.4627418 29,46.8 C29,46.4686291 29.1305836,46.1686291 29.3417088,45.9514718 C30.6162845,44.6404798 31.3333333,42.8600894 31.3333333,41.0064 L31.3333333,38.4 L30.1666667,38.4 C29.5223345,38.4 29,37.8627418 29,37.2 C29,36.5372582 29.5223345,36 30.1666667,36 L31.3333333,36 L31.3333333,30 C31.3333333,26.6876583 33.9463344,24 37.1666667,24 C40.3869989,24 43,26.6876583 43,30 C43,30.6627417 42.4776656,31.2 41.8333333,31.2 C41.1890011,31.2 40.6666667,30.6627417 40.6666667,30 C40.6666667,28.0131417 39.0983344,26.4 37.1666667,26.4 C35.2349989,26.4 33.6666667,28.0131417 33.6666667,30 L33.6666667,36 L37.1666667,36 C37.8109989,36 38.3333333,36.5372582 38.3333333,37.2 C38.3333333,37.8627418 37.8109989,38.4 37.1666667,38.4 L33.6666667,38.4 Z" id="Path"></path>
                            </g>
                        </g>
                    </g>
                </g>
            </g>
        </g>
    </g>
</svg>