<?xml version="1.0" encoding="UTF-8"?>
<svg width="59px" height="33px" viewBox="0 0 59 33" version="1.1" xmlns="http://www.w3.org/2000/svg" xmlns:xlink="http://www.w3.org/1999/xlink">
    <title>Shape</title>
    <g id="Pathway-with-logo" stroke="none" stroke-width="1" fill="none" fill-rule="evenodd">
        <g id="SWD-87-Redesign-sign-up-page" transform="translate(-292.000000, -756.000000)" fill="#46C8B8">
            <g id="PLACE" transform="translate(242.000000, 732.000000)">
                <g id="Funding" transform="translate(38.000000, 0.000000)">
                    <path d="M41.72908,32.55076 C45.3324332,35.990588 58.9456162,49.8705143 58.9456162,49.8705143 L58.9456162,32.3176496 L56.3489288,32.3222886 C52.8325571,29.8311388 49.3243037,27.2019783 45.4321719,25.3312963 C41.6548558,23.5151228 40.6331132,24.3025953 37.7499667,27.1103578 L30.9306179,34.5664111 C30.6650344,34.8714262 30.5281835,35.271541 30.4446813,35.6588986 C30.2034526,36.7618239 30.9027838,37.8519919 32.0173066,38.0943803 C33.0123749,38.3100944 34.1187794,38.0445109 35.0454223,37.6780289 C37.9610418,36.5298733 39.656601,34.6881852 41.72908,32.55076 M60.3570359,27.837523 L60.3570359,51.000114 L70.7449453,51.000114 L70.7449453,27.837523 L60.3570359,27.837523 Z M23.1451947,51.000114 L23.1451947,27.837523 L12.7572852,27.837523 L12.7572852,51.000114 L23.1451947,51.000114 L23.1451947,51.000114 Z M57.7081596,50.6487087 C52.4080874,45.3057257 47.2031151,39.7771822 41.7685116,34.5919257 C39.8723151,36.5008794 38.1918327,37.9969611 35.577749,39.0268219 C34.2985412,39.5313146 32.9543872,39.7818212 31.7111318,39.5115987 C29.8242133,39.1033656 28.6145908,37.2419617 29.0297824,35.3527238 C29.3104427,34.0538002 29.8381304,33.617733 30.6743124,32.7026877 L36.3304288,26.5096056 L26.5200765,30.9920517 L24.5577741,30.9920517 L24.5577741,48.3813912 L26.3310367,48.3813912 L37.2582314,56.455593 C39.0488903,57.2488642 40.8372297,57.3509225 42.2961993,55.8397641 C44.2469042,56.9090565 46.7044212,56.526338 48.1262786,54.7901874 C50.2497867,55.6484048 52.3558986,54.7623534 53.5956747,52.9206653 C55.2970327,53.0389601 56.9009713,52.1482696 57.7081596,50.6487087 Z" id="Shape"></path>
                </g>
            </g>
        </g>
    </g>
</svg>