<?xml version="1.0" encoding="UTF-8"?>
<svg width="51px" height="34px" viewBox="0 0 51 34" version="1.1" xmlns="http://www.w3.org/2000/svg" xmlns:xlink="http://www.w3.org/1999/xlink">
    <title>PIG</title>
    <g id="Pathway-with-logo" stroke="none" stroke-width="1" fill="none" fill-rule="evenodd">
        <g id="SWD-87-Redesign-sign-up-page" transform="translate(-513.000000, -756.000000)" fill="#46C8B8">
            <g id="PLACE" transform="translate(242.000000, 732.000000)">
                <g id="Group-2-Copy" transform="translate(216.767372, 0.000000)">
                    <g id="Savings" transform="translate(38.000000, 0.000000)">
                        <path d="M65.5107151,29.8311708 C65.106919,29.6334797 64.6696475,29.5056533 64.2182535,29.4275084 C63.9457434,29.5398094 63.6591109,29.72301 63.479181,30.0386947 C63.3426644,30.2777871 63.1569809,30.8092759 63.3243576,31.2884957 C63.3400492,31.3330021 63.3667248,31.3728508 63.3876469,31.4147696 C63.8170726,31.4318476 64.2276685,31.5125801 64.5828208,31.6864654 C65.007016,31.8939893 65.2345437,32.1718954 65.1623625,32.3949448 C65.1053498,32.5724527 64.856377,32.7354702 64.4494425,32.6697457 C64.2810198,32.6423174 63.9143603,32.5238062 63.8761775,32.5067282 C63.7867356,32.4689495 63.7030473,32.4265132 63.6251125,32.3799368 C63.5858836,32.3566486 63.549793,32.3312903 63.5137024,32.3064495 C63.4519823,32.2634957 63.3934005,32.2195068 63.3390031,32.1724129 C63.1036296,31.9721342 62.9278841,31.7366645 62.8300734,31.4577234 C62.6161451,30.8470546 62.8002595,30.1748014 63.0230796,29.7840769 C63.1266439,29.6024288 63.3651557,29.3302154 63.5785609,29.1832409 C63.9201139,28.9239654 64.3312328,28.7516326 64.7690273,28.730932 C65.3459538,28.7035036 65.7915941,28.2185912 65.7638723,27.6477711 C65.7356275,27.0764335 65.2512813,26.6241246 64.6686014,26.6634558 C62.8033978,26.7514335 61.2284881,28.0705816 60.7598334,29.7556135 C60.0463904,30.0014336 59.388391,30.3440291 58.8423246,30.7482091 C55.4968837,26.8249208 49.7161125,24.3548172 43.0587061,24.3548172 C38.1184795,24.3548172 33.5789108,25.4089972 30.0116959,27.3543396 C29.2140415,26.8916803 28.304454,26.4362663 27.2965327,26.0491644 C25.731038,25.4488459 24.1472364,25.0974526 22.5880182,25.0058523 C22.1585925,24.9810115 21.7469505,25.1636946 21.4969317,25.4881771 C21.2474358,25.8131771 21.1961767,26.2339176 21.3619842,26.6023889 C21.3761066,26.6360275 22.8647128,29.9698651 24.0107198,32.9316088 C23.2073118,34.3009559 22.7376111,35.6211391 22.4368562,37.4671184 C22.3291075,38.2092362 21.8384846,38.7101917 21.3870907,38.8582012 C20.8059799,39.0486471 20.0250632,38.9187506 19.3822322,38.6294592 C18.3743109,38.1755977 17.7058504,38.056569 17.1749526,38.3603509 C15.8307088,39.1304146 15.7899108,43.0806137 17.9809758,45.9714577 C19.1578429,47.5240055 20.1683795,48.7427555 22.1329629,49.2706218 C23.6592288,49.6799769 25.3889619,49.9211393 26.6113345,50.7584801 C27.8865354,51.6320469 29.52055,54.2196266 28.5999784,57.0250805 C28.5262281,57.2486473 28.545581,57.4887747 28.6883742,57.6807732 C28.8311674,57.8727716 29.0670639,57.9871426 29.3181289,57.9871426 L35.7098249,57.9871426 C35.9514749,57.9871426 36.1784795,57.8815693 36.3228419,57.7025088 C36.3976383,57.611426 36.7240228,57.1627397 37.3522083,55.7333607 C38.7503264,55.9890136 40.2180105,56.1282254 41.751599,56.1282254 C43.4436724,56.1282254 45.0327045,55.9972938 46.5228798,55.7494037 C46.4276843,56.1541012 46.3005827,56.5800168 46.1216989,57.025598 C46.0338261,57.2439897 46.0667784,57.4892923 46.2106177,57.6812907 C46.3528879,57.8732891 46.5887844,57.9876601 46.8403724,57.9876601 L53.2331145,57.9876601 C53.4852256,57.9876601 53.7221682,57.8717365 53.8649614,57.6787031 C53.9068055,57.6222939 57.8448644,52.6794992 59.9360265,47.8241647 C62.1867194,42.5967363 61.9027021,39.0481296 61.8985177,38.6729305 C61.8728882,36.3979305 61.2190731,34.2890531 60.0709739,32.4265132 C60.2817639,32.2702234 60.5307366,32.1222139 60.8048159,31.9897298 C61.2551637,33.4077234 62.4879974,34.4541406 64.1173045,34.7139336 C64.2909578,34.741362 64.4625189,34.7548174 64.6304186,34.7548174 C65.810947,34.7542999 66.8110225,34.0903269 67.1551908,33.0247616 C67.4873288,31.99801 67.107593,30.6126199 65.5107151,29.8311708 Z M26.7332057,40.6995229 C25.8665084,40.6995229 25.1640495,40.0039815 25.1640495,39.1469751 C25.1640495,38.2899687 25.8665084,37.5944273 26.7332057,37.5944273 C27.5999029,37.5944273 28.3023618,38.2899687 28.3023618,39.1469751 C28.3023618,40.0039815 27.5999029,40.6995229 26.7332057,40.6995229 Z M49.6387008,28.7873412 C49.4514482,29.3281453 48.8551689,29.6153667 48.3096256,29.430096 C46.6086603,28.8525482 44.7795473,28.5591167 42.8724996,28.5591167 C42.8709304,28.5591167 42.8698843,28.5591167 42.8672691,28.5591167 C40.6374982,28.5591167 38.5259371,28.8649686 36.5916906,29.4683922 C36.4870802,29.5004781 36.3809006,29.5165211 36.2762902,29.5165211 C35.831696,29.5165211 35.419531,29.2339574 35.279353,28.7925164 C35.1056998,28.2470546 35.4116852,27.6658842 35.962459,27.4940689 C38.1006958,26.8275084 40.424093,26.4895705 42.8672691,26.4895705 C42.8693613,26.4895705 42.8714535,26.4895705 42.8724996,26.4895705 C45.0112594,26.4895705 47.0684231,26.8202631 48.9885471,27.4723332 C49.5356596,27.6586389 49.8264765,28.2470546 49.6387008,28.7873412 Z" id="PIG" transform="translate(41.751115, 41.171239) scale(-1, 1) translate(-41.751115, -41.171239) "></path>
                    </g>
                </g>
            </g>
        </g>
    </g>
</svg>