<?xml version="1.0" encoding="UTF-8"?>
<svg width="43px" height="47px" viewBox="0 0 43 47" version="1.1" xmlns="http://www.w3.org/2000/svg" xmlns:xlink="http://www.w3.org/1999/xlink">
    <title>Path</title>
    <g id="Pathway-with-logo" stroke="none" stroke-width="1" fill="none" fill-rule="evenodd">
        <g id="SWD-87-Redesign-sign-up-page" transform="translate(-736.000000, -750.000000)" fill="#46C8B8">
            <g id="PLACE" transform="translate(242.000000, 732.000000)">
                <g id="Group-2-Copy-2" transform="translate(436.383686, 0.000000)">
                    <g id="Health" transform="translate(38.000000, 0.000000)">
                        <path d="M26.9049257,18.1919427 C27.6709023,18.1919427 28.3411317,18.8621721 28.3411317,19.6281487 C28.3411317,20.3941252 27.7666493,21.0643547 26.9049257,21.0643547 L23.5528209,21.0643547 L23.5537784,31.6922791 C23.5537784,37.4371031 28.2453847,42.1287093 33.9902087,42.1287093 C39.7350327,42.1287093 44.4266389,37.4371031 44.4266389,31.6922791 L44.4266389,21.0643547 L40.9797445,21.0643547 C40.213768,21.0643547 39.5435385,20.3941252 39.5435385,19.6281487 C39.5435385,18.8621721 40.213768,18.1919427 41.0754916,18.1919427 L45.958592,18.1919427 C46.7245685,18.1919427 47.394798,18.8621721 47.394798,19.6281487 C47.394798,19.7990809 47.3614215,19.965245 47.2999887,20.1202569 L47.2990509,31.6922791 C47.2990509,38.4897417 42.1190161,44.2010679 35.4270924,44.9239749 L35.4264147,52.2778984 C35.4264147,57.2567459 39.4477915,61.2781227 44.4266389,61.2781227 C49.4000471,61.2781227 53.4180756,57.2655276 53.4268488,52.2942128 C50.4223008,51.5929199 48.1607745,48.8794898 48.1607745,45.6713508 C48.1607745,41.9372152 51.2246807,38.8733091 54.9588163,38.8733091 C58.6929519,38.8733091 61.756858,41.9372152 61.756858,45.6713508 C61.756858,48.9472292 59.3988198,51.7072868 56.2988818,52.3353851 L56.2992752,52.2778984 C56.2992752,58.7886989 51.0331865,64.1505347 44.4266389,64.1505347 C38.7423434,64.1505347 33.9338202,60.0635969 32.8045977,54.6932496 C32.6474633,54.4643156 32.5540027,54.1916328 32.5540027,53.9055985 L32.5542808,44.9252408 C25.8618945,44.2133871 20.6813664,38.5795099 20.6813664,31.6922791 L20.680036,20.1219777 C20.6192433,19.966475 20.5856193,19.7997135 20.5856193,19.6281487 C20.5856193,18.8621721 21.2558488,18.1919427 22.0218253,18.1919427 L26.9049257,18.1919427 Z" id="Path"></path>
                    </g>
                </g>
            </g>
        </g>
    </g>
</svg>