<?xml version="1.0" encoding="UTF-8"?>
<svg width="24px" height="31px" viewBox="0 0 24 31" version="1.1" xmlns="http://www.w3.org/2000/svg" xmlns:xlink="http://www.w3.org/1999/xlink">
    <title>024A4F6C-294A-4538-B934-7798766C8CF3</title>
    <g id="🔗-Prototype" stroke="none" stroke-width="1" fill="none" fill-rule="evenodd">
        <g id="2I-Onbarding---Sectors-2" transform="translate(-509.000000, -1444.000000)" fill="#B1CFDF" fill-rule="nonzero">
            <g id="Group-4" transform="translate(0.000000, 1330.000000)">
                <g id="how-it-works" transform="translate(385.000000, 0.000000)">
                    <g id="Group-4" transform="translate(68.000000, 32.000000)">
                        <g id="Group-8-Copy-2" transform="translate(0.000000, 61.000000)">
                            <g id="Group-6" transform="translate(32.000000, 0.000000)">
                                <path d="M39.4545211,28.704338 C39.5801831,28.704338 39.7029296,28.7165493 39.822,28.7385634 C40.6992559,28.9015 41.3705031,29.636331 41.44665,30.5404384 L41.453831,30.701662 L41.453831,40.0739155 C41.453831,40.9232535 40.9252817,41.6498028 40.1780704,41.9402535 C40.0095634,42.0058732 39.8300704,42.0493521 39.6427183,42.0667183 L39.5491954,42.0735 L39.5491954,42.0735 L39.4430282,42.0758451 L39.4430282,49.7836056 C39.4430282,50.8350845 38.651284,51.7017268 37.6457569,51.77834 L37.5007183,51.7838451 L34.5215915,51.7838451 C33.4979827,51.7838451 32.6578244,50.9649972 32.5835613,49.9324942 L32.5782254,49.7836056 L32.5782254,42.0758451 L32.5656761,42.0758451 C32.4922817,42.0758451 32.4200282,42.071662 32.3487042,42.0638028 C32.1611831,42.0433099 31.9816056,41.9966197 31.8133521,41.927493 C31.1343718,41.6486761 30.6415271,41.0047654 30.5788322,40.2396379 L30.5720704,40.0739155 L30.5720704,30.701662 C30.5720704,29.730169 31.2666761,28.9200423 32.1842535,28.7413521 C32.2665634,28.7253803 32.3506385,28.7142535 32.4362034,28.7086103 L32.5656338,28.704338 L39.4545211,28.704338 Z M46.2346479,28.7043803 C47.1599345,28.7043803 47.9116361,29.4164146 47.9889489,30.3196824 L47.9954789,30.4638169 L47.9954789,38.7188028 C47.9954789,39.6431261 47.2853512,40.4027875 46.379231,40.4764429 L46.2241268,40.4822958 L46.2241268,47.3989437 C46.2241268,48.3176642 45.5376098,49.0768813 44.6611933,49.154254 L44.5134507,49.1607465 L41.8898028,49.1607465 C41.6453746,49.1607465 41.4130073,49.1075544 41.2026091,49.0120303 L41.0490845,48.9326197 L41.0490845,43.3095211 C42.180093,42.7491951 42.9770493,41.6121715 43.0539174,40.2849937 L43.0600141,40.0739155 L43.0600141,30.6932535 C43.0566338,30.0544178 42.8890636,29.4412222 42.5778394,28.9027211 L42.4544366,28.7043803 L46.2346479,28.7043803 Z M29.571169,28.704338 C29.2316009,29.2128451 29.0174622,29.8120605 28.974068,30.4575297 L28.9658873,30.701662 L28.9658873,40.0739155 C28.9658873,41.4195169 29.704501,42.5953848 30.7966702,43.2155554 L30.972,43.3088028 L30.972,48.9155915 C30.7597113,49.0452394 30.5180798,49.129054 30.2595518,49.1533908 L30.102507,49.1607465 L27.4789014,49.1607465 C26.5838784,49.1607465 25.8483589,48.4498831 25.773415,47.5504973 L25.7671268,47.3989437 L25.7671268,40.4822535 L25.7556761,40.4822535 C24.83625,40.4822535 24.0792358,39.7688082 24.005833,38.8632619 L24,38.7187606 L24,30.4638169 C24,29.541862 24.711081,28.7836917 25.6119349,28.7101796 L25.7556761,28.704338 L29.571169,28.704338 Z M36.0131831,21 C37.8127183,21 39.2741408,22.4565211 39.2741408,24.2656479 C39.2741408,25.4782817 38.6084366,26.5371127 37.623169,27.0981972 C37.1479437,27.3688732 36.5986479,27.5243662 36.0131831,27.5243662 C35.4266197,27.5243662 34.8766056,27.3688732 34.4007465,27.0981972 C33.414169,26.5371127 32.7480845,25.4782817 32.7480845,24.2656479 C32.7480845,22.4565211 34.2104366,21 36.0131831,21 Z M28.7792113,21.7962676 C30.323662,21.7962676 31.5779155,23.0463803 31.5779155,24.5991127 C31.5779155,26.142 30.3237042,27.396338 28.7792113,27.396338 C27.2321831,27.396338 25.976831,26.1420423 25.976831,24.5991127 C25.976831,23.0463803 27.2321831,21.7962676 28.7792113,21.7962676 Z M43.2052394,21.7962676 C44.7496901,21.7962676 46.0040282,23.0463803 46.0040282,24.5991127 C46.0040282,26.142 44.7497324,27.396338 43.2052394,27.396338 C41.6582113,27.396338 40.4029014,26.1420423 40.4029014,24.5991127 C40.4029014,23.0463803 41.6582113,21.7962676 43.2052394,21.7962676 Z" id="Shape"></path>
                            </g>
                        </g>
                    </g>
                </g>
            </g>
        </g>
    </g>
</svg>