<svg viewBox="0 0 400 400" xmlns="http://www.w3.org/2000/svg"><defs><linearGradient x1="0%" y1="55.938%" x2="138.317%" y2="55.938%" id="a"><stop stop-color="#46C8B8" offset="0%"/><stop stop-color="#6AE7A4" offset="100%"/></linearGradient></defs><g transform="translate(5 5)" fill="none" fill-rule="evenodd"><circle fill="url(#a)" cx="195" cy="195" r="195"/><path d="M269.074 122.819l-31.881 14.994c-5.567-8.253-11.007-13.483-16.068-16.04-5.313-2.79-12.145-4.301-20.495-4.301-10.248 0-18.85 2.44-25.556 7.323-6.705 4.881-10.121 10.926-10.121 18.132 0 10.112 8.982 18.133 26.694 24.293l24.418 8.369c19.863 6.741 34.412 14.994 43.774 24.758 9.235 9.763 13.79 21.62 13.79 35.8 0 18.946-7.59 34.638-22.52 47.075-15.181 12.437-33.906 18.713-56.425 18.713-21.255 0-38.967-5.346-52.757-15.807-13.664-10.578-22.14-25.572-25.556-44.75l37.575-6.975c1.645 12.089 4.681 20.458 8.982 25.107 7.591 8.95 18.725 13.367 33.4 13.367 11.513 0 21.128-3.255 28.72-9.764 7.59-6.509 11.512-14.761 11.512-24.758 0-4.068-.759-7.671-2.024-11.042-1.265-3.254-3.416-6.393-6.2-9.182-2.783-2.79-6.452-5.347-10.88-7.904-4.428-2.441-9.741-4.766-15.814-6.974L177.984 195c-33.527-11.972-50.353-29.407-50.353-52.305 0-15.46 6.958-28.478 21.128-38.823 14.17-10.46 31.629-15.807 52.63-15.807 27.96 0 51.871 11.623 67.685 34.754z" fill="#FFF" fill-rule="nonzero"/></g></svg>