<svg xmlns="http://www.w3.org/2000/svg" viewBox="0 0 184.9 40.5"><path d="M47.5 12.3h1.2c.1 0 .2-.1.3-.1a.37.37 0 0 0 .1-.3V4.3a.47.47 0 0 0-.5-.5h-1.2a.47.47 0 0 0-.5.5v7.6a.68.68 0 0 0 .6.4zm30.3.1H79a.47.47 0 0 0 .5-.5V4.3a.47.47 0 0 0-.5-.5h-1.2a.47.47 0 0 0-.5.5v7.6a.47.47 0 0 0 .5.5zM60.1 6H62v5.9a.47.47 0 0 0 .5.5h1.2a.47.47 0 0 0 .5-.5V6h1.9a.47.47 0 0 0 .5-.5V4.3c0-.1-.1-.2-.1-.3a.37.37 0 0 0-.3-.1h-6a.47.47 0 0 0-.5.5v1.2c-.1.2.2.4.4.4zm27.5-.4V4.4a.47.47 0 0 0-.5-.5h-6a.47.47 0 0 0-.5.5v1.2a.47.47 0 0 0 .5.5H83V12a.47.47 0 0 0 .5.5h1.2a.47.47 0 0 0 .5-.5V6.1h1.9a.47.47 0 0 0 .5-.5zm-35.9 6.8h1.2c.1 0 .2-.1.3-.1a.37.37 0 0 0 .1-.3V6.6a4.32 4.32 0 0 1 2.1-.9.85.85 0 0 1 .6.2 3 3 0 0 1 .5.7 2 2 0 0 1 .1.7v4.6a.47.47 0 0 0 .5.5h1.2a.47.47 0 0 0 .5-.5V6.5a2.27 2.27 0 0 0-.3-1.2A2.6 2.6 0 0 0 57 3.9a3.55 3.55 0 0 0-1-.2 3.92 3.92 0 0 0-2.6 1.1v-.4a.47.47 0 0 0-.5-.5h-1.2a.47.47 0 0 0-.5.5V12a.55.55 0 0 0 .5.4zm17.9 0a3.55 3.55 0 0 0 1 .2 3.92 3.92 0 0 0 2.6-1.1v.4a.47.47 0 0 0 .5.5h1.2c.1 0 .2-.1.3-.1a.37.37 0 0 0 .1-.3V4.4a.35.35 0 0 0-.4-.4h-1.2c-.1 0-.3.1-.4.1s-.2.2-.2.3v5.4a3.31 3.31 0 0 1-2 .9 1.07 1.07 0 0 1-.6-.2 1.79 1.79 0 0 1-.5-.7 2.25 2.25 0 0 1-.1-.7V4.5a.47.47 0 0 0-.5-.5h-1.2a.47.47 0 0 0-.5.5v5.4a2.27 2.27 0 0 0 .3 1.2 3.63 3.63 0 0 0 1.6 1.3z" fill="#4a85c5"/><circle cx="63.06" cy="1.68" r="1.3" fill="#4a85c5"/><circle cx="84.23" cy="1.74" r="1.3" fill="#4a85c5"/><path d="M20.4 0a20.25 20.25 0 1 0 20 20.2A20.25 20.25 0 0 0 20.4 0zm-1.1 22.1v9.4c0 .6 0 .6-.6.6H17c-.3 0-.4-.1-.4-.4V15.5c0-.6 0-.6-.6-.6a11.5 11.5 0 0 0-3.2.2 5.22 5.22 0 0 0 .2 10.2 6.15 6.15 0 0 0 1.4.1c.3 0 .3.1.3.3v2.1c0 .3-.1.3-.4.4a8.13 8.13 0 0 1-7.7-4.8 7.91 7.91 0 0 1 1.6-8.9 8 8 0 0 1 5.8-2.4h4.8c.4 0 .5.1.5.5zm8.3 6.1a15.48 15.48 0 0 1-2.2.1h-3.8c-.4 0-.6-.1-.5-.5V8.9c0-.4.1-.6.6-.6h1.7c.4 0 .5.1.5.5v16c0 .8-.1.7.7.7a15.06 15.06 0 0 0 3-.1 5.36 5.36 0 0 0 4.1-5.3 5.24 5.24 0 0 0-4.5-5 4.1 4.1 0 0 0-1.1-.1c-.3 0-.4-.1-.4-.4v-2.1a.27.27 0 0 1 .3-.3 8.06 8.06 0 0 1 8.3 6.8 7.89 7.89 0 0 1-6.7 9.2z" fill="#46a948"/><path d="M66.7 34.3h-4c-.1 0-.3.1-.4-.1s.2-.2.3-.2a5.83 5.83 0 0 0 1.5-1.1 9.67 9.67 0 0 0 2.6-9.1 10.08 10.08 0 0 0-12.2-7.7 10 10 0 0 0-8 11 10 10 0 0 0 10.1 9.2h10.2c.4 0 .5-.1.5-.5v-1.1c-.1-.3-.2-.4-.6-.4zM61 32.8a7.49 7.49 0 0 1-4.3 1.3 7.67 7.67 0 0 1-7.6-6.8 8.32 8.32 0 0 1 2.5-7.3 7.69 7.69 0 0 1 9.8-.5c4.1 3.2 4 10.3-.4 13.3zm61.1-6.8a2.51 2.51 0 0 1 .7-.4 4.54 4.54 0 0 0 .9-7.8 8.39 8.39 0 0 0-4.4-1.3h-6c-.4 0-.5.1-.5.5v19c0 .4.1.5.5.5h6.2a9.68 9.68 0 0 0 4.1-.8 5.09 5.09 0 0 0 2-7.8 5.59 5.59 0 0 0-3.5-1.9zm-6.5-7.3h3.7a4 4 0 0 1 2.4.7 3 3 0 0 1-.2 4.9 4.9 4.9 0 0 1-2.7.6h-3.4c-.3 0-.4-.1-.4-.4v-5.3c.1-.4.2-.5.6-.5zm8.3 12.4a2.94 2.94 0 0 1-1.9 2.6 6.61 6.61 0 0 1-3.1.6h-3.3c-.3 0-.4-.1-.4-.4v-6.2c0-.4.1-.5.5-.5h4.2a4.84 4.84 0 0 1 2.6.7 3.61 3.61 0 0 1 1.4 3.2zm-18.4-1.5c-.3-.3-.3-.5 0-.8 1.9-1.7 3.7-3.4 5.5-5.2a.62.62 0 0 0 .3-.5h-2.6a.91.91 0 0 0-.7.3c-1.8 1.7-3.5 3.4-5.3 5.1-.1.1-.2.2-.3.2a1.09 1.09 0 0 1-.1-.5V16.9c0-.6 0-.6-.6-.6h-1c-.7 0-.7 0-.7.6v18.9c0 .3.1.4.4.4h1.3c.4 0 .5-.1.5-.6v-5.7c0-.2-.1-.4.1-.5a.78.78 0 0 1 .4.4c1.9 2 3.8 4.1 5.7 6.1.1.1.2.3.4.3h3v-.1l-.3-.3c-1.9-1.9-3.9-4.1-6-6.2zm63.8 6.4c-2.1-2.1-4.1-4.3-6.2-6.4-.2-.2-.3-.3 0-.6 1.5-1.4 3-2.7 4.4-4.1.5-.5 1-1.1 1.5-1.6h-2.5a.91.91 0 0 0-.7.3c-1.6 1.6-3.2 3.1-4.8 4.7a7.05 7.05 0 0 1-.9.7V16.8c0-.3-.1-.4-.4-.4h-1.3c-.6 0-.6 0-.6.6v19.1c0 .3.1.3.3.3h1.4c.4 0 .5-.1.5-.5v-5.8c0-.2-.1-.3.1-.5.2 0 .2.2.3.2 2 2.1 4 4.2 6 6.4.1.1.2.2.3.2h3zm-38.4-12.2a6.82 6.82 0 0 0-3.5 6.4 6.44 6.44 0 0 0 1.8 4.5 7.23 7.23 0 0 0 5.4 2.1 6.7 6.7 0 0 0 6.9-7 8.92 8.92 0 0 0-.3-2.2c-1.5-4.7-6.9-5.6-10.3-3.8zm5.3 10.7a4.65 4.65 0 0 1-6.3-5 4.29 4.29 0 0 1 3.1-4.2 4.62 4.62 0 0 1 6.2 4.7 4.75 4.75 0 0 1-3 4.5zM148.7 23a6.43 6.43 0 0 0-5.7 4.4 6.79 6.79 0 0 0 1.5 7.4 7.12 7.12 0 0 0 6.8 1.9 6.5 6.5 0 0 0 5.4-6.7 6.79 6.79 0 0 0-2-5 7 7 0 0 0-6-2zm2.3 11.6a4.66 4.66 0 0 1-6-4.2 4.74 4.74 0 0 1 1.5-4.2 4.49 4.49 0 0 1 4.8-.9 4.21 4.21 0 0 1 2.9 3.9v.7a4.43 4.43 0 0 1-3.2 4.7zm-70.5-5.9v-5.1c0-.3-.1-.4-.4-.4h-1.5c-.3 0-.3.1-.3.3v.5c0 2.2.1 4.4-.1 6.6-.2 2.7-1.8 4.1-4.4 4a2.51 2.51 0 0 1-2.3-1.6 5.38 5.38 0 0 1-.4-2.2v-7.3c0-.3-.1-.4-.4-.4h-1.4c-.3 0-.4.1-.4.4v8.2a5 5 0 0 0 1.2 3.5c1.5 1.8 4.9 2 6.8.7a5 5 0 0 0 1.4-1.5h.1v1.4c0 .4.1.5.5.5H80c.5.1.6-.1.5-.6-.1-2.3 0-4.7 0-7z" fill="#5f6062"/><path d="M177.4 29.5a7.28 7.28 0 0 0-2.4-.7 6.82 6.82 0 0 1-2.7-1 1.26 1.26 0 0 1-.3-1.8 1.34 1.34 0 0 1 .7-.6 3.13 3.13 0 0 1 4.1.9c.2.3.3.3.6.1a5.67 5.67 0 0 1 1.3-.8c.2-.1.2-.2.1-.4a4.89 4.89 0 0 0-1.2-1.3 6.42 6.42 0 0 0-6.8.2c-1.8 1.4-2 4.7.5 5.8.5.2 1.1.4 1.6.6a13.79 13.79 0 0 1 2.9.8 1.78 1.78 0 0 1 1.1 1.5 1.76 1.76 0 0 1-1 1.7 4.5 4.5 0 0 1-2.8.4 3.92 3.92 0 0 1-2.3-1.4c-.2-.2-.3-.2-.5-.1l-1.2.9c-.2.2-.2.3-.1.5a5.56 5.56 0 0 0 4.9 2.2 6.66 6.66 0 0 0 3.6-.9 3.59 3.59 0 0 0 1.7-3.6 3 3 0 0 0-1.8-3zM91 25.8a4.3 4.3 0 0 1 5.8.4.37.37 0 0 0 .6 0c.4-.3.7-.7 1.1-1s.3-.4 0-.7a7.55 7.55 0 0 0-8.6-.7 6.41 6.41 0 0 0-2.9 5c-.4 4.1 2.1 7.8 6.9 7.7a5.28 5.28 0 0 0 1.2-.1 5.55 5.55 0 0 0 3.4-1.7c.2-.2.3-.4 0-.6a4.74 4.74 0 0 1-1-1 .37.37 0 0 0-.6 0 4.18 4.18 0 0 1-5.7.4 5.34 5.34 0 0 1-1.8-4.6 4.14 4.14 0 0 1 1.6-3.1zm-5.9-.9v-1.3c0-.3-.1-.4-.4-.4h-1.3c-.4 0-.5.1-.5.5v12.1c0 .6 0 .6.6.6h1.1c.4 0 .6-.1.6-.6-.2-3.6-.1-7.3-.1-10.9zm97.9 8.8a1.8 1.8 0 1 0 1.9 1.8 1.82 1.82 0 0 0-1.9-1.8zm0 3.4a1.6 1.6 0 1 1 0-3.2 1.56 1.56 0 0 1 1.5 1.6 1.5 1.5 0 0 1-1.5 1.6z" fill="#5f6062"/><path d="M183.7 35.3a.37.37 0 0 0 .1-.3.69.69 0 0 0-.7-.6h-.8v2.1h.3v-.9h.6l.4.9h.3l-.4-1c.1 0 .2 0 .2-.2zm-.6.1h-.6v-.8h.6a.43.43 0 0 1 .3.7c0 .1-.1.1-.3.1z" fill="#5f6062"/></svg>