<svg xmlns="http://www.w3.org/2000/svg" viewBox="0 0 174.76 69.41"><path d="M74.27 32.33c0-4.4 3.3-6.53 6.85-6.53s6.77 2.17 6.77 6.53zm6.22-11.2c-7.25 0-12 5-12 13.34 0 10.3 7.26 13.26 12.44 13.26a14.17 14.17 0 0 0 10.31-4.47l-3.34-3.39a9.54 9.54 0 0 1-6.89 2.58c-4 0-6.76-2.39-6.76-5.67h18s3.16-15.65-11.76-15.65zM15.07 31.89c-2.24-.29-8.74 0-8.74-3.11 0-1.82 2.72-2.8 5.24-2.8a12.91 12.91 0 0 1 7.42 2.22l3.38-3.5a16.94 16.94 0 0 0-10.8-3.57c-5.55 0-10.54 3-10.54 7.85 0 7.41 8.61 7.41 12.21 7.77 2.17.22 4.16.38 4.16 2.59s-3 3.21-5.39 3.21a11.15 11.15 0 0 1-8.38-3.41L0 42.92a16.28 16.28 0 0 0 11.7 4.81c6.43 0 11.13-3 11.13-8.89 0-3.93-2.54-6.27-7.76-6.95m24.27 6.03c0 4.92-3.39 4.66-6.41 4.66s-5-.85-5-3.06c0-2 1.6-2.74 4.89-2.74h6.55zm-5.66-16.79a15.47 15.47 0 0 0-9.93 3.56l3.4 3.52a10.55 10.55 0 0 1 6.57-2.16c4.3 0 5.58 1.77 5.58 3.78v2.5h-7.66c-2.83 0-8.41.74-8.41 7.19 0 4.75 2.63 8.24 8.9 8.24a8.67 8.67 0 0 0 7.17-3.1v2.58h5.57v-17c0-5.95-3.53-9-11.19-9zm28.64 12.92a24.28 24.28 0 0 1-.2 4.08c-.35 1.6-2.21 3.71-5.59 3.71-.85 0-5.18-.48-5.67-4.15a26.82 26.82 0 0 1-.17-3.64 21.47 21.47 0 0 1 .27-4.5c.3-1.5 2.22-3.6 5.53-3.6 4.1 0 5.41 2.73 5.61 3.79a32.4 32.4 0 0 1 .22 4.31zm0-12.35v2.78a9.26 9.26 0 0 0-7.44-3.31c-5.41 0-8.2 3-9.14 6.14a28.82 28.82 0 0 0-.47 6.74c0 3.13 0 6 1.14 8.15 1.55 3.06 5.32 4.77 8.47 4.77a9.75 9.75 0 0 0 7.44-3.17v1.55a4.66 4.66 0 0 1-1.83 4 7.33 7.33 0 0 1-4.78 1.53 9 9 0 0 1-4.72-1.83l-3.84 3.8a14.29 14.29 0 0 0 8.67 3.34 13.24 13.24 0 0 0 8.54-2.83 11 11 0 0 0 3.74-8.61V21.66z" fill="#00dc00" fill-rule="evenodd"/><path d="M105.42 26.88a14.08 14.08 0 0 0 6.91 2c5.42 0 7.1-3.46 7.06-6.05-.05-4.37-4-6.24-8.07-6.24h-2.35v-3.2h2.35c3.07 0 7-1.58 7-5.28 0-2.5-1.58-4.7-5.47-4.7a11.44 11.44 0 0 0-6.24 2.06l-1.12-3.07a14.89 14.89 0 0 1 8.14-2.35c6.14 0 8.92 3.65 8.92 7.44 0 3.21-1.92 5.95-5.76 7.34v.1c3.84.77 7 3.65 7 8 0 5-3.88 9.36-11.37 9.36a15.8 15.8 0 0 1-8.11-2.11zm44.35-11.09c0 10.61-3.94 16.46-10.85 16.46-6.1 0-10.22-5.71-10.32-16S133.11.05 139.49.05c6.54 0 10.28 5.8 10.28 15.74zm-16.95.48c0 8.11 2.5 12.72 6.34 12.72 4.32 0 6.39-5 6.39-13 0-7.68-2-12.72-6.34-12.72-3.72-.01-6.39 4.5-6.39 13zm41.57-.48c0 10.61-3.93 16.46-10.85 16.46-6.09 0-10.22-5.71-10.32-16S157.74.05 164.07.05c6.58 0 10.32 5.8 10.32 15.74zm-16.9.48c0 8.11 2.5 12.72 6.34 12.72 4.32 0 6.38-5 6.38-13 0-7.68-2-12.72-6.34-12.72-3.73-.01-6.38 4.5-6.38 13zm-32 51.6a20.72 20.72 0 0 1-8.55 1.54c-9.12 0-16-5.76-16-16.37 0-10.13 6.86-17 16.9-17a17.31 17.31 0 0 1 7.68 1.44l-1 3.41a15.2 15.2 0 0 0-6.53-1.35c-7.59 0-12.63 4.85-12.63 13.35 0 7.92 4.56 13 12.44 13a16.63 16.63 0 0 0 6.81-1.35zm5.25-30.82a43.6 43.6 0 0 1 8-.67c4.47 0 7.35.81 9.36 2.64a8 8 0 0 1 2.55 6.14 8.5 8.5 0 0 1-6.1 8.26v.14c2.5.87 4 3.17 4.75 6.53 1.06 4.51 1.83 7.63 2.5 8.88h-4.31c-.53-.91-1.25-3.7-2.16-7.73-1-4.46-2.69-6.14-6.48-6.29h-3.94v14h-4.17zm4.17 14.74h4.27c4.47 0 7.3-2.45 7.3-6.15 0-4.18-3-6-7.44-6a16.72 16.72 0 0 0-4.13.39zm38.4 1.97h-12.57v11.67h14v3.5h-18.18V36.58h17.47v3.47h-13.29v10.26h12.57z" fill="#15b44d"/></svg>