<svg xmlns="http://www.w3.org/2000/svg" viewBox="0 0 149.77 40.19"><path d="M74.27 16.33c0-4.4 3.3-6.53 6.85-6.53s6.77 2.17 6.77 6.53zm6.22-11.2c-7.25 0-12 5-12 13.34 0 10.3 7.26 13.26 12.44 13.26a14.17 14.17 0 0 0 10.31-4.47l-3.34-3.39a9.54 9.54 0 0 1-6.89 2.58c-4 0-6.76-2.39-6.76-5.67h18S95.41 5.13 80.49 5.13zM15.07 15.89c-2.24-.29-8.74 0-8.74-3.11 0-1.82 2.72-2.8 5.24-2.8a12.91 12.91 0 0 1 7.42 2.22l3.38-3.5a16.94 16.94 0 0 0-10.8-3.57c-5.55 0-10.54 3-10.54 7.85 0 7.41 8.61 7.41 12.21 7.77 2.17.22 4.16.38 4.16 2.59s-3 3.21-5.39 3.21a11.15 11.15 0 0 1-8.38-3.41L0 26.92a16.28 16.28 0 0 0 11.7 4.81c6.43 0 11.13-2.95 11.13-8.89 0-3.93-2.54-6.27-7.76-6.95m24.27 6.03c0 4.92-3.39 4.66-6.41 4.66s-5-.85-5-3.06c0-2 1.6-2.74 4.89-2.74h6.55zM33.68 5.13a15.47 15.47 0 0 0-9.93 3.56l3.4 3.52a10.55 10.55 0 0 1 6.57-2.16c4.3 0 5.58 1.77 5.58 3.78v2.5h-7.66c-2.83 0-8.41.74-8.41 7.19 0 4.75 2.63 8.24 8.9 8.24a8.67 8.67 0 0 0 7.17-3.1v2.58h5.57v-17c0-6-3.53-9-11.19-9zm28.64 12.92a24.28 24.28 0 0 1-.2 4.08c-.35 1.6-2.21 3.71-5.59 3.71-.85 0-5.18-.48-5.67-4.15a26.82 26.82 0 0 1-.17-3.64 21.47 21.47 0 0 1 .27-4.5c.3-1.5 2.22-3.6 5.53-3.6 4.1 0 5.41 2.73 5.61 3.79a32.4 32.4 0 0 1 .22 4.31zm0-12.35v2.78a9.26 9.26 0 0 0-7.44-3.31c-5.41 0-8.2 3-9.14 6.14a28.82 28.82 0 0 0-.47 6.74c0 3.13 0 6 1.14 8.15 1.55 3.06 5.32 4.77 8.47 4.77a9.75 9.75 0 0 0 7.44-3.17v1.55a4.66 4.66 0 0 1-1.83 4 7.33 7.33 0 0 1-4.78 1.53 9 9 0 0 1-4.72-1.83l-3.84 3.8a14.29 14.29 0 0 0 8.67 3.34 13.24 13.24 0 0 0 8.54-2.83 11 11 0 0 0 3.74-8.61V5.66z" fill="#00dc00" fill-rule="evenodd"/><path d="M123.04 4.05h-11.91l-1.2 8a17.5 17.5 0 0 1 2.54-.19 13.21 13.21 0 0 1 6.72 1.68 8.89 8.89 0 0 1 4.47 8c0 6.1-4.85 10.65-11.62 10.65a15.22 15.22 0 0 1-7.77-1.92l1-3.21a14 14 0 0 0 6.67 1.73c4 0 7.4-2.6 7.4-6.77s-2.74-6.91-9-6.91a33 33 0 0 0-4.32.33l2-15h14.93zm26.73 11.74c0 10.61-3.94 16.46-10.85 16.46-6.1 0-10.22-5.71-10.32-16S133.11.05 139.49.05c6.54 0 10.28 5.8 10.28 15.74zm-16.95.48c0 8.11 2.5 12.72 6.34 12.72 4.32 0 6.39-5 6.39-13 0-7.68-2-12.72-6.34-12.72-3.72-.01-6.39 4.5-6.39 13z" fill="#15b44d"/></svg>