<svg xmlns="http://www.w3.org/2000/svg" viewBox="0 0 783.82 783.82"><g clip-path="url(#a)"><path d="M391.91 783.82c216.45 0 391.91-175.46 391.91-391.91S608.36 0 391.91 0 0 175.5 0 391.91s175.5 391.91 391.91 391.91" fill="#1ab4d7"/><path d="M187.6 390.78l66.88-67a12 12 0 1 0-17-16.84l-66.82 66.79-67.16-66.94a12 12 0 1 0-16.85 17l66.85 66.89-66.84 67a12 12 0 1 0 16.84 17.03l67-66.93 66.77 66.72a12.004 12.004 0 1 0 17.23-16.72zm397.61-.02a21.78 21.78 0 1 0 21.78-21.78 21.79 21.79 0 0 0-21.78 21.78" fill="#fff"/><path d="M543.91 390.77a63.06 63.06 0 1 1 63.06 63 63.13 63.13 0 0 1-63.06-63m-24.81 0a87.88 87.88 0 1 0 87.87-87.88 88 88 0 0 0-87.87 87.88m-6.24-86.38h-3.69a49.83 49.83 0 0 0-30.67 10.35 12 12 0 0 0-11.71-9.42 11.85 11.85 0 0 0-11.88 11.88v148a12 12 0 0 0 24 0v-91c0-30.33 2.77-42.58 28.75-45.83a40.84 40.84 0 0 1 5-.25c7.11-.25 12.16-5.13 12.16-11.73a12 12 0 0 0-12-12M282.76 376.3v-1a63.47 63.47 0 0 1 123.29 1zm147.87-2.26c-5.13-24.45-18.55-44.54-38.93-57.43a87.92 87.92 0 0 0-134.94 74.76 86.51 86.51 0 0 0 2.62 21.18 88.56 88.56 0 0 0 74.58 65.64 83.7 83.7 0 0 0 31.62-2.09 86.67 86.67 0 0 0 26.26-11.21c8.5-5.47 15.6-12.67 22.48-21.3.14-.16.28-.3.41-.46 4.78-5.92 3.89-14.34-1.35-18.36-4.43-3.39-11.85-4.76-17.7 2.72a76.398 76.398 0 0 1-4.2 5.47 68.54 68.54 0 0 1-17.32 14 63 63 0 0 1-29.45 7.44c-34.86-.39-53.51-24.72-60.15-42.09a62.38 62.38 0 0 1-2.67-10.07c-.08-.64-.14-1.27-.17-1.85h125.09c17.14-.36 26.37-12.46 23.82-26.3" fill="#fff"/></g></svg>