<svg width="65" height="52" viewBox="0 0 65 52" fill="none" xmlns="http://www.w3.org/2000/svg">
<path fill-rule="evenodd" clip-rule="evenodd" d="M32.5 0L65 18H0L32.5 0ZM61 46V20H4V46H61ZM65 48V52H0V48H65ZM63.8 49.2H1.2V50.8H63.8V49.2ZM59.8 21.2H5.2V44.8H9V34C9 30.6863 11.6863 28 15 28C18.3137 28 21 30.6863 21 34V44.8H26V34C26 30.6863 28.6863 28 32 28C35.3137 28 38 30.6863 38 34V44.8H43V34C43 30.6863 45.6863 28 49 28C52.3137 28 55 30.6863 55 34V44.8H59.8V21.2ZM27.2047 33.7862C27.3165 31.2344 29.4207 29.2 32 29.2L32.2138 29.2047C34.7656 29.3165 36.8 31.4207 36.8 34V44.8H27.2V34L27.2047 33.7862ZM15 29.2C12.4207 29.2 10.3165 31.2344 10.2047 33.7862L10.2 34V44.8H19.8V34C19.8 31.4207 17.7656 29.3165 15.2138 29.2047L15 29.2ZM44.2047 33.7862C44.3165 31.2344 46.4207 29.2 49 29.2L49.2138 29.2047C51.7656 29.3165 53.8 31.4207 53.8 34V44.8H44.2V34L44.2047 33.7862ZM4.642 16.8L32.5 1.371L60.357 16.8H4.642Z" fill="url(#paint0_linear)"/>
<defs>
<linearGradient id="paint0_linear" x1="0" y1="52" x2="65" y2="52" gradientUnits="userSpaceOnUse">
<stop stop-color="#6CC0A4"/>
<stop offset="1" stop-color="#1E507A"/>
</linearGradient>
</defs>
</svg>
