<svg width="448" height="299" viewBox="0 0 448 299" fill="none" xmlns="http://www.w3.org/2000/svg">
<g clip-path="url(#clip0)">
<path d="M0.5 8C0.5 3.85787 3.85786 0.5 8 0.5H508C512.142 0.5 515.5 3.85787 515.5 8V291C515.5 295.142 512.142 298.5 508 298.5H8C3.85787 298.5 0.5 295.142 0.5 291V8Z" fill="white" stroke="#E9EAEA"/>
<path d="M51.1192 34.5L51.1361 247.75" stroke="#E9E9E9" stroke-linecap="square"/>
<path d="M34.8949 235.75V247.75" stroke="#E9E9E9" stroke-linecap="square"/>
<path d="M115.895 235.75V247.75" stroke="#E9E9E9" stroke-linecap="square"/>
<path d="M195.895 235.75V247.75" stroke="#E9E9E9" stroke-linecap="square"/>
<path d="M275.895 235.75V247.75" stroke="#E9E9E9" stroke-linecap="square"/>
<path d="M356.895 235.75V247.75" stroke="#E9E9E9" stroke-linecap="square"/>
<path d="M436.895 235.75V247.75" stroke="#E9E9E9" stroke-linecap="square"/>
<path d="M38.7581 238.67C39.5381 238.67 40.1615 238.985 40.6281 239.615C41.0948 240.242 41.3281 241.17 41.3281 242.4C41.3281 243.627 41.0965 244.552 40.6331 245.175C40.1698 245.798 39.5415 246.11 38.7481 246.11C37.9581 246.11 37.3315 245.8 36.8681 245.18C36.4048 244.557 36.1731 243.635 36.1731 242.415C36.1731 241.178 36.4065 240.245 36.8731 239.615C37.3431 238.985 37.9715 238.67 38.7581 238.67ZM38.7581 245.31C39.2748 245.31 39.6648 245.083 39.9281 244.63C40.1948 244.177 40.3281 243.435 40.3281 242.405C40.3281 241.358 40.1931 240.605 39.9231 240.145C39.6531 239.682 39.2631 239.45 38.7531 239.45C38.2431 239.45 37.8498 239.683 37.5731 240.15C37.2998 240.613 37.1631 241.365 37.1631 242.405C37.1631 243.428 37.2998 244.168 37.5731 244.625C37.8465 245.082 38.2415 245.31 38.7581 245.31Z" fill="#8A9FAE"/>
<path d="M23.6405 197.77H27.9555L27.9305 198.57H24.4305L24.2455 200.905C24.4855 200.682 24.7472 200.523 25.0305 200.43C25.3172 200.333 25.6272 200.285 25.9605 200.285C26.3939 200.285 26.7955 200.375 27.1655 200.555C27.5355 200.732 27.8322 200.995 28.0555 201.345C28.2789 201.692 28.3905 202.122 28.3905 202.635C28.3905 203.135 28.2822 203.572 28.0655 203.945C27.8489 204.315 27.5439 204.602 27.1505 204.805C26.7572 205.008 26.2955 205.11 25.7655 205.11C25.3189 205.11 24.9055 205.032 24.5255 204.875C24.1455 204.718 23.8189 204.5 23.5455 204.22C23.2755 203.94 23.0772 203.618 22.9505 203.255L23.7505 202.92C23.9272 203.33 24.1772 203.668 24.5005 203.935C24.8239 204.198 25.2239 204.33 25.7005 204.33C26.2139 204.33 26.6255 204.182 26.9355 203.885C27.2489 203.585 27.4055 203.178 27.4055 202.665C27.4055 202.345 27.3322 202.065 27.1855 201.825C27.0389 201.585 26.8405 201.4 26.5905 201.27C26.3439 201.137 26.0705 201.07 25.7705 201.07C25.4772 201.07 25.2089 201.113 24.9655 201.2C24.7222 201.283 24.4639 201.477 24.1905 201.78C24.1605 201.793 24.1289 201.792 24.0955 201.775L23.3155 201.53L23.6405 197.77ZM31.9418 197.67C32.7218 197.67 33.3451 197.985 33.8118 198.615C34.2785 199.242 34.5118 200.17 34.5118 201.4C34.5118 202.627 34.2801 203.552 33.8168 204.175C33.3535 204.798 32.7251 205.11 31.9318 205.11C31.1418 205.11 30.5151 204.8 30.0518 204.18C29.5885 203.557 29.3568 202.635 29.3568 201.415C29.3568 200.178 29.5901 199.245 30.0568 198.615C30.5268 197.985 31.1551 197.67 31.9418 197.67ZM31.9418 204.31C32.4585 204.31 32.8485 204.083 33.1118 203.63C33.3785 203.177 33.5118 202.435 33.5118 201.405C33.5118 200.358 33.3768 199.605 33.1068 199.145C32.8368 198.682 32.4468 198.45 31.9368 198.45C31.4268 198.45 31.0335 198.683 30.7568 199.15C30.4835 199.613 30.3468 200.365 30.3468 201.405C30.3468 202.428 30.4835 203.168 30.7568 203.625C31.0301 204.082 31.4251 204.31 31.9418 204.31ZM41.4698 205H40.4248L38.1698 201.285L36.9148 202.72V205H35.9548V197.77H36.9148V201.51L40.1548 197.77H41.2598L38.8448 200.61L41.4698 205Z" fill="#8A9FAE"/>
<path d="M20.6098 164V158.245H19.2148V157.64C19.6448 157.64 19.9798 157.608 20.2198 157.545C20.4631 157.482 20.6348 157.385 20.7348 157.255C20.8381 157.125 20.8948 156.963 20.9048 156.77H21.5648V164H20.6098ZM25.887 156.67C26.667 156.67 27.2904 156.985 27.757 157.615C28.2237 158.242 28.457 159.17 28.457 160.4C28.457 161.627 28.2254 162.552 27.762 163.175C27.2987 163.798 26.6704 164.11 25.877 164.11C25.087 164.11 24.4604 163.8 23.997 163.18C23.5337 162.557 23.302 161.635 23.302 160.415C23.302 159.178 23.5354 158.245 24.002 157.615C24.472 156.985 25.1004 156.67 25.887 156.67ZM25.887 163.31C26.4037 163.31 26.7937 163.083 27.057 162.63C27.3237 162.177 27.457 161.435 27.457 160.405C27.457 159.358 27.322 158.605 27.052 158.145C26.782 157.682 26.392 157.45 25.882 157.45C25.372 157.45 24.9787 157.683 24.702 158.15C24.4287 158.613 24.292 159.365 24.292 160.405C24.292 161.428 24.4287 162.168 24.702 162.625C24.9754 163.082 25.3704 163.31 25.887 163.31ZM31.9417 156.67C32.7217 156.67 33.345 156.985 33.8117 157.615C34.2784 158.242 34.5117 159.17 34.5117 160.4C34.5117 161.627 34.28 162.552 33.8167 163.175C33.3534 163.798 32.725 164.11 31.9317 164.11C31.1417 164.11 30.515 163.8 30.0517 163.18C29.5884 162.557 29.3567 161.635 29.3567 160.415C29.3567 159.178 29.59 158.245 30.0567 157.615C30.5267 156.985 31.155 156.67 31.9417 156.67ZM31.9417 163.31C32.4584 163.31 32.8484 163.083 33.1117 162.63C33.3784 162.177 33.5117 161.435 33.5117 160.405C33.5117 159.358 33.3767 158.605 33.1067 158.145C32.8367 157.682 32.4467 157.45 31.9367 157.45C31.4267 157.45 31.0334 157.683 30.7567 158.15C30.4834 158.613 30.3467 159.365 30.3467 160.405C30.3467 161.428 30.4834 162.168 30.7567 162.625C31.03 163.082 31.425 163.31 31.9417 163.31ZM41.4698 164H40.4248L38.1698 160.285L36.9148 161.72V164H35.9548V156.77H36.9148V160.51L40.1548 156.77H41.2598L38.8448 159.61L41.4698 164Z" fill="#8A9FAE"/>
<path d="M19.6735 121V115.245H18.2785V114.64C18.7085 114.64 19.0435 114.608 19.2835 114.545C19.5268 114.482 19.6985 114.385 19.7985 114.255C19.9018 114.125 19.9585 113.963 19.9685 113.77H20.6285V121H19.6735ZM23.0557 113.77H27.3707L27.3457 114.57H23.8457L23.6607 116.905C23.9007 116.682 24.1624 116.523 24.4457 116.43C24.7324 116.333 25.0424 116.285 25.3757 116.285C25.8091 116.285 26.2107 116.375 26.5807 116.555C26.9507 116.732 27.2474 116.995 27.4707 117.345C27.6941 117.692 27.8057 118.122 27.8057 118.635C27.8057 119.135 27.6974 119.572 27.4807 119.945C27.2641 120.315 26.9591 120.602 26.5657 120.805C26.1724 121.008 25.7107 121.11 25.1807 121.11C24.7341 121.11 24.3207 121.032 23.9407 120.875C23.5607 120.718 23.2341 120.5 22.9607 120.22C22.6907 119.94 22.4924 119.618 22.3657 119.255L23.1657 118.92C23.3424 119.33 23.5924 119.668 23.9157 119.935C24.2391 120.198 24.6391 120.33 25.1157 120.33C25.6291 120.33 26.0407 120.182 26.3507 119.885C26.6641 119.585 26.8207 119.178 26.8207 118.665C26.8207 118.345 26.7474 118.065 26.6007 117.825C26.4541 117.585 26.2557 117.4 26.0057 117.27C25.7591 117.137 25.4857 117.07 25.1857 117.07C24.8924 117.07 24.6241 117.113 24.3807 117.2C24.1374 117.283 23.8791 117.477 23.6057 117.78C23.5757 117.793 23.5441 117.792 23.5107 117.775L22.7307 117.53L23.0557 113.77ZM31.357 113.67C32.137 113.67 32.7603 113.985 33.227 114.615C33.6937 115.242 33.927 116.17 33.927 117.4C33.927 118.627 33.6953 119.552 33.232 120.175C32.7687 120.798 32.1403 121.11 31.347 121.11C30.557 121.11 29.9303 120.8 29.467 120.18C29.0037 119.557 28.772 118.635 28.772 117.415C28.772 116.178 29.0053 115.245 29.472 114.615C29.942 113.985 30.5703 113.67 31.357 113.67ZM31.357 120.31C31.8737 120.31 32.2637 120.083 32.527 119.63C32.7937 119.177 32.927 118.435 32.927 117.405C32.927 116.358 32.792 115.605 32.522 115.145C32.252 114.682 31.862 114.45 31.352 114.45C30.842 114.45 30.4487 114.683 30.172 115.15C29.8987 115.613 29.762 116.365 29.762 117.405C29.762 118.428 29.8987 119.168 30.172 119.625C30.4453 120.082 30.8403 120.31 31.357 120.31ZM40.885 121H39.84L37.585 117.285L36.33 118.72V121H35.37V113.77H36.33V117.51L39.57 113.77H40.675L38.26 116.61L40.885 121Z" fill="#8A9FAE"/>
<path d="M16.9003 82V81.14C16.9003 80.77 16.9686 80.45 17.1053 80.18C17.2453 79.91 17.4286 79.675 17.6553 79.475C17.8853 79.2717 18.1353 79.09 18.4053 78.93C18.6786 78.77 18.9503 78.6167 19.2203 78.47C19.4936 78.32 19.7436 78.165 19.9703 78.005C20.2003 77.8417 20.3836 77.6583 20.5203 77.455C20.6569 77.2483 20.7253 77.005 20.7253 76.725C20.7253 76.3583 20.5953 76.06 20.3353 75.83C20.0786 75.6 19.7303 75.485 19.2903 75.485C18.8169 75.485 18.4369 75.6183 18.1503 75.885C17.8636 76.1517 17.7019 76.5067 17.6653 76.95H16.7453C16.7519 76.5333 16.8536 76.1533 17.0503 75.81C17.2469 75.4633 17.5353 75.1867 17.9153 74.98C18.2953 74.7733 18.7653 74.67 19.3253 74.67C19.8086 74.67 20.2286 74.7567 20.5853 74.93C20.9419 75.1 21.2169 75.34 21.4103 75.65C21.6069 75.9567 21.7053 76.315 21.7053 76.725C21.7053 77.0983 21.6369 77.4183 21.5003 77.685C21.3636 77.9517 21.1819 78.1833 20.9553 78.38C20.7319 78.5767 20.4853 78.7517 20.2153 78.905C19.9486 79.055 19.6803 79.2 19.4103 79.34C19.1436 79.48 18.8986 79.6283 18.6753 79.785C18.4519 79.9417 18.2719 80.12 18.1353 80.32C17.9986 80.52 17.9303 80.7583 17.9303 81.035V81.18H21.7453V82H16.9003ZM25.3023 74.67C26.0823 74.67 26.7056 74.985 27.1723 75.615C27.639 76.2417 27.8723 77.17 27.8723 78.4C27.8723 79.6267 27.6406 80.5517 27.1773 81.175C26.714 81.7983 26.0856 82.11 25.2923 82.11C24.5023 82.11 23.8756 81.8 23.4123 81.18C22.949 80.5567 22.7173 79.635 22.7173 78.415C22.7173 77.1783 22.9506 76.245 23.4173 75.615C23.8873 74.985 24.5156 74.67 25.3023 74.67ZM25.3023 81.31C25.819 81.31 26.209 81.0833 26.4723 80.63C26.739 80.1767 26.8723 79.435 26.8723 78.405C26.8723 77.3583 26.7373 76.605 26.4673 76.145C26.1973 75.6817 25.8073 75.45 25.2973 75.45C24.7873 75.45 24.394 75.6833 24.1173 76.15C23.844 76.6133 23.7073 77.365 23.7073 78.405C23.7073 79.4283 23.844 80.1683 24.1173 80.625C24.3906 81.0817 24.7856 81.31 25.3023 81.31ZM31.357 74.67C32.137 74.67 32.7603 74.985 33.227 75.615C33.6937 76.2417 33.927 77.17 33.927 78.4C33.927 79.6267 33.6953 80.5517 33.232 81.175C32.7687 81.7983 32.1403 82.11 31.347 82.11C30.557 82.11 29.9303 81.8 29.467 81.18C29.0037 80.5567 28.772 79.635 28.772 78.415C28.772 77.1783 29.0053 76.245 29.472 75.615C29.942 74.985 30.5703 74.67 31.357 74.67ZM31.357 81.31C31.8737 81.31 32.2637 81.0833 32.527 80.63C32.7937 80.1767 32.927 79.435 32.927 78.405C32.927 77.3583 32.792 76.605 32.522 76.145C32.252 75.6817 31.862 75.45 31.352 75.45C30.842 75.45 30.4487 75.6833 30.172 76.15C29.8987 76.6133 29.762 77.365 29.762 78.405C29.762 79.4283 29.8987 80.1683 30.172 80.625C30.4453 81.0817 30.8403 81.31 31.357 81.31ZM40.885 82H39.84L37.585 78.285L36.33 79.72V82H35.37V74.77H36.33V78.51L39.57 74.77H40.675L38.26 77.61L40.885 82Z" fill="#8A9FAE"/>
<path d="M16.6774 39V38.14C16.6774 37.77 16.7457 37.45 16.8824 37.18C17.0224 36.91 17.2057 36.675 17.4324 36.475C17.6624 36.2717 17.9124 36.09 18.1824 35.93C18.4557 35.77 18.7274 35.6167 18.9974 35.47C19.2707 35.32 19.5207 35.165 19.7474 35.005C19.9774 34.8417 20.1607 34.6583 20.2974 34.455C20.434 34.2483 20.5024 34.005 20.5024 33.725C20.5024 33.3583 20.3724 33.06 20.1124 32.83C19.8557 32.6 19.5074 32.485 19.0674 32.485C18.594 32.485 18.214 32.6183 17.9274 32.885C17.6407 33.1517 17.479 33.5067 17.4424 33.95H16.5224C16.529 33.5333 16.6307 33.1533 16.8274 32.81C17.024 32.4633 17.3124 32.1867 17.6924 31.98C18.0724 31.7733 18.5424 31.67 19.1024 31.67C19.5857 31.67 20.0057 31.7567 20.3624 31.93C20.719 32.1 20.994 32.34 21.1874 32.65C21.384 32.9567 21.4824 33.315 21.4824 33.725C21.4824 34.0983 21.414 34.4183 21.2774 34.685C21.1407 34.9517 20.959 35.1833 20.7324 35.38C20.509 35.5767 20.2624 35.7517 19.9924 35.905C19.7257 36.055 19.4574 36.2 19.1874 36.34C18.9207 36.48 18.6757 36.6283 18.4524 36.785C18.229 36.9417 18.049 37.12 17.9124 37.32C17.7757 37.52 17.7074 37.7583 17.7074 38.035V38.18H21.5224V39H16.6774ZM23.1844 31.77H27.4994L27.4744 32.57H23.9744L23.7894 34.905C24.0294 34.6817 24.2911 34.5233 24.5744 34.43C24.8611 34.3333 25.1711 34.285 25.5044 34.285C25.9377 34.285 26.3394 34.375 26.7094 34.555C27.0794 34.7317 27.3761 34.995 27.5994 35.345C27.8227 35.6917 27.9344 36.1217 27.9344 36.635C27.9344 37.135 27.8261 37.5717 27.6094 37.945C27.3927 38.315 27.0877 38.6017 26.6944 38.805C26.3011 39.0083 25.8394 39.11 25.3094 39.11C24.8627 39.11 24.4494 39.0317 24.0694 38.875C23.6894 38.7183 23.3627 38.5 23.0894 38.22C22.8194 37.94 22.6211 37.6183 22.4944 37.255L23.2944 36.92C23.4711 37.33 23.7211 37.6683 24.0444 37.935C24.3677 38.1983 24.7677 38.33 25.2444 38.33C25.7577 38.33 26.1694 38.1817 26.4794 37.885C26.7927 37.585 26.9494 37.1783 26.9494 36.665C26.9494 36.345 26.8761 36.065 26.7294 35.825C26.5827 35.585 26.3844 35.4 26.1344 35.27C25.8877 35.1367 25.6144 35.07 25.3144 35.07C25.0211 35.07 24.7527 35.1133 24.5094 35.2C24.2661 35.2833 24.0077 35.4767 23.7344 35.78C23.7044 35.7933 23.6727 35.7917 23.6394 35.775L22.8594 35.53L23.1844 31.77ZM31.4857 31.67C32.2657 31.67 32.889 31.985 33.3557 32.615C33.8223 33.2417 34.0557 34.17 34.0557 35.4C34.0557 36.6267 33.824 37.5517 33.3607 38.175C32.8973 38.7983 32.269 39.11 31.4757 39.11C30.6857 39.11 30.059 38.8 29.5957 38.18C29.1323 37.5567 28.9007 36.635 28.9007 35.415C28.9007 34.1783 29.134 33.245 29.6007 32.615C30.0707 31.985 30.699 31.67 31.4857 31.67ZM31.4857 38.31C32.0023 38.31 32.3923 38.0833 32.6557 37.63C32.9223 37.1767 33.0557 36.435 33.0557 35.405C33.0557 34.3583 32.9207 33.605 32.6507 33.145C32.3807 32.6817 31.9907 32.45 31.4807 32.45C30.9707 32.45 30.5773 32.6833 30.3007 33.15C30.0273 33.6133 29.8907 34.365 29.8907 35.405C29.8907 36.4283 30.0273 37.1683 30.3007 37.625C30.574 38.0817 30.969 38.31 31.4857 38.31ZM41.0137 39H39.9687L37.7137 35.285L36.4587 36.72V39H35.4987V31.77H36.4587V35.51L39.6987 31.77H40.8037L38.3887 34.61L41.0137 39Z" fill="#8A9FAE"/>
<path fill-rule="evenodd" clip-rule="evenodd" d="M1021.85 200.6H50.3303V199.6L1021.85 199.6V200.6Z" fill="#E9E9E9"/>
<path fill-rule="evenodd" clip-rule="evenodd" d="M1021.85 242.6H50.3303V241.6L1021.85 241.6V242.6Z" fill="#E9E9E9"/>
<path fill-rule="evenodd" clip-rule="evenodd" d="M1021.85 159.2H50.3303V158.2L1021.85 158.2V159.2Z" fill="#E9E9E9"/>
<path fill-rule="evenodd" clip-rule="evenodd" d="M1021.85 117.8H50.3303V116.8L1021.85 116.8V117.8Z" fill="#E9E9E9"/>
<path fill-rule="evenodd" clip-rule="evenodd" d="M1021.85 76.3999H50.3303V75.3999L1021.85 75.3999V76.3999Z" fill="#E9E9E9"/>
<path fill-rule="evenodd" clip-rule="evenodd" d="M1021.85 35H50.3303V34L1021.85 34V35Z" fill="#E9E9E9"/>
<path d="M88.7589 265.1C88.2556 265.1 87.8456 264.968 87.5289 264.705C87.2122 264.442 87.0539 264.073 87.0539 263.6C87.0539 263.027 87.2539 262.6 87.6539 262.32C88.0539 262.04 88.6956 261.89 89.5789 261.87L90.5039 261.845V261.44C90.5039 261.123 90.4072 260.873 90.2139 260.69C90.0239 260.503 89.7306 260.41 89.3339 260.41C89.0372 260.413 88.7756 260.485 88.5489 260.625C88.3222 260.762 88.1772 260.983 88.1139 261.29H87.2989C87.3256 260.787 87.5222 260.402 87.8889 260.135C88.2556 259.865 88.7522 259.73 89.3789 259.73C90.0522 259.73 90.5556 259.872 90.8889 260.155C91.2256 260.438 91.3939 260.85 91.3939 261.39V265H90.6039L90.5389 264.03C90.3356 264.433 90.0806 264.713 89.7739 264.87C89.4672 265.023 89.1289 265.1 88.7589 265.1ZM89.0389 264.435C89.2689 264.435 89.4956 264.38 89.7189 264.27C89.9456 264.16 90.1322 264.02 90.2789 263.85C90.4256 263.677 90.5006 263.493 90.5039 263.3V262.415L89.7339 262.43C89.1406 262.44 88.6956 262.528 88.3989 262.695C88.1022 262.858 87.9539 263.13 87.9539 263.51C87.9539 263.803 88.0539 264.032 88.2539 264.195C88.4572 264.355 88.7189 264.435 89.0389 264.435ZM92.9734 266.61V259.83H93.8934L93.9034 260.73C93.9834 260.59 94.0951 260.443 94.2384 260.29C94.3851 260.133 94.5701 260.002 94.7934 259.895C95.0168 259.785 95.2868 259.73 95.6034 259.73C96.2201 259.73 96.7234 259.943 97.1134 260.37C97.5034 260.797 97.6984 261.455 97.6984 262.345C97.6984 263.232 97.5068 263.913 97.1234 264.39C96.7401 264.863 96.2084 265.1 95.5284 265.1C95.2218 265.1 94.9601 265.045 94.7434 264.935C94.5301 264.822 94.3551 264.685 94.2184 264.525C94.0818 264.365 93.9768 264.212 93.9034 264.065V266.61H92.9734ZM95.3534 264.38C95.7801 264.38 96.1284 264.218 96.3984 263.895C96.6684 263.568 96.8034 263.062 96.8034 262.375C96.8034 261.788 96.6801 261.322 96.4334 260.975C96.1868 260.625 95.8268 260.45 95.3534 260.45C94.8734 260.45 94.5101 260.628 94.2634 260.985C94.0168 261.342 93.8934 261.805 93.8934 262.375C93.8934 262.745 93.9484 263.082 94.0584 263.385C94.1684 263.688 94.3318 263.93 94.5484 264.11C94.7651 264.29 95.0334 264.38 95.3534 264.38ZM98.9109 265V259.83H99.7909V260.825C99.9209 260.455 100.126 260.18 100.406 260C100.689 259.82 100.994 259.73 101.321 259.73C101.398 259.73 101.471 259.735 101.541 259.745C101.614 259.755 101.673 259.772 101.716 259.795V260.69C101.666 260.667 101.601 260.652 101.521 260.645C101.444 260.635 101.379 260.63 101.326 260.63C100.916 260.603 100.564 260.682 100.271 260.865C99.9776 261.048 99.8309 261.355 99.8309 261.785V265H98.9109Z" fill="#8A9FAE"/>
<path d="M123.737 265V259.83H124.627V260.58C124.77 260.35 124.965 260.152 125.212 259.985C125.462 259.815 125.789 259.73 126.192 259.73C126.475 259.73 126.76 259.802 127.047 259.945C127.334 260.088 127.545 260.298 127.682 260.575C127.842 260.322 128.059 260.118 128.332 259.965C128.605 259.808 128.914 259.73 129.257 259.73C129.437 259.73 129.625 259.758 129.822 259.815C130.019 259.868 130.202 259.965 130.372 260.105C130.542 260.242 130.679 260.433 130.782 260.68C130.889 260.923 130.942 261.237 130.942 261.62V265H130.012V261.71C130.012 261.397 129.962 261.153 129.862 260.98C129.762 260.807 129.63 260.687 129.467 260.62C129.307 260.55 129.135 260.515 128.952 260.515C128.792 260.515 128.622 260.547 128.442 260.61C128.262 260.673 128.109 260.78 127.982 260.93C127.855 261.08 127.792 261.285 127.792 261.545V265H126.872V261.44C126.872 261.237 126.817 261.067 126.707 260.93C126.6 260.79 126.465 260.687 126.302 260.62C126.142 260.55 125.982 260.515 125.822 260.515C125.645 260.515 125.467 260.552 125.287 260.625C125.11 260.695 124.96 260.805 124.837 260.955C124.717 261.105 124.657 261.302 124.657 261.545V265H123.737ZM133.8 265.1C133.296 265.1 132.886 264.968 132.57 264.705C132.253 264.442 132.095 264.073 132.095 263.6C132.095 263.027 132.295 262.6 132.695 262.32C133.095 262.04 133.736 261.89 134.62 261.87L135.545 261.845V261.44C135.545 261.123 135.448 260.873 135.255 260.69C135.065 260.503 134.771 260.41 134.375 260.41C134.078 260.413 133.816 260.485 133.59 260.625C133.363 260.762 133.218 260.983 133.155 261.29H132.34C132.366 260.787 132.563 260.402 132.93 260.135C133.296 259.865 133.793 259.73 134.42 259.73C135.093 259.73 135.596 259.872 135.93 260.155C136.266 260.438 136.435 260.85 136.435 261.39V265H135.645L135.58 264.03C135.376 264.433 135.121 264.713 134.815 264.87C134.508 265.023 134.17 265.1 133.8 265.1ZM134.08 264.435C134.31 264.435 134.536 264.38 134.76 264.27C134.986 264.16 135.173 264.02 135.32 263.85C135.466 263.677 135.541 263.493 135.545 263.3V262.415L134.775 262.43C134.181 262.44 133.736 262.528 133.44 262.695C133.143 262.858 132.995 263.13 132.995 263.51C132.995 263.803 133.095 264.032 133.295 264.195C133.498 264.355 133.76 264.435 134.08 264.435ZM138.358 266.65C138.055 266.65 137.847 266.628 137.733 266.585C137.62 266.542 137.563 266.52 137.563 266.52V265.92L138.088 265.93C138.345 265.94 138.543 265.915 138.683 265.855C138.827 265.795 138.932 265.72 138.998 265.63C139.065 265.54 139.117 265.452 139.153 265.365L139.333 264.875L137.313 259.83H138.248L139.773 263.82L141.288 259.83H142.193L140.013 265.39C139.813 265.883 139.577 266.217 139.303 266.39C139.03 266.563 138.715 266.65 138.358 266.65Z" fill="#8A9FAE"/>
<path d="M165.859 257.775V258.735H164.879V257.775H165.859ZM165.834 265.23C165.834 265.713 165.729 266.072 165.519 266.305C165.312 266.542 164.945 266.66 164.419 266.66C164.135 266.66 163.957 266.64 163.884 266.6C163.807 266.56 163.769 266.54 163.769 266.54V265.925L164.279 265.9C164.512 265.883 164.675 265.822 164.769 265.715C164.862 265.612 164.909 265.44 164.909 265.2V259.83H165.834V265.23ZM169.291 265.1C168.931 265.097 168.601 265.03 168.301 264.9C168.001 264.767 167.759 264.57 167.576 264.31C167.396 264.05 167.306 263.727 167.306 263.34V259.83H168.231V263.245C168.231 263.582 168.334 263.855 168.541 264.065C168.751 264.275 169.066 264.38 169.486 264.38C169.866 264.38 170.171 264.282 170.401 264.085C170.634 263.885 170.751 263.588 170.751 263.195V259.83H171.671V265H170.936L170.841 264.01C170.747 264.4 170.557 264.68 170.271 264.85C169.984 265.02 169.657 265.103 169.291 265.1ZM173.182 265V259.83H174.077V260.58C174.203 260.363 174.402 260.172 174.672 260.005C174.942 259.838 175.283 259.755 175.697 259.755C176.023 259.755 176.323 259.82 176.597 259.95C176.873 260.08 177.093 260.283 177.257 260.56C177.423 260.833 177.507 261.187 177.507 261.62V265H176.582V261.71C176.582 261.307 176.475 261.008 176.262 260.815C176.052 260.618 175.778 260.52 175.442 260.52C175.208 260.52 174.99 260.558 174.787 260.635C174.583 260.708 174.418 260.822 174.292 260.975C174.165 261.125 174.102 261.315 174.102 261.545V265H173.182Z" fill="#8A9FAE"/>
<path d="M205.655 257.775V258.735H204.675V257.775H205.655ZM205.63 265.23C205.63 265.713 205.525 266.072 205.315 266.305C205.108 266.542 204.742 266.66 204.215 266.66C203.932 266.66 203.753 266.64 203.68 266.6C203.603 266.56 203.565 266.54 203.565 266.54V265.925L204.075 265.9C204.308 265.883 204.472 265.822 204.565 265.715C204.658 265.612 204.705 265.44 204.705 265.2V259.83H205.63V265.23ZM209.087 265.1C208.727 265.097 208.397 265.03 208.097 264.9C207.797 264.767 207.555 264.57 207.372 264.31C207.192 264.05 207.102 263.727 207.102 263.34V259.83H208.027V263.245C208.027 263.582 208.13 263.855 208.337 264.065C208.547 264.275 208.862 264.38 209.282 264.38C209.662 264.38 209.967 264.282 210.197 264.085C210.43 263.885 210.547 263.588 210.547 263.195V259.83H211.467V265H210.732L210.637 264.01C210.544 264.4 210.354 264.68 210.067 264.85C209.78 265.02 209.454 265.103 209.087 265.1ZM214.283 265.065C213.91 265.065 213.63 265 213.443 264.87C213.256 264.737 213.131 264.565 213.068 264.355C213.008 264.142 212.978 263.913 212.978 263.67V257.57H213.888V263.58C213.888 263.843 213.938 264.04 214.038 264.17C214.141 264.297 214.285 264.367 214.468 264.38L214.748 264.385V264.985C214.581 265.038 214.426 265.065 214.283 265.065Z" fill="#8A9FAE"/>
<path d="M241.353 265.1C240.85 265.1 240.44 264.968 240.123 264.705C239.806 264.442 239.648 264.073 239.648 263.6C239.648 263.027 239.848 262.6 240.248 262.32C240.648 262.04 241.29 261.89 242.173 261.87L243.098 261.845V261.44C243.098 261.123 243.001 260.873 242.808 260.69C242.618 260.503 242.325 260.41 241.928 260.41C241.631 260.413 241.37 260.485 241.143 260.625C240.916 260.762 240.771 260.983 240.708 261.29H239.893C239.92 260.787 240.116 260.402 240.483 260.135C240.85 259.865 241.346 259.73 241.973 259.73C242.646 259.73 243.15 259.872 243.483 260.155C243.82 260.438 243.988 260.85 243.988 261.39V265H243.198L243.133 264.03C242.93 264.433 242.675 264.713 242.368 264.87C242.061 265.023 241.723 265.1 241.353 265.1ZM241.633 264.435C241.863 264.435 242.09 264.38 242.313 264.27C242.54 264.16 242.726 264.02 242.873 263.85C243.02 263.677 243.095 263.493 243.098 263.3V262.415L242.328 262.43C241.735 262.44 241.29 262.528 240.993 262.695C240.696 262.858 240.548 263.13 240.548 263.51C240.548 263.803 240.648 264.032 240.848 264.195C241.051 264.355 241.313 264.435 241.633 264.435ZM247.38 265.1C247.02 265.097 246.69 265.03 246.39 264.9C246.09 264.767 245.848 264.57 245.665 264.31C245.485 264.05 245.395 263.727 245.395 263.34V259.83H246.32V263.245C246.32 263.582 246.423 263.855 246.63 264.065C246.84 264.275 247.155 264.38 247.575 264.38C247.955 264.38 248.26 264.282 248.49 264.085C248.723 263.885 248.84 263.588 248.84 263.195V259.83H249.76V265H249.025L248.93 264.01C248.836 264.4 248.646 264.68 248.36 264.85C248.073 265.02 247.746 265.103 247.38 265.1ZM253.363 266.71C252.553 266.71 251.921 266.592 251.468 266.355C251.015 266.122 250.788 265.787 250.788 265.35C250.788 265.163 250.831 265.005 250.918 264.875C251.005 264.742 251.108 264.632 251.228 264.545C251.348 264.458 251.46 264.39 251.563 264.34C251.666 264.287 251.733 264.248 251.763 264.225C251.706 264.192 251.635 264.15 251.548 264.1C251.465 264.05 251.391 263.983 251.328 263.9C251.265 263.817 251.233 263.708 251.233 263.575C251.233 263.412 251.308 263.263 251.458 263.13C251.611 262.993 251.84 262.89 252.143 262.82C251.84 262.67 251.603 262.468 251.433 262.215C251.263 261.958 251.178 261.682 251.178 261.385C251.178 260.882 251.378 260.483 251.778 260.19C252.178 259.897 252.728 259.75 253.428 259.75C253.765 259.75 254.048 259.79 254.278 259.87C254.508 259.947 254.721 260.057 254.918 260.2C254.991 260.17 255.115 260.118 255.288 260.045C255.461 259.972 255.638 259.898 255.818 259.825C256.001 259.748 256.141 259.692 256.238 259.655L256.233 260.51L255.328 260.68C255.441 260.913 255.498 261.148 255.498 261.385C255.498 261.842 255.318 262.228 254.958 262.545C254.601 262.862 254.063 263.02 253.343 263.02C253.303 263.02 253.251 263.02 253.188 263.02C253.128 263.017 253.076 263.013 253.033 263.01C252.676 263.02 252.431 263.06 252.298 263.13C252.168 263.2 252.103 263.275 252.103 263.355C252.103 263.452 252.178 263.518 252.328 263.555C252.478 263.592 252.733 263.623 253.093 263.65C253.223 263.657 253.383 263.667 253.573 263.68C253.763 263.69 253.976 263.702 254.213 263.715C254.756 263.748 255.175 263.887 255.468 264.13C255.761 264.373 255.908 264.702 255.908 265.115C255.908 265.585 255.698 265.968 255.278 266.265C254.858 266.562 254.22 266.71 253.363 266.71ZM253.368 262.425C253.741 262.425 254.041 262.338 254.268 262.165C254.498 261.992 254.613 261.735 254.613 261.395C254.613 261.048 254.498 260.783 254.268 260.6C254.041 260.413 253.741 260.32 253.368 260.32C252.991 260.32 252.686 260.413 252.453 260.6C252.223 260.783 252.108 261.048 252.108 261.395C252.108 261.722 252.218 261.975 252.438 262.155C252.658 262.335 252.968 262.425 253.368 262.425ZM253.528 266.115C254.005 266.115 254.37 266.043 254.623 265.9C254.876 265.757 255.003 265.54 255.003 265.25C255.003 265.047 254.925 264.878 254.768 264.745C254.615 264.612 254.38 264.535 254.063 264.515L252.613 264.42C252.483 264.413 252.348 264.447 252.208 264.52C252.068 264.59 251.948 264.688 251.848 264.815C251.751 264.942 251.703 265.085 251.703 265.245C251.703 265.522 251.851 265.735 252.148 265.885C252.445 266.038 252.905 266.115 253.528 266.115Z" fill="#8A9FAE"/>
<path d="M281.716 265.1C280.999 265.1 280.424 264.872 279.991 264.415C279.558 263.958 279.341 263.298 279.341 262.435C279.341 261.895 279.433 261.422 279.616 261.015C279.799 260.608 280.068 260.293 280.421 260.07C280.774 259.843 281.206 259.73 281.716 259.73C282.429 259.73 282.999 259.963 283.426 260.43C283.853 260.897 284.066 261.565 284.066 262.435C284.066 262.962 283.976 263.425 283.796 263.825C283.619 264.225 283.356 264.538 283.006 264.765C282.659 264.988 282.229 265.1 281.716 265.1ZM281.716 264.37C282.179 264.37 282.534 264.197 282.781 263.85C283.028 263.5 283.151 263.022 283.151 262.415C283.151 262.045 283.101 261.713 283.001 261.42C282.904 261.123 282.751 260.888 282.541 260.715C282.331 260.542 282.056 260.455 281.716 260.455C281.246 260.455 280.886 260.628 280.636 260.975C280.386 261.318 280.261 261.798 280.261 262.415C280.261 262.778 280.311 263.108 280.411 263.405C280.511 263.702 280.668 263.937 280.881 264.11C281.094 264.283 281.373 264.37 281.716 264.37ZM287.336 259.73C287.893 259.73 288.361 259.888 288.741 260.205C289.121 260.518 289.346 260.938 289.416 261.465H288.596C288.55 261.195 288.418 260.963 288.201 260.77C287.985 260.573 287.698 260.475 287.341 260.475C286.901 260.475 286.541 260.635 286.261 260.955C285.985 261.275 285.846 261.765 285.846 262.425C285.846 263.022 285.973 263.5 286.226 263.86C286.483 264.217 286.86 264.395 287.356 264.395C287.71 264.395 287.995 264.295 288.211 264.095C288.428 263.895 288.558 263.665 288.601 263.405H289.406C289.34 263.925 289.115 264.338 288.731 264.645C288.351 264.948 287.886 265.1 287.336 265.1C286.87 265.1 286.458 264.998 286.101 264.795C285.745 264.592 285.465 264.292 285.261 263.895C285.058 263.498 284.956 263.012 284.956 262.435C284.956 261.898 285.048 261.427 285.231 261.02C285.418 260.613 285.688 260.297 286.041 260.07C286.398 259.843 286.83 259.73 287.336 259.73ZM293.127 260.505H291.962V263.72C291.962 263.997 292.006 264.167 292.092 264.23C292.182 264.29 292.349 264.32 292.592 264.32H293.157V264.94C293.091 264.963 292.994 264.983 292.867 265C292.741 265.017 292.582 265.025 292.392 265.025C291.856 265.025 291.494 264.917 291.307 264.7C291.124 264.483 291.032 264.167 291.032 263.75V260.505H290.192V259.83H291.057L291.282 258.325H291.962V259.825H293.127V260.505Z" fill="#8A9FAE"/>
<path d="M317.324 265V259.83H318.219V260.58C318.345 260.363 318.544 260.172 318.814 260.005C319.084 259.838 319.425 259.755 319.839 259.755C320.165 259.755 320.465 259.82 320.739 259.95C321.015 260.08 321.235 260.283 321.399 260.56C321.565 260.833 321.649 261.187 321.649 261.62V265H320.724V261.71C320.724 261.307 320.617 261.008 320.404 260.815C320.194 260.618 319.92 260.52 319.584 260.52C319.35 260.52 319.132 260.558 318.929 260.635C318.725 260.708 318.56 260.822 318.434 260.975C318.307 261.125 318.244 261.315 318.244 261.545V265H317.324ZM325.15 265.1C324.433 265.1 323.858 264.872 323.425 264.415C322.992 263.958 322.775 263.298 322.775 262.435C322.775 261.895 322.867 261.422 323.05 261.015C323.233 260.608 323.502 260.293 323.855 260.07C324.208 259.843 324.64 259.73 325.15 259.73C325.863 259.73 326.433 259.963 326.86 260.43C327.287 260.897 327.5 261.565 327.5 262.435C327.5 262.962 327.41 263.425 327.23 263.825C327.053 264.225 326.79 264.538 326.44 264.765C326.093 264.988 325.663 265.1 325.15 265.1ZM325.15 264.37C325.613 264.37 325.968 264.197 326.215 263.85C326.462 263.5 326.585 263.022 326.585 262.415C326.585 262.045 326.535 261.713 326.435 261.42C326.338 261.123 326.185 260.888 325.975 260.715C325.765 260.542 325.49 260.455 325.15 260.455C324.68 260.455 324.32 260.628 324.07 260.975C323.82 261.318 323.695 261.798 323.695 262.415C323.695 262.778 323.745 263.108 323.845 263.405C323.945 263.702 324.102 263.937 324.315 264.11C324.528 264.283 324.807 264.37 325.15 264.37ZM332.604 259.83L330.739 265H329.899L328.029 259.83H328.899L330.274 263.84H330.359L331.739 259.83H332.604Z" fill="#8A9FAE"/>
<path d="M357.237 265.1C356.564 265.1 356.03 264.87 355.637 264.41C355.247 263.95 355.052 263.278 355.052 262.395C355.052 261.588 355.229 260.943 355.582 260.46C355.939 259.973 356.467 259.73 357.167 259.73C357.494 259.73 357.772 259.783 358.002 259.89C358.235 259.997 358.422 260.122 358.562 260.265C358.705 260.408 358.805 260.537 358.862 260.65V257.57H359.792V265H359.087L358.987 263.94C358.944 264.073 358.862 264.232 358.742 264.415C358.622 264.598 358.442 264.758 358.202 264.895C357.962 265.032 357.64 265.1 357.237 265.1ZM357.402 264.39C357.925 264.39 358.299 264.232 358.522 263.915C358.749 263.595 358.862 263.073 358.862 262.35C358.855 261.747 358.742 261.28 358.522 260.95C358.302 260.617 357.935 260.45 357.422 260.45C356.999 260.45 356.652 260.602 356.382 260.905C356.115 261.205 355.982 261.687 355.982 262.35C355.982 262.997 356.102 263.498 356.342 263.855C356.585 264.212 356.939 264.39 357.402 264.39ZM361.979 262.63C361.979 262.957 362.033 263.253 362.139 263.52C362.249 263.783 362.414 263.993 362.634 264.15C362.858 264.307 363.136 264.385 363.469 264.385C363.799 264.385 364.083 264.308 364.319 264.155C364.559 264.002 364.713 263.78 364.779 263.49H365.654C365.591 263.84 365.451 264.135 365.234 264.375C365.018 264.615 364.756 264.797 364.449 264.92C364.143 265.04 363.823 265.1 363.489 265.1C363.006 265.1 362.581 264.995 362.214 264.785C361.848 264.575 361.561 264.273 361.354 263.88C361.148 263.487 361.044 263.015 361.044 262.465C361.044 261.922 361.138 261.445 361.324 261.035C361.511 260.625 361.781 260.305 362.134 260.075C362.491 259.845 362.919 259.73 363.419 259.73C364.149 259.73 364.709 259.962 365.099 260.425C365.489 260.885 365.684 261.507 365.684 262.29V262.63H361.979ZM361.984 262.005H364.794C364.794 261.562 364.681 261.188 364.454 260.885C364.228 260.582 363.881 260.43 363.414 260.43C363.091 260.43 362.823 260.508 362.609 260.665C362.396 260.818 362.238 261.017 362.134 261.26C362.031 261.5 361.981 261.748 361.984 262.005ZM369.014 259.73C369.571 259.73 370.039 259.888 370.419 260.205C370.799 260.518 371.024 260.938 371.094 261.465H370.274C370.227 261.195 370.096 260.963 369.879 260.77C369.662 260.573 369.376 260.475 369.019 260.475C368.579 260.475 368.219 260.635 367.939 260.955C367.662 261.275 367.524 261.765 367.524 262.425C367.524 263.022 367.651 263.5 367.904 263.86C368.161 264.217 368.537 264.395 369.034 264.395C369.387 264.395 369.672 264.295 369.889 264.095C370.106 263.895 370.236 263.665 370.279 263.405H371.084C371.017 263.925 370.792 264.338 370.409 264.645C370.029 264.948 369.564 265.1 369.014 265.1C368.547 265.1 368.136 264.998 367.779 264.795C367.422 264.592 367.142 264.292 366.939 263.895C366.736 263.498 366.634 263.012 366.634 262.435C366.634 261.898 366.726 261.427 366.909 261.02C367.096 260.613 367.366 260.297 367.719 260.07C368.076 259.843 368.507 259.73 369.014 259.73Z" fill="#8A9FAE"/>
<path d="M396.332 257.775V258.735H395.352V257.775H396.332ZM396.307 265.23C396.307 265.713 396.202 266.072 395.992 266.305C395.785 266.542 395.419 266.66 394.892 266.66C394.609 266.66 394.43 266.64 394.357 266.6C394.28 266.56 394.242 266.54 394.242 266.54V265.925L394.752 265.9C394.985 265.883 395.149 265.822 395.242 265.715C395.335 265.612 395.382 265.44 395.382 265.2V259.83H396.307V265.23ZM399.294 265.1C398.79 265.1 398.38 264.968 398.064 264.705C397.747 264.442 397.589 264.073 397.589 263.6C397.589 263.027 397.789 262.6 398.189 262.32C398.589 262.04 399.23 261.89 400.114 261.87L401.039 261.845V261.44C401.039 261.123 400.942 260.873 400.749 260.69C400.559 260.503 400.265 260.41 399.869 260.41C399.572 260.413 399.31 260.485 399.084 260.625C398.857 260.762 398.712 260.983 398.649 261.29H397.834C397.86 260.787 398.057 260.402 398.424 260.135C398.79 259.865 399.287 259.73 399.914 259.73C400.587 259.73 401.09 259.872 401.424 260.155C401.76 260.438 401.929 260.85 401.929 261.39V265H401.139L401.074 264.03C400.87 264.433 400.615 264.713 400.309 264.87C400.002 265.023 399.664 265.1 399.294 265.1ZM399.574 264.435C399.804 264.435 400.03 264.38 400.254 264.27C400.48 264.16 400.667 264.02 400.814 263.85C400.96 263.677 401.035 263.493 401.039 263.3V262.415L400.269 262.43C399.675 262.44 399.23 262.528 398.934 262.695C398.637 262.858 398.489 263.13 398.489 263.51C398.489 263.803 398.589 264.032 398.789 264.195C398.992 264.355 399.254 264.435 399.574 264.435ZM403.508 265V259.83H404.403V260.58C404.53 260.363 404.728 260.172 404.998 260.005C405.268 259.838 405.61 259.755 406.023 259.755C406.35 259.755 406.65 259.82 406.923 259.95C407.2 260.08 407.42 260.283 407.583 260.56C407.75 260.833 407.833 261.187 407.833 261.62V265H406.908V261.71C406.908 261.307 406.802 261.008 406.588 260.815C406.378 260.618 406.105 260.52 405.768 260.52C405.535 260.52 405.317 260.558 405.113 260.635C404.91 260.708 404.745 260.822 404.618 260.975C404.492 261.125 404.428 261.315 404.428 261.545V265H403.508Z" fill="#8A9FAE"/>
<path d="M435.79 259.83V260.505H434.535V265H433.605V260.505H432.515V259.83H433.605V259.03C433.605 258.19 434.024 257.77 434.86 257.77H435.835L435.84 258.425H435.065C434.855 258.425 434.712 258.482 434.635 258.595C434.559 258.708 434.52 258.88 434.52 259.11V259.83H435.79ZM437.525 262.63C437.525 262.957 437.578 263.253 437.685 263.52C437.795 263.783 437.96 263.993 438.18 264.15C438.403 264.307 438.681 264.385 439.015 264.385C439.345 264.385 439.628 264.308 439.865 264.155C440.105 264.002 440.258 263.78 440.325 263.49H441.2C441.136 263.84 440.996 264.135 440.78 264.375C440.563 264.615 440.301 264.797 439.995 264.92C439.688 265.04 439.368 265.1 439.035 265.1C438.551 265.1 438.126 264.995 437.76 264.785C437.393 264.575 437.106 264.273 436.9 263.88C436.693 263.487 436.59 263.015 436.59 262.465C436.59 261.922 436.683 261.445 436.87 261.035C437.056 260.625 437.326 260.305 437.68 260.075C438.036 259.845 438.465 259.73 438.965 259.73C439.695 259.73 440.255 259.962 440.645 260.425C441.035 260.885 441.23 261.507 441.23 262.29V262.63H437.525ZM437.53 262.005H440.34C440.34 261.562 440.226 261.188 440 260.885C439.773 260.582 439.426 260.43 438.96 260.43C438.636 260.43 438.368 260.508 438.155 260.665C437.941 260.818 437.783 261.017 437.68 261.26C437.576 261.5 437.526 261.748 437.53 262.005ZM445.054 265.1C444.651 265.1 444.329 265.032 444.089 264.895C443.849 264.758 443.669 264.598 443.549 264.415C443.429 264.232 443.348 264.073 443.304 263.94L443.204 265H442.499V257.57H443.429V260.65C443.486 260.537 443.584 260.408 443.724 260.265C443.864 260.122 444.049 259.997 444.279 259.89C444.513 259.783 444.794 259.73 445.124 259.73C445.771 259.73 446.284 259.955 446.664 260.405C447.048 260.855 447.239 261.518 447.239 262.395C447.239 263.208 447.056 263.863 446.689 264.36C446.326 264.853 445.781 265.1 445.054 265.1ZM444.889 264.39C445.306 264.39 445.646 264.228 445.909 263.905C446.176 263.578 446.309 263.06 446.309 262.35C446.309 261.747 446.186 261.28 445.939 260.95C445.696 260.617 445.339 260.45 444.869 260.45C444.356 260.45 443.989 260.617 443.769 260.95C443.549 261.28 443.436 261.747 443.429 262.35C443.429 263.073 443.541 263.595 443.764 263.915C443.991 264.232 444.366 264.39 444.889 264.39Z" fill="#8A9FAE"/>
<path d="M44.728 265V259.83H45.618V260.58C45.7613 260.35 45.9563 260.152 46.203 259.985C46.453 259.815 46.7797 259.73 47.183 259.73C47.4663 259.73 47.7513 259.802 48.038 259.945C48.3247 260.088 48.5363 260.298 48.673 260.575C48.833 260.322 49.0497 260.118 49.323 259.965C49.5963 259.808 49.9047 259.73 50.248 259.73C50.428 259.73 50.6163 259.758 50.813 259.815C51.0097 259.868 51.193 259.965 51.363 260.105C51.533 260.242 51.6697 260.433 51.773 260.68C51.8797 260.923 51.933 261.237 51.933 261.62V265H51.003V261.71C51.003 261.397 50.953 261.153 50.853 260.98C50.753 260.807 50.6213 260.687 50.458 260.62C50.298 260.55 50.1263 260.515 49.943 260.515C49.783 260.515 49.613 260.547 49.433 260.61C49.253 260.673 49.0997 260.78 48.973 260.93C48.8463 261.08 48.783 261.285 48.783 261.545V265H47.863V261.44C47.863 261.237 47.808 261.067 47.698 260.93C47.5913 260.79 47.4563 260.687 47.293 260.62C47.133 260.55 46.973 260.515 46.813 260.515C46.6363 260.515 46.458 260.552 46.278 260.625C46.1013 260.695 45.9513 260.805 45.828 260.955C45.708 261.105 45.648 261.302 45.648 261.545V265H44.728ZM54.7908 265.1C54.2875 265.1 53.8775 264.968 53.5608 264.705C53.2442 264.442 53.0858 264.073 53.0858 263.6C53.0858 263.027 53.2858 262.6 53.6858 262.32C54.0858 262.04 54.7275 261.89 55.6108 261.87L56.5358 261.845V261.44C56.5358 261.123 56.4392 260.873 56.2458 260.69C56.0558 260.503 55.7625 260.41 55.3658 260.41C55.0692 260.413 54.8075 260.485 54.5808 260.625C54.3542 260.762 54.2092 260.983 54.1458 261.29H53.3308C53.3575 260.787 53.5542 260.402 53.9208 260.135C54.2875 259.865 54.7842 259.73 55.4108 259.73C56.0842 259.73 56.5875 259.872 56.9208 260.155C57.2575 260.438 57.4258 260.85 57.4258 261.39V265H56.6358L56.5708 264.03C56.3675 264.433 56.1125 264.713 55.8058 264.87C55.4992 265.023 55.1608 265.1 54.7908 265.1ZM55.0708 264.435C55.3008 264.435 55.5275 264.38 55.7508 264.27C55.9775 264.16 56.1642 264.02 56.3108 263.85C56.4575 263.677 56.5325 263.493 56.5358 263.3V262.415L55.7658 262.43C55.1725 262.44 54.7275 262.528 54.4308 262.695C54.1342 262.858 53.9858 263.13 53.9858 263.51C53.9858 263.803 54.0858 264.032 54.2858 264.195C54.4892 264.355 54.7508 264.435 55.0708 264.435ZM59.0053 265V259.83H59.8853V260.825C60.0153 260.455 60.2203 260.18 60.5003 260C60.7837 259.82 61.0887 259.73 61.4153 259.73C61.492 259.73 61.5653 259.735 61.6353 259.745C61.7087 259.755 61.767 259.772 61.8103 259.795V260.69C61.7603 260.667 61.6953 260.652 61.6153 260.645C61.5387 260.635 61.4737 260.63 61.4203 260.63C61.0103 260.603 60.6587 260.682 60.3653 260.865C60.072 261.048 59.9253 261.355 59.9253 261.785V265H59.0053Z" fill="#8A9FAE"/>
<g clip-path="url(#clip1)">
<path d="M70.8601 199.5L155.253 122.75" stroke="#0F334A" stroke-width="1.5" stroke-linecap="square"/>
<path d="M155.429 122.762L234.618 153.238" stroke="#0F334A" stroke-width="1.5" stroke-linecap="square"/>
<path d="M313.957 92.7561L234.768 153.244" stroke="#0F334A" stroke-width="1.5" stroke-linecap="square"/>
<path d="M317.626 93.2273L403.576 77.7727" stroke="#0F334A" stroke-width="1.5" stroke-linecap="square"/>
<path d="M482.984 108.238L403.795 77.7619" stroke="#0F334A" stroke-width="1.5" stroke-linecap="square"/>
<circle cx="157.079" cy="123" r="3" fill="#0F334A"/>
<circle cx="236.418" cy="153" r="3" fill="#0F334A"/>
<circle cx="315.757" cy="93" r="3" fill="#0F334A"/>
<circle cx="401.995" cy="78" r="3" fill="#0F334A"/>
<circle cx="70.8403" cy="200" r="3" fill="#0F334A"/>
</g>
<path d="M400.676 165.233L486.627 143.767" stroke="#CED7DE" stroke-width="1.5" stroke-linecap="square"/>
<path d="M401.86 165.5L317.819 136.75" stroke="#CED7DE" stroke-width="1.5" stroke-linecap="square"/>
<path d="M238.48 113.75L317.669 136.25" stroke="#CED7DE" stroke-width="1.5" stroke-linecap="square"/>
<path d="M241.71 113.756L155.76 174.244" stroke="#CED7DE" stroke-width="1.5" stroke-linecap="square"/>
<path d="M70.8601 188.5L155.541 173.773" stroke="#CED7DE" stroke-width="1.5" stroke-linecap="square"/>
<circle cx="402.257" cy="165" r="3" transform="rotate(-180 402.257 165)" fill="#CED7DE"/>
<circle cx="319.469" cy="136" r="3" transform="rotate(-180 319.469 136)" fill="#CED7DE"/>
<circle cx="240.129" cy="114" r="3" transform="rotate(-180 240.129 114)" fill="#CED7DE"/>
<circle cx="153.891" cy="174" r="3" transform="rotate(-180 153.891 174)" fill="#CED7DE"/>
<circle cx="71.1023" cy="189" r="3" transform="rotate(-180 71.1023 189)" fill="#CED7DE"/>
</g>
<defs>
<clipPath id="clip0">
<rect width="448" height="299" fill="white"/>
</clipPath>
<clipPath id="clip1">
<rect width="915" height="128" fill="white" transform="translate(66.8979 75)"/>
</clipPath>
</defs>
</svg>
