<svg width="140" height="36" viewBox="0 0 140 36" fill="none" xmlns="http://www.w3.org/2000/svg">
<path id="CP Logo" fill-rule="evenodd" clip-rule="evenodd" d="M14.8075 0H29.4792C30.566 0 31.4491 0.883019 31.3811 1.90189V33.7585C31.3811 34.7774 30.566 35.6604 29.4792 35.6604H20.7849V27.2377C24.0453 25.4717 26.2189 22.0075 26.2189 18C26.2189 12.4302 22.0075 7.94717 16.5736 7.4717V12.8377C18.9509 13.2453 20.7849 15.3509 20.7849 17.8642C20.7849 20.3774 18.9509 22.483 16.5736 22.8906V28.5283V35.5925H1.90189C0.883019 35.5925 0 34.7774 0 33.6906V1.90189C0 0.883019 0.883019 0 1.90189 0H10.5962V8.76226C7.33585 10.5283 5.16226 13.9925 5.16226 18C5.16226 23.5698 9.37358 28.0528 14.8075 28.5283V22.8906C12.4302 22.483 10.5962 20.3774 10.5962 17.8642C10.5962 15.3509 12.4302 13.2453 14.8075 12.8377V7.4717V0ZM37.4264 8.01509C37.4264 12.2943 40.8906 15.6906 45.1698 15.6906C48.2264 15.6906 50.8075 14.0604 51.9623 11.4113H48.7698C47.5472 12.634 46.5283 13.1094 45.1019 13.1094C42.3849 13.1094 40.1434 10.8 40.1434 8.08302C40.1434 5.29811 42.2491 3.12453 45.034 3.12453C46.7321 3.12453 47.8868 3.66792 48.9057 4.95849H51.9623C50.6038 2.10566 48.0226 0.475472 44.966 0.475472C40.8226 0.475472 37.4264 3.8717 37.4264 8.01509ZM135.713 27.034C135.238 27.034 134.83 26.966 134.423 26.7623C134.015 26.5585 133.675 26.3547 133.404 26.083C133.132 25.8113 132.86 25.4038 132.725 25.0642C132.521 24.6566 132.453 24.2491 132.453 23.7736C132.453 23.2981 132.521 22.8906 132.725 22.483C132.928 22.0755 133.132 21.7358 133.404 21.3962C133.675 21.1245 134.083 20.8528 134.491 20.6491C134.898 20.4453 135.306 20.3774 135.781 20.3774C136.257 20.3774 136.664 20.4453 137.072 20.6491C137.479 20.8528 137.819 21.0566 138.091 21.3283C138.362 21.6 138.634 22.0075 138.77 22.3472C138.974 22.7547 139.042 23.1623 139.042 23.6377C139.042 24.1132 138.974 24.5208 138.77 24.9283C138.566 25.3358 138.362 25.6755 138.091 26.0151C137.819 26.2868 137.411 26.5585 137.004 26.7623C136.664 26.966 136.189 27.034 135.713 27.034ZM135.713 26.6943C136.121 26.6943 136.528 26.6264 136.868 26.4906C137.208 26.3547 137.547 26.1509 137.819 25.8792C138.091 25.6075 138.294 25.2679 138.43 24.9283C138.566 24.5887 138.634 24.1811 138.634 23.7736C138.634 23.366 138.566 22.9585 138.43 22.6189C138.294 22.2792 138.091 21.9396 137.819 21.6679C137.547 21.3962 137.275 21.1925 136.868 21.0566C136.528 20.9208 136.121 20.8528 135.713 20.8528C135.306 20.8528 134.898 20.9208 134.559 21.0566C134.219 21.1925 133.879 21.3962 133.608 21.6679C133.336 21.9396 133.132 22.2792 132.996 22.6189C132.86 22.9585 132.792 23.366 132.792 23.7736C132.792 24.1811 132.86 24.5887 132.996 24.9283C133.132 25.2679 133.336 25.6075 133.608 25.8792C133.879 26.1509 134.151 26.3547 134.559 26.4906C134.966 26.6264 135.306 26.6943 135.713 26.6943ZM135.917 21.8717H134.423V25.4038H135.17V24.2491H135.781L136.528 25.4038H137.411L136.528 24.1132C136.732 24.0453 136.936 23.9094 137.072 23.7057C137.208 23.5698 137.275 23.2981 137.275 23.0264C137.275 22.7547 137.208 22.483 137.004 22.2792C136.732 22.0075 136.392 21.8717 135.917 21.8717ZM135.917 23.5698C136.121 23.5698 136.257 23.5019 136.392 23.434C136.528 23.366 136.528 23.2302 136.528 23.0943C136.528 22.9331 136.486 22.8569 136.434 22.7648C136.421 22.7405 136.407 22.7151 136.392 22.6868C136.257 22.6189 136.121 22.5509 135.917 22.5509H135.17V23.5698H135.917ZM56.4453 9.84906L60.317 15.4868V15.4189H63.6453L59.6377 9.98491C62.2868 9.30566 63.5094 7.7434 63.5094 5.43396C63.5094 3.93962 62.966 2.71698 61.9472 1.83396C60.9962 1.01887 59.9774 0.74717 57.9396 0.74717H53.7283V15.4868H56.4453V9.84906ZM56.4453 3.39623H57.6679C60.2491 3.39623 60.7925 4.21132 60.7925 5.56981C60.7925 7.13208 59.9094 7.81132 57.8038 7.81132H56.4453V3.39623ZM65.2755 0.74717V15.4868H73.1547V12.8377H67.9925V9.44151H72.9509V6.79245H67.9925V3.3283H73.1547V0.74717H65.2755ZM79.0641 15.4868C81.3057 15.4868 82.5962 15.283 83.8189 14.6717C86.0604 13.517 87.4189 11.0717 87.4868 8.15094C87.4868 5.36604 86.3321 3.0566 84.2943 1.83396C83.1396 1.08679 81.3736 0.74717 79.0641 0.74717H75.6679V15.4868H79.0641ZM78.8604 3.3283C80.6264 3.3283 81.5094 3.53208 82.3924 3.93962C83.8189 4.68679 84.634 6.24906 84.634 8.08302C84.634 9.84906 83.8189 11.4113 82.5283 12.1585C81.7132 12.634 80.5585 12.8377 78.9283 12.8377H78.317V3.3283H78.8604ZM92.2415 0.74717H89.5245V15.4189H92.2415V0.74717ZM99.3736 15.4868H96.6566V3.39623H93.9396V0.74717H102.091V3.39623H99.3736V15.4868ZM45.6453 29.1396C44.8302 29.6151 43.8792 29.8189 41.7736 29.8189H40.8906V35.3887H38.1736V20.6491H41.8415C43.8113 20.6491 44.7623 20.8528 45.5774 21.3283C46.8679 22.0755 47.5472 23.5019 47.5472 25.2C47.6151 26.8981 46.8679 28.3925 45.6453 29.1396ZM41.8415 23.2302H40.9585V27.1698H41.7736C44.2189 27.1698 44.8981 26.4906 44.8981 25.2679C44.8302 23.7057 43.9472 23.2302 41.8415 23.2302ZM56.8528 31.5849L58.4151 35.3887H61.4717L55.2906 20.717H53.117L47.0038 35.3887H49.9925L51.6226 31.5849H56.8528ZM52.5736 29.0038L54.1358 24.5208L55.6981 29.0038H52.5736ZM61.8113 31.1094C62.0151 33.8943 64.0528 35.5925 66.634 35.5925C69.283 35.5925 71.3208 33.5547 71.3208 30.9057C71.3208 28.8679 70.5057 27.5774 67.517 26.4906C67.0813 26.3163 66.7784 26.1979 66.5611 26.113C66.101 25.9332 66.0252 25.9036 65.8868 25.8113C65.3434 25.4717 65.0717 24.9962 65.0717 24.4528C65.0717 23.5698 65.683 22.9585 66.566 22.9585C67.517 22.9585 68.0604 23.5019 68.1283 24.5208H70.9811C70.8453 21.8717 69.0113 20.3094 66.634 20.3094C64.2566 20.3094 62.3547 22.2113 62.3547 24.5208C62.3547 26.3547 63.4415 27.7811 65.4113 28.5283L65.7501 28.6613C67.3396 29.2851 67.5426 29.3647 67.9245 29.683C68.3321 30.0226 68.6038 30.566 68.6038 31.1774C68.6038 32.1962 67.7887 32.9434 66.634 32.9434C65.4113 32.9434 64.8 32.3321 64.6642 31.1094H61.8113ZM77.0264 35.5925C74.4453 35.5925 72.4075 33.8943 72.2038 31.1094H75.0566C75.1925 32.3321 75.8038 32.9434 77.0264 32.9434C78.1811 32.9434 78.9962 32.1962 78.9962 31.1774C78.9962 30.566 78.7245 30.0226 78.317 29.683C77.935 29.3647 77.7321 29.2851 76.1425 28.6613L75.8038 28.5283C73.834 27.7811 72.7472 26.3547 72.7472 24.5208C72.7472 22.2113 74.6491 20.3094 77.0264 20.3094C79.4038 20.3094 81.2377 21.8717 81.3736 24.5208H78.5208C78.4528 23.5019 77.9094 22.9585 76.9585 22.9585C76.0755 22.9585 75.4641 23.5698 75.4641 24.4528C75.4641 24.9962 75.7358 25.4717 76.2792 25.8113C76.4177 25.9036 76.4934 25.9332 76.9536 26.113C77.1708 26.1979 77.4737 26.3163 77.9094 26.4906C80.8981 27.5774 81.7132 28.8679 81.7132 30.9057C81.7132 33.5547 79.6755 35.5925 77.0264 35.5925ZM91.0189 29.1396C90.2038 29.6151 89.2528 29.8189 87.1472 29.8189H86.2642V35.3887H83.5472V20.6491H87.2151C89.1849 20.6491 90.1358 20.8528 90.9509 21.3283C92.2415 22.0755 92.9208 23.5019 92.9208 25.2C92.9887 26.8981 92.2415 28.3925 91.0189 29.1396ZM87.2151 23.2302H86.3321V27.1698H87.1472C89.5925 27.1698 90.2717 26.4906 90.2717 25.2679C90.2038 23.7057 89.3208 23.2302 87.2151 23.2302ZM93.9396 27.9849C93.9396 32.1962 97.3358 35.5925 101.683 35.5925C105.962 35.5925 109.291 32.2642 109.223 27.9849C109.223 23.7736 105.894 20.3774 101.683 20.3774C97.3358 20.3774 93.9396 23.7057 93.9396 27.9849ZM96.7245 28.0528C96.7245 25.2 98.8302 23.0264 101.683 23.0264C104.4 23.0264 106.574 25.2 106.506 28.0528C106.506 30.9057 104.468 33.0113 101.683 33.0113C98.8981 33.0113 96.7245 30.8377 96.7245 28.0528ZM118.053 35.3887L114.181 29.7509V35.3887H111.464V20.6491H115.675C117.713 20.6491 118.732 20.9208 119.683 21.7358C120.702 22.6189 121.245 23.8415 121.245 25.3358C121.245 27.6453 120.023 29.2075 117.374 29.8868L121.381 35.3208H118.053V35.3887ZM115.404 23.2302H114.181V27.6453H115.54C117.645 27.6453 118.528 26.966 118.528 25.4038C118.528 24.1132 117.985 23.2302 115.404 23.2302ZM127.426 23.2302V35.3887H124.709V23.2302H121.992V20.6491H130.143V23.2302H127.426Z" fill="white"/>
</svg>
