<?xml version="1.0" encoding="UTF-8"?>
<svg width="140px" height="36px" viewBox="0 0 140 36" version="1.1" xmlns="http://www.w3.org/2000/svg" xmlns:xlink="http://www.w3.org/1999/xlink">
    <title>4A9862E3-030E-42B5-8A8E-23178D68E9A5</title>
    <g id="Credit-passport-Mar-2021" stroke="none" stroke-width="1" fill="none" fill-rule="evenodd">
        <g id="1.c-CP-unlocked" transform="translate(-303.000000, -92.000000)" fill="#003E52">
            <g id="Title" transform="translate(303.000000, 92.000000)">
                <path d="M10.5962264,-1.10134124e-13 L10.5962264,8.76226415 C7.33584906,10.5283019 5.16226415,13.9924528 5.16226415,18 C5.16226415,23.5698113 9.37358491,28.0528302 14.8075472,28.5283019 L14.8075472,28.5283019 L14.8075472,22.890566 C12.4301887,22.4830189 10.5962264,20.3773585 10.5962264,17.8641509 C10.5962264,15.3509434 12.4301887,13.245283 14.8075472,12.8377358 L14.8075472,12.8377358 L14.8075472,-1.10134124e-13 L29.4792453,-1.10134124e-13 C30.5660377,-1.10134124e-13 31.4490566,0.883018868 31.3811321,1.90188679 L31.3811321,1.90188679 L31.3811321,33.7584906 C31.3811321,34.7773585 30.5660377,35.6603774 29.4792453,35.6603774 L29.4792453,35.6603774 L20.7849057,35.6603774 L20.7849057,27.2377358 C24.045283,25.4716981 26.2188679,22.0075472 26.2188679,18 C26.2188679,12.4301887 22.0075472,7.94716981 16.5735849,7.47169811 L16.5735849,7.47169811 L16.5735849,12.8377358 C18.9509434,13.245283 20.7849057,15.3509434 20.7849057,17.8641509 C20.7849057,20.3773585 18.9509434,22.4830189 16.5735849,22.890566 L16.5735849,22.890566 L16.5735849,35.5924528 L1.90188679,35.5924528 C0.883018868,35.5924528 -2.44426701e-12,34.7773585 -2.44426701e-12,33.690566 L-2.44426701e-12,33.690566 L-2.44426701e-12,1.90188679 C-2.44426701e-12,0.883018868 0.883018868,-1.10134124e-13 1.90188679,-1.10134124e-13 L1.90188679,-1.10134124e-13 L10.5962264,-1.10134124e-13 Z M66.6339623,20.309434 C69.0113208,20.309434 70.845283,21.8716981 70.9811321,24.5207547 L68.1283019,24.5207547 C68.0603774,23.5018868 67.5169811,22.9584906 66.5660377,22.9584906 C65.6830189,22.9584906 65.0716981,23.5698113 65.0716981,24.4528302 C65.0716981,24.9962264 65.3433962,25.4716981 65.8867925,25.8113208 C66.090566,25.9471698 66.1584906,25.9471698 67.5169811,26.490566 C70.5056604,27.5773585 71.3207547,28.8679245 71.3207547,30.9056604 C71.3207547,33.554717 69.2830189,35.5924528 66.6339623,35.5924528 C64.0528302,35.5924528 62.0150943,33.8943396 61.8113208,31.109434 L64.6641509,31.109434 C64.8,32.3320755 65.4113208,32.9433962 66.6339623,32.9433962 C67.7886792,32.9433962 68.6037736,32.1962264 68.6037736,31.1773585 C68.6037736,30.5660377 68.3320755,30.0226415 67.9245283,29.6830189 C67.5169811,29.3433962 67.3132075,29.2754717 65.4113208,28.5283019 C63.4415094,27.7811321 62.354717,26.354717 62.354717,24.5207547 C62.354717,22.2113208 64.2566038,20.309434 66.6339623,20.309434 Z M101.683019,20.3773585 C105.89434,20.3773585 109.222642,23.7735849 109.222642,27.9849057 C109.290566,32.2641509 105.962264,35.5924528 101.683019,35.5924528 C97.3358491,35.5924528 93.9396226,32.1962264 93.9396226,27.9849057 C93.9396226,23.7056604 97.3358491,20.3773585 101.683019,20.3773585 Z M77.0264151,20.309434 C79.4037736,20.309434 81.2377358,21.8716981 81.3735849,24.5207547 L78.5207547,24.5207547 C78.4528302,23.5018868 77.909434,22.9584906 76.9584906,22.9584906 C76.0754717,22.9584906 75.4641509,23.5698113 75.4641509,24.4528302 C75.4641509,24.9962264 75.7358491,25.4716981 76.2792453,25.8113208 L76.3350019,25.847025 C76.5076627,25.9520986 76.6803235,25.9989218 77.909434,26.490566 C80.8981132,27.5773585 81.7132075,28.8679245 81.7132075,30.9056604 C81.7132075,33.554717 79.6754717,35.5924528 77.0264151,35.5924528 C74.445283,35.5924528 72.4075472,33.8943396 72.2037736,31.109434 L75.0566038,31.109434 C75.1924528,32.3320755 75.8037736,32.9433962 77.0264151,32.9433962 C78.1811321,32.9433962 78.9962264,32.1962264 78.9962264,31.1773585 C78.9962264,30.5660377 78.7245283,30.0226415 78.3169811,29.6830189 C77.909434,29.3433962 77.7056604,29.2754717 75.8037736,28.5283019 C73.8339623,27.7811321 72.7471698,26.354717 72.7471698,24.5207547 C72.7471698,22.2113208 74.6490566,20.309434 77.0264151,20.309434 Z M130.143396,20.6490566 L130.143396,23.2301887 L127.426415,23.2301887 L127.426415,35.3886792 L124.709434,35.3886792 L124.709434,23.2301887 L121.992453,23.2301887 L121.992453,20.6490566 L130.143396,20.6490566 Z M115.675472,20.6490566 C117.713208,20.6490566 118.732075,20.9207547 119.683019,21.7358491 C120.701887,22.6188679 121.245283,23.8415094 121.245283,25.3358491 C121.245283,27.645283 120.022642,29.2075472 117.373585,29.8867925 L121.381132,35.3207547 L118.05283,35.3207547 L118.05283,35.3886792 L114.181132,29.7509434 L114.181132,35.3886792 L111.464151,35.3886792 L111.464151,20.6490566 L115.675472,20.6490566 Z M41.8415094,20.6490566 C43.8113208,20.6490566 44.7622642,20.8528302 45.5773585,21.3283019 C46.8679245,22.0754717 47.5471698,23.5018868 47.5471698,25.2 C47.6150943,26.8981132 46.8679245,28.3924528 45.645283,29.1396226 C44.8301887,29.6150943 43.8792453,29.8188679 41.7735849,29.8188679 L40.890566,29.8188679 L40.890566,35.3886792 L38.1735849,35.3886792 L38.1735849,20.6490566 L41.8415094,20.6490566 Z M55.290566,20.7169811 L61.4716981,35.3886792 L58.4150943,35.3886792 L56.8528302,31.5849057 L51.6226415,31.5849057 L49.9924528,35.3886792 L47.0037736,35.3886792 L53.1169811,20.7169811 L55.290566,20.7169811 Z M87.2150943,20.6490566 C89.1849057,20.6490566 90.1358491,20.8528302 90.9509434,21.3283019 C92.2415094,22.0754717 92.9207547,23.5018868 92.9207547,25.2 C92.9886792,26.8981132 92.2415094,28.3924528 91.0188679,29.1396226 C90.2037736,29.6150943 89.2528302,29.8188679 87.1471698,29.8188679 L86.2641509,29.8188679 L86.2641509,35.3886792 L83.5471698,35.3886792 L83.5471698,20.6490566 L87.2150943,20.6490566 Z M101.683019,23.0264151 C98.8301887,23.0264151 96.7245283,25.2 96.7245283,28.0528302 C96.7245283,30.8377358 98.8981132,33.0113208 101.683019,33.0113208 C104.467925,33.0113208 106.50566,30.9056604 106.50566,28.0528302 C106.573585,25.2 104.4,23.0264151 101.683019,23.0264151 Z M54.1358491,24.5207547 L52.5735849,29.0037736 L55.6981132,29.0037736 L54.1358491,24.5207547 Z M115.403774,23.2301887 L114.181132,23.2301887 L114.181132,27.645283 L115.539623,27.645283 C117.645283,27.645283 118.528302,26.9660377 118.528302,25.4037736 C118.528302,24.1132075 117.984906,23.2301887 115.403774,23.2301887 Z M87.2150943,23.2301887 L86.3320755,23.2301887 L86.3320755,27.1698113 L87.1471698,27.1698113 C89.5924528,27.1698113 90.2716981,26.490566 90.2716981,25.2679245 C90.2037736,23.7056604 89.3207547,23.2301887 87.2150943,23.2301887 Z M41.8415094,23.2301887 L40.9584906,23.2301887 L40.9584906,27.1698113 L41.7735849,27.1698113 C44.2188679,27.1698113 44.8981132,26.490566 44.8981132,25.2679245 C44.8301887,23.7056604 43.9471698,23.2301887 41.8415094,23.2301887 Z M135.781132,20.3773585 C136.256604,20.3773585 136.664151,20.445283 137.071698,20.6490566 C137.479245,20.8528302 137.818868,21.0566038 138.090566,21.3283019 C138.362264,21.6 138.633962,22.0075472 138.769811,22.3471698 C138.944474,22.696496 139.01933,23.0458221 139.037153,23.4379229 L139.041509,23.6377358 C139.041509,24.1132075 138.973585,24.5207547 138.769811,24.9283019 C138.566038,25.3358491 138.362264,25.6754717 138.090566,26.0150943 C137.818868,26.2867925 137.411321,26.5584906 137.003774,26.7622642 C136.664151,26.9660377 136.188679,27.0339623 135.713208,27.0339623 C135.237736,27.0339623 134.830189,26.9660377 134.422642,26.7622642 C134.015094,26.5584906 133.675472,26.354717 133.403774,26.0830189 C133.132075,25.8113208 132.860377,25.4037736 132.724528,25.0641509 C132.549865,24.7148248 132.47501,24.3654987 132.457187,23.9733979 L132.45283,23.7735849 C132.45283,23.2981132 132.520755,22.890566 132.724528,22.4830189 C132.928302,22.0754717 133.132075,21.7358491 133.403774,21.3962264 C133.675472,21.1245283 134.083019,20.8528302 134.490566,20.6490566 C134.898113,20.445283 135.30566,20.3773585 135.781132,20.3773585 Z M135.713208,20.8528302 C135.30566,20.8528302 134.898113,20.9207547 134.558491,21.0566038 C134.218868,21.1924528 133.879245,21.3962264 133.607547,21.6679245 C133.335849,21.9396226 133.132075,22.2792453 132.996226,22.6188679 C132.887547,22.890566 132.82234,23.2057358 132.800604,23.5296 L132.792453,23.7735849 C132.792453,24.1811321 132.860377,24.5886792 132.996226,24.9283019 C133.132075,25.2679245 133.335849,25.6075472 133.607547,25.8792453 C133.879245,26.1509434 134.150943,26.354717 134.558491,26.490566 C134.966038,26.6264151 135.30566,26.6943396 135.713208,26.6943396 C136.120755,26.6943396 136.528302,26.6264151 136.867925,26.490566 C137.207547,26.354717 137.54717,26.1509434 137.818868,25.8792453 C138.090566,25.6075472 138.29434,25.2679245 138.430189,24.9283019 C138.538868,24.6566038 138.604075,24.341434 138.625811,24.0175698 L138.633962,23.7735849 C138.633962,23.3660377 138.566038,22.9584906 138.430189,22.6188679 C138.29434,22.2792453 138.090566,21.9396226 137.818868,21.6679245 C137.54717,21.3962264 137.275472,21.1924528 136.867925,21.0566038 C136.528302,20.9207547 136.120755,20.8528302 135.713208,20.8528302 Z M135.916981,21.8716981 C136.392453,21.8716981 136.732075,22.0075472 137.003774,22.2792453 C137.178437,22.4539084 137.253292,22.6784752 137.271115,22.9101711 L137.275472,23.0264151 C137.275472,23.2981132 137.207547,23.5698113 137.071698,23.7056604 C136.935849,23.909434 136.732075,24.045283 136.528302,24.1132075 L137.411321,25.4037736 L136.528302,25.4037736 L135.781132,24.2490566 L135.169811,24.2490566 L135.169811,25.4037736 L134.422642,25.4037736 L134.422642,21.8716981 L135.916981,21.8716981 Z M135.916981,22.5509434 L135.169811,22.5509434 L135.169811,23.5698113 L135.916981,23.5698113 C136.120755,23.5698113 136.256604,23.5018868 136.392453,23.4339623 C136.50566,23.3773585 136.524528,23.2735849 136.527673,23.1619497 L136.528302,23.0943396 C136.528302,22.890566 136.460377,22.8226415 136.392453,22.6867925 C136.256604,22.6188679 136.120755,22.5509434 135.916981,22.5509434 Z M44.9660377,0.475471698 C48.0226415,0.475471698 50.6037736,2.10566038 51.9622642,4.95849057 L48.9056604,4.95849057 C47.8867925,3.66792453 46.7320755,3.1245283 45.0339623,3.1245283 C42.2490566,3.1245283 40.1433962,5.29811321 40.1433962,8.08301887 C40.1433962,10.8 42.3849057,13.109434 45.1018868,13.109434 C46.5283019,13.109434 47.5471698,12.6339623 48.7698113,11.4113208 L51.9622642,11.4113208 C50.8075472,14.0603774 48.2264151,15.690566 45.1698113,15.690566 C40.890566,15.690566 37.4264151,12.2943396 37.4264151,8.01509434 C37.4264151,3.87169811 40.8226415,0.475471698 44.9660377,0.475471698 Z M57.9396226,0.747169811 C59.9773585,0.747169811 60.9962264,1.01886792 61.9471698,1.83396226 C62.9660377,2.71698113 63.509434,3.93962264 63.509434,5.43396226 C63.509434,7.74339623 62.2867925,9.30566038 59.6377358,9.98490566 L63.645283,15.4188679 L60.3169811,15.4188679 L60.3169811,15.4867925 L56.445283,9.8490566 L56.445283,15.4867925 L53.7283019,15.4867925 L53.7283019,0.747169811 L57.9396226,0.747169811 Z M73.154717,0.747169811 L73.154717,3.32830189 L67.9924528,3.32830189 L67.9924528,6.79245283 L72.9509434,6.79245283 L72.9509434,9.44150943 L67.9924528,9.44150943 L67.9924528,12.8377358 L73.154717,12.8377358 L73.154717,15.4867925 L65.2754717,15.4867925 L65.2754717,0.747169811 L73.154717,0.747169811 Z M79.0641509,0.747169811 C81.3735849,0.747169811 83.1396226,1.08679245 84.2943396,1.83396226 C86.3320755,3.05660377 87.4867925,5.36603774 87.4867925,8.1509434 C87.4188679,11.0716981 86.0603774,13.5169811 83.8188679,14.6716981 C82.5962264,15.2830189 81.3056604,15.4867925 79.0641509,15.4867925 L75.6679245,15.4867925 L75.6679245,0.747169811 L79.0641509,0.747169811 Z M102.090566,0.747169811 L102.090566,3.39622642 L99.3735849,3.39622642 L99.3735849,15.4867925 L96.6566038,15.4867925 L96.6566038,3.39622642 L93.9396226,3.39622642 L93.9396226,0.747169811 L102.090566,0.747169811 Z M92.2415094,0.747169811 L92.2415094,15.4188679 L89.5245283,15.4188679 L89.5245283,0.747169811 L92.2415094,0.747169811 Z M78.8603774,3.32830189 L78.3169811,3.32830189 L78.3169811,12.8377358 L78.9283019,12.8377358 C80.5584906,12.8377358 81.7132075,12.6339623 82.5283019,12.1584906 C83.8188679,11.4113208 84.6339623,9.8490566 84.6339623,8.08301887 C84.6339623,6.2490566 83.8188679,4.68679245 82.3924528,3.93962264 C81.509434,3.53207547 80.6264151,3.32830189 78.8603774,3.32830189 Z M57.6679245,3.39622642 L56.445283,3.39622642 L56.445283,7.81132075 L57.8037736,7.81132075 C59.909434,7.81132075 60.7924528,7.13207547 60.7924528,5.56981132 C60.7924528,4.21132075 60.2490566,3.39622642 57.6679245,3.39622642 Z" id="CP-Logo"></path>
            </g>
        </g>
    </g>
</svg>