<?xml version="1.0" encoding="UTF-8"?>
<svg width="260px" height="182px" viewBox="0 0 260 182" version="1.1" xmlns="http://www.w3.org/2000/svg" xmlns:xlink="http://www.w3.org/1999/xlink">
    <title>3D2EF401-0604-4907-BC3F-0B89801DC454</title>
    <defs>
        <filter x="-11.9%" y="-18.4%" width="124.0%" height="136.7%" filterUnits="objectBoundingBox" id="filter-1">
            <feOffset dx="0" dy="4" in="SourceAlpha" result="shadowOffsetOuter1"></feOffset>
            <feGaussianBlur stdDeviation="4" in="shadowOffsetOuter1" result="shadowBlurOuter1"></feGaussianBlur>
            <feColorMatrix values="0 0 0 0 0   0 0 0 0 0   0 0 0 0 0  0 0 0 0.06 0" type="matrix" in="shadowBlurOuter1" result="shadowMatrixOuter1"></feColorMatrix>
            <feOffset dx="0" dy="0" in="SourceAlpha" result="shadowOffsetOuter2"></feOffset>
            <feGaussianBlur stdDeviation="1" in="shadowOffsetOuter2" result="shadowBlurOuter2"></feGaussianBlur>
            <feColorMatrix values="0 0 0 0 0   0 0 0 0 0   0 0 0 0 0  0 0 0 0.04 0" type="matrix" in="shadowBlurOuter2" result="shadowMatrixOuter2"></feColorMatrix>
            <feMerge>
                <feMergeNode in="shadowMatrixOuter1"></feMergeNode>
                <feMergeNode in="shadowMatrixOuter2"></feMergeNode>
                <feMergeNode in="SourceGraphic"></feMergeNode>
            </feMerge>
        </filter>
        <polygon id="path-2" points="0 0.265468421 215.999439 0.265468421 215.999439 134.698565 0 134.698565"></polygon>
        <polygon id="path-4" points="0 135.836487 216 135.836487 216 1.40311005 0 1.40311005"></polygon>
    </defs>
    <g id="Credit-passport-Mar-2021" stroke="none" stroke-width="1" fill="none" fill-rule="evenodd">
        <g id="1.c-CP-unlocked" transform="translate(-315.000000, -217.000000)">
            <g id="Your-Score" transform="translate(303.000000, 168.000000)">
                <g id="Credit-Passport" transform="translate(32.000000, 69.000000)" filter="url(#filter-1)">
                    <g id="Group-3" transform="translate(0.000000, 1.137922)">
                        <mask id="mask-3" fill="white">
                            <use xlink:href="#path-2"></use>
                        </mask>
                        <g id="Clip-2"></g>
                        <path d="M9.52728312,134.698845 C4.27455584,134.698845 -0.000561038961,130.423569 -0.000561038961,125.167519 L-0.000561038961,9.66911196 C-0.000561038961,4.65159043 3.81871169,0.612036603 8.88068571,0.271080861 L9.06863377,0.265468421 L206.471595,0.266871531 C211.725725,0.266871531 215.999439,4.54355096 215.999439,9.79819809 L215.999439,125.167519 C215.999439,130.422166 211.725725,134.698845 206.471595,134.698845 L9.52728312,134.698845 Z" id="Fill-1" fill="#FFFFFF" mask="url(#mask-3)"></path>
                    </g>
                    <path d="M206.471735,4.21087356 L9.06877403,4.20947045 C5.5735013,4.44519294 2.80477403,7.24159127 2.80477403,10.8068939 L2.80477403,126.305301 C2.80477403,130.015124 5.81895584,133.030407 9.52882597,133.030407 L206.471735,133.029004 C210.181605,133.029004 213.194384,130.01372 213.194384,126.303897 L213.194384,10.93598 C213.194384,7.21493218 210.181605,4.21087356 206.471735,4.21087356" id="Fill-4" fill="#FFFFFF"></path>
                    <path d="M43.779974,4.20890921 L43.779974,19.0117202 L2.80449351,19.0117202 L2.80449351,10.8063327 C2.80449351,7.24243313 5.57322078,4.4446317 9.06849351,4.20890921 L43.779974,4.20890921 Z" id="Fill-6" fill="#008638"></path>
                    <path d="M213.194244,10.93598 L213.194244,126.303897 C213.194244,130.01372 210.181465,133.029004 206.471595,133.029004 L74.6148156,133.027601 L74.6148156,95.7581917 C84.4301922,90.3099154 91.0756987,79.8525362 91.0756987,67.8250769 C91.0756987,66.7264417 91.0195948,65.6278066 90.9059844,64.5642492 C90.8512831,64.0591295 90.7839584,63.5540099 90.7166338,63.0615183 C88.4191792,47.6722073 75.1758545,35.8804705 59.1539844,35.8804705 C58.2002182,35.8804705 57.2702961,35.9478197 56.3529974,36.0263939 L56.3529974,4.21087356 L206.471595,4.21087356 C210.181465,4.21087356 213.194244,7.21493218 213.194244,10.93598" id="Fill-8" fill="#C6CE00"></path>
                    <mask id="mask-5" fill="white">
                        <use xlink:href="#path-4"></use>
                    </mask>
                    <g id="Clip-11"></g>
                    <polygon id="Fill-10" fill="#33A037" mask="url(#mask-5)" points="2.80519481 38.0214761 43.7806753 38.0214761 43.7806753 22.542366 2.80519481 22.542366"></polygon>
                    <path d="M41.1583792,41.4398731 C35.6910545,45.1833707 31.4439896,50.5867475 29.1367169,56.9189831 L2.80435325,56.9189831 L2.80435325,41.4398731 L41.1583792,41.4398731 Z" id="Fill-12" fill="#C6CE00" mask="url(#mask-5)"></path>
                    <path d="M28.2623377,75.9182157 L2.80519481,75.9182157 L2.80519481,60.4391056 L28.0828052,60.4391056 C27.5119481,62.8033461 27.2202078,65.2812384 27.2202078,67.8250769 C27.2202078,70.6270877 27.5792727,73.3407025 28.2623377,75.9182157" id="Fill-13" fill="#FFD300" mask="url(#mask-5)"></path>
                    <path d="M42.4130026,95.0294164 L2.80505455,95.0294164 L2.80505455,79.5503063 L29.4501974,79.5503063 C31.9818857,86.0060157 36.5767948,91.4318422 42.4130026,95.0294164" id="Fill-14" fill="#F6AF00" mask="url(#mask-5)"></path>
                    <path d="M62.0548364,99.6135172 L62.0548364,114.027667 L2.80491429,114.027667 L2.80491429,98.5485567 L50.4244987,98.5485567 C53.2030442,99.3441201 56.1274597,99.7706656 59.1542649,99.7706656 C60.1276675,99.7706656 61.1024727,99.7033163 62.0548364,99.6135172" id="Fill-15" fill="#E5620D" mask="url(#mask-5)"></path>
                    <path d="M62.0890597,117.547649 L62.0553974,117.547649 L2.80407273,117.547649 L2.80407273,126.305862 C2.80407273,130.015685 5.81965714,133.030968 9.52812468,133.030968 L62.0553974,133.030968 L62.0890597,117.547649 Z" id="Fill-16" fill="#DD2015" mask="url(#mask-5)"></path>
                    <path d="M92.2011429,68.9464425 C92.2011429,51.3065429 77.9072727,37.0060453 60.2724156,37.0060453 C59.3256623,37.0060453 58.3929351,37.0677822 57.4672208,37.1477594 L57.4672208,4.20834797 L44.9041558,4.20834797 L44.9041558,40.9515908 C35.0354805,46.385836 28.3450909,56.8810992 28.3450909,68.9464425 C28.3450909,86.586342 42.638961,100.885436 60.2724156,100.885436 C61.2542338,100.885436 62.2192208,100.825103 63.1785974,100.739513 L63.1785974,133.027881 L75.7402597,133.027881 L75.7402597,96.8795573 C85.5528312,91.4298779 92.2011429,80.9696925 92.2011429,68.9464425" id="Fill-17" fill="#A0A0A0" mask="url(#mask-5)"></path>
                    <path d="M91.0806078,67.8256382 C91.0806078,50.1857386 76.7853351,35.885241 59.1518805,35.885241 C58.2051273,35.885241 57.2724,35.9469779 56.3466857,36.0269551 L56.3466857,4.20862859 L43.7836208,4.20862859 L43.7836208,39.8307865 C33.9149455,45.2650317 27.2245558,55.7602949 27.2245558,67.8256382 C27.2245558,85.4655377 41.518426,99.7646322 59.1518805,99.7646322 C60.1336987,99.7646322 61.0986857,99.7042984 62.0580623,99.6187087 L62.0580623,133.028162 L74.6197247,133.028162 L74.6197247,95.758753 C84.4322961,90.3090736 91.0806078,79.8488882 91.0806078,67.8256382" id="Fill-18" fill="#FFFFFF" mask="url(#mask-5)"></path>
                    <polygon id="Fill-19" fill="#FFFFFF" mask="url(#mask-5)" points="62.0548364 117.547649 62.0884987 117.547649 62.0884987 133.026759 62.0786805 133.026759 62.0786805 133.015534 62.0548364 133.015534"></polygon>
                    <path d="M179.167652,40.9062703 C179.321938,40.9062703 179.439756,40.8697895 179.522509,40.7940215 C179.605262,40.7182536 179.645938,40.6228421 179.645938,40.5077871 L179.645938,40.493756 C179.645938,40.3590574 179.602457,40.2580335 179.515496,40.1906842 C179.428535,40.1219318 179.307912,40.0896603 179.153626,40.0896603 L178.554717,40.0896603 L178.554717,40.9062703 L179.167652,40.9062703 Z M177.938977,39.5466567 L179.176068,39.5466567 C179.547756,39.5466567 179.833886,39.6490837 180.034457,39.8511316 C180.190145,40.0040706 180.265886,40.2075215 180.265886,40.4586782 L180.265886,40.4713062 C180.265886,40.69861 180.211184,40.8824175 180.100379,41.0213254 C179.989574,41.1616364 179.845106,41.2654665 179.665574,41.3328158 L180.347236,42.330427 L179.631912,42.330427 L179.03721,41.4338397 L179.023184,41.4338397 L178.554717,41.4338397 L178.554717,42.330427 L177.938977,42.330427 L177.938977,39.5466567 Z M179.009158,43.3434725 C179.341574,43.3434725 179.650145,43.2803325 179.930665,43.158262 C180.212587,43.0347883 180.458042,42.8692213 180.664223,42.6601579 C180.871808,42.4510945 181.034509,42.202744 181.152327,41.9193158 C181.270145,41.6344844 181.329055,41.3328158 181.329055,41.0143098 L181.329055,41.0002787 C181.329055,40.6817727 181.270145,40.3815072 181.152327,40.0994821 C181.034509,39.8174569 180.871808,39.5719127 180.667029,39.3614462 C180.463652,39.1523828 180.2196,38.9882189 179.937678,38.8675514 C179.657158,38.746884 179.351392,38.6865502 179.023184,38.6865502 C178.692171,38.6865502 178.3836,38.746884 178.101678,38.8703577 C177.821158,38.9938313 177.574301,39.1593983 177.368119,39.3684617 C177.160535,39.5789282 176.997834,39.8258756 176.881418,40.1107069 C176.762197,40.3955383 176.701886,40.6972069 176.701886,41.0143098 L176.701886,41.029744 C176.701886,41.3468469 176.760795,41.6471124 176.87721,41.9291376 C176.992223,42.2111627 177.153522,42.4567069 177.361106,42.6671734 C177.567288,42.8762368 177.812743,43.0418038 178.094665,43.1624713 C178.37799,43.2817356 178.680951,43.3434725 179.009158,43.3434725 L179.009158,43.3434725 Z M179.009158,43.63111 C178.643081,43.63111 178.302249,43.5637608 177.982457,43.426256 C177.664068,43.2887512 177.387756,43.1021376 177.154925,42.8664151 C176.920691,42.6292895 176.738353,42.3542799 176.602301,42.0385801 C176.467652,41.7228804 176.398925,41.386134 176.398925,41.029744 L176.398925,41.0143098 C176.398925,40.6579199 176.467652,40.3211734 176.602301,40.0054737 C176.738353,39.6897739 176.922094,39.4133612 177.15773,39.1748325 C177.394769,38.9363038 177.673886,38.746884 177.993678,38.606573 C178.314873,38.466262 178.657106,38.3961065 179.023184,38.3961065 C179.389262,38.3961065 179.731496,38.466262 180.049886,38.6023636 C180.366873,38.7412715 180.643184,38.9264821 180.877418,39.1636077 C181.111652,39.3993301 181.296795,39.6757428 181.430042,39.9914426 C181.564691,40.3071423 181.633418,40.6438888 181.633418,41.0002787 L181.633418,41.0143098 C181.633418,41.3706998 181.564691,41.7074462 181.430042,42.0231459 C181.296795,42.3388457 181.110249,42.6166615 180.87321,42.8551902 C180.637574,43.0937189 180.361262,43.2817356 180.040068,43.4220467 C179.718873,43.5623577 179.375236,43.63111 179.009158,43.63111 L179.009158,43.63111 Z" id="Fill-20" fill="#FFFFFF" mask="url(#mask-5)"></path>
                    <path d="M107.744727,34.7099961 C104.361662,34.7099961 101.651844,32.0146217 101.651844,28.678026 C101.651844,25.4045702 104.330805,22.72463 107.603065,22.72463 C109.984675,22.72463 112.067532,24.0084757 113.085818,26.2492425 L110.690182,26.2492425 C109.90613,25.2319877 108.998649,24.7928142 107.652156,24.7928142 C105.441662,24.7928142 103.813247,26.5158334 103.813247,28.6934602 C103.813247,30.8556528 105.567896,32.6418118 107.698442,32.6418118 C108.809299,32.6418118 109.624208,32.2657783 110.563948,31.2779889 L113.085818,31.2779889 C112.176935,33.3938788 110.110909,34.7099961 107.744727,34.7099961" id="Fill-21" fill="#FFFFFF" mask="url(#mask-5)"></path>
                    <path d="M117.564312,24.9801294 L116.60774,24.9801294 L116.60774,28.4584392 L117.656883,28.4584392 C119.318961,28.4584392 120.023065,27.9266605 120.023065,26.7045517 C120.023065,25.6704596 119.599481,24.9801294 117.564312,24.9801294 L117.564312,24.9801294 Z M119.645766,34.5072467 L116.60774,30.0720158 L116.60774,34.5072467 L114.463169,34.5072467 L114.463169,22.9287825 L117.798545,22.9287825 C119.382078,22.9287825 120.212416,23.1476677 120.964208,23.788889 C121.762286,24.4637849 122.184468,25.4670086 122.184468,26.6414117 C122.184468,28.443005 121.244727,29.7128196 119.16187,30.2291641 L122.29387,34.5072467 L119.645766,34.5072467 Z" id="Fill-22" fill="#FFFFFF" mask="url(#mask-5)"></path>
                    <polygon id="Fill-23" fill="#FFFFFF" mask="url(#mask-5)" points="123.545829 34.5058435 123.545829 22.9287825 129.764945 22.9287825 129.764945 24.9801294 125.691803 24.9801294 125.691803 27.7063722 129.593829 27.7063722 129.593829 29.7591222 125.691803 29.7591222 125.691803 32.4544967 129.764945 32.4544967 129.764945 34.5058435"></polygon>
                    <path d="M137.030821,25.4507325 C136.357574,25.1055675 135.62121,24.9806907 134.257886,24.9806907 L133.835704,24.9806907 L133.835704,32.4536548 L134.305574,32.4536548 C135.590353,32.4536548 136.482405,32.2965065 137.124795,31.9373103 C138.158509,31.3718569 138.800899,30.1343139 138.800899,28.7410256 C138.800899,27.2523258 138.127652,26.0147828 137.030821,25.4507325 M138.127652,33.8651835 C137.186509,34.3338222 136.138769,34.5064048 134.384119,34.5064048 L131.68973,34.5064048 L131.68973,22.9279407 L134.336431,22.9279407 C136.152795,22.9279407 137.531548,23.2099658 138.441834,23.7571787 C140.053418,24.729534 140.962301,26.5479646 140.962301,28.7410256 C140.962301,31.0743976 139.911756,32.9868366 138.127652,33.8651835" id="Fill-24" fill="#FFFFFF" mask="url(#mask-5)"></path>
                    <polygon id="Fill-25" fill="#FFFFFF" mask="url(#mask-5)" points="142.652571 34.5066854 144.797143 34.5066854 144.797143 22.9282213 142.652571 22.9282213"></polygon>
                    <polygon id="Fill-26" fill="#FFFFFF" mask="url(#mask-5)" points="150.373309 24.9801294 150.373309 34.5072467 148.228738 34.5072467 148.228738 24.9801294 146.082764 24.9801294 146.082764 22.9287825 152.519283 22.9287825 152.519283 24.9801294"></polygon>
                    <path d="M105.113455,40.6472562 L104.392519,40.6472562 L104.392519,43.717261 L105.020883,43.717261 C106.946649,43.717261 107.479636,43.2009165 107.479636,42.1976928 C107.479636,40.9769871 106.758701,40.6472562 105.113455,40.6472562 M108.122026,45.2536665 C107.479636,45.6465373 106.726442,45.770011 105.082597,45.770011 L104.392519,45.770011 L104.392519,50.1729703 L102.247948,50.1729703 L102.247948,38.5959093 L105.113455,38.5959093 C106.649299,38.5959093 107.416519,38.7362203 108.072935,39.127688 C109.075792,39.739444 109.639636,40.835273 109.639636,42.1668244 C109.639636,43.4983758 109.060364,44.6741821 108.122026,45.2536665" id="Fill-27" fill="#FFFFFF" mask="url(#mask-5)"></path>
                    <path d="M114.791938,41.6194712 L113.554847,45.1286494 L116.030431,45.1286494 L114.791938,41.6194712 Z M118.127314,50.17283 L116.890223,47.1799963 L112.772197,47.1799963 L111.488821,50.17283 L109.122639,50.17283 L113.946171,38.5943659 L115.639106,38.5943659 L120.492094,50.17283 L118.127314,50.17283 Z" id="Fill-28" fill="#FFFFFF" mask="url(#mask-5)"></path>
                    <path d="M124.627932,50.3765616 C122.591361,50.3765616 121.009231,49.0618475 120.821283,46.8673834 L123.061231,46.8673834 C123.155205,47.8397386 123.671361,48.3083774 124.627932,48.3083774 C125.550842,48.3083774 126.193231,47.7288929 126.193231,46.8996549 C126.193231,46.4282099 126.005283,45.9918427 125.660244,45.7224456 C125.316608,45.4572578 125.190374,45.409552 123.657335,44.8314707 C122.106062,44.2519862 121.244868,43.1379169 121.244868,41.6814886 C121.244868,39.8490269 122.748452,38.3911956 124.611101,38.3911956 C126.475153,38.3911956 127.931049,39.645576 128.041855,41.6814886 L125.818738,41.6814886 C125.755621,40.8985532 125.316608,40.4593798 124.597075,40.4593798 C123.891569,40.4593798 123.40627,40.9448559 123.40627,41.635186 C123.40627,42.056119 123.625075,42.4181214 124.04866,42.6847123 C124.204348,42.7787207 124.236608,42.7941549 125.332036,43.2010568 C127.681387,44.0794037 128.323777,45.0966585 128.323777,46.6639324 C128.323777,48.762985 126.71079,50.3765616 124.627932,50.3765616" id="Fill-29" fill="#FFFFFF" mask="url(#mask-5)"></path>
                    <path d="M132.770992,50.3765616 C130.734421,50.3765616 129.153694,49.0618475 128.965745,46.8673834 L131.205694,46.8673834 C131.299668,47.8397386 131.814421,48.3083774 132.770992,48.3083774 C133.693901,48.3083774 134.336291,47.7288929 134.336291,46.8996549 C134.336291,46.4282099 134.148343,45.9918427 133.804706,45.7224456 C133.46107,45.4572578 133.334836,45.409552 131.801797,44.8314707 C130.249122,44.2519862 129.387927,43.1379169 129.387927,41.6814886 C129.387927,39.8490269 130.891512,38.3911956 132.755564,38.3911956 C134.618213,38.3911956 136.075512,39.645576 136.186317,41.6814886 L133.9632,41.6814886 C133.898681,40.8985532 133.46107,40.4593798 132.740135,40.4593798 C132.034629,40.4593798 131.550732,40.9448559 131.550732,41.635186 C131.550732,42.056119 131.769538,42.4181214 132.191719,42.6847123 C132.34881,42.7787207 132.379668,42.7941549 133.476499,43.2010568 C135.825849,44.0794037 136.468239,45.0966585 136.468239,46.6639324 C136.468239,48.762985 134.853849,50.3765616 132.770992,50.3765616" id="Fill-30" fill="#FFFFFF" mask="url(#mask-5)"></path>
                    <path d="M140.820779,40.6472562 L140.101247,40.6472562 L140.101247,43.717261 L140.726805,43.717261 C142.653974,43.717261 143.185558,43.2009165 143.185558,42.1976928 C143.185558,40.9769871 142.464623,40.6472562 140.820779,40.6472562 M143.827948,45.2536665 C143.185558,45.6465373 142.433766,45.770011 140.789922,45.770011 L140.101247,45.770011 L140.101247,50.1729703 L137.95387,50.1729703 L137.95387,38.5959093 L140.820779,38.5959093 C142.356623,38.5959093 143.123844,38.7362203 143.78026,39.127688 C144.781714,39.739444 145.346961,40.835273 145.346961,42.1668244 C145.346961,43.4983758 144.767688,44.6741821 143.827948,45.2536665" id="Fill-31" fill="#FFFFFF" mask="url(#mask-5)"></path>
                    <path d="M152.205943,40.4588185 C149.982826,40.4588185 148.291294,42.1509693 148.291294,44.391736 C148.291294,46.5862001 150.013683,48.3092193 152.205943,48.3092193 C154.399605,48.3092193 156.028021,46.6325028 156.028021,44.4071702 C156.028021,42.1832408 154.351917,40.4588185 152.205943,40.4588185 M152.222774,50.3774035 C148.824281,50.3774035 146.129891,47.7283317 146.129891,44.391736 C146.129891,41.0074346 148.792021,38.3906343 152.238203,38.3906343 C155.542722,38.3906343 158.189423,41.0719776 158.189423,44.3763018 C158.189423,47.7606032 155.59041,50.3774035 152.222774,50.3774035" id="Fill-32" fill="#FFFFFF" mask="url(#mask-5)"></path>
                    <path d="M162.981538,40.6472562 L162.024966,40.6472562 L162.024966,44.125566 L163.074109,44.125566 C164.736187,44.125566 165.441694,43.5937873 165.441694,42.3716785 C165.441694,41.3375864 165.016706,40.6472562 162.981538,40.6472562 L162.981538,40.6472562 Z M165.062992,50.1729703 L162.024966,45.7391426 L162.024966,50.1729703 L159.880395,50.1729703 L159.880395,38.5959093 L163.215771,38.5959093 C164.799304,38.5959093 165.628239,38.8147945 166.380031,39.4560158 C167.178109,40.1309117 167.601694,41.1341354 167.601694,42.3085385 C167.601694,44.1101318 166.661953,45.3799464 164.577694,45.8962909 L167.711096,50.1729703 L165.062992,50.1729703 Z" id="Fill-33" fill="#FFFFFF" mask="url(#mask-5)"></path>
                    <polygon id="Fill-34" fill="#FFFFFF" mask="url(#mask-5)" points="172.455943 40.6472562 172.455943 50.1729703 170.309969 50.1729703 170.309969 40.6472562 168.163995 40.6472562 168.163995 38.5959093 174.601917 38.5959093 174.601917 40.6472562"></polygon>
                    <path d="M109.587039,88.9462328 L112.270208,88.9462328 L112.270208,93.6859385 C111.636234,94.1503679 110.857792,94.5278045 109.936286,94.8168452 C109.013377,95.1058859 108.138156,95.2490031 107.312026,95.2490031 C106.111403,95.2490031 105.027195,94.9810091 104.060805,94.4422148 C103.090208,93.9048237 102.328597,93.1653847 101.775974,92.225301 C101.219143,91.2852172 100.942831,90.2328847 100.942831,89.0654971 C100.942831,87.9107376 101.228961,86.8654206 101.799818,85.9309493 C102.372078,84.996478 103.158935,84.2640545 104.161792,83.7308727 C105.164649,83.199094 106.282519,82.9325031 107.514,82.9325031 C108.397636,82.9325031 109.281273,83.0938608 110.163506,83.4165761 C111.048545,83.7392914 111.794727,84.1728524 112.407662,84.715856 L110.64039,86.8906766 C110.209792,86.4837746 109.714675,86.1610593 109.153636,85.9225306 C108.594,85.6840019 108.041377,85.5661407 107.498571,85.5661407 C106.864597,85.5661407 106.292338,85.7190797 105.783195,86.0235545 C105.274052,86.3308356 104.871506,86.7489624 104.578364,87.2807411 C104.282416,87.813923 104.135143,88.4088416 104.135143,89.0654971 C104.135143,89.7347806 104.282416,90.3367148 104.578364,90.8755091 C104.871506,91.4129002 105.279662,91.8352364 105.800026,92.1397112 C106.32039,92.4469923 106.89826,92.5999313 107.532234,92.5999313 C108.132545,92.5999313 108.817013,92.4063022 109.587039,92.02185 L109.587039,88.9462328 Z" id="Fill-35" fill="#FFFFFF" mask="url(#mask-5)"></path>
                    <path d="M118.392966,86.0242561 C117.889434,86.3301341 117.488291,86.7524702 117.195148,87.2898614 C116.900603,87.8286556 116.75333,88.4207681 116.75333,89.0647956 C116.75333,89.7228542 116.903408,90.3205791 117.203564,90.8579702 C117.502317,91.3967645 117.902057,91.8205037 118.401382,92.1319941 C118.899304,92.4434846 119.442109,92.5992298 120.0312,92.5992298 C120.620291,92.5992298 121.160291,92.4434846 121.652603,92.1319941 C122.146317,91.8205037 122.533434,91.3967645 122.816758,90.8579702 C123.098681,90.3205791 123.241745,89.7228542 123.241745,89.0647956 C123.241745,88.4207681 123.098681,87.8286556 122.816758,87.2898614 C122.533434,86.7524702 122.146317,86.3301341 121.652603,86.0242561 C121.160291,85.7183781 120.620291,85.5654391 120.0312,85.5654391 C119.442109,85.5654391 118.896499,85.7183781 118.392966,86.0242561 M123.282421,83.7315743 C124.264239,84.263353 125.032862,84.9943733 125.592499,85.9232322 C126.153538,86.8506879 126.432655,87.8931987 126.432655,89.0479583 C126.432655,90.2153458 126.153538,91.2690815 125.592499,92.2091652 C125.032862,93.1492489 124.264239,93.890091 123.282421,94.4344977 C122.30481,94.9775013 121.209382,95.2497047 119.99894,95.2497047 C118.784291,95.2497047 117.690265,94.9803075 116.711252,94.4429164 C115.732239,93.9041221 114.962213,93.16328 114.401174,92.2175839 C113.841538,91.2718877 113.561018,90.2153458 113.561018,89.0479583 C113.561018,87.8931987 113.841538,86.8506879 114.401174,85.9232322 C114.962213,84.9943733 115.732239,84.263353 116.711252,83.7315743 C117.690265,83.1983925 118.784291,82.9318016 119.99894,82.9318016 C121.209382,82.9318016 122.30481,83.1983925 123.282421,83.7315743" id="Fill-36" fill="#FFFFFF" mask="url(#mask-5)"></path>
                    <path d="M132.04641,86.0242561 C131.542878,86.3301341 131.143138,86.7524702 130.848592,87.2898614 C130.555449,87.8286556 130.408177,88.4207681 130.408177,89.0647956 C130.408177,89.7228542 130.556852,90.3205791 130.857008,90.8579702 C131.157164,91.3967645 131.555501,91.8205037 132.054826,92.1319941 C132.552748,92.4434846 133.095553,92.5992298 133.684644,92.5992298 C134.273735,92.5992298 134.815138,92.4434846 135.306047,92.1319941 C135.799761,91.8205037 136.188281,91.3967645 136.470203,90.8579702 C136.752125,90.3205791 136.89519,89.7228542 136.89519,89.0647956 C136.89519,88.4207681 136.752125,87.8286556 136.470203,87.2898614 C136.188281,86.7524702 135.799761,86.3301341 135.306047,86.0242561 C134.815138,85.7183781 134.273735,85.5654391 133.684644,85.5654391 C133.095553,85.5654391 132.549943,85.7183781 132.04641,86.0242561 M136.937268,83.7315743 C137.917683,84.263353 138.686306,84.9943733 139.247345,85.9232322 C139.806982,86.8506879 140.087501,87.8931987 140.087501,89.0479583 C140.087501,90.2153458 139.806982,91.2690815 139.247345,92.2091652 C138.686306,93.1492489 137.917683,93.890091 136.937268,94.4344977 C135.958255,94.9775013 134.862826,95.2497047 133.652384,95.2497047 C132.439138,95.2497047 131.345112,94.9803075 130.364696,94.4429164 C129.387086,93.9041221 128.61706,93.16328 128.054618,92.2175839 C127.496384,91.2718877 127.214462,90.2153458 127.214462,89.0479583 C127.214462,87.8931987 127.496384,86.8506879 128.054618,85.9232322 C128.61706,84.9943733 129.387086,84.263353 130.364696,83.7315743 C131.345112,83.1983925 132.439138,82.9318016 133.652384,82.9318016 C134.862826,82.9318016 135.958255,83.1983925 136.937268,83.7315743" id="Fill-37" fill="#FFFFFF" mask="url(#mask-5)"></path>
                    <path d="M148.443335,92.0896202 C148.907595,91.806192 149.269465,91.4049025 149.528945,90.8829456 C149.789829,90.3623917 149.921673,89.7674731 149.921673,89.0995927 C149.921673,88.4204874 149.781413,87.8199563 149.505101,87.2979994 C149.22879,86.7774456 148.844478,86.3733499 148.357777,86.0843092 C147.872478,85.7952685 147.315647,85.6507482 146.694296,85.6507482 L144.740478,85.6507482 L144.740478,92.5147626 L146.847179,92.5147626 C147.447491,92.5147626 147.979075,92.3730484 148.443335,92.0896202 M150.064738,83.8673953 C151.022712,84.3654994 151.766088,85.0642482 152.299075,85.9650449 C152.83066,86.8658415 153.095751,87.8999336 153.095751,89.0659181 C153.095751,90.2319025 152.827855,91.2688008 152.29066,92.1752099 C151.75066,93.081619 150.993257,93.783174 150.014244,94.2812781 C149.035231,94.7793822 147.910348,95.0291358 146.6424,95.0291358 L141.633725,95.0291358 L141.633725,83.1195377 L146.763023,83.1195377 C148.005725,83.1195377 149.108166,83.3692913 150.064738,83.8673953" id="Fill-38" fill="#FFFFFF" mask="url(#mask-5)"></path>
                    <path d="M106.681839,105.735006 C106.248436,105.555408 105.80241,105.464206 105.339553,105.464206 C104.704177,105.464206 104.123501,105.618548 103.593319,105.923022 C103.063138,106.230304 102.643761,106.647027 102.333787,107.176 C102.025216,107.706375 101.869527,108.284457 101.869527,108.91305 C101.869527,109.54024 102.025216,110.116918 102.333787,110.643085 C102.643761,111.167848 103.063138,111.585975 103.593319,111.896062 C104.123501,112.206149 104.704177,112.360491 105.339553,112.360491 C105.793995,112.360491 106.238618,112.272095 106.669216,112.095304 C107.101216,111.919915 107.484125,111.674371 107.820748,111.360074 L108.317268,111.89045 C107.909112,112.266483 107.442047,112.565345 106.917475,112.784231 C106.391501,113.004519 105.854306,113.113961 105.304488,113.113961 C104.528852,113.113961 103.81493,112.925945 103.164125,112.548508 C102.511917,112.172475 101.997164,111.663146 101.61706,111.019118 C101.235553,110.376494 101.046203,109.673536 101.046203,108.91305 C101.046203,108.151161 101.238358,107.453816 101.62267,106.818207 C102.006982,106.182598 102.525943,105.677478 103.180956,105.305654 C103.835969,104.93383 104.551294,104.747216 105.328332,104.747216 C105.885164,104.747216 106.420956,104.851046 106.939917,105.058707 C107.457475,105.266367 107.911917,105.555408 108.303242,105.923022 L107.820748,106.488476 C107.49254,106.167164 107.112436,105.916007 106.681839,105.735006" id="Fill-39" fill="#FFFFFF" mask="url(#mask-5)"></path>
                    <path d="M113.163382,109.653752 C113.947434,109.653752 114.550551,109.475557 114.974135,109.119167 C115.399122,108.761374 115.609512,108.246432 115.609512,107.571536 C115.609512,106.912075 115.399122,106.409761 114.974135,106.064596 C114.550551,105.719431 113.947434,105.546849 113.163382,105.546849 L110.9052,105.546849 L110.9052,109.653752 L113.163382,109.653752 Z M115.51694,113.043666 L113.738447,110.359516 C113.488784,110.376353 113.296629,110.383369 113.163382,110.383369 L110.9052,110.383369 L110.9052,113.043666 L110.093096,113.043666 L110.093096,104.817231 L113.163382,104.817231 C114.190083,104.817231 114.985356,105.054357 115.544992,105.530011 C116.106031,106.004263 116.386551,106.676352 116.386551,107.547684 C116.386551,108.229595 116.221044,108.799258 115.891434,109.253865 C115.563226,109.708473 115.091953,110.026979 114.480421,110.206577 L116.456681,113.043666 L115.51694,113.043666 Z" id="Fill-40" fill="#FFFFFF" mask="url(#mask-5)"></path>
                    <polygon id="Fill-41" fill="#FFFFFF" mask="url(#mask-5)" points="118.597044 104.817652 124.102239 104.817652 124.102239 105.54727 119.409148 105.54727 119.409148 108.489591 123.608525 108.489591 123.608525 109.219209 119.409148 109.219209 119.409148 112.313066 124.255122 112.313066 124.255122 113.042683 118.597044 113.042683"></polygon>
                    <path d="M131.27933,111.866035 C131.796888,111.568576 132.205044,111.163077 132.508005,110.648136 C132.810966,110.134598 132.961044,109.563532 132.961044,108.936342 C132.961044,108.307748 132.808161,107.735279 132.500992,107.217532 C132.196629,106.699784 131.782862,106.292882 131.259694,105.99402 C130.73933,105.696561 130.164265,105.547831 129.537304,105.547831 L127.054706,105.547831 L127.054706,112.313628 L129.572369,112.313628 C130.192317,112.313628 130.761771,112.164898 131.27933,111.866035 M131.695901,105.358411 C132.342499,105.720413 132.853044,106.215711 133.226135,106.847111 C133.596421,107.47851 133.784369,108.175856 133.784369,108.936342 C133.784369,109.696827 133.596421,110.391367 133.226135,111.018557 C132.853044,111.64715 132.342499,112.141045 131.690291,112.501644 C131.039486,112.862244 130.317148,113.043245 129.526083,113.043245 L126.244005,113.043245 L126.244005,104.818214 L129.549927,104.818214 C130.333979,104.818214 131.049304,104.997812 131.695901,105.358411" id="Fill-42" fill="#FFFFFF" mask="url(#mask-5)"></path>
                    <polygon id="Fill-43" fill="#FFFFFF" mask="url(#mask-5)" points="135.57226 113.042964 136.384364 113.042964 136.384364 104.817933 135.57226 104.817933"></polygon>
                    <polygon id="Fill-44" fill="#FFFFFF" mask="url(#mask-5)" points="137.807439 104.805305 144.053205 104.805305 144.053205 105.54755 141.336374 105.54755 141.336374 113.042964 140.52427 113.042964 140.52427 105.54755 137.807439 105.54755"></polygon>
                    <path d="M149.206208,110.654029 C149.518987,111.187211 149.942571,111.609547 150.475558,111.919634 C151.008545,112.229722 151.589221,112.384064 152.216182,112.384064 C152.83613,112.384064 153.411195,112.229722 153.939974,111.919634 C154.468753,111.609547 154.890935,111.187211 155.205117,110.654029 C155.517896,110.120847 155.674987,109.53996 155.674987,108.912769 C155.674987,108.285579 155.517896,107.707498 155.205117,107.182735 C154.890935,106.656568 154.468753,106.241248 153.939974,105.93537 C153.411195,105.629492 152.83613,105.476553 152.216182,105.476553 C151.589221,105.476553 151.008545,105.629492 150.475558,105.93537 C149.942571,106.241248 149.518987,106.656568 149.206208,107.182735 C148.890623,107.707498 148.734935,108.285579 148.734935,108.912769 C148.734935,109.53996 148.890623,110.120847 149.206208,110.654029 L149.206208,110.654029 Z M156.980805,113.773143 C156.666623,114.062183 156.331403,114.286681 155.975143,114.443829 C155.618883,114.600978 155.266831,114.679552 154.923195,114.679552 C154.028338,114.679552 153.172753,114.157595 152.357844,113.113681 L152.206364,113.113681 C151.420909,113.113681 150.701377,112.925664 150.047766,112.549631 C149.392753,112.172194 148.87239,111.662865 148.488078,111.018838 C148.103766,110.376213 147.910208,109.673255 147.910208,108.912769 C147.910208,108.150881 148.103766,107.453535 148.488078,106.817926 C148.87239,106.182317 149.392753,105.678601 150.047766,105.305373 C150.701377,104.933549 151.420909,104.746936 152.206364,104.746936 C152.989013,104.746936 153.709948,104.933549 154.364961,105.305373 C155.019974,105.678601 155.537532,106.182317 155.923247,106.817926 C156.306156,107.453535 156.498312,108.150881 156.498312,108.912769 C156.498312,109.563812 156.358052,110.174165 156.074727,110.742425 C155.792805,111.310684 155.405688,111.791951 154.909169,112.183419 C154.416857,112.57629 153.854416,112.84709 153.227455,112.99582 C153.862831,113.646863 154.454727,113.972384 155.005948,113.972384 C155.49826,113.972384 156.035455,113.718421 156.61613,113.207689 L156.980805,113.773143 Z" id="Fill-45" fill="#FFFFFF" mask="url(#mask-5)"></path>
                    <path d="M159.751777,111.678299 C160.210426,112.148341 160.847205,112.384064 161.662114,112.384064 C162.478426,112.384064 163.113803,112.148341 163.569647,111.678299 C164.024088,111.206854 164.251309,110.548796 164.251309,109.701317 L164.251309,104.805866 L165.06201,104.805866 L165.06201,109.701317 C165.06201,110.767681 164.763257,111.603934 164.164348,112.207272 C163.564036,112.812012 162.729491,113.113681 161.662114,113.113681 C160.597543,113.113681 159.761595,112.812012 159.157075,112.207272 C158.553958,111.603934 158.2524,110.767681 158.2524,109.701317 L158.2524,104.805866 L159.063101,104.805866 L159.063101,109.701317 C159.063101,110.548796 159.293127,111.206854 159.751777,111.678299" id="Fill-46" fill="#FFFFFF" mask="url(#mask-5)"></path>
                    <path d="M168.379714,110.124495 L172.309792,110.124495 L170.333532,105.676636 L168.379714,110.124495 Z M173.60439,113.042964 L172.626779,110.854112 L168.061325,110.854112 L167.09774,113.042964 L166.22813,113.042964 L169.93239,104.817933 L170.779558,104.817933 L174.486623,113.042964 L173.60439,113.042964 Z" id="Fill-47" fill="#FFFFFF" mask="url(#mask-5)"></path>
                    <polygon id="Fill-48" fill="#FFFFFF" mask="url(#mask-5)" points="175.837745 104.817652 176.649849 104.817652 176.649849 112.313066 180.272758 112.313066 180.272758 113.042683 175.837745 113.042683"></polygon>
                    <polygon id="Fill-49" fill="#FFFFFF" mask="url(#mask-5)" points="181.873403 113.042964 182.685506 113.042964 182.685506 104.817933 181.873403 104.817933"></polygon>
                    <polygon id="Fill-50" fill="#FFFFFF" mask="url(#mask-5)" points="184.106899 104.805305 190.354068 104.805305 190.354068 105.54755 187.637236 105.54755 187.637236 113.042964 186.82373 113.042964 186.82373 105.54755 184.106899 105.54755"></polygon>
                    <polygon id="Fill-51" fill="#FFFFFF" mask="url(#mask-5)" points="197.730047 104.817652 194.565787 110.11299 194.565787 113.042683 193.753683 113.042683 193.753683 110.11299 190.541735 104.817652 191.388904 104.817652 194.166047 109.241658 196.882878 104.817652"></polygon>
                    <path d="M56.5005506,70.8531287 L63.0254338,70.8531287 L59.7966545,62.4400809 L56.5005506,70.8531287 Z M66.4575896,79.7362184 L64.8417974,75.5633691 L54.6505247,75.5633691 L53.0024727,79.7362184 L46.678161,79.7362184 L56.8035117,56.1485354 L63.1278234,56.1485354 L73.0147325,79.7362184 L66.4575896,79.7362184 Z" id="Fill-52" fill="#C6CE00" mask="url(#mask-5)"></path>
                </g>
            </g>
        </g>
    </g>
</svg>