<?xml version="1.0" encoding="UTF-8"?>
<svg width="74px" height="52px" viewBox="0 0 74 52" version="1.1" xmlns="http://www.w3.org/2000/svg" xmlns:xlink="http://www.w3.org/1999/xlink">
    <title>CF272E9B-247B-432A-968D-37CDD69DF9AF</title>
    <defs>
        <linearGradient x1="0%" y1="50%" x2="100%" y2="50%" id="linearGradient-1">
            <stop stop-color="#6CC0A4" offset="0%"></stop>
            <stop stop-color="#1E507A" offset="100%"></stop>
        </linearGradient>
    </defs>
    <g id="Credit-passport-Mar-2021" stroke="none" stroke-width="1" fill="none" fill-rule="evenodd">
        <g id="1.b-Unlock-CP" transform="translate(-805.000000, -1184.000000)" fill="url(#linearGradient-1)" fill-rule="nonzero">
            <g id="3" transform="translate(183.000000, 1125.000000)">
                <g id="Qualities" transform="translate(575.000000, 59.000000)">
                    <g id="Icons/Score" transform="translate(42.000000, 0.000000)">
                        <path d="M78.8849024,0.244069831 C79.0828536,0.504804995 79.0168699,0.895907742 78.7529349,1.09145912 L73.2403686,4.93702034 L73.8041556,4.93730279 C75.4537487,4.93730279 76.7734232,6.24097862 76.7734232,7.87057339 L76.7734232,44.1779451 C76.7734232,45.7423561 75.4537487,47.0460319 73.8041556,47.0460319 L12.8863748,47.0457494 L5.97288603,51.8696324 L5.83775136,51.9436812 C5.7775742,51.9765338 5.72214787,52 5.6429674,52 C5.44501623,52 5.24706505,51.9348162 5.1150976,51.7392648 C4.91714642,51.4785297 4.98313015,51.0874269 5.24706505,50.8918756 L10.7590595,47.0457494 L10.2618282,47.0460319 C8.61223504,47.0460319 7.29256053,45.7423561 7.29256053,44.1127613 L7.29256053,7.87057339 C7.29256053,6.24097862 8.61223504,4.93730279 10.2618282,4.93730279 L71.1130533,4.93702034 L78.027114,0.113702249 C78.2910489,-0.0818491249 78.6869512,-0.0166653338 78.8849024,0.244069831 Z M69.2443942,6.24069616 L10.2618282,6.24069616 C9.33805601,6.24069616 8.61223504,6.95800032 8.61223504,7.87057339 L8.61223504,44.1779451 C8.61223504,45.0905181 9.33805601,45.8075398 10.2618282,45.8075398 L12.5340217,45.8075398 L21.3164556,39.679981 L14.2868354,39.6802635 C13.9569168,39.6802635 13.6929819,39.4195283 13.6929819,39.0936094 C13.6929819,38.7676904 13.9569168,38.5069552 14.2868354,38.5069552 L22.9977209,38.5066728 L28.2302303,34.8563805 L14.2868354,34.8566629 C13.9569168,34.8566629 13.6929819,34.5959278 13.6929819,34.2700088 C13.6929819,33.9440899 13.9569168,33.6833547 14.2868354,33.6833547 L29.9114956,33.6830722 L38.7665115,27.5049525 L38.7667975,25.8612998 C38.7667975,25.6657484 38.8987649,25.5353808 39.0967161,25.5353808 L39.4266347,25.5353808 C39.6245859,25.5353808 39.7565533,25.6657484 39.7565533,25.8612998 L39.7562674,26.8146562 L69.2443942,6.24069616 Z M73.8041556,6.24069616 L71.3717095,6.24069616 L39.7542879,28.3001948 L39.7517562,28.3357802 C39.7264126,28.4960125 39.6025913,28.599019 39.4266347,28.599019 L39.3260535,28.5987365 L32.0388109,33.6830722 L35.6655624,33.6833547 C35.995481,33.6833547 36.2594159,33.9440899 36.2594159,34.2700088 C36.2594159,34.5959278 36.0614647,34.8566629 35.7315461,34.8566629 L30.3568858,34.8563805 L25.1250362,38.5066728 L42,38.5069552 C42.3299186,38.5069552 42.5938535,38.7676904 42.5938535,39.0936094 C42.5938535,39.4195283 42.3299186,39.6802635 42,39.6802635 L23.4437709,39.679981 L14.661337,45.8075398 L73.8041556,45.8075398 C74.7279277,45.8075398 75.4537487,45.0905181 75.4537487,44.1779451 L75.4537487,7.87057339 C75.4537487,6.95800032 74.7279277,6.24069616 73.8041556,6.24069616 Z M44.9692676,25.6005646 C45.1672188,25.6005646 45.2991863,25.7309322 45.2991863,25.9264835 L45.2991863,28.3382838 C45.2991863,28.5338352 45.1672188,28.6642028 44.9692676,28.6642028 L44.639349,28.6642028 C44.4413978,28.6642028 44.3094304,28.5338352 44.3094304,28.3382838 L44.3094304,25.9264835 C44.3094304,25.7309322 44.4413978,25.6005646 44.639349,25.6005646 L44.9692676,25.6005646 Z M48.2024702,25.6005646 C48.4004213,25.6005646 48.5323888,25.7309322 48.5323888,25.9264835 L48.5323888,28.3382838 C48.5323888,28.5338352 48.4004213,28.6642028 48.2024702,28.6642028 L47.8725515,28.6642028 C47.6746004,28.6642028 47.5426329,28.5338352 47.5426329,28.3382838 L47.5426329,25.9264835 C47.5426329,25.7309322 47.6746004,25.6005646 47.8725515,25.6005646 L48.2024702,25.6005646 Z M51.369689,25.6005646 C51.5676402,25.6005646 51.6996076,25.7309322 51.6996076,25.9264835 L51.6996076,28.3382838 C51.6996076,28.5338352 51.5676402,28.6642028 51.369689,28.6642028 L51.0397704,28.6642028 C50.8418192,28.6642028 50.7098517,28.5338352 50.7098517,28.3382838 L50.7098517,25.9264835 C50.7098517,25.7309322 50.8418192,25.6005646 51.0397704,25.6005646 L51.369689,25.6005646 Z M54.6028915,25.6005646 C54.8008427,25.6005646 54.9328101,25.7309322 54.9328101,25.9264835 L54.9328101,28.3382838 C54.9328101,28.5338352 54.8008427,28.6642028 54.6028915,28.6642028 L54.2729729,28.6642028 C54.0750217,28.6642028 53.9430543,28.5338352 53.9430543,28.3382838 L53.9430543,25.9264835 C53.9430543,25.7309322 54.0750217,25.6005646 54.2729729,25.6005646 L54.6028915,25.6005646 Z M69.7791483,25.5353808 C69.9770995,25.5353808 70.1090669,25.6657484 70.1090669,25.8612998 L70.1090669,28.2731 C70.1090669,28.4686514 69.9770995,28.599019 69.7791483,28.599019 L69.4492297,28.599019 C69.2512785,28.599019 69.1193111,28.4686514 69.1193111,28.2731 L69.1193111,25.8612998 C69.1193111,25.6657484 69.2512785,25.5353808 69.4492297,25.5353808 L69.7791483,25.5353808 Z M66.5459458,25.5353808 C66.743897,25.5353808 66.8758644,25.6657484 66.8758644,25.8612998 L66.8758644,28.2731 C66.8758644,28.4686514 66.743897,28.599019 66.5459458,28.599019 L66.2160272,28.599019 C66.018076,28.599019 65.8861085,28.4686514 65.8861085,28.2731 L65.8861085,25.8612998 C65.8861085,25.6657484 66.018076,25.5353808 66.2160272,25.5353808 L66.5459458,25.5353808 Z M63.3127432,25.5353808 C63.5106944,25.5353808 63.6426619,25.6657484 63.6426619,25.8612998 L63.6426619,28.2731 C63.6426619,28.4686514 63.5106944,28.599019 63.3127432,28.599019 L62.9828246,28.599019 C62.7848734,28.599019 62.652906,28.4686514 62.652906,28.2731 L62.652906,25.8612998 C62.652906,25.6657484 62.7848734,25.5353808 62.9828246,25.5353808 L63.3127432,25.5353808 Z M60.1455244,25.5353808 C60.3434756,25.5353808 60.4754431,25.6657484 60.4754431,25.8612998 L60.4754431,28.2731 C60.4754431,28.4686514 60.3434756,28.599019 60.1455244,28.599019 L59.8156058,28.599019 C59.6176546,28.599019 59.4856872,28.4686514 59.4856872,28.2731 L59.4856872,25.8612998 C59.4856872,25.6657484 59.6176546,25.5353808 59.8156058,25.5353808 L60.1455244,25.5353808 Z M36.1934322,25.5353808 C36.3913834,25.5353808 36.5233508,25.6657484 36.5233508,25.8612998 L36.5233508,28.2731 C36.5233508,28.4686514 36.3913834,28.599019 36.1934322,28.599019 L35.8635136,28.599019 C35.6655624,28.599019 35.5335949,28.4686514 35.5335949,28.2731 L35.5335949,25.8612998 C35.5335949,25.6657484 35.6655624,25.5353808 35.8635136,25.5353808 L36.1934322,25.5353808 Z M32.9602296,25.5353808 C33.1581808,25.5353808 33.2901483,25.6657484 33.2901483,25.8612998 L33.2901483,28.2731 C33.2901483,28.4686514 33.1581808,28.599019 32.9602296,28.599019 L32.630311,28.599019 C32.4323598,28.599019 32.3003924,28.4686514 32.3003924,28.2731 L32.3003924,25.8612998 C32.3003924,25.6657484 32.4323598,25.5353808 32.630311,25.5353808 L32.9602296,25.5353808 Z M29.7270271,25.5353808 C29.9249783,25.5353808 30.0569457,25.6657484 30.0569457,25.8612998 L30.0569457,28.2731 C30.0569457,28.4686514 29.9249783,28.599019 29.7270271,28.599019 L29.3971085,28.599019 C29.1991573,28.599019 29.0671899,28.4686514 29.0671899,28.2731 L29.0671899,25.8612998 C29.0671899,25.6657484 29.1991573,25.5353808 29.3971085,25.5353808 L29.7270271,25.5353808 Z M24.2503779,25.5353808 C24.4483291,25.5353808 24.5802965,25.6657484 24.5802965,25.8612998 L24.5802965,28.2731 C24.5802965,28.4686514 24.4483291,28.599019 24.2503779,28.599019 L23.9204593,28.599019 C23.7225081,28.599019 23.5905407,28.4686514 23.5905407,28.2731 L23.5905407,25.8612998 C23.5905407,25.6657484 23.7225081,25.5353808 23.9204593,25.5353808 L24.2503779,25.5353808 Z M21.0171754,25.5353808 C21.2151266,25.5353808 21.347094,25.6657484 21.347094,25.8612998 L21.347094,28.2731 C21.347094,28.4686514 21.2151266,28.599019 21.0171754,28.599019 L20.6872568,28.599019 C20.4893056,28.599019 20.3573381,28.4686514 20.3573381,28.2731 L20.3573381,25.8612998 C20.3573381,25.6657484 20.4893056,25.5353808 20.6872568,25.5353808 L21.0171754,25.5353808 Z M17.7839728,25.5353808 C17.981924,25.5353808 18.1138915,25.6657484 18.1138915,25.8612998 L18.1138915,28.2731 C18.1138915,28.4686514 17.981924,28.599019 17.7839728,28.599019 L17.4540542,28.599019 C17.256103,28.599019 17.1241356,28.4686514 17.1241356,28.2731 L17.1241356,25.8612998 C17.1241356,25.6657484 17.256103,25.5353808 17.4540542,25.5353808 L17.7839728,25.5353808 Z M14.5507703,25.5353808 C14.7487215,25.5353808 14.8806889,25.6657484 14.8806889,25.8612998 L14.8806889,28.2731 C14.8806889,28.4686514 14.7487215,28.599019 14.5507703,28.599019 L14.2208517,28.599019 C14.0229005,28.599019 13.8909331,28.4686514 13.8909331,28.2731 L13.8909331,25.8612998 C13.8909331,25.6657484 14.0229005,25.5353808 14.2208517,25.5353808 L14.5507703,25.5353808 Z M17.8499566,16.40965 L18.9716799,17.4525907 L20.621273,17.4525907 L20.621273,18.6910827 L17.5860217,18.6910827 L17.5860217,16.40965 L17.8499566,16.40965 Z M16.9921681,16.3444662 L16.9921681,18.6258989 L13.9569168,18.6258989 L13.9569168,17.3874069 L15.8044611,17.3874069 L16.9261844,16.3444662 L16.9921681,16.3444662 Z M20.621273,15.6274445 L20.621273,16.8659366 L19.1696311,16.8659366 L18.3118426,16.0185473 L18.3118426,15.6274445 L20.621273,15.6274445 Z M16.2663472,15.6274445 L16.2663472,15.8229959 L16.2766571,15.9105866 L16.3220209,16.0613242 C16.3282069,16.0878051 16.3323309,16.116323 16.3323309,16.1489149 L15.5405262,16.8659366 L13.9569168,16.8659366 L13.9569168,15.6274445 L16.2663472,15.6274445 Z M17.7179891,14.9104228 L17.7179891,15.8229959 L16.794217,15.8229959 L16.794217,14.9104228 L17.7179891,14.9104228 Z M20.621273,13.932666 L20.621273,15.1059742 L18.3118426,15.1059742 L18.3118426,14.7148715 L19.1696311,13.932666 L20.621273,13.932666 Z M15.5405262,13.932666 L16.2663472,14.6496877 C16.2135602,14.7018347 16.2030028,14.7956994 16.2008913,14.8645334 L16.2003634,15.1059742 L13.8909331,15.1059742 L13.8909331,13.932666 L15.5405262,13.932666 Z M20.6872568,12.042336 L20.6872568,13.3460119 L19.0376636,13.3460119 L17.981924,14.3237687 L17.6520054,14.3237687 L17.6520054,12.042336 L20.6872568,12.042336 Z M16.9921681,12.042336 L16.9921681,14.3237687 L16.8602007,14.3237687 L15.8044611,13.3460119 L13.9569168,13.3460119 L13.9569168,12.042336 L16.9921681,12.042336 Z" id="Credit-card"></path>
                    </g>
                </g>
            </g>
        </g>
    </g>
</svg>