<?xml version="1.0" encoding="UTF-8"?>
<svg width="84px" height="47px" viewBox="0 0 84 47" version="1.1" xmlns="http://www.w3.org/2000/svg" xmlns:xlink="http://www.w3.org/1999/xlink">
    <title>59D3FBD2-B5DB-4CEF-8C6D-5DF29521C0F5</title>
    <defs>
        <linearGradient x1="0%" y1="50%" x2="100%" y2="50%" id="linearGradient-1">
            <stop stop-color="#6CC0A4" offset="0%"></stop>
            <stop stop-color="#1E507A" offset="100%"></stop>
        </linearGradient>
    </defs>
    <g id="Credit-passport-Mar-2021" stroke="none" stroke-width="1" fill="none" fill-rule="evenodd">
        <g id="1.b-Unlock-CP" transform="translate(-558.000000, -1187.000000)" fill="url(#linearGradient-1)" fill-rule="nonzero">
            <g id="3" transform="translate(183.000000, 1125.000000)">
                <g id="Qualities" transform="translate(333.000000, 59.000000)">
                    <g id="Icons/Score" transform="translate(42.000000, 0.000000)">
                        <path d="M73.2274809,3 C74.3175573,3 74.9587786,3.64122137 74.9587786,4.79541985 L74.9581374,46.1535573 L82.4610687,46.1541985 C83.1664122,46.1541985 83.551145,46.5389313 83.551145,47.1801527 L83.551145,49.1679389 C83.4870229,49.3603053 83.2946565,49.5526718 83.1022901,49.5526718 L0.384732824,49.5526718 C0.192366412,49.5526718 0,49.3603053 0,49.1679389 L0,47.1801527 C0,46.5389313 0.512977099,46.1541985 1.28244275,46.1541985 L7.88638168,46.1535573 L7.8870229,4.79541985 C7.82290076,3.64122137 8.97709924,3 10.0671756,3 L73.2274809,3 Z M82.4610687,46.9236641 L1.2269296,46.9248516 L1.2269296,46.9248516 L1.13757422,46.9331637 C1.00458015,46.9521628 0.833587786,47.0091603 0.833587786,47.1801527 L0.833587786,48.719084 L82.7175573,48.719084 L82.7175573,47.1801527 C82.7175573,46.9877863 82.7175573,46.9236641 82.4610687,46.9236641 Z M73.2916031,3.83358779 L10.0671756,3.83358779 C9.36183206,3.83358779 8.65584733,4.21832061 8.65584733,4.79541985 L8.65584733,46.1535573 L74.189313,46.1535573 L74.189313,4.79541985 C74.189313,4.09007634 73.9328244,3.83358779 73.2916031,3.83358779 Z M72.8427481,6.0778626 L72.8427481,44.2946565 L10.4519084,44.2946565 L10.4519084,6.0778626 L72.8427481,6.0778626 Z M72.0091603,6.91145038 L11.221374,6.91145038 L11.221374,43.5251908 L72.0091603,43.5251908 L72.0091603,6.91145038 Z M42.8977099,36.2152672 C43.2183206,36.2152672 43.4748092,36.4717557 43.4748092,36.7923664 C43.4748092,37.1129771 43.2183206,37.3694656 42.8977099,37.3694656 L15.0687023,37.3694656 C14.7480916,37.3694656 14.4916031,37.1129771 14.4916031,36.7923664 C14.4916031,36.4717557 14.7480916,36.2152672 15.0687023,36.2152672 L42.8977099,36.2152672 Z M57.0045802,16.4656489 C57.1755725,16.3516539 57.3465649,16.3389878 57.4725222,16.4276506 L57.6223187,16.5563033 L57.6223187,16.5563033 L57.805817,16.7012808 L57.805817,16.7012808 L57.9989426,16.8442453 L57.9989426,16.8442453 L58.1531759,16.9529866 L58.1531759,16.9529866 L58.3272067,17.070688 L58.3272067,17.070688 L58.5205301,17.1958194 L58.5205301,17.1958194 L58.7326414,17.3268505 L58.7326414,17.3268505 L58.9630357,17.4622513 L58.9630357,17.4622513 L59.2112083,17.6004916 C59.2540239,17.6236832 59.2975592,17.6469295 59.3418037,17.6701983 L59.6156971,17.8098288 L59.6156971,17.8098288 L59.9061069,17.9484733 C61.348855,18.6137405 63.3526718,19.1908397 65.6610687,18.9022901 C65.7251908,18.9022901 65.8534351,18.9022901 65.9175573,18.9664122 C65.9816794,19.0305344 66.0458015,19.0946565 66.1099237,19.2229008 L66.1532377,19.8179685 L66.1532377,19.8179685 L66.1773545,20.308933 L66.1773545,20.308933 L66.1889572,20.663885 L66.1889572,20.663885 L66.1965016,21.0603778 L66.1965016,21.0603778 L66.1984267,21.4953519 L66.1984267,21.4953519 L66.1895546,22.1298896 L66.1895546,22.1298896 L66.172298,22.6427561 L66.172298,22.6427561 L66.1548776,23.000569 L66.1548776,23.000569 L66.1321848,23.3700458 L66.1321848,23.3700458 L66.1037571,23.7502802 L66.1037571,23.7502802 L66.0691322,24.1403655 L66.0691322,24.1403655 L66.0278473,24.5393954 L66.0278473,24.5393954 L65.9794402,24.9464634 L65.9794402,24.9464634 L65.9234482,25.3606629 L65.9234482,25.3606629 L65.8594089,25.7810875 L65.8594089,25.7810875 L65.7868599,26.2068308 L65.7868599,26.2068308 L65.7053385,26.6369861 L65.7053385,26.6369861 L65.6610687,26.8534351 C65.6232261,27.0331873 65.5821266,27.2155761 65.5375413,27.4000905 L65.4436553,27.7718017 C65.4107655,27.8965492 65.3762587,28.02209 65.340067,28.1482726 L65.2263698,28.5285944 C64.2158277,31.7751231 62.0656378,35.3405474 57.6515829,36.7141153 L57.389313,36.7923664 L57.1969466,36.7923664 L57.06014,36.7527453 L57.06014,36.7527453 L56.7827317,36.6664437 C53.8915984,35.7248429 50.2707692,33.2143511 48.9251908,26.8534351 L48.8801236,26.6364821 L48.8801236,26.6364821 L48.7972654,26.2050341 L48.7972654,26.2050341 L48.7237015,25.7776615 L48.7237015,25.7776615 L48.6589433,25.3553221 L48.6589433,25.3553221 L48.6025021,24.9389737 L48.6025021,24.9389737 L48.5538893,24.5295741 L48.5538893,24.5295741 L48.5126161,24.128081 L48.5126161,24.128081 L48.478194,23.7354522 L48.478194,23.7354522 L48.4383376,23.1652248 L48.4383376,23.1652248 L48.4189051,22.7989471 L48.4189051,22.7989471 L48.3992426,22.2727358 L48.3992426,22.2727358 L48.3894975,21.7772442 L48.3894975,21.7772442 L48.387696,21.4655793 L48.387696,21.4655793 L48.3908149,21.0284705 L48.3908149,21.0284705 L48.3960623,20.7587205 L48.3960623,20.7587205 L48.4119617,20.2755045 L48.4119617,20.2755045 L48.4419924,19.7057572 L48.4419924,19.7057572 L48.4763359,19.2229008 C48.4763359,19.0946565 48.540458,19.0305344 48.6045802,18.9664122 C48.6687023,18.9022901 48.7328244,18.9022901 48.8610687,18.9022901 C51.2310732,19.1939829 53.2693485,18.5941537 54.7401069,17.8926919 L55.0362266,17.7463707 L55.0362266,17.7463707 L55.3156868,17.5987039 L55.3156868,17.5987039 L55.5780234,17.4512458 L55.5780234,17.4512458 L55.8227724,17.3055512 C55.8620725,17.281502 55.9006204,17.2575912 55.9384065,17.2338509 L56.1559038,17.0937162 C56.190604,17.0707881 56.224523,17.0480953 56.2576511,17.0256704 L56.5341911,16.831951 L56.5341911,16.831951 L56.694053,16.7134296 L56.694053,16.7134296 L56.8959383,16.5554714 L56.8959383,16.5554714 L57.0045802,16.4656489 L57.0045802,16.4656489 Z M57.5449799,17.4386132 L57.2610687,17.2351145 L57.2610687,17.2351145 L57.0962405,17.3602331 L57.0962405,17.3602331 L56.9098799,17.4950961 L56.9098799,17.4950961 L56.7024936,17.6380485 L56.7024936,17.6380485 L56.4745883,17.7874353 L56.4745883,17.7874353 L56.2266704,17.9416015 C54.7230987,18.8516257 52.2239186,19.9211196 49.1816794,19.6717557 L49.159688,20.0510477 L49.159688,20.0510477 L49.1440452,20.4185122 L49.1440452,20.4185122 L49.1355028,20.6997063 L49.1355028,20.6997063 L49.1274934,21.1714185 L49.1274934,21.1714185 L49.1265085,21.5166043 L49.1265085,21.5166043 L49.1335381,22.0760441 L49.1335381,22.0760441 L49.1450478,22.4742082 L49.1450478,22.4742082 L49.1629376,22.8904799 L49.1629376,22.8904799 L49.1879975,23.3230971 C49.1928156,23.3964641 49.1979653,23.4704388 49.2034632,23.5449845 L49.2407594,23.9988157 C49.3172773,24.8423232 49.439901,25.7460285 49.6305344,26.6610687 L49.6681699,26.8410062 L49.6681699,26.8410062 L49.750508,27.2055465 C50.5494023,30.5734721 52.5790471,34.6243748 57.2610687,36.0229008 L57.5258962,35.9389745 L57.5258962,35.9389745 L57.7948103,35.8456625 C57.8399384,35.8293024 57.8852132,35.8125317 57.9306229,35.7953407 L58.2046053,35.6870732 C60.7292181,34.6469576 63.5904986,32.2764615 64.8258448,26.9543052 L64.8916031,26.6610687 C65.0957814,25.7515468 65.2247362,24.8635174 65.3049087,24.0389755 L65.3439602,23.5957741 L65.3439602,23.5957741 L65.3742895,23.1666798 L65.3742895,23.1666798 L65.39685,22.753207 L65.39685,22.753207 L65.4125954,22.3568702 L65.4125954,22.3568702 L65.4224792,21.9791839 L65.4224792,21.9791839 L65.4284004,21.450937 L65.4284004,21.450937 L65.4264968,20.9731727 L65.4264968,20.9731727 L65.4199867,20.5510021 L65.4199867,20.5510021 L65.4045802,19.7358779 L65.4045802,19.7358779 C62.9251908,19.9295802 60.8202926,19.2338661 59.3302815,18.4971921 L59.0308558,18.3444706 C58.9824401,18.3190124 58.9347752,18.2935751 58.8878711,18.2681934 L58.6156535,18.1168496 L58.6156535,18.1168496 L58.362166,17.9685115 L58.362166,17.9685115 L58.1278818,17.8248489 L58.1278818,17.8248489 L57.8134965,17.6217746 L57.8134965,17.6217746 L57.5449799,17.4386132 L57.5449799,17.4386132 Z M42.8977099,31.9832061 C43.2183206,31.9832061 43.4748092,32.2396947 43.4748092,32.5603053 C43.4748092,32.880916 43.2183206,33.1374046 42.8977099,33.1374046 L15.0687023,33.1374046 C14.7480916,33.1374046 14.4916031,32.880916 14.4916031,32.5603053 C14.4916031,32.2396947 14.7480916,31.9832061 15.0687023,31.9832061 L42.8977099,31.9832061 Z M42.8977099,27.751145 C43.2183206,27.751145 43.4748092,28.0076336 43.4748092,28.3282443 C43.4748092,28.648855 43.2183206,28.9053435 42.8977099,28.9053435 L15.0687023,28.9053435 C14.7480916,28.9053435 14.4916031,28.648855 14.4916031,28.3282443 C14.4916031,28.0076336 14.7480916,27.751145 15.0687023,27.751145 L42.8977099,27.751145 Z M41.8076336,15.3114504 C42,15.5679389 41.9358779,15.9526718 41.6793893,16.1450382 L34.048855,21.9160305 C33.9206107,21.9801527 33.7923664,22.0442748 33.6641221,22.0442748 C33.5358779,22.0442748 33.4076336,21.9801527 33.3435115,21.9160305 L28.2137405,18.5175573 L22.5068702,21.659542 L22.3793296,21.7001791 C22.2321742,21.7426633 22.0936387,21.7592875 21.9938931,21.659542 L16.4152672,19.0946565 C16.0946565,18.9664122 15.9664122,18.5816794 16.1587786,18.3251908 C16.351145,18.0687023 16.6717557,17.8763359 16.9282443,18.0687023 L22.1862595,20.5053435 L27.9572519,17.2992366 C28.1496183,17.1709924 28.4061069,17.1709924 28.5984733,17.2992366 L33.6641221,20.6335878 L40.9740458,15.1832061 C41.2305344,14.9908397 41.6152672,15.0549618 41.8076336,15.3114504 Z" id="Data"></path>
                    </g>
                </g>
            </g>
        </g>
    </g>
</svg>