<?xml version="1.0" encoding="UTF-8"?>
<svg width="57px" height="52px" viewBox="0 0 57 52" version="1.1" xmlns="http://www.w3.org/2000/svg" xmlns:xlink="http://www.w3.org/1999/xlink">
    <title>6BA4B644-B055-4B69-9AA3-EED5E0BB224E</title>
    <defs>
        <linearGradient x1="0%" y1="50%" x2="100%" y2="50%" id="linearGradient-1">
            <stop stop-color="#6CC0A4" offset="0%"></stop>
            <stop stop-color="#1E507A" offset="100%"></stop>
        </linearGradient>
    </defs>
    <g id="Credit-passport-Mar-2021" stroke="none" stroke-width="1" fill="none" fill-rule="evenodd">
        <g id="1.b-Unlock-CP" transform="translate(-1057.000000, -1184.000000)" fill="url(#linearGradient-1)" fill-rule="nonzero">
            <g id="3" transform="translate(183.000000, 1125.000000)">
                <g id="Qualities" transform="translate(818.000000, 59.000000)">
                    <g id="Icons/Score" transform="translate(42.000000, 0.000000)">
                        <path d="M69.1042129,0 C70.1784922,0 71,0.823386114 71,1.9001218 L71,30.9719854 C71,31.0540894 70.9764026,31.1361934 70.934306,31.2080777 C70.8002227,34.2682722 69.4252965,36.9704468 67.2107152,38.7980032 L67.018847,38.952497 L66.9556541,39.0158343 L70.7472284,49.3398295 C70.8104213,49.5298417 70.7472284,49.7198538 70.6840355,49.909866 C70.5576497,49.9732034 70.4312639,50.0365408 70.304878,50.0365408 L70.2574834,50.0266443 L70.2574834,50.0266443 L70.162694,49.9830999 L70.162694,49.9830999 L70.1152993,49.9732034 L67.0820399,48.6431181 L65.6286031,51.6199756 C65.5654102,51.8099878 65.3758315,51.9366626 65.1862528,51.9366626 C65.0177384,51.9366626 64.8492239,51.8365739 64.7694743,51.6808803 L64.7439024,51.6199756 L60.9125166,41.2320097 L60.4227716,41.2326431 L56.5920177,51.683313 C56.5358463,51.8522127 56.3798144,51.9710681 56.2126869,51.9953952 L56.1496674,52 C55.981153,52 55.8126386,51.8999113 55.732889,51.7442177 L55.7073171,51.683313 L54.3170732,48.7064555 L51.2838137,50.0365408 C51.2206208,50.0998782 51.1574279,50.0998782 51.094235,50.0998782 C50.9046563,50.0998782 50.7782705,50.0365408 50.7150776,49.9732034 C50.60449,49.8069428 50.5422845,49.6406821 50.5707954,49.4744214 L50.5886918,49.4031669 L52.5476718,44.0828258 L53.748337,40.7892814 L53.7477051,40.725944 L15.8957871,40.725944 C14.8215078,40.725944 14,39.9025579 14,38.8258222 L14,11.4640682 C14,11.3373934 14.0631929,11.2107186 14.1263858,11.0840438 L14.9478936,10.2606577 L14.9472616,10.3246285 L24.1740576,1.01339829 L25.0587583,0.126674787 C25.1472284,0.0823386114 25.2356984,0.0380024361 25.3241685,0.0153909866 L25.3728516,0.00554132388 C25.3947495,0.00184710796 25.4163326,0 25.4379157,0 L69.1042129,0 Z M55.187284,39.751676 L54.8226164,40.725944 L54.7979712,40.725944 L53.6219512,43.8928136 L51.9157428,48.5164434 L54.3170732,47.5663825 C54.3802661,47.5030451 54.443459,47.5030451 54.5066519,47.5030451 C54.6751663,47.5030451 54.8436807,47.6031338 54.9234303,47.7588274 L54.9490022,47.819732 L56.0864745,50.0998782 L59.3623947,41.1769062 L59.3093126,41.1693057 C58.6457871,41.1138855 57.9822616,40.9614799 57.3610705,40.75452 L57.097561,40.6626066 C56.402439,40.4725944 55.8337029,40.1559074 55.2649667,39.8392205 C55.2649667,39.8158795 55.2563848,39.80114 55.2423834,39.7886625 L55.187284,39.751676 Z M66.0968625,39.6561754 L66.0077605,39.7125457 C64.8281596,40.4219245 63.5384627,40.9106077 62.1386696,41.1270996 L61.941929,41.1547381 L65.2494457,50.0365408 L66.386918,47.7563946 C66.4501109,47.5663825 66.6396896,47.4397077 66.8292683,47.4397077 L66.876663,47.4496041 L66.876663,47.4496041 L66.9714523,47.4931486 L66.9714523,47.4931486 L67.018847,47.5030451 L69.3569845,48.5164434 L66.0968625,39.6561754 Z M60.6363636,21.6613886 C55.5809313,21.6613886 51.5365854,25.7783191 51.5365854,30.7819732 C51.5365854,35.8489647 55.6441242,39.9025579 60.6363636,39.9025579 C65.5022173,39.9025579 69.4833703,35.9756395 69.672949,31.0986602 C69.7150776,31.0142103 69.7291205,30.9297605 69.7338014,30.8640772 L69.7361419,30.7819732 L69.7361419,30.7819732 C69.7361419,29.4518879 69.4201774,28.1851401 68.9146341,27.045067 C67.4611973,23.8781973 64.3015521,21.6613886 60.6363636,21.6613886 Z M69.04102,1.01339829 L25.943459,1.01276492 L25.943459,11.3373934 C25.943459,11.6314599 25.7255079,11.9255264 25.3907974,11.9660355 L25.3115299,11.9707674 L14.9472616,11.9707674 L14.9478936,38.7624848 C14.9478936,39.2691839 15.327051,39.6492083 15.8325942,39.6492083 L54.149612,39.6492083 L54.3303437,39.150743 L54.2538803,39.0791717 L54.1274945,38.952497 C51.7261641,37.0523752 50.2095344,34.1388551 50.2095344,30.8453106 C50.2095344,25.1449452 54.8858093,20.4579781 60.5731707,20.4579781 C63.9855876,20.4579781 66.9556541,22.0414129 68.8514412,24.5749086 C69.2305987,25.0635114 69.5633287,25.5986477 69.8496312,26.1404317 L69.9896842,26.4116962 L69.9896842,26.4116962 L69.9889135,1.9001218 C69.9889135,1.39342266 69.5465632,1.01339829 69.04102,1.01339829 Z M31.8203991,26.0316687 C32.5155211,26.0316687 33.1044438,26.1913317 33.5871674,26.4618718 L33.7161863,26.5383678 C34.2332191,26.8262651 34.5935753,27.2188522 34.8447327,27.668543 L34.9168514,27.8051157 L33.905765,28.501827 C33.8696547,28.3570559 33.7922757,28.2329663 33.7090011,28.1177402 L33.5840891,27.9500716 C33.5640074,27.9227423 33.5446627,27.8955977 33.5266075,27.8684531 C33.4254989,27.7671133 33.2839468,27.6657734 33.134306,27.5644336 L33.0210643,27.4884287 L32.4523282,27.2984166 C32.2627494,27.2350792 32.0731707,27.2350792 31.883592,27.2350792 C31.4412417,27.2350792 31.0620843,27.2984166 30.7461197,27.4884287 C30.4301552,27.6784409 30.1141907,27.9317905 29.924612,28.1851401 C29.7440608,28.411345 29.6279922,28.63755 29.5303472,28.863755 L29.4190687,29.135201 L29.4190687,29.135201 C29.2926829,29.4518879 29.22949,29.8319123 29.22949,30.1485993 C29.22949,30.5286236 29.2926829,30.908648 29.4190687,31.2886724 L29.5705106,31.5988963 C29.6911851,31.8444903 29.8072537,32.0577693 29.9878049,32.2387333 C30.2405765,32.4920828 30.4933481,32.682095 30.8093126,32.8721072 C31.1252772,33.0621194 31.4412417,33.1254568 31.8203991,33.1254568 C32.0731707,33.1254568 32.2627494,33.1254568 32.4523282,33.0621194 C32.7050998,32.998782 32.8946785,32.9354446 33.0842572,32.8087698 C33.2738359,32.7454324 33.4002217,32.6187576 33.5898004,32.4287454 C33.6909091,32.2767357 33.7920177,32.1247259 33.8931264,31.9402875 L33.9689579,31.7953715 L35.0432373,32.365408 C34.9168514,32.682095 34.7272727,32.9354446 34.4745011,33.1887942 L34.3659862,33.2735518 L34.3659862,33.2735518 L34.1445347,33.4530385 C33.9934612,33.5726963 33.8335445,33.6864451 33.6529933,33.7588307 C33.3370288,33.9488429 33.0210643,34.0755177 32.7050998,34.1388551 C32.3891353,34.2021924 32.0731707,34.2655298 31.7572062,34.2655298 C31.251663,34.2655298 30.6829268,34.1388551 30.2405765,33.8855055 C29.7982262,33.6321559 29.3558758,33.3154689 29.0399113,32.9354446 C28.6607539,32.5554202 28.4079823,32.1120585 28.2184035,31.6053593 C28.0288248,31.0986602 27.9656319,30.591961 27.9656319,30.0852619 C27.9656319,29.5785627 28.0288248,29.135201 28.2184035,28.6285018 C28.4079823,28.1851401 28.6607539,27.7417783 28.9767184,27.361754 C29.2926829,26.9817296 29.6718404,26.6650426 30.1773836,26.4116931 C30.6829268,26.1583435 31.1884701,26.0316687 31.8203991,26.0316687 Z M27.4600887,26.1583435 L27.4600887,27.2350792 L23.3525499,27.2350792 L23.3525499,29.6419001 L26.7649667,29.6419001 L26.7649667,30.7186358 L23.3525499,30.7186358 L23.3525499,34.2021924 L22.0886918,34.2021924 L22.0886918,26.1583435 L27.4600887,26.1583435 Z M39.5931264,26.1583435 L42.6895787,34.2021924 L41.3625277,34.2021924 L40.54102,31.9853837 L37.4445676,31.9853837 L36.6230599,34.2021924 L35.2960089,34.2021924 L38.4556541,26.1583435 L39.5931264,26.1583435 Z M39.0243902,27.6151035 L37.6973392,31.0986602 L40.2882483,31.0986602 L39.0243902,27.6151035 Z M24.9323725,1.71010962 L15.7062084,10.9573691 L24.9323725,10.9573691 L24.9323725,1.71010962 Z" id="FCA"></path>
                    </g>
                </g>
            </g>
        </g>
    </g>
</svg>