<?xml version="1.0" encoding="UTF-8"?>
<svg width="74px" height="46px" viewBox="0 0 74 46" version="1.1" xmlns="http://www.w3.org/2000/svg" xmlns:xlink="http://www.w3.org/1999/xlink">
    <title>AFEB62A8-41E2-4EDD-B5D0-DD5C7AAD57EA</title>
    <defs>
        <linearGradient x1="0%" y1="50%" x2="100%" y2="50%" id="linearGradient-1">
            <stop stop-color="#6CC0A4" offset="0%"></stop>
            <stop stop-color="#1E507A" offset="100%"></stop>
        </linearGradient>
    </defs>
    <g id="Credit-passport-Mar-2021" stroke="none" stroke-width="1" fill="none" fill-rule="evenodd">
        <g id="1.b-Unlock-CP" transform="translate(-320.000000, -1187.000000)" fill="url(#linearGradient-1)" fill-rule="nonzero">
            <g id="3" transform="translate(183.000000, 1125.000000)">
                <g id="Qualities" transform="translate(90.000000, 59.000000)">
                    <g id="Icons/Score" transform="translate(42.000000, 0.000000)">
                        <path d="M75.957935,3 C77.6043803,3 78.8516874,4.26826061 78.9902771,5.83386461 L79,5.98148148 L79,45.9475309 C79,47.5307707 77.7360622,48.8470082 76.1757944,48.9253264 L76.0286807,48.9290123 L30.4684512,49 L7.97131931,49 C6.3893669,49 5.07489437,47.4567306 5.00308876,45.4791837 L5,45.308642 L5,41.3333333 C5,40.9378307 5.24400047,40.6647455 5.56207251,40.6277512 L5.63671128,40.6234568 L25.4455067,40.6234568 L25.4455067,37.4290123 C23.7210803,37.4955633 22.1210116,37.1877652 20.5870079,36.5056182 L20.2810707,36.3641975 L5.63671128,36.3641975 C5.30824911,36.3641975 5.04078706,36.1193626 5.00425402,35.743366 L5,35.654321 L5,28.6265432 C5,28.2989079 5.24112143,28.0317591 5.55643407,27.9925979 L5.63671128,27.9876543 L13.7017208,27.9876543 C13.4894837,27.2067901 13.418738,26.4259259 13.418738,25.6450617 C13.418738,25.1718107 13.4501806,24.7301097 13.492104,24.2989255 L13.5602294,23.6574074 L5.63671128,23.6574074 C5.31019268,23.6574074 5.04395443,23.4154613 5.00492676,23.0990703 L5,23.0185185 L5,15.9907407 C5,15.6631054 5.24112143,15.3959566 5.55643407,15.3567955 L5.63671128,15.3518519 L19.1491396,15.3518519 L19.1491396,10.9506173 L5.63671128,10.9506173 C5.31019268,10.9506173 5.04395443,10.7086712 5.00492676,10.3922802 L5,10.3117284 L5,6.62037037 C5,4.76178451 6.13089174,3.23695144 7.6185889,3.01678838 L7.75908222,3 L75.957935,3 Z M25.4455067,41.9722222 L6.27342256,41.9722222 L6.27342256,45.308642 C6.27342256,46.5407848 6.99703194,47.5749047 7.87335109,47.6471988 L7.97131931,47.6512346 L25.4455067,47.6512346 L25.4455067,41.9722222 Z M76.3116635,4.34876543 L25.0917782,4.34876543 L25.0917782,14.0030864 C25.5869981,14.0030864 26.0114723,14.0740741 26.4359465,14.0740741 C26.7189293,14.0740741 26.9311663,14.0740741 27.2141491,14.1450617 L27.373327,14.1872106 L27.373327,14.1872106 L27.6916826,14.2448881 C27.7447419,14.2559799 27.7978011,14.2692901 27.8508604,14.287037 C28.1338432,14.287037 28.416826,14.3580247 28.6998088,14.5 L29.0623805,14.6153549 C29.1950287,14.6597222 29.3365201,14.712963 29.4780115,14.7839506 L29.6896298,14.8605262 C29.886604,14.936067 30.1248293,15.037478 30.3269598,15.1388889 L30.3563901,15.1638765 C30.3835564,15.184321 30.4260038,15.2098765 30.4684512,15.2098765 C30.6301557,15.2504409 30.7918601,15.3373646 30.9403642,15.430911 L31.2466539,15.6358025 L31.2466539,15.6358025 C31.4993171,15.7372134 31.7519803,15.9110607 32.0046435,16.1056041 L32.3078394,16.345679 L32.3078394,16.345679 L32.425012,16.4521605 L32.425012,16.4521605 L32.6858867,16.6651235 C32.727892,16.7006173 32.7676864,16.7361111 32.8030593,16.7716049 C34.4302103,18.191358 35.6328872,19.8950617 36.2695985,21.882716 C36.2978967,21.9679012 36.326195,22.0644444 36.3544933,22.1678025 L36.4393881,22.4937778 C36.4535373,22.55 36.4676864,22.6067901 36.4818356,22.6635802 C36.5101338,22.7487654 36.5271128,22.8339506 36.5418279,22.923679 L36.5882371,23.211037 C36.5978585,23.262716 36.6091778,23.3166667 36.623327,23.3734568 L36.6306845,23.4592099 L36.6306845,23.4592099 L36.6691702,23.6443457 C36.6759618,23.6778519 36.6821874,23.7130617 36.6867151,23.7505432 L36.6940727,23.8703704 L36.6940727,24.4382716 C36.7648184,24.7932099 36.7648184,25.2191358 36.7648184,25.6450617 C36.7648184,29.6747439 34.7318003,33.4324299 31.3290183,35.5870747 L31.1051625,35.7253086 L31.458891,35.7253086 L31.458891,47.5802469 L76.3116635,47.5092593 C77.125239,47.5092593 77.8738415,46.8573067 77.9348126,45.990753 L77.9388145,45.8765432 L77.9388145,5.98148148 C77.9388145,5.16512346 77.2890841,4.41396069 76.425484,4.35278108 L76.3116635,4.34876543 Z M23.5353728,4.34876543 L20.4933078,4.34876543 L20.4933078,15.9907407 C20.4933078,16.2037037 20.3518164,16.4876543 20.1395793,16.558642 L20.0649647,16.6035639 L20.0649647,16.6035639 L19.9599516,16.6556954 C19.901918,16.680652 19.8389101,16.7006173 19.7858509,16.7006173 C17.3804971,18.0493827 15.6826004,20.1790123 14.9751434,22.8055556 L14.9640894,22.8698881 L14.9640894,22.8698881 L14.9154517,23.0251736 C14.9088193,23.0495756 14.9043977,23.0717593 14.9043977,23.0895062 L14.8933437,23.1848958 L14.8933437,23.1848958 L14.844706,23.3490548 C14.8380736,23.3778935 14.833652,23.4089506 14.833652,23.4444444 C14.6921606,24.0833333 14.6214149,24.8641975 14.6214149,25.6450617 C14.6214149,26.3904321 14.7297443,27.1358025 14.8990089,27.8811728 L14.9751434,28.2006173 L15.2730514,29.0989896 C16.1349943,31.5920119 17.971547,33.6361423 20.3193705,34.8245725 L20.5640535,34.9444444 C21.1300191,35.2283951 21.6959847,35.441358 22.332696,35.5833333 C23.4646272,35.9382716 24.7380497,36.0092593 26.0114723,35.9382716 C26.2944551,35.9382716 26.4359465,36.0092593 26.5774379,36.1512346 C26.7012428,36.2133488 26.7708831,36.3841628 26.7863587,36.5685643 L26.789675,36.6481481 L26.789675,47.5802469 L29.7609943,47.5802469 L29.7609943,35.3703704 C29.7609943,35.2283951 29.83174,34.9444444 30.1854685,34.7314815 C33.5105163,32.8858025 35.5621415,29.4074074 35.5621415,25.6450617 C35.5621415,25.2309671 35.5621415,24.8661694 35.5212007,24.5095879 L35.4913958,24.2962963 C35.4206501,23.7283951 35.2791587,23.0895062 35.0669216,22.5216049 L35.0138623,22.4040316 L35.0138623,22.4040316 L34.9077438,22.1422647 L34.9077438,22.1422647 L34.8546845,22.0246914 L34.7839388,21.882716 C33.9349904,19.6111111 32.0956023,17.6234568 29.9024857,16.4876543 C29.7751434,16.4450617 29.6732696,16.4024691 29.5815832,16.3598765 L29.4072658,16.2746914 L29.4072658,16.2746914 C29.2374761,16.1611111 29.0676864,16.092963 28.8978967,16.0339012 L27.9216061,15.7067901 C27.8003278,15.6256614 27.6790494,15.5908919 27.5445707,15.5627452 L27.3313024,15.5205251 C27.2935576,15.5126606 27.2545753,15.5039683 27.2141491,15.4938272 C27.001912,15.4228395 26.789675,15.3518519 26.5774379,15.3518519 C26.274242,15.3011464 25.9710462,15.2866591 25.6162864,15.2825199 L25.1625239,15.2808642 L25.1625239,15.2808642 L24.9502868,15.291956 L24.9502868,15.291956 L24.5258126,15.34076 C24.4550669,15.3474151 24.3843212,15.3518519 24.3135755,15.3518519 C24.0305927,15.4228395 23.8891013,15.3518519 23.7476099,15.2098765 C23.6297004,15.0915638 23.5609199,14.923954 23.5412683,14.789209 L23.5353728,14.712963 L23.5353728,4.34876543 Z M56.3613767,17.1265432 C59.1204589,17.1265432 61.3135755,19.3271605 61.3135755,22.095679 L61.3128681,23.7993827 L63.5066922,23.7993827 C63.789675,23.7993827 64.0726577,24.0123457 64.0726577,24.367284 L64.0726577,33.5246914 C64.0726577,34.6604938 63.1529637,35.5833333 62.0210325,35.5833333 L50.7017208,35.5833333 C49.6405354,35.5833333 48.7208413,34.6604938 48.7208413,33.595679 L48.7208413,24.367284 C48.7208413,24.0833333 48.9330784,23.7993827 49.2868069,23.7993827 L51.4084704,23.7993827 L51.4091778,22.095679 C51.4091778,19.3271605 53.6022945,17.1265432 56.3613767,17.1265432 Z M13.9847036,29.3364198 L6.27342256,29.3364198 L6.27342256,35.0154321 L18.0172084,35.0154321 C16.1866635,33.6548354 14.8109299,31.7726766 14.0768051,29.6188709 L13.9847036,29.3364198 Z M60.8183556,24.9351852 L60.8070363,24.9344753 L49.8527725,24.9351852 L49.8527725,33.595679 C49.8527725,34.0925926 50.2772467,34.4475309 50.7017208,34.4475309 L61.9502868,34.4475309 C62.5162524,34.4475309 62.9407266,34.0216049 62.9407266,33.4537037 L62.9407266,24.9351852 L60.8183556,24.9351852 Z M56.3613767,18.2623457 C54.2390057,18.2623457 52.4703633,19.9660494 52.4703633,22.1666667 L52.4703633,23.8703704 L60.2523901,23.8703704 L60.2523901,22.1666667 C60.2523901,20.037037 58.4837476,18.2623457 56.3613767,18.2623457 Z M17.5927342,16.7716049 L6.27342256,16.7716049 L6.27342256,22.4506173 L13.9139579,22.4506173 C14.5229861,20.345679 15.714563,18.4355878 17.3648618,16.9688441 L17.5927342,16.7716049 Z M19.1491396,4.27777778 L7.75908222,4.27777778 C7.01081041,4.34603514 6.32794698,5.33314157 6.27652594,6.48180389 L6.27342256,6.62037037 L6.27342256,9.67283951 L19.1491396,9.67283951 L19.1491396,4.27777778 Z" id="Score"></path>
                    </g>
                </g>
            </g>
        </g>
    </g>
</svg>