<svg xmlns="http://www.w3.org/2000/svg" viewBox="0 0 100 100"><style>.st0{display:none}.st1{display:inline}.st2{fill:#96d3e1}</style><g class="st0"><g class="st1"><path class="st2" d="M0 0h100v100H0z"/></g></g><circle cx="50" cy="50" r="47" fill="#c1282e"/><path d="M71 43.6v-2c0-11.3-8.7-21-20-21.6-12.1-.6-22 9-22 21v2.6c0 8.2-1 16.4-3 24.4h48c-2-8-3-16.2-3-24.4z" fill="none" stroke="#fff" stroke-width="7.5" stroke-linecap="round" stroke-miterlimit="10"/><path d="M38.6 43c.7-6.6 5.6-11.9 11.9-13.2M59 71c0 5-4 9-9 9s-9-4-9-9" fill="none" stroke="#fff" stroke-width="7.5" stroke-miterlimit="10"/><g class="st0"><path fill="none" stroke="#043751" stroke-width="5" stroke-miterlimit="10" d="M10 10h80v80H10z"/><g class="st1"><path class="st2" d="M80.6.6l18.8 18.8L58.9 60l-23.3 4.4L40 41.1zM40 41.1L58.9 60"/></g><path d="M76.4 10.9l12.7 12.7L61.7 51 46 54l3-15.7zM49 38.3L61.7 51" stroke="#043751" stroke-width="5" fill="none" stroke-miterlimit="10"/><g class="st1"><path class="st2" d="M86.5 3.5h8v10h-8z"/></g></g></svg>