<svg xmlns="http://www.w3.org/2000/svg" viewBox="0 0 100 100"><style>.st1{fill:#97d3e1}</style><circle cx="50" cy="50" r="47" fill="none" stroke="#96d3e1" stroke-width="4.796" stroke-miterlimit="10"/><path class="st1" d="M81.4 64.2c0 .8-.1 1.5-.2 2.3h-3.4c.2-.8.2-1.5.2-2.3 0-6.9-5.6-12.4-12.4-12.4-3.5 0-6.8 1.5-9.1 3.8l2.2 2.2c.1.1.2.3.1.5s-.2.3-.4.3h-7c-.2 0-.4-.2-.4-.4v-7c0-.2.1-.3.3-.4.2-.1.3 0 .5.1l2.4 2.4c2.9-3 7.1-4.8 11.5-4.8 8.6-.1 15.7 7 15.7 15.7zm-1.5 5.6h-7c-.2 0-.3.1-.4.3-.1.2 0 .3.1.5l2.2 2.2c-2.3 2.3-5.6 3.8-9.1 3.8-6.9 0-12.4-5.6-12.4-12.4 0-.8.1-1.5.2-2.3H50c-.1.7-.2 1.5-.2 2.3 0 8.7 7.1 15.8 15.8 15.8 4.4 0 8.6-1.9 11.5-4.8l2.4 2.4c.1.1.3.2.5.1s.3-.2.3-.4v-7c0-.3-.2-.5-.4-.5zm-8.7 0l-1.3-1.5c-.1-.1-.2-.1-.3-.1-.1 0-.2 0-.3.1-.8.7-1.8 1.1-2.9 1.1-1.8 0-3.4-1.2-4.2-2.9h4.2c.2 0 .4-.2.4-.4v-1.5c0-.2-.2-.4-.4-.4h-4.7c0-.4 0-.8.1-1.1h5.7c.2 0 .4-.2.4-.4v-1.5c0-.2-.2-.4-.4-.4h-4.6c.9-1.1 2.1-1.7 3.5-1.7 1.1 0 2.1.4 2.9 1.1.1.1.2.1.3.1.1 0 .2-.1.3-.1l1.3-1.5c.1-.2.1-.4-.1-.6-1.3-1.1-2.9-1.7-4.7-1.7-3 0-5.6 1.8-6.8 4.5H57c-.2 0-.4.2-.4.4v1.5c0 .2.2.4.4.4h1.9c-.1.4-.1.7-.1 1.1H57c-.2 0-.4.2-.4.4V66c0 .2.2.4.4.4h2.2c.9 3.3 3.8 5.6 7.2 5.6 1.8 0 3.5-.7 4.7-1.8.2 0 .2-.3.1-.4z"/><path class="st1" d="M50.2 64.2c0 .8-.1 1.5-.2 2.3h-3.4c.1-.7.2-1.5.2-2.3 0-6.9-5.6-12.4-12.4-12.4-3.5 0-6.8 1.5-9.1 3.8l2.2 2.2c.1.1.2.3.1.5s-.2.3-.4.3h-7c-.2 0-.4-.2-.4-.4v-7c0-.2.1-.3.3-.4.2-.1.3 0 .5.1l2.4 2.4c2.9-3 7.1-4.8 11.5-4.8 8.6-.1 15.7 7 15.7 15.7zm-1.6 5.6h-7c-.2 0-.3.1-.4.3-.1.2 0 .3.1.5l2.2 2.2c-2.3 2.3-5.6 3.8-9.1 3.8C27.5 76.6 22 71 22 64.2c0-.8.1-1.5.2-2.3h-3.4c-.1.7-.2 1.5-.2 2.3 0 8.7 7.1 15.8 15.8 15.8 4.4 0 8.6-1.9 11.5-4.8l2.4 2.4c.1.1.3.2.5.1s.3-.2.3-.4v-7c0-.3-.2-.5-.5-.5zm-8.6-12c0-.1-.1-.2-.2-.2l-2.2-1.3c-.2-.1-.4 0-.5.2l-2.6 4.7-2.6-4.7c-.1-.2-.4-.3-.5-.2l-2.2 1.3c-.1.1-.2.1-.2.2v.3l3.4 6h-1.9c-.2 0-.4.2-.4.4V66c0 .2.2.4.4.4h2.4v1.1h-2.4c-.2 0-.4.2-.4.4v1.5c0 .2.2.4.4.4h2.4v1.9c0 .2.2.4.4.4h2.6c.2 0 .4-.2.4-.4v-1.9h2.4c.2 0 .4-.2.4-.4V68c0-.2-.2-.4-.4-.4h-2.4v-1.1h2.4c.2 0 .4-.2.4-.4v-1.5c0-.2-.2-.4-.4-.4h-1.9l3.4-6c-.2-.1-.2-.2-.2-.4zm41.4-22c0 .8-.1 1.5-.2 2.3h-3.4c.1-.7.2-1.5.2-2.3 0-6.9-5.6-12.4-12.4-12.4-3.5 0-6.8 1.5-9.1 3.8l2.2 2.2c.1.1.2.3.1.5s-.2.3-.4.3h-7c-.2 0-.4-.2-.4-.4v-7c0-.2.1-.3.3-.4.2-.1.3 0 .5.1l2.4 2.4c2.9-3 7.1-4.8 11.5-4.8 8.6-.1 15.7 7 15.7 15.7zm-1.5 5.7h-7c-.2 0-.3.1-.4.3-.1.2 0 .3.1.5l2.2 2.2c-2.3 2.3-5.6 3.8-9.1 3.8-6.9 0-12.4-5.6-12.4-12.4 0-.8.1-1.5.2-2.3H50c-.1.7-.2 1.5-.2 2.3 0 8.7 7.1 15.8 15.8 15.8 4.4 0 8.6-1.9 11.5-4.8l2.4 2.4c.1.1.3.2.5.1s.3-.2.3-.4v-7c0-.3-.2-.5-.4-.5zm-10.2-1.2h-4.2c.1-.2.3-.5.4-.7.3-.9.5-1.7.4-2.6h2.3c.2 0 .4-.2.4-.4v-1.5c0-.2-.2-.4-.4-.4h-2.9c-.6-1.5-.6-2.7.1-3.3.6-.5 1.6-.5 2.6-.1.2.1.4 0 .5-.2l1.2-2c.1-.1.1-.2 0-.3 0-.1-.1-.2-.2-.2-2.1-1.1-4.5-1-6.1.4-.7.6-2.2 2.4-1.3 5.6h-1c-.2 0-.4.2-.4.4v1.5c0 .2.2.4.4.4h1.7c.1.5 0 1-.2 1.4-.4 1-1.3 1.6-1.7 1.8-.1.1-.2.2-.2.4v2.7c0 .2.2.4.4.4h8.2c.2 0 .4-.2.4-.4v-2.6c0-.1-.1-.3-.4-.3z"/><path class="st1" d="M34.4 20.1c-4.4 0-8.6 1.9-11.5 4.8l-2.4-2.4c-.1-.1-.3-.2-.5-.1s-.3.2-.3.4v7c0 .2.2.4.4.4h7c.2 0 .3-.1.4-.3.1-.2 0-.3-.1-.5l-2.2-2.2c2.3-2.3 5.6-3.8 9.1-3.8 6.8 0 12.4 5.6 12.4 12.4 0 .8-.1 1.5-.2 2.3H50c.1-.7.2-1.5.2-2.3 0-8.6-7.1-15.7-15.8-15.7zm14.2 21.4h-7c-.2 0-.3.1-.4.3-.1.2 0 .3.1.5l2.2 2.2c-2.3 2.3-5.6 3.8-9.1 3.8-6.9 0-12.4-5.6-12.4-12.4 0-.8.1-1.5.2-2.3h-3.4c-.1.7-.2 1.5-.2 2.3 0 8.7 7.1 15.8 15.8 15.8 4.4 0 8.6-1.9 11.5-4.8l2.4 2.4c.1.1.3.2.5.1s.3-.2.3-.4v-7c0-.3-.2-.5-.5-.5z"/><path class="st1" d="M35 25.7h-1.3c-.3 0-.5.2-.5.5v1.7c-1.1.1-2.2.6-2.9 1.2-1 .9-1.6 1.9-1.6 3.8 0 2.6 2.4 3.6 4 4.1l2.3.6c1.1.3 2 .6 2 1.7 0 .6-.3 1-.7 1.3-.4.3-1.1.5-2 .5-1 0-2.2-.4-2.5-1.5-.1-.2-.3-.4-.5-.4h-2.1c-.1 0-.3.1-.4.2-.1.1-.2.3-.1.4.4 2.1 2.4 3.7 4.5 4v1.7c0 .3.2.5.5.5H35c.3 0 .5-.2.5-.5v-1.7c1.2-.2 2.2-.6 2.9-1.2 1-.9 1.6-2.1 1.6-3.8 0-2.5-2.4-3.6-4-4.1l-2.3-.6c-1.1-.3-2-.7-2-1.7 0-.6.3-1 .7-1.3.4-.3 1.1-.5 2-.5 2 0 2.4 1 2.5 1.5.1.2.3.4.5.4h2.1c.1 0 .3-.1.4-.2.1-.1.1-.3.1-.4-.1-1.1-1.5-4-4.5-4v-1.7c0-.3-.2-.5-.5-.5z"/></svg>