<?xml version="1.0" encoding="UTF-8"?>
<svg width="13px" height="22px" viewBox="0 0 13 22" version="1.1" xmlns="http://www.w3.org/2000/svg"
  xmlns:xlink="http://www.w3.org/1999/xlink">
  <title>67B7380A-2E9F-4E98-A62E-38B308BA9BAC</title>
  <g id="Overview-April-2021" stroke="none" stroke-width="1" fill-rule="evenodd">
    <g id="3b-Overview-Unlock-Grants" transform="translate(-27.000000, -342.000000)">
      <g id="navigation/sidebar-left/utils/link-buttons/utilities" transform="translate(27.011111, 334.000000)">
        <g id="icons/overview" transform="translate(0.000000, 8.000000)">
          <path
            d="M12.0436674,7.51518291 C11.9462901,7.2965361 11.7345707,7.15551959 11.5045294,7.15551959 L7.92667511,7.15551959 L11.6663726,0.959339592 C11.7817325,0.768112658 11.7888577,0.524894788 11.6850338,0.324053092 C11.5805312,0.124279702 11.3810264,0 11.1628604,0 L5.70905011,0 C5.48138389,0 5.27746825,0.132826157 5.17669796,0.345775332 L0.0635387225,11.0779864 C-0.0287492213,11.2717061 -0.0195882857,11.4981871 0.0900036475,11.6862091 C0.199595581,11.8713823 0.388921583,11.981774 0.595890869,11.981774 L3.71773414,11.981774 L0.0472526147,21.1328909 C-0.0674287272,21.4184849 0.0319843887,21.7443185 0.287472704,21.9106183 C0.381117823,21.9690191 0.487656111,22 0.595551575,22 C0.771305821,22 0.937220543,21.9191648 1.0512233,21.7781483 L11.9595225,8.18323082 C12.1094904,7.99770152 12.142402,7.73525413 12.0436674,7.51518291 Z"
            id="Utilities"></path>
        </g>
      </g>
    </g>
  </g>
</svg>