<?xml version="1.0" encoding="UTF-8"?>
<svg width="22px" height="22px" viewBox="0 0 22 22" version="1.1" xmlns="http://www.w3.org/2000/svg"
  xmlns:xlink="http://www.w3.org/1999/xlink">
  <title>139293DD-B7FE-4A2F-9875-24A19AD86421</title>
  <g id="Overview-April-2021" stroke="none" stroke-width="1" fill-rule="evenodd">
    <g id="3b-Overview-Unlock-Grants" transform="translate(-22.000000, -394.000000)">
      <g id="navigation/sidebar-left/utils/link-buttons/fx" transform="translate(22.366667, 386.000000)">
        <g id="icons/overview" transform="translate(-0.000000, 8.000000)">
          <path
            d="M0,10.7822856 L1.15148432,10.785363 L1.15094544,10.9954364 C1.14501289,13.3081337 2.04206352,15.4833397 3.67797319,17.1229188 C4.63107628,18.0783067 5.77003913,18.7858303 7.01537328,19.2103132 L7.015704,17.9215383 C7.015704,17.7697007 7.11615385,17.6178631 7.25678363,17.5419442 C7.38178787,17.4744609 7.53853923,17.4669627 7.65648857,17.5327798 L7.69876293,17.5609239 L10.7122582,19.3829754 C10.832798,19.4588942 10.9131579,19.5917521 10.9131579,19.7435897 C10.9131579,19.8785565 10.8655372,19.998527 10.7561861,20.076841 L7.69876293,21.9262555 C7.55813315,22.0211541 7.37732344,22.0211541 7.23669366,21.9452352 C7.11012686,21.8769083 7.0161058,21.7470871 6.99856726,21.6111166 L6.99561404,21.5656412 L6.99546297,20.4112447 C5.61811896,19.9995584 4.34561022,19.2875341 3.25858619,18.3098531 L3.05588693,18.1224108 L2.86554126,17.9365931 C1.14219239,16.2091472 0.140295177,13.9521701 0.0155058794,11.5298118 L0.00525780761,11.2599988 L0,10.7822856 Z M15.6449726,10.840076 C17.0460111,10.840076 18.394552,11.3915469 19.4052127,12.4107534 C21.4820557,14.5053955 21.4819826,17.9000037 19.4052194,19.9943271 C18.3945842,21.0137398 17.0460576,21.5652422 15.6447436,21.5652422 C14.2437957,21.5652422 12.8952946,21.0136738 11.8849682,19.9943405 C9.80834759,17.9001609 9.80842067,14.5050909 11.8849549,12.4107601 C12.8955744,11.3913632 14.2436328,10.840076 15.6449726,10.840076 Z M15.9413279,13.0985679 L15.4514485,13.0985679 L15.4514485,14.0071613 L15.3354766,14.0227375 C14.6541128,14.1344588 14.2360253,14.5723305 14.2360253,15.196139 C14.2360253,15.7541535 14.5556454,16.119631 15.3568548,16.4074449 L15.4514485,16.440316 L15.4514485,17.7085128 L15.3212585,17.693828 C15.0582654,17.6517204 14.8371993,17.5379036 14.6241168,17.3669391 L14.5445188,17.300177 L14.0848703,17.8366952 L14.1625376,17.9074865 C14.4406767,18.1464571 14.844545,18.3481507 15.3431629,18.4058252 L15.4514485,18.4159407 L15.4514485,19.3062883 L15.9413279,19.3062883 L15.9413279,18.397695 L16.0671336,18.3777661 C16.8034548,18.2371125 17.2053039,17.7215195 17.2053039,17.074299 C17.2053039,16.3687517 16.783651,16.0373106 16.0267978,15.7741084 L15.9413279,15.745129 L15.9413279,14.6778667 L16.0478021,14.6903075 C16.2344252,14.7200871 16.4216188,14.7924044 16.5941171,14.9150543 L16.6671007,14.9707229 L17.1324747,14.4827062 L17.0298974,14.4017745 C16.7699021,14.2100169 16.4422093,14.0649255 16.0499163,14.0129792 L15.9413279,14.0011563 L15.9413279,13.0985679 Z M15.9413279,16.6357075 L16.0252867,16.6818654 L16.0964056,16.7291222 C16.2697739,16.8569294 16.316238,17.0003458 16.316238,17.1904714 C16.316238,17.4168345 16.2297254,17.5726163 16.060301,17.6512028 L16.0120414,17.6707166 L15.9413279,17.690729 L15.9413279,16.6357075 Z M15.4514485,14.6841026 L15.4514485,15.5562044 L15.372176,15.5167985 L15.2983555,15.4738694 C15.1203813,15.3600507 15.0886766,15.2492223 15.0886766,15.0866644 C15.0886766,14.9289589 15.1674897,14.7911611 15.3254786,14.7215316 L15.3752509,14.7027361 L15.4514485,14.6841026 Z M14.029973,0.0547647588 C14.1565398,0.123091688 14.2505609,0.252912854 14.2680994,0.388883443 L14.2710526,0.43435881 L14.2712037,1.58875526 C15.6485477,2.00044161 16.9210564,2.7124659 18.0080805,3.69014689 L18.2107797,3.87758916 L18.4011254,4.0634069 C20.1244743,5.79085284 21.1263715,8.04782988 21.2511608,10.4701882 L21.2614089,10.7400012 L21.2666667,11.2177144 L20.1151823,11.214637 L20.1157212,11.0045636 C20.1216538,8.69186632 19.2246032,6.51666026 17.5886935,4.87708118 C16.6355904,3.92169328 15.4966275,3.21416965 14.2512934,2.7896868 L14.2509627,4.0784617 C14.2509627,4.23029932 14.1505128,4.38213694 14.009883,4.45805575 C13.8848788,4.52553914 13.7281274,4.5330373 13.6101781,4.46722016 L13.5679037,4.43907605 L10.5544085,2.61702461 C10.4338686,2.54110579 10.3535088,2.40824788 10.3535088,2.25641026 C10.3535088,2.12144348 10.4011294,2.00147302 10.5104806,1.92315896 L13.5679037,0.0737444614 C13.7085335,-0.0211540515 13.8893432,-0.0211540515 14.029973,0.0547647588 Z M5.33895342,0.44691358 C8.27606838,0.44691358 10.6564181,2.84731674 10.6566544,5.80949668 C10.6566544,8.7717501 8.27645066,11.1720798 5.33895342,11.1720798 C2.40175607,11.1720798 0.021016135,8.77135675 0.0212524588,5.80949668 C0.0212524588,2.84747422 2.4016852,0.44691358 5.33895342,0.44691358 Z M5.50247559,3.45325128 C4.63751048,3.45325128 4.15626341,3.96042478 4.12514134,4.65536757 L4.12353022,4.72791491 L4.12353022,5.33787806 L3.68197455,5.33787806 L3.68197455,5.84390959 L4.12353022,5.84390959 L4.12353022,6.27695802 L4.1203824,6.44728942 C4.10573312,6.76981682 4.02965485,6.9457661 3.68880365,7.07115099 L3.6217416,7.09409155 L3.6217416,7.78927863 L6.53674187,7.78927863 L6.64552763,7.0576 L4.68028428,7.0576 L4.76012216,7.00726478 C4.98814152,6.84605334 5.05696713,6.62714928 5.06620646,6.37198006 L5.06733256,6.30744463 L5.06733256,5.84390959 L6.17397,5.84390959 L6.17397,5.33787806 L5.06733256,5.33787806 L5.06733256,4.75239658 L5.07058724,4.66358222 C5.09674774,4.32455225 5.27954847,4.17892498 5.58080134,4.17892498 C5.8027052,4.17892498 5.9634123,4.25073082 6.11443312,4.44575485 L6.15541916,4.50203685 L6.74217519,4.07522431 L6.67189964,3.98200543 C6.38338614,3.62465851 6.00498652,3.45325128 5.50247559,3.45325128 Z"
            id="FX"></path>
        </g>
      </g>
    </g>
  </g>
</svg>