<?xml version="1.0" encoding="UTF-8"?>
<svg width="22px" height="22px" viewBox="0 0 22 22" version="1.1" xmlns="http://www.w3.org/2000/svg" xmlns:xlink="http://www.w3.org/1999/xlink">
    <title>609F0031-F70C-4B45-9C93-BAFD5ABE3B1F</title>
    <g id="Overview-April-2021" stroke="none" stroke-width="1" fill="none" fill-rule="evenodd">
        <g id="3b-Overview-Unlock-Grants" transform="translate(-22.000000, -238.000000)" fill="#8A9FAE">
            <g id="navigation/sidebar-left/utils/link-buttons/red-tax-credits" transform="translate(22.000000, 230.000000)">
                <g id="icons/overview" transform="translate(0.000000, 8.550000)">
                    <path d="M21.5994754,8.77047137 C20.2751019,8.29393693 19.299113,7.41515245 18.6144203,6.08509023 C17.9187491,4.731257 17.728455,3.52227835 18.0135302,2.27838603 C18.0892818,1.94336338 17.9886456,1.70453902 17.699179,1.52514219 C17.4576519,1.37583054 17.2142951,1.22800458 16.972768,1.08017862 L16.8296815,0.994008715 C16.4626335,0.770784086 16.0472801,0.519331385 15.65242,0.272335747 C15.3581961,0.0851390532 15.0822697,0.160537722 14.9476,0.236307812 C14.8872182,0.270850059 14.8220791,0.315049278 14.7602335,0.366676938 L14.6936306,0.420161708 C14.4627161,0.607358401 14.2025256,0.817954682 13.9284289,0.972094817 C13.8138865,1.03672225 13.7008079,1.08834991 13.5877293,1.12920633 C12.5652647,1.49394274 11.6079392,1.65105425 10.743565,1.59942659 C9.55239731,1.5269993 8.50651185,1.07126449 7.54625872,0.206222629 C7.23190756,-0.0782866319 6.95598116,-0.0266589723 6.70823293,0.111881438 C6.03744635,0.508188724 5.34360491,0.898181836 4.63073407,1.28000366 C4.32553166,1.45122921 4.22635918,1.66999678 4.28527715,2.03770457 C4.65086132,4.24060852 3.85455385,6.10068995 1.84987906,7.72454699 C1.75692773,7.79994565 1.65482764,7.86903015 1.5369917,7.93365758 C1.26435886,8.08779771 0.94817795,8.20108143 0.669323955,8.29987968 L0.593572279,8.32662207 C0.513063251,8.35485014 0.443166777,8.38642101 0.382785006,8.42096326 C0.145649325,8.55318949 0.038791888,8.74484325 0.0373280875,9.04198086 C0.0344004864,9.51665819 0.0248857832,10.0073067 0.0172008305,10.441499 L0.01573703,10.5310117 C0.0095158779,10.8456061 0.00329472576,11.1583435 0.000178012698,11.4681094 C-0.00585402738,11.8139033 0.141257923,12.0278424 0.465123784,12.1426118 C1.65190004,12.5560045 2.55945635,13.3612474 3.32026667,14.6786813 C4.06863467,15.9727156 4.28381335,17.2793782 3.98190449,18.6677537 C3.91676537,18.9570915 4.01447405,19.1773447 4.27942194,19.3422561 C5.06950827,19.8329046 5.73260989,20.2433259 6.40961763,20.6455759 C6.4824417,20.6897751 6.59552029,20.747717 6.73018994,20.7555168 C6.82936242,20.761831 6.92231375,20.7399171 7.00904393,20.6908894 C7.0694257,20.6563472 7.13127127,20.6076909 7.192019,20.5464062 C7.41341882,20.3153818 7.68166026,20.1107282 7.98832647,19.938017 C8.89295518,19.4302831 10.1463344,19.20223 11.3854415,19.3262849 C12.6556544,19.4536827 13.7557005,19.9302171 14.4030662,20.6344333 C14.5099237,20.7506884 14.661793,20.885886 14.8831928,20.8985143 C14.8956351,20.9 14.9095412,20.9 14.9219835,20.9 C15.0522617,20.9 15.189859,20.8558008 15.358928,20.7614596 C15.7259759,20.5493776 16.0886325,20.3447241 16.3286958,20.2095265 C16.5702229,20.0743289 16.9343432,19.8715325 17.3185909,19.6590791 C17.7972536,19.3916552 17.7756626,19.047347 17.7057661,18.7769518 C17.4624093,17.8446825 17.6483119,16.6464751 18.2155346,15.4876384 C18.7717788,14.3507157 19.6160258,13.4043324 20.5298032,12.8902843 C20.8379332,12.7172017 21.1508206,12.5946324 21.4670015,12.5255479 C21.6049647,12.493977 21.8014799,12.4248925 21.8977248,12.2046393 C21.9350517,12.1214408 21.9533492,12.0270996 21.9581066,11.9041589 C21.9829912,11.048774 21.9921399,10.1870749 21.9999144,9.38368911 C22.0038503,9.07095178 21.8721083,8.86964105 21.5994754,8.77047137 Z M11.6708826,16.8693283 L11.6708826,14.1304624 C12.4283993,14.1508906 13.1705462,14.2073468 13.8878084,14.2953738 C13.7249606,14.8487926 13.5236881,15.3661835 13.2883821,15.8315752 C13.1365128,16.1335413 12.9722012,16.4039366 12.8005706,16.6427609 C12.4503564,17.1285809 12.0661087,17.4762319 11.6712485,17.6649143 L11.6712485,16.8693283 L11.6708826,16.8693283 Z M11.6708826,12.7658579 L11.6708826,11.1115443 L14.3957472,11.1115443 C14.367935,11.7466759 14.3027959,12.3647222 14.1988661,12.9541689 C13.3857249,12.8520279 12.5414779,12.7877718 11.6708826,12.7658579 Z M11.6708826,9.78928195 L11.6708826,8.13533973 C12.5414779,8.11342583 13.3857249,8.0487984 14.199232,7.94665735 C14.3031618,8.53610408 14.367935,9.15415031 14.3961132,9.78928195 L11.6708826,9.78928195 Z M14.1015233,3.78004522 C15.1829059,4.29743609 16.1186404,5.07705089 16.8296815,6.03940532 C16.5120368,6.12594665 16.1867071,6.20431669 15.8522287,6.27674399 C15.6476626,6.32242889 15.4401689,6.36328531 15.2279178,6.40265605 C15.123988,6.03011977 15.006518,5.67169753 14.8747759,5.33333208 C14.6530102,4.75799938 14.3928196,4.23615145 14.1015233,3.78004522 Z M11.6708826,3.23591198 C12.0657428,3.42459436 12.4499904,3.77224536 12.8002047,4.25955104 C12.9722012,4.49688971 13.1365128,4.76728493 13.2880162,5.06925103 C13.5233221,5.53464281 13.7249606,6.05054798 13.8874425,6.60545247 C13.1701802,6.69347948 12.4280334,6.74993563 11.6705166,6.77073526 L11.6705166,4.03186935 L11.6705166,3.23591198 L11.6708826,3.23591198 Z M7.60298099,11.1115443 L10.3278456,11.1115443 L10.3278456,12.7654865 C9.45725027,12.7874004 8.61300333,12.8520279 7.7994962,12.9541689 C7.69593232,12.3647222 7.6293294,11.7470474 7.60298099,11.1115443 Z M7.60298099,9.78928195 C7.6293294,9.15415031 7.69593232,8.53610408 7.79986215,7.94665735 C8.61300333,8.0487984 9.45761622,8.11342583 10.3282116,8.13533973 L10.3282116,9.78928195 L7.60298099,9.78928195 Z M8.10945596,6.60545247 C8.27376757,6.05054798 8.47504014,5.53464281 8.70888227,5.06925103 C8.86075157,4.76728493 9.02506318,4.49688971 9.19669378,4.25955104 C9.54690805,3.77224536 9.93261949,3.42459436 10.3274797,3.23591198 L10.3274797,4.03149793 L10.3274797,6.77036384 C9.56886506,6.74993563 8.82671821,6.69347948 8.10945596,6.60545247 Z M7.89720489,3.78004522 C7.60590859,4.23615145 7.34571805,4.75799938 7.12102467,5.33333208 C6.99074643,5.67132611 6.87327644,6.02974835 6.7693466,6.40265605 C6.55855933,6.36328531 6.35106561,6.32242889 6.14649949,6.27674399 C5.81202107,6.20431669 5.48669141,6.12594665 5.1690467,6.03940532 C5.87862399,5.07705089 6.81582227,4.29743609 7.89720489,3.78004522 Z M5.34104326,7.50020809 C5.70809124,7.5897208 6.08465392,7.66994795 6.47036535,7.74237524 C6.35875056,8.39162092 6.28592648,9.07726595 6.25811427,9.78965337 L4.67208643,9.78965337 L3.74403691,9.78965337 C3.82600974,8.88858357 4.06643897,8.03654148 4.43641455,7.25841236 C4.73063845,7.34458227 5.03291325,7.42629511 5.34104326,7.50020809 Z M4.67208643,11.1115443 L6.25848022,11.1115443 C6.28629243,11.8239317 6.35911651,12.5092053 6.4707313,13.1588224 C6.08501987,13.2312497 5.70845719,13.3114769 5.34140921,13.4009896 C5.0332792,13.4749026 4.7310044,13.5566154 4.4367805,13.6431567 C4.06643897,12.8650276 3.82637569,12.0126141 3.74440286,11.1119157 L4.67208643,11.1119157 L4.67208643,11.1115443 Z M6.14832924,14.6240823 C6.35289536,14.5783974 6.55892528,14.5375409 6.76971255,14.4981702 C6.87364239,14.8725636 6.99111238,15.2291287 7.12285442,15.5674942 C7.346084,16.1428269 7.60627454,16.6650462 7.89757084,17.120781 C6.81618822,16.6033902 5.87898994,15.8219183 5.16941265,14.8614209 C5.48669141,14.775251 5.81348487,14.6965096 6.14832924,14.6240823 Z M10.3278456,17.6649143 C9.93298544,17.4762319 9.54873781,17.1285809 9.19705973,16.6427609 C9.02506318,16.4039366 8.86075157,16.1331699 8.70924822,15.8315752 C8.47540609,15.3661835 8.27376757,14.8487926 8.10982191,14.2953738 C8.82708416,14.2073468 9.56923101,14.1508906 10.3282116,14.1304624 L10.3282116,16.8693283 L10.3282116,17.6649143 L10.3278456,17.6649143 Z M14.1015233,17.1211525 C14.3928196,16.6650462 14.6530102,16.1431983 14.87441,15.5678656 C15.006152,15.2298716 15.123988,14.872935 15.2275519,14.4985416 C15.4383391,14.5379124 15.6458328,14.5787688 15.850399,14.6244537 C16.1867071,14.696881 16.5120368,14.775251 16.8293156,14.8617924 C16.1186404,15.8222897 15.1829059,16.6037616 14.1015233,17.1211525 Z M16.6576849,13.4009896 C16.290637,13.3114769 15.9140743,13.2312497 15.5283629,13.1588224 C15.6399776,12.5095768 15.7113379,11.8239317 15.7406139,11.1115443 L17.3270077,11.1115443 L18.2550572,11.1115443 C18.1730844,12.0126141 17.9326552,12.8646562 17.5612158,13.6427853 C17.2680898,13.5566154 16.965815,13.4749026 16.6576849,13.4009896 Z M17.3270077,9.78928195 L15.7406139,9.78928195 C15.7113379,9.07689453 15.6399776,8.39162092 15.5283629,7.74200382 C15.9140743,7.66957653 16.290637,7.58934937 16.6576849,7.49983667 C16.965815,7.42592369 17.2680898,7.34421085 17.5608499,7.25766952 C17.9326552,8.03579863 18.1727185,8.88821215 18.2546913,9.78891053 L17.3270077,9.78891053 L17.3270077,9.78928195 Z" id="R&amp;D"></path>
                </g>
            </g>
        </g>
    </g>
</svg>