<?xml version="1.0" encoding="UTF-8"?>
<svg width="30px" height="40px" viewBox="0 0 30 40" version="1.1" xmlns="http://www.w3.org/2000/svg" xmlns:xlink="http://www.w3.org/1999/xlink">
    <title>1FC9AF2B-2E8E-4FEC-B5BD-6651A786C137</title>
    <g id="Second-Version" stroke="none" stroke-width="1" fill="none" fill-rule="evenodd">
        <g id="Pop-Up" transform="translate(-705.000000, -208.000000)" fill="#003E52">
            <g id="Energy" transform="translate(705.517241, 208.000000)">
                <path d="M7.58527856,0 C6.93657251,-0.00318623651 6.36712564,0.430108449 6.19856792,1.05517202 L0.0490127855,23.9513824 C-0.0663128563,24.3793726 0.0244084877,24.8365383 0.294486705,25.1883817 C0.564564922,25.5402252 0.983276725,25.7467218 1.42743759,25.7471206 L9.85655831,25.7471206 L8.18799126,38.3895874 C8.10422811,39.029168 8.46128828,39.6451835 9.0586516,39.8916879 C9.65601491,40.1381923 10.3448311,39.9537619 10.7382703,39.4419703 L28.2772242,16.6348445 C28.6073221,16.2039114 28.6637444,15.6234003 28.4227859,15.1372062 C28.1818275,14.651012 27.6852388,14.3433771 27.1416558,14.3435505 L19.2789621,14.3435505 L24.3793773,2.06022652 C24.5614076,1.62173909 24.5128001,1.12161337 24.2497224,0.726197251 C23.9866447,0.330781131 23.5436007,0.0919354332 23.0679522,0.0891031297 L7.58527856,0 Z" id="Path"></path>
            </g>
        </g>
    </g>
</svg>