<?xml version="1.0" encoding="UTF-8"?>
<svg width="22px" height="22px" viewBox="0 0 60 60" version="1.1" xmlns="http://www.w3.org/2000/svg"
  xmlns:xlink="http://www.w3.org/1999/xlink">
  <title>3-Icons/Clients</title>
  <g id="3-Icons/Clients" stroke="none" stroke-width="1" fill-rule="evenodd">
    <path
      d="M38.2149868,33.4025847 L38.2889226,33.4357111 C38.3381529,33.4579916 38.3871864,33.4806306 38.4360196,33.5036247 C38.4667758,33.5181055 38.4978182,33.5329036 38.5287785,33.547845 C38.5852282,33.5750901 38.6410724,33.6026443 38.6966416,33.6306644 C38.715273,33.6400588 38.7339796,33.6495599 38.7526547,33.6591137 C38.8127901,33.6898793 38.8724199,33.7210962 38.9317187,33.7528505 C38.9563607,33.7660443 38.9815071,33.7796373 39.0065933,33.7933269 C39.0553114,33.819916 39.1032891,33.8465793 39.1510407,33.8735956 C39.2070191,33.9052665 39.2626722,33.9374141 39.318009,33.970041 C39.3391153,33.9824859 39.3600344,33.9949159 39.3809078,34.0074144 C39.4296407,34.0365924 39.4784242,34.0663296 39.5269515,34.0964408 C39.5576578,34.1154958 39.587904,34.1344736 39.6180489,34.1535967 C39.7300155,34.2246221 39.8407486,34.2977632 39.9500305,34.3728633 C39.9942084,34.4032228 40.0381704,34.4339175 40.0818916,34.4649293 C40.0857136,34.4676404 40.0893595,34.47023 40.0930038,34.4728219 L40.0818916,34.4649293 C40.2191906,34.5623167 40.3541156,34.6628311 40.4865626,34.766369 C40.5327997,34.8025127 40.5788678,34.8391324 40.6246276,34.8761181 C40.6503258,34.8968907 40.6755757,34.9174896 40.7007303,34.9382001 C40.9589485,35.1507839 41.2073847,35.3753815 41.4449356,35.6109392 C41.4556848,35.6215977 41.4665437,35.6324108 41.4773796,35.6432468 L41.5264544,35.6926369 C41.5430046,35.7094006 41.5595004,35.7262181 41.5759414,35.7430892 C41.7374593,35.9088243 41.8938614,36.0799247 42.0446975,36.2559355 C42.1894612,36.4248601 42.3291042,36.5983157 42.4633787,36.7760536 C42.4939051,36.8164595 42.5242784,36.8572562 42.5543691,36.8982732 C42.6936254,37.0880867 42.8269546,37.282815 42.953934,37.4819853 C42.9681814,37.5043347 42.9821296,37.5263903 42.996,37.5484998 C43.0242276,37.5934903 43.0524008,37.6391452 43.080242,37.685024 C43.0986601,37.7153775 43.1167134,37.7454592 43.1346238,37.7756355 C43.2585773,37.9844628 43.3758444,38.1981255 43.4859448,38.4160261 C43.5002039,38.4442459 43.5143829,38.4726178 43.5284403,38.5010605 C43.5477917,38.5402141 43.5669387,38.579556 43.5858528,38.6190306 C43.6039529,38.6568074 43.6217889,38.6945962 43.6394114,38.7325044 C43.6622087,38.781544 43.6846549,38.8307974 43.7067403,38.8802472 C43.7643705,39.0092823 43.8195517,39.1396754 43.8722155,39.2713474 C43.8735873,39.2747772 43.8749284,39.2781354 43.876268,39.2814945 L43.8722155,39.2713474 C43.902989,39.3482885 43.932903,39.4256662 43.9619456,39.5034688 C43.9660075,39.5143485 43.9702309,39.5257198 43.9744357,39.5371002 L43.9619456,39.5034688 C43.9941655,39.589783 44.0253128,39.67662 44.0553715,39.7639637 C44.0674457,39.7990546 44.0791652,39.8336893 44.0907133,39.8684022 C44.1070726,39.9175703 44.1232262,39.9673321 44.139027,40.0172508 C44.2024815,40.2177206 44.2602428,40.4207154 44.3121232,40.6260511 C44.3507277,40.7788432 44.3860745,40.9329249 44.4180873,41.0882247 C44.4260232,41.1267274 44.433712,41.1650882 44.4411969,41.2035218 C44.4535936,41.2671601 44.465519,41.3314952 44.4768714,41.3960277 C44.4793916,41.4103593 44.4817635,41.4240013 44.4841097,41.4376521 C44.4966975,41.5108647 44.5086445,41.584968 44.5198336,41.6593195 C44.5228209,41.6791688 44.52577,41.6991452 44.5286643,41.7191392 C44.5524131,41.8832212 44.5724499,42.0482617 44.5887218,42.2144066 C44.5918698,42.2465346 44.5949206,42.2791935 44.5978256,42.3118943 C44.6025902,42.3655507 44.6069311,42.4188968 44.6108829,42.4723512 C44.6139322,42.5135774 44.6167751,42.5552677 44.6193807,42.5970223 C44.6208703,42.6209007 44.6222712,42.6446003 44.6235955,42.6683202 L44.6193807,42.5970223 C44.6299941,42.7671018 44.636671,42.9382483 44.6393213,43.1103717 L44.6406264,43.28 L44.6409617,47.8976899 C40.6876543,50.5614399 35.6312501,52.16 30.1206264,52.16 C24.4977122,52.16 19.3477175,50.4956281 15.36,47.7335291 L15.36,43.259 L15.3620733,43.1014023 L15.363,43.066 L15.3643845,42.9922836 C15.365792,42.9384661 15.3675932,42.8847466 15.3697852,42.8311279 L15.3620733,43.1014023 C15.3640051,42.9822558 15.3678662,42.8635784 15.3736269,42.7454 C15.3760429,42.6958469 15.3787861,42.6464896 15.3818597,42.5972219 C15.3851158,42.5450109 15.3887595,42.4926833 15.3927747,42.4404597 C15.3950103,42.4113831 15.39736,42.3823514 15.3998242,42.3533523 C15.4138968,42.1877253 15.4317223,42.0230503 15.4532061,41.8595274 C15.454962,41.8461591 15.4567934,41.8324204 15.4586506,41.8186899 L15.4532061,41.8595274 C15.4776051,41.6738157 15.5067224,41.4895898 15.5404339,41.3069742 C15.5439072,41.2881566 15.5474769,41.269106 15.5510965,41.2500731 L15.5404339,41.3069742 C15.5552553,41.2266863 15.5709647,41.1467096 15.5875516,41.0670547 C15.5976754,41.0184316 15.6081823,40.9696762 15.6190172,40.9210445 C15.6265685,40.8871532 15.6342389,40.8534947 15.6420661,40.8198965 C15.6571461,40.7551608 15.6728475,40.6904939 15.689128,40.6260576 C15.6971418,40.5943396 15.7053012,40.5626576 15.7136003,40.5310322 C15.7265934,40.4815135 15.7400208,40.4318037 15.7537929,40.3822374 C15.7655488,40.3399311 15.7774832,40.2979788 15.7896639,40.2561315 C15.8017471,40.2146143 15.8141785,40.1728528 15.826855,40.1311979 C15.8659641,40.0026738 15.9074898,39.874921 15.951307,39.7482376 C15.9636351,39.7125974 15.9760619,39.6772731 15.9886665,39.6420335 C16.0067641,39.5914387 16.0251867,39.5411297 16.0439713,39.4909977 C16.0561647,39.4584505 16.0687221,39.4254301 16.0814363,39.3924877 C16.1301052,39.2664017 16.1809042,39.1418483 16.2339357,39.0184812 C16.2676362,38.9400894 16.3021199,38.8624346 16.337486,38.7852686 C16.3415005,38.7765085 16.3456644,38.7674558 16.3498405,38.7584098 C16.4084261,38.6315053 16.4693815,38.50597 16.5326675,38.3818214 C16.5949031,38.2597235 16.6595622,38.1386643 16.7264316,38.0190082 C16.7629665,37.9536264 16.8003808,37.8882896 16.8384535,37.8233857 C16.8438637,37.8141631 16.849193,37.8051089 16.854535,37.7960631 C16.9239004,37.6785926 16.995705,37.5621168 17.0696314,37.4471348 C17.0970715,37.404458 17.124649,37.3622207 17.1525128,37.3201898 C17.1925352,37.2598179 17.2331546,37.1998627 17.2743566,37.1403415 C17.286177,37.1232668 17.2978345,37.1065286 17.3095382,37.0898251 C17.3281917,37.0631966 17.3476233,37.0357306 17.3671796,37.0083598 C17.4070976,36.9524978 17.4471668,36.8975267 17.487739,36.8429517 C17.5219794,36.7968895 17.5568749,36.7507231 17.5921306,36.7048479 L17.487739,36.8429517 C17.5301734,36.7858718 17.573158,36.7292251 17.6166849,36.6730196 C17.6367197,36.6471493 17.6568397,36.6214101 17.6770735,36.5957649 C17.7645531,36.4848819 17.8543801,36.3754978 17.9462825,36.2679405 C17.9824904,36.2255659 18.0189317,36.1835755 18.0556899,36.141871 C18.082108,36.1118976 18.1087489,36.0820062 18.1355527,36.0522645 C18.1626486,36.0221976 18.1900651,35.9921165 18.2176486,35.9621918 C18.3046707,35.8677879 18.3931623,35.7751333 18.4832623,35.6840733 C18.5278715,35.6389903 18.5727547,35.5944155 18.6180245,35.5502351 C18.6419708,35.5268649 18.6660514,35.50358 18.6902397,35.4804064 C18.7267668,35.4454107 18.7636468,35.4105689 18.8007707,35.3759856 C18.8281413,35.3504886 18.8555642,35.3252052 18.8831179,35.3000627 C18.9234268,35.2632805 18.9640785,35.2267437 19.0050072,35.1905127 C19.0310463,35.1674626 19.0571639,35.1445654 19.0833924,35.1217925 C19.1224804,35.0878552 19.1617265,35.0542685 19.2012148,35.0209599 C19.2298996,34.9967625 19.2589785,34.9724919 19.2881864,34.948372 C19.3505062,34.8969112 19.4131632,34.8463333 19.4763913,34.7964471 C19.4890033,34.7864964 19.5015979,34.7766047 19.514215,34.7667404 C19.5391005,34.7472867 19.5635949,34.7283071 19.5881729,34.7094309 C19.6936453,34.6284254 19.8007247,34.549274 19.9092928,34.4720796 L19.9565473,34.4386702 C19.98799,34.4165658 20.0195558,34.3946248 20.0512437,34.3728486 C20.1578429,34.2995916 20.2658792,34.2281627 20.3752506,34.1586469 C20.4168895,34.132181 20.4587993,34.1059446 20.5009008,34.0799891 C20.5394714,34.056212 20.5779356,34.0328307 20.6165565,34.0096839 C20.6355536,33.9982977 20.6548324,33.9868241 20.6741498,33.9754089 C20.8037522,33.8988277 20.9348656,33.8249993 21.0676389,33.7538656 C21.1297936,33.720565 21.1924334,33.687793 21.2554308,33.6556213 C21.2716962,33.647314 21.2883918,33.6388417 21.3051124,33.6304117 C21.3601946,33.6026443 21.4150382,33.5755804 21.4701422,33.5489708 C21.5017453,33.5337082 21.533813,33.5184167 21.5659674,33.5032791 C21.6063051,33.4842904 21.646508,33.4656676 21.6868438,33.4472857 C21.725885,33.4294939 21.7650189,33.4119419 21.8042755,33.3946168 C21.8471114,33.3757107 21.8903753,33.3569547 21.933785,33.3384747 C21.9770308,33.3200645 22.0204223,33.3019278 22.0639564,33.2840673 C22.1065835,33.2665795 22.1491956,33.2494164 22.1919413,33.2325183 C22.230239,33.2173794 22.2684422,33.2025302 22.3067502,33.1878928 C22.3540967,33.1697993 22.4020811,33.1518545 22.4502259,33.1342426 C22.4913876,33.1191861 22.5324553,33.1044474 22.5736372,33.0899513 C22.6179985,33.0743361 22.662479,33.0590069 22.70709,33.0439612 C22.7467008,33.0306032 22.7861139,33.0175661 22.8256268,33.0047506 C22.9755357,32.9561192 23.1275237,32.9104997 23.2808797,32.8681776 C23.3067945,32.8610265 23.3324962,32.8540372 23.3582358,32.8471405 C23.3873763,32.8393322 23.4167118,32.8316048 23.4460959,32.8239979 C23.6851088,32.7621248 23.9272756,32.7082413 24.1723515,32.6626339 C24.2151534,32.6546703 24.257652,32.6470272 24.3002362,32.6396335 C24.3491574,32.6311393 24.3982523,32.6229645 24.447458,32.6151221 C24.4955666,32.6074524 24.5442236,32.6000361 24.5929862,32.5929457 C24.6355344,32.5867609 24.6776598,32.5808912 24.7198622,32.5752652 C24.7821471,32.5669594 24.8450489,32.5591326 24.9081162,32.551849 C24.9378178,32.5484199 24.967181,32.5451514 24.9965795,32.5420009 C25.0629387,32.5348871 25.129853,32.5283412 25.1969437,32.5224087 C25.2210181,32.5202808 25.244739,32.5182626 25.2684816,32.5163212 L25.3031388,32.5135432 C25.5860439,32.491321 25.8720131,32.48 26.1606264,32.48 L33.8406264,32.48 C34.1292397,32.48 34.4152089,32.491321 34.698114,32.5135432 L34.7318977,32.5162498 L34.7504315,32.5177798 C34.8369331,32.5249949 34.9231451,32.5332294 35.0090553,32.5424714 L34.7318977,32.5162498 C34.8400713,32.5250862 34.9477938,32.5355167 35.0550415,32.5475178 C35.1329244,32.5562336 35.2104751,32.5657666 35.287767,32.5761172 C35.3102005,32.5791215 35.3325578,32.582187 35.3548932,32.5853209 C35.4235173,32.5949489 35.4920271,32.6052366 35.560323,32.6161646 C35.601303,32.6227223 35.6420712,32.6294874 35.6827615,32.6364801 C35.7313351,32.6448269 35.7799504,32.6535265 35.8284518,32.6625503 C35.8949305,32.6749202 35.9609589,32.6878506 36.0267688,32.7013796 C36.0483734,32.7058202 36.0702996,32.7103986 36.0922014,32.7150434 C36.1447906,32.726198 36.1968833,32.7376544 36.2488335,32.7494854 C36.3824375,32.7799091 36.5153067,32.8128659 36.6471796,32.8482567 C36.6717371,32.8548477 36.6961021,32.8614794 36.7204326,32.8681941 C36.8734217,32.9104149 37.0251079,32.9559364 37.1753511,33.0046614 C37.3210589,33.0519132 37.4655562,33.1022327 37.6086197,33.1554978 C37.6329752,33.1645668 37.6569247,33.1735825 37.6808335,33.1826806 C37.7209484,33.1979438 37.7613483,33.2135968 37.8016298,33.229485 C37.9253509,33.2782862 38.0478134,33.329244 38.1691121,33.3823663 L38.2149868,33.4025847 L38.2149868,33.4025847 Z M50.4393615,26.48 C55.7193924,26.48 59.9997032,30.725651 59.9997032,35.9629268 L60,40.0174838 C56.5004658,42.3563862 52.0244517,43.76 47.1463549,43.76 C46.7888487,43.76 46.4335022,43.752461 46.0805414,43.7375673 L46.0806264,43.2798954 L46.0791576,43.0883283 C45.9849091,36.9458326 41.365827,31.9008679 35.4078346,31.1399049 C35.5092695,30.9696267 35.6161906,30.8026171 35.7281188,30.6392553 C36.9705231,29.8839862 38.0516606,28.8904013 38.9084904,27.7220311 C40.3036363,26.9314695 41.9191127,26.48 43.6408962,26.48 L50.4393615,26.48 Z M16.3593615,26.48 C18.0809865,26.48 19.6963239,26.9313864 21.091648,27.7213545 C21.9482578,28.8901527 23.0294157,29.8836636 24.2714503,30.6388674 C24.3837014,30.8020513 24.490739,30.9692204 24.5925403,31.1398272 C18.6331158,31.9018216 14.013809,36.949057 13.9220188,43.093473 L13.9206264,43.28 L13.9206451,43.7456014 C13.6373429,43.7551689 13.3525409,43.76 13.0663549,43.76 C8.0888566,43.76 3.52999464,42.2986003 0,39.8733427 L0.000554500065,35.9629268 C0.000554500065,30.725651 4.28086529,26.48 9.56089623,26.48 L16.3593615,26.48 Z M30,11.6 C33.6152886,11.6 36.7638172,13.5984372 38.401164,16.5508897 L38.4004811,16.5496586 L38.4254487,16.594952 C38.5179271,16.7637929 38.6054782,16.935717 38.6879083,17.1105308 L38.7095889,17.1568305 C38.7207855,17.1809089 38.7318852,17.2050414 38.7428875,17.2292277 C38.770821,17.2906346 38.7981084,17.352345 38.8247605,17.4143929 C38.8358229,17.4401447 38.8468841,17.466213 38.8578331,17.4923399 C38.9404946,17.6895831 39.0168007,17.8902893 39.0864434,18.0940842 C39.0921028,18.1106488 39.0975133,18.1266235 39.1028829,18.1426171 C39.1267018,18.2135445 39.1499379,18.2855617 39.1723407,18.357945 C39.1869021,18.4050025 39.2009553,18.4516812 39.2146612,18.4985083 C39.2317724,18.5569527 39.248539,18.6163503 39.2647454,18.6759787 C39.2767532,18.7201584 39.2884659,18.7645134 39.299868,18.8089928 C39.3467616,18.9919775 39.3882709,19.1764209 39.4243897,19.3627877 C39.4351059,19.4180616 39.4454587,19.4741359 39.4553219,19.5303787 C39.4816945,19.6807607 39.5045699,19.8323695 39.5238572,19.9850962 C39.5359687,20.0810026 39.5466644,20.17734 39.5559239,20.2740967 C39.5616794,20.3342583 39.5668566,20.394282 39.571479,20.4544612 C39.5736839,20.4831556 39.5757839,20.5121979 39.5777544,20.5412757 C39.5925037,20.7589074 39.6,20.9785783 39.6,21.2 C39.6,26.5019336 35.3019336,30.8 30,30.8 C24.6980664,30.8 20.4,26.5019336 20.4,21.2 C20.4,20.8026137 20.4241452,20.4108668 20.4710485,20.0261463 L20.4340265,20.3859732 C20.4460287,20.2430309 20.4611629,20.1009796 20.4793601,19.9598881 C20.5093672,19.7271902 20.5477471,19.4969036 20.5941638,19.2695419 C20.6011255,19.2354537 20.6081223,19.2021069 20.6152917,19.1688242 C20.664092,18.942245 20.7209676,18.7183728 20.7855486,18.4977919 C20.7930036,18.4723255 20.8006549,18.4465931 20.8084109,18.4209061 C20.8367062,18.3272008 20.8663485,18.2342393 20.8973563,18.1419047 C20.9035534,18.1234521 20.9097542,18.1051729 20.9160085,18.0869186 C20.9530227,17.9788772 20.991986,17.8715073 21.0327906,17.7650492 C21.0400776,17.7460375 21.0474396,17.727013 21.0548604,17.7080179 C21.1366003,17.4987895 21.2254532,17.2931652 21.3211342,17.0914088 C21.3287382,17.0753754 21.3363039,17.0595358 21.3439117,17.0437202 C22.8907884,13.8246266 26.1855995,11.6 30,11.6 Z M46.92,8 C51.6254661,8 55.44,11.8145339 55.44,16.52 C55.44,21.2254661 51.6254661,25.04 46.92,25.04 C44.5958143,25.04 42.4889892,24.1093683 40.9518331,22.600413 C41.0100805,22.1417662 41.04,21.6743771 41.04,21.2 C41.04,18.6211165 40.15576,16.2487584 38.6739264,14.3695719 C39.626587,10.7052175 42.9573748,8 46.92,8 Z M12.84,8 C16.8877256,8 20.276184,10.8226584 21.1443877,14.6069875 C19.7721164,16.4467349 18.96,18.7285275 18.96,21.2 C18.96,21.5993086 18.9811994,21.9936658 19.0225342,22.3820071 C17.4701597,24.0190952 15.2743024,25.04 12.84,25.04 C8.13453393,25.04 4.32,21.2254661 4.32,16.52 C4.32,11.8145339 8.13453393,8 12.84,8 Z"
      id="Combined-Shape"></path>
  </g>
</svg>