<?xml version="1.0" encoding="UTF-8"?>
<svg width="22px" height="22px" viewBox="0 0 22 22" version="1.1" xmlns="http://www.w3.org/2000/svg" xmlns:xlink="http://www.w3.org/1999/xlink">
    <title>0A70AE78-7063-4A41-826E-AF27EE78FA12</title>
    <g id="Overview-April-2021" stroke="none" stroke-width="1" fill="none" fill-rule="evenodd">
        <g id="3b-Overview-Unlock-Grants" transform="translate(-22.000000, -186.000000)" fill="#8A9FAE">
            <g id="navigation/sidebar-left/utils/link-buttons/start-up-loans" transform="translate(22.550000, 178.000000)">
                <g id="icons/overview" transform="translate(0.000000, 8.000000)">
                    <path d="M17.723567,19.5555556 L17.723567,20.3703704 L18.5338545,20.3703704 L18.5338545,21.1851852 L17.723567,21.1851852 L17.723567,22 L16.9132795,22 L16.9132795,21.1851852 L16.102992,21.1851852 L16.102992,20.3703704 L16.9132795,20.3703704 L16.9132795,19.5555556 L17.723567,19.5555556 Z M4.58549486,14.8777747 C5.56422803,15.1414907 6.32870566,15.9102397 6.59095642,16.8944414 C6.85320718,17.878643 6.57338895,18.9287737 5.85690654,19.6492593 C5.55680006,19.9534568 5.00202544,20.2319021 4.35825134,20.4752709 L4.11298778,20.5648717 L3.9878338,20.6084048 L3.73369487,20.6928681 L3.60519526,20.733771 L3.34654917,20.8128509 L3.08732509,20.8882053 L2.82946446,20.9597249 L2.57490871,21.0273004 L2.32559927,21.0908226 L2.08347756,21.1501822 L1.73801887,21.2311777 L1.32068438,21.3235827 L0.890409795,21.412806 L0.484700412,21.4908471 L0.411774537,21.4908471 C0.290406421,21.4927374 0.174542479,21.4399066 0.0960648584,21.3467856 C0.0175872379,21.2536646 -0.0152346386,21.1300659 0.00663078679,21.01 L0.0703991431,20.6738653 L0.134633251,20.3561347 L0.195363595,20.0698234 L0.266419826,19.7496789 L0.347410136,19.40229 L0.406729126,19.1588155 L0.470173036,18.9081131 L0.537625775,18.6521351 L0.646067493,18.2625468 L0.72303441,18.001921 L0.803603841,17.7428525 C1.07804381,16.8840555 1.41059081,16.0837524 1.78189643,15.6673225 L1.83788054,15.6077778 L1.84598341,15.6159259 C2.56246582,14.8954403 3.60676169,14.6140587 4.58549486,14.8777747 Z M20.4988017,0.513333333 C20.6890476,0.53343955 20.8393851,0.684617055 20.8593796,0.875925926 C20.9828069,2.59327401 20.824447,4.31871939 20.3912251,5.98325104 L20.3205384,6.24555556 C19.7952958,8.25317485 18.7608657,10.0893346 17.3184232,11.5744444 C17.0558274,11.8336401 16.7807623,12.0796622 16.4942338,12.3116331 L16.2772038,12.482963 L16.2772038,16.4714815 C16.2777915,16.5811995 16.2343872,16.6858073 16.1579825,16.7623262 L16.1232492,16.7933333 L10.6821686,21.0996296 C10.6103552,21.1556788 10.5218831,21.1858125 10.4309795,21.1851852 C10.3504743,21.1910578 10.2700596,21.1726152 10.2000475,21.1322222 C10.0647514,21.0336577 10.004717,20.8629376 10.0448112,20.7029379 L10.0582472,20.6596296 L11.6788222,16.2962963 L10.7915574,15.4244444 C10.4162607,15.5484334 10.0349324,15.6531367 9.64905205,15.7381481 L9.60651195,15.7411574 L9.56397186,15.7381481 C9.51046669,15.7375894 9.45778313,15.7263821 9.40890252,15.7053659 L9.36139998,15.6811111 L8.02037417,16.2881481 C7.96820778,16.3120503 7.911591,16.3245478 7.85426523,16.3248148 C7.76196087,16.3253515 7.67272976,16.294194 7.60097028,16.2372564 L7.56661317,16.2066667 L5.27349954,13.9007407 C5.16657667,13.7924496 5.1297434,13.6344131 5.17451043,13.4914512 L5.19247079,13.4444444 L5.81234073,12.0837037 C5.75816651,11.9977605 5.74064583,11.8935172 5.76372348,11.7944444 C5.83135474,11.4840153 5.91151878,11.1765158 6.00400878,10.8727077 L6.07568417,10.6455556 L5.18841935,9.75333333 L0.849329788,11.382963 C0.803746903,11.3989964 0.755820267,11.4072583 0.707529475,11.4074074 C0.54891093,11.4147916 0.400624876,11.3283159 0.328220209,11.1862063 C0.263860505,11.0598867 0.270003976,10.9103113 0.341426825,10.7907373 L0.371260162,10.7474074 L4.66983535,5.2637037 C4.73748194,5.17761626 4.83632584,5.1231346 4.94351593,5.11131181 L4.98989892,5.10888889 L8.95625623,5.10888889 C9.23620022,4.74579132 9.53791781,4.40021079 9.8597268,4.07407407 C11.2883266,2.67431733 13.0446138,1.66105612 14.9648067,1.12687747 L15.1711614,1.07148148 L15.3482242,1.02093278 C15.4655658,0.988641975 15.581707,0.958765432 15.6978482,0.928888889 C17.2667089,0.538757986 18.8867203,0.398534849 20.4988017,0.513333333 Z M8.40526073,19.5555556 L8.40526073,20.3703704 L7.59497323,20.3703704 L7.59497323,19.5555556 L8.40526073,19.5555556 Z M20.5595732,14.2592593 L20.5595732,15.0740741 L19.7492857,15.0740741 L19.7492857,14.2592593 L20.5595732,14.2592593 Z M1.11267323,13.4444444 L1.11267323,14.2592593 L0.302385725,14.2592593 L0.302385725,13.4444444 L1.11267323,13.4444444 Z M14.7295547,3.82534978 C13.9773489,3.82534978 13.2559558,4.12585183 12.7240931,4.66074074 C11.6165073,5.77451499 11.6165073,7.5802998 12.7240932,8.69407403 C13.831679,9.80784826 15.6274304,9.80784828 16.7350162,8.69407407 C17.2669332,8.15923974 17.5657656,7.43381597 17.5657656,6.67740741 C17.5657656,5.92099885 17.2669332,5.19557507 16.7350162,4.66074074 C16.2031536,4.12585183 15.4817604,3.82534978 14.7295547,3.82534978 Z M16.1597121,5.23925926 C16.9505161,6.03472192 16.9505161,7.32416697 16.1597121,8.11962963 C15.5804087,8.7023457 14.709063,8.8767387 13.9520287,8.56148012 C13.1949943,8.24622154 12.7013776,7.503405 12.7013776,6.67944444 C12.7013776,5.85548389 13.1949943,5.11266735 13.9520287,4.79740877 C14.709063,4.48215019 15.5804087,4.65654319 16.1597121,5.23925926 Z M3.54353573,3.25925926 L3.54353573,4.07407407 L2.73324823,4.07407407 L2.73324823,3.25925926 L3.54353573,3.25925926 Z M8.81040448,-1.77635684e-15 L8.81040448,0.814814815 L9.62069198,0.814814815 L9.62069198,1.62962963 L8.81040448,1.62962963 L8.81040448,2.44444444 L8.00011698,2.44444444 L8.00011698,1.62962963 L7.18982948,1.62962963 L7.18982948,0.814814815 L8.00011698,0.814814815 L8.00011698,-1.77635684e-15 L8.81040448,-1.77635684e-15 Z" id="Startup"></path>
                </g>
            </g>
        </g>
    </g>
</svg>