<?xml version="1.0" encoding="UTF-8"?>
<svg width="24px" height="24px" viewBox="0 0 24 24" version="1.1" xmlns="http://www.w3.org/2000/svg" xmlns:xlink="http://www.w3.org/1999/xlink">
    <title>E6954CAB-29C8-4881-8AA3-18F44CA61E3E</title>
    <g id="Desktop" stroke="none" stroke-width="1" fill-rule="evenodd">
        <g id="3g-Last-edited" transform="translate(-40.000000, -320.000000)">
            <g id="Menu" transform="translate(0.000000, 72.000000)">
                <g id="Group" transform="translate(0.000000, 240.000000)">
                    <g id="Overview" transform="translate(40.000000, 8.000000)">
                        <path d="M17.6336842,0 C21.102955,0 23.9311158,2.78636239 23.9987607,6.23968113 L24,6.36631579 L24,17.6336842 C24,21.102955 21.2136376,23.9311158 17.7603189,23.9987607 L17.6336842,24 L6.36631579,24 C2.89704502,24 0.0688841861,21.2136376 0.00123932789,17.7603189 L0,17.6336842 L0,6.36631579 C0,2.89704502 2.78636239,0.0688841861 6.23968113,0.00123932789 L6.36631579,0 L17.6336842,0 Z M17.0273684,5.81052632 L10.4842105,5.81052632 C9.82736842,5.81052632 9.32210526,6.34105263 9.32210526,6.97263158 C9.32210526,7.60421053 9.85263158,8.13473684 10.4842105,8.13473684 L14.1978947,8.13473684 L5.88631579,16.4715789 C5.43157895,16.9263158 5.43157895,17.6589474 5.88631579,18.1136842 C6.11368421,18.3410526 6.41684211,18.4673684 6.72,18.4673684 C7.02315789,18.4673684 7.32631579,18.3410526 7.55368421,18.1136842 L15.8652632,9.80210526 L15.8652632,13.5157895 C15.8652632,14.1726316 16.3957895,14.6778947 17.0273684,14.6778947 C17.6842105,14.6778947 18.1894737,14.1473684 18.1894737,13.5157895 L18.1894737,6.97263158 C18.1894737,6.31578947 17.6842105,5.81052632 17.0273684,5.81052632 Z" id="Shape"></path>
                    </g>
                </g>
            </g>
        </g>
    </g>
</svg>
