<?xml version="1.0" encoding="UTF-8"?>
<svg width="22px" height="22px" viewBox="0 0 22 22" version="1.1" xmlns="http://www.w3.org/2000/svg"
  xmlns:xlink="http://www.w3.org/1999/xlink">
  <title>AED76A5A-FB34-4FF3-8E0D-EDA92DF9C265</title>
  <g id="Overview-April-2021" stroke="none" stroke-width="1" fill-rule="evenodd">
    <g id="3b-Overview-Unlock-Grants" transform="translate(-22.000000, -134.000000)">
      <g id="navigation/sidebar-left/utils/link-buttons/matches" transform="translate(22.000000, 126.000000)">
        <g id="icons/overview" transform="translate(0.000000, 8.000000)">
          <path
            d="M4.44026224,11.7331627 C4.80497712,15.0332085 7.60273542,17.6 11,17.6 C14.3972646,17.6 17.1950229,15.0332085 17.5597378,11.7331627 L21.9759526,11.7331627 C21.5986579,17.4664828 16.8287588,22 11,22 C5.17124119,22 0.401342054,17.4664828 0.0240474478,11.7331627 L4.44026224,11.7331627 Z M15.46336,7.82955556 L11.84568,11.2944894 L11.5368,11.5870368 C11.06644,11.8745136 10.45176,11.7257047 10.16026,11.2512797 C9.87972667,10.7944378 10.0087933,10.2038881 10.4457558,9.90659121 L10.48762,9.8795918 L10.76328,9.7653947 L15.46336,7.82955556 Z M5.2382,1.63072568 L7.4976,5.55355016 C5.66434,6.69772568 4.42816,8.71337051 4.36876,11.0228855 L0,11.0228855 C0,7.05111938 2.09528,3.57273764 5.2382,1.63072568 Z M16.75146,1.62719835 C19.9012,3.565683 22,7.04759206 22,11.0228855 L17.63146,11.0228855 C17.57206,8.70984319 16.33236,6.68714371 14.49206,5.54649552 L16.75146,1.62719835 Z M11,2.27965794e-15 C12.85768,2.27965794e-15 14.61086,0.461858902 16.14382,1.27733197 L13.8809,5.21051797 C13.00794,4.78701871 12.03356,4.54914484 11,4.54914484 C9.96292,4.54914484 8.9815,4.78701871 8.10854,5.21404529 L5.84562,1.28416616 C7.38232,0.465386225 9.13528,2.27965794e-15 11,2.27965794e-15 Z"
            id="Matches"></path>
        </g>
      </g>
    </g>
  </g>
</svg>