<?xml version="1.0" encoding="UTF-8"?>
<svg width="24px" height="24px" viewBox="0 0 24 24" version="1.1" xmlns="http://www.w3.org/2000/svg" xmlns:xlink="http://www.w3.org/1999/xlink">
    <title>3237B761-D5B7-4559-B426-6514F9268DD2</title>
    <g id="Desktop" stroke="none" stroke-width="1" fill-rule="evenodd">
        <g id="3g-Last-edited" transform="translate(-40.000000, -208.000000)" >
            <g id="Menu" transform="translate(0.000000, 72.000000)">
                <g id="Group" transform="translate(0.000000, 128.000000)">
                    <g id="Overview" transform="translate(40.000000, 8.000000)">
                        <path d="M5.2,17.1428571 C5.4209139,17.1428571 5.6,17.3219432 5.6,17.5428571 L5.6,23.6 C5.6,23.8209139 5.4209139,24 5.2,24 L0.4,24 C0.1790861,24 0,23.8209139 0,23.6 L0,17.5428571 C0,17.3219432 0.1790861,17.1428571 0.4,17.1428571 L5.2,17.1428571 Z M23.6,17.1428571 C23.8209139,17.1428571 24,17.3219432 24,17.5428571 L24,23.6 C24,23.8209139 23.8209139,24 23.6,24 L7.6,24 C7.3790861,24 7.2,23.8209139 7.2,23.6 L7.2,17.5428571 C7.2,17.3219432 7.3790861,17.1428571 7.6,17.1428571 L23.6,17.1428571 Z M5.2,8.57142857 C5.4209139,8.57142857 5.6,8.75051467 5.6,8.97142857 L5.6,15.0285714 C5.6,15.2494853 5.4209139,15.4285714 5.2,15.4285714 L0.4,15.4285714 C0.1790861,15.4285714 0,15.2494853 0,15.0285714 L0,8.97142857 C0,8.75051467 0.1790861,8.57142857 0.4,8.57142857 L5.2,8.57142857 Z M23.6,8.57142857 C23.8209139,8.57142857 24,8.75051467 24,8.97142857 L24,15.0285714 C24,15.2494853 23.8209139,15.4285714 23.6,15.4285714 L7.6,15.4285714 C7.3790861,15.4285714 7.2,15.2494853 7.2,15.0285714 L7.2,8.97142857 C7.2,8.75051467 7.3790861,8.57142857 7.6,8.57142857 L23.6,8.57142857 Z M5.2,0 C5.4209139,0 5.6,0.1790861 5.6,0.4 L5.6,6.45714286 C5.6,6.67805676 5.4209139,6.85714286 5.2,6.85714286 L0.4,6.85714286 C0.1790861,6.85714286 0,6.67805676 0,6.45714286 L0,0.4 C0,0.1790861 0.1790861,0 0.4,0 L5.2,0 Z M23.6,0 C23.8209139,0 24,0.1790861 24,0.4 L24,6.45714286 C24,6.67805676 23.8209139,6.85714286 23.6,6.85714286 L7.6,6.85714286 C7.3790861,6.85714286 7.2,6.67805676 7.2,6.45714286 L7.2,0.4 C7.2,0.1790861 7.3790861,0 7.6,0 L23.6,0 Z" id="Shape"></path>
                    </g>
                </g>
            </g>
        </g>
    </g>
</svg>
