<?xml version="1.0" encoding="UTF-8"?>
<svg width="22px" height="22px" viewBox="0 0 22 22" version="1.1" xmlns="http://www.w3.org/2000/svg"
  xmlns:xlink="http://www.w3.org/1999/xlink">
  <title>F4C4B1D4-E33A-47A8-A9D8-4AF7BE9F8B86</title>
  <g id="Overview-April-2021" stroke="none" stroke-width="1" fill-rule="evenodd">
    <g id="3b-Overview-Unlock-Grants" transform="translate(-22.000000, -290.000000)">
      <g id="navigation/sidebar-left/utils/link-buttons/banking" transform="translate(22.000000, 282.000000)">
        <g id="icons/overview" transform="translate(0.000000, 8.733333)">
          <path
            d="M21.1851852,6.43076923 L21.1851852,8.03846154 L20.3703704,8.03846154 L20.3703704,8.84230769 L19.5555556,8.84230769 L19.5555556,17.6846154 L20.3703704,17.6846154 L20.3703704,18.4884615 L21.1851852,18.4884615 L21.1851852,19.2923077 L22,19.2923077 L22,20.9 L0,20.9 L0,19.2923077 L0.814814815,19.2923077 L0.814814815,18.4884615 L1.62962963,18.4884615 L1.62962963,17.6846154 L2.44444444,17.6846154 L2.44444444,8.84230769 L1.62962963,8.84230769 L1.62962963,8.03846154 L0.814814815,8.03846154 L0.814814815,6.43076923 L21.1851852,6.43076923 Z M6.51851852,8.03846154 L5.7037037,8.03846154 L5.7037037,8.84230769 L4.88888889,8.84230769 L4.88888889,17.6846154 L5.7037037,17.6846154 L5.7037037,18.4884615 L6.51851852,18.4884615 L6.51851852,17.6846154 L7.33333333,17.6846154 L7.33333333,8.84230769 L6.51851852,8.84230769 L6.51851852,8.03846154 Z M11.4074074,8.03846154 L10.5925926,8.03846154 L10.5925926,8.84230769 L9.77777778,8.84230769 L9.77777778,17.6846154 L10.5925926,17.6846154 L10.5925926,18.4884615 L11.4074074,18.4884615 L11.4074074,17.6846154 L12.2222222,17.6846154 L12.2222222,8.84230769 L11.4074074,8.84230769 L11.4074074,8.03846154 Z M16.2962963,8.03846154 L15.4814815,8.03846154 L15.4814815,8.84230769 L14.6666667,8.84230769 L14.6666667,17.6846154 L15.4814815,17.6846154 L15.4814815,18.4884615 L16.2962963,18.4884615 L16.2962963,17.6846154 L17.1111111,17.6846154 L17.1111111,8.84230769 L16.2962963,8.84230769 L16.2962963,8.03846154 Z M11.4074074,1.77635684e-15 L22,4.82307692 L22,5.62692308 L0,5.62692308 L0,4.82307692 L10.5925926,1.77635684e-15 L11.4074074,1.77635684e-15 Z"
            id="Banking"></path>
        </g>
      </g>
    </g>
  </g>
</svg>