<?xml version="1.0" encoding="UTF-8"?>
<svg width="22px" height="22px" viewBox="0 0 22 22" version="1.1" xmlns="http://www.w3.org/2000/svg"
  xmlns:xlink="http://www.w3.org/1999/xlink">
  <title>EFAEADDC-3C82-423C-8718-4BCE8CAC19DB</title>
  <g id="Overview-April-2021" stroke="none" stroke-width="1" fill-rule="evenodd">
    <g id="3c-Overview-Retracted-Loans-Matches" transform="translate(-23.000000, -82.000000)">
      <g id="Retractive/Active" transform="translate(15.000000, 74.000000)">
        <g id="icons/overview" transform="translate(8.000000, 8.000000)">
          <path
            d="M7.85714286,22 L20.4285714,22 C21.2928571,22 22,21.2928571 22,20.4285714 L22,7.85714286 L7.85714286,7.85714286 L7.85714286,22 Z M20.4285714,0 L1.57142857,0 C0.707142857,0 0,0.707142857 0,1.57142857 L0,6.28571429 L22,6.28571429 L22,1.57142857 C22,0.707142857 21.2928571,0 20.4285714,0 Z M0,20.4285714 C0,21.2928571 0.707142857,22 1.57142857,22 L6.28571429,22 L6.28571429,7.85714286 L0,7.85714286 L0,20.4285714 Z"
            id="Overview"></path>
        </g>
      </g>
    </g>
  </g>
</svg>