<?xml version="1.0" encoding="UTF-8"?>
<svg width="22px" height="22px" viewBox="0 0 22 22" version="1.1" xmlns="http://www.w3.org/2000/svg"
  xmlns:xlink="http://www.w3.org/1999/xlink">
  <title>E8ECD266-76EE-4ED1-8D5E-97611380450A</title>
  <g id="Overview-April-2021" stroke="none" stroke-width="1" fill-rule="evenodd">
    <g id="3b-Overview-Unlock-Grants" transform="translate(-22.000000, -706.000000)">
      <g id="navigation/sidebar-left/utils/link-buttons/integration" transform="translate(22.000000, 698.000000)">
        <g id="icons/integrations" transform="translate(0.000000, 8.000000)">
          <g id="Group"></g>
          <path
            d="M4.4,0 L4.4,13.40625 C5.673063,13.8653449 6.6,15.0775251 6.6,16.5 C6.6,17.8513512 5.76343936,19.0129113 4.5882909,19.5193055 L4.4,19.59375 L4.4,22 L2.2,22 L2.2,19.59375 C0.926937,19.1346551 -2.44249065e-15,17.9224749 -2.44249065e-15,16.5 C-2.44249065e-15,15.1486488 0.836560642,13.9870887 2.0117091,13.4806945 L2.2,13.40625 L2.2,0 L4.4,0 Z M12.1,0 L12.1,2.40625 C13.373063,2.8653449 14.3,4.0775251 14.3,5.5 C14.3,6.9224749 13.373063,8.1346551 12.1,8.59375 L12.1,22 L9.9,22 L9.9,8.59375 C8.626937,8.1346551 7.7,6.9224749 7.7,5.5 C7.7,4.0775251 8.626937,2.8653449 9.9,2.40625 L9.9,0 L12.1,0 Z M19.8,0 L19.8,13.40625 C21.073063,13.8653449 22,15.0775251 22,16.5 C22,17.8513512 21.1634394,19.0129113 19.9882909,19.5193055 L19.8,19.59375 L19.8,22 L17.6,22 L17.6,19.59375 C16.326937,19.1346551 15.4,17.9224749 15.4,16.5 C15.4,15.1486488 16.2365606,13.9870887 17.4117091,13.4806945 L17.6,13.40625 L17.6,0 L19.8,0 Z"
            id="Shape"></path>
        </g>
      </g>
    </g>
  </g>
</svg>