<?xml version="1.0" encoding="UTF-8"?>
<svg width="20px" height="22px" viewBox="0 0 20 22" version="1.1" xmlns="http://www.w3.org/2000/svg"
  xmlns:xlink="http://www.w3.org/1999/xlink">
  <title>7E68D736-417B-4584-9D60-E0F17D66F77C</title>
  <g id="Overview-April-2021" stroke="none" stroke-width="1" fill-rule="evenodd">
    <g id="3b-Overview-Unlock-Grants" transform="translate(-23.000000, -446.000000)">
      <g id="navigation/sidebar-left/utils/link-buttons/insurance" transform="translate(23.100000, 438.000000)">
        <g id="icons/overview" transform="translate(-0.000000, 8.000000)">
          <path
            d="M10.6134714,21.7682177 C13.3088079,20.1457419 18.2238332,17.2870939 19.1751284,15.3555751 C20.1264236,13.5785777 19.7300506,7.86128183 19.650776,4.61633011 C19.5715014,3.99824407 19.0958538,3.45741879 18.461657,3.38015803 C15.6077713,3.07111501 12.9917095,2.0667252 10.7720206,0.289727831 C10.2170984,-0.0965759438 9.50362699,-0.0965759438 9.02797938,0.289727831 C6.80829054,2.0667252 4.19222868,3.07111501 1.33834302,3.38015803 C0.70414621,3.45741879 0.149223998,3.99824407 0.149223998,4.61633011 C0.0699493967,7.86128183 -0.326423611,13.5785777 0.624871608,15.3555751 C1.57616683,17.2870939 6.49119213,20.1457419 9.18652859,21.7682177 C9.58290159,22.0772608 10.1378238,22.0772608 10.6134714,21.7682177 Z M4.73673469,11.7486111 C4.2877551,11.3208333 4.2877551,10.6791667 4.73673469,10.2513889 C5.18571429,9.82361111 5.85918367,9.82361111 6.30816327,10.2513889 L8.44081633,12.2833333 L13.4918367,7.47083333 C13.9408163,7.04305556 14.6142857,7.04305556 15.0632653,7.47083333 C15.5122449,7.89861111 15.5122449,8.54027778 15.0632653,8.96805556 L9.22653061,14.5291667 C8.77755102,14.9569444 8.10408163,14.9569444 7.65510204,14.5291667 L4.73673469,11.7486111 Z"
            id="Insurance"></path>
        </g>
      </g>
    </g>
  </g>
</svg>