<svg xmlns="http://www.w3.org/2000/svg" viewBox="0 0 100 100"><path fill="#96d3e1" d="M0 0h100v100H0z"/><path d="M44.5 32.1c0-1.6.6-2.9 1.6-4 1.1-1.1 2.4-1.7 4-1.7s2.9.6 4 1.7 1.6 2.4 1.6 4c0 1.5-.6 2.9-1.6 4-1.1 1.1-2.4 1.6-4 1.6-1.5 0-2.9-.6-4-1.7-1-1.1-1.6-2.4-1.6-3.9zM40 48.8v-7.5h15.2v24.9H60v7.4H40v-7.4h4.9V48.8H40z" fill-rule="evenodd" clip-rule="evenodd" fill="#043751"/><path d="M50 10c-22.1 0-40 17.9-40 40 0 8.1 2.4 15.7 6.6 22L10 90l17.6-6.8C34 87.5 41.7 90 50 90c22.1 0 40-17.9 40-40S72.1 10 50 10z" fill="none" stroke="#043751" stroke-width="8.696" stroke-miterlimit="10"/></svg>