<svg width="66" height="66" viewBox="0 0 66 66" fill="none" xmlns="http://www.w3.org/2000/svg">
<path fill-rule="evenodd" clip-rule="evenodd" d="M35.1402 65.3047C43.2262 60.4372 57.9713 51.8613 60.8252 46.0667C63.6791 40.7357 62.49 23.5838 62.2521 13.849C62.0143 11.9947 60.5874 10.3723 58.6848 10.1405C50.1231 9.21335 42.2749 6.20018 35.6159 0.869183C33.9511 -0.289728 31.8107 -0.289728 30.3837 0.869183C23.7247 6.20018 15.8765 9.21335 7.31483 10.1405C5.41224 10.3723 3.74748 11.9947 3.74748 13.849C3.50965 23.5838 2.32053 40.7357 5.17442 46.0667C8.02831 51.8613 22.7734 60.4372 30.8594 65.3047C32.0485 66.2318 33.7133 66.2318 35.1402 65.3047ZM17.51 35.2458C16.1631 33.9625 16.1631 32.0375 17.51 30.7542C18.8569 29.4708 20.8774 29.4708 22.2243 30.7542L28.6223 36.85L43.7753 22.4125C45.1223 21.1292 47.1427 21.1292 48.4896 22.4125C49.8365 23.6958 49.8365 25.6208 48.4896 26.9042L30.9794 43.5875C29.6325 44.8708 27.612 44.8708 26.2651 43.5875L17.51 35.2458Z" fill="#8A9FAE"/>
</svg>
