<?xml version="1.0" encoding="UTF-8"?>
<svg width="34px" height="34px" viewBox="0 0 34 34" version="1.1" xmlns="http://www.w3.org/2000/svg" xmlns:xlink="http://www.w3.org/1999/xlink">
    <title>linkedin</title>
    <g id="Page-1" stroke="none" stroke-width="1" fill="white" fill-rule="evenodd">
        <g id="linkedin"  fill="#003E52" fill-rule="nonzero">
            <path d="M34,2.5 L34,31.5 C34,32.8807119 32.8807119,34 31.5,34 L2.5,34 C1.11928813,34 0,32.8807119 0,31.5 L0,2.5 C0,1.11928813 1.11928813,0 2.5,0 L31.5,0 C32.8807119,0 34,1.11928813 34,2.5 Z M10,13 L5,13 L5,29 L10,29 L10,13 Z M10.45,7.5 C10.4553228,6.73617099 10.1569882,6.00151392 9.62063015,5.45765441 C9.08427214,4.91379489 8.35382926,4.60528595 7.59,4.6 L7.5,4.6 C5.89837423,4.6 4.6,5.89837423 4.6,7.5 C4.6,9.10162577 5.89837423,10.4 7.5,10.4 L7.5,10.4 C8.26388716,10.4187925 9.00393075,10.1332452 9.55721318,9.60622024 C10.1104956,9.07919528 10.4316588,8.35389813 10.45,7.59 L10.45,7.5 Z M29,19.28 C29,14.47 25.94,12.6 22.9,12.6 C20.8744545,12.4985746 18.9475709,13.4810568 17.84,15.18 L17.7,15.18 L17.7,13 L13,13 L13,29 L18,29 L18,20.49 C17.8495744,18.6760601 19.187716,17.0792112 21,16.91 L21.19,16.91 C22.78,16.91 23.96,17.91 23.96,20.43 L23.96,29 L28.96,29 L29,19.28 Z" id="Shape"></path>
        </g>
    </g>
</svg>