<svg xmlns="http://www.w3.org/2000/svg" viewBox="0 0 100 100"><style>.st0{fill:#96d3e1;stroke:#96d3e1;stroke-width:.875;stroke-miterlimit:10}</style><path class="st0" d="M62 15H38c-4.2 0-7.7 3.4-7.7 7.7v54.8c0 4.2 3.4 7.7 7.7 7.7h24c4.2 0 7.7-3.4 7.7-7.7V22.6c0-4.2-3.4-7.6-7.7-7.6zm5.5 62.3c0 3-2.5 5.5-5.5 5.5H38c-3 0-5.5-2.5-5.5-5.5v-5.5h35v5.5zm0-7.6h-35V30.3h35v39.4zm-35-41.6v-5.5c0-3 2.5-5.5 5.5-5.5h24c3 0 5.5 2.5 5.5 5.5v5.5h-35z"/><path class="st0" d="M55.5 21.6h-11c-.6 0-1.1.5-1.1 1.1s.5 1.1 1.1 1.1h10.9c.6 0 1.1-.5 1.1-1.1s-.4-1.1-1-1.1zM50 81.2c2.1 0 3.8-1.7 3.8-3.8s-1.7-3.8-3.8-3.8c-2.1 0-3.8 1.7-3.8 3.8s1.7 3.8 3.8 3.8zm0-6.6c1.5 0 2.7 1.2 2.7 2.7S51.5 80 50 80c-1.5 0-2.7-1.2-2.7-2.7s1.2-2.7 2.7-2.7z"/><circle cx="50" cy="50" r="47" fill="none" stroke="#96d3e1" stroke-width="4.796" stroke-miterlimit="10"/></svg>