<svg xmlns="http://www.w3.org/2000/svg" viewBox="0 0 100 100"><style>.st1{fill:#96d3e1;stroke:#96d3e1;stroke-width:.7852;stroke-miterlimit:10}</style><circle cx="50" cy="50" r="47" fill="none" stroke="#96d3e1" stroke-width="4.796" stroke-miterlimit="10"/><path class="st1" d="M47 95.9V49.2h6V96M37.4 14.5v17.2h5.9V14.5c0-.8-.6-1.5-1.4-1.5h-3c-.9 0-1.5.7-1.5 1.5zm19.3 0v17.2h5.9V14.5c0-.8-.6-1.5-1.4-1.5h-3c-.9 0-1.5.7-1.5 1.5z"/><path class="st1" d="M50 65c10.6 0 19.2-4.3 19.2-15.1V37H30.8v13c0 10.6 8.6 15 19.2 15z"/><path class="st1" d="M43.6 62.8h12.9v16.1H43.6zm24.7-24.5H31.7c-1.2 0-2.1-.9-2.1-2.1v-3c0-1.2.9-2.1 2.1-2.1h36.5c1.2 0 2.1.9 2.1 2.1v3c.1 1.2-.9 2.1-2 2.1z"/><path fill="#fff" d="M54.1 40.1h-5.4l-4.2 10.6h5.6L47 60.6l10.3-12.4h-6.6z"/><path class="st1" d="M56.8 69.7H43.2c-.8 0-1.4-.6-1.4-1.4v-1.5c0-.8.6-1.4 1.4-1.4h13.6c.8 0 1.4.6 1.4 1.4v1.5c0 .8-.6 1.4-1.4 1.4zm0 5.5H43.2c-.8 0-1.4-.6-1.4-1.4v-1.5c0-.8.6-1.4 1.4-1.4h13.6c.8 0 1.4.6 1.4 1.4v1.5c0 .7-.6 1.4-1.4 1.4zm0 5.4H43.2c-.8 0-1.4-.6-1.4-1.4v-1.5c0-.8.6-1.4 1.4-1.4h13.6c.8 0 1.4.6 1.4 1.4v1.5c0 .7-.6 1.4-1.4 1.4z"/></svg>