<?xml version="1.0" encoding="UTF-8"?>
<svg width="61px" height="23px" viewBox="0 0 61 23" version="1.1" xmlns="http://www.w3.org/2000/svg" xmlns:xlink="http://www.w3.org/1999/xlink">
    <title>41772EE3-08F3-438E-8EE7-F2F288BFFD3A</title>
    <defs>
        <filter color-interpolation-filters="auto" id="filter-1">
            <feColorMatrix in="SourceGraphic" type="matrix" values="0 0 0 0 1.000000 0 0 0 0 1.000000 0 0 0 0 1.000000 0 0 0 1.000000 0"></feColorMatrix>
        </filter>
    </defs>
    <g id="Desktop" stroke="none" stroke-width="1" fill="none" fill-rule="evenodd">
        <g id="3a-Sign-in" transform="translate(-281.000000, -840.000000)">
            <g id="BNP" transform="translate(18.000000, 834.000000)" filter="url(#filter-1)">
                <g transform="translate(263.752066, 6.057692)">
                    <path d="M20.455772,4.56945118 C18.5924969,5.65996159 18.0208907,5.74530868 16.0127014,6.95627122 C17.1807102,5.68121785 17.5890463,5.14433632 18.3210242,4.0747601 C16.456461,4.17395597 13.7555816,4.39618048 11.8192053,4.82452627 C13.504719,3.9304752 16.8364583,2.92627808 18.5947511,2.69213719 C18.187059,2.13142289 14.888811,0.337845665 14.065376,-1.78605679e-15 C16.6757645,0.202256508 19.8699964,1.17102654 21.4141381,2.12433747 C22.0382354,1.9362518 22.6616887,1.92111477 23.7900876,1.82288509 C23.5031574,2.31918649 23.498971,2.60743422 22.3831313,3.34045303 C22.6922817,4.16364991 21.9574055,8.6967078 21.3529521,9.9025173 C21.3265455,8.00394705 21.1568348,5.60649888 20.455772,4.56945118" id="Fill-2" fill="#009887"></path>
                    <path d="M6.86378243,20.8269453 C5.79109503,20.4320942 5.02079534,19.9702537 4.17868259,19.1805515 C4.43179946,18.4855363 4.72033981,17.9338398 5.19501446,17.240435 C4.32134261,17.3650739 3.68983856,17.4600829 2.94175905,17.6069444 C2.32925487,16.5376902 2.05971438,15.5144913 1.74734369,14.0906441 C1.57859911,15.598228 1.5174131,16.6781103 1.73414039,17.8832757 C1.04917909,18.0707172 0.562267248,18.239479 0,18.4916556 C0.786401271,18.9792612 1.42563408,19.3560767 2.31476345,19.7638103 C2.78428558,20.7796018 3.2750618,21.4720405 4.0688698,22.2488601 C3.8795152,21.5860513 3.83668499,21.0507801 3.9039896,20.3567311 C4.89745722,20.6465891 5.73860387,20.790874 6.86378243,20.8269453" id="Fill-3" fill="#009887"></path>
                    <path d="M9.64033925,5.74949552 L9.64033925,5.74949552 C9.30252805,6.18138402 8.92059853,6.98525702 8.8175484,7.35981804 C11.5619021,7.73888796 13.7752255,9.14630984 13.7752255,9.14630984 C11.3596662,8.72086263 10.0992343,8.77335915 9.20366434,8.85194289 C8.30938247,8.94051063 8.12775662,9.04808017 8.12775662,9.04808017 C7.48015099,10.45518 7.09467911,12.9025482 7.09467911,12.9041585 C6.65607202,11.8513296 6.02134765,9.73955266 6.02134765,9.73794234 C4.80954258,10.3898009 2.02300278,13.0120501 2.02107059,13.0130163 C3.55394121,9.94019885 5.10613372,8.53277696 5.10806591,8.53277696 C4.57284932,7.99814989 3.17072355,7.72987016 2.1463409,7.68349287 C2.68026936,7.46416694 4.04793775,7.2068374 5.09743887,7.16303663 C6.14532983,7.12986399 6.77941014,7.19395482 6.78102029,7.19395482 C7.72296285,6.45159614 9.14280036,5.82711307 9.64033925,5.74949552" id="Fill-4" fill="#009887"></path>
                    <path d="M12.5524714,18.9254764 C12.0639494,19.5792674 11.6517489,20.1003677 11.1110578,20.7032725 C10.1852168,20.9538387 9.44905245,21.0488477 8.54929604,21.0536787 C9.10158031,21.339672 9.63776299,21.5158412 10.2116234,21.6292079 C9.63776299,22.1551393 9.14666474,22.5306665 8.58761781,22.8846154 C9.52634005,22.6585261 10.7687381,22.2575558 11.6862063,21.7209963 C12.1612029,21.734523 12.6130133,21.704249 12.9421297,21.6453112 C12.8625879,21.3593179 12.803012,21.1541628 12.7331311,20.7876534 C13.6019725,20.1148607 14.2337986,19.5097014 14.9467767,18.7831239 C14.1825956,19.317751 13.5185663,19.7212978 12.640386,20.1383714 C12.5988439,19.7277391 12.5727594,19.3840963 12.5524714,18.9254764" id="Fill-5" fill="#009887"></path>
                    <path d="M11.337446,12.9634183 C11.3744796,13.3650328 11.3999201,14.3656872 11.3999201,14.7331628 C11.3999201,15.0697202 11.3950897,16.1985563 11.3313274,16.6858399 L11.3239207,16.7257759 L13.5311256,16.72642 C14.6099316,16.72642 15.7599065,16.452021 15.7599065,15.6838972 C15.7599065,15.2024108 15.3248418,14.8455633 14.5075255,14.649426 C15.1071484,14.5222105 15.5154845,14.18984 15.5154845,13.8059391 C15.5154845,13.1804898 14.6125078,12.9411959 13.7691069,12.926703 C13.7671747,12.926703 11.3345477,12.9238044 11.3345477,12.9238044 L11.337446,12.9634183 Z M13.0426035,13.3498957 C13.9639361,13.3531164 14.3059337,13.5054529 14.3059337,13.9064232 C14.3059337,14.0143148 14.2653577,14.1090018 14.1835617,14.1882297 C14.0067663,14.3560253 13.6551077,14.4423385 13.2193989,14.4262353 L13.1978228,14.4262353 L12.9437398,14.9608624 L13.2013651,14.9608624 C13.7095311,14.9466916 14.1497483,15.0758394 14.3758145,15.2970977 C14.4807969,15.3988701 14.533288,15.5144913 14.533288,15.6404185 C14.533288,16.0642554 14.0708506,16.2800386 13.1636874,16.2800386 C13.0107224,16.2800386 12.7643682,16.2793945 12.6062507,16.2713429 C12.5734034,15.7154595 12.5711492,14.9573197 12.5711492,14.7331628 C12.5711492,14.4690699 12.5859627,13.8790477 12.6078608,13.3740506 C12.7093008,13.3595577 12.8835199,13.3476413 13.0426035,13.3498957 L13.0426035,13.3498957 Z" id="Fill-6" fill="#1A1919"></path>
                    <path d="M20.8476845,12.9238044 L19.7782174,12.9238044 L19.8236238,13.8809801 C19.8423017,14.3582797 19.8619456,14.8436309 19.9018775,15.3148113 C19.8290984,15.1708485 19.7682344,15.0912985 19.448457,14.7135169 C19.438152,14.6999901 18.3264987,13.3244527 17.9394167,12.9357208 L17.9281456,12.9238044 L16.679951,12.9238044 L16.6818831,12.961808 C16.7189168,13.3624563 16.7446793,14.3634327 16.7446793,14.7331628 C16.7446793,15.068754 16.7401709,16.1985563 16.6751205,16.6855178 L16.67029,16.7241656 L17.7780789,16.7241656 L17.7758246,16.6880943 C17.7107742,15.7557176 17.7107742,14.8214085 17.7107742,13.9183396 L17.7107742,13.9160851 C17.748774,14.0236547 17.8012651,14.1234947 17.9751622,14.3302601 C17.9944841,14.3534487 19.8980132,16.5779483 19.9959108,16.7109609 L20.0049277,16.7241656 L20.8963112,16.7241656 L20.8918028,16.6855178 C20.8248202,16.197268 20.8206338,15.068754 20.8206338,14.7331628 C20.8206338,14.3634327 20.8476845,13.3602018 20.8831079,12.961808 L20.8879384,12.9238044 L20.8476845,12.9238044" id="Fill-7" fill="#1A1919"></path>
                    <path d="M22.1377432,12.9611639 C22.1731667,13.3643887 22.2002174,14.3640769 22.2002174,14.7331628 C22.2002174,15.068754 22.1953869,16.197268 22.1290484,16.6842296 L22.125184,16.7231994 L23.4461578,16.7231994 L23.4419714,16.6842296 C23.3946327,16.336722 23.3788532,15.6690822 23.3737007,15.1544232 C23.42748,15.1573217 23.6165125,15.1647292 23.6165125,15.1647292 L23.8010367,15.1718146 C25.5435499,15.1718146 26.389205,14.7972536 26.389205,14.0262312 C26.389205,13.146673 25.2034845,12.9428062 24.2090508,12.9238044 L22.1345229,12.9238044 L22.1377432,12.9611639 Z M23.7559522,13.3827463 C24.374575,13.3730844 24.8106059,13.4751788 25.0199264,13.6819443 C25.1126715,13.7746988 25.1603322,13.89032 25.1603322,14.0262312 C25.1603322,14.5776056 24.3909986,14.6919385 23.7459692,14.6919385 L23.4854456,14.6858193 C23.4854456,14.6858193 23.4200732,14.679378 23.3801413,14.674225 C23.3753108,14.5482978 23.3737007,14.3824345 23.3737007,14.1933827 C23.3737007,13.9508681 23.376921,13.6732485 23.3898023,13.4065791 C23.4709542,13.396273 23.6132922,13.3866111 23.7559522,13.3827463 L23.7559522,13.3827463 Z" id="Fill-8" fill="#1A1919"></path>
                    <path d="M28.9126449,12.9611639 C28.9509667,13.3643887 28.9764072,14.3640769 28.9764072,14.7331628 C28.9764072,15.068754 28.9718987,16.197268 28.9074924,16.6842296 L28.9020179,16.7231994 L30.2233137,16.7231994 L30.2171951,16.6842296 C30.1724327,16.336722 30.155043,15.6690822 30.1498905,15.1544232 C30.2049579,15.1573217 30.3904481,15.1647292 30.3904481,15.1647292 L30.5772265,15.1718146 C32.3187736,15.1718146 33.1653948,14.7972536 33.1653948,14.0262312 C33.1653948,13.146673 31.9796743,12.9428062 30.9842745,12.9238044 L28.9107127,12.9238044 L28.9126449,12.9611639 Z M30.5324641,13.3827463 C31.1507648,13.3730844 31.5867957,13.4751788 31.7951502,13.6819443 C31.8891834,13.7746988 31.9381322,13.89032 31.9381322,14.0262312 C31.9381322,14.5776056 31.1678325,14.6919385 30.521193,14.6919385 L30.2609914,14.6858193 C30.2609914,14.6858193 30.196263,14.679378 30.1563311,14.674225 C30.1518227,14.5482978 30.1498905,14.3805022 30.1498905,14.1927386 C30.1498905,13.9489357 30.1540769,13.6732485 30.1659921,13.4065791 C30.2458559,13.396273 30.3904481,13.3866111 30.5324641,13.3827463 L30.5324641,13.3827463 Z" id="Fill-9" fill="#1A1919"></path>
                    <path d="M34.9365688,12.926703 L34.9149927,12.926703 L34.9053318,12.9476372 C34.6592996,13.4870952 33.0778022,16.2510528 32.831448,16.6729573 L32.801177,16.72642 L33.9347284,16.72642 L33.9424571,16.7032314 C34.0416429,16.4452577 34.1678793,16.1505687 34.3169799,15.8330131 C34.3601322,15.832691 35.2547361,15.8217408 35.2547361,15.8217408 L36.0256798,15.8297924 C36.0256798,15.8297924 36.1618992,15.832691 36.1944244,15.832691 C36.3992365,16.2423571 36.5499474,16.551539 36.6162859,16.7041976 L36.6249807,16.72642 L37.9375817,16.72642 L35.8227999,12.926703 L34.9365688,12.926703 Z M35.2579564,14.0455551 C35.3629387,14.224945 35.6340894,14.7331628 35.9406635,15.3328469 C35.895257,15.3338131 35.8392235,15.3354234 35.8392235,15.3354234 L35.2579564,15.3421868 C35.2579564,15.3421868 34.6567233,15.3338131 34.5630121,15.3315586 C34.8080782,14.8494281 35.0486358,14.4143189 35.2579564,14.0455551 L35.2579564,14.0455551 Z" id="Fill-10" fill="#1A1919"></path>
                    <path d="M38.4608831,12.961808 C38.4959846,13.3624563 38.5249674,14.3640769 38.5249674,14.7331628 C38.5249674,15.068754 38.5175607,16.197268 38.4525103,16.6842296 L38.4483239,16.7241656 L39.7692977,16.7241656 L39.7654333,16.6855178 C39.6978067,16.1956577 39.6942643,15.068754 39.6942643,14.7331628 C39.6942643,14.4690699 39.7090778,13.8790477 39.7309759,13.405935 C39.8420768,13.396273 39.9889233,13.3866111 40.0897192,13.3843567 C40.7067318,13.3737285 41.1430847,13.4767892 41.350151,13.6829104 C41.4461164,13.7746988 41.4953873,13.8925744 41.4953873,14.0262312 C41.4953873,14.4652051 40.9788485,14.6864634 40.5006315,14.7070756 C40.3431581,14.7135169 40.2185318,14.6961254 40.2185318,14.6961254 L40.1280409,14.6832428 L40.1872948,14.7521646 C40.6487661,15.3003184 41.3536934,16.2552396 41.6489964,16.7109609 L41.6612336,16.72642 L43.0762406,16.72642 L43.0340545,16.6687705 C42.9857497,16.6079003 42.0573325,15.5199664 41.6638098,15.0552273 C41.6638098,15.0552273 41.6489964,15.0384799 41.6399795,15.0259194 C42.3584321,14.8516825 42.7126669,14.5254312 42.7126669,14.0262312 C42.7126669,13.1479613 41.5250142,12.9428062 40.5309025,12.926703 L38.4570187,12.9238044 L38.4608831,12.961808" id="Fill-11" fill="#1A1919"></path>
                    <path d="M44.9546512,12.9228382 L43.6874567,12.9228382 L43.6916431,12.9608418 C43.7283547,13.3624563 43.7537952,14.3640769 43.7537952,14.7321966 C43.7537952,15.0658554 43.7492867,16.1953356 43.6845584,16.6832634 L43.6797279,16.7231994 L45.0010237,16.7231994 L44.9945831,16.6832634 C44.9304988,16.1953356 44.9250243,15.0658554 44.9250243,14.7321966 C44.9250243,14.3634327 44.952397,13.3602018 44.9881425,12.9608418 L44.9913628,12.9228382 L44.9546512,12.9228382" id="Fill-12" fill="#1A1919"></path>
                    <path d="M46.1902866,12.9634183 C46.2263541,13.3643887 46.2534048,14.3653651 46.2534048,14.7331628 C46.2534048,15.0697202 46.2492184,16.1985563 46.184168,16.6858399 L46.1790155,16.7257759 L48.3842882,16.72642 C49.4618061,16.72642 50.6153234,16.452021 50.6153234,15.6838972 C50.6153234,15.2024108 50.1780044,14.8455633 49.3600441,14.649426 C49.9593449,14.5222105 50.3680031,14.18984 50.3680031,13.8059391 C50.3680031,13.1804898 49.4666365,12.9411959 48.6219475,12.926703 C48.6206594,12.926703 46.1877103,12.9238044 46.1877103,12.9238044 L46.1902866,12.9634183 Z M47.8954441,13.3498957 L47.8954441,13.3498957 C48.8177428,13.3531164 49.1607065,13.5054529 49.1607065,13.9064232 C49.1607065,14.0143148 49.1194864,14.1090018 49.0354362,14.1882297 C48.8621831,14.3560253 48.5095585,14.4423385 48.0732056,14.4262353 L48.0506634,14.4262353 L47.7972245,14.9608624 L48.0551718,14.9608624 C48.5633378,14.9466916 49.0022669,15.0758394 49.2286551,15.2970977 C49.3333154,15.3988701 49.3851625,15.5144913 49.3851625,15.6404185 C49.3851625,16.0642554 48.9262674,16.2800386 48.0174941,16.2800386 C47.8629189,16.2800386 47.6155986,16.2793945 47.4590913,16.2713429 C47.4268881,15.7154595 47.4256,14.9573197 47.4256,14.7331628 C47.4256,14.4658493 47.4388033,13.8790477 47.4635997,13.3740506 C47.5618194,13.3595577 47.7370046,13.3476413 47.8954441,13.3498957 L47.8954441,13.3498957 Z" id="Fill-13" fill="#1A1919"></path>
                    <path d="M53.9029444,12.9228382 L53.0138151,12.9228382 L53.0047982,12.9428062 C52.7433085,13.5167252 51.0703541,16.4301207 50.9309144,16.6703808 L50.9006434,16.7231994 L52.0354829,16.7231994 L52.0435337,16.6993666 C52.1404653,16.4413929 52.2686338,16.1476701 52.4177345,15.8294704 C52.4579885,15.8294704 53.3529144,15.817554 53.3529144,15.817554 L54.1254683,15.8268938 C54.1254683,15.8268938 54.2603996,15.8294704 54.2948569,15.8294704 C54.4999911,16.236882 54.6500578,16.5473521 54.7157523,16.7003328 L54.7254132,16.7231994 L56.0370481,16.7231994 L53.9232324,12.9228382 L53.9029444,12.9228382 Z M53.3577449,14.0426565 C53.4636933,14.2217244 53.7322677,14.7302642 54.0401299,15.328338 C53.9934353,15.3293042 53.9406221,15.3315586 53.9406221,15.3315586 L53.3567788,15.3392882 C53.3567788,15.3392882 52.7565118,15.3293042 52.6624785,15.328338 C52.9065785,14.8455633 53.1484243,14.4117424 53.3577449,14.0426565 L53.3577449,14.0426565 Z" id="Fill-14" fill="#1A1919"></path>
                    <path d="M56.3664865,13.9093218 C56.3664865,14.5763174 57.2069891,14.8471736 57.94895,15.0874337 C58.5253866,15.2726208 59.1185689,15.4668257 59.1185689,15.7843813 C59.1185689,15.8816448 59.0895861,15.9592624 59.0248577,16.0188443 C58.8905705,16.1496025 58.6058945,16.2049976 58.1595587,16.1882502 C57.7244939,16.1698925 57.2240568,16.057492 56.6730606,15.8520149 L56.4402317,15.7657016 L56.4408758,15.9135292 L56.4408758,16.5963059 L56.5922307,16.6227152 L56.6849758,16.6381743 C56.962245,16.6926032 57.4900549,16.7908329 58.0223732,16.7908329 C59.4161262,16.7908329 60.2479339,16.3496045 60.2479339,15.6120768 C60.2479339,14.9280118 59.3890755,14.6532908 58.630691,14.4123865 C58.0722881,14.2329966 57.4935972,14.050064 57.4935972,13.7569853 C57.4935972,13.6732485 57.4935972,13.4184955 58.2091516,13.4184955 C58.7456563,13.4184955 59.2702458,13.5927324 59.5526676,13.6867752 C59.5533116,13.6867752 59.8267165,13.7740547 59.8267165,13.7740547 L59.8231741,13.6317022 L59.8231741,12.9411959 L59.5533116,12.9025482 C59.2844152,12.8613239 58.8358251,12.791758 58.3701674,12.791758 C57.1718876,12.791758 56.3664865,13.2410379 56.3664865,13.9093218" id="Fill-15" fill="#1A1919"></path>
                </g>
            </g>
        </g>
    </g>
</svg>