<?xml version="1.0" encoding="UTF-8"?>
<svg width="46px" height="15px" viewBox="0 0 46 15" version="1.1" xmlns="http://www.w3.org/2000/svg" xmlns:xlink="http://www.w3.org/1999/xlink">
    <title>8D80AE6B-FEA2-4B56-95E3-275640963848</title>
    <defs>
        <filter color-interpolation-filters="auto" id="filter-1">
            <feColorMatrix in="SourceGraphic" type="matrix" values="0 0 0 0 1.000000 0 0 0 0 1.000000 0 0 0 0 1.000000 0 0 0 1.000000 0"></feColorMatrix>
        </filter>
    </defs>
    <g id="Desktop" stroke="none" stroke-width="1" fill="none" fill-rule="evenodd">
        <g id="3a-Sign-in" transform="translate(-220.000000, -844.000000)">
            <g id="Funding-Circle" transform="translate(18.000000, 834.000000)" filter="url(#filter-1)">
                <g transform="translate(202.834711, 10.096154)">
                    <path d="M0,6.54735543 C0.0323064565,6.75201552 0.204070217,6.90245721 0.405704669,6.90269753 C0.411773687,6.90269753 0.417474886,6.90099552 0.423451949,6.90023907 L6.2899856,6.90023907 C6.51619446,6.90023907 6.69936846,6.71207229 6.70074779,6.4794641 L6.70129951,6.4794641 L6.70129951,0.425599626 C6.70129951,0.423897614 6.70175929,0.423046609 6.70175929,0.421344598 C6.70175929,0.419453474 6.70148342,0.417940575 6.70139147,0.416238564 L6.70139147,0.410376082 L6.7009317,0.410376082 C6.69508736,0.181476141 6.5125718,-0.00074446635 6.28989365,0 L6.20786995,0.00756678089 C2.89381821,0.254736619 0.247358468,2.97086271 0,6.3761142 L0,6.54726088 L0,6.54735543 Z" id="Path" fill="#8D468A" fill-rule="nonzero"></path>
                    <path d="M14.3666161,6.47955866 C14.365047,6.71214648 14.1814414,6.89997542 13.9552475,6.9003555 L8.08871385,6.9003555 C7.84411403,6.90269753 7.66002048,6.71311241 7.66002048,6.47955866 C7.66002048,6.47038671 7.65937679,6.46632079 7.66002048,6.45686518 C7.87298784,3.01190009 10.5341604,0.256816855 13.872856,0.00756678089 L13.9549716,2.28697922e-06 C14.1784219,2.28697922e-06 14.3604924,0.182117478 14.3660097,0.410376082 C14.3666161,0.418886137 14.3667453,2.44191548 14.3664695,6.47974777 L14.3666161,6.47955866 Z" id="Path" fill="#73247E" fill-rule="nonzero"></path>
                    <path d="M0,8.27385661 C0.0276843921,8.06449892 0.20152045,7.90836197 0.406992036,7.90830244 L0.408095494,7.90830244 L0.408095494,7.90754599 L6.27352569,7.90754599 C6.27959471,7.90754599 6.28520395,7.90584389 6.29136492,7.90584389 C6.40033769,7.90576872 6.5048736,7.9502234 6.58196348,8.02942317 C6.65905336,8.10862295 6.7023786,8.21607629 6.70240297,8.32813186 C6.70240297,8.3373038 6.7029547,8.34231528 6.70240297,8.35158179 L6.70212711,8.35489125 C6.4892517,11.796736 3.82798723,14.5518192 0.489291601,14.8010693 L0.407267901,14.8076918 C0.202476723,14.8085502 0.0285579691,14.653702 9.19548207e-05,14.4451599 L9.19548207e-05,8.27385661 L0,8.27385661 Z" id="Path" fill="#8D468A" fill-rule="nonzero"></path>
                    <path d="M14.3665614,14.392303 L14.3665614,14.3973144 L14.3661016,14.3973144 C14.3604993,14.6263234 14.1778406,14.8086869 13.9550636,14.8076923 L13.8729479,14.8010693 C10.5342523,14.5518192 7.8730798,11.796736 7.66020439,8.35489125 L7.65992852,8.35158179 C7.65946875,8.34231528 7.66011243,8.33739836 7.66011243,8.32813186 C7.66011243,8.09457811 7.84402207,7.90584398 8.07115048,7.90584398 C8.07712754,7.90584398 8.08282874,7.90754599 8.0888058,7.90754599 L13.954236,7.90754599 L13.954236,7.90830244 L13.9553395,7.90830244 C14.1811689,7.90845307 14.3645861,8.09591895 14.3661016,8.32813186 L14.3665614,8.32813186 L14.3665614,14.3821854 C14.3665614,14.3838875 14.3670212,14.3855895 14.3670212,14.3872915 C14.3670212,14.3888989 14.3666534,14.3906009 14.3665614,14.392303 Z" id="Path" fill="#73247E" fill-rule="nonzero"></path>
                    <path d="M17.6130264,1.9361345 L17.6130264,3.3818984 L19.9203567,3.3818984 L19.9203567,4.46645772 L17.6130264,4.46645772 L17.6130264,6.89749695 L16.2996357,6.89749695 L16.2996357,0.847414717 L20.1830716,0.847414717 L20.1830716,1.9361345 L17.6130264,1.9361345 Z M24.3946944,2.40135088 L24.3946944,6.89749695 L23.2107761,6.89749695 L23.174362,6.42377051 C23.0342228,6.60390003 22.8658535,6.74166837 22.6691622,6.83726466 C22.4723789,6.9327664 22.2475493,6.98061182 21.9942138,6.98061182 C21.5390374,6.98061182 21.1820688,6.8447346 20.9234919,6.57326383 C20.664823,6.30188761 20.5354425,5.88073441 20.5354425,5.30999334 L20.5354425,2.40144543 L21.796327,2.40144543 L21.796327,5.31840884 C21.796327,5.5260542 21.8481895,5.68055899 21.9519146,5.78173409 C22.0556396,5.88272009 22.1990891,5.93330764 22.3822631,5.93330764 C22.7405191,5.93330764 22.9897167,5.80584592 23.1298558,5.55101703 L23.1298558,2.40135088 L24.3946944,2.40135088 Z M28.588294,2.72567855 C28.8293995,2.99705477 28.9499523,3.4416579 28.9499523,4.05939339 L28.9499523,6.89749695 L27.6851137,6.89749695 L27.6851137,4.05107244 C27.6851137,3.7907593 27.6317799,3.61138624 27.5254802,3.51304781 C27.4190884,3.41470939 27.2527422,3.36554018 27.0264414,3.36554018 C26.7274043,3.36554018 26.5037702,3.49016522 26.3556309,3.73950985 L26.3556309,6.89749695 L25.0988844,6.89749695 L25.0988844,2.40135088 L26.2788487,2.40135088 L26.3232628,2.9208425 C26.4740687,2.72416566 26.6552197,2.57457779 26.8667158,2.4720789 C27.0782119,2.36958 27.3133404,2.31833056 27.5720093,2.31833056 C28.0083349,2.31833056 28.3471884,2.45411322 28.588294,2.725584 L28.588294,2.72567855 Z M33.4970262,0.51495521 L33.4970262,6.89749695 L32.3613842,6.89749695 L32.3008779,6.4112891 C32.0152662,6.79083758 31.6502056,6.98051727 31.205696,6.98051727 C30.8501067,6.98051727 30.5443569,6.88293529 30.2883547,6.6876768 C30.0324444,6.4924183 29.8377761,6.22302776 29.7044416,5.87950518 C29.5711071,5.53607715 29.5044399,5.14404726 29.5044399,4.7036046 L29.5044399,4.61632925 C29.5044399,4.15924471 29.5710152,3.75757008 29.7043496,3.41130537 C29.8376841,3.06504066 30.0323525,2.79631202 30.2882628,2.60511943 C30.544265,2.41411596 30.8526814,2.31842511 31.2136961,2.31842511 C31.6231709,2.31842511 31.9625761,2.47917061 32.2320038,2.80047249 L32.2320038,0.51495521 L33.4968423,0.51495521 L33.4970262,0.51495521 Z M31.9554037,5.82333881 C32.0725541,5.74996322 32.1648767,5.64396575 32.2321877,5.50544095 L32.2321877,3.79350143 C32.1001405,3.50813089 31.867127,3.36544563 31.5330552,3.36544563 C31.2663862,3.36544563 31.0716259,3.47768381 30.9491421,3.70206561 C30.8264743,3.92644741 30.7652324,4.23120195 30.7652324,4.61623469 L30.7652324,4.70351004 C30.7652324,5.08022184 30.8244513,5.37939757 30.9429811,5.60103725 C31.0616028,5.82258236 31.2556275,5.9334022 31.5250551,5.9334022 C31.6946198,5.9334022 31.8380693,5.8967144 31.9554037,5.82324425 L31.9554037,5.82333881 Z M35.4496868,0.762219604 C35.5790673,0.885426299 35.6437115,1.04541535 35.6437115,1.24209219 C35.6437115,1.43593234 35.5790673,1.5945976 35.4496868,1.71789885 C35.3204903,1.8412001 35.1508337,1.90285073 34.940625,1.90285073 C34.7305082,1.90285073 34.5614952,1.8412001 34.4334941,1.71789885 C34.3056769,1.5945976 34.2416764,1.43612146 34.2416764,1.24209219 C34.2416764,1.04541535 34.305585,0.885426299 34.4335861,0.762219604 C34.5616791,0.638918354 34.7306001,0.577267728 34.9408089,0.577267728 C35.1509256,0.577267728 35.3205823,0.638729241 35.4499627,0.762125048 L35.4496868,0.762219604 Z M34.3144126,6.89749695 L35.5792512,6.89749695 L35.5792512,2.40135088 L34.3144126,2.40135088 L34.3144126,6.89749695 Z M39.8574492,2.72567855 C40.0986467,2.99705477 40.2191995,3.4416579 40.2191995,4.05939339 L40.2191995,6.89749695 L38.9543609,6.89749695 L38.9543609,4.05107244 C38.9543609,3.7907593 38.9010271,3.61138624 38.7947274,3.51304781 C38.6882437,3.41470939 38.5218054,3.36554018 38.2954127,3.36554018 C37.9965595,3.36554018 37.7729254,3.49016522 37.6247862,3.73950985 L37.6247862,6.89749695 L36.3681316,6.89749695 L36.3681316,2.40135088 L37.5480959,2.40135088 L37.59251,2.9208425 C37.7433159,2.72416566 37.9244669,2.57457779 38.135963,2.4720789 C38.3474591,2.36958 38.5825876,2.31833056 38.8412565,2.31833056 C39.2775821,2.31833056 39.6164356,2.45411322 39.8573573,2.725584 L39.8574492,2.72567855 Z M44.8512397,2.40135088 L44.8512397,6.72729583 C44.8512397,7.13454927 44.7615837,7.48431256 44.5824557,7.77649114 C44.4031438,8.06866971 44.1513715,8.29040394 43.8265871,8.44141015 C43.5019866,8.59232181 43.1242362,8.66787219 42.6932439,8.66787219 C42.3942069,8.66787219 42.0918594,8.6083018 41.7860177,8.48916102 C41.4801759,8.37002024 41.239806,8.20265581 41.0646321,7.9865004 L41.6101081,7.19279588 C41.7370931,7.33713196 41.8910124,7.45373093 42.0627097,7.53565656 C42.2377917,7.62009523 42.4303451,7.66236184 42.6404619,7.66236184 C42.9422576,7.66236184 43.1759148,7.5806653 43.3416174,7.41717768 C43.50732,7.25378461 43.5901713,7.02240565 43.5901713,6.72313536 L43.5901713,6.51549 C43.3181689,6.82563425 42.9746257,6.98089549 42.5598175,6.98089549 C42.2014696,6.98089549 41.8882714,6.88312441 41.6202231,6.68777135 C41.3521748,6.49251285 41.1461041,6.22179853 41.0020109,5.87553382 C40.8578257,5.52917455 40.785917,5.13865756 40.785917,4.70369916 L40.785917,4.61642381 C40.785917,4.16208139 40.8578257,3.76182511 41.0020109,3.4155604 C41.1461041,3.06929569 41.3529105,2.79999971 41.6222461,2.60729422 C41.8916738,2.41477785 42.2068029,2.31851967 42.5677256,2.31851967 C43.0365113,2.31851967 43.4015719,2.48333108 43.6629075,2.81304846 L43.7113677,2.4017291 L44.8508719,2.4017291 L44.8512397,2.40135088 Z M43.5905391,5.57607442 L43.5905391,3.72277341 C43.4449746,3.48449185 43.2105818,3.36535107 42.8872686,3.36535107 C42.6150823,3.36535107 42.4070805,3.48118238 42.2628954,3.71237223 C42.1188022,3.94375119 42.0468015,4.24500716 42.0468015,4.61632925 L42.0468015,4.70351004 C42.0468015,5.06641664 42.1176068,5.36209379 42.2589413,5.59063607 C42.4005517,5.81908378 42.6071742,5.9334022 42.8792685,5.9334022 C43.2025817,5.9334022 43.4396412,5.81426142 43.5905391,5.57597986 L43.5905391,5.57607442 Z M20.6558114,13.1550354 C20.459212,13.4750135 20.1837153,13.7236017 19.8295054,13.9008945 C19.4752034,14.0781873 19.0610389,14.166881 18.5868279,14.166881 C18.0804327,14.166881 17.6426358,14.0483076 17.2735292,13.8115389 C16.9045145,13.5746757 16.6215695,13.2359755 16.4249701,12.7955328 C16.2281868,12.3550902 16.129979,11.8342748 16.129979,11.2331812 L16.129979,10.8840798 C16.129979,10.2883759 16.2309454,9.76907339 16.4330621,9.32579405 C16.6350868,8.88260926 16.9213422,8.54192336 17.2917362,8.30364181 C17.6621302,8.06536025 18.0938581,7.94621947 18.5868279,7.94621947 C19.0744643,7.94621947 19.4920312,8.03841174 19.8395284,8.22260717 C20.1871177,8.40680259 20.457189,8.66172604 20.6498343,8.98718839 C20.8423877,9.31274529 20.9576071,9.68747141 20.9953086,10.1112722 L19.6860558,10.1112722 C19.6644465,9.75120227 19.5701928,9.48455386 19.4031109,9.31132695 C19.2361209,9.13828915 18.9640266,9.0516757 18.5868279,9.0516757 C18.2015372,9.0516757 17.9173968,9.19710309 17.7342228,9.48795788 C17.5510488,9.77890723 17.4594618,10.2415706 17.4594618,10.8758534 L17.4594618,11.2332757 C17.4594618,11.6653975 17.4965196,12.0143097 17.5705432,12.2803908 C17.6446588,12.5462828 17.7638323,12.7429596 17.9282475,12.8704213 C18.0924788,12.9978831 18.3120669,13.0614248 18.5868279,13.0614248 C18.9397505,13.0614248 19.2044884,12.978499 19.3809497,12.8122693 C19.557503,12.6460395 19.6563544,12.3897923 19.6779638,12.0435276 L20.9872166,12.0435276 C20.9629405,12.4645862 20.8525027,12.8349628 20.6558114,13.1550354 L20.6558114,13.1550354 Z M22.7622205,7.94848882 C22.8915089,8.07169551 22.9562451,8.23168456 22.9562451,8.4283614 C22.9562451,8.62220156 22.8915089,8.78086682 22.7622205,8.90416807 C22.63284,9.02746932 22.4631834,9.08911994 22.2530666,9.08911994 C22.0428579,9.08911994 21.8738449,9.02746932 21.7458438,8.90416807 C21.6180266,8.78086682 21.5539341,8.62239067 21.5539341,8.4283614 C21.5539341,8.23168456 21.6179347,8.07169551 21.7458438,7.94848882 C21.8738449,7.82518757 22.0428579,7.76353694 22.2530666,7.76353694 C22.4631834,7.76353694 22.63284,7.82499845 22.7622205,7.94839426 L22.7622205,7.94848882 Z M21.6265784,14.0837662 L22.8915089,14.0837662 L22.8915089,9.58762009 L21.6266704,9.58762009 L21.6266704,14.0837662 L21.6265784,14.0837662 Z M26.2666187,9.55452543 L26.2505266,10.8092859 C26.0430765,10.7872543 25.897604,10.7761912 25.814109,10.7761912 C25.5932335,10.7761912 25.4133699,10.8121225 25.2746101,10.8841743 C25.1357583,10.9562262 25.0341482,11.0642093 24.969504,11.2083129 L24.969504,14.0837662 L23.7088034,14.0837662 L23.7088034,9.58762009 L24.8927217,9.58762009 L24.9331818,10.1403955 C25.0435276,9.9353977 25.1802644,9.77824534 25.3433003,9.66874929 C25.5062443,9.5593478 25.6914413,9.50459977 25.8988913,9.50459977 C26.0496973,9.50459977 26.172273,9.52124166 26.2665267,9.55452543 L26.2666187,9.55452543 Z M30.3652289,12.4964517 C30.3652289,12.8205902 30.2843087,13.1093648 30.1227441,13.3627753 C29.9610875,13.6161859 29.7414994,13.8138083 29.4639797,13.9549806 C29.1864601,14.0962476 28.8766643,14.1667865 28.5345004,14.1667865 C28.0954161,14.1667865 27.7229072,14.0684481 27.4172493,13.8717712 C27.1114076,13.6750944 26.8824401,13.4057984 26.7301629,13.0635996 C26.5779777,12.7215899 26.5019311,12.3303165 26.5019311,11.8898738 L26.5019311,11.785862 C26.5019311,11.3455139 26.5779777,10.9535786 26.7301629,10.610056 C26.8824401,10.2665334 27.1108559,9.99638643 27.4152263,9.79970959 C27.7195968,9.60303275 28.0913701,9.50469433 28.5304544,9.50469433 C28.891469,9.50469433 29.2100005,9.57608424 29.4861409,9.71867495 C29.7623731,9.86145477 29.9779152,10.0677763 30.1327672,10.3378288 C30.287711,10.6079758 30.365137,10.9271974 30.365137,11.2956828 L29.1810348,11.2956828 C29.1782761,11.0767853 29.1185055,10.8981687 29.0012631,10.7595493 C28.8840207,10.6211191 28.7176744,10.5518094 28.5022243,10.5518094 C28.2167046,10.5518094 28.0220362,10.6619673 27.9183112,10.8821887 C27.8145861,11.1025046 27.7629075,11.403666 27.7629075,11.7859566 L27.7629075,11.8899684 C27.7629075,12.2804854 27.8145861,12.5830651 27.9183112,12.7977076 C28.0220362,13.0123502 28.2193712,13.1198605 28.5103163,13.1198605 C28.712433,13.1198605 28.8739976,13.0636942 28.995286,12.9515505 C29.1164825,12.8393124 29.17846,12.6877388 29.1810348,12.4965462 L30.365137,12.4965462 L30.3652289,12.4964517 Z M30.9642226,14.0837662 L32.2290612,14.0837662 L32.2290612,7.70122442 L30.9641307,7.70122442 L30.9641307,14.0837662 L30.9642226,14.0837662 Z M36.9216077,12.2595885 L34.1776758,12.2595885 C34.2264119,12.525575 34.338045,12.7353951 34.5133109,12.8891435 C34.6883009,13.0428918 34.9119351,13.1198605 35.1840294,13.1198605 C35.3941461,13.1198605 35.5880788,13.0810925 35.7659195,13.0033673 C35.9436681,12.9258313 36.0960373,12.8053667 36.2225671,12.6418791 L36.8165953,13.369016 C36.6630307,13.5934924 36.4380173,13.7826047 36.1416469,13.9363531 C35.8453684,14.0901014 35.4991585,14.1670701 35.1032011,14.1670701 C34.6532661,14.1670701 34.2612627,14.0692991 33.9272828,13.873946 C33.593211,13.6786875 33.3373007,13.4148758 33.1594601,13.0825108 C32.9816195,12.7500513 32.8927911,12.384308 32.8927911,11.9854701 L32.8927911,11.8275613 C32.8927911,11.3815398 32.9749068,10.9831747 33.13923,10.632844 C33.3035533,10.2824189 33.5413485,10.0068822 33.8525236,9.8059503 C34.1636067,9.60511298 34.5348283,9.50469433 34.9658206,9.50469433 C35.378054,9.50469433 35.7308847,9.59404991 36.0245884,9.77276108 C36.3182921,9.95147225 36.5411906,10.2063011 36.6933758,10.5373423 C36.845561,10.8682889 36.9216996,11.2582386 36.9216996,11.7070022 L36.9216996,12.259683 L36.9216077,12.2595885 Z M35.6850912,11.2955883 C35.6850912,11.0629801 35.6237573,10.8806758 35.5011815,10.7490536 C35.3786058,10.6176205 35.1974548,10.5517148 34.9577286,10.5517148 C34.5292191,10.5517148 34.270826,10.8344378 34.1818138,11.3994109 L35.6850912,11.3994109 L35.6850912,11.2956828 L35.6850912,11.2955883 Z" id="Shape" fill="#2A2A2A" fill-rule="nonzero"></path>
                </g>
            </g>
        </g>
    </g>
</svg>