<?xml version="1.0" encoding="UTF-8"?>
<svg width="55px" height="13px" viewBox="0 0 55 13" version="1.1" xmlns="http://www.w3.org/2000/svg" xmlns:xlink="http://www.w3.org/1999/xlink">
    <title>E9CB53E7-278A-4340-9153-32E684A10AF2</title>
    <defs>
        <filter color-interpolation-filters="auto" id="filter-1">
            <feColorMatrix in="SourceGraphic" type="matrix" values="0 0 0 0 1.000000 0 0 0 0 1.000000 0 0 0 0 1.000000 0 0 0 1.000000 0"></feColorMatrix>
        </filter>
    </defs>
    <g id="Desktop" stroke="none" stroke-width="1" fill="none" fill-rule="evenodd">
        <g id="3a-Sign-in" transform="translate(-151.000000, -845.000000)">
            <g id="lloyds" transform="translate(18.000000, 834.000000)" filter="url(#filter-1)">
                <g transform="translate(133.884298, 11.442308)">
                    <g id="Group-3" transform="translate(17.404959, 4.038462)" fill="#006C32" fill-rule="nonzero">
                        <path d="M11.0321816,1.9136898 C11.4618263,1.29152942 11.7672962,0.782669809 12.0255797,0.0362761245 L12.8282453,0.0362761245 C12.4552243,0.985915493 12.0141556,1.73280611 11.3927851,2.58057417 L11.3927851,3.84924466 L10.6820088,3.84924466 L10.6820088,2.59200363 C10.0601417,1.73280611 9.61956967,0.997344957 9.24654871,0.0477055884 L10.0487176,0.0477055884 C10.2970671,0.793105407 10.6030337,1.30295888 11.0321816,1.9136898" id="Path"></path>
                        <path d="M18.3907774,1.59664641 C18.0406046,1.48384257 17.836958,1.42719219 17.7127833,1.33675034 C17.6056482,1.28403557 17.5393601,1.1733737 17.5434089,1.05399534 C17.5434089,0.895473648 17.6338081,0.794099273 17.769407,0.726019423 C17.9191078,0.661280916 18.0812461,0.630399027 18.2442512,0.635577578 C18.5260611,0.643018869 18.8047524,0.696567611 19.0692683,0.794099273 L19.3066904,0.240018741 C18.9744348,0.0832809965 18.6115893,0.0021580829 18.2442512,0.0024836839 C17.8598062,0.0024836839 17.5205608,0.0929265107 17.2831386,0.262380736 C17.0023484,0.436536282 16.8347229,0.746421057 16.8425666,1.07685427 C16.8425666,1.73280611 17.396386,1.98127272 17.9387813,2.16215641 C18.1647794,2.24166572 18.4022015,2.29781917 18.5606485,2.38826102 C18.7190955,2.47870286 18.808998,2.6034331 18.808998,2.76145786 C18.808728,2.91554466 18.7208747,3.05606057 18.5825032,3.12372217 C18.4469044,3.20273455 18.2323304,3.23652601 18.0172598,3.23652601 C17.6105331,3.23538758 17.2147401,3.1046708 16.8872695,2.86332917 L16.63892,3.44026863 C16.9667414,3.68873523 17.5091367,3.87011586 18.0520287,3.87011586 C18.8884698,3.87011586 19.5212644,3.42883916 19.5212644,2.71623694 C19.5212644,2.09457349 19.0126446,1.78895956 18.3907774,1.59664641" id="Path"></path>
                        <path d="M14.4797695,3.17987562 L13.9602223,3.17987562 L13.9602223,0.703657428 L14.4122184,0.703657428 C15.2034599,0.703657428 15.7120797,1.13300772 15.7120797,1.9136898 C15.7120797,2.65908962 15.2486595,3.17987562 14.4797695,3.17987562 M14.4007943,0.0362761245 L13.2583866,0.0362761245 L13.2583866,3.84924466 L14.4678487,3.84924466 C15.5879049,3.84924466 16.4233527,3.05415152 16.4233527,1.9136898 C16.4233527,0.794099273 15.6321111,0.0362761245 14.3998009,0.0362761245" id="Shape"></path>
                        <path d="M23.0368999,3.2708144 L22.4264569,3.2708144 L22.4264569,2.16215641 L23.0592514,2.16215641 C23.6021434,2.16215641 23.8847651,2.31123637 23.8847651,2.69387494 C23.8847651,3.20273455 23.3984968,3.2708144 23.0368999,3.2708144 M22.4264569,0.613215584 L22.9688522,0.613215584 C23.477472,0.613215584 23.7139007,0.737448887 23.7139007,1.06542481 C23.7139007,1.39340073 23.4764786,1.58571388 23.0244825,1.58571388 L22.4264569,1.58571388 L22.4264569,0.613215584 Z M23.7377422,1.84560995 L23.7377422,1.84560995 C24.1445387,1.70994718 24.3933849,1.42719219 24.3933849,0.985915493 C24.3933849,0.319031122 23.8052933,0.0477055884 23.2291225,0.0477055884 L21.747966,0.0477055884 L21.747966,3.84924466 L23.1287893,3.84924466 C23.8410556,3.84924466 24.5642494,3.5550602 24.5642494,2.76344559 C24.5642494,2.23222399 24.236428,1.91567753 23.7392323,1.84759768" id="Shape"></path>
                        <polygon id="Path" points="32.0346025 0.0362761245 31.3675357 0.0362761245 31.3675357 2.78431679 31.3561116 2.78431679 29.7512771 0.0362761245 28.8805638 0.0362761245 28.8805638 3.84725693 29.5362065 3.84725693 29.5362065 1.00877442 29.5476305 1.00877442 31.1867373 3.84725693 32.0346025 3.84725693"></polygon>
                        <polygon id="Path" points="34.2384559 1.86846888 36.0022341 0.0362761245 35.1091693 0.0362761245 33.5266863 1.74373864 33.5038381 1.74373864 33.5038381 0.0362761245 32.8367714 0.0362761245 32.8367714 3.84725693 33.5038381 3.84725693 33.5038381 2.00413164 33.5266863 2.00413164 35.2104959 3.84725693 36.1487603 3.84725693"></polygon>
                        <polygon id="Path" points="2.93896802 3.84725693 5.07527045 3.84725693 5.3012685 3.16894309 3.62838625 3.16894309 3.62838625 0.0362761245 2.93896802 0.0362761245"></polygon>
                        <polygon id="Path" points="0 3.84725693 2.13630243 3.84725693 2.37372455 3.16894309 0.700842299 3.16894309 0.700842299 0.0362761245 0 0.0362761245"></polygon>
                        <path d="M7.34717171,3.23652601 C6.57877835,3.23652601 6.13770963,2.67101602 6.13770963,1.94748126 C6.13770963,1.2239465 6.57877835,0.655454907 7.34717171,0.655454907 C8.12748585,0.655454907 8.56805787,1.24382383 8.56805787,1.95642606 C8.55663379,2.65759882 8.11606177,3.23404134 7.34717171,3.23404134 M7.35859579,0 C6.19433332,0 5.42593995,0.859197524 5.42593995,1.94499659 C5.42593995,3.0193662 6.17098846,3.87856372 7.34717171,3.87856372 C8.51143418,3.87856372 9.28032425,3.00793673 9.28032425,1.93356713 C9.26890017,0.859197524 8.51143418,0 7.35859579,0" id="Shape"></path>
                        <path d="M26.5972384,3.03328033 C26.8640652,3.03931534 27.1304591,3.00871743 27.3889766,2.94234155 L27.7391494,3.84924466 L28.530391,3.84924466 L26.8912842,0.0496933212 L26.3146167,0.0496933212 L24.6645826,3.84924466 L25.4558241,3.84924466 L25.8035134,2.94432928 C26.0618623,3.01070319 26.3280919,3.04130143 26.5947549,3.03526806 M26.5947549,2.4583286 C26.3981262,2.46104503 26.2018269,2.4413725 26.0096435,2.39969048 L26.5972384,0.895473648 L27.1853301,2.39969048 C26.9921529,2.44141833 26.7948426,2.46092525 26.5972384,2.45783167" id="Shape"></path>
                    </g>
                    <g id="Group-2" fill-rule="nonzero">
                        <path d="M13.2519295,6.2842174 C13.5121998,6.47653055 13.7833974,6.61219332 13.7833974,6.91731031 C13.7833974,7.00775216 13.6701501,7.098194 13.4218006,7.098194 C13.2295781,7.098194 13.0244414,7.04204055 12.9251016,6.90637778 C12.8461264,6.80699114 12.9593738,6.65791118 12.891326,6.55554294 C12.8347023,6.46510109 12.7219517,6.51032201 12.6429765,6.46510109 C12.5525773,6.4084507 12.5436367,6.37465925 12.4736022,6.23899648 C12.4060511,6.08047478 12.168629,5.82057871 11.8860072,5.53782372 C11.6485851,5.30028964 11.3997389,5.17605634 11.2869882,5.18698887 C11.2263316,5.19594185 11.1649613,5.19910333 11.1037063,5.1964306 C10.9005564,5.1964306 10.7306853,5.38874375 10.4371362,5.51297706 C10.2334896,5.6034189 10.1202423,5.64913676 9.99606752,5.67149875 L9.95086791,5.72814914 L10.2111382,5.71671967 C10.4594877,5.71671967 10.7763817,5.68292821 11.0247312,5.68292821 C11.2730807,5.68292821 11.3977521,5.90903283 11.4995754,6.1465669 C11.6917979,6.62163505 11.9744197,7.31137835 12.3245925,7.88831781 C12.4944635,8.15964334 12.6300623,8.32909757 12.6300623,8.66850295 C12.6300623,8.77037426 12.6186383,8.91696956 12.4810526,8.91696956 C12.2888301,8.91696956 11.8025618,8.71322694 11.8025618,8.49805486 C11.8025618,8.32860064 11.9386573,8.26052079 11.9386573,8.09106656 C11.9386573,7.98919525 11.7802103,8.00062472 11.7464348,7.91018287 C11.6217634,7.40132326 11.4747405,6.89246365 11.1926154,6.58684973 C11.0436057,6.42882497 11.0227444,6.36074512 10.8757215,6.36074512 C10.7984906,6.3639188 10.7222335,6.37917742 10.6497234,6.40596604 C10.2523642,6.555046 9.72288306,7.00526749 9.0558163,7.19758065 C8.80746679,7.27708996 8.76226718,7.12999773 8.5019969,7.17521865 L8.52484506,7.17521865 C8.30977439,7.22043957 8.1518241,7.34467288 7.85777829,7.42368526 C7.46041908,7.5364891 6.77249096,7.59313948 6.21867157,7.51363017 C5.82131236,7.45747672 5.31467937,7.3779674 5.0996087,7.38939687 C4.93023434,7.86446502 4.57956484,8.49755793 4.04859361,8.74652147 C3.76597187,8.87075477 3.68699673,9.04070593 3.76597187,9.35725239 C3.86779517,9.75479896 4.21796797,10.0360632 4.39876641,10.3749716 C4.56863747,10.6577266 4.83983512,11.1203714 5.12245686,11.2694514 C5.40507859,11.4185313 5.59034732,11.6332065 5.59034732,11.8255197 C5.59034732,11.9159615 5.55657179,11.9611824 5.46567587,11.9611824 L4.88950502,11.9611824 C4.82555411,11.9662698 4.76552689,11.9298362 4.74049532,11.8707406 C4.66152018,11.7216606 4.71764717,11.5879856 4.60489649,11.4523228 C4.52592135,11.361881 4.46929766,11.3847399 4.36747437,11.3032428 C4.19810001,11.1337886 4.32227476,11.0433468 4.19810001,10.8281747 C3.83600643,10.2517322 3.67805615,10.1160694 3.37258626,9.69765164 C3.2032119,9.48247955 2.98863793,9.36967572 2.98863793,9.08692072 C2.98863793,8.73608587 3.33881072,8.67993242 3.32738665,8.32909757 C3.1013886,8.49855179 2.84161502,8.62328203 2.43332844,8.67993242 C2.37670475,8.69086495 2.24110592,8.79273626 2.18497893,8.86081611 C2.0493801,8.99647887 1.99275642,9.1435711 1.96990826,9.34681679 C1.92520535,9.82188494 1.83430943,10.2969531 1.89093312,10.7720212 C1.96990826,11.0771382 2.02653195,11.1790095 2.27537815,11.3484638 C2.43382513,11.4503351 2.61462357,11.5969304 2.63697503,11.8235319 C2.63697503,11.8801823 2.61462357,11.9591947 2.53515173,11.9591947 L1.91477467,11.9591947 C1.86008631,11.9543214 1.8103968,11.9253677 1.77917584,11.8801823 C1.71112808,11.755949 1.75632769,11.6764397 1.72255216,11.5293475 C1.66592847,11.2465925 1.33810712,11.2580219 1.33810712,10.9638375 C1.33810712,10.8733956 1.39473081,10.7605918 1.39473081,10.5797081 C1.41708227,10.1821615 1.53032964,9.52770048 1.41708227,8.74751533 C1.36045858,8.29530611 1.83530283,8.27244718 2.08414903,7.87688835 C2.23315874,7.65078373 2.18348883,7.74122558 2.27637155,7.58270388 C2.36677077,7.41324966 2.34392261,7.28851942 2.33299524,7.18515731 C2.33299524,7.04949455 2.19739641,6.77767208 2.28779563,6.21216209 C2.33238752,5.94658682 2.4453724,5.69721779 2.61561697,5.48862733 C2.61561697,5.47719786 2.61561697,5.44340641 2.55899328,5.44340641 C2.31064378,5.4657684 2.31064378,5.39818548 2.1521968,5.39818548 C2.02085726,5.40486478 1.90367195,5.48283453 1.84672691,5.60143117 C1.78134798,5.56933734 1.73814148,5.50468661 1.73347953,5.43197694 C1.72952178,5.3387474 1.76568744,5.24829061 1.83281934,5.18351034 C1.86709157,5.14971888 1.83281934,5.12735688 1.78761973,5.12735688 C1.59539721,5.12735688 1.41459877,5.36489096 1.36939916,5.52490345 C1.25664849,5.50254146 1.24522441,5.35544923 1.2000248,5.35544923 C1.14340111,5.35544923 1.10962558,5.43446161 1.10962558,5.51347399 C1.10962558,6.06805145 2.01361777,6.19228476 2.01361777,6.92724898 C2.01361777,7.77551397 0.996378208,7.59463028 0.996378208,7.89974727 C0.996378208,7.95639766 1.04157782,8.01304805 1.12104966,8.04882724 C1.08677743,8.12783962 0.996378208,8.16212801 0.905978989,8.16212801 C0.799686886,8.16518015 0.696834798,8.12427679 0.621643981,8.04905052 C0.546453165,7.97382425 0.505569086,7.87092366 0.508619783,7.76458144 C0.508619783,7.30094275 1.12999024,7.28951329 1.12999024,6.93917537 C1.12999024,6.76922422 1.03065044,6.72400329 0.926840347,6.64499091 C0.338748723,6.22657315 0,5.80815538 0,5.11841209 C0,4.37301227 0.52004386,3.80650841 1.18661393,3.80650841 C2.15865388,3.80650841 2.19292612,4.9375284 3.07407015,5.02797024 C3.39894453,4.79953485 3.78469125,4.6735456 4.18170894,4.66620286 C4.75837649,4.66620286 5.00672599,4.81528283 5.61716907,4.81528283 C5.86551857,4.81528283 6.27281176,4.74769991 6.75957679,4.40829453 C6.94037522,4.28406122 7.01935037,4.25921456 7.18872473,4.11411006 C7.57316976,3.78613414 7.93377324,3.14161177 7.93377324,2.67797308 L7.93377324,2.70083201 C7.93377324,2.55175204 7.89999771,2.46329793 7.83443344,2.46329793 C7.63078684,2.46329793 7.43707423,2.65561109 7.23491774,2.8608445 C7.09931891,2.99650727 7.3029655,3.06458712 7.00891969,3.22310881 C6.90709639,3.27926227 6.78292164,3.17788789 6.67017096,3.17788789 C6.43274884,3.17788789 6.33092554,2.89513289 6.33092554,2.65759882 C6.33092554,2.53286858 6.42132476,2.49907712 6.47993525,2.38627328 C6.60411,2.14873921 6.59268592,2.05829736 6.70593329,1.83219275 C6.77348436,1.67367106 6.89815581,1.57179975 6.88673173,1.45849898 C6.88673173,1.41327806 6.8529562,1.39091606 6.8529562,1.34569514 C6.8529562,1.10816106 7.16935347,0.948148569 7.16935347,0.712105293 C7.16935347,0.576442526 7.02034376,0.520289073 6.98855503,0.418417765 C6.95676629,0.316546456 6.97713095,0.282754998 6.97713095,0.282754998 C6.98855503,0.25989607 6.99997911,0.25989607 7.02233056,0.25989607 C7.14650531,0.25989607 7.19170492,0.395558837 7.3049523,0.463638687 C7.31637637,0.305116992 7.25975269,0.271325534 7.25975269,0.158024761 C7.25975269,0.101871308 7.24832861,0 7.31637637,0 C7.39535152,0 7.38392744,0.101871308 7.4519752,0.158024761 C7.54237442,0.226104612 7.62134956,0.214675148 7.71174878,0.282754998 C7.83642023,0.361767378 7.9039713,0.497430145 7.94917091,0.497430145 C8.07384236,0.520289073 8.10761789,0.361767378 8.03957013,0.282754998 C8.17516896,0.271325534 8.32219186,0.38214164 8.5029903,0.38214164 C8.78561204,0.38214164 8.88743533,0.461650954 8.94405902,0.506871876 C9.12485746,0.664896638 9.15863299,0.789626874 9.36227958,0.789626874 C9.46161938,0.789626874 9.52072657,0.69918503 9.54307802,0.664896638 C9.67867685,0.76428328 9.69208772,1.02716095 9.54307802,1.25326556 C9.59970171,1.43414925 9.85947529,1.45651124 9.98365004,1.54745002 C10.1078248,1.6383888 10.0829898,1.68311279 10.1758726,1.72833371 C10.2295334,1.76825613 10.3030101,1.76825613 10.356671,1.72833371 C10.4132947,1.97680032 10.2101448,2.1919724 9.94987451,2.22526692 C9.96129859,2.54181338 10.2891199,2.73412653 10.4361428,2.81313891 C10.3457436,3.00545207 10.1877933,3.06160552 10.0516978,3.09589391 C10.0968974,3.28820706 10.3000473,3.57096206 10.2007075,3.8199256 C10.1103083,3.77470468 9.96328538,3.8199256 9.96328538,3.95558837 C9.96328538,4.11361313 10.166932,4.19312244 9.9518613,4.30344162 C9.86146208,4.360092 9.83911063,4.49575477 10.008485,4.63141754 C10.234483,4.57526408 10.4495537,4.57526408 10.7093273,4.57526408 C10.8677743,4.57526408 11.0709242,4.52954623 11.2179471,4.52954623 C11.4777207,4.52954623 11.6361676,4.62893287 11.8283902,4.84658962 C12.3146585,5.35544923 12.7552305,5.90952976 13.2524262,6.2827266" id="Path" fill="#231F20"></path>
                        <path d="M0.309443481,4.89330134 C0.408783283,4.89330134 0.603489293,4.31636188 0.998861703,4.31636188 C1.11210908,4.31636188 1.13446053,4.3615828 1.13446053,4.40680373 C1.13446053,4.48631304 0.998861703,4.55588369 0.998861703,4.65527033 C0.997787072,4.66756188 1.00220279,4.67969934 1.0109233,4.68842396 C1.01964381,4.69714859 1.03177556,4.70156639 1.04406131,4.70049125 C1.13446053,4.70049125 1.21393237,4.48581611 1.59788071,4.48581611 C1.69313678,4.48508493 1.78810119,4.49643928 1.88050244,4.51960756 C1.92570205,4.5305401 2.01610127,4.57625795 1.97090166,4.45152771 C1.88050244,4.18020218 1.57354245,3.93123864 1.15730869,3.93123864 C0.741074918,3.93123864 0.298019404,4.30443548 0.252819795,4.75714164 C0.264243872,4.83615402 0.264243872,4.89280441 0.309443481,4.89280441" id="Path" fill="#6D6E70"></path>
                        <path d="M7.54386452,1.29699568 C7.43061714,1.25177476 7.40826569,1.19512438 7.4534653,1.04852908 C7.47581675,0.899449114 7.48724083,0.83385393 7.41968977,0.822424466 C7.36306608,0.800062472 7.28409094,0.845283394 7.2046191,0.924295775 C7.13706803,1.01473762 7.02382066,1.13897092 6.99004513,1.22941277 C6.95577289,1.354143 7.1027958,1.33128408 7.0014692,1.53502669 C6.82017406,1.86300261 6.77497446,1.94201499 6.68457524,2.1681196 C6.60560009,2.41658621 6.54897641,2.4508746 6.5037768,2.52988698 C6.44715311,2.59796683 6.57182456,2.6093963 6.70742339,2.56417537 C6.85643309,2.50752499 6.86537367,2.68840868 6.80924669,2.81264198 C6.76404708,2.90308383 6.79782261,2.93737222 6.92199736,2.83550091 C7.03524473,2.74505906 6.86537367,2.67697921 6.89964591,2.39422422 C6.93203747,2.16273889 7.0169927,1.94175112 7.14799541,1.74821104 C7.28409094,1.53353589 7.39634491,1.3750142 7.62283966,1.45402658 C7.71323888,1.49974443 7.66803927,1.35463994 7.54386452,1.29600182" id="Path" fill="#6D6E70"></path>
                        <path d="M12.3951237,8.70428214 C12.4403233,8.70428214 12.4517474,8.64763176 12.4517474,8.59098137 C12.4517474,8.46674807 12.3836996,8.28586438 12.2818763,8.206852 C12.2595249,8.38773569 12.1691257,8.51196899 12.1691257,8.59098137 C12.1691257,8.64763176 12.3385,8.70428214 12.3951237,8.70428214" id="Path" fill="#6D6E70"></path>
                        <path d="M13.4779276,6.95159871 C13.5459753,6.95159871 13.6477986,6.92873978 13.6477986,6.87208939 C13.6477986,6.77021808 13.4893516,6.58933439 13.3537528,6.54411347 C13.444152,6.72499716 13.3537528,6.95159871 13.4779276,6.95159871" id="Path" fill="#6D6E70"></path>
                        <path d="M8.68527884,4.56532542 C9.66874287,5.01753464 9.61211918,5.84294071 9.69159102,5.63969502 C9.80642612,5.33141156 9.73633319,4.98463473 9.51079259,4.74521524 C9.23909823,4.42866879 9.13777163,4.50768117 9.23909823,4.24828203 C9.66874287,3.20770388 9.93994053,1.63590413 8.6515033,1.09275613 C8.5024936,1.03610575 8.38030565,1.03610575 8.38030565,1.05896468 C8.38030565,1.0818236 8.51590447,1.12704453 8.68527884,1.23984836 C9.54456812,1.80585529 9.27337046,3.35777771 8.49305632,4.10317753 C8.24470682,4.3630736 8.36888157,4.41972399 8.68527884,4.56681622" id="Path" fill="#6D6E70"></path>
                        <path d="M5.31716287,11.8056423 C5.38471393,11.8056423 5.3509384,11.703771 5.32809025,11.6565624 C5.27196326,11.554691 5.15871589,11.4866112 5.05689259,11.4413903 C5.07974074,11.5407769 5.09066812,11.8036546 5.19249142,11.8036546 L5.31716287,11.8036546" id="Path" fill="#6D6E70"></path>
                        <path d="M2.34392261,11.8056423 C2.41197038,11.8056423 2.36677077,11.703771 2.33299524,11.6565624 C2.27637155,11.554691 2.1521968,11.4866112 2.0503735,11.4413903 C2.07272496,11.5407769 2.09557311,11.8036546 2.1993832,11.8036546 L2.34590941,11.8036546" id="Path" fill="#6D6E70"></path>
                        <path d="M5.9499574,5.88816163 C6.49235272,5.83200818 6.58275194,5.70727794 6.67364786,5.30028964 C6.7300262,5.10343077 6.83587719,4.92430598 6.98110454,4.78000057 C7.06854955,4.69305282 7.14800967,4.59842075 7.21852667,4.49724557 C7.24087812,4.44059518 7.26372628,4.40680373 7.21852667,4.41823319 C7.16190298,4.46345411 6.97017717,4.58768741 6.89070532,4.6443378 C6.50626029,4.91566333 5.91866537,5.04188437 5.69266732,5.04188437 C5.19596831,5.04188437 4.76582697,4.89280441 4.31333418,4.89280441 C2.95684919,4.89280441 2.44822941,5.95574455 2.51627717,6.57790493 C2.52770125,6.67977624 2.53862862,6.67977624 2.57290086,6.67977624 C2.66330008,6.67977624 2.75369929,6.31751193 3.09244802,5.98953601 C3.58914702,5.51446786 4.13253574,5.24413619 4.9014258,5.24413619 C5.45524519,5.24413619 5.69266732,5.42501988 5.69266732,5.49260279 C5.69266732,5.62826556 5.45524519,5.64168276 5.47759665,5.77535779 C5.46617257,5.83200818 5.59084402,5.93338255 5.9524409,5.88816163" id="Path" fill="#6D6E70"></path>
                    </g>
                </g>
            </g>
        </g>
    </g>
</svg>