<?xml version="1.0" encoding="UTF-8"?>
<svg width="55px" height="11px" viewBox="0 0 55 11" version="1.1" xmlns="http://www.w3.org/2000/svg" xmlns:xlink="http://www.w3.org/1999/xlink">
    <title>6AA0BBA6-25EC-4103-8199-40709A4D2188</title>
    <defs>
        <filter color-interpolation-filters="auto" id="filter-1">
            <feColorMatrix in="SourceGraphic" type="matrix" values="0 0 0 0 1.000000 0 0 0 0 1.000000 0 0 0 0 1.000000 0 0 0 1.000000 0"></feColorMatrix>
        </filter>
        <linearGradient x1="24.96%" y1="24.5351061%" x2="75%" y2="75.4648939%" id="linearGradient-2">
            <stop stop-color="#DC1405" stop-opacity="0.1" offset="0%"></stop>
            <stop stop-color="#DC1405" stop-opacity="0.13" offset="16%"></stop>
            <stop stop-color="#DC1405" stop-opacity="0.23" offset="39%"></stop>
            <stop stop-color="#DC1405" stop-opacity="0.38" offset="67%"></stop>
            <stop stop-color="#DC1405" stop-opacity="0.59" offset="98%"></stop>
            <stop stop-color="#DC1405" stop-opacity="0.6" offset="100%"></stop>
        </linearGradient>
        <linearGradient x1="71.091%" y1="5.59904581%" x2="36.236%" y2="78.8819962%" id="linearGradient-3">
            <stop stop-color="#DC1405" stop-opacity="0.1" offset="0%"></stop>
            <stop stop-color="#DC1405" stop-opacity="0.13" offset="16%"></stop>
            <stop stop-color="#DC1405" stop-opacity="0.23" offset="39%"></stop>
            <stop stop-color="#DC1405" stop-opacity="0.38" offset="67%"></stop>
            <stop stop-color="#DC1405" stop-opacity="0.59" offset="98%"></stop>
            <stop stop-color="#DC1405" stop-opacity="0.6" offset="100%"></stop>
        </linearGradient>
        <linearGradient x1="10.4245424%" y1="29.383%" x2="122.157129%" y2="70.686%" id="linearGradient-4">
            <stop stop-color="#DC1405" stop-opacity="0.1" offset="0%"></stop>
            <stop stop-color="#DC1405" stop-opacity="0.13" offset="16%"></stop>
            <stop stop-color="#DC1405" stop-opacity="0.23" offset="39%"></stop>
            <stop stop-color="#DC1405" stop-opacity="0.38" offset="67%"></stop>
            <stop stop-color="#DC1405" stop-opacity="0.59" offset="98%"></stop>
            <stop stop-color="#DC1405" stop-opacity="0.6" offset="100%"></stop>
        </linearGradient>
    </defs>
    <g id="Desktop" stroke="none" stroke-width="1" fill="none" fill-rule="evenodd">
        <g id="3a-Sign-in" transform="translate(-78.000000, -846.000000)">
            <g id="Group" transform="translate(18.000000, 834.000000)">
                <g id="Natwest" transform="translate(60.917355, 0.669421)" filter="url(#filter-1)">
                    <g transform="translate(0.000000, 11.714876)" fill-rule="nonzero" id="NatWest">
                        <g>
                            <path d="M30.2805648,3.42263034 L30.2805648,4.66145184 L28.7903308,4.66145184 L28.7903308,7.87038461 C28.7903308,8.44591103 29.0602509,8.5551882 29.5505771,8.5551882 C29.7584671,8.55652232 29.9654097,8.52682922 30.1646883,8.46707264 L30.2747194,8.43064692 L30.2747194,9.66773387 L30.2121392,9.68299798 C29.792714,9.78858321 29.3610371,9.83631346 28.9289012,9.82488484 C28.573707,9.82488484 27.4080648,9.70797562 27.4080648,8.16595333 L27.4080648,4.66145184 L26.5336613,4.66145184 L26.5336613,3.42263034 L27.4080648,3.42263034 L27.4080648,1.84001939 L28.7844854,1.35295544 L28.7844854,3.42263034 L30.2805648,3.42263034 Z M39.5218037,1.40082924 L37.8737438,9.68854857 L36.4763485,9.68854857 L35.0201554,3.91732635 L33.5409245,9.68854857 L32.1648478,9.68854857 L30.442173,1.40082924 L31.8794546,1.40082924 L32.9955827,7.02426709 L34.3833503,1.40082924 L35.7140392,1.40082924 C35.847108,1.92640039 37.105589,6.96321064 37.1207183,7.01698195 C37.1361914,6.96321064 38.1151245,1.59267139 38.1491654,1.40082924 L39.5218037,1.40082924 Z M40.9477382,5.90443629 C40.982123,5.31364575 41.3964589,4.54072659 42.2784271,4.54072659 C43.2291648,4.54072659 43.5162773,5.38857866 43.5482551,5.90443629 L40.9477382,5.90443629 Z M42.3334427,3.31890376 C41.2843647,3.31890376 39.514239,4.00925794 39.514239,6.59687194 C39.514239,9.67918195 41.9438638,9.83459837 42.4304076,9.83459837 C43.1046921,9.86269821 43.7748504,9.71491385 44.3755516,9.40477484 L44.4247217,9.38187867 L44.4247217,8.06222675 L44.2937159,8.14097569 C43.7813744,8.43175203 43.2028878,8.58310205 42.6150536,8.58016584 C41.1702074,8.58016584 40.9666498,7.53873707 40.9477382,7.09954692 L44.917111,7.09954692 L44.917111,7.02843003 C45.0443345,6.16323238 44.917111,4.95320454 44.2156626,4.12824864 C43.7409628,3.58661909 43.0498074,3.28937152 42.3337865,3.31890376 L42.3334427,3.31890376 Z M50.0139589,7.95676561 C50.0139589,8.88128516 49.1983532,9.84049587 47.6586052,9.84049587 C46.9823213,9.83846098 46.314211,9.69123109 45.6986758,9.40859086 L45.6491618,9.38569469 L45.6491618,8.04314661 L45.7763853,8.11391659 C46.345602,8.42107895 46.977316,8.59178125 47.6225012,8.61277554 C48.2458963,8.61277554 48.6034974,8.3883237 48.6034974,7.99319133 C48.6034974,7.59805896 48.3848106,7.5099434 47.8429073,7.26814598 L47.6280028,7.17621439 C47.3376735,7.05019398 47.0481481,6.92229659 46.7594446,6.79253011 C46.3812126,6.62358414 45.5501338,6.24406279 45.5501338,5.09890743 C45.5501338,4.48313925 46.017766,3.32480046 47.7765448,3.32480046 C48.367962,3.32445434 48.9538778,3.43824136 49.502658,3.66026482 L49.552172,3.68524246 L49.552172,5.0087104 L49.4249485,4.94730704 C48.9324035,4.68310851 48.3838722,4.5429088 47.8260588,4.53864512 C47.6242204,4.53864512 46.9609391,4.57923378 46.9609391,5.0472176 C46.9609391,5.4017613 47.3790573,5.58978742 47.7211854,5.74346928 L47.7858286,5.77018148 C48.0292725,5.87772409 48.2211393,5.96202362 48.3848106,6.03487507 L48.5636111,6.10980798 C49.6205976,6.5777918 50.018085,7.06867178 50.018085,7.96058164 L50.0139589,7.95676561 L50.0139589,7.95676561 Z M18.9332615,1.40082924 L20.2752973,1.40082924 L20.2752973,9.6927115 L18.9710847,9.6927115 L15.3837263,3.92114238 L15.3837263,9.6927115 L14.0530374,9.6927115 L14.0530374,1.40082924 L15.3837263,1.40082924 L18.9332615,7.22027217 L18.9332615,1.40082924 Z M52.3978519,4.66179875 L52.3978519,7.87073152 C52.3978519,8.44591103 52.667772,8.5551882 53.158442,8.5551882 C53.3647504,8.5551882 53.5700272,8.52604763 53.7687709,8.4688072 L53.8808651,8.43064692 L53.8808651,9.66773387 L53.8103764,9.68299798 C53.3936051,9.7890456 52.9643628,9.8367881 52.5347031,9.82488484 C52.1774458,9.82488484 51.0138667,9.70797562 51.0138667,8.16595333 L51.0138667,4.66145184 L50.1490908,4.66145184 L50.1490908,4.57923378 L50.1490908,3.42263034 L51.0272767,3.42263034 L51.0272767,1.84001939 L52.3978519,1.35295544 L52.3978519,3.42263034 L53.8884298,3.42263034 L53.8884298,4.66145184 L52.3978519,4.66145184 L52.3978519,4.66179875 Z M24.7769456,7.86275255 C24.4302011,8.30014251 23.9100707,8.56119289 23.3551372,8.57634981 C22.7637199,8.57634981 22.3854879,8.23498875 22.3854879,7.7035201 C22.3854879,7.17239837 22.8170163,6.84630142 23.5679787,6.84630142 L24.7769456,6.84630142 L24.7769456,7.86275255 Z M23.7237415,3.290457 C23.0905076,3.27891388 22.4610778,3.39154794 21.8704048,3.62210454 L21.8153892,3.64291924 L21.8153892,4.91851338 L21.9405496,4.85537546 C22.4462126,4.66438975 22.9806558,4.56253317 23.5205277,4.55425614 C24.7274316,4.55425614 24.7807279,5.01842393 24.7845103,5.62066256 L23.4937077,5.62066256 C21.7827237,5.62066256 21.0073481,6.70233308 21.0073481,7.7035201 C21.0073481,9.09983949 22.1076594,9.82488484 23.2010936,9.82488484 C23.7913754,9.83814801 24.3630807,9.61630172 24.7924187,9.20738211 L24.7924187,9.6927115 L26.1533662,9.6927115 L26.1533662,5.45553261 C26.1533662,3.50103237 24.4537292,3.29011009 23.7237415,3.29011009 L23.7237415,3.290457 Z" id="Shape" fill="#42145E"></path>
                            <polyline id="Path" fill="#FFFFFF" opacity="0.05" points="4.8001077 9.78568383 5.60058412 8.38381385 6.40106053 9.78568383 9.60227849 9.78568383 11.2011682 6.99131049 9.60055925 4.19485567 7.99960643 4.19485567 8.80008284 2.79680172 7.2011931 0 3.99997514 0 2.40108539 2.79472025 3.20534413 4.19485567 1.60060898 4.19485567 0.00171923628 6.98922902 0 6.98922902 0 6.99131049 1.60060898 9.78568383 4.8001077 9.78568383"></polyline>
                            <polygon id="Path" fill="url(#linearGradient-2)" points="7.99960643 4.19485567 7.2011931 5.59117507 5.60058412 5.59117507 4.80217079 6.98922902 8.00166951 6.98922902 9.60055925 4.19485567"></polygon>
                            <polygon id="Path" fill="url(#linearGradient-3)" points="3.20534413 4.19485567 4.8001077 4.19485567 5.60058412 5.59117507 7.2011931 5.59117507 5.60058412 2.79472025 2.40108539 2.79472025"></polygon>
                            <polygon id="Path" fill="url(#linearGradient-4)" points="5.60058412 8.38381385 4.80217079 6.98922902 5.60058412 5.59117507 4.8001077 4.19485567 3.20121796 6.98922902 4.8001077 9.78568383"></polygon>
                            <path d="M11.2011682,6.99131049 L9.60055925,4.19485567 L8.00166951,6.98922902 L4.80217079,6.98922902 L6.40106053,9.78568383 L9.60227849,9.78568383 L11.2011682,6.99131049 Z M3.20121796,6.98922902 L4.8001077,4.19485567 L1.60060898,4.19485567 L0.00171923628,6.98922902 L0,6.99131049 L1.60060898,9.78568383 L4.8001077,9.78568383 L3.20121796,6.98922902 Z M8.80008284,2.79645481 L7.2011931,0 L4.00169437,0 L2.40108539,2.79472025 L5.60058412,2.79472025 L7.2011931,5.59082815 L8.80008284,2.79645481 Z" id="Shape" fill="#D70028"></path>
                            <path d="M9.6002154,4.19485567 L11.2011682,6.99096357 L9.60227849,9.78568383 L8.00166951,6.98957593 L9.6002154,4.19485567 Z M4.8001077,9.78568383 L1.60060898,9.78568383 L0,6.99131049 L0.00206308354,6.98922902 L3.20121796,6.98922902 L4.8001077,9.78568383 Z M5.60058412,2.79472025 L7.2011931,5.59082815 L8.80008284,2.79645481 L7.2011931,0 L5.60058412,2.79472025 Z" id="Shape" fill="#C8001E"></path>
                        </g>
                    </g>
                </g>
            </g>
        </g>
    </g>
</svg>