<?xml version="1.0" encoding="UTF-8"?>
<svg width="60px" height="60px" viewBox="0 0 60 60" version="1.1" xmlns="http://www.w3.org/2000/svg" xmlns:xlink="http://www.w3.org/1999/xlink">
    <title>icons/grants</title>
    <g id="Symbols" stroke="none" stroke-width="1" fill="none" fill-rule="evenodd">
        <g id="grants-tile" transform="translate(-1148.000000, -25.000000)" fill="#003E52">
            <g id="icons/grants" transform="translate(1148.000000, 25.000000)">
                <path d="M38.6869228,6.28864365e-15 C39.406104,-0.00709921772 40.121014,0.112120873 40.7987495,0.352857882 C42.6886793,1.04122268 43.9864958,2.69135388 45.1606297,4.489411 L45.6576232,5.26669089 L45.6576232,5.26669089 L46.3926416,6.43543145 C47.1290588,7.59251794 47.8835002,8.6906185 48.7804141,9.5135197 C49.684378,10.3428573 50.8228937,11.0108574 52.0109079,11.6442667 L53.7317875,12.5445801 L53.7317875,12.5445801 L54.4944315,12.9556382 C56.2526568,13.9291241 57.8318484,15.023673 58.6000757,16.6721068 C59.4163171,18.4235677 59.1649148,20.4738745 58.7309366,22.5765425 L58.5363483,23.4801731 L58.5363483,23.4801731 L58.2364152,24.8382088 C57.9461664,26.1937563 57.7110968,27.5345629 57.7663428,28.7951449 C57.8137093,29.8760605 58.0999868,31.0106259 58.4526772,32.168103 L58.7269521,33.0400265 L58.7269521,33.0400265 L59.1496853,34.3577179 C59.8402933,36.5591738 60.3853597,38.7736392 59.6478117,40.7984951 C58.9594335,42.6883607 57.3092717,43.9861429 55.5111829,45.1602564 L54.7338894,45.657242 L54.7338894,45.657242 L53.5651289,46.3922511 C52.4080229,47.1286604 51.3099048,47.8830972 50.4869923,48.7800057 C49.657627,49.683949 48.9896129,50.8224363 48.3561936,52.010421 L47.6582064,53.345179 C46.5149699,55.538048 45.3299839,57.6666036 43.3282418,58.5994431 C42.4854285,58.9730527 41.5704779,59.1558424 40.6488057,59.1347434 C39.4440966,59.1347434 38.1723116,58.8956587 36.8888762,58.6167245 L35.3467088,58.2756267 C34.0628212,57.9966906 32.7894536,57.757599 31.5820317,57.7575873 C31.4555817,57.7575029 31.3298801,57.760206 31.2049269,57.7656965 C29.9658312,57.8199896 28.6562003,58.1882848 27.3223655,58.6106935 L25.9821787,59.0415146 C24.4132188,59.5427238 22.8323354,60 21.3131013,60 C20.5939328,60.0070808 19.8790381,59.8878563 19.2013121,59.6471318 C17.3113869,58.9587529 16.0135669,57.3086206 14.8394225,55.5105687 L14.3424241,54.7332914 L14.3424241,54.7332914 L13.6073967,53.5645561 C12.8709695,52.4074754 12.1165154,51.3093824 11.2195865,50.4864887 C10.3156314,49.6571511 9.17712133,48.9891583 7.98911076,48.3557568 L6.26823521,47.4554542 L6.26823521,47.4554542 L5.50559244,47.0443999 C3.74736964,46.0709217 2.16817809,44.9763707 1.39995304,43.3279016 C0.58371158,41.5764314 0.83510691,39.5261245 1.26908155,37.4234589 L1.46366866,36.5198294 L1.46366866,36.5198294 L1.76360106,35.1617956 C2.05385006,33.8062502 2.28892291,32.4654455 2.23368591,31.2048635 C2.18632073,30.1239479 1.90004074,28.989386 1.54734638,27.8319128 L1.27306824,26.9599923 L1.27306824,26.9599923 L0.850329495,25.6423051 C0.159712014,23.4408556 -0.385364155,21.2263918 0.352188908,19.2015133 C1.04057177,17.3116266 2.6907336,16.0138397 4.48882767,14.8397286 L5.26612375,14.3427444 L5.26612375,14.3427444 L6.43488983,13.6077386 C7.59200245,12.8713333 8.69013083,12.116902 9.51305984,11.219998 C10.3424163,10.3160548 11.0104244,9.17756739 11.6438404,7.98958271 L12.3418251,6.65482468 C13.4850593,4.46195572 14.6700522,2.33340008 16.6718103,1.4005606 C17.5146219,1.02694558 18.4295738,0.844155625 19.3512465,0.865260282 C20.5559575,0.865260282 21.8277445,1.10434989 23.1111788,1.38328777 L24.6533432,1.72438895 C25.9372268,2.00332683 27.210586,2.24241644 28.4179924,2.24241644 C28.5444424,2.24250081 28.670144,2.23979775 28.7950971,2.23430725 C30.0341891,2.18001411 31.3438193,1.81171859 32.6776545,1.3893095 L34.0178421,0.958488066 C35.5868032,0.457278417 37.1676886,6.28864365e-15 38.6869228,6.28864365e-15 Z M29.9689441,7.14285714 C17.3624444,7.14285714 7.14285714,17.3624444 7.14285714,29.9689441 C7.14285714,36.0228007 9.54773325,41.8287089 13.8284563,46.1094319 C18.1091793,50.3901549 23.9150875,52.7950311 29.9689441,52.7950311 C42.5754438,52.7950311 52.7950311,42.5754438 52.7950311,29.9689441 C52.7950311,17.3624444 42.5754438,7.14285714 29.9689441,7.14285714 Z M29.9689441,9.04504998 C38.4318714,9.04504998 46.061484,14.1430193 49.3001039,21.9617456 C52.5387237,29.7804719 50.7485598,38.7802136 44.7643632,44.7644035 C38.7801665,50.7485935 29.7804227,52.5387472 21.9617001,49.3001185 C14.1429775,46.0614898 9.04504998,38.4318714 9.04504998,29.9689441 C9.05810723,18.4184093 18.4184093,9.05810723 29.9689441,9.04504998 Z M30.3257143,22.8571429 C29.6857143,22.8571429 29.0790476,22.9604762 28.5057143,23.1671429 C27.932381,23.3738095 27.437381,23.6788095 27.0207143,24.0821429 C26.6040476,24.4854762 26.3007143,24.9754762 26.1107143,25.5521429 C25.975,25.9640476 25.920068,26.4210204 25.9459184,26.9230612 L25.9711224,27.2296939 L26.2557143,29.2771429 L24.5057143,29.2771429 L24.5057143,30.6971429 L26.5357143,30.6971429 L26.5807143,31.0209429 L26.6527143,31.5953429 L26.7007143,32.0721429 C26.7307143,32.4288095 26.7457143,32.7738095 26.7457143,33.1071429 C26.7457143,33.9404762 26.5807143,34.5421429 26.2507143,34.9121429 C26.015,35.1764286 25.7342177,35.3463265 25.4083673,35.4218367 L25.207449,35.4558163 L24.9957143,35.4671429 L24.2857143,35.4671429 L24.2857143,37.5171429 L31.3857143,37.5171429 L31.7515785,37.5072663 C32.7072986,37.4545914 33.5036772,37.1912169 34.1407143,36.7171429 C34.6981217,36.302328 35.1335332,35.7282128 35.4469489,34.9947972 L35.5738007,34.6707231 L35.6857143,34.3271429 L33.6157143,33.8471429 L33.5171429,34.0879592 C33.3114286,34.5483673 33.0542857,34.8814286 32.7457143,35.0871429 C32.4885714,35.2585714 32.154898,35.3687755 31.7446939,35.4177551 L31.4893878,35.4397959 L31.2157143,35.4471429 L28.1657143,35.4471429 L28.337381,35.2771429 C28.4507143,35.1571429 28.5618254,35.0238095 28.6707143,34.8771429 C28.8340476,34.6571429 28.9740476,34.3871429 29.0907143,34.0671429 C29.207381,33.7471429 29.2857143,33.3504762 29.3257143,32.8771429 C29.3790476,32.5371429 29.4007143,32.2021429 29.3907143,31.8721429 C29.3857143,31.7071429 29.3752976,31.5258929 29.3594643,31.3283929 L29.3316518,31.0199554 L29.2957143,30.6871429 L32.1657143,30.6871429 L32.1657143,29.2671429 L29.1057143,29.2671429 L28.9940476,28.7904762 L28.8710847,28.1860317 L28.8207143,27.8971429 C28.7507143,27.4704762 28.7157143,27.0971429 28.7157143,26.7771429 C28.7157143,26.3638095 28.8007143,26.0138095 28.9707143,25.7271429 C29.1407143,25.4404762 29.3740476,25.2221429 29.6707143,25.0721429 C29.967381,24.9221429 30.302381,24.8471429 30.6757143,24.8471429 C31.162381,24.8471429 31.5507143,24.9554762 31.8407143,25.1721429 C32.0340476,25.3165873 32.2103439,25.5151058 32.3696032,25.7676984 L32.4858532,25.9672817 L32.5957143,26.1871429 L34.7357143,25.4971429 L34.5873143,25.1855429 C34.3729143,24.7812762 34.092381,24.4218095 33.7457143,24.1071429 C33.312381,23.7138095 32.8057143,23.4071429 32.2257143,23.1871429 C31.6457143,22.9671429 31.012381,22.8571429 30.3257143,22.8571429 Z" id="Shape"></path>
            </g>
        </g>
    </g>
</svg>