<?xml version="1.0" encoding="UTF-8"?>
<svg width="151px" height="242px" viewBox="0 0 151 242" version="1.1" xmlns="http://www.w3.org/2000/svg" xmlns:xlink="http://www.w3.org/1999/xlink">
    <title>F0A49832-56D3-42AA-8143-D1FB48936566</title>
    <g id="Page-1" stroke="none" stroke-width="1" fill="none" fill-rule="evenodd">
        <g id="Landing-Page" transform="translate(-1205.000000, -565.000000)">
            <g id="Tax-savings-calculator" transform="translate(713.000000, 350.000000)">
                <g id="lady" transform="translate(493.000000, 216.000000)">
                    <polygon id="Path" fill="#E2E2E2" fill-rule="nonzero" points="39.7457627 174.597932 39.7457627 230.986022 36 239 61.6838305 239 70 160"></polygon>
                    <polygon id="Path" fill="#EDEEEF" fill-rule="nonzero" points="45 91.3136655 85 89 85 132.27313 85 239 57.9596763 239 61.283567 233.05589"></polygon>
                    <path d="M46,20.0175343 L46,25.6366763 C46,29.9816068 48.7588644,33.765182 52.6832327,34.802229 L61,37 L61,15.0303071 L54.0846777,13.2028789 C52.1373377,12.6882795 50.0780678,13.1646936 48.4999369,14.494914 C46.9218061,15.8251344 46,17.861495 46,20.0175251 L46,20.0175343 Z" id="Path" fill="#EDEEEF" fill-rule="nonzero"></path>
                    <path d="M46,26 C46,30.2060085 48.7588644,33.86861 52.6832327,34.8724991 L61,37" id="Path" stroke="#000000" stroke-width="1.5" stroke-linecap="round" stroke-linejoin="round"></path>
                    <circle id="Oval" fill="#000000" fill-rule="nonzero" cx="56.5" cy="24.5" r="1"></circle>
                    <circle id="Oval" fill="#000000" fill-rule="nonzero" cx="49.5" cy="24.5" r="1"></circle>
                    <polyline id="Path" stroke="#000000" stroke-width="1.5" stroke-linecap="round" stroke-linejoin="round" points="51 27 51 20 47 20"></polyline>
                    <line x1="57" y1="20" x2="53" y2="20" id="Path" stroke="#000000" stroke-width="1.5" stroke-linecap="round" stroke-linejoin="round"></line>
                    <path d="M61,23.3152254 L61,26 C62.1045688,26 63,24.8259813 63,23.3777577 C63,23.2973006 62.9972753,23.2177408 62.9918258,23.1390782 C62.8797715,21.5107487 61,21.6802887 61,23.3152254 Z" id="Path" fill="#EDEEEF" fill-rule="nonzero"></path>
                    <path d="M61,26 C62.1045688,26 63,25.1045689 63,24" id="Path" stroke="#000000" stroke-width="1.5" stroke-linecap="round" stroke-linejoin="round"></path>
                    <path d="M53,26.7922368 C53.2652158,27.0582938 53.6249268,27.2077632 54,27.2077632 C54.3750732,27.2077632 54.7347842,27.0582938 55,26.7922368" id="Path" stroke="#FF6498" stroke-width="1.5" stroke-linecap="round" stroke-linejoin="round"></path>
                    <line x1="51" y1="25.8299112" x2="52" y2="26.1700888" id="Path" stroke="#000000" stroke-width="1.5" stroke-linecap="round" stroke-linejoin="round"></line>
                    <path d="M46,17.2905626 C46,17.2905626 46.2355545,13.7936494 49.4114271,14.009606 C52.5872997,14.2255626 57.1345718,13.9376205 57.4954664,16.8170418 C57.8563611,19.696463 58.9677663,22 60,22" id="Path" stroke="#000000" stroke-width="1.5" stroke-linecap="round" stroke-linejoin="round"></path>
                    <path d="M47.2011561,21.1020865 C47.2011561,21.1020865 35.830549,1.44769043 55.9493234,0.0550868782 C76.0680978,-1.33751667 85.5359163,24.1007101 62.7498353,28" id="Path" stroke="#000000" stroke-width="1.5" stroke-linecap="round" stroke-linejoin="round"></path>
                    <path d="M63,27 C63,28.1045695 62.1045695,29 61,29 C59.8954305,29 59,28.1045695 59,27 C59,25.8954305 59.8954305,25 61,25" id="Path" stroke="#FF6498" stroke-width="1.5" stroke-linecap="round" stroke-linejoin="round"></path>
                    <path d="M46,28.5339015 C45.5873751,29.1007054 44.9971399,29.1559989 44.5479221,28.6699327 C44.0987046,28.1838665 43.8968946,27.2715575 44.0514354,26.4254996 C44.2059766,25.5794417 44.6802682,25 45.2182724,25" id="Path" stroke="#FF6498" stroke-width="1.5" stroke-linecap="round" stroke-linejoin="round"></path>
                    <path d="M85,58.3944939 L85,91.4801152 L38,103 L38,66.1516586 C38,53.0858702 46.9446097,41.7081513 59.6679421,38.5896134 L59.6679908,38.5896134 C65.7696624,37.0940701 72.2220487,38.4786336 77.1668636,42.3445499 C82.1116786,46.2104662 85,52.1285834 85,58.3944853 L85,58.3944939 Z" id="Path" fill="#EDEEEF" fill-rule="nonzero"></path>
                    <polygon id="Path" fill="#820090" fill-rule="nonzero" points="85.3751373 92 38 103.658499 38 177 110 165.646759"></polygon>
                    <polyline id="Path" stroke="#000000" stroke-width="1.5" stroke-linecap="round" stroke-linejoin="round" points="57.7343725 239 61 233.033954 52 153"></polyline>
                    <path d="M78.0171482,43 C78.0171482,43 100.899282,62.7053026 85.9074719,90.2660344 C70.9156616,117.826766 22.6303452,78.4265662 22.0462487,75.3211304 C21.4621521,72.2156947 26.5243241,71.4393379 30.8076968,73.768414 C30.8076968,73.768414 30.2236003,70.590215 32.5599865,71.5 C34.8963727,72.4097882 36.0645657,75.1270398 36.0645657,75.1270398 L68.9686721,76.4856685 L64.6834215,58.4353288" id="Path" stroke="#000000" stroke-width="1.5" stroke-linecap="round" stroke-linejoin="round"></path>
                    <polyline id="Path" stroke="#000000" stroke-width="1.5" stroke-linecap="round" stroke-linejoin="round" points="47 75.5919217 32.7117529 38 0 46.8851379 20.2043774 92 38.2812339 88.3404639"></polyline>
                    <path d="M45,92 L45,92 C45,92 63.156283,114.268659 90,104.54027 L85.6463944,92.4420591 C76.9052491,104.740517 59.2107756,99.5796398 45,92 Z" id="Path" fill="#000000" fill-rule="nonzero"></path>
                    <line x1="47" y1="44" x2="38" y2="52" id="Path" stroke="#000000" stroke-width="1.5" stroke-linecap="round" stroke-linejoin="round"></line>
                    <path d="M8.13606977,64 C8.13606977,64 2.69444452,84.051342 15.6300248,92.5618217 C28.565605,101.072301 38,94.725503 38,94.725503" id="Path" stroke="#000000" stroke-width="1.5" stroke-linecap="round" stroke-linejoin="round"></path>
                    <g id="potted-plant,-plant,-pot,-interior,-furnishing,-decor" transform="translate(43.161915, 148.096743)">
                        <path d="M68.6942611,55.5455317 C67.2999976,51.6135281 63.2154621,56.8068539 63.2154621,56.8068539 C63.2154621,56.8068539 68.1365557,46.2772376 63.2154621,43.8899497 C60.787942,42.7123511 59.5105205,44.0977842 58.8387824,45.8039086 C61.3567443,30.4936486 61.9001028,0.964228627 51.7370412,-0.0642332516 C40.6357113,-1.18766285 44.4340756,27.1789344 44.4340756,27.1789344 C44.4340756,27.1789344 41.3666958,19.0340699 37.4629614,22.6852161 C33.5592271,26.3363622 41.0878431,50.2092412 41.0878431,50.2092412 C40.251285,47.6815246 35.7896416,45.7155228 34.1165254,50.2092412 C32.4434091,54.7029595 38.8570214,64.2521111 38.8570214,64.2521111 L60.8863853,67.9032573 C60.8863853,67.9032573 70.0885247,59.4775353 68.6942611,55.5455317 Z" id="Path" fill="#000000" fill-rule="nonzero"></path>
                        <polygon id="Path" fill="#FFB700" fill-rule="nonzero" points="67.785171 91.9032573 35.8909994 91.9032573 28.8380852 63.9032573 74.8380852 63.9032573"></polygon>
                        <line x1="-0.161914809" y1="91.9032573" x2="105.838085" y2="91.9032573" id="Path" stroke="#000000" stroke-width="1.5" stroke-linecap="round" stroke-linejoin="round"></line>
                        <line x1="28.8380852" y1="63.9032573" x2="74.8380852" y2="63.9032573" id="Path" stroke="#000000" stroke-width="1.5" stroke-linecap="round" stroke-linejoin="round"></line>
                    </g>
                </g>
            </g>
        </g>
    </g>
</svg>