<svg xmlns="http://www.w3.org/2000/svg" xmlns:xlink="http://www.w3.org/1999/xlink" version="1.1" id="Layer_1" x="0px" y="0px" viewBox="0 0 283.5 69.4" style="enable-background:new 0 0 283.5 69.4;" xml:space="preserve">
<style type="text/css">
	.st0{fill:url(#SVGID_1_);}
	.st1{fill:url(#SVGID_2_);}
	.st2{fill:url(#SVGID_3_);}
	.st3{fill:#1E1B58;}
	.st4{fill:none;}
</style>
<title>Lom_Logo_CMYK_Pos</title>
<g id="Logo_Artwork">
	
		<linearGradient id="SVGID_1_" gradientUnits="userSpaceOnUse" x1="0" y1="50.965" x2="65.24" y2="50.965" gradientTransform="matrix(1 0 0 -1 0 69.0298)">
		<stop offset="0" style="stop-color:#E5231B"/>
		<stop offset="1" style="stop-color:#F39200"/>
	</linearGradient>
	<path class="st0" d="M0,34.6L34.6,0l30.7,30.7C52.8,24.7,47.9,24,42.3,24c-12.9,0-25,12.1-35.8,12.1C4.3,36.2,2,35.7,0,34.6z"/>
	
		<linearGradient id="SVGID_2_" gradientUnits="userSpaceOnUse" x1="3.01" y1="17.688" x2="68.21" y2="17.688" gradientTransform="matrix(1 0 0 -1 0 69.0298)">
		<stop offset="0" style="stop-color:#E5231B"/>
		<stop offset="1" style="stop-color:#F39200"/>
	</linearGradient>
	<path class="st1" d="M3,38.7c7,3.5,15.2,6.6,23.1,6.6c16.5,0,24.4-12,35.5-12c2.3-0.1,4.5,0.5,6.5,1.6L33.7,69.4L3,38.7z"/>
	
		<linearGradient id="SVGID_3_" gradientUnits="userSpaceOnUse" x1="10.96" y1="34.5499" x2="57.09" y2="34.5499" gradientTransform="matrix(1 0 0 -1 0 69.0298)">
		<stop offset="0" style="stop-color:#E5231B"/>
		<stop offset="1" style="stop-color:#F39200"/>
	</linearGradient>
	<path class="st2" d="M22.5,41.2c-3.9-0.1-7.8-0.9-11.5-2.2C26,38,35.2,27.8,45.7,27.8c4,0,7.9,0.9,11.4,2.7   C44.6,30.7,37.5,41.2,22.5,41.2z"/>
	<path class="st3" d="M85,17c-1.9,0-2.5,0.9-2.6,2.1l-5.1,35.2h23.3l0.8-5.3H84L88.6,17H85z M102.8,43.2c0,7.2,5.7,11.6,12.3,11.6   c8.8,0,15.2-5.9,15.2-15c0-7.2-5.7-11.6-12.3-11.6C109.2,28.2,102.8,34.1,102.8,43.2z M108.7,42.4c0-5.1,3.4-9.4,8.8-9.4   c4.1,0,6.9,2.8,6.9,7.5c0,5.1-3.4,9.4-8.8,9.4C111.5,49.9,108.7,47.1,108.7,42.4z M156.9,40.1c0.6-4.4,3-6.9,7-6.9   c3.6,0,5.1,2,5.1,4.5c0,1.4-0.2,2.8-0.4,4.1l-1.8,12.4h5.7l1.9-12.7c0.2-1.6,0.4-3.1,0.4-4.7c0-5.1-3.7-8.7-9.8-8.7   c-3.8-0.2-7.5,1.5-10,4.4c-1.9-3.1-5-4.4-9.1-4.4c-5.7,0-11.2,3.2-12.2,9.9l-2.3,16.2h5.7l1.9-13.7c0.7-4.9,3-7.3,7-7.3   c3.1,0,5.1,1.9,5.1,5c0,1.2-0.1,2.4-0.3,3.6l-1.8,12.4h5.7L156.9,40.1z M176.8,54.2c1.1,0,7.5,0.2,10.8,0.2   c10.9,0,17.1-5.2,17.1-15c0-7.2-4.8-11.2-11.8-11.2c-2.3-0.1-4.7,0.4-6.8,1.5l1.8-12.6h-3.5c-1.9,0-2.4,0.8-2.5,2L176.8,54.2z    M188,49.6c-1.4,0-3.7,0-4.8-0.1l2.1-14.7c1.9-1.1,4-1.7,6.1-1.6c3.9,0,7.2,1.6,7.2,6.7C198.6,46.8,194.3,49.6,188,49.6z    M219.3,32.7c-2.9,0-6.3,0.9-8.1,2.4l-0.5-1c-0.5-0.7-0.8-1.5-0.9-2.3c0-0.9,0.4-1.7,2.7-2.6c2.3-0.8,4.7-1.2,7.1-1.1   c5.5,0,12.1,2,12.1,8.7c0,1.7-0.2,3.5-0.4,5.2l-1.8,12.2c-1.4,0.1-7.6,0.2-12.2,0.2c-4.3,0-10.8-1.2-10.8-7.6c0-6.3,4.6-9.3,11-9.3   c2.9,0,5.7,0.3,8.5,1C226.7,34.6,224.2,32.7,219.3,32.7z M224.5,50l1.1-7.3c-2.2-0.6-4.5-1-6.7-1c-3.7,0-6.4,1.2-6.4,4.8   c0,3.2,3.5,3.7,6.6,3.7C221.8,50.2,223.2,50.1,224.5,50z M233.6,54.2h5.7l2-13.8c0.8-5.1,3-7.3,6.7-7.3c1.8,0,3.6,0.4,5.2,1.3   l0.5-1c0.5-0.7,0.9-1.6,1-2.5c0-1.8-2.8-2.7-6.6-2.7c-5.9,0-11.2,2.9-12.3,10.6L233.6,54.2z M283.5,17H280c-1.9,0-2.4,0.8-2.5,2   L276,29.5c-2.1-0.8-4.4-1.2-6.7-1.3c-8.8,0-15.3,5.3-15.3,15.1c0,7.2,4.9,11.1,13.2,11.1c3.4,0,8.9-0.2,10.9-0.2L283.5,17z    M269.2,33.2c2.1-0.1,4.2,0.4,6,1.4l-2.1,14.9c-1.3,0.1-3.7,0.1-4.9,0.1c-4.9,0-8.2-1.6-8.2-6.7C260,35.9,264.3,33.2,269.2,33.2z"/>
</g>
<g id="Clearspace">
	<rect class="st4" width="283.5" height="69.4"/>
</g>
</svg>