<?xml version="1.0" encoding="UTF-8"?>
<svg width="218px" height="205px" viewBox="0 0 218 205" version="1.1" xmlns="http://www.w3.org/2000/svg" xmlns:xlink="http://www.w3.org/1999/xlink">
    <title>B716A5E2-AFE1-4833-84E0-C71B46629033</title>
    <g id="Page-1" stroke="none" stroke-width="1" fill="none" fill-rule="evenodd">
        <g id="Landing-Page" transform="translate(-491.000000, -309.000000)">
            <g id="grants-finder" transform="translate(39.000000, 254.000000)">
                <g id="man" transform="translate(453.000000, 55.000000)">
                    <polygon id="Path" fill="#000000" fill-rule="nonzero" points="51.4998454 45 0 63.4998429 51.4998454 82 103 63.4998429"></polygon>
                    <polyline id="Path" stroke="#000000" stroke-width="1.5" points="0 63 51.4998454 81 103 63"></polyline>
                    <polygon id="Path" fill="#EDEEEF" fill-rule="nonzero" points="51.4998454 22 0 40.5001571 51.4998454 59 103 40.5001571"></polygon>
                    <polyline id="Path" stroke="#000000" stroke-width="1.5" points="0 40 51.4998454 58 103 40"></polyline>
                    <polygon id="Path" fill="#FA355C" fill-rule="nonzero" points="0 18.5 51.4998454 37 103 18.5 51.4998454 0"></polygon>
                    <polyline id="Path" stroke="#000000" stroke-width="1.5" points="0 18 51.4998454 36 103 18"></polyline>
                    <polygon id="Path" fill="#F4F4F4" fill-rule="nonzero" points="25.0028427 182.854878 32.289643 189.18007 51.7214192 164.342683 60.4658881 171.657844 106.616241 111 147.423248 182.854878 158.596342 170.513415 179 204 8 204"></polygon>
                    <line x1="184" y1="203.5" x2="2" y2="203.5" id="Path" stroke="#000000" stroke-width="1.5"></line>
                    <path d="M135.412636,79 C135.412636,79 102.892893,135.392426 92.0107517,191.182688 L88,193.569943 L107.179391,200 C107.179391,200 149.665524,135.157309 152.204693,126.925418 C154.743862,118.693526 150.391001,79 150.391001,79" id="Path" fill="#FA355C" fill-rule="nonzero"></path>
                    <path d="M144.437777,103 C144.437777,103 138.701257,130.702429 140.272494,148 C146.290748,138.882217 151.177842,131.138875 153,127.422334 L144.437777,103 Z" id="Path" fill="#000000" fill-rule="nonzero"></path>
                    <polygon id="Path" fill="#EDEEEF" fill-rule="nonzero" points="147 17.2482451 147 27.7902519 160 31 160 13.2097481 147 10"></polygon>
                    <circle id="Oval" fill="#000000" fill-rule="nonzero" cx="153.5" cy="20.5" r="1"></circle>
                    <circle id="Oval" fill="#000000" fill-rule="nonzero" cx="147.5" cy="20.5" r="1"></circle>
                    <polyline id="Path" stroke="#000000" stroke-width="1.5" points="149 22 149 17 147 17"></polyline>
                    <line x1="154" y1="17.5" x2="152" y2="17.5" id="Path" stroke="#000000" stroke-width="1.5"></line>
                    <line x1="146.499995" y1="15.5" x2="146.500005" y2="15.5" id="Path" stroke="#000000" stroke-width="1.5"></line>
                    <path d="M157,20.6576153 L157,22 C157.530433,22 158.039141,21.8618655 158.414213,21.6159829 C158.789286,21.3701004 159,21.0366118 159,20.688881 C159,20.6486466 158.997276,20.6088661 158.991829,20.5695395 C158.879774,19.7553756 157,19.840142 157,20.6576153 Z" id="Path" fill="#EDEEEF" fill-rule="nonzero"></path>
                    <path d="M157,22 C157.530433,22 158.039141,21.7892876 158.414213,21.4142148 C158.789286,21.0391419 159,20.5304336 159,20" id="Path" stroke="#000000" stroke-width="1.5"></path>
                    <line x1="157" y1="30" x2="159" y2="31" id="Path" stroke="#000000" stroke-width="1.5"></line>
                    <line x1="150" y1="22.02916" x2="152" y2="22.97084" id="Path" stroke="#000000" stroke-width="1.5" stroke-linecap="round"></line>
                    <path d="M145.909244,19 C145.909244,19 143.373287,27.862416 146.771748,30.7642878 C150.170209,33.6661597 160.275279,31.9754815 157.53408,20.0816396" id="Path" stroke="#000000" stroke-width="1.5"></path>
                    <path d="M147.08257,23.1477002 C146.981546,23.3112055 146.972629,23.5166784 147.059098,23.6885884 C147.145567,23.8604983 147.314662,23.9734773 147.504223,23.9859949 C148.277403,24.1614543 149.446199,22.6144875 150.457649,23.4566606 C150.457649,23.4566606 150.68425,22.2680492 153.202768,22.9790113 C155.721287,23.6899734 154.856735,22 154.856735,22" id="Path" stroke="#000000" stroke-width="1.5"></path>
                    <path d="M151,23.8424457 C151.756557,24.2387801 152.651987,23.8616044 153,23" id="Path" stroke="#FA355C" stroke-width="1.5" stroke-linecap="round" stroke-linejoin="round"></path>
                    <path d="M144,14 C144,14 144.944448,17.6613676 153.570353,15.4861202 C153.570353,15.4861202 154.091995,17.4802136 155.576747,17.570798 C157.061499,17.6613824 156.999634,19 156.999634,19" id="Path" stroke="#000000" stroke-width="1.5"></path>
                    <path d="M146.425607,17.2575127 C146.425607,17.2575127 137.795105,10.3768529 147.931878,10.0280101 C158.068651,9.67916727 163.556864,12.5841558 159.827194,19" id="Path" stroke="#000000" stroke-width="1.5"></path>
                    <path d="M138,49.2568658 L138,77.2523951 L178,87 L178,55.8206308 C178,44.764962 170.387561,35.137662 159.559191,32.4989036 L159.559152,32.4989036 C154.366242,31.2334443 148.874852,32.404997 144.6665,35.6761548 C140.458148,38.9473127 138,43.9549478 138,49.2568628 L138,49.2568658 Z" id="Path" fill="#EDEEEF" fill-rule="nonzero"></path>
                    <path d="M176.668364,87.7857066 L145.137106,80 C145.137106,80 143.015402,157.005298 155.46481,198.826169 L153.394186,203 L174.062482,203 C174.062482,203 178.17443,104.633493 176.668364,87.7857066 Z" id="Path" fill="#FA355C" fill-rule="nonzero"></path>
                    <path d="M145.131024,80 C145.131024,80 143.103504,157.117961 155,199" id="Path" stroke="#000000" stroke-width="1.5"></path>
                    <path d="M165,34 C165,34 188.704411,48.4050649 187.983901,72.3823555 C187.263392,96.3596461 170.451506,106 170.451506,106" id="Path" stroke="#000000" stroke-width="1.5"></path>
                    <path d="M163,93 C163,93 166.346154,105.421875 172,108" id="Path" stroke="#000000" stroke-width="1.5"></path>
                    <polyline id="Path" stroke="#000000" stroke-width="1.5" points="160 59 173 74.9758698 163.663673 95"></polyline>
                    <path d="M163.460434,92 L172,74.0465721 L162,62 L162,62 C162,62 168.092566,80.0078699 163.460434,92 Z" id="Path" fill="#000000" fill-rule="nonzero"></path>
                    <path d="M141,37.4045686 L123.840185,51.0894357 C123.840185,51.0894357 104.060477,25.7107392 99.6902793,24.3641966 C95.3200811,23.017654 90,25.8384797 90,25.8384797 L90,27.5051138 L95.0602263,28.4315502 C95.0602263,28.4315502 94.3146414,34.3620107 97.5347857,37.1413169 C97.5347857,37.1413169 107.517514,73.8828446 122.505965,73.9983946 C132.754722,74.0774069 136.575795,71.2136396 136.575795,71.2136396" id="Path" stroke="#000000" stroke-width="1.5"></path>
                    <line x1="109" y1="203.5" x2="217" y2="203.5" id="Path" stroke="#000000" stroke-width="1.5"></line>
                    <path d="M202.837541,202.128729 C202.837541,202.128729 204.703473,198.753066 199.966878,198.019228 C197.152276,197.574426 194.272249,197.92985 191.641958,199.046604 C191.641958,199.046604 194.943221,194.937103 189.776026,193.175889 C184.608832,191.414674 179.29811,195.524166 179.29811,195.524166 C179.29811,195.524166 184.465301,185.690715 180.446371,184.95688 C176.42744,184.223045 174.274447,188.479296 174.274447,188.479296 C174.274447,188.479296 174.705046,176.297568 166.380126,176.004027 C158.055206,175.710486 158.916401,191.561421 158.916401,191.561421 C158.916401,191.561421 155.328076,184.516564 149.29968,184.223029 C143.271285,183.929495 146.285486,196.023725 146.285486,196.023725 C146.285486,196.023725 145.137225,193.17587 141.118294,192.882332 C137.099364,192.588794 137.386432,196.033186 137.386432,196.033186 C137.386432,196.033186 132.219241,188.626065 126.477916,189.066369 C120.736592,189.506672 123.176656,196.845067 123.176656,196.845067 C117.291798,196.404764 116,203 116,203 L207,203 L202.837541,202.128729 Z" id="Path" fill="#000000" fill-rule="nonzero"></path>
                </g>
            </g>
        </g>
    </g>
</svg>