<?xml version="1.0" encoding="UTF-8"?>
<svg width="42px" height="42px" viewBox="0 0 62 62" version="1.1" xmlns="http://www.w3.org/2000/svg" xmlns:xlink="http://www.w3.org/1999/xlink">
    <title>tax-credits / Icons / Speed</title>
    <g id="tax-credits-/-Icons-/-Speed" stroke="none" stroke-width="1" transform="translate(-2.500000, -2.000000)">
        <g id="Speed">
            <path d="M49,33 C49,32.9971556 48.9996444,32.9943111 48.9996444,32.9914667 C48.9985778,31.1856 48.6942222,29.4515556 48.1416889,27.8323556 L48.1598222,27.8248889 L48.0318222,27.5080889 L47.6673778,26.6060444 L47.4938667,26.1765333 L47.4764444,26.1836444 C46.8115556,24.7735111 45.9472,23.4768 44.9189333,22.3290667 L44.936,22.312 L44.3834667,21.7594667 L44.2359111,21.6119111 L43.6791111,21.0551111 L43.6616889,21.0725333 C42.5818667,20.1068444 41.3704889,19.2858667 40.0574222,18.6391111 L40.0663111,18.6181333 L39.4152889,18.3418667 L39.0565333,18.1893333 L38.4300444,17.9233778 L38.4215111,17.9436444 C36.9939556,17.4295111 35.4721778,17.1127111 33.8888889,17.0259556 L33.8888889,17 L33,17 L32.1111111,17 L32.1111111,17.0259556 C30.6248889,17.1073778 29.1941333,17.3946667 27.8430222,17.8544 L27.8337778,17.8312889 L27.0796444,18.136 L26.7109333,18.2849778 L26.1854222,18.4972444 L26.1939556,18.5185778 C24.7838222,19.1824 23.4867556,20.0456889 22.3383111,21.0728889 L22.3208889,21.0554667 L21.7640889,21.6122667 L21.6165333,21.7598222 L21.064,22.3123556 L21.0810667,22.3294222 C20.1143111,23.4085333 19.2926222,24.6195556 18.6451556,25.9322667 L18.6273778,25.9248 L18.4190222,26.4154667 L18.1299556,27.096 L17.9322667,27.5614222 L17.9479111,27.5678222 C17.3367111,29.2616889 17.0014222,31.0871111 17.0003556,32.9914667 C17.0003556,32.9943111 17,32.9971556 17,33 C17,34.8033778 17.3029333,36.5349333 17.8529778,38.1523556 L17.8401778,38.1576889 L17.9304889,38.3809778 C18.0709333,38.7742222 18.2280889,39.1592889 18.3976889,39.5376 L18.5061333,39.8060444 L18.5171556,39.8017778 C19.1813333,41.2136889 20.0453333,42.5121778 21.0732444,43.6616889 L21.064,43.6709333 L21.2677333,43.8746667 L22.1260444,44.7329778 L22.3208889,44.9278222 L22.3294222,44.9192889 C23.4096,45.8871111 24.6220444,46.7095111 25.9365333,47.3573333 L25.9333333,47.3644444 L26.0350222,47.4078222 C26.5114667,47.6385778 27.0007111,47.8469333 27.5016889,48.0304 L27.5696,48.0592 L27.5717333,48.0542222 C29.0014222,48.5697778 30.5253333,48.8876444 32.1107556,48.9744 L32.1107556,48.9832889 L32.3265778,48.9832889 C32.5502222,48.9921778 32.7742222,49 33,49 C33.2257778,49 33.4497778,48.9921778 33.6730667,48.9829333 L33.8888889,48.9829333 L33.8888889,48.9740444 C35.3776,48.8926222 36.8101333,48.6046222 38.1630222,48.1434667 L38.1662222,48.1516444 L38.3073778,48.0947556 C38.7610667,47.9351111 39.2044444,47.7552 39.6382222,47.5571556 L39.8149333,47.4856889 L39.8120889,47.4785778 C41.2236444,46.8133333 42.5217778,45.9482667 43.6705778,44.9192889 L43.6791111,44.9278222 L43.8739556,44.7329778 L44.7322667,43.8746667 L44.936,43.6709333 L44.9267556,43.6616889 C45.8935111,42.5808 46.7152,41.3683556 47.3623111,40.0535111 L47.3729778,40.0581333 L47.4583111,39.8576 C47.6453333,39.4643556 47.8152889,39.0615111 47.9703111,38.6512 L48.0677333,38.4218667 L48.0577778,38.4176 C48.6664889,36.7255111 49,34.9018667 49,33 Z M27.2488889,41.6222222 C26.8051556,41.6222222 26.4136889,41.4145778 26.1527111,41.096 C25.9521778,40.8506667 25.8266667,40.5416889 25.8266667,40.2 C25.8266667,39.4145778 26.4634667,38.7777778 27.2488889,38.7777778 C27.5905778,38.7777778 27.8995556,38.9032889 28.1448889,39.1038222 C28.4634667,39.3648 28.6711111,39.7562667 28.6711111,40.2 C28.6711111,40.9854222 28.0343111,41.6222222 27.2488889,41.6222222 Z M33.8888889,41.3018667 C33.6446222,41.4992 33.3381333,41.6222222 33,41.6222222 C32.6618667,41.6222222 32.3553778,41.4992 32.1111111,41.3018667 C31.7882667,41.0412444 31.5777778,40.6469333 31.5777778,40.2 C31.5777778,39.7527111 31.7882667,39.3587556 32.1111111,39.0981333 C32.3553778,38.9008 32.6618667,38.7777778 33,38.7777778 C33.3381333,38.7777778 33.6446222,38.9008 33.8888889,39.0981333 C34.2117333,39.3587556 34.4222222,39.7530667 34.4222222,40.2 C34.4222222,40.6472889 34.2117333,41.0412444 33.8888889,41.3018667 Z M39.8472889,41.096 C39.5863111,41.4145778 39.1952,41.6222222 38.7511111,41.6222222 C37.9656889,41.6222222 37.3288889,40.9854222 37.3288889,40.2 C37.3288889,39.7562667 37.5365333,39.3648 37.8551111,39.1038222 C38.1004444,38.9032889 38.4094222,38.7777778 38.7511111,38.7777778 C39.5365333,38.7777778 40.1733333,39.4145778 40.1733333,40.2 C40.1733333,40.5416889 40.0481778,40.8506667 39.8472889,41.096 Z M36.6007111,32.9914667 C36.6010667,32.9672889 36.6042667,32.9438222 36.6042667,32.9196444 C36.6042667,32.8716444 36.5989333,32.8247111 36.5971556,32.7770667 L40.4307556,25.5863111 L33.8888889,29.0743111 L33.6410667,29.2065778 L33.3943111,29.3381333 C33.2645333,29.3239111 33.1333333,29.3157333 33,29.3157333 C32.8264889,29.3157333 32.6568889,29.3320889 32.4897778,29.3559111 C32.3610667,29.3740444 32.2348444,29.3992889 32.1111111,29.4305778 C31.7552,29.5208889 31.4213333,29.6638222 31.1162667,29.8512 C31.0234667,29.9084444 30.9335111,29.9696 30.8464,30.0346667 C30.5594667,30.2490667 30.3063111,30.5043556 30.0947556,30.7930667 C30.0165333,30.8997333 29.9432889,31.0103111 29.8768,31.1258667 C29.6478222,31.5233778 29.4938667,31.9681778 29.4305778,32.4424889 C29.4099556,32.5992889 29.3953778,32.7578667 29.3953778,32.92 C29.3953778,32.9441778 29.3985778,32.9676444 29.3989333,32.9918222 L19.0743111,32.9918222 C19.0753778,31.3751111 19.3544889,29.8241778 19.8622222,28.3806222 L21.64,29.1351111 C21.8323556,28.5697778 22.0652444,28.0232889 22.3361778,27.4992 L20.5587556,26.7447111 C21.0967111,25.6766222 21.7676444,24.6878222 22.5505778,23.7992889 L23.9155556,25.1642667 C24.3034667,24.7152 24.7233778,24.2952889 25.1731556,23.9080889 L23.8081778,22.5431111 C24.7575111,21.7079111 25.8192,20.9975111 26.9715556,20.4435556 L27.6958222,22.2359111 C28.2245333,21.9749333 28.7749333,21.7516444 29.3438222,21.5696 L28.6213333,19.7811556 C29.7296,19.4142222 30.8990222,19.1824 32.1111111,19.1059556 L32.1111111,21.0369778 C32.4048,21.0152889 33.5952,21.0152889 33.8888889,21.0369778 L33.8888889,19.1059556 C35.1852444,19.1877333 36.4328889,19.4465778 37.6090667,19.8590222 L36.8545778,21.6368 C37.4202667,21.8284444 37.9667556,22.0609778 38.4908444,22.3315556 L39.2453333,20.5541333 C40.3137778,21.0913778 41.3029333,21.7612444 42.1921778,22.5434667 L40.8272,23.9084444 C41.2766222,24.2956444 41.6968889,24.7155556 42.0848,25.1646222 L43.4497778,23.7996444 C44.2860444,24.7486222 44.9975111,25.8099556 45.5528889,26.9619556 L43.7601778,27.6862222 C44.0218667,28.2145778 44.2455111,28.7649778 44.4279111,29.3338667 L46.2163556,28.6113778 C46.6739556,29.9891556 46.9253333,31.4611556 46.9260444,32.9921778 L36.6007111,32.9921778 L36.6007111,32.9914667 Z" id="Shape" fill="#003E52"  fill-rule="nonzero"></path>
        </g>
    </g>
</svg>