<?xml version="1.0" encoding="UTF-8"?>
<svg width="256px" height="220px" viewBox="0 0 256 220" version="1.1" xmlns="http://www.w3.org/2000/svg" xmlns:xlink="http://www.w3.org/1999/xlink">
    <title>CE429040-1CA8-406F-861A-D3A8CFCFF84C@1x</title>
    <g id="🛠-Sticker-Sheet" stroke="none" stroke-width="1" fill="none" fill-rule="evenodd">
        <g id="Illustrations" transform="translate(-110.000000, -705.000000)">
            <g id="assets/illustrations/blank-state---no-applications" transform="translate(110.000000, 705.000000)">
                <g>
                    <rect id="Rectangle" x="0" y="0" width="256" height="220"></rect>
                    <g id="Group-2" transform="translate(69.000000, 184.000000)" fill="#CED7DE">
                        <path d="M1,0 L17,0 C17.5522847,-1.01453063e-16 18,0.44771525 18,1 C18,1.55228475 17.5522847,2 17,2 L1,2 C0.44771525,2 6.76353751e-17,1.55228475 0,1 C-6.76353751e-17,0.44771525 0.44771525,1.01453063e-16 1,0 Z" id="Rectangle-Copy-6"></path>
                        <path d="M27,0 L117,0 C117.552285,-1.01453063e-16 118,0.44771525 118,1 C118,1.55228475 117.552285,2 117,2 L27,2 C26.4477153,2 26,1.55228475 26,1 C26,0.44771525 26.4477153,1.01453063e-16 27,0 Z" id="Rectangle-Copy-13"></path>
                    </g>
                    <g id="Group-20" transform="translate(101.000000, 67.000000)" fill="#CFD7DE">
                        <path d="M45.7696,8.4754 L54.0516,8.4754 L54.0516,5.8074 C54.0516,3.6754 52.3116,1.9374 50.2496,1.9374 L49.5776,1.9374 C47.5096,1.9374 45.7696,3.6754 45.7696,5.8074 L45.7696,8.4754 Z M44.9036,10.2074 C44.4856,10.2074 44.0396,9.8254 44.0396,9.3414 L44.0396,5.8074 C44.0396,2.7074 46.5416,0.2074 49.5776,0.2074 L50.2496,0.2074 C53.2816,0.2074 55.7816,2.7074 55.7816,5.8074 L55.7816,9.3414 C55.7816,9.8254 55.3336,10.2074 54.9156,10.2074 L44.9036,10.2074 Z" id="Fill-99"></path>
                        <path d="M1.7442,59.5848 L44.3942,59.5848 L44.0382,5.8068 C44.0382,4.2748 44.6102,2.9648 45.5702,1.9368 L5.5402,1.9368 C3.4342,1.9368 1.7442,3.6748 1.7442,5.8068 L1.7442,59.5848 Z M0.8782,61.3068 C0.3262,61.3068 0.0142,60.9088 0.0142,60.4508 L0.0142,5.8068 C0.0142,2.7088 2.5122,0.2068 5.5402,0.2068 L49.5782,0.2068 C50.1302,0.2068 50.4442,0.5908 50.4442,1.0728 C50.4442,1.5568 50.1302,1.9368 49.5782,1.9368 C47.5102,1.9368 45.7702,3.6748 45.7702,5.8068 L45.7702,60.7208 C45.6262,61.0508 45.3842,61.3068 44.9622,61.3068 L0.8782,61.3068 Z" id="Fill-100"></path>
                    </g>
                    <g id="Group" transform="translate(107.000000, 80.000000)" stroke="#CFD7DE" stroke-linecap="round" stroke-linejoin="round" stroke-width="1.2">
                        <path d="M16.6933313,17 C15.9990344,15.5919195 15.8261854,13.6690679 16.1747842,11.2314453 C16.6976824,7.57501145 16.9237212,8.83256968 16.9237212,5.65625 C16.9237212,2.47993032 16.1747842,2.43278279 16.1747842,-1.44366455 C16.1747842,-5.32011189 16.625439,-7.35434454 16.9237212,-9.8125 C17.2220033,-12.2706555 16.5492527,-12.6946661 16.5492527,-16" id="Path-4-Copy-2" transform="translate(16.500000, 0.500000) scale(1, -1) rotate(-270.000000) translate(-16.500000, -0.500000) "></path>
                        <path d="M16.6933313,22 C15.9990344,20.5919195 15.8261854,18.6690679 16.1747842,16.2314453 C16.6976824,12.5750114 16.9237212,13.8325697 16.9237212,10.65625 C16.9237212,7.47993032 16.1747842,7.43278279 16.1747842,3.55633545 C16.1747842,-0.32011189 16.625439,-2.35434454 16.9237212,-4.8125 C17.2220033,-7.27065546 16.5492527,-7.69466612 16.5492527,-11" id="Path-4-Copy-3" transform="translate(16.500000, 5.500000) rotate(-270.000000) translate(-16.500000, -5.500000) "></path>
                        <path d="M16.6933313,27 C15.9990344,25.5919195 15.8261854,23.6690679 16.1747842,21.2314453 C16.6976824,17.5750114 16.9237212,18.8325697 16.9237212,15.65625 C16.9237212,12.4799303 16.1747842,12.4327828 16.1747842,8.55633545 C16.1747842,4.67988811 16.625439,2.64565546 16.9237212,0.1875 C17.2220033,-2.27065546 16.5492527,-2.69466612 16.5492527,-6" id="Path-4-Copy-4" transform="translate(16.500000, 10.500000) scale(-1, -1) rotate(-270.000000) translate(-16.500000, -10.500000) "></path>
                    </g>
                    <g id="Group-Copy" transform="translate(107.000000, 95.000000)" stroke="#CFD7DE" stroke-linecap="round" stroke-linejoin="round" stroke-width="1.2">
                        <path d="M16.6933313,17 C15.9990344,15.5919195 15.8261854,13.6690679 16.1747842,11.2314453 C16.6976824,7.57501145 16.9237212,8.83256968 16.9237212,5.65625 C16.9237212,2.47993032 16.1747842,2.43278279 16.1747842,-1.44366455 C16.1747842,-5.32011189 16.625439,-7.35434454 16.9237212,-9.8125 C17.2220033,-12.2706555 16.5492527,-12.6946661 16.5492527,-16" id="Path-4-Copy-2" transform="translate(16.500000, 0.500000) scale(1, -1) rotate(-270.000000) translate(-16.500000, -0.500000) "></path>
                        <path d="M16.6933313,22 C15.9990344,20.5919195 15.8261854,18.6690679 16.1747842,16.2314453 C16.6976824,12.5750114 16.9237212,13.8325697 16.9237212,10.65625 C16.9237212,7.47993032 16.1747842,7.43278279 16.1747842,3.55633545 C16.1747842,-0.32011189 16.625439,-2.35434454 16.9237212,-4.8125 C17.2220033,-7.27065546 16.5492527,-7.69466612 16.5492527,-11" id="Path-4-Copy-3" transform="translate(16.500000, 5.500000) rotate(-270.000000) translate(-16.500000, -5.500000) "></path>
                        <path d="M16.6933313,27 C15.9990344,25.5919195 15.8261854,23.6690679 16.1747842,21.2314453 C16.6976824,17.5750114 16.9237212,18.8325697 16.9237212,15.65625 C16.9237212,12.4799303 16.1747842,12.4327828 16.1747842,8.55633545 C16.1747842,4.67988811 16.625439,2.64565546 16.9237212,0.1875 C17.2220033,-2.27065546 16.5492527,-2.69466612 16.5492527,-6" id="Path-4-Copy-4" transform="translate(16.500000, 10.500000) scale(-1, -1) rotate(-270.000000) translate(-16.500000, -10.500000) "></path>
                    </g>
                    <path d="M128,42 C161.137085,42 188,68.862915 188,102 C188,135.137085 161.137085,162 128,162 C94.862915,162 68,135.137085 68,102 C68,68.862915 94.862915,42 128,42 Z M128,46 C97.072054,46 72,71.072054 72,102 C72,132.927946 97.072054,158 128,158 C158.927946,158 184,132.927946 184,102 C184,71.072054 158.927946,46 128,46 Z" id="Rectangle" stroke="#CFD7DE" fill="#E8EFF8" fill-rule="nonzero"></path>
                </g>
            </g>
        </g>
    </g>
</svg>