<svg viewBox="0 0 257 220" xmlns="http://www.w3.org/2000/svg"><g transform="translate(.333)" fill="none" fill-rule="evenodd"><path d="M0 0h256v220H0z"/><rect stroke="#CED7DE" fill="#FFF" x="55.5" y="66.5" width="155" height="99" rx="7.2"/><path fill="#CFD7DE" d="M59 73h1v61h-1zm147 0h1v87h-1zM58 71v-1h146v1zm0 91v-1h146v1z"/><rect stroke="#46C8B8" stroke-width="2" fill="#FFF" x="38" y="134" width="70" height="44" rx="4.8"/><path fill="#46C8B8" d="M38 145h69v2H38z"/><rect fill="#46C8B8" x="91" y="167" width="12" height="2" rx="1"/><rect fill="#46C8B8" x="43" y="157" width="14" height="2" rx="1"/><rect fill="#46C8B8" x="43" y="153" width="14" height="2" rx="1"/><rect fill="#46C8B8" x="93.8" y="171.8" width="10" height="2" rx="1"/><rect stroke="#46C8B8" stroke-width="1.2" x="121.6" y="111.6" width="13.8" height="40.8" rx="2.4"/><rect stroke="#46C8B8" stroke-width="1.2" x="150.6" y="101.6" width="13.8" height="50.8" rx="2.4"/><rect stroke="#46C8B8" stroke-width="1.2" x="177.6" y="90.6" width="13.8" height="61.8" rx="2.4"/><path d="M142.775 83.346l-.395.795-4.087 8.22a.5.5 0 01-.928-.362l.033-.084 3.235-6.508-39.422 26.799-10.148 6.898-3.382 2.3a.5.5 0 01-.562-.828l3.382-2.299 10.147-6.898 39.423-26.8-7.243.614a.5.5 0 01-.525-.367l-.015-.089a.5.5 0 01.367-.525l.089-.015 9.146-.776.885-.075z" fill="#8A9FAE" fill-rule="nonzero"/><path d="M140.698 152.6c-.599-.82-.748-1.938-.447-3.356.45-2.128.645-1.396.645-3.244 0-1.848-.645-1.875-.645-4.13 0-2.256.388-3.44.645-4.87.258-1.43-.322-1.677-.322-3.6s.823-1.611.322-4.055c-.5-2.444.555-2.4.555-5.774m54.947 0c-.599.82-.748 1.938-.447 3.357.45 2.127.645 1.395.645 3.243 0 1.849-.645 1.876-.645 4.131 0 2.256.388 3.44.645 4.87.258 1.43-.322 1.676-.322 3.6 0 1.923.823 1.61.322 4.055-.5 2.444.555 2.4.555 5.773m-28.553-29.029c-.599.82-.748 1.938-.447 3.357.45 2.127.645 1.395.645 3.243 0 1.849-.645 1.876-.645 4.131 0 2.256.388 3.44.645 4.87.258 1.43-.322 1.676-.322 3.6 0 1.923.823 1.61.322 4.055-.5 2.444.555 2.4.555 5.773" stroke="#46C8B8" stroke-width="1.2" stroke-linecap="round" stroke-linejoin="round"/><path stroke="#E8EFF8" stroke-width="1.2" d="M67.6 78.6h25.8v25.8H67.6z"/><path d="M71 84.433c.82.599 1.938.748 3.356.447 2.128-.45 1.396-.645 3.244-.645 1.848 0 1.875.645 4.13.645 2.256 0 3.44-.388 4.87-.645 1.43-.257 1.677.323 3.6.323M71 89.567c.82-.599 1.938-.748 3.356-.447 2.128.45 1.396.645 3.244.645 1.848 0 1.875-.645 4.13-.645 2.256 0 3.44.388 4.87.645 1.43.257 1.677-.323 3.6-.323m0 4.591c-.82.599-1.938.748-3.356.447-2.128-.45-1.396-.645-3.244-.645-1.848 0-1.875.645-4.13.645-2.256 0-3.44-.388-4.87-.645-1.43-.257-1.677.323-3.6.323" stroke="#CFD7DE" stroke-linecap="round" stroke-linejoin="round" stroke-width="1.2"/><path fill="#E8EFF8" d="M56 73h3v60h-3zm6-6h142v3H62zm145 6h3v87h-3zm-98 89h95v3h-95z"/><g transform="rotate(180 106 84)" fill="#FFF" stroke="#CED7DE"><path d="M7.5 6.8a.698.698 0 01-.7.7H2.4c-.525 0-1-.213-1.344-.556A1.894 1.894 0 01.5 5.6V4c0-.966.392-1.841 1.025-2.475A3.489 3.489 0 014 .5h1.6a1.898 1.898 0 011.9 1.9v4.4z"/><circle cx="4.2" cy="4.2" r="1.1"/></g><g transform="matrix(-1 0 0 1 212 65)" fill="#FFF" stroke="#CED7DE"><path d="M7.5 6.8a.698.698 0 01-.7.7H2.4c-.525 0-1-.213-1.344-.556A1.894 1.894 0 01.5 5.6V4c0-.966.392-1.841 1.025-2.475A3.489 3.489 0 014 .5h1.6a1.898 1.898 0 011.9 1.9v4.4z"/><circle cx="4.2" cy="4.2" r="1.1"/></g><g transform="translate(54 65)" fill="#FFF" stroke="#CED7DE"><path d="M7.5 6.8a.698.698 0 01-.7.7H2.4c-.525 0-1-.213-1.344-.556A1.894 1.894 0 01.5 5.6V4c0-.966.392-1.841 1.025-2.475A3.489 3.489 0 014 .5h1.6a1.898 1.898 0 011.9 1.9v4.4z"/><circle cx="4.2" cy="4.2" r="1.1"/></g><g transform="translate(21 51)" fill="#E8EFF8"><rect y="4" width="10" height="2" rx="1"/><rect transform="rotate(90 5 5)" y="4" width="10" height="2" rx="1"/></g><g transform="translate(212 40)" fill="#E8EFF8"><rect y="4" width="10" height="2" rx="1"/><rect transform="rotate(90 5 5)" y="4" width="10" height="2" rx="1"/></g><g transform="translate(109 35)" fill="#E8EFF8"><rect y="4" width="10" height="2" rx="1"/><rect transform="rotate(90 5 5)" y="4" width="10" height="2" rx="1"/></g><g transform="translate(145 19)" fill="#E8EFF8"><rect y="4" width="10" height="2" rx="1"/><rect transform="rotate(90 5 5)" y="4" width="10" height="2" rx="1"/></g><g transform="translate(42 20)" fill="#E8EFF8"><rect y="4" width="10" height="2" rx="1"/><rect transform="rotate(90 5 5)" y="4" width="10" height="2" rx="1"/></g><g transform="translate(81 40)" fill="#E8EFF8"><rect y="4" width="10" height="2" rx="1"/><rect transform="rotate(90 5 5)" y="4" width="10" height="2" rx="1"/></g><g transform="translate(165 42)" fill="#E8EFF8"><rect y="4" width="10" height="2" rx="1"/><rect transform="rotate(90 5 5)" y="4" width="10" height="2" rx="1"/></g><g transform="translate(234 91)" fill="#E8EFF8"><rect y="4" width="10" height="2" rx="1"/><rect transform="rotate(90 5 5)" y="4" width="10" height="2" rx="1"/></g><g transform="translate(32 92)" fill="#E8EFF8"><rect y="4" width="10" height="2" rx="1"/><rect transform="rotate(90 5 5)" y="4" width="10" height="2" rx="1"/></g><g transform="translate(16 124)" fill="#E8EFF8"><rect y="4" width="10" height="2" rx="1"/><rect transform="rotate(90 5 5)" y="4" width="10" height="2" rx="1"/></g><g transform="translate(222 136)" fill="#E8EFF8"><rect y="4" width="10" height="2" rx="1"/><rect transform="rotate(90 5 5)" y="4" width="10" height="2" rx="1"/></g><rect fill="#E8EFF8" x="199" y="70" width="10" height="2" rx="1"/><path d="M70 184h16a1 1 0 010 2H70a1 1 0 110-2zm26 0h90a1 1 0 110 2H96a1 1 0 010-2z" fill="#8A9FAD"/></g></svg>