<svg viewBox="0 0 257 220" xmlns="http://www.w3.org/2000/svg"><g transform="translate(.333)" fill="none" fill-rule="evenodd"><path d="M0 0h256v220H0z"/><path d="M71 84.361c.64.499 1.514.623 2.622.373 1.662-.376 1.09-.538 2.534-.538 1.444 0 1.465.538 3.227.538 1.763 0 2.687-.324 3.805-.538 1.117-.215 1.31.269 2.812.269m-15 3.174c.64-.499 1.514-.623 2.622-.373 1.662.376 1.09.538 2.534.538 1.444 0 1.465-.538 3.227-.538 1.763 0 2.687.324 3.804.538 1.118.215 1.31-.269 2.813-.269m0 2.826c-.64.499-1.514.623-2.622.373-1.662-.376-1.09-.538-2.534-.538-1.444 0-1.465.538-3.227.538-1.763 0-2.687-.324-3.804-.538-1.118-.215-1.31.269-2.813.269" stroke="#8A9FAD" stroke-linecap="round" stroke-linejoin="round"/><path d="M71 84.361c.64.499 1.514.623 2.622.373 1.662-.376 1.09-.538 2.534-.538 1.444 0 1.465.538 3.227.538 1.763 0 2.687-.324 3.804-.538 1.118-.215 1.31.269 2.813.269m-15 3.174c.64-.499 1.514-.623 2.622-.373 1.662.376 1.09.538 2.534.538 1.444 0 1.465-.538 3.227-.538 1.763 0 2.687.324 3.804.538 1.118.215 1.31-.269 2.813-.269m0 2.826c-.64.499-1.514.623-2.622.373-1.662-.376-1.09-.538-2.534-.538-1.444 0-1.465.538-3.227.538-1.763 0-2.687-.324-3.805-.538-1.117-.215-1.31.269-2.812.269" stroke="#8A9FAD" stroke-linecap="round" stroke-linejoin="round"/><rect fill="#8A9FAD" x="31" y="177" width="196" height="2" rx="1"/><path d="M177.84 102.28h-.24c-.24-.12-.36-.24-.36-.48v-3.6h-3.6c-5.76 0-10.44-4.68-10.44-10.44s4.68-10.44 10.44-10.44h5.52c5.76 0 10.56 4.68 10.56 10.44 0 3.12-1.44 6.12-3.84 8.16l-7.68 6.24c-.12.12-.24.12-.36.12zm-4.2-24c-5.16 0-9.36 4.2-9.36 9.36 0 5.16 4.2 9.36 9.36 9.36h4.2c.36 0 .6.24.6.6v3l6.6-5.64c2.16-1.8 3.48-4.44 3.48-7.32 0-5.16-4.2-9.36-9.36-9.36h-5.52zm-96.68 24h.24c.24-.12.36-.24.36-.48v-3.6h3.6c5.76 0 10.44-4.68 10.44-10.44s-4.68-10.44-10.44-10.44h-5.52c-5.76 0-10.56 4.68-10.56 10.44 0 3.12 1.44 6.12 3.84 8.16l7.68 6.24c.12.12.24.12.36.12zm4.2-24c5.16 0 9.36 4.2 9.36 9.36 0 5.16-4.2 9.36-9.36 9.36h-4.2c-.36 0-.6.24-.6.6v3l-6.6-5.64c-2.16-1.8-3.48-4.44-3.48-7.32 0-5.16 4.2-9.36 9.36-9.36h5.52zm46.92-8.76c-.12 0-.36-.12-.48-.24l-1.56-2.76c-5.76-.96-9.84-5.88-9.84-11.64 0-6.6 5.28-11.88 11.88-11.88 6.6 0 11.88 5.28 11.88 11.88 0 5.76-4.08 10.68-9.72 11.64l-1.68 2.76c-.12.24-.24.24-.48.24zm0-25.44c-5.88 0-10.68 4.8-10.68 10.8 0 5.28 3.84 9.72 9.12 10.56.12 0 .24.12.36.24l1.2 2.16 1.32-2.16c.12-.12.24-.24.36-.24 5.28-.84 9.12-5.28 9.12-10.56-.12-6-4.92-10.8-10.8-10.8z" fill="#8A9FAD" fill-rule="nonzero"/><path d="M122.5 51.361c.47.499 1.11.623 1.923.373 1.219-.376.8-.538 1.858-.538 1.059 0 1.075.538 2.367.538s1.97-.324 2.79-.538c.819-.215.96.269 2.062.269m-11 3.174c.47-.499 1.11-.623 1.923-.373 1.219.376.8.538 1.858.538 1.059 0 1.075-.538 2.367-.538s1.97.324 2.79.538c.819.215.96-.269 2.062-.269m0 2.826c-.47.499-1.11.623-1.923.373-1.219-.376-.8-.538-1.858-.538-1.059 0-1.075.538-2.367.538s-1.97-.324-2.79-.538c-.819-.215-.96.269-2.062.269" stroke="#8A9FAD" stroke-linecap="round" stroke-linejoin="round"/><g stroke="#51AAED" stroke-linejoin="round"><path d="M98.627 164.686v-51.432h8.697v-1.714c0-.326.072-.844.154-1.358-.533-3.01-3.211-5.434-6.418-5.434h-6.13c-3.522 0-6.431 2.794-6.431 6.524v5.947c0 2.376 1.33 4.425 3.22 5.683h-2.74c-3.523 0-6.38 2.78-6.38 6.322v17.059c0 3.158 2.276 5.88 5.487 6.216v20.784a4.185 4.185 0 004.205 4.22h11.62c2.223 0 4.157-1.873 4.157-4.22v-17.904l-9.441 9.307z" stroke-width="2" stroke-linecap="round"/><path d="M149.481 113.255v-1.714c0-4.776-3.955-8.726-8.726-8.726h-3.59c2.452-1.502 4.247-4.387 4.247-7.54v-8.396c0-4.949-3.945-8.88-8.812-8.88h-8.396c-4.766 0-8.736 3.931-8.736 8.88v8.395c0 3.154 1.738 6.039 4.344 7.541h-3.734c-4.8 0-8.755 3.95-8.755 8.726v1.714h42.158zM114.747 153.6v18.192c0 3.082 2.611 5.707 5.693 5.707h15.926c3.144 0 5.707-2.625 5.707-5.707V153.6h-27.326z" stroke-width="2" stroke-linecap="round"/><path d="M167.814 122.902h-2.712c1.9-1.258 3.298-3.303 3.298-5.684v-5.947c0-3.73-3-6.523-6.528-6.523h-6.13c-3.149 0-5.885 2.424-6.384 5.434.053.523.125 1.032.125 1.358v1.714h8.702v40.348h-9.288v19.68c0 2.348 1.858 4.22 4.195 4.22h11.626c2.218 0 4.104-1.872 4.104-4.22v-20.784c3.11-.336 5.525-3.057 5.525-6.216v-17.059c0-3.542-3-6.321-6.533-6.321z" stroke-width="2" stroke-linecap="round"/><path d="M115.947 133.458c0 .403-.192.72-.586.72a.719.719 0 01-.72-.72c0-.394.327-.61.72-.61.394 0 .586.216.586.61zm13.172 0c0 .403-.317.72-.715.72-.394 0-.658-.317-.658-.72 0-.394.264-.61.658-.61.398 0 .715.216.715.61zm13.045 0c0 .403-.321.72-.672.72-.23 0-.557-.317-.557-.72 0-.394.327-.61.557-.61.35 0 .672.216.672.61z" stroke-width="6" stroke-linecap="round"/><path stroke-width="2" stroke-linecap="square" d="M158.186 113.255H98.628v51.432l11.28-11.088h48.278z"/></g><g transform="translate(31 51)" fill="#E8EFF8"><rect y="4" width="10" height="2" rx="1"/><rect transform="rotate(90 5 5)" y="4" width="10" height="2" rx="1"/></g><g transform="translate(162 47)" fill="#E8EFF8"><rect y="4" width="10" height="2" rx="1"/><rect transform="rotate(90 5 5)" y="4" width="10" height="2" rx="1"/></g><g transform="translate(204 113)" fill="#E8EFF8"><rect y="4" width="10" height="2" rx="1"/><rect transform="rotate(90 5 5)" y="4" width="10" height="2" rx="1"/></g><g transform="translate(92 28)" fill="#E8EFF8"><rect y="4" width="10" height="2" rx="1"/><rect transform="rotate(90 5 5)" y="4" width="10" height="2" rx="1"/></g><g transform="translate(41 110)" fill="#E8EFF8"><rect y="4" width="10" height="2" rx="1"/><rect transform="rotate(90 5 5)" y="4" width="10" height="2" rx="1"/></g><rect fill="#E8EFF8" x="54" y="152" width="10" height="2" rx="1"/><rect fill="#E8EFF8" x="68" y="55" width="10" height="2" rx="1"/><rect fill="#E8EFF8" x="209" y="70" width="10" height="2" rx="1"/><rect fill="#E8EFF8" x="189" y="33" width="10" height="2" rx="1"/><rect fill="#E8EFF8" x="190" y="152" width="10" height="2" rx="1"/><path d="M70 184h16a1 1 0 010 2H70a1 1 0 110-2zm26 0h90a1 1 0 110 2H96a1 1 0 010-2z" fill="#8A9FAD"/><path d="M169 84.361c.64.499 1.514.623 2.622.373 1.662-.376 1.09-.538 2.534-.538 1.444 0 1.465.538 3.227.538 1.763 0 2.687-.324 3.805-.538 1.117-.215 1.31.269 2.812.269m-15 3.174c.64-.499 1.514-.623 2.622-.373 1.662.376 1.09.538 2.534.538 1.444 0 1.465-.538 3.227-.538 1.763 0 2.687.324 3.804.538 1.118.215 1.31-.269 2.813-.269m0 2.826c-.64.499-1.514.623-2.622.373-1.662-.376-1.09-.538-2.534-.538-1.444 0-1.465.538-3.227.538-1.763 0-2.687-.324-3.804-.538-1.118-.215-1.31.269-2.813.269" stroke="#8A9FAD" stroke-linecap="round" stroke-linejoin="round"/></g></svg>
