<svg viewBox="0 0 257 220" xmlns="http://www.w3.org/2000/svg"><g transform="translate(.333)" fill="none" fill-rule="evenodd"><path d="M0 0h256v220H0z"/><g stroke="#E8EFF8" stroke-linecap="round" stroke-linejoin="round"><path d="M174.906 69.18h26.342v34.958h-26.342zm31.381 34.959h-36.288"/><path d="M188.074 96.82c-1.364 0-2.55 1.194-2.55 2.556v4.762h5.106v-4.762c0-1.362-1.124-2.556-2.556-2.556zm-9.124.737h3.574v-3.442h-3.574zm14.68 0h3.576v-3.442h-3.576zm-14.68-6.954h3.574v-3.578h-3.574zm7.342 0h3.572v-3.578h-3.572zm3.571 3.512h-3.572m7.339-3.512h3.576v-3.578h-3.576zm-14.68-6.914h3.574v-3.532h-3.574zm7.342 0h3.572v-3.532h-3.572zm7.338 0h3.576v-3.532h-3.576zm-14.68-6.96h3.574v-3.572h-3.574zm7.342 0h3.572v-3.572h-3.572zm7.338 0h3.576v-3.572h-3.576zm-18.724-7.549l3.458-4.18h19.424l3.46 4.18"/></g><g stroke="#E8EFF8" stroke-linecap="round" stroke-linejoin="round"><path d="M91.837 104.041h19.35V66.79h-19.35zm3.067-37.252h13.222v-5.722H94.904z"/><path d="M98.809 104.041h5.41V96.12h-5.41zm-2.522-32.008h10.348m-10.348 4.469h10.348m-10.348 4.324h10.348m-10.348 4.451h10.348m-10.348 4.341h10.348m6.391 14.423H90M101.408 57v3.9m14.1 43.141h19.406V61.067h-19.406z"/><path d="M122.48 104.041h5.568V96.12h-5.568zm-2.365-32.008h10.294m-10.294 4.469h10.294m-10.294 4.324h10.294m-10.294 4.451h10.294m-10.294 4.341h10.294m6.448 14.423H113.67M125.164 57v3.9m-5.048 6.419h.756v-1.81h-.756zm4.666 0h.756v-1.81h-.756zm4.66 0h.761v-1.81h-.76z"/></g><g stroke="#E8EFF8" stroke-linecap="round" stroke-linejoin="round"><path d="M43.637 104.041H62.99V66.79H43.637z"/><path d="M62.989 104.041H73.68v-27.54H62.989zM46.7 66.789h13.33v-5.722H46.7zm3.905 37.252h5.524V96.12h-5.524zm-2.364-32.008h10.296m-10.296 4.469h10.296m-10.296 4.324h10.296m-10.296 4.451h10.296m-10.296 4.341h10.296m8.559-8.792h2.499m-2.499 4.451h2.499m-2.499 4.341h2.499m-2.499 4.434h2.499m-2.499 4.355h2.499m-4.688 5.634H41.8M53.21 57v3.9m20.47 43.141h13.65V73.578H73.68z"/><path d="M78.84 104.041h3.308v-4.665H78.84zm10.346 0H62.988m17.514-33.389v2.892m-3.721 4.393h.65v-.879h-.65zm3.394 0h.49v-.879h-.49zm3.255 0h.63v-.879h-.63zm-6.649 4.416h.65v-.975h-.65zm3.394 0h.49v-.975h-.49zm3.255 0h.63v-.975h-.63zm-6.649 4.365h.65v-.878h-.65zm3.394 0h.49v-.878h-.49zm3.255 0h.63v-.878h-.63zm-6.649 4.409h.65v-.974h-.65zm3.394 0h.49v-.974h-.49zm3.255 0h.63v-.974h-.63zm-6.649 4.375h.65v-.878h-.65zm3.394 0h.49v-.878h-.49zm3.255 0h.63v-.878h-.63z"/></g><rect fill="#8A9FAD" x="31" y="177" width="196" height="2" rx="1"/><g stroke="#46C8B8" stroke-linecap="square" stroke-linejoin="round" stroke-width="2"><path fill="#FFF" d="M77.8 127.22l12.36 9.998 12.36-9.998.005-11.794H77.8zm24.727 0l12.465 9.998 12.365-9.998.005-11.794h-24.835z"/><path fill="#FFF" d="M127.361 127.22l12.36 9.998 12.475-9.998.005-11.794h-24.84zm24.841 0l12.356 9.998 12.364-9.998.005-11.794h-24.725z"/><path d="M164.556 137.216l-12.355-9.998v-5.88h-.005v5.88l-12.475 9.998-12.36-9.998v-5.88l-.005 5.88-12.365 9.998-12.465-9.998v-5.88h-.005v5.88l-12.365 9.998-8.035-6.514v44.741a2.605 2.605 0 002.62 2.63h85.234a2.62 2.62 0 002.63-2.63v-44.745l-8.049 6.518z"/><path fill="#FFF" d="M176.93 115.426H77.8l14.673-27.624h69.783z"/><path fill="#FFF" d="M152.23 115.426h-49.78l7.411-27.624h35.007z"/><path d="M127.36 87.8v27.624m-5.204 40.727c0-7.147-5.803-12.998-12.927-12.998h-2.53c-7.194 0-12.998 5.85-12.998 12.998v21.922h28.455V156.15zm12.298 6.252h38.15v-16.565h-38.15zm19.026-16.565v16.565"/></g><g stroke="#8A9FAD" stroke-linejoin="round" stroke-width="2"><path stroke-linecap="square" d="M199.9 170.739v6.291m-2.186 0h4.322"/><path stroke-linecap="round" d="M199.9 167.581v-9.045m3.48-3.46l-3.48 3.458-3.482-3.458m-4.041-16.864l1.068-1.066m-.689 5.665l1.065-1.06m2.827-2.841l1.065-1.053m-10.292 8.962l1.063-1.039m-.673 5.642l1.052-1.065m2.84-2.828l1.051-1.065"/><path d="M218.242 143.345l-.598-.593.22-.862c.829-3.103-1.02-6.355-4.142-7.173l-.847-.207-.194-.852c-.87-3.108-4.07-4.997-7.224-4.12l-.81.187-.62-.596c-2.28-2.306-5.986-2.306-8.305 0l-.602.59-.83-.191c-3.113-.867-6.348 1.022-7.174 4.125l-.245.852-.816.207c-3.141.823-4.992 4.08-4.157 7.178l.23.862-.626.593c-2.275 2.301-2.265 6.002 0 8.306l.627.588-.23.866c-.85 3.101 1.022 6.348 4.156 7.176l.816.204.245.862c.823 3.098 4.066 4.982 7.174 4.116l.832-.19.6.586c2.319 2.306 6.03 2.302 8.304 0l.622-.59.809.19c3.15.873 6.355-1.018 7.224-4.12l.197-.854.844-.208c3.118-.824 4.97-4.07 4.148-7.174l-.226-.864.598-.588a5.838 5.838 0 000-8.306z" stroke-linecap="round"/></g><g stroke="#8A9FAD" stroke-linejoin="round" stroke-width="2"><path d="M65.212 161.411c0 4.232-3.429 7.645-7.659 7.645a7.644 7.644 0 01-7.653-7.645c0-4.217 3.429-22.311 7.653-22.311 4.23 0 7.66 18.094 7.66 22.311z" stroke-linecap="round"/><path stroke-linecap="square" d="M57.553 171.428v4.714m-1.619-.001h3.243"/><path stroke-linecap="round" d="M57.553 169.055v-5.011m1.93-1.946l-1.93 1.946-1.924-1.946m-.689-11.471l.781-.778m-.492 4.23l.792-.799m2.129-2.121l.798-.799"/></g><g stroke="#8A9FAD" stroke-linejoin="round"><path d="M164.545 36.255a6.541 6.541 0 010 9.29 6.54 6.54 0 01-9.283 0c-2.568-2.563-2.568-6.732-.002-9.29 2.558-2.558 6.727-2.558 9.285 0z"/><path stroke-linecap="square" d="M159.903 30.5v.906m7.357 2.141l-.635.635m3.681 6.722h-.883m-19.017 0h-.906m3.682-6.721l-.637-.637m7.357 17.761v-.884m-7.356-2.163l.635-.635m-3.681-6.721h.905m19.017 0h.884m-3.682 6.721l.637.637"/></g><path d="M70 184h16a1 1 0 010 2H70a1 1 0 110-2zm26 0h90a1 1 0 110 2H96a1 1 0 010-2z" fill="#8A9FAD"/></g></svg>