<?xml version="1.0" encoding="UTF-8"?>
<svg width="61px" height="57px" viewBox="0 0 61 57" version="1.1" xmlns="http://www.w3.org/2000/svg" xmlns:xlink="http://www.w3.org/1999/xlink">
    <title>icons/grants</title>
    <defs>
        <filter color-interpolation-filters="auto" id="filter-1">
            <feColorMatrix in="SourceGraphic" type="matrix" values="0 0 0 0 0.000000 0 0 0 0 0.243137 0 0 0 0 0.321569 0 0 0 1.000000 0"></feColorMatrix>
        </filter>
    </defs>
    <g id="Symbols" stroke="none" stroke-width="1" fill="none" fill-rule="evenodd">
        <g id="Modal/3" transform="translate(-183.000000, -267.000000)">
            <g id="Group-4-Copy-2" transform="translate(103.000000, 265.000000)" filter="url(#filter-1)">
                <g id="icons/grants" transform="translate(80.842402, 0.000000)" fill="#003E52">
                    <path d="M57.7777778,19.5384615 L57.7777778,23.9230769 L55.5555556,23.9230769 L55.5555556,26.1153846 L53.3333333,26.1153846 L53.3333333,50.2307692 L55.5555556,50.2307692 L55.5555556,52.4230769 L57.7777778,52.4230769 L57.7777778,54.6153846 L60,54.6153846 L60,59 L0,59 L0,54.6153846 L2.22222222,54.6153846 L2.22222222,52.4230769 L4.44444444,52.4230769 L4.44444444,50.2307692 L6.66666667,50.2307692 L6.66666667,26.1153846 L4.44444444,26.1153846 L4.44444444,23.9230769 L2.22222222,23.9230769 L2.22222222,19.5384615 L57.7777778,19.5384615 Z M17.7777778,23.9230769 L15.5555556,23.9230769 L15.5555556,26.1153846 L13.3333333,26.1153846 L13.3333333,50.2307692 L15.5555556,50.2307692 L15.5555556,52.4230769 L17.7777778,52.4230769 L17.7777778,50.2307692 L20,50.2307692 L20,26.1153846 L17.7777778,26.1153846 L17.7777778,23.9230769 Z M31.1111111,23.9230769 L28.8888889,23.9230769 L28.8888889,26.1153846 L26.6666667,26.1153846 L26.6666667,50.2307692 L28.8888889,50.2307692 L28.8888889,52.4230769 L31.1111111,52.4230769 L31.1111111,50.2307692 L33.3333333,50.2307692 L33.3333333,26.1153846 L31.1111111,26.1153846 L31.1111111,23.9230769 Z M44.4444444,23.9230769 L42.2222222,23.9230769 L42.2222222,26.1153846 L40,26.1153846 L40,50.2307692 L42.2222222,50.2307692 L42.2222222,52.4230769 L44.4444444,52.4230769 L44.4444444,50.2307692 L46.6666667,50.2307692 L46.6666667,26.1153846 L44.4444444,26.1153846 L44.4444444,23.9230769 Z M31.1111111,2 L60,15.1538462 L60,17.3461538 L0,17.3461538 L0,15.1538462 L28.8888889,2 L31.1111111,2 Z" id="Banking"></path>
                </g>
            </g>
        </g>
    </g>
</svg>