<?xml version="1.0" encoding="UTF-8"?>
<svg width="60px" height="60px" viewBox="0 0 60 60" version="1.1" xmlns="http://www.w3.org/2000/svg" xmlns:xlink="http://www.w3.org/1999/xlink">
    <title>ECBC4999-43EA-4082-862D-C95F8C958BF3</title>
    <defs>
        <filter id="filter-1">
            <feColorMatrix in="SourceGraphic" type="matrix" values="0 0 0 0 0.541176 0 0 0 0 0.623529 0 0 0 0 0.682353 0 0 0 1.000000 0"></feColorMatrix>
        </filter>
    </defs>
    <g id="SWD-372-Additional-Credit-Passport-steps-" stroke="none" stroke-width="1" fill="none" fill-rule="evenodd">
        <g id="1.F2-Modal" transform="translate(-691.000000, -403.000000)">
            <g id="Modal" transform="translate(283.000000, 138.000000)">
                <g id="Group-4-Copy" transform="translate(103.000000, 265.000000)" filter="url(#filter-1)">
                    <g transform="translate(223.000000, 0.000000)">
                        <g id="icons/grants" transform="translate(82.000000, 0.000000)" fill="#003E52">
                            <path d="M54.6666667,47 C57.5266667,47 59.8796667,49.2256983 59.9955292,51.9865961 L60,52.2 L60,54.8 C60,57.5897675 57.7185,59.8827384 54.8856375,59.9956433 L54.6666667,60 L5.33333333,60 C2.47398333,60 0.120365833,57.7767733 0.00447205208,55.0135892 L0,54.8 L0,52.2 C0,49.4127675 2.28213375,47.1173884 5.11441003,47.0043614 L5.33333333,47 L54.6666667,47 Z M10,50.9 C8.52733333,50.9 7.33266667,52.06545 7.33266667,53.5 C7.33266667,54.93715 8.52733333,56.10065 10,56.10065 C11.4726667,56.10065 12.6673333,54.93715 12.6673333,53.5 C12.6673333,52.06545 11.4726667,50.9 10,50.9 Z M19.9993333,50.9 C18.5273333,50.9 17.3333333,52.06545 17.3333333,53.5 C17.3333333,54.93715 18.5273333,56.10065 19.9993333,56.10065 C21.4733333,56.10065 22.6666667,54.93715 22.6666667,53.5 C22.6666667,52.06545 21.4733333,50.9 19.9993333,50.9 Z M54.6666667,31.3333333 C57.5266667,31.3333333 59.8796667,33.5590316 59.9955292,36.3199295 L60,36.5333333 L60,39.1333333 C60,41.9231008 57.7185,44.2160717 54.8856375,44.3289766 L54.6666667,44.3333333 L5.33333333,44.3333333 C2.47398333,44.3333333 0.120365833,42.1101066 0.00447205208,39.3469226 L0,39.1333333 L0,36.5333333 C0,33.7461008 2.28213375,31.4507217 5.11441003,31.3376948 L5.33333333,31.3333333 L54.6666667,31.3333333 Z M10,35.2333333 C8.52733333,35.2333333 7.33266667,36.3987833 7.33266667,37.8333333 C7.33266667,39.2704833 8.52733333,40.4339833 10,40.4339833 C11.4726667,40.4339833 12.6673333,39.2704833 12.6673333,37.8333333 C12.6673333,36.3987833 11.4726667,35.2333333 10,35.2333333 Z M19.9993333,35.2333333 C18.5273333,35.2333333 17.3333333,36.3987833 17.3333333,37.8333333 C17.3333333,39.2704833 18.5273333,40.4339833 19.9993333,40.4339833 C21.4733333,40.4339833 22.6666667,39.2704833 22.6666667,37.8333333 C22.6666667,36.3987833 21.4733333,35.2333333 19.9993333,35.2333333 Z M54.6666667,15.6666667 C57.5266667,15.6666667 59.8796667,17.892365 59.9955292,20.6532628 L60,20.8666667 L60,23.4666667 C60,26.2564342 57.7185,28.549405 54.8856375,28.66231 L54.6666667,28.6666667 L5.33333333,28.6666667 C2.47398333,28.6666667 0.120365833,26.44344 0.00447205208,23.6802559 L0,23.4666667 L0,20.8666667 C0,18.0794342 2.28213375,15.784055 5.11441003,15.6710281 L5.33333333,15.6666667 L54.6666667,15.6666667 Z M10,19.5666667 C8.52733333,19.5666667 7.33266667,20.7321167 7.33266667,22.1666667 C7.33266667,23.6038167 8.52733333,24.7673167 10,24.7673167 C11.4726667,24.7673167 12.6673333,23.6038167 12.6673333,22.1666667 C12.6673333,20.7321167 11.4726667,19.5666667 10,19.5666667 Z M19.9993333,19.5666667 C18.5273333,19.5666667 17.3333333,20.7321167 17.3333333,22.1666667 C17.3333333,23.6038167 18.5273333,24.7673167 19.9993333,24.7673167 C21.4733333,24.7673167 22.6666667,23.6038167 22.6666667,22.1666667 C22.6666667,20.7321167 21.4733333,19.5666667 19.9993333,19.5666667 Z M54.6666667,0 C57.5266667,0 59.8796667,2.22569831 59.9955292,4.98659612 L60,5.2 L60,7.8 C60,10.5897675 57.7185,12.8827384 54.8856375,12.9956433 L54.6666667,13 L5.33333333,13 C2.47398333,13 0.120365833,10.7767733 0.00447205208,8.01358925 L0,7.8 L0,5.2 C0,2.4127675 2.28213375,0.117388375 5.11441003,0.00436143906 L5.33333333,0 L54.6666667,0 Z M10,3.9 C8.52733333,3.9 7.33266667,5.06545 7.33266667,6.5 C7.33266667,7.93715 8.52733333,9.10065 10,9.10065 C11.4726667,9.10065 12.6673333,7.93715 12.6673333,6.5 C12.6673333,5.06545 11.4726667,3.9 10,3.9 Z M19.9993333,3.9 C18.5273333,3.9 17.3333333,5.06545 17.3333333,6.5 C17.3333333,7.93715 18.5273333,9.10065 19.9993333,9.10065 C21.4733333,9.10065 22.6666667,7.93715 22.6666667,6.5 C22.6666667,5.06545 21.4733333,3.9 19.9993333,3.9 Z" id="Data"></path>
                        </g>
                    </g>
                </g>
            </g>
        </g>
    </g>
</svg>