<?xml version="1.0" encoding="UTF-8"?>
<svg width="60px" height="56px" viewBox="0 0 60 56" version="1.1" xmlns="http://www.w3.org/2000/svg" xmlns:xlink="http://www.w3.org/1999/xlink">
    <title>C12816A8-8C5D-4888-AB37-ED6B4CB0F8AC</title>
    <g id="4a-Loan-funding-journey" stroke="none" stroke-width="1" fill="none" fill-rule="evenodd">
        <g id="4c1-Loan-Matches-Locked" transform="translate(-512.000000, -489.000000)" fill="#8A9FAE">
            <g id="Group-2" transform="translate(303.000000, 232.000000)">
                <g id="Timeline" transform="translate(90.000000, 255.000000)">
                    <g id="icons/grants" transform="translate(119.000000, 2.000000)">
                        <path d="M10.6022926,31.2978679 C11.1223439,31.2978679 11.5167257,31.584495 11.6473127,32.0487484 L11.680882,32.2099288 L11.6922479,32.3817015 L11.691257,34.4495053 L14.6123956,34.4508383 C18.1821859,34.4508383 21.7867583,35.4507304 24.8930944,37.2685065 L25.4359908,37.5977436 L25.9678923,37.9437387 L26.3629299,38.2529497 L34.9426851,38.2529497 C37.5636682,38.2529497 39.58484,40.4759324 39.2954624,43.0655703 C39.2253613,43.6232297 39.0547562,44.1712488 38.7898891,44.680809 L38.6197074,44.9816996 L38.5800466,45.0407038 L41.0503368,45.2152953 L53.4513028,41.3212162 C53.879083,41.1794237 54.3167734,41.0979954 54.7583432,41.076388 L55.0901538,41.0713903 L55.3540127,41.083634 C57.9314528,41.2739531 60,43.4352192 60,46.1063962 C60,46.4440523 59.8084653,46.7772567 59.510941,46.9684913 L59.3771908,47.0413561 L34.6249097,55.6190985 C33.9163716,55.883308 33.0949136,56 32.1449388,56 C31.6980301,56 31.2783965,55.967428 30.8438071,55.8987765 L30.4026682,55.8179686 L29.9550587,55.7152801 L11.691257,50.3018754 L11.6922479,51.6704616 C11.6922479,52.1301331 11.464498,52.4910679 11.0859852,52.6568009 L10.9371263,52.7096123 L10.7750355,52.7429931 L10.6022926,52.7542952 L1.08995531,52.7542952 C0.569904012,52.7542952 0.175522164,52.4676681 0.0449352503,52.0034147 L0.0113659343,51.8422343 L0,51.6704616 L0,32.3817015 C0,31.8645711 0.288246011,31.4724043 0.755121621,31.3425508 L0.91721237,31.30917 L1.08995531,31.2978679 L10.6022926,31.2978679 Z M14.5191374,36.7111819 L11.5984068,36.7111819 L11.5984068,48.1208197 L30.5044597,53.7442708 C30.8733947,53.8359865 31.2488534,53.8958096 31.6220435,53.9222742 L31.9941517,53.9375652 L32.3777481,53.9299801 C32.6335975,53.9169076 32.8861773,53.8876669 33.1322898,53.8426251 L33.4962083,53.7632575 L33.8656859,53.6553635 L57.6001749,45.5403105 L57.576315,45.4492767 C57.2487411,44.4063433 56.3308894,43.6271329 55.2453727,43.4617709 L55.0103497,43.4358595 L54.7979729,43.4287507 L54.5769756,43.4380857 L54.359445,43.4636667 L54.1468521,43.5047806 L53.9218634,43.5662061 L41.2842432,47.5611675 L40.899585,47.5607399 L25.7725172,46.4453155 C25.2358611,46.3385871 24.8066835,45.8133352 24.8097396,45.2410963 C24.8936788,44.8237576 25.2371402,44.4669159 25.659608,44.3337589 L25.8213843,44.294629 L26.0017089,44.2811286 L34.6741228,44.9302259 L34.7804968,44.9354625 L34.8809716,44.9360674 L35.0972033,44.9222184 C36.1445604,44.8063496 36.9484141,43.993265 37.0248893,42.9327436 C37.1779094,41.7915387 36.3788192,40.756831 35.2630123,40.5508526 L35.0502422,40.5221197 L34.8494269,40.5133513 L25.8787237,40.512334 L25.7231213,40.4937976 C25.5891886,40.4646644 25.4886325,40.4216994 25.2420585,40.2961295 C22.3275421,38.1005635 18.7572367,36.84121 15.0976296,36.7207636 L14.5191374,36.7111819 Z M32.5772013,0 C36.586432,0 40.3662875,1.56202636 43.3180778,4.40255367 C46.2246861,7.19960205 47.8424044,11.0355714 47.8424044,15.0867315 C47.8424044,19.0949148 46.2554764,22.9413263 43.413175,25.8618449 C40.7920972,28.4682014 37.3253913,30.0680506 33.693343,30.3230163 L33.1734277,30.3502546 L32.5772013,30.3589319 C24.2051597,30.3589319 17.4063955,23.6272443 17.3120082,15.2739586 C17.2215075,7.26463528 23.5862072,0.570437743 31.6200723,0.0336145401 L32.0520274,0.0107740725 L32.5772013,0 Z M33.4071887,7.82446698 C32.7021566,7.82446698 32.033845,7.93766094 31.4022537,8.16404885 C30.7706625,8.39043676 30.2253643,8.7245415 29.766359,9.16636307 C29.3073538,9.60818464 28.973198,10.1449431 28.7638916,10.7766384 C28.614387,11.2278493 28.5538733,11.7284289 28.5823503,12.2783771 L28.6101155,12.6142703 L28.9236254,14.8570979 L26.9958034,14.8570979 L26.9958034,16.4126019 L29.2320769,16.4126019 L29.2816495,16.7673007 L29.3609656,17.396513 L29.413843,17.9188118 C29.4468914,18.3095136 29.4634156,18.6874353 29.4634156,19.0525771 C29.4634156,19.9654316 29.2816495,20.6245125 28.9181173,21.0298199 C28.6584515,21.3193252 28.3491382,21.5054357 27.9901774,21.5881515 L27.7688432,21.6253736 L27.5355935,21.637781 L26.7534486,21.637781 L26.7534486,23.883403 L34.574898,23.883403 L34.9779386,23.872584 C36.030772,23.8148826 36.9080727,23.5263755 37.6098407,23.0070627 C38.2238877,22.552664 38.7035425,21.9237637 39.0488051,21.1203616 L39.1885467,20.7653626 L39.3118321,20.3889961 L37.0314941,19.8631919 L36.9229065,20.1269882 C36.6962891,20.631331 36.4130173,20.9961747 36.0730911,21.2215194 C35.7898193,21.4093066 35.4222404,21.5300269 34.9703544,21.5836804 L34.689106,21.6078245 L34.3876239,21.6158725 L31.0277055,21.6158725 L31.2168156,21.4296502 C31.341665,21.2981991 31.4640664,21.1521424 31.5840198,20.99148 C31.7639499,20.7504864 31.9181756,20.4547216 32.0466971,20.1041855 C32.1752186,19.7536493 32.2615116,19.3191306 32.3055761,18.8006293 C32.3643287,18.4281846 32.388197,18.0612171 32.3771809,17.6997268 C32.3716728,17.5189816 32.3601977,17.3204357 32.3427555,17.1040892 L32.3121169,16.766219 L32.2725277,16.4016477 L35.4341558,16.4016477 L35.4341558,14.8461437 L32.0632213,14.8461437 L31.9402079,14.3239909 C31.864319,13.9831919 31.8006703,13.6569986 31.7492617,13.3454109 C31.6721488,12.8780294 31.6335924,12.4690706 31.6335924,12.1185345 C31.6335924,11.6657586 31.7272295,11.2823598 31.9145036,10.9683378 C32.1017777,10.6543159 32.3588207,10.415148 32.6856324,10.2508342 C33.0124441,10.0865204 33.3814844,10.0043635 33.7927531,10.0043635 C34.3288712,10.0043635 34.7566641,10.1230346 35.0761317,10.3603767 C35.2891102,10.5186048 35.4833204,10.7360671 35.6587624,11.0127634 L35.7868248,11.2313921 L35.9078492,11.4722335 L38.2653002,10.71639 L38.1018209,10.3750554 C37.8656351,9.93221147 37.5565961,9.53844256 37.1747037,9.19374871 C36.6973383,8.76288139 36.1391879,8.42695094 35.5002526,8.18595736 C34.8613173,7.94496378 34.1636293,7.82446698 33.4071887,7.82446698 Z" id="Shape"></path>
                    </g>
                </g>
            </g>
        </g>
    </g>
</svg>