<?xml version="1.0" encoding="UTF-8"?>
<svg width="66px" height="66px" viewBox="0 0 66 66" version="1.1" xmlns="http://www.w3.org/2000/svg" xmlns:xlink="http://www.w3.org/1999/xlink">
    <title>SME / UI / Icons / Loans</title>
    <g id="SME-/-UI-/-Icons-/-Loans" stroke="none" stroke-width="1" fill="none" fill-rule="evenodd">
        <circle id="Oval" fill="#FFEFE8" cx="33" cy="33" r="33"></circle>
        <path d="M20.637037,35.0777778 C20.9674943,35.0777778 21.2180972,35.2609385 21.3010763,35.5576063 L21.3224074,35.660604 L21.3296296,35.7703704 L21.329,37.0917407 L23.1851852,37.0925926 C25.4535446,37.0925926 27.7440056,37.7315448 29.7178712,38.8931422 L30.062845,39.1035316 L30.4008323,39.3246298 L30.6518519,39.5222222 L36.1037037,39.5222222 C37.7691605,39.5222222 39.053478,40.9427552 38.8695982,42.5975887 C38.8250536,42.9539448 38.7166457,43.3041406 38.5483407,43.6297604 L38.4402017,43.8220358 L38.415,43.8597407 L39.9847017,43.9713084 L47.8646735,41.4829094 C48.1364988,41.392301 48.4146213,41.3402667 48.695209,41.326459 L48.906052,41.3232654 L49.0737165,41.3310894 C50.7115047,41.4527073 52.0259259,42.8338021 52.0259259,44.5407407 C52.0259259,44.7565102 51.9042187,44.9694348 51.7151621,45.0916378 L51.630173,45.1381999 L35.901779,50.6195588 C35.4515512,50.7883943 34.9295704,50.862963 34.3259259,50.862963 C34.0419458,50.862963 33.7752972,50.8421487 33.4991451,50.798279 L33.2188313,50.7466411 L32.9344058,50.6810209 L21.329,47.2217407 L21.3296296,48.0962963 C21.3296296,48.3900361 21.18491,48.6206811 20.9443909,48.726588 L20.8498011,48.7603356 L20.7468034,48.7816666 L20.637037,48.7888889 L14.5925926,48.7888889 C14.2621353,48.7888889 14.0115324,48.6057281 13.9285533,48.3090604 L13.9072223,48.2060627 L13.9,48.0962963 L13.9,35.7703704 C13.9,35.4399131 14.0831608,35.1893102 14.3798285,35.1063311 L14.4828262,35.0850001 L14.5925926,35.0777778 L20.637037,35.0777778 Z M23.1259259,38.537 L21.27,38.537 L21.27,45.828 L33.2835128,49.4215043 C33.517946,49.4801126 33.7565245,49.5183407 33.9936615,49.5352522 L34.2301109,49.5450235 L34.4738605,49.5401765 C34.6364354,49.5318228 34.7969327,49.5131374 34.9533204,49.4843547 L35.184566,49.4336372 L35.4193439,49.3646906 L50.501,44.179 L50.4858387,44.1208275 C50.2776877,43.454371 49.6944553,42.956439 49.0046832,42.8507692 L48.855342,42.8342113 L48.7203909,42.8296686 L48.5799622,42.8356338 L48.4417362,42.8519806 L48.3066479,42.8782533 L48.1636828,42.9175055 L40.1333333,45.4703704 L39.8889091,45.4700971 L30.2766847,44.7573173 C29.9356762,44.6891156 29.662963,44.3534686 29.6649049,43.9877958 C29.7182425,43.7211075 29.9364889,43.4930781 30.2049386,43.407988 L30.3077364,43.3829831 L30.4223205,43.3743561 L35.9330506,43.789143 L36.0006441,43.7924893 L36.064489,43.7928759 L36.2018895,43.7840261 C36.8674139,43.7099835 37.3782083,43.1904052 37.4268031,42.5127096 C37.524037,41.7834555 37.0162694,41.1222554 36.3072499,40.9906308 L36.1720489,40.9722699 L36.0444444,40.9666667 L30.3441717,40.9660166 L30.245297,40.9541715 C30.1601918,40.9355547 30.0962953,40.9080992 29.9396142,40.8278574 C28.0876369,39.4248442 25.8189503,38.6200907 23.4935185,38.5431229 L23.1259259,38.537 Z M34.6005994,15.0777778 C37.1481933,15.0777778 39.5500348,16.0759457 41.4256971,17.8911027 C43.2726493,19.6784759 44.3005994,22.1297415 44.3005994,24.7185185 C44.3005994,27.2798324 43.2922145,29.7377708 41.4861249,31.604044 C39.8206079,33.269561 37.6177517,34.2918985 35.3098317,34.454827 L34.9794608,34.4722328 L34.6005994,34.4777778 C29.2807355,34.4777778 24.9605824,30.1760869 24.9006057,24.8381606 C24.8430987,19.7200335 28.8874331,15.4422996 33.9924089,15.0992582 L34.2668871,15.0846626 L34.6005994,15.0777778 Z M35.128,20.0777778 C34.68,20.0777778 34.2553333,20.1501111 33.854,20.2947778 C33.4526667,20.4394444 33.1061667,20.6529444 32.8145,20.9352778 C32.5228333,21.2176111 32.3105,21.5606111 32.1775,21.9642778 C32.0825,22.2526111 32.0440476,22.5724921 32.0621429,22.9239206 L32.0797857,23.1385635 L32.279,24.5717778 L31.054,24.5717778 L31.054,25.5657778 L32.475,25.5657778 L32.5065,25.7924378 L32.5569,26.1945178 L32.5905,26.5282778 C32.6115,26.7779444 32.622,27.0194444 32.622,27.2527778 C32.622,27.8361111 32.5065,28.2572778 32.2755,28.5162778 C32.1105,28.7012778 31.9139524,28.8202063 31.6858571,28.8730635 L31.5452143,28.8968492 L31.397,28.9047778 L30.9,28.9047778 L30.9,30.3397778 L35.87,30.3397778 L36.1261049,30.3328642 C36.7951091,30.2959918 37.3525741,30.1116296 37.7985,29.7797778 C38.1886852,29.4894074 38.4934733,29.0875267 38.7128642,28.5741358 L38.8016605,28.347284 L38.88,28.1067778 L37.431,27.7707778 L37.362,27.9393492 C37.218,28.2616349 37.038,28.4947778 36.822,28.6387778 C36.642,28.7587778 36.4084286,28.8359206 36.1212857,28.8702063 L35.9425714,28.8856349 L35.751,28.8907778 L33.616,28.8907778 L33.7361667,28.7717778 C33.8155,28.6877778 33.8932778,28.5944444 33.9695,28.4917778 C34.0838333,28.3377778 34.1818333,28.1487778 34.2635,27.9247778 C34.3451667,27.7007778 34.4,27.4231111 34.428,27.0917778 C34.4653333,26.8537778 34.4805,26.6192778 34.4735,26.3882778 C34.47,26.2727778 34.4627083,26.1459028 34.451625,26.0076528 L34.4321563,25.7917465 L34.407,25.5587778 L36.416,25.5587778 L36.416,24.5647778 L34.274,24.5647778 L34.1958333,24.2311111 C34.1476111,24.0133333 34.1071667,23.8048889 34.0745,23.6057778 C34.0255,23.3071111 34.001,23.0457778 34.001,22.8217778 C34.001,22.5324444 34.0605,22.2874444 34.1795,22.0867778 C34.2985,21.8861111 34.4618333,21.7332778 34.6695,21.6282778 C34.8771667,21.5232778 35.1116667,21.4707778 35.373,21.4707778 C35.7136667,21.4707778 35.9855,21.5466111 36.1885,21.6982778 C36.3238333,21.7993889 36.4472407,21.9383519 36.5587222,22.1151667 L36.6400972,22.254875 L36.717,22.4087778 L38.215,21.9257778 L38.11112,21.7076578 C37.96104,21.4246711 37.7646667,21.1730444 37.522,20.9527778 C37.2186667,20.6774444 36.864,20.4627778 36.458,20.3087778 C36.052,20.1547778 35.6086667,20.0777778 35.128,20.0777778 Z" id="Shape" fill="#F8783D" fill-rule="nonzero"></path>
    </g>
</svg>