<?xml version="1.0" encoding="UTF-8"?>
<svg width="60px" height="60px" viewBox="0 0 60 60" version="1.1" xmlns="http://www.w3.org/2000/svg" xmlns:xlink="http://www.w3.org/1999/xlink">
    <title>3-Icons/Matches</title>
    <g id="Master-library" stroke="none" stroke-width="1" fill="none" fill-rule="evenodd">
        <g id="6.-Icons" transform="translate(-867.000000, -580.000000)" fill="#DCE2E6">
            <g id="3-Icons/Matches" transform="translate(867.000000, 580.000000)">
                <path d="M12.1098061,31.9995345 C13.104483,40.9996596 20.734733,48 30,48 C39.265267,48 46.895517,40.9996596 47.8901939,31.9995345 L59.9344161,31.9995345 C58.9054308,47.6358621 45.8966149,60 30,60 C14.1033851,60 1.09456924,47.6358621 0.0655839486,31.9995345 L12.1098061,31.9995345 Z M42.1728,21.3533333 L32.3064,30.8031529 L31.464,31.6010093 C30.1812,32.3850371 28.5048,31.9791945 27.7098,30.6853082 C26.9447091,29.439376 27.2967091,27.8287858 28.488425,27.017976 L28.6026,26.9443413 L29.3544,26.6328946 L42.1728,21.3533333 Z M14.286,4.44743367 L20.448,15.1460459 C15.4482,18.2665246 12.0768,23.7637378 11.9148,30.0624149 L0,30.0624149 C0,19.2303256 5.7144,9.74382993 14.286,4.44743367 Z M45.6858,4.43781369 C54.276,9.72458999 60,19.2207056 60,30.0624149 L48.0858,30.0624149 C47.9238,23.7541178 44.5428,18.2376647 39.5238,15.126806 L45.6858,4.43781369 Z M30,6.21724894e-15 C35.0664,6.21724894e-15 39.8478,1.25961519 44.0286,3.48363264 L37.857,14.2105035 C35.4762,13.0555056 32.8188,12.4067586 30,12.4067586 C27.1716,12.4067586 24.495,13.0555056 22.1142,14.2201235 L15.9426,3.50227134 C20.1336,1.26923516 24.9144,6.21724894e-15 30,6.21724894e-15 Z" id="Matches"></path>
            </g>
        </g>
    </g>
</svg>