<?xml version="1.0" encoding="UTF-8"?>
<svg width="60px" height="60px" viewBox="0 0 60 60" version="1.1" xmlns="http://www.w3.org/2000/svg" xmlns:xlink="http://www.w3.org/1999/xlink">
    <title>9DA34224-7680-4914-9FB2-09BB78B701CD</title>
    <g id="7-Commercial-Mortgage" stroke="none" stroke-width="1" fill="none" fill-rule="evenodd">
        <g id="7d-Matches-Commercial-Mortgage-Locked" transform="translate(-511.000000, -414.000000)" fill="#003E52">
            <g id="Group-2" transform="translate(302.000000, 159.000000)">
                <g id="Timeline" transform="translate(90.000000, 255.000000)">
                    <g id="icons/grants" transform="translate(119.000000, 0.000000)">
                        <path d="M53.8356164,56.6996354 L53.8356164,23.6959894 C53.8356164,23.240336 54.203232,22.8708982 54.6575342,22.8708982 L58.4789705,22.8708982 L30,0 L1.52102951,22.8708982 L5.34246575,22.8708982 C5.796768,22.8708982 6.16438356,23.240336 6.16438356,23.6959894 L6.16438356,56.6996354 C6.16438356,57.1552888 5.796768,57.5247265 5.34246575,57.5247265 L0,57.5247265 L0,60 L30,60 L60,60 L60,57.5247265 L54.6575342,57.5247265 C54.203232,57.5247265 53.8356164,57.1552888 53.8356164,56.6996354 Z M31.35,23.7325811 C32.1336957,23.7325811 32.8565217,23.8586092 33.5184783,24.1106656 C34.1804348,24.362722 34.7586957,24.7140733 35.2532609,25.1647196 C35.648913,25.5252366 35.969087,25.9370814 36.2137826,26.4002541 L36.3831522,26.7572576 L33.9407609,27.5477981 L33.8153759,27.2959008 C33.6003246,26.8954324 33.3548913,26.591766 33.0790761,26.3849016 C32.7480978,26.1366642 32.3048913,26.0125456 31.7494565,26.0125456 C31.3233696,26.0125456 30.9410326,26.0984739 30.6024457,26.2703305 C30.2638587,26.4421871 29.9975543,26.692334 29.8035326,27.0207711 C29.6095109,27.3492082 29.5125,27.750207 29.5125,28.2237674 C29.5125,28.5903949 29.5524457,29.0181269 29.632337,29.5069635 C29.6855978,29.8328546 29.7515399,30.1740218 29.830163,30.5304652 L29.9576087,31.0765873 L33.45,31.0765873 L33.45,32.7034967 L30.1744565,32.7034967 L30.2154721,33.0848036 C30.2518512,33.4521471 30.2743207,33.7776006 30.2828804,34.061164 C30.2942935,34.4392486 30.2695652,34.8230617 30.2086957,35.2126034 C30.1630435,35.7549065 30.0736413,36.2093718 29.9404891,36.5759992 C29.807337,36.9426267 29.6475543,37.2519686 29.4611413,37.504025 C29.3368659,37.6720626 29.2100543,37.824824 29.0807065,37.9623093 L28.8847826,38.1570802 L32.3657609,38.1570802 L32.6781056,38.1486627 C33.2818323,38.1149928 33.7597826,37.9803133 34.1119565,37.7446243 C34.4641304,37.5089352 34.7576087,37.1273433 34.9923913,36.5998487 L35.1048913,36.3239429 L37.4673913,36.873884 L37.3396638,37.2675276 C36.9763251,38.287446 36.4311292,39.0689811 35.7040761,39.6121329 C34.9770229,40.1552847 34.0681126,40.4570357 32.977345,40.5173859 L32.5597826,40.5287015 L24.4565217,40.5287015 L24.4565217,38.1799944 L25.2668478,38.1799944 L25.5085016,38.1670174 C25.9794643,38.1151097 26.3763587,37.9074789 26.6991848,37.5441249 C27.0758152,37.1202119 27.2641304,36.4308759 27.2641304,35.4761169 C27.2641304,35.0942133 27.2470109,34.698943 27.2127717,34.2903062 L27.1579891,33.7440313 L27.0758152,33.085935 L27.0244565,32.7149538 L24.7076087,32.7149538 L24.7076087,31.0880445 L26.7048913,31.0880445 L26.3800854,28.74226 C26.300427,28.027243 26.3535326,27.3865802 26.5394022,26.8202717 C26.75625,26.1595785 27.1024457,25.5981802 27.5779891,25.1360768 C28.0535326,24.6739734 28.6184783,24.3245316 29.2728261,24.0877514 C29.9271739,23.8509712 30.6195652,23.7325811 31.35,23.7325811 Z" id="Shape"></path>
                    </g>
                </g>
            </g>
        </g>
    </g>
</svg>