<?xml version="1.0" encoding="UTF-8"?>
<svg width="60px" height="60px" viewBox="0 0 60 60" version="1.1" xmlns="http://www.w3.org/2000/svg" xmlns:xlink="http://www.w3.org/1999/xlink">
    <title>C59FB2C3-744E-451B-AB32-4ED74C27C1E2</title>
    <g id="5-Equity-Funding" stroke="none" stroke-width="1" fill="none" fill-rule="evenodd" opacity="0.302507267">
        <g id="5d-Matches-Equity-Locked" transform="translate(-810.000000, -414.000000)" fill="#8A9FAE">
            <g id="Group-2" transform="translate(302.000000, 159.000000)">
                <g id="Timeline" transform="translate(90.000000, 255.000000)">
                    <g id="Group-4-Copy-4" transform="translate(299.000000, 0.000000)">
                        <g id="tiles/utils/icons/loans" transform="translate(119.000000, 0.000000)">
                            <path d="M30,60 C38.2629115,60 45.3286378,57.0657284 51.1971831,51.1971831 C57.0657284,45.3286378 60,38.2629115 60,30 C60,21.7370885 57.0657284,14.6713622 51.1971831,8.8028169 C45.3286378,2.93427158 38.2629115,0 30,0 C21.7370885,0 14.6713622,2.93427158 8.8028169,8.8028169 C2.93427158,14.6713622 0,21.7370885 0,30 C0,38.2629115 2.93427158,45.3286378 8.8028169,51.1971831 C14.6713622,57.0657284 21.7370885,60 30,60 Z M32.9577465,39.0140845 L27.0422535,39.0140845 L27.0422535,37.4647887 C27.0422535,34.3661972 28.2159617,31.5492958 30.5633803,29.0140845 L34.2253521,25.2112676 C35.4460101,23.9906096 36.056338,22.5821589 36.056338,20.9859155 C36.056338,19.3896721 35.4460101,17.9812214 34.2253521,16.7605634 C33.0046941,15.5399054 31.5962434,14.9295775 30,14.9295775 C28.4037566,14.9295775 26.9953059,15.5399054 25.7746479,16.7605634 C24.5539899,17.9812214 23.943662,19.3896721 23.943662,20.9859155 L18.028169,20.9859155 C18.028169,17.6995312 19.2018772,14.8826298 21.5492958,12.5352113 C23.8967143,10.1877927 26.7136157,9.01408451 30,9.01408451 C33.2863843,9.01408451 36.1032857,10.1877927 38.4507042,12.5352113 C40.7981228,14.8826298 41.971831,17.6995312 41.971831,20.9859155 C41.971831,23.6150242 41.0328631,25.8685453 39.1549296,27.7464789 L36.4788732,30.5633803 C34.1314547,33.0985915 32.9577465,35.915493 32.9577465,39.0140845 Z M32.9577465,50.9859155 L27.0422535,50.9859155 L27.0422535,45.0704225 L32.9577465,45.0704225 L32.9577465,50.9859155 Z" id="Question"></path>
                        </g>
                    </g>
                </g>
            </g>
        </g>
    </g>
</svg>