<?xml version="1.0" encoding="UTF-8"?>
<svg width="60px" height="60px" viewBox="0 0 60 60" version="1.1" xmlns="http://www.w3.org/2000/svg" xmlns:xlink="http://www.w3.org/1999/xlink">
    <title>5AC5ADD1-0F13-460D-92FA-824C1456D683</title>
    <g id="5-Equity-Funding" stroke="none" stroke-width="1" fill="none" fill-rule="evenodd" opacity="0.302507267">
        <g id="5d-Matches-Equity-Locked" transform="translate(-1109.000000, -414.000000)">
            <g id="Group-2" transform="translate(302.000000, 159.000000)">
                <g id="Timeline" transform="translate(90.000000, 255.000000)">
                    <g id="Group-4-Copy-5" transform="translate(598.000000, 0.000000)">
                        <g id="Fav-PW" transform="translate(119.000000, 0.000000)">
                            <circle id="Oval" fill="#8A9FAE" cx="30" cy="30" r="30"></circle>
                            <path d="M30.9195682,12.5 C35.1800139,12.5 38.7921309,14.4314759 41.1869777,18.2810147 L36.3708217,20.7758377 C35.5240251,19.407709 34.716922,18.5224492 33.9495125,18.1066453 C33.1556407,17.6371894 32.1236072,17.3957549 30.8534123,17.3957549 C29.3053621,17.3957549 28.0087047,17.7981457 26.9899025,18.6163404 C25.9711003,19.434535 25.4550836,20.427099 25.4550836,21.6342715 C25.4550836,23.3108998 26.8046657,24.6522026 29.4905989,25.6850056 L33.1821031,27.0799605 C36.185585,28.2066547 38.3819638,29.5747835 39.7844708,31.2111728 C41.1869777,32.8475621 41.875,34.8192771 41.875,37.1799699 C41.875,40.3320312 40.7415274,42.9431005 38.4745822,45.0131777 C36.185585,47.0921969 33.3541086,48.125 29.9536908,48.125 C26.7385097,48.125 24.0834494,47.2442112 21.9885097,45.4826337 C19.9244429,43.7121141 18.6366063,41.2262331 18.125,38.0249906 L23.7879526,36.8714703 C24.0393454,38.8834243 24.4892061,40.2783791 25.1375348,41.0563347 C26.288649,42.5451807 27.9690111,43.2828972 30.1786212,43.2828972 C31.9251393,43.2828972 33.3673398,42.7463761 34.518454,41.6599209 C35.6695682,40.5734657 36.2517409,39.205337 36.2517409,37.5421216 C36.2563149,36.9163277 36.1533369,36.2945079 35.9474234,35.7045369 C35.7393453,35.1357672 35.4197823,34.6156149 35.0080084,34.1754518 C34.5252897,33.660733 33.9728801,33.2181514 33.3673398,32.8609752 C32.5990489,32.4116758 31.7985083,32.0215976 30.972493,31.6940418 L27.4000696,30.3125 C22.3325209,28.327372 19.7965413,25.4212161 19.7921309,21.5940324 C19.7921309,19.0187312 20.8550371,16.8637048 22.9808496,15.1289533 C25.1110724,13.3852598 27.757312,12.5 30.9195682,12.5 Z" id="Path" fill="#FFFFFF" fill-rule="nonzero"></path>
                        </g>
                    </g>
                </g>
            </g>
        </g>
    </g>
</svg>