<svg width="162" height="162" xmlns="http://www.w3.org/2000/svg"><g fill="#000" fill-rule="nonzero"><path d="M124.981 51.116l1.526 1.526h4.76L138 45.908v-4.76L120.852 24h-4.76l-6.734 6.733v4.76l1.526 1.526-1.859 1.859C98.467 49.434 84.438 55.245 69.51 55.245c-8.582 0-16.649 3.341-22.715 9.41a32.855 32.855 0 0 0-3.502 4.146L1.786 127.406A9.654 9.654 0 0 0 0 133.018c0 2.593 1.01 5.03 2.845 6.868l19.27 19.269A9.769 9.769 0 0 0 28.981 162c2.027 0 3.966-.62 5.615-1.789l58.602-41.509a32.297 32.297 0 0 0 4.149-3.5c6.066-6.067 9.407-14.133 9.407-22.712 0-14.928 5.811-28.962 16.367-39.515l1.86-1.86zm-10.415-18.227l3.682-3.681h.447l14.097 14.097v.447l-3.681 3.682h-.448l-14.097-14.097v-.448zm-41.66 27.465v28.74h28.74c-.06 1.128-.099 2.258-.099 3.396 0 .61-.05 1.21-.089 1.812h-33.76v-33.76c.601-.04 1.203-.09 1.812-.09 1.138 0 2.268-.039 3.396-.098zM36.413 87.529l38.06 38.06-23.123 16.38-31.317-31.316 16.38-23.124zm-4.83 68.436c-1.729 1.223-4.285 1.01-5.787-.492l-19.269-19.27a4.479 4.479 0 0 1-1.32-3.185c0-.939.287-1.839.828-2.604l10.944-15.451 30.055 30.055-15.45 10.947zm62.083-44.442a26.79 26.79 0 0 1-3.476 2.929l-11.408 8.08-39.316-39.314 8.078-11.405a27.287 27.287 0 0 1 2.936-3.476A26.77 26.77 0 0 1 62.49 61.4v38.11h38.11a26.759 26.759 0 0 1-6.934 12.013zm8.488-27.636h-24.04v-24.04c13.052-1.829 25.108-7.802 34.593-17.287l1.859-1.86 6.733 6.734-1.859 1.859c-9.485 9.483-15.458 21.538-17.286 34.594z"/><path d="M37 103.756L40.755 100 62 121.245 58.245 125zM30 111.756L33.755 108 55 129.245 51.245 133zM135.097 28.41a8.756 8.756 0 0 0 6.236 2.59c2.354 0 4.57-.92 6.237-2.59l11.847-11.877A8.798 8.798 0 0 0 162 10.277a8.787 8.787 0 0 0-2.583-6.254l-1.514-1.518c-3.335-3.339-9.138-3.341-12.473 0l-11.847 11.877A8.798 8.798 0 0 0 131 20.638c0 2.366.917 4.585 2.583 6.254l1.514 1.518zm2.14-10.362L149.082 6.17a3.62 3.62 0 0 1 2.584-1.075c.976 0 1.89.38 2.583 1.072l1.514 1.518a3.633 3.633 0 0 1 1.07 2.59c0 .98-.378 1.9-1.07 2.591l-11.847 11.877c-1.383 1.386-3.785 1.386-5.167 0l-1.514-1.515a3.633 3.633 0 0 1-1.07-2.59c0-.98.378-1.9 1.07-2.591zM144 39h5v5h-5zM120 8h5v5h-5zM142.725 48l-3.042 12.4a37.186 37.186 0 0 1-2.758 7.597 9.258 9.258 0 0 0-.925 4.017c0 4.953 3.953 8.986 8.812 8.986h.376c4.86 0 8.812-4.033 8.812-8.986 0-3.176-.846-6.294-2.448-9.01L142.725 48zm2.463 27.756h-.376c-2.023 0-3.67-1.679-3.67-3.742 0-.577.134-1.157.386-1.673a42.933 42.933 0 0 0 3.146-8.67l.03-.115 2.438 4.149a12.403 12.403 0 0 1 1.715 6.31c0 2.062-1.646 3.74-3.669 3.74zM86.985 26c3.174 0 6.289-.846 9.012-2.448L111 14.725l-12.4-3.04a37.602 37.602 0 0 1-7.593-2.755A9.204 9.204 0 0 0 86.985 8C82.03 8 78 11.955 78 16.812v.376C78 22.045 82.03 26 86.985 26zm-3.741-9.188c0-2.023 1.678-3.67 3.74-3.67.58 0 1.158.134 1.677.389a42.928 42.928 0 0 0 8.668 3.145l.116.028-4.146 2.44a12.483 12.483 0 0 1-6.314 1.713c-2.063 0-3.741-1.646-3.741-3.669v-.376zM123 71h5v5h-5zM86 37h5v5h-5zM65 0h5v5h-5zM157 91h5v5h-5zM128 82l-6.072 8.928A11.038 11.038 0 0 0 120 97.162c0 4.32 3.59 7.838 8 7.838s8-3.517 8-7.838c0-2.226-.667-4.38-1.928-6.237L128 82zm0 17.775c-1.471 0-2.667-1.174-2.667-2.613 0-1.192.357-2.344 1.033-3.336L128 91.422l1.634 2.401a5.917 5.917 0 0 1 1.033 3.339c0 1.439-1.196 2.613-2.667 2.613zM44.838 29c2.226 0 4.38-.667 6.237-1.928L60 21l-8.925-6.072A11.052 11.052 0 0 0 44.838 13C40.518 13 37 16.59 37 21s3.517 8 7.838 8zm0-10.667c1.192 0 2.344.357 3.336 1.033L50.578 21l-2.404 1.634a5.903 5.903 0 0 1-3.336 1.033c-1.442 0-2.613-1.198-2.613-2.667 0-1.469 1.171-2.667 2.613-2.667zM68 50c4.41 0 8-3.59 8-8s-3.59-8-8-8-8 3.59-8 8 3.59 8 8 8zm0-10.667A2.67 2.67 0 0 1 70.667 42 2.67 2.67 0 0 1 68 44.667 2.67 2.67 0 0 1 65.333 42 2.67 2.67 0 0 1 68 39.333z"/></g></svg>