<svg xmlns="http://www.w3.org/2000/svg" viewBox="0 0 982 356.5"><defs><style>.a{fill:#fff;}.b{fill:#96d3e1;}.c{fill:#082330;}</style></defs><path class="a" d="M184.3,364.8l-36.4,18.6c-6.4-10.2-12.5-16.8-18.3-19.9-6-3.5-13.8-5.3-23.4-5.3-11.7,0-21.5,3-29.2,9.1s-11.6,13.5-11.6,22.5c0,12.5,10.2,22.5,30.5,30.2l27.9,10.4c22.7,8.4,39.3,18.6,49.9,30.8s15.8,26.9,15.8,44.5q0,35.25-25.7,58.4c-17.3,15.5-38.7,23.2-64.4,23.2q-36.45,0-60.2-19.7Q15.8,547.8,10,512l42.8-8.6q2.85,22.5,10.2,31.2c8.7,11.1,21.4,16.6,38.1,16.6,13.2,0,24.1-4,32.8-12.1S147,520.8,147,508.4a40.18,40.18,0,0,0-2.3-13.7,33.49,33.49,0,0,0-7.1-11.4,55.9,55.9,0,0,0-12.4-9.8,133.68,133.68,0,0,0-18.1-8.7l-27-10.3q-57.45-22.2-57.5-65,0-28.8,24.1-48.2c16.1-13,36.1-19.6,60-19.6C138.9,321.7,166.2,336.1,184.3,364.8Z" transform="translate(-10 -321.7)"/><path class="a" d="M195.5,387.6L250,506.4l49.9-116.9,50.2,116.9,51.3-113.2L480,321.7l-38.6,83.9L349,595.4,299.9,481.7,250.2,595.4,157.9,405.6Z" transform="translate(-10 -321.7)"/><path class="a" d="M417.3,492.7q0-38.25,27.4-65.1c18.2-17.9,40.5-26.8,66.7-26.8s48.7,9,67.1,27q27.15,27,27.2,66.4c0,26.5-9.1,48.6-27.4,66.5s-40.9,26.6-67.6,26.6c-26.5,0-48.6-9.1-66.5-27.2Q417.35,533.25,417.3,492.7Zm41.7,0.7c0,17.6,4.7,31.6,14.1,41.9,9.7,10.4,22.4,15.6,38.3,15.6s28.7-5.1,38.3-15.4,14.3-24,14.3-41.2-4.8-30.9-14.3-41.2c-9.7-10.4-22.4-15.6-38.3-15.6-15.6,0-28.2,5.2-37.9,15.6S459,476.9,459,493.4Z" transform="translate(-10 -321.7)"/><path class="a" d="M614.3,492.7q0-38.25,27.4-65.1c18.2-17.9,40.5-26.8,66.7-26.8s48.7,9,67.1,27q27.15,27,27.2,66.4c0,26.5-9.1,48.6-27.4,66.5s-40.9,26.6-67.6,26.6c-26.5,0-48.6-9.1-66.5-27.2C623.2,542.2,614.3,519.7,614.3,492.7Zm41.7,0.7c0,17.6,4.7,31.6,14.1,41.9,9.7,10.4,22.4,15.6,38.3,15.6s28.7-5.1,38.3-15.4,14.3-24,14.3-41.2-4.8-30.9-14.3-41.2c-9.7-10.4-22.4-15.6-38.3-15.6-15.6,0-28.2,5.2-37.9,15.6S656,476.9,656,493.4Z" transform="translate(-10 -321.7)"/><path class="a" d="M853.4,677.7l-40.8.5V415.4l40.8,0.7v8.8q24.15-24.15,54.7-24.1,36.45,0,60,26.8c16,17.8,23.9,40.2,23.9,67.3,0,26.5-7.9,48.5-23.7,66.2q-23.55,26.25-59.5,26.3-31.05,0-55.5-24.8V677.7h0.1Zm97-182.7c0-16.9-4.6-30.7-13.8-41.3-9.3-10.8-21-16.1-35.2-16.1-15,0-27.1,5.2-36.4,15.6s-14,24.1-14,41c0,16.6,4.7,30.2,14,41,9.2,10.5,21.3,15.8,36.3,15.8,14.1,0,25.8-5.3,35-16C945.7,524.3,950.4,511,950.4,495Z" transform="translate(-10 -321.7)"/><polygon class="b" points="465 46.4 433.7 82.5 391.4 71.5 465 46.4"/><polygon class="c" points="457.8 70.3 429.5 88.2 391.4 71.5 457.8 70.3"/></svg>
